G04 MADE WITH FRITZING*
G04 WWW.FRITZING.ORG*
G04 DOUBLE SIDED*
G04 HOLES PLATED*
G04 CONTOUR ON CENTER OF CONTOUR VECTOR*
%ASAXBY*%
%FSLAX23Y23*%
%MOIN*%
%OFA0B0*%
%SFA1.0B1.0*%
%ADD10R,1.023620X1.456690X1.007620X1.440690*%
%ADD11C,0.008000*%
%ADD12R,0.001000X0.001000*%
%LNSILK1*%
G90*
G70*
G54D11*
X4Y1453D02*
X1020Y1453D01*
X1020Y4D01*
X4Y4D01*
X4Y1453D01*
D02*
G54D12*
X145Y1457D02*
X208Y1457D01*
X774Y1457D02*
X837Y1457D01*
X144Y1456D02*
X207Y1456D01*
X775Y1456D02*
X838Y1456D01*
X143Y1455D02*
X206Y1455D01*
X776Y1455D02*
X839Y1455D01*
X142Y1454D02*
X205Y1454D01*
X777Y1454D02*
X840Y1454D01*
X141Y1453D02*
X203Y1453D01*
X779Y1453D02*
X841Y1453D01*
X140Y1452D02*
X202Y1452D01*
X780Y1452D02*
X842Y1452D01*
X140Y1451D02*
X201Y1451D01*
X781Y1451D02*
X843Y1451D01*
X139Y1450D02*
X200Y1450D01*
X782Y1450D02*
X843Y1450D01*
X138Y1449D02*
X199Y1449D01*
X783Y1449D02*
X844Y1449D01*
X137Y1448D02*
X197Y1448D01*
X785Y1448D02*
X845Y1448D01*
X136Y1447D02*
X196Y1447D01*
X786Y1447D02*
X846Y1447D01*
X136Y1446D02*
X195Y1446D01*
X787Y1446D02*
X847Y1446D01*
X135Y1445D02*
X194Y1445D01*
X788Y1445D02*
X847Y1445D01*
X134Y1444D02*
X193Y1444D01*
X789Y1444D02*
X848Y1444D01*
X133Y1443D02*
X192Y1443D01*
X790Y1443D02*
X849Y1443D01*
X132Y1442D02*
X191Y1442D01*
X791Y1442D02*
X850Y1442D01*
X132Y1441D02*
X190Y1441D01*
X792Y1441D02*
X850Y1441D01*
X131Y1440D02*
X189Y1440D01*
X793Y1440D02*
X851Y1440D01*
X130Y1439D02*
X188Y1439D01*
X794Y1439D02*
X852Y1439D01*
X130Y1438D02*
X187Y1438D01*
X795Y1438D02*
X852Y1438D01*
X129Y1437D02*
X186Y1437D01*
X796Y1437D02*
X853Y1437D01*
X128Y1436D02*
X185Y1436D01*
X797Y1436D02*
X854Y1436D01*
X127Y1435D02*
X184Y1435D01*
X798Y1435D02*
X855Y1435D01*
X127Y1434D02*
X183Y1434D01*
X799Y1434D02*
X855Y1434D01*
X126Y1433D02*
X182Y1433D01*
X800Y1433D02*
X856Y1433D01*
X125Y1432D02*
X181Y1432D01*
X801Y1432D02*
X857Y1432D01*
X125Y1431D02*
X180Y1431D01*
X802Y1431D02*
X857Y1431D01*
X124Y1430D02*
X179Y1430D01*
X803Y1430D02*
X858Y1430D01*
X123Y1429D02*
X178Y1429D01*
X804Y1429D02*
X859Y1429D01*
X123Y1428D02*
X177Y1428D01*
X805Y1428D02*
X859Y1428D01*
X122Y1427D02*
X176Y1427D01*
X806Y1427D02*
X860Y1427D01*
X121Y1426D02*
X175Y1426D01*
X807Y1426D02*
X861Y1426D01*
X121Y1425D02*
X174Y1425D01*
X808Y1425D02*
X861Y1425D01*
X120Y1424D02*
X174Y1424D01*
X808Y1424D02*
X862Y1424D01*
X120Y1423D02*
X173Y1423D01*
X809Y1423D02*
X862Y1423D01*
X119Y1422D02*
X172Y1422D01*
X810Y1422D02*
X863Y1422D01*
X118Y1421D02*
X171Y1421D01*
X811Y1421D02*
X864Y1421D01*
X118Y1420D02*
X170Y1420D01*
X812Y1420D02*
X864Y1420D01*
X117Y1419D02*
X169Y1419D01*
X813Y1419D02*
X865Y1419D01*
X117Y1418D02*
X168Y1418D01*
X814Y1418D02*
X865Y1418D01*
X116Y1417D02*
X168Y1417D01*
X814Y1417D02*
X866Y1417D01*
X115Y1416D02*
X167Y1416D01*
X815Y1416D02*
X867Y1416D01*
X115Y1415D02*
X166Y1415D01*
X816Y1415D02*
X867Y1415D01*
X114Y1414D02*
X165Y1414D01*
X817Y1414D02*
X868Y1414D01*
X114Y1413D02*
X165Y1413D01*
X818Y1413D02*
X868Y1413D01*
X113Y1412D02*
X164Y1412D01*
X818Y1412D02*
X869Y1412D01*
X113Y1411D02*
X163Y1411D01*
X819Y1411D02*
X869Y1411D01*
X112Y1410D02*
X162Y1410D01*
X820Y1410D02*
X870Y1410D01*
X112Y1409D02*
X162Y1409D01*
X820Y1409D02*
X870Y1409D01*
X112Y1408D02*
X161Y1408D01*
X821Y1408D02*
X871Y1408D01*
X113Y1407D02*
X160Y1407D01*
X822Y1407D02*
X871Y1407D01*
X113Y1406D02*
X159Y1406D01*
X823Y1406D02*
X872Y1406D01*
X114Y1405D02*
X159Y1405D01*
X823Y1405D02*
X872Y1405D01*
X114Y1404D02*
X158Y1404D01*
X824Y1404D02*
X873Y1404D01*
X115Y1403D02*
X157Y1403D01*
X825Y1403D02*
X873Y1403D01*
X115Y1402D02*
X156Y1402D01*
X826Y1402D02*
X874Y1402D01*
X116Y1401D02*
X156Y1401D01*
X826Y1401D02*
X874Y1401D01*
X116Y1400D02*
X155Y1400D01*
X827Y1400D02*
X875Y1400D01*
X116Y1399D02*
X155Y1399D01*
X827Y1399D02*
X875Y1399D01*
X117Y1398D02*
X154Y1398D01*
X828Y1398D02*
X876Y1398D01*
X117Y1397D02*
X153Y1397D01*
X829Y1397D02*
X876Y1397D01*
X117Y1396D02*
X153Y1396D01*
X829Y1396D02*
X877Y1396D01*
X117Y1395D02*
X152Y1395D01*
X830Y1395D02*
X877Y1395D01*
X117Y1394D02*
X151Y1394D01*
X831Y1394D02*
X878Y1394D01*
X118Y1393D02*
X151Y1393D01*
X831Y1393D02*
X878Y1393D01*
X118Y1392D02*
X150Y1392D01*
X832Y1392D02*
X879Y1392D01*
X118Y1391D02*
X149Y1391D01*
X833Y1391D02*
X879Y1391D01*
X118Y1390D02*
X149Y1390D01*
X833Y1390D02*
X879Y1390D01*
X118Y1389D02*
X148Y1389D01*
X834Y1389D02*
X880Y1389D01*
X118Y1388D02*
X148Y1388D01*
X834Y1388D02*
X880Y1388D01*
X118Y1387D02*
X147Y1387D01*
X835Y1387D02*
X881Y1387D01*
X118Y1386D02*
X147Y1386D01*
X836Y1386D02*
X881Y1386D01*
X118Y1385D02*
X146Y1385D01*
X836Y1385D02*
X882Y1385D01*
X118Y1384D02*
X145Y1384D01*
X837Y1384D02*
X882Y1384D01*
X118Y1383D02*
X145Y1383D01*
X837Y1383D02*
X882Y1383D01*
X118Y1382D02*
X144Y1382D01*
X838Y1382D02*
X883Y1382D01*
X118Y1381D02*
X144Y1381D01*
X838Y1381D02*
X883Y1381D01*
X118Y1380D02*
X143Y1380D01*
X839Y1380D02*
X883Y1380D01*
X118Y1379D02*
X143Y1379D01*
X839Y1379D02*
X884Y1379D01*
X118Y1378D02*
X142Y1378D01*
X840Y1378D02*
X884Y1378D01*
X118Y1377D02*
X142Y1377D01*
X840Y1377D02*
X885Y1377D01*
X117Y1376D02*
X141Y1376D01*
X841Y1376D02*
X885Y1376D01*
X117Y1375D02*
X141Y1375D01*
X841Y1375D02*
X885Y1375D01*
X117Y1374D02*
X140Y1374D01*
X842Y1374D02*
X886Y1374D01*
X117Y1373D02*
X140Y1373D01*
X842Y1373D02*
X886Y1373D01*
X116Y1372D02*
X139Y1372D01*
X843Y1372D02*
X886Y1372D01*
X116Y1371D02*
X139Y1371D01*
X843Y1371D02*
X887Y1371D01*
X116Y1370D02*
X138Y1370D01*
X844Y1370D02*
X887Y1370D01*
X116Y1369D02*
X138Y1369D01*
X844Y1369D02*
X887Y1369D01*
X115Y1368D02*
X137Y1368D01*
X845Y1368D02*
X888Y1368D01*
X115Y1367D02*
X137Y1367D01*
X845Y1367D02*
X888Y1367D01*
X114Y1366D02*
X136Y1366D01*
X846Y1366D02*
X888Y1366D01*
X114Y1365D02*
X136Y1365D01*
X846Y1365D02*
X889Y1365D01*
X113Y1364D02*
X135Y1364D01*
X847Y1364D02*
X889Y1364D01*
X113Y1363D02*
X135Y1363D01*
X847Y1363D02*
X889Y1363D01*
X112Y1362D02*
X135Y1362D01*
X848Y1362D02*
X890Y1362D01*
X112Y1361D02*
X134Y1361D01*
X848Y1361D02*
X890Y1361D01*
X111Y1360D02*
X134Y1360D01*
X848Y1360D02*
X890Y1360D01*
X111Y1359D02*
X133Y1359D01*
X849Y1359D02*
X891Y1359D01*
X110Y1358D02*
X133Y1358D01*
X849Y1358D02*
X891Y1358D01*
X109Y1357D02*
X132Y1357D01*
X850Y1357D02*
X891Y1357D01*
X109Y1356D02*
X132Y1356D01*
X850Y1356D02*
X891Y1356D01*
X108Y1355D02*
X132Y1355D01*
X850Y1355D02*
X892Y1355D01*
X107Y1354D02*
X131Y1354D01*
X851Y1354D02*
X892Y1354D01*
X106Y1353D02*
X131Y1353D01*
X851Y1353D02*
X892Y1353D01*
X105Y1352D02*
X130Y1352D01*
X852Y1352D02*
X893Y1352D01*
X104Y1351D02*
X130Y1351D01*
X852Y1351D02*
X893Y1351D01*
X103Y1350D02*
X130Y1350D01*
X852Y1350D02*
X893Y1350D01*
X102Y1349D02*
X129Y1349D01*
X853Y1349D02*
X893Y1349D01*
X101Y1348D02*
X129Y1348D01*
X853Y1348D02*
X894Y1348D01*
X100Y1347D02*
X129Y1347D01*
X853Y1347D02*
X894Y1347D01*
X98Y1346D02*
X128Y1346D01*
X854Y1346D02*
X894Y1346D01*
X97Y1345D02*
X128Y1345D01*
X854Y1345D02*
X894Y1345D01*
X95Y1344D02*
X128Y1344D01*
X854Y1344D02*
X895Y1344D01*
X94Y1343D02*
X127Y1343D01*
X855Y1343D02*
X895Y1343D01*
X92Y1342D02*
X127Y1342D01*
X855Y1342D02*
X895Y1342D01*
X90Y1341D02*
X127Y1341D01*
X855Y1341D02*
X895Y1341D01*
X87Y1340D02*
X126Y1340D01*
X856Y1340D02*
X895Y1340D01*
X86Y1339D02*
X126Y1339D01*
X856Y1339D02*
X896Y1339D01*
X86Y1338D02*
X126Y1338D01*
X856Y1338D02*
X896Y1338D01*
X86Y1337D02*
X125Y1337D01*
X857Y1337D02*
X896Y1337D01*
X86Y1336D02*
X125Y1336D01*
X857Y1336D02*
X896Y1336D01*
X85Y1335D02*
X125Y1335D01*
X857Y1335D02*
X897Y1335D01*
X85Y1334D02*
X124Y1334D01*
X858Y1334D02*
X897Y1334D01*
X85Y1333D02*
X124Y1333D01*
X858Y1333D02*
X897Y1333D01*
X85Y1332D02*
X124Y1332D01*
X858Y1332D02*
X897Y1332D01*
X85Y1331D02*
X123Y1331D01*
X859Y1331D02*
X897Y1331D01*
X84Y1330D02*
X123Y1330D01*
X859Y1330D02*
X898Y1330D01*
X84Y1329D02*
X123Y1329D01*
X859Y1329D02*
X898Y1329D01*
X84Y1328D02*
X123Y1328D01*
X859Y1328D02*
X898Y1328D01*
X84Y1327D02*
X122Y1327D01*
X860Y1327D02*
X898Y1327D01*
X84Y1326D02*
X122Y1326D01*
X860Y1326D02*
X898Y1326D01*
X84Y1325D02*
X122Y1325D01*
X860Y1325D02*
X898Y1325D01*
X83Y1324D02*
X122Y1324D01*
X860Y1324D02*
X899Y1324D01*
X83Y1323D02*
X121Y1323D01*
X861Y1323D02*
X899Y1323D01*
X83Y1322D02*
X121Y1322D01*
X861Y1322D02*
X899Y1322D01*
X83Y1321D02*
X121Y1321D01*
X861Y1321D02*
X899Y1321D01*
X83Y1320D02*
X121Y1320D01*
X861Y1320D02*
X899Y1320D01*
X83Y1319D02*
X120Y1319D01*
X865Y1319D02*
X899Y1319D01*
X82Y1318D02*
X120Y1318D01*
X870Y1318D02*
X900Y1318D01*
X82Y1317D02*
X120Y1317D01*
X874Y1317D02*
X900Y1317D01*
X82Y1316D02*
X120Y1316D01*
X876Y1316D02*
X900Y1316D01*
X82Y1315D02*
X119Y1315D01*
X878Y1315D02*
X900Y1315D01*
X82Y1314D02*
X119Y1314D01*
X880Y1314D02*
X900Y1314D01*
X82Y1313D02*
X119Y1313D01*
X882Y1313D02*
X900Y1313D01*
X82Y1312D02*
X119Y1312D01*
X884Y1312D02*
X900Y1312D01*
X81Y1311D02*
X118Y1311D01*
X885Y1311D02*
X901Y1311D01*
X81Y1310D02*
X118Y1310D01*
X886Y1310D02*
X901Y1310D01*
X81Y1309D02*
X118Y1309D01*
X888Y1309D02*
X901Y1309D01*
X81Y1308D02*
X118Y1308D01*
X889Y1308D02*
X901Y1308D01*
X81Y1307D02*
X118Y1307D01*
X890Y1307D02*
X901Y1307D01*
X81Y1306D02*
X117Y1306D01*
X891Y1306D02*
X901Y1306D01*
X81Y1305D02*
X117Y1305D01*
X892Y1305D02*
X901Y1305D01*
X81Y1304D02*
X117Y1304D01*
X893Y1304D02*
X901Y1304D01*
X80Y1303D02*
X117Y1303D01*
X894Y1303D02*
X902Y1303D01*
X80Y1302D02*
X117Y1302D01*
X894Y1302D02*
X902Y1302D01*
X80Y1301D02*
X117Y1301D01*
X895Y1301D02*
X902Y1301D01*
X80Y1300D02*
X116Y1300D01*
X896Y1300D02*
X902Y1300D01*
X80Y1299D02*
X116Y1299D01*
X896Y1299D02*
X902Y1299D01*
X80Y1298D02*
X116Y1298D01*
X897Y1298D02*
X902Y1298D01*
X80Y1297D02*
X116Y1297D01*
X898Y1297D02*
X902Y1297D01*
X80Y1296D02*
X116Y1296D01*
X898Y1296D02*
X902Y1296D01*
X80Y1295D02*
X116Y1295D01*
X899Y1295D02*
X902Y1295D01*
X80Y1294D02*
X115Y1294D01*
X899Y1294D02*
X902Y1294D01*
X80Y1293D02*
X115Y1293D01*
X900Y1293D02*
X902Y1293D01*
X79Y1292D02*
X115Y1292D01*
X900Y1292D02*
X903Y1292D01*
X79Y1291D02*
X115Y1291D01*
X900Y1291D02*
X903Y1291D01*
X79Y1290D02*
X115Y1290D01*
X901Y1290D02*
X903Y1290D01*
X79Y1289D02*
X115Y1289D01*
X901Y1289D02*
X903Y1289D01*
X79Y1288D02*
X115Y1288D01*
X901Y1288D02*
X903Y1288D01*
X79Y1287D02*
X114Y1287D01*
X902Y1287D02*
X903Y1287D01*
X79Y1286D02*
X114Y1286D01*
X902Y1286D02*
X903Y1286D01*
X79Y1285D02*
X114Y1285D01*
X902Y1285D02*
X903Y1285D01*
X79Y1284D02*
X114Y1284D01*
X902Y1284D02*
X903Y1284D01*
X79Y1283D02*
X114Y1283D01*
X903Y1283D02*
X903Y1283D01*
X79Y1282D02*
X114Y1282D01*
X903Y1282D02*
X903Y1282D01*
X79Y1281D02*
X114Y1281D01*
X903Y1281D02*
X903Y1281D01*
X79Y1280D02*
X114Y1280D01*
X903Y1280D02*
X903Y1280D01*
X79Y1279D02*
X113Y1279D01*
X903Y1279D02*
X903Y1279D01*
X79Y1278D02*
X113Y1278D01*
X903Y1278D02*
X903Y1278D01*
X79Y1277D02*
X113Y1277D01*
X903Y1277D02*
X903Y1277D01*
X79Y1276D02*
X113Y1276D01*
X903Y1276D02*
X903Y1276D01*
X79Y1275D02*
X113Y1275D01*
X903Y1275D02*
X903Y1275D01*
X79Y1274D02*
X113Y1274D01*
X903Y1274D02*
X903Y1274D01*
X79Y1273D02*
X113Y1273D01*
X903Y1273D02*
X904Y1273D01*
X78Y1272D02*
X113Y1272D01*
X903Y1272D02*
X904Y1272D01*
X78Y1271D02*
X113Y1271D01*
X903Y1271D02*
X904Y1271D01*
X78Y1270D02*
X113Y1270D01*
X903Y1270D02*
X904Y1270D01*
X78Y1269D02*
X113Y1269D01*
X903Y1269D02*
X904Y1269D01*
X78Y1268D02*
X113Y1268D01*
X903Y1268D02*
X904Y1268D01*
X78Y1267D02*
X112Y1267D01*
X902Y1267D02*
X904Y1267D01*
X78Y1266D02*
X112Y1266D01*
X902Y1266D02*
X904Y1266D01*
X78Y1265D02*
X112Y1265D01*
X902Y1265D02*
X904Y1265D01*
X78Y1264D02*
X112Y1264D01*
X902Y1264D02*
X904Y1264D01*
X78Y1263D02*
X112Y1263D01*
X902Y1263D02*
X904Y1263D01*
X78Y1262D02*
X112Y1262D01*
X901Y1262D02*
X904Y1262D01*
X78Y1261D02*
X112Y1261D01*
X901Y1261D02*
X904Y1261D01*
X78Y1260D02*
X112Y1260D01*
X901Y1260D02*
X904Y1260D01*
X78Y1259D02*
X112Y1259D01*
X900Y1259D02*
X904Y1259D01*
X78Y1258D02*
X112Y1258D01*
X900Y1258D02*
X904Y1258D01*
X78Y1257D02*
X112Y1257D01*
X899Y1257D02*
X904Y1257D01*
X78Y1256D02*
X112Y1256D01*
X899Y1256D02*
X904Y1256D01*
X78Y1255D02*
X112Y1255D01*
X898Y1255D02*
X904Y1255D01*
X78Y1254D02*
X112Y1254D01*
X898Y1254D02*
X904Y1254D01*
X78Y1253D02*
X112Y1253D01*
X897Y1253D02*
X904Y1253D01*
X78Y1252D02*
X112Y1252D01*
X896Y1252D02*
X904Y1252D01*
X78Y1251D02*
X112Y1251D01*
X896Y1251D02*
X904Y1251D01*
X78Y1250D02*
X112Y1250D01*
X895Y1250D02*
X904Y1250D01*
X78Y1249D02*
X112Y1249D01*
X894Y1249D02*
X904Y1249D01*
X78Y1248D02*
X112Y1248D01*
X894Y1248D02*
X904Y1248D01*
X78Y1247D02*
X112Y1247D01*
X893Y1247D02*
X904Y1247D01*
X78Y1246D02*
X112Y1246D01*
X892Y1246D02*
X904Y1246D01*
X78Y1245D02*
X112Y1245D01*
X891Y1245D02*
X904Y1245D01*
X78Y1244D02*
X112Y1244D01*
X890Y1244D02*
X904Y1244D01*
X78Y1243D02*
X112Y1243D01*
X889Y1243D02*
X904Y1243D01*
X78Y1242D02*
X112Y1242D01*
X888Y1242D02*
X904Y1242D01*
X78Y1241D02*
X112Y1241D01*
X887Y1241D02*
X904Y1241D01*
X78Y1240D02*
X112Y1240D01*
X885Y1240D02*
X904Y1240D01*
X78Y1239D02*
X112Y1239D01*
X884Y1239D02*
X904Y1239D01*
X78Y1238D02*
X112Y1238D01*
X882Y1238D02*
X904Y1238D01*
X78Y1237D02*
X112Y1237D01*
X881Y1237D02*
X904Y1237D01*
X78Y1236D02*
X112Y1236D01*
X879Y1236D02*
X904Y1236D01*
X78Y1235D02*
X112Y1235D01*
X877Y1235D02*
X904Y1235D01*
X78Y1234D02*
X112Y1234D01*
X874Y1234D02*
X904Y1234D01*
X78Y1233D02*
X112Y1233D01*
X871Y1233D02*
X904Y1233D01*
X78Y1232D02*
X112Y1232D01*
X870Y1232D02*
X904Y1232D01*
X78Y1231D02*
X112Y1231D01*
X870Y1231D02*
X904Y1231D01*
X78Y1230D02*
X112Y1230D01*
X870Y1230D02*
X904Y1230D01*
X78Y1229D02*
X112Y1229D01*
X870Y1229D02*
X904Y1229D01*
X78Y1228D02*
X112Y1228D01*
X870Y1228D02*
X904Y1228D01*
X78Y1227D02*
X112Y1227D01*
X870Y1227D02*
X904Y1227D01*
X78Y1226D02*
X112Y1226D01*
X870Y1226D02*
X904Y1226D01*
X78Y1225D02*
X112Y1225D01*
X870Y1225D02*
X904Y1225D01*
X78Y1224D02*
X112Y1224D01*
X870Y1224D02*
X904Y1224D01*
X78Y1223D02*
X112Y1223D01*
X870Y1223D02*
X904Y1223D01*
X78Y1222D02*
X112Y1222D01*
X870Y1222D02*
X904Y1222D01*
X78Y1221D02*
X112Y1221D01*
X870Y1221D02*
X904Y1221D01*
X78Y1220D02*
X112Y1220D01*
X870Y1220D02*
X904Y1220D01*
X78Y1219D02*
X112Y1219D01*
X870Y1219D02*
X904Y1219D01*
X78Y1218D02*
X112Y1218D01*
X870Y1218D02*
X904Y1218D01*
X78Y1217D02*
X112Y1217D01*
X870Y1217D02*
X904Y1217D01*
X78Y1216D02*
X112Y1216D01*
X870Y1216D02*
X904Y1216D01*
X78Y1215D02*
X112Y1215D01*
X870Y1215D02*
X904Y1215D01*
X78Y1214D02*
X112Y1214D01*
X870Y1214D02*
X904Y1214D01*
X78Y1213D02*
X112Y1213D01*
X870Y1213D02*
X904Y1213D01*
X78Y1212D02*
X112Y1212D01*
X870Y1212D02*
X904Y1212D01*
X78Y1211D02*
X112Y1211D01*
X870Y1211D02*
X904Y1211D01*
X78Y1210D02*
X112Y1210D01*
X870Y1210D02*
X904Y1210D01*
X78Y1209D02*
X112Y1209D01*
X870Y1209D02*
X904Y1209D01*
X78Y1208D02*
X112Y1208D01*
X870Y1208D02*
X904Y1208D01*
X78Y1207D02*
X112Y1207D01*
X870Y1207D02*
X904Y1207D01*
X78Y1206D02*
X112Y1206D01*
X870Y1206D02*
X904Y1206D01*
X78Y1205D02*
X112Y1205D01*
X870Y1205D02*
X904Y1205D01*
X78Y1204D02*
X112Y1204D01*
X870Y1204D02*
X904Y1204D01*
X78Y1203D02*
X112Y1203D01*
X870Y1203D02*
X904Y1203D01*
X78Y1202D02*
X112Y1202D01*
X870Y1202D02*
X904Y1202D01*
X78Y1201D02*
X112Y1201D01*
X870Y1201D02*
X904Y1201D01*
X78Y1200D02*
X112Y1200D01*
X870Y1200D02*
X904Y1200D01*
X78Y1199D02*
X112Y1199D01*
X870Y1199D02*
X904Y1199D01*
X78Y1198D02*
X112Y1198D01*
X870Y1198D02*
X904Y1198D01*
X78Y1197D02*
X112Y1197D01*
X870Y1197D02*
X904Y1197D01*
X78Y1196D02*
X112Y1196D01*
X870Y1196D02*
X904Y1196D01*
X78Y1195D02*
X112Y1195D01*
X870Y1195D02*
X904Y1195D01*
X78Y1194D02*
X112Y1194D01*
X870Y1194D02*
X904Y1194D01*
X78Y1193D02*
X112Y1193D01*
X870Y1193D02*
X904Y1193D01*
X78Y1192D02*
X112Y1192D01*
X870Y1192D02*
X904Y1192D01*
X78Y1191D02*
X112Y1191D01*
X870Y1191D02*
X904Y1191D01*
X78Y1190D02*
X112Y1190D01*
X870Y1190D02*
X904Y1190D01*
X78Y1189D02*
X112Y1189D01*
X870Y1189D02*
X904Y1189D01*
X78Y1188D02*
X112Y1188D01*
X870Y1188D02*
X904Y1188D01*
X78Y1187D02*
X112Y1187D01*
X870Y1187D02*
X904Y1187D01*
X78Y1186D02*
X112Y1186D01*
X870Y1186D02*
X904Y1186D01*
X78Y1185D02*
X112Y1185D01*
X870Y1185D02*
X904Y1185D01*
X78Y1184D02*
X112Y1184D01*
X870Y1184D02*
X904Y1184D01*
X78Y1183D02*
X112Y1183D01*
X870Y1183D02*
X904Y1183D01*
X78Y1182D02*
X112Y1182D01*
X870Y1182D02*
X904Y1182D01*
X78Y1181D02*
X112Y1181D01*
X870Y1181D02*
X904Y1181D01*
X78Y1180D02*
X112Y1180D01*
X870Y1180D02*
X904Y1180D01*
X78Y1179D02*
X112Y1179D01*
X870Y1179D02*
X904Y1179D01*
X78Y1178D02*
X112Y1178D01*
X870Y1178D02*
X904Y1178D01*
X78Y1177D02*
X112Y1177D01*
X870Y1177D02*
X904Y1177D01*
X78Y1176D02*
X112Y1176D01*
X870Y1176D02*
X904Y1176D01*
X78Y1175D02*
X112Y1175D01*
X870Y1175D02*
X904Y1175D01*
X78Y1174D02*
X112Y1174D01*
X870Y1174D02*
X904Y1174D01*
X78Y1173D02*
X112Y1173D01*
X870Y1173D02*
X904Y1173D01*
X78Y1172D02*
X112Y1172D01*
X870Y1172D02*
X904Y1172D01*
X78Y1171D02*
X112Y1171D01*
X870Y1171D02*
X904Y1171D01*
X78Y1170D02*
X112Y1170D01*
X870Y1170D02*
X904Y1170D01*
X78Y1169D02*
X112Y1169D01*
X870Y1169D02*
X870Y1169D01*
X879Y1169D02*
X904Y1169D01*
X78Y1168D02*
X112Y1168D01*
X883Y1168D02*
X904Y1168D01*
X78Y1167D02*
X112Y1167D01*
X886Y1167D02*
X904Y1167D01*
X78Y1166D02*
X112Y1166D01*
X888Y1166D02*
X904Y1166D01*
X78Y1165D02*
X112Y1165D01*
X889Y1165D02*
X904Y1165D01*
X78Y1164D02*
X112Y1164D01*
X891Y1164D02*
X904Y1164D01*
X78Y1163D02*
X112Y1163D01*
X892Y1163D02*
X904Y1163D01*
X78Y1162D02*
X112Y1162D01*
X893Y1162D02*
X904Y1162D01*
X78Y1161D02*
X112Y1161D01*
X894Y1161D02*
X904Y1161D01*
X78Y1160D02*
X112Y1160D01*
X895Y1160D02*
X904Y1160D01*
X78Y1159D02*
X112Y1159D01*
X895Y1159D02*
X904Y1159D01*
X78Y1158D02*
X112Y1158D01*
X896Y1158D02*
X904Y1158D01*
X78Y1157D02*
X112Y1157D01*
X897Y1157D02*
X904Y1157D01*
X78Y1156D02*
X112Y1156D01*
X897Y1156D02*
X904Y1156D01*
X78Y1155D02*
X112Y1155D01*
X898Y1155D02*
X904Y1155D01*
X78Y1154D02*
X112Y1154D01*
X898Y1154D02*
X904Y1154D01*
X78Y1153D02*
X112Y1153D01*
X898Y1153D02*
X904Y1153D01*
X78Y1152D02*
X112Y1152D01*
X899Y1152D02*
X904Y1152D01*
X78Y1151D02*
X112Y1151D01*
X899Y1151D02*
X904Y1151D01*
X78Y1150D02*
X112Y1150D01*
X899Y1150D02*
X904Y1150D01*
X78Y1149D02*
X112Y1149D01*
X900Y1149D02*
X904Y1149D01*
X78Y1148D02*
X112Y1148D01*
X900Y1148D02*
X904Y1148D01*
X78Y1147D02*
X112Y1147D01*
X900Y1147D02*
X904Y1147D01*
X78Y1146D02*
X112Y1146D01*
X900Y1146D02*
X904Y1146D01*
X78Y1145D02*
X112Y1145D01*
X900Y1145D02*
X904Y1145D01*
X78Y1144D02*
X112Y1144D01*
X900Y1144D02*
X904Y1144D01*
X78Y1143D02*
X112Y1143D01*
X900Y1143D02*
X904Y1143D01*
X78Y1142D02*
X112Y1142D01*
X900Y1142D02*
X904Y1142D01*
X78Y1141D02*
X112Y1141D01*
X900Y1141D02*
X904Y1141D01*
X78Y1140D02*
X112Y1140D01*
X900Y1140D02*
X904Y1140D01*
X78Y1139D02*
X112Y1139D01*
X899Y1139D02*
X904Y1139D01*
X78Y1138D02*
X112Y1138D01*
X899Y1138D02*
X904Y1138D01*
X78Y1137D02*
X112Y1137D01*
X899Y1137D02*
X904Y1137D01*
X78Y1136D02*
X112Y1136D01*
X898Y1136D02*
X904Y1136D01*
X78Y1135D02*
X112Y1135D01*
X898Y1135D02*
X904Y1135D01*
X78Y1134D02*
X112Y1134D01*
X897Y1134D02*
X904Y1134D01*
X78Y1133D02*
X112Y1133D01*
X897Y1133D02*
X904Y1133D01*
X78Y1132D02*
X112Y1132D01*
X896Y1132D02*
X904Y1132D01*
X78Y1131D02*
X112Y1131D01*
X896Y1131D02*
X904Y1131D01*
X78Y1130D02*
X112Y1130D01*
X895Y1130D02*
X904Y1130D01*
X78Y1129D02*
X112Y1129D01*
X894Y1129D02*
X904Y1129D01*
X78Y1128D02*
X112Y1128D01*
X893Y1128D02*
X904Y1128D01*
X78Y1127D02*
X112Y1127D01*
X892Y1127D02*
X904Y1127D01*
X78Y1126D02*
X112Y1126D01*
X891Y1126D02*
X904Y1126D01*
X78Y1125D02*
X112Y1125D01*
X890Y1125D02*
X904Y1125D01*
X78Y1124D02*
X112Y1124D01*
X888Y1124D02*
X904Y1124D01*
X78Y1123D02*
X112Y1123D01*
X886Y1123D02*
X904Y1123D01*
X78Y1122D02*
X112Y1122D01*
X884Y1122D02*
X904Y1122D01*
X78Y1121D02*
X112Y1121D01*
X881Y1121D02*
X904Y1121D01*
X78Y1120D02*
X112Y1120D01*
X870Y1120D02*
X904Y1120D01*
X78Y1119D02*
X112Y1119D01*
X870Y1119D02*
X904Y1119D01*
X78Y1118D02*
X112Y1118D01*
X870Y1118D02*
X904Y1118D01*
X78Y1117D02*
X112Y1117D01*
X870Y1117D02*
X904Y1117D01*
X78Y1116D02*
X112Y1116D01*
X870Y1116D02*
X904Y1116D01*
X78Y1115D02*
X112Y1115D01*
X870Y1115D02*
X904Y1115D01*
X78Y1114D02*
X112Y1114D01*
X870Y1114D02*
X904Y1114D01*
X78Y1113D02*
X112Y1113D01*
X870Y1113D02*
X904Y1113D01*
X78Y1112D02*
X112Y1112D01*
X870Y1112D02*
X904Y1112D01*
X78Y1111D02*
X112Y1111D01*
X870Y1111D02*
X904Y1111D01*
X78Y1110D02*
X112Y1110D01*
X870Y1110D02*
X904Y1110D01*
X78Y1109D02*
X112Y1109D01*
X870Y1109D02*
X904Y1109D01*
X78Y1108D02*
X112Y1108D01*
X870Y1108D02*
X904Y1108D01*
X78Y1107D02*
X112Y1107D01*
X870Y1107D02*
X904Y1107D01*
X78Y1106D02*
X112Y1106D01*
X870Y1106D02*
X904Y1106D01*
X78Y1105D02*
X112Y1105D01*
X870Y1105D02*
X904Y1105D01*
X78Y1104D02*
X112Y1104D01*
X870Y1104D02*
X904Y1104D01*
X78Y1103D02*
X112Y1103D01*
X870Y1103D02*
X904Y1103D01*
X78Y1102D02*
X112Y1102D01*
X870Y1102D02*
X904Y1102D01*
X78Y1101D02*
X112Y1101D01*
X870Y1101D02*
X904Y1101D01*
X78Y1100D02*
X112Y1100D01*
X870Y1100D02*
X904Y1100D01*
X78Y1099D02*
X112Y1099D01*
X870Y1099D02*
X904Y1099D01*
X78Y1098D02*
X112Y1098D01*
X870Y1098D02*
X904Y1098D01*
X78Y1097D02*
X112Y1097D01*
X870Y1097D02*
X904Y1097D01*
X78Y1096D02*
X112Y1096D01*
X870Y1096D02*
X904Y1096D01*
X78Y1095D02*
X112Y1095D01*
X870Y1095D02*
X904Y1095D01*
X78Y1094D02*
X112Y1094D01*
X870Y1094D02*
X904Y1094D01*
X78Y1093D02*
X112Y1093D01*
X870Y1093D02*
X904Y1093D01*
X78Y1092D02*
X112Y1092D01*
X870Y1092D02*
X904Y1092D01*
X78Y1091D02*
X112Y1091D01*
X870Y1091D02*
X904Y1091D01*
X78Y1090D02*
X112Y1090D01*
X870Y1090D02*
X904Y1090D01*
X78Y1089D02*
X112Y1089D01*
X870Y1089D02*
X904Y1089D01*
X78Y1088D02*
X112Y1088D01*
X870Y1088D02*
X904Y1088D01*
X78Y1087D02*
X112Y1087D01*
X870Y1087D02*
X904Y1087D01*
X78Y1086D02*
X112Y1086D01*
X870Y1086D02*
X904Y1086D01*
X78Y1085D02*
X112Y1085D01*
X870Y1085D02*
X904Y1085D01*
X78Y1084D02*
X112Y1084D01*
X870Y1084D02*
X904Y1084D01*
X78Y1083D02*
X112Y1083D01*
X870Y1083D02*
X904Y1083D01*
X78Y1082D02*
X112Y1082D01*
X870Y1082D02*
X904Y1082D01*
X78Y1081D02*
X112Y1081D01*
X870Y1081D02*
X904Y1081D01*
X78Y1080D02*
X112Y1080D01*
X870Y1080D02*
X904Y1080D01*
X78Y1079D02*
X112Y1079D01*
X870Y1079D02*
X904Y1079D01*
X78Y1078D02*
X112Y1078D01*
X870Y1078D02*
X904Y1078D01*
X78Y1077D02*
X112Y1077D01*
X870Y1077D02*
X904Y1077D01*
X78Y1076D02*
X112Y1076D01*
X870Y1076D02*
X904Y1076D01*
X78Y1075D02*
X112Y1075D01*
X870Y1075D02*
X904Y1075D01*
X78Y1074D02*
X112Y1074D01*
X870Y1074D02*
X904Y1074D01*
X78Y1073D02*
X112Y1073D01*
X870Y1073D02*
X904Y1073D01*
X78Y1072D02*
X112Y1072D01*
X870Y1072D02*
X904Y1072D01*
X78Y1071D02*
X112Y1071D01*
X870Y1071D02*
X904Y1071D01*
X78Y1070D02*
X112Y1070D01*
X870Y1070D02*
X904Y1070D01*
X78Y1069D02*
X112Y1069D01*
X870Y1069D02*
X904Y1069D01*
X78Y1068D02*
X112Y1068D01*
X870Y1068D02*
X904Y1068D01*
X78Y1067D02*
X112Y1067D01*
X870Y1067D02*
X904Y1067D01*
X78Y1066D02*
X112Y1066D01*
X870Y1066D02*
X904Y1066D01*
X78Y1065D02*
X112Y1065D01*
X870Y1065D02*
X904Y1065D01*
X78Y1064D02*
X112Y1064D01*
X870Y1064D02*
X904Y1064D01*
X78Y1063D02*
X112Y1063D01*
X870Y1063D02*
X904Y1063D01*
X78Y1062D02*
X112Y1062D01*
X870Y1062D02*
X904Y1062D01*
X78Y1061D02*
X112Y1061D01*
X870Y1061D02*
X904Y1061D01*
X78Y1060D02*
X112Y1060D01*
X870Y1060D02*
X904Y1060D01*
X78Y1059D02*
X112Y1059D01*
X870Y1059D02*
X904Y1059D01*
X78Y1058D02*
X112Y1058D01*
X870Y1058D02*
X904Y1058D01*
X78Y1057D02*
X112Y1057D01*
X870Y1057D02*
X904Y1057D01*
X78Y1056D02*
X112Y1056D01*
X870Y1056D02*
X904Y1056D01*
X78Y1055D02*
X112Y1055D01*
X870Y1055D02*
X904Y1055D01*
X78Y1054D02*
X112Y1054D01*
X870Y1054D02*
X904Y1054D01*
X78Y1053D02*
X112Y1053D01*
X870Y1053D02*
X904Y1053D01*
X78Y1052D02*
X112Y1052D01*
X870Y1052D02*
X904Y1052D01*
X78Y1051D02*
X112Y1051D01*
X870Y1051D02*
X904Y1051D01*
X78Y1050D02*
X112Y1050D01*
X870Y1050D02*
X904Y1050D01*
X78Y1049D02*
X112Y1049D01*
X870Y1049D02*
X904Y1049D01*
X78Y1048D02*
X112Y1048D01*
X870Y1048D02*
X904Y1048D01*
X78Y1047D02*
X112Y1047D01*
X870Y1047D02*
X904Y1047D01*
X78Y1046D02*
X112Y1046D01*
X870Y1046D02*
X904Y1046D01*
X78Y1045D02*
X112Y1045D01*
X870Y1045D02*
X904Y1045D01*
X78Y1044D02*
X112Y1044D01*
X870Y1044D02*
X904Y1044D01*
X78Y1043D02*
X112Y1043D01*
X870Y1043D02*
X904Y1043D01*
X78Y1042D02*
X112Y1042D01*
X870Y1042D02*
X904Y1042D01*
X78Y1041D02*
X112Y1041D01*
X870Y1041D02*
X904Y1041D01*
X78Y1040D02*
X112Y1040D01*
X870Y1040D02*
X904Y1040D01*
X78Y1039D02*
X112Y1039D01*
X870Y1039D02*
X904Y1039D01*
X78Y1038D02*
X112Y1038D01*
X870Y1038D02*
X904Y1038D01*
X78Y1037D02*
X112Y1037D01*
X870Y1037D02*
X904Y1037D01*
X78Y1036D02*
X112Y1036D01*
X870Y1036D02*
X904Y1036D01*
X78Y1035D02*
X112Y1035D01*
X870Y1035D02*
X904Y1035D01*
X78Y1034D02*
X112Y1034D01*
X870Y1034D02*
X904Y1034D01*
X78Y1033D02*
X112Y1033D01*
X870Y1033D02*
X904Y1033D01*
X78Y1032D02*
X112Y1032D01*
X870Y1032D02*
X904Y1032D01*
X78Y1031D02*
X112Y1031D01*
X870Y1031D02*
X904Y1031D01*
X78Y1030D02*
X112Y1030D01*
X870Y1030D02*
X904Y1030D01*
X78Y1029D02*
X112Y1029D01*
X870Y1029D02*
X904Y1029D01*
X78Y1028D02*
X112Y1028D01*
X870Y1028D02*
X904Y1028D01*
X78Y1027D02*
X112Y1027D01*
X870Y1027D02*
X904Y1027D01*
X78Y1026D02*
X112Y1026D01*
X371Y1026D02*
X400Y1026D01*
X419Y1026D02*
X427Y1026D01*
X449Y1026D02*
X450Y1026D01*
X521Y1026D02*
X538Y1026D01*
X571Y1026D02*
X597Y1026D01*
X619Y1026D02*
X641Y1026D01*
X870Y1026D02*
X904Y1026D01*
X78Y1025D02*
X112Y1025D01*
X370Y1025D02*
X402Y1025D01*
X419Y1025D02*
X428Y1025D01*
X447Y1025D02*
X452Y1025D01*
X520Y1025D02*
X539Y1025D01*
X570Y1025D02*
X599Y1025D01*
X619Y1025D02*
X644Y1025D01*
X870Y1025D02*
X904Y1025D01*
X78Y1024D02*
X112Y1024D01*
X369Y1024D02*
X402Y1024D01*
X419Y1024D02*
X428Y1024D01*
X447Y1024D02*
X452Y1024D01*
X519Y1024D02*
X539Y1024D01*
X569Y1024D02*
X600Y1024D01*
X619Y1024D02*
X646Y1024D01*
X870Y1024D02*
X904Y1024D01*
X78Y1023D02*
X112Y1023D01*
X369Y1023D02*
X402Y1023D01*
X419Y1023D02*
X429Y1023D01*
X446Y1023D02*
X452Y1023D01*
X519Y1023D02*
X539Y1023D01*
X569Y1023D02*
X601Y1023D01*
X619Y1023D02*
X647Y1023D01*
X870Y1023D02*
X904Y1023D01*
X78Y1022D02*
X112Y1022D01*
X369Y1022D02*
X402Y1022D01*
X419Y1022D02*
X429Y1022D01*
X446Y1022D02*
X452Y1022D01*
X519Y1022D02*
X539Y1022D01*
X569Y1022D02*
X602Y1022D01*
X619Y1022D02*
X648Y1022D01*
X870Y1022D02*
X904Y1022D01*
X78Y1021D02*
X112Y1021D01*
X370Y1021D02*
X402Y1021D01*
X419Y1021D02*
X429Y1021D01*
X446Y1021D02*
X452Y1021D01*
X519Y1021D02*
X539Y1021D01*
X569Y1021D02*
X602Y1021D01*
X619Y1021D02*
X649Y1021D01*
X870Y1021D02*
X904Y1021D01*
X78Y1020D02*
X112Y1020D01*
X370Y1020D02*
X401Y1020D01*
X419Y1020D02*
X430Y1020D01*
X446Y1020D02*
X452Y1020D01*
X520Y1020D02*
X539Y1020D01*
X570Y1020D02*
X602Y1020D01*
X619Y1020D02*
X650Y1020D01*
X870Y1020D02*
X904Y1020D01*
X78Y1019D02*
X112Y1019D01*
X383Y1019D02*
X389Y1019D01*
X419Y1019D02*
X430Y1019D01*
X446Y1019D02*
X452Y1019D01*
X532Y1019D02*
X539Y1019D01*
X596Y1019D02*
X602Y1019D01*
X619Y1019D02*
X625Y1019D01*
X641Y1019D02*
X651Y1019D01*
X870Y1019D02*
X904Y1019D01*
X78Y1018D02*
X112Y1018D01*
X383Y1018D02*
X389Y1018D01*
X419Y1018D02*
X431Y1018D01*
X446Y1018D02*
X452Y1018D01*
X533Y1018D02*
X539Y1018D01*
X596Y1018D02*
X602Y1018D01*
X619Y1018D02*
X625Y1018D01*
X643Y1018D02*
X651Y1018D01*
X870Y1018D02*
X904Y1018D01*
X78Y1017D02*
X112Y1017D01*
X383Y1017D02*
X389Y1017D01*
X419Y1017D02*
X431Y1017D01*
X446Y1017D02*
X452Y1017D01*
X533Y1017D02*
X539Y1017D01*
X596Y1017D02*
X602Y1017D01*
X619Y1017D02*
X625Y1017D01*
X644Y1017D02*
X651Y1017D01*
X870Y1017D02*
X904Y1017D01*
X78Y1016D02*
X112Y1016D01*
X383Y1016D02*
X389Y1016D01*
X419Y1016D02*
X432Y1016D01*
X446Y1016D02*
X452Y1016D01*
X533Y1016D02*
X539Y1016D01*
X596Y1016D02*
X602Y1016D01*
X619Y1016D02*
X625Y1016D01*
X645Y1016D02*
X652Y1016D01*
X870Y1016D02*
X904Y1016D01*
X78Y1015D02*
X112Y1015D01*
X383Y1015D02*
X389Y1015D01*
X419Y1015D02*
X432Y1015D01*
X446Y1015D02*
X452Y1015D01*
X533Y1015D02*
X539Y1015D01*
X596Y1015D02*
X602Y1015D01*
X619Y1015D02*
X625Y1015D01*
X646Y1015D02*
X652Y1015D01*
X870Y1015D02*
X904Y1015D01*
X78Y1014D02*
X112Y1014D01*
X383Y1014D02*
X389Y1014D01*
X419Y1014D02*
X433Y1014D01*
X446Y1014D02*
X452Y1014D01*
X533Y1014D02*
X539Y1014D01*
X596Y1014D02*
X602Y1014D01*
X619Y1014D02*
X625Y1014D01*
X646Y1014D02*
X652Y1014D01*
X870Y1014D02*
X904Y1014D01*
X78Y1013D02*
X112Y1013D01*
X383Y1013D02*
X389Y1013D01*
X419Y1013D02*
X433Y1013D01*
X446Y1013D02*
X452Y1013D01*
X533Y1013D02*
X539Y1013D01*
X596Y1013D02*
X602Y1013D01*
X619Y1013D02*
X625Y1013D01*
X646Y1013D02*
X652Y1013D01*
X870Y1013D02*
X904Y1013D01*
X78Y1012D02*
X112Y1012D01*
X383Y1012D02*
X389Y1012D01*
X419Y1012D02*
X425Y1012D01*
X427Y1012D02*
X433Y1012D01*
X446Y1012D02*
X452Y1012D01*
X533Y1012D02*
X539Y1012D01*
X596Y1012D02*
X602Y1012D01*
X619Y1012D02*
X625Y1012D01*
X646Y1012D02*
X652Y1012D01*
X870Y1012D02*
X904Y1012D01*
X78Y1011D02*
X112Y1011D01*
X383Y1011D02*
X389Y1011D01*
X419Y1011D02*
X425Y1011D01*
X427Y1011D02*
X434Y1011D01*
X446Y1011D02*
X452Y1011D01*
X533Y1011D02*
X539Y1011D01*
X596Y1011D02*
X602Y1011D01*
X619Y1011D02*
X625Y1011D01*
X646Y1011D02*
X652Y1011D01*
X870Y1011D02*
X904Y1011D01*
X78Y1010D02*
X112Y1010D01*
X383Y1010D02*
X389Y1010D01*
X419Y1010D02*
X425Y1010D01*
X428Y1010D02*
X434Y1010D01*
X446Y1010D02*
X452Y1010D01*
X533Y1010D02*
X539Y1010D01*
X596Y1010D02*
X602Y1010D01*
X619Y1010D02*
X625Y1010D01*
X646Y1010D02*
X652Y1010D01*
X870Y1010D02*
X904Y1010D01*
X78Y1009D02*
X112Y1009D01*
X383Y1009D02*
X389Y1009D01*
X419Y1009D02*
X425Y1009D01*
X428Y1009D02*
X435Y1009D01*
X446Y1009D02*
X452Y1009D01*
X533Y1009D02*
X539Y1009D01*
X596Y1009D02*
X602Y1009D01*
X619Y1009D02*
X625Y1009D01*
X646Y1009D02*
X652Y1009D01*
X870Y1009D02*
X904Y1009D01*
X78Y1008D02*
X112Y1008D01*
X383Y1008D02*
X389Y1008D01*
X419Y1008D02*
X425Y1008D01*
X428Y1008D02*
X435Y1008D01*
X446Y1008D02*
X452Y1008D01*
X533Y1008D02*
X539Y1008D01*
X596Y1008D02*
X602Y1008D01*
X619Y1008D02*
X625Y1008D01*
X646Y1008D02*
X652Y1008D01*
X870Y1008D02*
X904Y1008D01*
X78Y1007D02*
X112Y1007D01*
X383Y1007D02*
X389Y1007D01*
X419Y1007D02*
X425Y1007D01*
X429Y1007D02*
X436Y1007D01*
X446Y1007D02*
X452Y1007D01*
X533Y1007D02*
X539Y1007D01*
X596Y1007D02*
X602Y1007D01*
X619Y1007D02*
X625Y1007D01*
X646Y1007D02*
X652Y1007D01*
X870Y1007D02*
X904Y1007D01*
X78Y1006D02*
X112Y1006D01*
X383Y1006D02*
X389Y1006D01*
X419Y1006D02*
X425Y1006D01*
X429Y1006D02*
X436Y1006D01*
X446Y1006D02*
X452Y1006D01*
X533Y1006D02*
X539Y1006D01*
X596Y1006D02*
X602Y1006D01*
X619Y1006D02*
X625Y1006D01*
X645Y1006D02*
X652Y1006D01*
X870Y1006D02*
X904Y1006D01*
X78Y1005D02*
X112Y1005D01*
X383Y1005D02*
X389Y1005D01*
X419Y1005D02*
X425Y1005D01*
X430Y1005D02*
X436Y1005D01*
X446Y1005D02*
X452Y1005D01*
X533Y1005D02*
X539Y1005D01*
X596Y1005D02*
X602Y1005D01*
X619Y1005D02*
X625Y1005D01*
X644Y1005D02*
X651Y1005D01*
X870Y1005D02*
X904Y1005D01*
X78Y1004D02*
X112Y1004D01*
X383Y1004D02*
X389Y1004D01*
X419Y1004D02*
X425Y1004D01*
X430Y1004D02*
X437Y1004D01*
X446Y1004D02*
X452Y1004D01*
X533Y1004D02*
X539Y1004D01*
X596Y1004D02*
X602Y1004D01*
X619Y1004D02*
X625Y1004D01*
X643Y1004D02*
X651Y1004D01*
X870Y1004D02*
X904Y1004D01*
X78Y1003D02*
X112Y1003D01*
X383Y1003D02*
X389Y1003D01*
X419Y1003D02*
X425Y1003D01*
X431Y1003D02*
X437Y1003D01*
X446Y1003D02*
X452Y1003D01*
X533Y1003D02*
X539Y1003D01*
X596Y1003D02*
X602Y1003D01*
X619Y1003D02*
X625Y1003D01*
X641Y1003D02*
X651Y1003D01*
X870Y1003D02*
X904Y1003D01*
X78Y1002D02*
X112Y1002D01*
X383Y1002D02*
X389Y1002D01*
X419Y1002D02*
X425Y1002D01*
X431Y1002D02*
X438Y1002D01*
X446Y1002D02*
X452Y1002D01*
X470Y1002D02*
X501Y1002D01*
X533Y1002D02*
X539Y1002D01*
X573Y1002D02*
X602Y1002D01*
X619Y1002D02*
X650Y1002D01*
X870Y1002D02*
X904Y1002D01*
X78Y1001D02*
X112Y1001D01*
X383Y1001D02*
X389Y1001D01*
X419Y1001D02*
X425Y1001D01*
X432Y1001D02*
X438Y1001D01*
X446Y1001D02*
X452Y1001D01*
X469Y1001D02*
X502Y1001D01*
X533Y1001D02*
X539Y1001D01*
X571Y1001D02*
X602Y1001D01*
X619Y1001D02*
X649Y1001D01*
X870Y1001D02*
X904Y1001D01*
X78Y1000D02*
X112Y1000D01*
X383Y1000D02*
X389Y1000D01*
X419Y1000D02*
X425Y1000D01*
X432Y1000D02*
X439Y1000D01*
X446Y1000D02*
X452Y1000D01*
X469Y1000D02*
X502Y1000D01*
X533Y1000D02*
X539Y1000D01*
X570Y1000D02*
X602Y1000D01*
X619Y1000D02*
X648Y1000D01*
X870Y1000D02*
X904Y1000D01*
X78Y999D02*
X112Y999D01*
X383Y999D02*
X389Y999D01*
X419Y999D02*
X425Y999D01*
X432Y999D02*
X439Y999D01*
X446Y999D02*
X452Y999D01*
X469Y999D02*
X502Y999D01*
X533Y999D02*
X539Y999D01*
X570Y999D02*
X601Y999D01*
X619Y999D02*
X648Y999D01*
X870Y999D02*
X904Y999D01*
X78Y998D02*
X112Y998D01*
X383Y998D02*
X389Y998D01*
X419Y998D02*
X425Y998D01*
X433Y998D02*
X440Y998D01*
X446Y998D02*
X452Y998D01*
X469Y998D02*
X502Y998D01*
X533Y998D02*
X539Y998D01*
X569Y998D02*
X600Y998D01*
X619Y998D02*
X649Y998D01*
X870Y998D02*
X904Y998D01*
X78Y997D02*
X112Y997D01*
X383Y997D02*
X389Y997D01*
X419Y997D02*
X425Y997D01*
X433Y997D02*
X440Y997D01*
X446Y997D02*
X452Y997D01*
X469Y997D02*
X502Y997D01*
X533Y997D02*
X539Y997D01*
X569Y997D02*
X599Y997D01*
X619Y997D02*
X650Y997D01*
X870Y997D02*
X904Y997D01*
X78Y996D02*
X112Y996D01*
X383Y996D02*
X389Y996D01*
X419Y996D02*
X425Y996D01*
X434Y996D02*
X440Y996D01*
X446Y996D02*
X452Y996D01*
X469Y996D02*
X502Y996D01*
X533Y996D02*
X539Y996D01*
X548Y996D02*
X551Y996D01*
X569Y996D02*
X597Y996D01*
X619Y996D02*
X650Y996D01*
X870Y996D02*
X904Y996D01*
X78Y995D02*
X112Y995D01*
X383Y995D02*
X389Y995D01*
X419Y995D02*
X425Y995D01*
X434Y995D02*
X441Y995D01*
X446Y995D02*
X452Y995D01*
X469Y995D02*
X502Y995D01*
X533Y995D02*
X539Y995D01*
X547Y995D02*
X552Y995D01*
X569Y995D02*
X575Y995D01*
X619Y995D02*
X625Y995D01*
X642Y995D02*
X651Y995D01*
X870Y995D02*
X904Y995D01*
X78Y994D02*
X112Y994D01*
X383Y994D02*
X389Y994D01*
X419Y994D02*
X425Y994D01*
X435Y994D02*
X441Y994D01*
X446Y994D02*
X452Y994D01*
X470Y994D02*
X501Y994D01*
X533Y994D02*
X539Y994D01*
X547Y994D02*
X552Y994D01*
X569Y994D02*
X575Y994D01*
X619Y994D02*
X625Y994D01*
X644Y994D02*
X651Y994D01*
X870Y994D02*
X904Y994D01*
X78Y993D02*
X112Y993D01*
X383Y993D02*
X389Y993D01*
X419Y993D02*
X425Y993D01*
X435Y993D02*
X442Y993D01*
X446Y993D02*
X452Y993D01*
X471Y993D02*
X500Y993D01*
X533Y993D02*
X539Y993D01*
X546Y993D02*
X552Y993D01*
X569Y993D02*
X575Y993D01*
X619Y993D02*
X625Y993D01*
X645Y993D02*
X652Y993D01*
X870Y993D02*
X904Y993D01*
X78Y992D02*
X112Y992D01*
X383Y992D02*
X389Y992D01*
X419Y992D02*
X425Y992D01*
X435Y992D02*
X442Y992D01*
X446Y992D02*
X452Y992D01*
X533Y992D02*
X539Y992D01*
X546Y992D02*
X552Y992D01*
X569Y992D02*
X575Y992D01*
X619Y992D02*
X625Y992D01*
X645Y992D02*
X652Y992D01*
X870Y992D02*
X904Y992D01*
X78Y991D02*
X112Y991D01*
X383Y991D02*
X389Y991D01*
X419Y991D02*
X425Y991D01*
X436Y991D02*
X443Y991D01*
X446Y991D02*
X452Y991D01*
X533Y991D02*
X539Y991D01*
X546Y991D02*
X552Y991D01*
X569Y991D02*
X575Y991D01*
X619Y991D02*
X625Y991D01*
X646Y991D02*
X652Y991D01*
X870Y991D02*
X904Y991D01*
X78Y990D02*
X112Y990D01*
X383Y990D02*
X389Y990D01*
X419Y990D02*
X425Y990D01*
X436Y990D02*
X443Y990D01*
X446Y990D02*
X452Y990D01*
X533Y990D02*
X539Y990D01*
X546Y990D02*
X552Y990D01*
X569Y990D02*
X575Y990D01*
X619Y990D02*
X625Y990D01*
X646Y990D02*
X652Y990D01*
X870Y990D02*
X904Y990D01*
X78Y989D02*
X112Y989D01*
X383Y989D02*
X389Y989D01*
X419Y989D02*
X425Y989D01*
X437Y989D02*
X443Y989D01*
X446Y989D02*
X452Y989D01*
X533Y989D02*
X539Y989D01*
X546Y989D02*
X552Y989D01*
X569Y989D02*
X575Y989D01*
X619Y989D02*
X625Y989D01*
X646Y989D02*
X652Y989D01*
X870Y989D02*
X904Y989D01*
X78Y988D02*
X112Y988D01*
X383Y988D02*
X389Y988D01*
X419Y988D02*
X425Y988D01*
X437Y988D02*
X444Y988D01*
X446Y988D02*
X452Y988D01*
X533Y988D02*
X539Y988D01*
X546Y988D02*
X552Y988D01*
X569Y988D02*
X575Y988D01*
X619Y988D02*
X625Y988D01*
X646Y988D02*
X652Y988D01*
X870Y988D02*
X904Y988D01*
X78Y987D02*
X112Y987D01*
X383Y987D02*
X389Y987D01*
X419Y987D02*
X425Y987D01*
X438Y987D02*
X444Y987D01*
X446Y987D02*
X452Y987D01*
X533Y987D02*
X539Y987D01*
X546Y987D02*
X552Y987D01*
X569Y987D02*
X575Y987D01*
X619Y987D02*
X625Y987D01*
X646Y987D02*
X652Y987D01*
X870Y987D02*
X904Y987D01*
X78Y986D02*
X112Y986D01*
X383Y986D02*
X389Y986D01*
X419Y986D02*
X425Y986D01*
X438Y986D02*
X452Y986D01*
X533Y986D02*
X539Y986D01*
X546Y986D02*
X552Y986D01*
X569Y986D02*
X575Y986D01*
X619Y986D02*
X625Y986D01*
X646Y986D02*
X652Y986D01*
X870Y986D02*
X904Y986D01*
X78Y985D02*
X112Y985D01*
X383Y985D02*
X389Y985D01*
X419Y985D02*
X425Y985D01*
X439Y985D02*
X452Y985D01*
X533Y985D02*
X539Y985D01*
X546Y985D02*
X552Y985D01*
X569Y985D02*
X575Y985D01*
X619Y985D02*
X625Y985D01*
X646Y985D02*
X652Y985D01*
X870Y985D02*
X904Y985D01*
X78Y984D02*
X112Y984D01*
X383Y984D02*
X389Y984D01*
X419Y984D02*
X425Y984D01*
X439Y984D02*
X452Y984D01*
X533Y984D02*
X539Y984D01*
X546Y984D02*
X552Y984D01*
X569Y984D02*
X575Y984D01*
X619Y984D02*
X625Y984D01*
X646Y984D02*
X652Y984D01*
X870Y984D02*
X904Y984D01*
X78Y983D02*
X112Y983D01*
X383Y983D02*
X389Y983D01*
X419Y983D02*
X425Y983D01*
X439Y983D02*
X452Y983D01*
X533Y983D02*
X539Y983D01*
X546Y983D02*
X552Y983D01*
X569Y983D02*
X575Y983D01*
X619Y983D02*
X625Y983D01*
X645Y983D02*
X652Y983D01*
X870Y983D02*
X904Y983D01*
X78Y982D02*
X112Y982D01*
X383Y982D02*
X389Y982D01*
X419Y982D02*
X425Y982D01*
X440Y982D02*
X452Y982D01*
X533Y982D02*
X539Y982D01*
X546Y982D02*
X552Y982D01*
X569Y982D02*
X575Y982D01*
X619Y982D02*
X625Y982D01*
X645Y982D02*
X652Y982D01*
X870Y982D02*
X904Y982D01*
X78Y981D02*
X112Y981D01*
X383Y981D02*
X389Y981D01*
X419Y981D02*
X425Y981D01*
X440Y981D02*
X452Y981D01*
X533Y981D02*
X539Y981D01*
X546Y981D02*
X552Y981D01*
X569Y981D02*
X575Y981D01*
X619Y981D02*
X625Y981D01*
X644Y981D02*
X651Y981D01*
X870Y981D02*
X904Y981D01*
X78Y980D02*
X112Y980D01*
X383Y980D02*
X389Y980D01*
X419Y980D02*
X425Y980D01*
X441Y980D02*
X452Y980D01*
X533Y980D02*
X539Y980D01*
X546Y980D02*
X552Y980D01*
X569Y980D02*
X575Y980D01*
X619Y980D02*
X625Y980D01*
X642Y980D02*
X651Y980D01*
X870Y980D02*
X904Y980D01*
X78Y979D02*
X112Y979D01*
X371Y979D02*
X400Y979D01*
X419Y979D02*
X425Y979D01*
X441Y979D02*
X452Y979D01*
X521Y979D02*
X552Y979D01*
X569Y979D02*
X600Y979D01*
X619Y979D02*
X650Y979D01*
X870Y979D02*
X904Y979D01*
X78Y978D02*
X112Y978D01*
X370Y978D02*
X402Y978D01*
X419Y978D02*
X425Y978D01*
X442Y978D02*
X452Y978D01*
X520Y978D02*
X552Y978D01*
X569Y978D02*
X601Y978D01*
X619Y978D02*
X650Y978D01*
X870Y978D02*
X904Y978D01*
X78Y977D02*
X112Y977D01*
X369Y977D02*
X402Y977D01*
X419Y977D02*
X425Y977D01*
X442Y977D02*
X452Y977D01*
X519Y977D02*
X552Y977D01*
X569Y977D02*
X602Y977D01*
X619Y977D02*
X649Y977D01*
X870Y977D02*
X904Y977D01*
X78Y976D02*
X112Y976D01*
X369Y976D02*
X402Y976D01*
X419Y976D02*
X425Y976D01*
X442Y976D02*
X452Y976D01*
X519Y976D02*
X552Y976D01*
X569Y976D02*
X602Y976D01*
X619Y976D02*
X648Y976D01*
X870Y976D02*
X904Y976D01*
X78Y975D02*
X112Y975D01*
X369Y975D02*
X402Y975D01*
X419Y975D02*
X425Y975D01*
X443Y975D02*
X452Y975D01*
X519Y975D02*
X552Y975D01*
X569Y975D02*
X602Y975D01*
X619Y975D02*
X647Y975D01*
X870Y975D02*
X904Y975D01*
X78Y974D02*
X112Y974D01*
X369Y974D02*
X402Y974D01*
X419Y974D02*
X424Y974D01*
X443Y974D02*
X452Y974D01*
X519Y974D02*
X552Y974D01*
X569Y974D02*
X602Y974D01*
X619Y974D02*
X645Y974D01*
X870Y974D02*
X904Y974D01*
X78Y973D02*
X112Y973D01*
X370Y973D02*
X401Y973D01*
X420Y973D02*
X424Y973D01*
X444Y973D02*
X452Y973D01*
X520Y973D02*
X551Y973D01*
X569Y973D02*
X601Y973D01*
X619Y973D02*
X643Y973D01*
X870Y973D02*
X904Y973D01*
X78Y972D02*
X112Y972D01*
X870Y972D02*
X904Y972D01*
X78Y971D02*
X112Y971D01*
X870Y971D02*
X904Y971D01*
X78Y970D02*
X112Y970D01*
X870Y970D02*
X904Y970D01*
X78Y969D02*
X112Y969D01*
X870Y969D02*
X904Y969D01*
X78Y968D02*
X112Y968D01*
X870Y968D02*
X904Y968D01*
X78Y967D02*
X112Y967D01*
X870Y967D02*
X904Y967D01*
X78Y966D02*
X112Y966D01*
X870Y966D02*
X904Y966D01*
X78Y965D02*
X112Y965D01*
X870Y965D02*
X904Y965D01*
X78Y964D02*
X112Y964D01*
X870Y964D02*
X904Y964D01*
X78Y963D02*
X112Y963D01*
X870Y963D02*
X904Y963D01*
X78Y962D02*
X112Y962D01*
X870Y962D02*
X904Y962D01*
X78Y961D02*
X112Y961D01*
X870Y961D02*
X904Y961D01*
X78Y960D02*
X112Y960D01*
X870Y960D02*
X904Y960D01*
X78Y959D02*
X112Y959D01*
X870Y959D02*
X904Y959D01*
X78Y958D02*
X112Y958D01*
X870Y958D02*
X904Y958D01*
X78Y957D02*
X112Y957D01*
X870Y957D02*
X904Y957D01*
X78Y956D02*
X112Y956D01*
X870Y956D02*
X904Y956D01*
X78Y955D02*
X112Y955D01*
X870Y955D02*
X904Y955D01*
X78Y954D02*
X112Y954D01*
X870Y954D02*
X904Y954D01*
X78Y953D02*
X112Y953D01*
X870Y953D02*
X904Y953D01*
X78Y952D02*
X112Y952D01*
X870Y952D02*
X904Y952D01*
X78Y951D02*
X112Y951D01*
X870Y951D02*
X904Y951D01*
X78Y950D02*
X112Y950D01*
X870Y950D02*
X904Y950D01*
X78Y949D02*
X112Y949D01*
X870Y949D02*
X904Y949D01*
X78Y948D02*
X112Y948D01*
X870Y948D02*
X904Y948D01*
X78Y947D02*
X112Y947D01*
X870Y947D02*
X904Y947D01*
X78Y946D02*
X112Y946D01*
X870Y946D02*
X904Y946D01*
X78Y945D02*
X112Y945D01*
X870Y945D02*
X904Y945D01*
X78Y944D02*
X112Y944D01*
X870Y944D02*
X904Y944D01*
X78Y943D02*
X112Y943D01*
X870Y943D02*
X904Y943D01*
X78Y942D02*
X112Y942D01*
X870Y942D02*
X904Y942D01*
X78Y941D02*
X112Y941D01*
X870Y941D02*
X904Y941D01*
X78Y940D02*
X112Y940D01*
X870Y940D02*
X904Y940D01*
X78Y939D02*
X112Y939D01*
X870Y939D02*
X904Y939D01*
X78Y938D02*
X112Y938D01*
X870Y938D02*
X904Y938D01*
X78Y937D02*
X112Y937D01*
X870Y937D02*
X904Y937D01*
X78Y936D02*
X112Y936D01*
X870Y936D02*
X904Y936D01*
X78Y935D02*
X112Y935D01*
X870Y935D02*
X904Y935D01*
X78Y934D02*
X112Y934D01*
X870Y934D02*
X904Y934D01*
X78Y933D02*
X112Y933D01*
X870Y933D02*
X904Y933D01*
X78Y932D02*
X112Y932D01*
X870Y932D02*
X904Y932D01*
X78Y931D02*
X112Y931D01*
X870Y931D02*
X904Y931D01*
X78Y930D02*
X112Y930D01*
X870Y930D02*
X904Y930D01*
X78Y929D02*
X112Y929D01*
X870Y929D02*
X904Y929D01*
X78Y928D02*
X112Y928D01*
X870Y928D02*
X904Y928D01*
X78Y927D02*
X112Y927D01*
X870Y927D02*
X904Y927D01*
X78Y926D02*
X112Y926D01*
X870Y926D02*
X904Y926D01*
X78Y925D02*
X112Y925D01*
X870Y925D02*
X904Y925D01*
X78Y924D02*
X112Y924D01*
X870Y924D02*
X904Y924D01*
X78Y923D02*
X112Y923D01*
X870Y923D02*
X904Y923D01*
X78Y922D02*
X112Y922D01*
X870Y922D02*
X904Y922D01*
X78Y921D02*
X112Y921D01*
X870Y921D02*
X904Y921D01*
X78Y920D02*
X112Y920D01*
X870Y920D02*
X904Y920D01*
X78Y919D02*
X112Y919D01*
X870Y919D02*
X904Y919D01*
X78Y918D02*
X112Y918D01*
X870Y918D02*
X904Y918D01*
X78Y917D02*
X112Y917D01*
X870Y917D02*
X904Y917D01*
X78Y916D02*
X112Y916D01*
X870Y916D02*
X904Y916D01*
X78Y915D02*
X112Y915D01*
X870Y915D02*
X904Y915D01*
X78Y914D02*
X112Y914D01*
X870Y914D02*
X904Y914D01*
X78Y913D02*
X112Y913D01*
X870Y913D02*
X904Y913D01*
X78Y912D02*
X112Y912D01*
X870Y912D02*
X904Y912D01*
X78Y911D02*
X112Y911D01*
X870Y911D02*
X904Y911D01*
X78Y910D02*
X112Y910D01*
X870Y910D02*
X904Y910D01*
X78Y909D02*
X112Y909D01*
X870Y909D02*
X904Y909D01*
X78Y908D02*
X112Y908D01*
X870Y908D02*
X904Y908D01*
X78Y907D02*
X112Y907D01*
X870Y907D02*
X904Y907D01*
X78Y906D02*
X112Y906D01*
X870Y906D02*
X904Y906D01*
X78Y905D02*
X112Y905D01*
X870Y905D02*
X904Y905D01*
X78Y904D02*
X112Y904D01*
X870Y904D02*
X904Y904D01*
X78Y903D02*
X112Y903D01*
X870Y903D02*
X904Y903D01*
X78Y902D02*
X112Y902D01*
X870Y902D02*
X904Y902D01*
X78Y901D02*
X112Y901D01*
X870Y901D02*
X904Y901D01*
X78Y900D02*
X112Y900D01*
X870Y900D02*
X904Y900D01*
X78Y899D02*
X112Y899D01*
X870Y899D02*
X904Y899D01*
X78Y898D02*
X112Y898D01*
X870Y898D02*
X904Y898D01*
X78Y897D02*
X112Y897D01*
X870Y897D02*
X904Y897D01*
X78Y896D02*
X112Y896D01*
X870Y896D02*
X904Y896D01*
X78Y895D02*
X112Y895D01*
X870Y895D02*
X904Y895D01*
X78Y894D02*
X112Y894D01*
X870Y894D02*
X904Y894D01*
X78Y893D02*
X112Y893D01*
X870Y893D02*
X904Y893D01*
X78Y892D02*
X112Y892D01*
X870Y892D02*
X904Y892D01*
X78Y891D02*
X112Y891D01*
X870Y891D02*
X904Y891D01*
X78Y890D02*
X112Y890D01*
X870Y890D02*
X904Y890D01*
X78Y889D02*
X112Y889D01*
X870Y889D02*
X904Y889D01*
X78Y888D02*
X112Y888D01*
X870Y888D02*
X904Y888D01*
X78Y887D02*
X112Y887D01*
X870Y887D02*
X904Y887D01*
X78Y886D02*
X112Y886D01*
X870Y886D02*
X904Y886D01*
X78Y885D02*
X112Y885D01*
X870Y885D02*
X904Y885D01*
X78Y884D02*
X112Y884D01*
X870Y884D02*
X904Y884D01*
X78Y883D02*
X112Y883D01*
X870Y883D02*
X904Y883D01*
X78Y882D02*
X112Y882D01*
X870Y882D02*
X903Y882D01*
X78Y881D02*
X112Y881D01*
X870Y881D02*
X903Y881D01*
X78Y880D02*
X112Y880D01*
X870Y880D02*
X902Y880D01*
X78Y879D02*
X112Y879D01*
X870Y879D02*
X902Y879D01*
X78Y878D02*
X112Y878D01*
X870Y878D02*
X902Y878D01*
X78Y877D02*
X112Y877D01*
X870Y877D02*
X901Y877D01*
X78Y876D02*
X112Y876D01*
X870Y876D02*
X901Y876D01*
X78Y875D02*
X112Y875D01*
X870Y875D02*
X901Y875D01*
X78Y874D02*
X112Y874D01*
X870Y874D02*
X900Y874D01*
X78Y873D02*
X112Y873D01*
X870Y873D02*
X900Y873D01*
X78Y872D02*
X112Y872D01*
X870Y872D02*
X900Y872D01*
X78Y871D02*
X112Y871D01*
X870Y871D02*
X900Y871D01*
X78Y870D02*
X112Y870D01*
X870Y870D02*
X899Y870D01*
X78Y869D02*
X112Y869D01*
X870Y869D02*
X899Y869D01*
X78Y868D02*
X112Y868D01*
X870Y868D02*
X899Y868D01*
X78Y867D02*
X112Y867D01*
X870Y867D02*
X899Y867D01*
X78Y866D02*
X112Y866D01*
X870Y866D02*
X899Y866D01*
X78Y865D02*
X112Y865D01*
X870Y865D02*
X899Y865D01*
X78Y864D02*
X112Y864D01*
X870Y864D02*
X899Y864D01*
X78Y863D02*
X112Y863D01*
X870Y863D02*
X899Y863D01*
X78Y862D02*
X112Y862D01*
X870Y862D02*
X899Y862D01*
X78Y861D02*
X112Y861D01*
X870Y861D02*
X899Y861D01*
X78Y860D02*
X112Y860D01*
X870Y860D02*
X899Y860D01*
X78Y859D02*
X112Y859D01*
X870Y859D02*
X899Y859D01*
X78Y858D02*
X112Y858D01*
X870Y858D02*
X899Y858D01*
X78Y857D02*
X112Y857D01*
X870Y857D02*
X899Y857D01*
X78Y856D02*
X112Y856D01*
X870Y856D02*
X899Y856D01*
X78Y855D02*
X112Y855D01*
X870Y855D02*
X899Y855D01*
X78Y854D02*
X112Y854D01*
X870Y854D02*
X899Y854D01*
X78Y853D02*
X112Y853D01*
X870Y853D02*
X900Y853D01*
X78Y852D02*
X112Y852D01*
X870Y852D02*
X900Y852D01*
X78Y851D02*
X112Y851D01*
X870Y851D02*
X900Y851D01*
X78Y850D02*
X112Y850D01*
X870Y850D02*
X900Y850D01*
X78Y849D02*
X112Y849D01*
X870Y849D02*
X901Y849D01*
X78Y848D02*
X112Y848D01*
X870Y848D02*
X901Y848D01*
X78Y847D02*
X112Y847D01*
X870Y847D02*
X901Y847D01*
X78Y846D02*
X112Y846D01*
X870Y846D02*
X902Y846D01*
X78Y845D02*
X112Y845D01*
X870Y845D02*
X902Y845D01*
X78Y844D02*
X112Y844D01*
X870Y844D02*
X903Y844D01*
X78Y843D02*
X112Y843D01*
X870Y843D02*
X903Y843D01*
X78Y842D02*
X112Y842D01*
X870Y842D02*
X904Y842D01*
X78Y841D02*
X112Y841D01*
X870Y841D02*
X904Y841D01*
X78Y840D02*
X112Y840D01*
X870Y840D02*
X904Y840D01*
X78Y839D02*
X112Y839D01*
X870Y839D02*
X904Y839D01*
X78Y838D02*
X112Y838D01*
X870Y838D02*
X904Y838D01*
X78Y837D02*
X112Y837D01*
X870Y837D02*
X904Y837D01*
X78Y836D02*
X112Y836D01*
X870Y836D02*
X904Y836D01*
X78Y835D02*
X112Y835D01*
X870Y835D02*
X904Y835D01*
X78Y834D02*
X112Y834D01*
X870Y834D02*
X904Y834D01*
X78Y833D02*
X112Y833D01*
X870Y833D02*
X904Y833D01*
X78Y832D02*
X112Y832D01*
X870Y832D02*
X904Y832D01*
X78Y831D02*
X112Y831D01*
X870Y831D02*
X904Y831D01*
X78Y830D02*
X112Y830D01*
X870Y830D02*
X904Y830D01*
X78Y829D02*
X112Y829D01*
X870Y829D02*
X904Y829D01*
X78Y828D02*
X112Y828D01*
X870Y828D02*
X904Y828D01*
X78Y827D02*
X112Y827D01*
X870Y827D02*
X904Y827D01*
X78Y826D02*
X112Y826D01*
X870Y826D02*
X904Y826D01*
X78Y825D02*
X112Y825D01*
X870Y825D02*
X904Y825D01*
X78Y824D02*
X112Y824D01*
X870Y824D02*
X904Y824D01*
X78Y823D02*
X112Y823D01*
X870Y823D02*
X904Y823D01*
X78Y822D02*
X112Y822D01*
X870Y822D02*
X904Y822D01*
X78Y821D02*
X112Y821D01*
X870Y821D02*
X904Y821D01*
X78Y820D02*
X112Y820D01*
X870Y820D02*
X904Y820D01*
X78Y819D02*
X112Y819D01*
X870Y819D02*
X904Y819D01*
X78Y818D02*
X112Y818D01*
X870Y818D02*
X904Y818D01*
X78Y817D02*
X112Y817D01*
X870Y817D02*
X904Y817D01*
X78Y816D02*
X112Y816D01*
X870Y816D02*
X904Y816D01*
X78Y815D02*
X112Y815D01*
X870Y815D02*
X904Y815D01*
X78Y814D02*
X112Y814D01*
X870Y814D02*
X904Y814D01*
X78Y813D02*
X112Y813D01*
X870Y813D02*
X904Y813D01*
X78Y812D02*
X112Y812D01*
X870Y812D02*
X904Y812D01*
X78Y811D02*
X112Y811D01*
X870Y811D02*
X904Y811D01*
X78Y810D02*
X112Y810D01*
X870Y810D02*
X904Y810D01*
X78Y809D02*
X112Y809D01*
X870Y809D02*
X904Y809D01*
X78Y808D02*
X112Y808D01*
X870Y808D02*
X904Y808D01*
X78Y807D02*
X112Y807D01*
X870Y807D02*
X904Y807D01*
X78Y806D02*
X112Y806D01*
X870Y806D02*
X904Y806D01*
X78Y805D02*
X112Y805D01*
X870Y805D02*
X904Y805D01*
X78Y804D02*
X112Y804D01*
X870Y804D02*
X904Y804D01*
X78Y803D02*
X112Y803D01*
X870Y803D02*
X904Y803D01*
X78Y802D02*
X112Y802D01*
X870Y802D02*
X904Y802D01*
X78Y801D02*
X112Y801D01*
X870Y801D02*
X904Y801D01*
X78Y800D02*
X112Y800D01*
X870Y800D02*
X904Y800D01*
X78Y799D02*
X112Y799D01*
X870Y799D02*
X904Y799D01*
X78Y798D02*
X112Y798D01*
X870Y798D02*
X904Y798D01*
X78Y797D02*
X112Y797D01*
X870Y797D02*
X904Y797D01*
X78Y796D02*
X112Y796D01*
X870Y796D02*
X904Y796D01*
X78Y795D02*
X112Y795D01*
X870Y795D02*
X904Y795D01*
X78Y794D02*
X112Y794D01*
X870Y794D02*
X904Y794D01*
X78Y793D02*
X112Y793D01*
X870Y793D02*
X904Y793D01*
X78Y792D02*
X112Y792D01*
X870Y792D02*
X904Y792D01*
X78Y791D02*
X112Y791D01*
X870Y791D02*
X904Y791D01*
X78Y790D02*
X112Y790D01*
X870Y790D02*
X904Y790D01*
X78Y789D02*
X112Y789D01*
X870Y789D02*
X904Y789D01*
X78Y788D02*
X112Y788D01*
X870Y788D02*
X904Y788D01*
X78Y787D02*
X112Y787D01*
X870Y787D02*
X904Y787D01*
X78Y786D02*
X112Y786D01*
X870Y786D02*
X904Y786D01*
X78Y785D02*
X112Y785D01*
X870Y785D02*
X904Y785D01*
X78Y784D02*
X112Y784D01*
X870Y784D02*
X904Y784D01*
X78Y783D02*
X112Y783D01*
X870Y783D02*
X904Y783D01*
X78Y782D02*
X112Y782D01*
X870Y782D02*
X903Y782D01*
X78Y781D02*
X112Y781D01*
X870Y781D02*
X903Y781D01*
X78Y780D02*
X112Y780D01*
X870Y780D02*
X902Y780D01*
X78Y779D02*
X112Y779D01*
X870Y779D02*
X902Y779D01*
X78Y778D02*
X112Y778D01*
X870Y778D02*
X902Y778D01*
X78Y777D02*
X112Y777D01*
X870Y777D02*
X901Y777D01*
X78Y776D02*
X112Y776D01*
X870Y776D02*
X901Y776D01*
X78Y775D02*
X112Y775D01*
X870Y775D02*
X901Y775D01*
X78Y774D02*
X112Y774D01*
X870Y774D02*
X900Y774D01*
X78Y773D02*
X112Y773D01*
X870Y773D02*
X900Y773D01*
X78Y772D02*
X112Y772D01*
X870Y772D02*
X900Y772D01*
X78Y771D02*
X112Y771D01*
X870Y771D02*
X900Y771D01*
X78Y770D02*
X112Y770D01*
X870Y770D02*
X899Y770D01*
X78Y769D02*
X112Y769D01*
X870Y769D02*
X899Y769D01*
X78Y768D02*
X112Y768D01*
X870Y768D02*
X899Y768D01*
X78Y767D02*
X112Y767D01*
X870Y767D02*
X899Y767D01*
X78Y766D02*
X112Y766D01*
X870Y766D02*
X899Y766D01*
X78Y765D02*
X112Y765D01*
X870Y765D02*
X899Y765D01*
X78Y764D02*
X112Y764D01*
X870Y764D02*
X899Y764D01*
X78Y763D02*
X112Y763D01*
X870Y763D02*
X899Y763D01*
X78Y762D02*
X112Y762D01*
X870Y762D02*
X899Y762D01*
X78Y761D02*
X112Y761D01*
X870Y761D02*
X899Y761D01*
X78Y760D02*
X112Y760D01*
X870Y760D02*
X899Y760D01*
X78Y759D02*
X112Y759D01*
X870Y759D02*
X899Y759D01*
X78Y758D02*
X112Y758D01*
X870Y758D02*
X899Y758D01*
X78Y757D02*
X112Y757D01*
X870Y757D02*
X899Y757D01*
X78Y756D02*
X112Y756D01*
X870Y756D02*
X899Y756D01*
X78Y755D02*
X112Y755D01*
X870Y755D02*
X899Y755D01*
X78Y754D02*
X112Y754D01*
X870Y754D02*
X899Y754D01*
X78Y753D02*
X112Y753D01*
X870Y753D02*
X900Y753D01*
X78Y752D02*
X112Y752D01*
X870Y752D02*
X900Y752D01*
X78Y751D02*
X112Y751D01*
X870Y751D02*
X900Y751D01*
X78Y750D02*
X112Y750D01*
X870Y750D02*
X900Y750D01*
X78Y749D02*
X112Y749D01*
X870Y749D02*
X901Y749D01*
X78Y748D02*
X112Y748D01*
X870Y748D02*
X901Y748D01*
X78Y747D02*
X112Y747D01*
X870Y747D02*
X901Y747D01*
X78Y746D02*
X112Y746D01*
X870Y746D02*
X902Y746D01*
X78Y745D02*
X112Y745D01*
X870Y745D02*
X902Y745D01*
X78Y744D02*
X112Y744D01*
X870Y744D02*
X903Y744D01*
X78Y743D02*
X112Y743D01*
X870Y743D02*
X903Y743D01*
X78Y742D02*
X112Y742D01*
X870Y742D02*
X904Y742D01*
X78Y741D02*
X112Y741D01*
X870Y741D02*
X904Y741D01*
X78Y740D02*
X112Y740D01*
X870Y740D02*
X904Y740D01*
X78Y739D02*
X112Y739D01*
X870Y739D02*
X904Y739D01*
X78Y738D02*
X112Y738D01*
X870Y738D02*
X904Y738D01*
X78Y737D02*
X112Y737D01*
X870Y737D02*
X904Y737D01*
X78Y736D02*
X112Y736D01*
X870Y736D02*
X904Y736D01*
X78Y735D02*
X112Y735D01*
X870Y735D02*
X904Y735D01*
X78Y734D02*
X112Y734D01*
X870Y734D02*
X904Y734D01*
X78Y733D02*
X112Y733D01*
X870Y733D02*
X904Y733D01*
X78Y732D02*
X112Y732D01*
X870Y732D02*
X904Y732D01*
X78Y731D02*
X112Y731D01*
X870Y731D02*
X904Y731D01*
X78Y730D02*
X112Y730D01*
X870Y730D02*
X904Y730D01*
X78Y729D02*
X112Y729D01*
X870Y729D02*
X904Y729D01*
X78Y728D02*
X112Y728D01*
X870Y728D02*
X904Y728D01*
X78Y727D02*
X112Y727D01*
X870Y727D02*
X904Y727D01*
X78Y726D02*
X112Y726D01*
X870Y726D02*
X904Y726D01*
X78Y725D02*
X112Y725D01*
X870Y725D02*
X904Y725D01*
X78Y724D02*
X112Y724D01*
X870Y724D02*
X904Y724D01*
X78Y723D02*
X112Y723D01*
X870Y723D02*
X904Y723D01*
X78Y722D02*
X112Y722D01*
X870Y722D02*
X904Y722D01*
X78Y721D02*
X112Y721D01*
X870Y721D02*
X904Y721D01*
X78Y720D02*
X112Y720D01*
X870Y720D02*
X904Y720D01*
X78Y719D02*
X112Y719D01*
X870Y719D02*
X904Y719D01*
X78Y718D02*
X112Y718D01*
X870Y718D02*
X904Y718D01*
X78Y717D02*
X112Y717D01*
X870Y717D02*
X904Y717D01*
X78Y716D02*
X112Y716D01*
X870Y716D02*
X904Y716D01*
X78Y715D02*
X112Y715D01*
X870Y715D02*
X904Y715D01*
X78Y714D02*
X112Y714D01*
X870Y714D02*
X904Y714D01*
X78Y713D02*
X112Y713D01*
X870Y713D02*
X904Y713D01*
X78Y712D02*
X112Y712D01*
X870Y712D02*
X904Y712D01*
X78Y711D02*
X112Y711D01*
X870Y711D02*
X904Y711D01*
X78Y710D02*
X112Y710D01*
X870Y710D02*
X904Y710D01*
X78Y709D02*
X112Y709D01*
X870Y709D02*
X904Y709D01*
X78Y708D02*
X112Y708D01*
X870Y708D02*
X904Y708D01*
X78Y707D02*
X112Y707D01*
X870Y707D02*
X904Y707D01*
X78Y706D02*
X112Y706D01*
X870Y706D02*
X904Y706D01*
X78Y705D02*
X112Y705D01*
X870Y705D02*
X904Y705D01*
X78Y704D02*
X112Y704D01*
X870Y704D02*
X904Y704D01*
X78Y703D02*
X112Y703D01*
X870Y703D02*
X904Y703D01*
X78Y702D02*
X112Y702D01*
X870Y702D02*
X904Y702D01*
X78Y701D02*
X112Y701D01*
X870Y701D02*
X904Y701D01*
X78Y700D02*
X112Y700D01*
X870Y700D02*
X904Y700D01*
X78Y699D02*
X112Y699D01*
X870Y699D02*
X904Y699D01*
X78Y698D02*
X112Y698D01*
X870Y698D02*
X904Y698D01*
X78Y697D02*
X112Y697D01*
X870Y697D02*
X904Y697D01*
X78Y696D02*
X112Y696D01*
X870Y696D02*
X904Y696D01*
X78Y695D02*
X112Y695D01*
X870Y695D02*
X904Y695D01*
X78Y694D02*
X112Y694D01*
X870Y694D02*
X904Y694D01*
X78Y693D02*
X112Y693D01*
X870Y693D02*
X904Y693D01*
X78Y692D02*
X112Y692D01*
X870Y692D02*
X904Y692D01*
X78Y691D02*
X112Y691D01*
X870Y691D02*
X904Y691D01*
X78Y690D02*
X112Y690D01*
X870Y690D02*
X904Y690D01*
X78Y689D02*
X112Y689D01*
X870Y689D02*
X904Y689D01*
X78Y688D02*
X112Y688D01*
X870Y688D02*
X904Y688D01*
X78Y687D02*
X112Y687D01*
X870Y687D02*
X904Y687D01*
X78Y686D02*
X112Y686D01*
X870Y686D02*
X904Y686D01*
X78Y685D02*
X112Y685D01*
X870Y685D02*
X904Y685D01*
X78Y684D02*
X112Y684D01*
X870Y684D02*
X904Y684D01*
X78Y683D02*
X112Y683D01*
X870Y683D02*
X904Y683D01*
X78Y682D02*
X112Y682D01*
X870Y682D02*
X904Y682D01*
X78Y681D02*
X112Y681D01*
X870Y681D02*
X904Y681D01*
X78Y680D02*
X112Y680D01*
X870Y680D02*
X904Y680D01*
X78Y679D02*
X112Y679D01*
X870Y679D02*
X904Y679D01*
X78Y678D02*
X112Y678D01*
X870Y678D02*
X904Y678D01*
X78Y677D02*
X112Y677D01*
X870Y677D02*
X904Y677D01*
X78Y676D02*
X112Y676D01*
X870Y676D02*
X904Y676D01*
X78Y675D02*
X112Y675D01*
X870Y675D02*
X904Y675D01*
X78Y674D02*
X112Y674D01*
X870Y674D02*
X904Y674D01*
X78Y673D02*
X112Y673D01*
X870Y673D02*
X904Y673D01*
X78Y672D02*
X112Y672D01*
X870Y672D02*
X904Y672D01*
X78Y671D02*
X112Y671D01*
X870Y671D02*
X904Y671D01*
X78Y670D02*
X112Y670D01*
X870Y670D02*
X904Y670D01*
X78Y669D02*
X112Y669D01*
X870Y669D02*
X904Y669D01*
X78Y668D02*
X112Y668D01*
X870Y668D02*
X904Y668D01*
X78Y667D02*
X112Y667D01*
X870Y667D02*
X904Y667D01*
X78Y666D02*
X112Y666D01*
X870Y666D02*
X904Y666D01*
X78Y665D02*
X112Y665D01*
X870Y665D02*
X904Y665D01*
X78Y664D02*
X112Y664D01*
X870Y664D02*
X904Y664D01*
X78Y663D02*
X112Y663D01*
X870Y663D02*
X904Y663D01*
X78Y662D02*
X112Y662D01*
X870Y662D02*
X904Y662D01*
X78Y661D02*
X112Y661D01*
X870Y661D02*
X904Y661D01*
X78Y660D02*
X112Y660D01*
X870Y660D02*
X904Y660D01*
X78Y659D02*
X112Y659D01*
X870Y659D02*
X904Y659D01*
X78Y658D02*
X112Y658D01*
X870Y658D02*
X904Y658D01*
X78Y657D02*
X112Y657D01*
X870Y657D02*
X904Y657D01*
X78Y656D02*
X112Y656D01*
X870Y656D02*
X904Y656D01*
X78Y655D02*
X112Y655D01*
X870Y655D02*
X904Y655D01*
X78Y654D02*
X112Y654D01*
X870Y654D02*
X904Y654D01*
X78Y653D02*
X112Y653D01*
X870Y653D02*
X904Y653D01*
X78Y652D02*
X112Y652D01*
X870Y652D02*
X904Y652D01*
X78Y651D02*
X112Y651D01*
X870Y651D02*
X904Y651D01*
X78Y650D02*
X112Y650D01*
X870Y650D02*
X904Y650D01*
X78Y649D02*
X112Y649D01*
X870Y649D02*
X904Y649D01*
X78Y648D02*
X112Y648D01*
X870Y648D02*
X904Y648D01*
X78Y647D02*
X112Y647D01*
X870Y647D02*
X904Y647D01*
X78Y646D02*
X112Y646D01*
X870Y646D02*
X904Y646D01*
X78Y645D02*
X112Y645D01*
X870Y645D02*
X904Y645D01*
X78Y644D02*
X112Y644D01*
X870Y644D02*
X904Y644D01*
X78Y643D02*
X112Y643D01*
X870Y643D02*
X904Y643D01*
X78Y642D02*
X112Y642D01*
X870Y642D02*
X904Y642D01*
X78Y641D02*
X112Y641D01*
X870Y641D02*
X904Y641D01*
X78Y640D02*
X112Y640D01*
X870Y640D02*
X904Y640D01*
X78Y639D02*
X112Y639D01*
X870Y639D02*
X904Y639D01*
X78Y638D02*
X112Y638D01*
X870Y638D02*
X904Y638D01*
X78Y637D02*
X112Y637D01*
X870Y637D02*
X904Y637D01*
X78Y636D02*
X112Y636D01*
X870Y636D02*
X904Y636D01*
X78Y635D02*
X112Y635D01*
X870Y635D02*
X904Y635D01*
X78Y634D02*
X112Y634D01*
X870Y634D02*
X904Y634D01*
X78Y633D02*
X112Y633D01*
X870Y633D02*
X904Y633D01*
X78Y632D02*
X112Y632D01*
X870Y632D02*
X904Y632D01*
X78Y631D02*
X112Y631D01*
X870Y631D02*
X904Y631D01*
X78Y630D02*
X112Y630D01*
X870Y630D02*
X904Y630D01*
X78Y629D02*
X112Y629D01*
X870Y629D02*
X904Y629D01*
X78Y628D02*
X112Y628D01*
X870Y628D02*
X904Y628D01*
X78Y627D02*
X112Y627D01*
X870Y627D02*
X904Y627D01*
X78Y626D02*
X113Y626D01*
X869Y626D02*
X904Y626D01*
X78Y625D02*
X113Y625D01*
X869Y625D02*
X904Y625D01*
X78Y624D02*
X113Y624D01*
X869Y624D02*
X904Y624D01*
X78Y623D02*
X113Y623D01*
X869Y623D02*
X904Y623D01*
X78Y622D02*
X113Y622D01*
X869Y622D02*
X904Y622D01*
X79Y621D02*
X113Y621D01*
X869Y621D02*
X903Y621D01*
X79Y620D02*
X113Y620D01*
X869Y620D02*
X903Y620D01*
X79Y619D02*
X113Y619D01*
X869Y619D02*
X903Y619D01*
X79Y618D02*
X113Y618D01*
X869Y618D02*
X903Y618D01*
X79Y617D02*
X113Y617D01*
X869Y617D02*
X903Y617D01*
X79Y616D02*
X113Y616D01*
X869Y616D02*
X903Y616D01*
X79Y615D02*
X114Y615D01*
X868Y615D02*
X903Y615D01*
X79Y614D02*
X114Y614D01*
X868Y614D02*
X903Y614D01*
X79Y613D02*
X114Y613D01*
X868Y613D02*
X903Y613D01*
X79Y612D02*
X114Y612D01*
X868Y612D02*
X903Y612D01*
X79Y611D02*
X114Y611D01*
X868Y611D02*
X903Y611D01*
X79Y610D02*
X114Y610D01*
X868Y610D02*
X903Y610D01*
X79Y609D02*
X114Y609D01*
X868Y609D02*
X903Y609D01*
X79Y608D02*
X114Y608D01*
X868Y608D02*
X903Y608D01*
X79Y607D02*
X114Y607D01*
X868Y607D02*
X903Y607D01*
X79Y606D02*
X115Y606D01*
X867Y606D02*
X903Y606D01*
X79Y605D02*
X115Y605D01*
X867Y605D02*
X903Y605D01*
X79Y604D02*
X115Y604D01*
X867Y604D02*
X903Y604D01*
X79Y603D02*
X115Y603D01*
X867Y603D02*
X903Y603D01*
X80Y602D02*
X115Y602D01*
X867Y602D02*
X902Y602D01*
X80Y601D02*
X115Y601D01*
X867Y601D02*
X902Y601D01*
X80Y600D02*
X116Y600D01*
X867Y600D02*
X902Y600D01*
X80Y599D02*
X116Y599D01*
X866Y599D02*
X902Y599D01*
X80Y598D02*
X116Y598D01*
X866Y598D02*
X902Y598D01*
X80Y597D02*
X116Y597D01*
X866Y597D02*
X902Y597D01*
X80Y596D02*
X116Y596D01*
X866Y596D02*
X902Y596D01*
X80Y595D02*
X116Y595D01*
X866Y595D02*
X902Y595D01*
X80Y594D02*
X116Y594D01*
X866Y594D02*
X902Y594D01*
X80Y593D02*
X117Y593D01*
X865Y593D02*
X902Y593D01*
X80Y592D02*
X117Y592D01*
X865Y592D02*
X902Y592D01*
X81Y591D02*
X117Y591D01*
X865Y591D02*
X901Y591D01*
X81Y590D02*
X117Y590D01*
X865Y590D02*
X901Y590D01*
X81Y589D02*
X117Y589D01*
X865Y589D02*
X901Y589D01*
X81Y588D02*
X118Y588D01*
X864Y588D02*
X901Y588D01*
X81Y587D02*
X118Y587D01*
X864Y587D02*
X901Y587D01*
X81Y586D02*
X118Y586D01*
X864Y586D02*
X901Y586D01*
X81Y585D02*
X118Y585D01*
X864Y585D02*
X901Y585D01*
X81Y584D02*
X118Y584D01*
X864Y584D02*
X901Y584D01*
X82Y583D02*
X119Y583D01*
X863Y583D02*
X901Y583D01*
X82Y582D02*
X119Y582D01*
X863Y582D02*
X900Y582D01*
X82Y581D02*
X119Y581D01*
X863Y581D02*
X900Y581D01*
X82Y580D02*
X119Y580D01*
X863Y580D02*
X900Y580D01*
X82Y579D02*
X119Y579D01*
X863Y579D02*
X900Y579D01*
X82Y578D02*
X120Y578D01*
X862Y578D02*
X900Y578D01*
X82Y577D02*
X120Y577D01*
X862Y577D02*
X900Y577D01*
X83Y576D02*
X120Y576D01*
X862Y576D02*
X899Y576D01*
X83Y575D02*
X120Y575D01*
X862Y575D02*
X899Y575D01*
X83Y574D02*
X121Y574D01*
X861Y574D02*
X899Y574D01*
X83Y573D02*
X121Y573D01*
X861Y573D02*
X899Y573D01*
X83Y572D02*
X121Y572D01*
X861Y572D02*
X899Y572D01*
X83Y571D02*
X121Y571D01*
X861Y571D02*
X899Y571D01*
X83Y570D02*
X122Y570D01*
X860Y570D02*
X899Y570D01*
X84Y569D02*
X122Y569D01*
X860Y569D02*
X898Y569D01*
X84Y568D02*
X122Y568D01*
X860Y568D02*
X898Y568D01*
X84Y567D02*
X122Y567D01*
X860Y567D02*
X898Y567D01*
X84Y566D02*
X123Y566D01*
X859Y566D02*
X898Y566D01*
X84Y565D02*
X123Y565D01*
X859Y565D02*
X898Y565D01*
X85Y564D02*
X123Y564D01*
X859Y564D02*
X897Y564D01*
X85Y563D02*
X124Y563D01*
X858Y563D02*
X897Y563D01*
X85Y562D02*
X124Y562D01*
X858Y562D02*
X897Y562D01*
X85Y561D02*
X124Y561D01*
X858Y561D02*
X897Y561D01*
X85Y560D02*
X125Y560D01*
X858Y560D02*
X897Y560D01*
X86Y559D02*
X125Y559D01*
X857Y559D02*
X896Y559D01*
X86Y558D02*
X125Y558D01*
X857Y558D02*
X896Y558D01*
X86Y557D02*
X125Y557D01*
X857Y557D02*
X896Y557D01*
X86Y556D02*
X126Y556D01*
X856Y556D02*
X896Y556D01*
X86Y555D02*
X126Y555D01*
X856Y555D02*
X896Y555D01*
X87Y554D02*
X126Y554D01*
X856Y554D02*
X895Y554D01*
X87Y553D02*
X127Y553D01*
X855Y553D02*
X895Y553D01*
X87Y552D02*
X127Y552D01*
X855Y552D02*
X895Y552D01*
X87Y551D02*
X127Y551D01*
X855Y551D02*
X895Y551D01*
X88Y550D02*
X128Y550D01*
X854Y550D02*
X894Y550D01*
X88Y549D02*
X128Y549D01*
X854Y549D02*
X894Y549D01*
X88Y548D02*
X128Y548D01*
X854Y548D02*
X894Y548D01*
X88Y547D02*
X129Y547D01*
X853Y547D02*
X894Y547D01*
X89Y546D02*
X129Y546D01*
X853Y546D02*
X893Y546D01*
X89Y545D02*
X130Y545D01*
X852Y545D02*
X893Y545D01*
X89Y544D02*
X130Y544D01*
X852Y544D02*
X893Y544D01*
X89Y543D02*
X130Y543D01*
X852Y543D02*
X893Y543D01*
X90Y542D02*
X131Y542D01*
X851Y542D02*
X892Y542D01*
X90Y541D02*
X131Y541D01*
X851Y541D02*
X892Y541D01*
X90Y540D02*
X131Y540D01*
X851Y540D02*
X892Y540D01*
X90Y539D02*
X132Y539D01*
X850Y539D02*
X892Y539D01*
X91Y538D02*
X132Y538D01*
X850Y538D02*
X891Y538D01*
X91Y537D02*
X133Y537D01*
X849Y537D02*
X891Y537D01*
X91Y536D02*
X133Y536D01*
X849Y536D02*
X891Y536D01*
X92Y535D02*
X133Y535D01*
X849Y535D02*
X890Y535D01*
X92Y534D02*
X134Y534D01*
X848Y534D02*
X890Y534D01*
X92Y533D02*
X134Y533D01*
X848Y533D02*
X890Y533D01*
X92Y532D02*
X135Y532D01*
X847Y532D02*
X890Y532D01*
X93Y531D02*
X135Y531D01*
X847Y531D02*
X889Y531D01*
X93Y530D02*
X136Y530D01*
X846Y530D02*
X889Y530D01*
X93Y529D02*
X136Y529D01*
X846Y529D02*
X889Y529D01*
X94Y528D02*
X137Y528D01*
X845Y528D02*
X888Y528D01*
X94Y527D02*
X137Y527D01*
X845Y527D02*
X888Y527D01*
X94Y526D02*
X137Y526D01*
X845Y526D02*
X888Y526D01*
X95Y525D02*
X138Y525D01*
X844Y525D02*
X887Y525D01*
X95Y524D02*
X138Y524D01*
X844Y524D02*
X887Y524D01*
X95Y523D02*
X139Y523D01*
X843Y523D02*
X887Y523D01*
X96Y522D02*
X139Y522D01*
X843Y522D02*
X886Y522D01*
X96Y521D02*
X140Y521D01*
X842Y521D02*
X886Y521D01*
X96Y520D02*
X140Y520D01*
X842Y520D02*
X886Y520D01*
X97Y519D02*
X141Y519D01*
X841Y519D02*
X885Y519D01*
X97Y518D02*
X141Y518D01*
X841Y518D02*
X885Y518D01*
X98Y517D02*
X142Y517D01*
X840Y517D02*
X884Y517D01*
X98Y516D02*
X142Y516D01*
X840Y516D02*
X884Y516D01*
X98Y515D02*
X143Y515D01*
X839Y515D02*
X884Y515D01*
X99Y514D02*
X143Y514D01*
X839Y514D02*
X883Y514D01*
X99Y513D02*
X144Y513D01*
X838Y513D02*
X883Y513D01*
X99Y512D02*
X145Y512D01*
X837Y512D02*
X883Y512D01*
X100Y511D02*
X145Y511D01*
X837Y511D02*
X882Y511D01*
X100Y510D02*
X146Y510D01*
X836Y510D02*
X882Y510D01*
X101Y509D02*
X146Y509D01*
X836Y509D02*
X881Y509D01*
X101Y508D02*
X147Y508D01*
X835Y508D02*
X881Y508D01*
X102Y507D02*
X147Y507D01*
X835Y507D02*
X880Y507D01*
X102Y506D02*
X148Y506D01*
X834Y506D02*
X880Y506D01*
X102Y505D02*
X149Y505D01*
X834Y505D02*
X880Y505D01*
X103Y504D02*
X149Y504D01*
X833Y504D02*
X879Y504D01*
X103Y503D02*
X150Y503D01*
X832Y503D02*
X879Y503D01*
X104Y502D02*
X150Y502D01*
X832Y502D02*
X878Y502D01*
X104Y501D02*
X151Y501D01*
X831Y501D02*
X878Y501D01*
X105Y500D02*
X152Y500D01*
X830Y500D02*
X877Y500D01*
X105Y499D02*
X152Y499D01*
X830Y499D02*
X877Y499D01*
X105Y498D02*
X153Y498D01*
X829Y498D02*
X877Y498D01*
X106Y497D02*
X154Y497D01*
X828Y497D02*
X876Y497D01*
X106Y496D02*
X154Y496D01*
X828Y496D02*
X876Y496D01*
X107Y495D02*
X155Y495D01*
X827Y495D02*
X875Y495D01*
X107Y494D02*
X156Y494D01*
X826Y494D02*
X875Y494D01*
X108Y493D02*
X156Y493D01*
X826Y493D02*
X874Y493D01*
X108Y492D02*
X157Y492D01*
X825Y492D02*
X874Y492D01*
X109Y491D02*
X157Y491D01*
X825Y491D02*
X873Y491D01*
X109Y490D02*
X158Y490D01*
X824Y490D02*
X873Y490D01*
X110Y489D02*
X159Y489D01*
X823Y489D02*
X872Y489D01*
X110Y488D02*
X160Y488D01*
X822Y488D02*
X872Y488D01*
X111Y487D02*
X160Y487D01*
X822Y487D02*
X871Y487D01*
X111Y486D02*
X161Y486D01*
X821Y486D02*
X871Y486D01*
X112Y485D02*
X162Y485D01*
X820Y485D02*
X870Y485D01*
X112Y484D02*
X163Y484D01*
X819Y484D02*
X870Y484D01*
X113Y483D02*
X163Y483D01*
X819Y483D02*
X869Y483D01*
X114Y482D02*
X164Y482D01*
X818Y482D02*
X868Y482D01*
X114Y481D02*
X165Y481D01*
X817Y481D02*
X868Y481D01*
X115Y480D02*
X166Y480D01*
X816Y480D02*
X867Y480D01*
X115Y479D02*
X166Y479D01*
X816Y479D02*
X867Y479D01*
X116Y478D02*
X167Y478D01*
X815Y478D02*
X866Y478D01*
X116Y477D02*
X168Y477D01*
X814Y477D02*
X866Y477D01*
X117Y476D02*
X169Y476D01*
X813Y476D02*
X865Y476D01*
X118Y475D02*
X170Y475D01*
X812Y475D02*
X865Y475D01*
X118Y474D02*
X171Y474D01*
X811Y474D02*
X864Y474D01*
X119Y473D02*
X171Y473D01*
X811Y473D02*
X863Y473D01*
X119Y472D02*
X172Y472D01*
X810Y472D02*
X863Y472D01*
X120Y471D02*
X173Y471D01*
X809Y471D02*
X862Y471D01*
X121Y470D02*
X174Y470D01*
X808Y470D02*
X861Y470D01*
X121Y469D02*
X175Y469D01*
X807Y469D02*
X861Y469D01*
X122Y468D02*
X176Y468D01*
X806Y468D02*
X860Y468D01*
X122Y467D02*
X177Y467D01*
X805Y467D02*
X860Y467D01*
X123Y466D02*
X177Y466D01*
X805Y466D02*
X859Y466D01*
X124Y465D02*
X178Y465D01*
X804Y465D02*
X858Y465D01*
X124Y464D02*
X179Y464D01*
X803Y464D02*
X858Y464D01*
X125Y463D02*
X180Y463D01*
X802Y463D02*
X857Y463D01*
X126Y462D02*
X181Y462D01*
X801Y462D02*
X856Y462D01*
X126Y461D02*
X182Y461D01*
X800Y461D02*
X856Y461D01*
X127Y460D02*
X183Y460D01*
X799Y460D02*
X855Y460D01*
X128Y459D02*
X184Y459D01*
X798Y459D02*
X854Y459D01*
X128Y458D02*
X185Y458D01*
X797Y458D02*
X854Y458D01*
X129Y457D02*
X186Y457D01*
X796Y457D02*
X853Y457D01*
X130Y456D02*
X187Y456D01*
X795Y456D02*
X852Y456D01*
X131Y455D02*
X188Y455D01*
X794Y455D02*
X851Y455D01*
X131Y454D02*
X189Y454D01*
X793Y454D02*
X851Y454D01*
X132Y453D02*
X190Y453D01*
X792Y453D02*
X850Y453D01*
X133Y452D02*
X191Y452D01*
X791Y452D02*
X849Y452D01*
X134Y451D02*
X193Y451D01*
X789Y451D02*
X848Y451D01*
X134Y450D02*
X194Y450D01*
X788Y450D02*
X848Y450D01*
X135Y449D02*
X195Y449D01*
X787Y449D02*
X847Y449D01*
X136Y448D02*
X196Y448D01*
X786Y448D02*
X846Y448D01*
X137Y447D02*
X197Y447D01*
X785Y447D02*
X845Y447D01*
X137Y446D02*
X198Y446D01*
X784Y446D02*
X845Y446D01*
X138Y445D02*
X199Y445D01*
X783Y445D02*
X844Y445D01*
X139Y444D02*
X200Y444D01*
X782Y444D02*
X843Y444D01*
X140Y443D02*
X202Y443D01*
X780Y443D02*
X842Y443D01*
X141Y442D02*
X203Y442D01*
X779Y442D02*
X841Y442D01*
X142Y441D02*
X204Y441D01*
X778Y441D02*
X840Y441D01*
X142Y440D02*
X205Y440D01*
X777Y440D02*
X840Y440D01*
X143Y439D02*
X207Y439D01*
X775Y439D02*
X839Y439D01*
X144Y438D02*
X208Y438D01*
X774Y438D02*
X838Y438D01*
X145Y437D02*
X209Y437D01*
X773Y437D02*
X837Y437D01*
X146Y436D02*
X210Y436D01*
X772Y436D02*
X836Y436D01*
X147Y435D02*
X212Y435D01*
X770Y435D02*
X835Y435D01*
X148Y434D02*
X213Y434D01*
X769Y434D02*
X834Y434D01*
X149Y433D02*
X214Y433D01*
X768Y433D02*
X833Y433D01*
X149Y432D02*
X216Y432D01*
X766Y432D02*
X833Y432D01*
X150Y431D02*
X217Y431D01*
X765Y431D02*
X832Y431D01*
X151Y430D02*
X219Y430D01*
X763Y430D02*
X831Y430D01*
X152Y429D02*
X220Y429D01*
X762Y429D02*
X830Y429D01*
X153Y428D02*
X221Y428D01*
X761Y428D02*
X829Y428D01*
X154Y427D02*
X223Y427D01*
X759Y427D02*
X828Y427D01*
X155Y426D02*
X224Y426D01*
X758Y426D02*
X827Y426D01*
X156Y425D02*
X226Y425D01*
X756Y425D02*
X826Y425D01*
X157Y424D02*
X227Y424D01*
X755Y424D02*
X825Y424D01*
X158Y423D02*
X229Y423D01*
X753Y423D02*
X824Y423D01*
X159Y422D02*
X230Y422D01*
X752Y422D02*
X823Y422D01*
X160Y421D02*
X232Y421D01*
X750Y421D02*
X822Y421D01*
X161Y420D02*
X234Y420D01*
X748Y420D02*
X821Y420D01*
X162Y419D02*
X235Y419D01*
X747Y419D02*
X820Y419D01*
X163Y418D02*
X237Y418D01*
X745Y418D02*
X819Y418D01*
X165Y417D02*
X239Y417D01*
X743Y417D02*
X817Y417D01*
X166Y416D02*
X240Y416D01*
X742Y416D02*
X816Y416D01*
X167Y415D02*
X242Y415D01*
X740Y415D02*
X815Y415D01*
X168Y414D02*
X244Y414D01*
X738Y414D02*
X814Y414D01*
X169Y413D02*
X246Y413D01*
X736Y413D02*
X813Y413D01*
X170Y412D02*
X247Y412D01*
X735Y412D02*
X812Y412D01*
X171Y411D02*
X249Y411D01*
X733Y411D02*
X811Y411D01*
X172Y410D02*
X251Y410D01*
X731Y410D02*
X810Y410D01*
X173Y409D02*
X253Y409D01*
X729Y409D02*
X809Y409D01*
X175Y408D02*
X255Y408D01*
X727Y408D02*
X807Y408D01*
X176Y407D02*
X257Y407D01*
X725Y407D02*
X806Y407D01*
X177Y406D02*
X259Y406D01*
X723Y406D02*
X805Y406D01*
X178Y405D02*
X261Y405D01*
X721Y405D02*
X804Y405D01*
X180Y404D02*
X263Y404D01*
X719Y404D02*
X802Y404D01*
X181Y403D02*
X265Y403D01*
X717Y403D02*
X801Y403D01*
X182Y402D02*
X267Y402D01*
X715Y402D02*
X800Y402D01*
X183Y401D02*
X269Y401D01*
X713Y401D02*
X799Y401D01*
X185Y400D02*
X272Y400D01*
X710Y400D02*
X797Y400D01*
X186Y399D02*
X274Y399D01*
X708Y399D02*
X796Y399D01*
X187Y398D02*
X276Y398D01*
X706Y398D02*
X795Y398D01*
X189Y397D02*
X278Y397D01*
X704Y397D02*
X793Y397D01*
X190Y396D02*
X281Y396D01*
X701Y396D02*
X792Y396D01*
X192Y395D02*
X283Y395D01*
X699Y395D02*
X790Y395D01*
X193Y394D02*
X286Y394D01*
X696Y394D02*
X789Y394D01*
X194Y393D02*
X289Y393D01*
X693Y393D02*
X788Y393D01*
X196Y392D02*
X291Y392D01*
X691Y392D02*
X786Y392D01*
X197Y391D02*
X294Y391D01*
X688Y391D02*
X785Y391D01*
X199Y390D02*
X296Y390D01*
X686Y390D02*
X783Y390D01*
X200Y389D02*
X299Y389D01*
X683Y389D02*
X782Y389D01*
X202Y388D02*
X302Y388D01*
X680Y388D02*
X780Y388D01*
X203Y387D02*
X305Y387D01*
X677Y387D02*
X779Y387D01*
X205Y386D02*
X308Y386D01*
X674Y386D02*
X777Y386D01*
X206Y385D02*
X311Y385D01*
X671Y385D02*
X776Y385D01*
X208Y384D02*
X314Y384D01*
X668Y384D02*
X774Y384D01*
X210Y383D02*
X318Y383D01*
X664Y383D02*
X772Y383D01*
X211Y382D02*
X321Y382D01*
X661Y382D02*
X771Y382D01*
X213Y381D02*
X323Y381D01*
X658Y381D02*
X769Y381D01*
X214Y380D02*
X322Y380D01*
X654Y380D02*
X768Y380D01*
X216Y379D02*
X322Y379D01*
X650Y379D02*
X766Y379D01*
X218Y378D02*
X322Y378D01*
X646Y378D02*
X764Y378D01*
X220Y377D02*
X322Y377D01*
X643Y377D02*
X762Y377D01*
X222Y376D02*
X322Y376D01*
X639Y376D02*
X761Y376D01*
X223Y375D02*
X322Y375D01*
X634Y375D02*
X759Y375D01*
X225Y374D02*
X322Y374D01*
X630Y374D02*
X757Y374D01*
X227Y373D02*
X323Y373D01*
X625Y373D02*
X755Y373D01*
X229Y372D02*
X323Y372D01*
X620Y372D02*
X753Y372D01*
X231Y371D02*
X323Y371D01*
X615Y371D02*
X751Y371D01*
X233Y370D02*
X323Y370D01*
X371Y370D02*
X372Y370D01*
X610Y370D02*
X749Y370D01*
X235Y369D02*
X324Y369D01*
X371Y369D02*
X378Y369D01*
X604Y369D02*
X747Y369D01*
X237Y368D02*
X324Y368D01*
X370Y368D02*
X384Y368D01*
X598Y368D02*
X745Y368D01*
X239Y367D02*
X325Y367D01*
X370Y367D02*
X391Y367D01*
X591Y367D02*
X743Y367D01*
X241Y366D02*
X325Y366D01*
X369Y366D02*
X398Y366D01*
X584Y366D02*
X741Y366D01*
X243Y365D02*
X326Y365D01*
X369Y365D02*
X406Y365D01*
X576Y365D02*
X739Y365D01*
X245Y364D02*
X326Y364D01*
X368Y364D02*
X414Y364D01*
X568Y364D02*
X737Y364D01*
X247Y363D02*
X327Y363D01*
X368Y363D02*
X425Y363D01*
X557Y363D02*
X735Y363D01*
X249Y362D02*
X328Y362D01*
X367Y362D02*
X437Y362D01*
X545Y362D02*
X733Y362D01*
X252Y361D02*
X328Y361D01*
X366Y361D02*
X454Y361D01*
X528Y361D02*
X730Y361D01*
X254Y360D02*
X329Y360D01*
X365Y360D02*
X728Y360D01*
X256Y359D02*
X330Y359D01*
X364Y359D02*
X726Y359D01*
X258Y358D02*
X331Y358D01*
X363Y358D02*
X724Y358D01*
X261Y357D02*
X333Y357D01*
X362Y357D02*
X721Y357D01*
X263Y356D02*
X335Y356D01*
X360Y356D02*
X719Y356D01*
X266Y355D02*
X336Y355D01*
X358Y355D02*
X716Y355D01*
X268Y354D02*
X339Y354D01*
X355Y354D02*
X714Y354D01*
X271Y353D02*
X342Y353D01*
X352Y353D02*
X711Y353D01*
X274Y352D02*
X708Y352D01*
X276Y351D02*
X706Y351D01*
X279Y350D02*
X703Y350D01*
X282Y349D02*
X700Y349D01*
X285Y348D02*
X697Y348D01*
X288Y347D02*
X694Y347D01*
X291Y346D02*
X691Y346D01*
X294Y345D02*
X688Y345D01*
X297Y344D02*
X685Y344D01*
X300Y343D02*
X682Y343D01*
X304Y342D02*
X678Y342D01*
X307Y341D02*
X675Y341D01*
X310Y340D02*
X672Y340D01*
X314Y339D02*
X668Y339D01*
X318Y338D02*
X664Y338D01*
X322Y337D02*
X660Y337D01*
X326Y336D02*
X656Y336D01*
X330Y335D02*
X652Y335D01*
X334Y334D02*
X648Y334D01*
X339Y333D02*
X643Y333D01*
X343Y332D02*
X639Y332D01*
X348Y331D02*
X634Y331D01*
X353Y330D02*
X629Y330D01*
X358Y329D02*
X624Y329D01*
X364Y328D02*
X618Y328D01*
X369Y327D02*
X613Y327D01*
X376Y326D02*
X606Y326D01*
X383Y325D02*
X599Y325D01*
X390Y324D02*
X592Y324D01*
X398Y323D02*
X584Y323D01*
X406Y322D02*
X576Y322D01*
X417Y321D02*
X565Y321D01*
X428Y320D02*
X554Y320D01*
X444Y319D02*
X538Y319D01*
X467Y318D02*
X515Y318D01*
D02*
G04 End of Silk1*
M02*