; NON-PLATED HOLES START AT T1
; THROUGH (PLATED) HOLES START AT T100
M48
INCH
T1C0.086614
T100C0.031555
T101C0.035000
T102C0.038000
T103C0.042000
T104C0.043307
T105C0.030000
T106C0.040000
T107C0.041333
T108C0.039370
T109C0.034000
T110C0.041361
T111C0.015748
T112C0.031496
%
T1
X030747Y000766
X030747Y014743
X010471Y014743
X009880Y000766
T100
X029172Y010412
T101
X022085Y012577
X034865Y012821
X014998Y007806
X032865Y009821
X034865Y006522
X031865Y006522
X037865Y006522
X014998Y009806
X018085Y013758
X032865Y006522
X011998Y012806
X008896Y006790
X033865Y009821
X032865Y003522
X034865Y003522
X011998Y014806
X012243Y006735
X014998Y008806
X013227Y002735
X038865Y012821
X017888Y009231
X022085Y014743
X013227Y006735
X035865Y003522
X033865Y006522
X018085Y012577
X015983Y006672
X007518Y010790
X014998Y011806
X007518Y006790
X033865Y012821
X037865Y012821
X008896Y010790
X036865Y006522
X031865Y003522
X014211Y002735
X036865Y012821
X037865Y003522
X014211Y006735
X018085Y014743
X032865Y012821
X014998Y013806
X036865Y003522
X011998Y013806
X011998Y008806
X015983Y002672
X035865Y012821
X011258Y002735
X004211Y012380
X014998Y014806
X022085Y013758
X011258Y006735
X022085Y011593
X018085Y011593
X038865Y003522
X001809Y000569
X033865Y003522
X035865Y009821
X038865Y006522
X012243Y002735
X005211Y012380
X031865Y009821
X014998Y012806
X011998Y011806
X037865Y009821
X011998Y010806
X035865Y006522
X014998Y010806
X021888Y009231
X011998Y007806
X038865Y009821
X034865Y009821
X011998Y009806
X001809Y004569
X031865Y012821
X036865Y009821
T102
X018148Y004884
X013243Y001160
X018148Y003884
X029565Y001160
X019723Y003916
X028565Y001160
X019723Y001160
X018723Y001160
X018148Y005884
X011243Y001160
X014243Y001160
X012243Y001160
X020723Y001160
X019723Y004916
X017723Y001160
T103
X007085Y004743
X007085Y001743
X006849Y014940
X002754Y004546
X002754Y007526
X003869Y014940
T104
X021219Y003010
X022219Y003010
X023219Y003010
T105
X002991Y013562
X023087Y007066
X029132Y008798
X003975Y006908
X001991Y011562
X030353Y003443
X028642Y014152
X029351Y005491
X028778Y006654
X006731Y012792
X030353Y005491
X022085Y007066
X030134Y008798
X028778Y007656
X030628Y010412
X029644Y014152
X004977Y006908
X029351Y003443
X006731Y011790
X000991Y013562
X030628Y011414
T106
X041770Y012380
X042770Y012380
X041770Y003325
X042770Y010380
X042770Y011380
X001140Y006593
X041770Y005325
X042770Y005325
X041770Y013380
X005550Y009940
X041770Y010380
X042770Y013380
X041770Y001325
X041770Y002325
X021888Y008050
X041770Y011380
X042770Y003325
X042770Y001325
X041770Y014380
X042770Y014380
X041770Y004325
X003550Y009940
X001140Y010593
X017888Y008050
X004550Y009940
X042770Y002325
X042770Y004325
T107
X000550Y002711
X000550Y001711
T108
X008699Y012877
X008699Y013877
X008699Y014877
T109
X027575Y010113
X024250Y009113
X024250Y001113
X027575Y007113
X027575Y001113
X027575Y009113
X027575Y011113
X027575Y005113
X024250Y007113
X027575Y012113
X027575Y008113
X024250Y008113
X024250Y010113
X024250Y013113
X024250Y005113
X024250Y011113
X027575Y002113
X024250Y014113
X024250Y006113
X024250Y012113
X027575Y014113
X027575Y003113
X024250Y004113
X024250Y003113
X027575Y006113
X027575Y013113
X024250Y002113
X027575Y004113
T110
X000550Y003711
T111
X039206Y014354
X026613Y007144
X034880Y008640
X010077Y009821
X038825Y013770
X019132Y006672
X037437Y002147
X038384Y010491
X032912Y001357
X031920Y002147
X015983Y005294
X028227Y008207
X029369Y004703
X040038Y010451
X035865Y008247
X026613Y014349
X015983Y003719
X033896Y007853
X037437Y000763
X040583Y006083
X001179Y005294
X040471Y013207
X016770Y005294
X029565Y002341
X006731Y008443
X040583Y003530
X040471Y009664
X036845Y005095
X022173Y004488
X008699Y008443
X026022Y008050
X032918Y008639
X016770Y006475
X040471Y009034
X036845Y005885
X040471Y011475
X035865Y001750
X029959Y006081
X038896Y011003
X015983Y012774
T112
X029171Y012343
T00
M30
