G04 MADE WITH FRITZING*
G04 WWW.FRITZING.ORG*
G04 DOUBLE SIDED*
G04 HOLES PLATED*
G04 CONTOUR ON CENTER OF CONTOUR VECTOR*
%ASAXBY*%
%FSLAX23Y23*%
%MOIN*%
%OFA0B0*%
%SFA1.0B1.0*%
%ADD10C,0.084000*%
%ADD11C,0.049370*%
%ADD12C,0.080925*%
%ADD13C,0.080866*%
%ADD14C,0.080000*%
%ADD15C,0.096614*%
%ADD16C,0.092000*%
%ADD17C,0.088000*%
%ADD18C,0.093307*%
%ADD19C,0.085000*%
%ADD20C,0.070000*%
%ADD21C,0.090000*%
%ADD22C,0.084667*%
%ADD23C,0.084695*%
%ADD24R,0.092000X0.092000*%
%ADD25R,0.085000X0.085000*%
%ADD26R,0.010150X0.010150*%
%ADD27C,0.030000*%
%ADD28R,0.001000X0.001000*%
%LNMASK1*%
G90*
G70*
G54D10*
X4177Y533D03*
X4277Y533D03*
X4177Y433D03*
X4277Y433D03*
X4177Y333D03*
X4277Y333D03*
X4177Y233D03*
X4277Y233D03*
X4177Y133D03*
X4277Y133D03*
X4177Y533D03*
X4277Y533D03*
X4177Y433D03*
X4277Y433D03*
X4177Y333D03*
X4277Y333D03*
X4177Y233D03*
X4277Y233D03*
X4177Y133D03*
X4277Y133D03*
G54D11*
X3838Y1049D03*
X4004Y1045D03*
X2217Y449D03*
X2957Y234D03*
G54D12*
X2917Y1041D03*
G54D13*
X2917Y1234D03*
G54D14*
X3013Y880D03*
X2913Y880D03*
X2964Y1415D03*
X2864Y1415D03*
G54D11*
X4047Y966D03*
X4047Y1148D03*
X3921Y1435D03*
X4047Y903D03*
X3883Y1377D03*
X3292Y864D03*
X3488Y864D03*
X3192Y215D03*
X3744Y215D03*
X3744Y76D03*
X3685Y589D03*
X3685Y510D03*
X4058Y608D03*
X4058Y353D03*
G54D15*
X988Y77D03*
X3075Y1474D03*
X1047Y1474D03*
X3075Y77D03*
G54D11*
X1598Y1277D03*
X1008Y982D03*
X870Y844D03*
X673Y844D03*
X3587Y825D03*
X2661Y1435D03*
X2661Y714D03*
X2996Y608D03*
X3390Y785D03*
X2823Y821D03*
X3291Y136D03*
X3587Y175D03*
X1677Y648D03*
X1677Y529D03*
X1598Y529D03*
X3890Y1100D03*
X2937Y470D03*
X1913Y667D03*
X2602Y805D03*
X1598Y372D03*
X4047Y1321D03*
G54D14*
X2935Y549D03*
X3035Y549D03*
X3063Y1041D03*
X3063Y1141D03*
G54D16*
X709Y474D03*
X709Y174D03*
G54D17*
X1424Y116D03*
X1324Y116D03*
X1224Y116D03*
X1124Y116D03*
G54D18*
X2322Y301D03*
X2222Y301D03*
X2122Y301D03*
G54D17*
X2857Y116D03*
X2957Y116D03*
X1972Y492D03*
X1972Y392D03*
X1815Y588D03*
X1815Y488D03*
X1815Y388D03*
G54D19*
X1789Y923D03*
X2189Y923D03*
X890Y1079D03*
X890Y679D03*
G54D10*
X4177Y1438D03*
X4277Y1438D03*
X4177Y1338D03*
X4277Y1338D03*
X4177Y1238D03*
X4277Y1238D03*
X4177Y1138D03*
X4277Y1138D03*
X4177Y1038D03*
X4277Y1038D03*
X4177Y1438D03*
X4277Y1438D03*
X4177Y1338D03*
X4277Y1338D03*
X4177Y1238D03*
X4277Y1238D03*
X4177Y1138D03*
X4277Y1138D03*
X4177Y1038D03*
X4277Y1038D03*
G54D17*
X1772Y116D03*
X1872Y116D03*
X1972Y116D03*
X2072Y116D03*
G54D19*
X2758Y111D03*
X2758Y211D03*
X2758Y311D03*
X2758Y411D03*
X2758Y511D03*
X2758Y611D03*
X2758Y711D03*
X2758Y811D03*
X2758Y911D03*
X2758Y1011D03*
X2758Y1111D03*
X2758Y1211D03*
X2758Y1311D03*
X2425Y1411D03*
X2425Y1311D03*
X2425Y1211D03*
X2425Y1111D03*
X2425Y1011D03*
X2425Y911D03*
X2425Y811D03*
X2425Y711D03*
X2425Y611D03*
X2425Y511D03*
X2425Y411D03*
X2425Y311D03*
X2425Y211D03*
X2425Y111D03*
X2758Y1411D03*
X2758Y111D03*
X2758Y211D03*
X2758Y311D03*
X2758Y411D03*
X2758Y511D03*
X2758Y611D03*
X2758Y711D03*
X2758Y811D03*
X2758Y911D03*
X2758Y1011D03*
X2758Y1111D03*
X2758Y1211D03*
X2758Y1311D03*
X2425Y1411D03*
X2425Y1311D03*
X2425Y1211D03*
X2425Y1111D03*
X2425Y1011D03*
X2425Y911D03*
X2425Y811D03*
X2425Y711D03*
X2425Y611D03*
X2425Y511D03*
X2425Y411D03*
X2425Y311D03*
X2425Y211D03*
X2425Y111D03*
X2758Y1411D03*
G54D10*
X870Y1488D03*
X870Y1388D03*
X870Y1288D03*
X870Y1488D03*
X870Y1388D03*
X870Y1288D03*
G54D19*
X1500Y781D03*
X1200Y781D03*
X1500Y881D03*
X1200Y881D03*
X1500Y981D03*
X1200Y981D03*
X1500Y1081D03*
X1200Y1081D03*
X1500Y1181D03*
X1200Y1181D03*
X1500Y1281D03*
X1200Y1281D03*
X1500Y1381D03*
X1200Y1381D03*
X1500Y1481D03*
X1200Y1481D03*
X3187Y352D03*
X3187Y652D03*
X3287Y352D03*
X3287Y652D03*
X3387Y352D03*
X3387Y652D03*
X3487Y352D03*
X3487Y652D03*
X3587Y352D03*
X3587Y652D03*
X3687Y352D03*
X3687Y652D03*
X3787Y352D03*
X3787Y652D03*
X3887Y352D03*
X3887Y652D03*
X3187Y982D03*
X3187Y1282D03*
X3287Y982D03*
X3287Y1282D03*
X3387Y982D03*
X3387Y1282D03*
X3487Y982D03*
X3487Y1282D03*
X3587Y982D03*
X3587Y1282D03*
X3687Y982D03*
X3687Y1282D03*
X3787Y982D03*
X3787Y1282D03*
X3887Y982D03*
X3887Y1282D03*
G54D16*
X685Y1494D03*
X387Y1494D03*
G54D20*
X555Y994D03*
X455Y994D03*
X355Y994D03*
X555Y994D03*
X455Y994D03*
X355Y994D03*
G54D19*
X421Y1238D03*
X521Y1238D03*
G54D14*
X673Y1279D03*
X673Y1179D03*
G54D19*
X1126Y674D03*
X1126Y274D03*
X1224Y674D03*
X1224Y274D03*
X1323Y674D03*
X1323Y274D03*
X1421Y674D03*
X1421Y274D03*
X2209Y1159D03*
X1809Y1159D03*
X2209Y1258D03*
X1809Y1258D03*
X2209Y1376D03*
X1809Y1376D03*
X2209Y1474D03*
X1809Y1474D03*
G54D21*
X114Y1059D03*
X114Y659D03*
G54D19*
X752Y1079D03*
X752Y679D03*
G54D14*
X398Y691D03*
X498Y691D03*
G54D16*
X275Y455D03*
X275Y753D03*
G54D21*
X2189Y805D03*
X1789Y805D03*
G54D14*
X2309Y707D03*
X2209Y707D03*
X2878Y665D03*
X2878Y766D03*
G54D19*
X1598Y667D03*
X1598Y267D03*
G54D14*
X3035Y344D03*
X2935Y344D03*
G54D19*
X181Y457D03*
X181Y57D03*
G54D22*
X55Y171D03*
X55Y271D03*
G54D23*
X55Y371D03*
G54D11*
X118Y529D03*
G54D24*
X709Y474D03*
G54D25*
X1500Y781D03*
G54D26*
X1200Y1080D03*
X1199Y1181D03*
X3486Y652D03*
G54D25*
X3187Y982D03*
G54D26*
X3486Y1282D03*
G54D24*
X686Y1494D03*
G54D25*
X421Y1238D03*
G54D24*
X275Y454D03*
G54D27*
G36*
X3159Y380D02*
X3214Y380D01*
X3214Y325D01*
X3159Y325D01*
X3159Y380D01*
G37*
D02*
G54D28*
X828Y1529D02*
X911Y1529D01*
X828Y1528D02*
X911Y1528D01*
X828Y1527D02*
X911Y1527D01*
X828Y1526D02*
X911Y1526D01*
X828Y1525D02*
X911Y1525D01*
X828Y1524D02*
X911Y1524D01*
X828Y1523D02*
X911Y1523D01*
X828Y1522D02*
X911Y1522D01*
X828Y1521D02*
X911Y1521D01*
X828Y1520D02*
X911Y1520D01*
X828Y1519D02*
X911Y1519D01*
X828Y1518D02*
X911Y1518D01*
X828Y1517D02*
X911Y1517D01*
X828Y1516D02*
X911Y1516D01*
X828Y1515D02*
X911Y1515D01*
X828Y1514D02*
X911Y1514D01*
X828Y1513D02*
X911Y1513D01*
X828Y1512D02*
X911Y1512D01*
X828Y1511D02*
X911Y1511D01*
X828Y1510D02*
X911Y1510D01*
X828Y1509D02*
X911Y1509D01*
X828Y1508D02*
X911Y1508D01*
X828Y1507D02*
X911Y1507D01*
X828Y1506D02*
X911Y1506D01*
X828Y1505D02*
X911Y1505D01*
X828Y1504D02*
X911Y1504D01*
X828Y1503D02*
X911Y1503D01*
X828Y1502D02*
X865Y1502D01*
X873Y1502D02*
X911Y1502D01*
X828Y1501D02*
X862Y1501D01*
X876Y1501D02*
X911Y1501D01*
X828Y1500D02*
X861Y1500D01*
X878Y1500D02*
X911Y1500D01*
X828Y1499D02*
X860Y1499D01*
X879Y1499D02*
X911Y1499D01*
X828Y1498D02*
X858Y1498D01*
X880Y1498D02*
X911Y1498D01*
X828Y1497D02*
X858Y1497D01*
X881Y1497D02*
X911Y1497D01*
X828Y1496D02*
X857Y1496D01*
X882Y1496D02*
X911Y1496D01*
X828Y1495D02*
X856Y1495D01*
X883Y1495D02*
X911Y1495D01*
X828Y1494D02*
X856Y1494D01*
X883Y1494D02*
X911Y1494D01*
X828Y1493D02*
X855Y1493D01*
X884Y1493D02*
X911Y1493D01*
X828Y1492D02*
X855Y1492D01*
X884Y1492D02*
X911Y1492D01*
X828Y1491D02*
X855Y1491D01*
X884Y1491D02*
X911Y1491D01*
X828Y1490D02*
X854Y1490D01*
X884Y1490D02*
X911Y1490D01*
X828Y1489D02*
X854Y1489D01*
X884Y1489D02*
X911Y1489D01*
X828Y1488D02*
X854Y1488D01*
X885Y1488D02*
X911Y1488D01*
X828Y1487D02*
X854Y1487D01*
X884Y1487D02*
X911Y1487D01*
X828Y1486D02*
X854Y1486D01*
X884Y1486D02*
X911Y1486D01*
X828Y1485D02*
X854Y1485D01*
X884Y1485D02*
X911Y1485D01*
X828Y1484D02*
X855Y1484D01*
X884Y1484D02*
X911Y1484D01*
X828Y1483D02*
X855Y1483D01*
X884Y1483D02*
X911Y1483D01*
X828Y1482D02*
X855Y1482D01*
X883Y1482D02*
X911Y1482D01*
X828Y1481D02*
X856Y1481D01*
X883Y1481D02*
X911Y1481D01*
X828Y1480D02*
X856Y1480D01*
X882Y1480D02*
X911Y1480D01*
X828Y1479D02*
X857Y1479D01*
X882Y1479D02*
X911Y1479D01*
X828Y1478D02*
X858Y1478D01*
X881Y1478D02*
X911Y1478D01*
X828Y1477D02*
X859Y1477D01*
X880Y1477D02*
X911Y1477D01*
X828Y1476D02*
X860Y1476D01*
X879Y1476D02*
X911Y1476D01*
X828Y1475D02*
X862Y1475D01*
X877Y1475D02*
X911Y1475D01*
X828Y1474D02*
X864Y1474D01*
X875Y1474D02*
X911Y1474D01*
X828Y1473D02*
X911Y1473D01*
X828Y1472D02*
X911Y1472D01*
X828Y1471D02*
X911Y1471D01*
X828Y1470D02*
X911Y1470D01*
X828Y1469D02*
X911Y1469D01*
X828Y1468D02*
X911Y1468D01*
X828Y1467D02*
X911Y1467D01*
X828Y1466D02*
X911Y1466D01*
X828Y1465D02*
X911Y1465D01*
X828Y1464D02*
X911Y1464D01*
X828Y1463D02*
X911Y1463D01*
X828Y1462D02*
X911Y1462D01*
X828Y1461D02*
X911Y1461D01*
X828Y1460D02*
X911Y1460D01*
X828Y1459D02*
X911Y1459D01*
X828Y1458D02*
X911Y1458D01*
X828Y1457D02*
X911Y1457D01*
X828Y1456D02*
X911Y1456D01*
X828Y1455D02*
X911Y1455D01*
X828Y1454D02*
X911Y1454D01*
X828Y1453D02*
X911Y1453D01*
X828Y1452D02*
X911Y1452D01*
X828Y1451D02*
X911Y1451D01*
X828Y1450D02*
X911Y1450D01*
X828Y1449D02*
X911Y1449D01*
X828Y1448D02*
X911Y1448D01*
X828Y1447D02*
X911Y1447D01*
X828Y1446D02*
X911Y1446D01*
X95Y1396D02*
X102Y1396D01*
X295Y1396D02*
X302Y1396D01*
X89Y1395D02*
X108Y1395D01*
X289Y1395D02*
X308Y1395D01*
X86Y1394D02*
X111Y1394D01*
X286Y1394D02*
X311Y1394D01*
X83Y1393D02*
X114Y1393D01*
X283Y1393D02*
X314Y1393D01*
X81Y1392D02*
X116Y1392D01*
X281Y1392D02*
X316Y1392D01*
X79Y1391D02*
X118Y1391D01*
X279Y1391D02*
X318Y1391D01*
X78Y1390D02*
X119Y1390D01*
X278Y1390D02*
X319Y1390D01*
X76Y1389D02*
X121Y1389D01*
X276Y1389D02*
X321Y1389D01*
X75Y1388D02*
X122Y1388D01*
X275Y1388D02*
X322Y1388D01*
X74Y1387D02*
X124Y1387D01*
X274Y1387D02*
X324Y1387D01*
X72Y1386D02*
X125Y1386D01*
X272Y1386D02*
X325Y1386D01*
X71Y1385D02*
X126Y1385D01*
X271Y1385D02*
X326Y1385D01*
X70Y1384D02*
X127Y1384D01*
X270Y1384D02*
X327Y1384D01*
X69Y1383D02*
X128Y1383D01*
X269Y1383D02*
X328Y1383D01*
X69Y1382D02*
X129Y1382D01*
X268Y1382D02*
X329Y1382D01*
X68Y1381D02*
X129Y1381D01*
X268Y1381D02*
X329Y1381D01*
X67Y1380D02*
X130Y1380D01*
X267Y1380D02*
X330Y1380D01*
X66Y1379D02*
X131Y1379D01*
X266Y1379D02*
X331Y1379D01*
X66Y1378D02*
X132Y1378D01*
X266Y1378D02*
X332Y1378D01*
X65Y1377D02*
X132Y1377D01*
X265Y1377D02*
X332Y1377D01*
X64Y1376D02*
X133Y1376D01*
X264Y1376D02*
X333Y1376D01*
X64Y1375D02*
X133Y1375D01*
X264Y1375D02*
X333Y1375D01*
X63Y1374D02*
X134Y1374D01*
X263Y1374D02*
X334Y1374D01*
X63Y1373D02*
X134Y1373D01*
X263Y1373D02*
X334Y1373D01*
X62Y1372D02*
X135Y1372D01*
X262Y1372D02*
X335Y1372D01*
X62Y1371D02*
X135Y1371D01*
X262Y1371D02*
X335Y1371D01*
X62Y1370D02*
X136Y1370D01*
X262Y1370D02*
X336Y1370D01*
X61Y1369D02*
X136Y1369D01*
X261Y1369D02*
X336Y1369D01*
X61Y1368D02*
X136Y1368D01*
X261Y1368D02*
X336Y1368D01*
X61Y1367D02*
X137Y1367D01*
X261Y1367D02*
X337Y1367D01*
X60Y1366D02*
X137Y1366D01*
X260Y1366D02*
X337Y1366D01*
X60Y1365D02*
X137Y1365D01*
X260Y1365D02*
X337Y1365D01*
X60Y1364D02*
X137Y1364D01*
X260Y1364D02*
X337Y1364D01*
X60Y1363D02*
X137Y1363D01*
X260Y1363D02*
X337Y1363D01*
X60Y1362D02*
X138Y1362D01*
X260Y1362D02*
X338Y1362D01*
X59Y1361D02*
X138Y1361D01*
X259Y1361D02*
X338Y1361D01*
X59Y1360D02*
X138Y1360D01*
X259Y1360D02*
X338Y1360D01*
X59Y1359D02*
X138Y1359D01*
X259Y1359D02*
X338Y1359D01*
X59Y1358D02*
X138Y1358D01*
X259Y1358D02*
X338Y1358D01*
X59Y1357D02*
X138Y1357D01*
X259Y1357D02*
X338Y1357D01*
X59Y1356D02*
X138Y1356D01*
X259Y1356D02*
X338Y1356D01*
X59Y1355D02*
X138Y1355D01*
X259Y1355D02*
X338Y1355D01*
X59Y1354D02*
X138Y1354D01*
X259Y1354D02*
X338Y1354D01*
X59Y1353D02*
X138Y1353D01*
X259Y1353D02*
X338Y1353D01*
X59Y1352D02*
X138Y1352D01*
X259Y1352D02*
X338Y1352D01*
X60Y1351D02*
X138Y1351D01*
X260Y1351D02*
X338Y1351D01*
X60Y1350D02*
X137Y1350D01*
X260Y1350D02*
X337Y1350D01*
X60Y1349D02*
X137Y1349D01*
X260Y1349D02*
X337Y1349D01*
X60Y1348D02*
X137Y1348D01*
X260Y1348D02*
X337Y1348D01*
X60Y1347D02*
X137Y1347D01*
X260Y1347D02*
X337Y1347D01*
X61Y1346D02*
X137Y1346D01*
X261Y1346D02*
X337Y1346D01*
X61Y1345D02*
X136Y1345D01*
X261Y1345D02*
X336Y1345D01*
X61Y1344D02*
X136Y1344D01*
X261Y1344D02*
X336Y1344D01*
X61Y1343D02*
X136Y1343D01*
X261Y1343D02*
X336Y1343D01*
X62Y1342D02*
X135Y1342D01*
X262Y1342D02*
X335Y1342D01*
X62Y1341D02*
X135Y1341D01*
X262Y1341D02*
X335Y1341D01*
X63Y1340D02*
X135Y1340D01*
X263Y1340D02*
X335Y1340D01*
X63Y1339D02*
X134Y1339D01*
X263Y1339D02*
X334Y1339D01*
X64Y1338D02*
X134Y1338D01*
X264Y1338D02*
X334Y1338D01*
X64Y1337D02*
X133Y1337D01*
X264Y1337D02*
X333Y1337D01*
X65Y1336D02*
X132Y1336D01*
X265Y1336D02*
X332Y1336D01*
X65Y1335D02*
X132Y1335D01*
X265Y1335D02*
X332Y1335D01*
X66Y1334D02*
X131Y1334D01*
X266Y1334D02*
X331Y1334D01*
X67Y1333D02*
X130Y1333D01*
X267Y1333D02*
X330Y1333D01*
X67Y1332D02*
X130Y1332D01*
X267Y1332D02*
X330Y1332D01*
X68Y1331D02*
X129Y1331D01*
X268Y1331D02*
X329Y1331D01*
X69Y1330D02*
X128Y1330D01*
X269Y1330D02*
X328Y1330D01*
X70Y1329D02*
X127Y1329D01*
X270Y1329D02*
X327Y1329D01*
X71Y1328D02*
X126Y1328D01*
X271Y1328D02*
X326Y1328D01*
X72Y1327D02*
X125Y1327D01*
X272Y1327D02*
X325Y1327D01*
X73Y1326D02*
X124Y1326D01*
X273Y1326D02*
X324Y1326D01*
X74Y1325D02*
X123Y1325D01*
X274Y1325D02*
X323Y1325D01*
X76Y1324D02*
X122Y1324D01*
X276Y1324D02*
X322Y1324D01*
X77Y1323D02*
X120Y1323D01*
X277Y1323D02*
X320Y1323D01*
X79Y1322D02*
X118Y1322D01*
X279Y1322D02*
X318Y1322D01*
X80Y1321D02*
X117Y1321D01*
X280Y1321D02*
X317Y1321D01*
X82Y1320D02*
X115Y1320D01*
X282Y1320D02*
X315Y1320D01*
X85Y1319D02*
X112Y1319D01*
X285Y1319D02*
X312Y1319D01*
X88Y1318D02*
X109Y1318D01*
X288Y1318D02*
X309Y1318D01*
X92Y1317D02*
X105Y1317D01*
X292Y1317D02*
X305Y1317D01*
X195Y1196D02*
X203Y1196D01*
X189Y1195D02*
X208Y1195D01*
X186Y1194D02*
X211Y1194D01*
X183Y1193D02*
X214Y1193D01*
X181Y1192D02*
X216Y1192D01*
X179Y1191D02*
X218Y1191D01*
X178Y1190D02*
X220Y1190D01*
X176Y1189D02*
X221Y1189D01*
X175Y1188D02*
X222Y1188D01*
X173Y1187D02*
X224Y1187D01*
X172Y1186D02*
X225Y1186D01*
X171Y1185D02*
X226Y1185D01*
X170Y1184D02*
X227Y1184D01*
X169Y1183D02*
X228Y1183D01*
X168Y1182D02*
X229Y1182D01*
X168Y1181D02*
X229Y1181D01*
X167Y1180D02*
X230Y1180D01*
X166Y1179D02*
X231Y1179D01*
X166Y1178D02*
X232Y1178D01*
X165Y1177D02*
X232Y1177D01*
X164Y1176D02*
X233Y1176D01*
X164Y1175D02*
X233Y1175D01*
X163Y1174D02*
X234Y1174D01*
X163Y1173D02*
X234Y1173D01*
X162Y1172D02*
X235Y1172D01*
X162Y1171D02*
X235Y1171D01*
X162Y1170D02*
X236Y1170D01*
X161Y1169D02*
X236Y1169D01*
X161Y1168D02*
X236Y1168D01*
X161Y1167D02*
X237Y1167D01*
X160Y1166D02*
X237Y1166D01*
X160Y1165D02*
X237Y1165D01*
X160Y1164D02*
X237Y1164D01*
X160Y1163D02*
X237Y1163D01*
X160Y1162D02*
X238Y1162D01*
X159Y1161D02*
X238Y1161D01*
X159Y1160D02*
X238Y1160D01*
X159Y1159D02*
X238Y1159D01*
X159Y1158D02*
X238Y1158D01*
X159Y1157D02*
X238Y1157D01*
X159Y1156D02*
X238Y1156D01*
X159Y1155D02*
X238Y1155D01*
X159Y1154D02*
X238Y1154D01*
X159Y1153D02*
X238Y1153D01*
X159Y1152D02*
X238Y1152D01*
X160Y1151D02*
X238Y1151D01*
X160Y1150D02*
X237Y1150D01*
X160Y1149D02*
X237Y1149D01*
X160Y1148D02*
X237Y1148D01*
X160Y1147D02*
X237Y1147D01*
X161Y1146D02*
X237Y1146D01*
X161Y1145D02*
X236Y1145D01*
X161Y1144D02*
X236Y1144D01*
X161Y1143D02*
X236Y1143D01*
X162Y1142D02*
X235Y1142D01*
X162Y1141D02*
X235Y1141D01*
X163Y1140D02*
X235Y1140D01*
X163Y1139D02*
X234Y1139D01*
X164Y1138D02*
X234Y1138D01*
X164Y1137D02*
X233Y1137D01*
X165Y1136D02*
X232Y1136D01*
X165Y1135D02*
X232Y1135D01*
X166Y1134D02*
X231Y1134D01*
X167Y1133D02*
X230Y1133D01*
X167Y1132D02*
X230Y1132D01*
X168Y1131D02*
X229Y1131D01*
X169Y1130D02*
X228Y1130D01*
X170Y1129D02*
X227Y1129D01*
X171Y1128D02*
X226Y1128D01*
X172Y1127D02*
X225Y1127D01*
X173Y1126D02*
X224Y1126D01*
X174Y1125D02*
X223Y1125D01*
X176Y1124D02*
X221Y1124D01*
X177Y1123D02*
X220Y1123D01*
X179Y1122D02*
X218Y1122D01*
X180Y1121D02*
X217Y1121D01*
X182Y1120D02*
X215Y1120D01*
X185Y1119D02*
X212Y1119D01*
X188Y1118D02*
X209Y1118D01*
X193Y1117D02*
X205Y1117D01*
X352Y1059D02*
X357Y1059D01*
X452Y1059D02*
X457Y1059D01*
X552Y1059D02*
X557Y1059D01*
X346Y1058D02*
X363Y1058D01*
X446Y1058D02*
X463Y1058D01*
X546Y1058D02*
X563Y1058D01*
X343Y1057D02*
X366Y1057D01*
X443Y1057D02*
X466Y1057D01*
X543Y1057D02*
X566Y1057D01*
X341Y1056D02*
X368Y1056D01*
X441Y1056D02*
X468Y1056D01*
X541Y1056D02*
X568Y1056D01*
X339Y1055D02*
X370Y1055D01*
X439Y1055D02*
X470Y1055D01*
X539Y1055D02*
X570Y1055D01*
X337Y1054D02*
X372Y1054D01*
X437Y1054D02*
X472Y1054D01*
X537Y1054D02*
X572Y1054D01*
X335Y1053D02*
X374Y1053D01*
X435Y1053D02*
X474Y1053D01*
X535Y1053D02*
X574Y1053D01*
X334Y1052D02*
X375Y1052D01*
X434Y1052D02*
X475Y1052D01*
X534Y1052D02*
X575Y1052D01*
X333Y1051D02*
X376Y1051D01*
X433Y1051D02*
X476Y1051D01*
X533Y1051D02*
X576Y1051D01*
X331Y1050D02*
X378Y1050D01*
X431Y1050D02*
X478Y1050D01*
X531Y1050D02*
X578Y1050D01*
X330Y1049D02*
X379Y1049D01*
X430Y1049D02*
X479Y1049D01*
X530Y1049D02*
X579Y1049D01*
X329Y1048D02*
X380Y1048D01*
X429Y1048D02*
X480Y1048D01*
X529Y1048D02*
X580Y1048D01*
X328Y1047D02*
X380Y1047D01*
X428Y1047D02*
X480Y1047D01*
X528Y1047D02*
X580Y1047D01*
X328Y1046D02*
X381Y1046D01*
X428Y1046D02*
X481Y1046D01*
X528Y1046D02*
X581Y1046D01*
X327Y1045D02*
X382Y1045D01*
X427Y1045D02*
X482Y1045D01*
X527Y1045D02*
X582Y1045D01*
X326Y1044D02*
X383Y1044D01*
X426Y1044D02*
X483Y1044D01*
X526Y1044D02*
X583Y1044D01*
X326Y1043D02*
X383Y1043D01*
X426Y1043D02*
X483Y1043D01*
X526Y1043D02*
X583Y1043D01*
X325Y1042D02*
X384Y1042D01*
X425Y1042D02*
X484Y1042D01*
X525Y1042D02*
X584Y1042D01*
X324Y1041D02*
X385Y1041D01*
X424Y1041D02*
X485Y1041D01*
X524Y1041D02*
X585Y1041D01*
X324Y1040D02*
X385Y1040D01*
X424Y1040D02*
X485Y1040D01*
X524Y1040D02*
X585Y1040D01*
X323Y1039D02*
X386Y1039D01*
X423Y1039D02*
X486Y1039D01*
X523Y1039D02*
X586Y1039D01*
X323Y1038D02*
X386Y1038D01*
X423Y1038D02*
X486Y1038D01*
X523Y1038D02*
X586Y1038D01*
X323Y1037D02*
X386Y1037D01*
X423Y1037D02*
X486Y1037D01*
X523Y1037D02*
X586Y1037D01*
X322Y1036D02*
X387Y1036D01*
X422Y1036D02*
X487Y1036D01*
X522Y1036D02*
X587Y1036D01*
X322Y1035D02*
X387Y1035D01*
X422Y1035D02*
X487Y1035D01*
X522Y1035D02*
X587Y1035D01*
X321Y1034D02*
X387Y1034D01*
X421Y1034D02*
X487Y1034D01*
X521Y1034D02*
X587Y1034D01*
X321Y1033D02*
X388Y1033D01*
X421Y1033D02*
X488Y1033D01*
X521Y1033D02*
X588Y1033D01*
X321Y1032D02*
X388Y1032D01*
X421Y1032D02*
X488Y1032D01*
X521Y1032D02*
X588Y1032D01*
X321Y1031D02*
X388Y1031D01*
X421Y1031D02*
X488Y1031D01*
X521Y1031D02*
X588Y1031D01*
X321Y1030D02*
X388Y1030D01*
X421Y1030D02*
X488Y1030D01*
X521Y1030D02*
X588Y1030D01*
X320Y1029D02*
X389Y1029D01*
X420Y1029D02*
X489Y1029D01*
X520Y1029D02*
X589Y1029D01*
X320Y1028D02*
X389Y1028D01*
X420Y1028D02*
X489Y1028D01*
X520Y1028D02*
X589Y1028D01*
X320Y1027D02*
X389Y1027D01*
X420Y1027D02*
X489Y1027D01*
X520Y1027D02*
X589Y1027D01*
X320Y1026D02*
X389Y1026D01*
X420Y1026D02*
X489Y1026D01*
X520Y1026D02*
X589Y1026D01*
X320Y1025D02*
X389Y1025D01*
X420Y1025D02*
X489Y1025D01*
X520Y1025D02*
X589Y1025D01*
X320Y1024D02*
X389Y1024D01*
X420Y1024D02*
X489Y1024D01*
X520Y1024D02*
X589Y1024D01*
X320Y1023D02*
X389Y1023D01*
X420Y1023D02*
X489Y1023D01*
X520Y1023D02*
X589Y1023D01*
X320Y1022D02*
X389Y1022D01*
X420Y1022D02*
X489Y1022D01*
X520Y1022D02*
X589Y1022D01*
X320Y1021D02*
X389Y1021D01*
X420Y1021D02*
X489Y1021D01*
X520Y1021D02*
X589Y1021D01*
X320Y1020D02*
X389Y1020D01*
X420Y1020D02*
X489Y1020D01*
X520Y1020D02*
X589Y1020D01*
X320Y1019D02*
X389Y1019D01*
X420Y1019D02*
X489Y1019D01*
X520Y1019D02*
X589Y1019D01*
X320Y1018D02*
X389Y1018D01*
X420Y1018D02*
X489Y1018D01*
X520Y1018D02*
X589Y1018D01*
X320Y1017D02*
X389Y1017D01*
X420Y1017D02*
X489Y1017D01*
X520Y1017D02*
X589Y1017D01*
X320Y1016D02*
X389Y1016D01*
X420Y1016D02*
X489Y1016D01*
X520Y1016D02*
X589Y1016D01*
X320Y1015D02*
X389Y1015D01*
X420Y1015D02*
X489Y1015D01*
X520Y1015D02*
X589Y1015D01*
X320Y1014D02*
X389Y1014D01*
X420Y1014D02*
X489Y1014D01*
X520Y1014D02*
X589Y1014D01*
X320Y1013D02*
X389Y1013D01*
X420Y1013D02*
X489Y1013D01*
X520Y1013D02*
X589Y1013D01*
X320Y1012D02*
X389Y1012D01*
X420Y1012D02*
X489Y1012D01*
X520Y1012D02*
X589Y1012D01*
X320Y1011D02*
X389Y1011D01*
X420Y1011D02*
X489Y1011D01*
X520Y1011D02*
X589Y1011D01*
X320Y1010D02*
X389Y1010D01*
X420Y1010D02*
X489Y1010D01*
X520Y1010D02*
X589Y1010D01*
X320Y1009D02*
X352Y1009D01*
X357Y1009D02*
X389Y1009D01*
X420Y1009D02*
X452Y1009D01*
X457Y1009D02*
X489Y1009D01*
X520Y1009D02*
X552Y1009D01*
X557Y1009D02*
X589Y1009D01*
X320Y1008D02*
X348Y1008D01*
X361Y1008D02*
X389Y1008D01*
X420Y1008D02*
X448Y1008D01*
X461Y1008D02*
X489Y1008D01*
X520Y1008D02*
X548Y1008D01*
X561Y1008D02*
X589Y1008D01*
X320Y1007D02*
X346Y1007D01*
X363Y1007D02*
X389Y1007D01*
X420Y1007D02*
X446Y1007D01*
X463Y1007D02*
X489Y1007D01*
X520Y1007D02*
X546Y1007D01*
X563Y1007D02*
X589Y1007D01*
X320Y1006D02*
X345Y1006D01*
X364Y1006D02*
X389Y1006D01*
X420Y1006D02*
X445Y1006D01*
X464Y1006D02*
X489Y1006D01*
X520Y1006D02*
X545Y1006D01*
X564Y1006D02*
X589Y1006D01*
X320Y1005D02*
X344Y1005D01*
X365Y1005D02*
X389Y1005D01*
X420Y1005D02*
X444Y1005D01*
X465Y1005D02*
X489Y1005D01*
X520Y1005D02*
X544Y1005D01*
X565Y1005D02*
X589Y1005D01*
X320Y1004D02*
X343Y1004D01*
X366Y1004D02*
X389Y1004D01*
X420Y1004D02*
X443Y1004D01*
X466Y1004D02*
X489Y1004D01*
X520Y1004D02*
X543Y1004D01*
X566Y1004D02*
X589Y1004D01*
X320Y1003D02*
X342Y1003D01*
X367Y1003D02*
X389Y1003D01*
X420Y1003D02*
X442Y1003D01*
X467Y1003D02*
X489Y1003D01*
X520Y1003D02*
X542Y1003D01*
X567Y1003D02*
X589Y1003D01*
X320Y1002D02*
X341Y1002D01*
X368Y1002D02*
X389Y1002D01*
X420Y1002D02*
X441Y1002D01*
X468Y1002D02*
X489Y1002D01*
X520Y1002D02*
X541Y1002D01*
X568Y1002D02*
X589Y1002D01*
X320Y1001D02*
X341Y1001D01*
X368Y1001D02*
X389Y1001D01*
X420Y1001D02*
X441Y1001D01*
X468Y1001D02*
X489Y1001D01*
X520Y1001D02*
X541Y1001D01*
X568Y1001D02*
X589Y1001D01*
X320Y1000D02*
X340Y1000D01*
X369Y1000D02*
X389Y1000D01*
X420Y1000D02*
X440Y1000D01*
X469Y1000D02*
X489Y1000D01*
X520Y1000D02*
X540Y1000D01*
X569Y1000D02*
X589Y1000D01*
X320Y999D02*
X340Y999D01*
X369Y999D02*
X389Y999D01*
X420Y999D02*
X440Y999D01*
X469Y999D02*
X489Y999D01*
X520Y999D02*
X540Y999D01*
X569Y999D02*
X589Y999D01*
X320Y998D02*
X339Y998D01*
X369Y998D02*
X389Y998D01*
X420Y998D02*
X439Y998D01*
X469Y998D02*
X489Y998D01*
X520Y998D02*
X539Y998D01*
X569Y998D02*
X589Y998D01*
X320Y997D02*
X339Y997D01*
X370Y997D02*
X389Y997D01*
X420Y997D02*
X439Y997D01*
X470Y997D02*
X489Y997D01*
X520Y997D02*
X539Y997D01*
X570Y997D02*
X589Y997D01*
X320Y996D02*
X339Y996D01*
X370Y996D02*
X389Y996D01*
X420Y996D02*
X439Y996D01*
X470Y996D02*
X489Y996D01*
X520Y996D02*
X539Y996D01*
X570Y996D02*
X589Y996D01*
X320Y995D02*
X339Y995D01*
X370Y995D02*
X389Y995D01*
X420Y995D02*
X439Y995D01*
X470Y995D02*
X489Y995D01*
X520Y995D02*
X539Y995D01*
X570Y995D02*
X589Y995D01*
X320Y994D02*
X339Y994D01*
X370Y994D02*
X389Y994D01*
X420Y994D02*
X439Y994D01*
X470Y994D02*
X489Y994D01*
X520Y994D02*
X539Y994D01*
X570Y994D02*
X589Y994D01*
X320Y993D02*
X339Y993D01*
X370Y993D02*
X389Y993D01*
X420Y993D02*
X439Y993D01*
X470Y993D02*
X489Y993D01*
X520Y993D02*
X539Y993D01*
X570Y993D02*
X589Y993D01*
X320Y992D02*
X339Y992D01*
X370Y992D02*
X389Y992D01*
X420Y992D02*
X439Y992D01*
X470Y992D02*
X489Y992D01*
X520Y992D02*
X539Y992D01*
X570Y992D02*
X589Y992D01*
X320Y991D02*
X339Y991D01*
X370Y991D02*
X389Y991D01*
X420Y991D02*
X439Y991D01*
X470Y991D02*
X489Y991D01*
X520Y991D02*
X539Y991D01*
X570Y991D02*
X589Y991D01*
X320Y990D02*
X340Y990D01*
X369Y990D02*
X389Y990D01*
X420Y990D02*
X440Y990D01*
X469Y990D02*
X489Y990D01*
X520Y990D02*
X540Y990D01*
X569Y990D02*
X589Y990D01*
X320Y989D02*
X340Y989D01*
X369Y989D02*
X389Y989D01*
X420Y989D02*
X440Y989D01*
X469Y989D02*
X489Y989D01*
X520Y989D02*
X540Y989D01*
X569Y989D02*
X589Y989D01*
X320Y988D02*
X340Y988D01*
X369Y988D02*
X389Y988D01*
X420Y988D02*
X440Y988D01*
X469Y988D02*
X489Y988D01*
X520Y988D02*
X540Y988D01*
X569Y988D02*
X589Y988D01*
X320Y987D02*
X341Y987D01*
X368Y987D02*
X389Y987D01*
X420Y987D02*
X441Y987D01*
X468Y987D02*
X489Y987D01*
X520Y987D02*
X541Y987D01*
X568Y987D02*
X589Y987D01*
X320Y986D02*
X341Y986D01*
X368Y986D02*
X389Y986D01*
X420Y986D02*
X441Y986D01*
X468Y986D02*
X489Y986D01*
X520Y986D02*
X541Y986D01*
X568Y986D02*
X589Y986D01*
X320Y985D02*
X342Y985D01*
X367Y985D02*
X389Y985D01*
X420Y985D02*
X442Y985D01*
X467Y985D02*
X489Y985D01*
X520Y985D02*
X542Y985D01*
X567Y985D02*
X589Y985D01*
X320Y984D02*
X343Y984D01*
X366Y984D02*
X389Y984D01*
X420Y984D02*
X443Y984D01*
X466Y984D02*
X489Y984D01*
X520Y984D02*
X543Y984D01*
X566Y984D02*
X589Y984D01*
X320Y983D02*
X344Y983D01*
X365Y983D02*
X389Y983D01*
X420Y983D02*
X444Y983D01*
X465Y983D02*
X489Y983D01*
X520Y983D02*
X544Y983D01*
X565Y983D02*
X589Y983D01*
X320Y982D02*
X345Y982D01*
X364Y982D02*
X389Y982D01*
X420Y982D02*
X445Y982D01*
X464Y982D02*
X489Y982D01*
X520Y982D02*
X545Y982D01*
X564Y982D02*
X589Y982D01*
X320Y981D02*
X347Y981D01*
X362Y981D02*
X389Y981D01*
X420Y981D02*
X447Y981D01*
X462Y981D02*
X489Y981D01*
X520Y981D02*
X547Y981D01*
X562Y981D02*
X589Y981D01*
X320Y980D02*
X349Y980D01*
X360Y980D02*
X389Y980D01*
X420Y980D02*
X449Y980D01*
X460Y980D02*
X489Y980D01*
X520Y980D02*
X549Y980D01*
X560Y980D02*
X589Y980D01*
X320Y979D02*
X389Y979D01*
X420Y979D02*
X489Y979D01*
X520Y979D02*
X589Y979D01*
X320Y978D02*
X389Y978D01*
X420Y978D02*
X489Y978D01*
X520Y978D02*
X589Y978D01*
X320Y977D02*
X389Y977D01*
X420Y977D02*
X489Y977D01*
X520Y977D02*
X589Y977D01*
X320Y976D02*
X389Y976D01*
X420Y976D02*
X489Y976D01*
X520Y976D02*
X589Y976D01*
X320Y975D02*
X389Y975D01*
X420Y975D02*
X489Y975D01*
X520Y975D02*
X589Y975D01*
X320Y974D02*
X389Y974D01*
X420Y974D02*
X489Y974D01*
X520Y974D02*
X589Y974D01*
X320Y973D02*
X389Y973D01*
X420Y973D02*
X489Y973D01*
X520Y973D02*
X589Y973D01*
X320Y972D02*
X389Y972D01*
X420Y972D02*
X489Y972D01*
X520Y972D02*
X589Y972D01*
X320Y971D02*
X389Y971D01*
X420Y971D02*
X489Y971D01*
X520Y971D02*
X589Y971D01*
X320Y970D02*
X389Y970D01*
X420Y970D02*
X489Y970D01*
X520Y970D02*
X589Y970D01*
X320Y969D02*
X389Y969D01*
X420Y969D02*
X489Y969D01*
X520Y969D02*
X589Y969D01*
X320Y968D02*
X389Y968D01*
X420Y968D02*
X489Y968D01*
X520Y968D02*
X589Y968D01*
X320Y967D02*
X389Y967D01*
X420Y967D02*
X489Y967D01*
X520Y967D02*
X589Y967D01*
X320Y966D02*
X389Y966D01*
X420Y966D02*
X489Y966D01*
X520Y966D02*
X589Y966D01*
X320Y965D02*
X389Y965D01*
X420Y965D02*
X489Y965D01*
X520Y965D02*
X589Y965D01*
X320Y964D02*
X389Y964D01*
X420Y964D02*
X489Y964D01*
X520Y964D02*
X589Y964D01*
X320Y963D02*
X389Y963D01*
X420Y963D02*
X489Y963D01*
X520Y963D02*
X589Y963D01*
X320Y962D02*
X389Y962D01*
X420Y962D02*
X489Y962D01*
X520Y962D02*
X589Y962D01*
X320Y961D02*
X389Y961D01*
X420Y961D02*
X489Y961D01*
X520Y961D02*
X589Y961D01*
X320Y960D02*
X389Y960D01*
X420Y960D02*
X489Y960D01*
X520Y960D02*
X589Y960D01*
X320Y959D02*
X389Y959D01*
X420Y959D02*
X488Y959D01*
X520Y959D02*
X588Y959D01*
X321Y958D02*
X388Y958D01*
X421Y958D02*
X488Y958D01*
X521Y958D02*
X588Y958D01*
X321Y957D02*
X388Y957D01*
X421Y957D02*
X488Y957D01*
X521Y957D02*
X588Y957D01*
X321Y956D02*
X388Y956D01*
X421Y956D02*
X488Y956D01*
X521Y956D02*
X588Y956D01*
X321Y955D02*
X388Y955D01*
X421Y955D02*
X488Y955D01*
X521Y955D02*
X588Y955D01*
X322Y954D02*
X387Y954D01*
X422Y954D02*
X487Y954D01*
X522Y954D02*
X587Y954D01*
X322Y953D02*
X387Y953D01*
X422Y953D02*
X487Y953D01*
X522Y953D02*
X587Y953D01*
X322Y952D02*
X387Y952D01*
X422Y952D02*
X487Y952D01*
X522Y952D02*
X587Y952D01*
X323Y951D02*
X386Y951D01*
X423Y951D02*
X486Y951D01*
X523Y951D02*
X586Y951D01*
X323Y950D02*
X386Y950D01*
X423Y950D02*
X486Y950D01*
X523Y950D02*
X586Y950D01*
X324Y949D02*
X385Y949D01*
X424Y949D02*
X485Y949D01*
X524Y949D02*
X585Y949D01*
X324Y948D02*
X385Y948D01*
X424Y948D02*
X485Y948D01*
X524Y948D02*
X585Y948D01*
X325Y947D02*
X384Y947D01*
X425Y947D02*
X484Y947D01*
X525Y947D02*
X584Y947D01*
X325Y946D02*
X384Y946D01*
X425Y946D02*
X484Y946D01*
X525Y946D02*
X584Y946D01*
X326Y945D02*
X383Y945D01*
X426Y945D02*
X483Y945D01*
X526Y945D02*
X583Y945D01*
X326Y944D02*
X382Y944D01*
X426Y944D02*
X482Y944D01*
X526Y944D02*
X582Y944D01*
X327Y943D02*
X382Y943D01*
X427Y943D02*
X482Y943D01*
X527Y943D02*
X582Y943D01*
X328Y942D02*
X381Y942D01*
X428Y942D02*
X481Y942D01*
X528Y942D02*
X581Y942D01*
X329Y941D02*
X380Y941D01*
X429Y941D02*
X480Y941D01*
X529Y941D02*
X580Y941D01*
X330Y940D02*
X379Y940D01*
X430Y940D02*
X479Y940D01*
X530Y940D02*
X579Y940D01*
X331Y939D02*
X378Y939D01*
X431Y939D02*
X478Y939D01*
X531Y939D02*
X578Y939D01*
X332Y938D02*
X377Y938D01*
X432Y938D02*
X477Y938D01*
X532Y938D02*
X577Y938D01*
X333Y937D02*
X376Y937D01*
X433Y937D02*
X476Y937D01*
X533Y937D02*
X576Y937D01*
X334Y936D02*
X375Y936D01*
X434Y936D02*
X475Y936D01*
X534Y936D02*
X575Y936D01*
X336Y935D02*
X373Y935D01*
X436Y935D02*
X473Y935D01*
X536Y935D02*
X573Y935D01*
X338Y934D02*
X371Y934D01*
X437Y934D02*
X471Y934D01*
X537Y934D02*
X571Y934D01*
X339Y933D02*
X370Y933D01*
X439Y933D02*
X470Y933D01*
X539Y933D02*
X570Y933D01*
X342Y932D02*
X367Y932D01*
X442Y932D02*
X467Y932D01*
X542Y932D02*
X567Y932D01*
X344Y931D02*
X365Y931D01*
X444Y931D02*
X465Y931D01*
X544Y931D02*
X565Y931D01*
X348Y930D02*
X361Y930D01*
X448Y930D02*
X461Y930D01*
X548Y930D02*
X561Y930D01*
D02*
G04 End of Mask1*
M02*