G04 MADE WITH FRITZING*
G04 WWW.FRITZING.ORG*
G04 DOUBLE SIDED*
G04 HOLES PLATED*
G04 CONTOUR ON CENTER OF CONTOUR VECTOR*
%ASAXBY*%
%FSLAX23Y23*%
%MOIN*%
%OFA0B0*%
%SFA1.0B1.0*%
%ADD10C,0.078000*%
%ADD11C,0.074000*%
%ADD12C,0.039370*%
%ADD13C,0.070925*%
%ADD14C,0.070866*%
%ADD15C,0.070000*%
%ADD16C,0.082000*%
%ADD17C,0.083307*%
%ADD18C,0.075000*%
%ADD19C,0.060000*%
%ADD20C,0.080000*%
%ADD21R,0.082000X0.082000*%
%ADD22R,0.075000X0.075000*%
%ADD23R,0.000150X0.000150*%
%ADD24C,0.024000*%
%ADD25C,0.016000*%
%ADD26C,0.020000*%
%ADD27R,0.001000X0.001000*%
%LNCOPPER1*%
G90*
G70*
G54D10*
X1815Y580D03*
X1815Y480D03*
X1815Y380D03*
G54D11*
X4177Y533D03*
X4277Y533D03*
X4177Y433D03*
X4277Y433D03*
X4177Y333D03*
X4277Y333D03*
X4177Y233D03*
X4277Y233D03*
X4177Y133D03*
X4277Y133D03*
X4177Y533D03*
X4277Y533D03*
X4177Y433D03*
X4277Y433D03*
X4177Y333D03*
X4277Y333D03*
X4177Y233D03*
X4277Y233D03*
X4177Y133D03*
X4277Y133D03*
G54D12*
X3838Y1049D03*
X4004Y1045D03*
X2209Y451D03*
X2957Y234D03*
G54D13*
X2917Y1041D03*
G54D14*
X2917Y1234D03*
G54D15*
X3013Y880D03*
X2913Y880D03*
X2964Y1415D03*
X2864Y1415D03*
G54D12*
X4047Y966D03*
X4047Y1148D03*
X3921Y1435D03*
X4047Y903D03*
X3883Y1377D03*
X3292Y864D03*
X3488Y864D03*
X3192Y215D03*
X3744Y215D03*
X3744Y76D03*
X3634Y588D03*
X3634Y510D03*
X4058Y608D03*
X4058Y353D03*
X1598Y1277D03*
X1008Y982D03*
X870Y844D03*
X673Y844D03*
X3587Y825D03*
X2661Y1435D03*
X2661Y714D03*
X2996Y608D03*
X3390Y785D03*
X2823Y821D03*
X3291Y136D03*
X3587Y175D03*
X1677Y648D03*
X1677Y529D03*
X1598Y529D03*
X3890Y1100D03*
X2937Y470D03*
X1913Y667D03*
X2602Y805D03*
X1598Y372D03*
X4047Y1321D03*
G54D15*
X2935Y549D03*
X3035Y549D03*
X3063Y1041D03*
X3063Y1141D03*
G54D16*
X709Y474D03*
X709Y174D03*
G54D10*
X1424Y116D03*
X1324Y116D03*
X1224Y116D03*
X1124Y116D03*
G54D17*
X2322Y301D03*
X2222Y301D03*
X2122Y301D03*
G54D10*
X2857Y116D03*
X2957Y116D03*
X1972Y492D03*
X1972Y392D03*
G54D18*
X1789Y923D03*
X2189Y923D03*
X890Y1079D03*
X890Y679D03*
G54D11*
X4177Y1438D03*
X4277Y1438D03*
X4177Y1338D03*
X4277Y1338D03*
X4177Y1238D03*
X4277Y1238D03*
X4177Y1138D03*
X4277Y1138D03*
X4177Y1038D03*
X4277Y1038D03*
X4177Y1438D03*
X4277Y1438D03*
X4177Y1338D03*
X4277Y1338D03*
X4177Y1238D03*
X4277Y1238D03*
X4177Y1138D03*
X4277Y1138D03*
X4177Y1038D03*
X4277Y1038D03*
G54D10*
X1772Y116D03*
X1872Y116D03*
X1972Y116D03*
X2072Y116D03*
G54D18*
X2758Y111D03*
X2758Y211D03*
X2758Y311D03*
X2758Y411D03*
X2758Y511D03*
X2758Y611D03*
X2758Y711D03*
X2758Y811D03*
X2758Y911D03*
X2758Y1011D03*
X2758Y1111D03*
X2758Y1211D03*
X2758Y1311D03*
X2425Y1411D03*
X2425Y1311D03*
X2425Y1211D03*
X2425Y1111D03*
X2425Y1011D03*
X2425Y911D03*
X2425Y811D03*
X2425Y711D03*
X2425Y611D03*
X2425Y511D03*
X2425Y411D03*
X2425Y311D03*
X2425Y211D03*
X2425Y111D03*
X2758Y1411D03*
X2758Y111D03*
X2758Y211D03*
X2758Y311D03*
X2758Y411D03*
X2758Y511D03*
X2758Y611D03*
X2758Y711D03*
X2758Y811D03*
X2758Y911D03*
X2758Y1011D03*
X2758Y1111D03*
X2758Y1211D03*
X2758Y1311D03*
X2425Y1411D03*
X2425Y1311D03*
X2425Y1211D03*
X2425Y1111D03*
X2425Y1011D03*
X2425Y911D03*
X2425Y811D03*
X2425Y711D03*
X2425Y611D03*
X2425Y511D03*
X2425Y411D03*
X2425Y311D03*
X2425Y211D03*
X2425Y111D03*
X2758Y1411D03*
G54D11*
X870Y1488D03*
X870Y1388D03*
X870Y1288D03*
X870Y1488D03*
X870Y1388D03*
X870Y1288D03*
G54D18*
X1500Y781D03*
X1200Y781D03*
X1500Y881D03*
X1200Y881D03*
X1500Y981D03*
X1200Y981D03*
X1500Y1081D03*
X1200Y1081D03*
X1500Y1181D03*
X1200Y1181D03*
X1500Y1281D03*
X1200Y1281D03*
X1500Y1381D03*
X1200Y1381D03*
X1500Y1481D03*
X1200Y1481D03*
G54D15*
X299Y1356D03*
X99Y1356D03*
X199Y1156D03*
G54D18*
X3187Y352D03*
X3187Y652D03*
X3287Y352D03*
X3287Y652D03*
X3387Y352D03*
X3387Y652D03*
X3487Y352D03*
X3487Y652D03*
X3587Y352D03*
X3587Y652D03*
X3687Y352D03*
X3687Y652D03*
X3787Y352D03*
X3787Y652D03*
X3887Y352D03*
X3887Y652D03*
X3187Y982D03*
X3187Y1282D03*
X3287Y982D03*
X3287Y1282D03*
X3387Y982D03*
X3387Y1282D03*
X3487Y982D03*
X3487Y1282D03*
X3587Y982D03*
X3587Y1282D03*
X3687Y982D03*
X3687Y1282D03*
X3787Y982D03*
X3787Y1282D03*
X3887Y982D03*
X3887Y1282D03*
G54D16*
X685Y1490D03*
X387Y1490D03*
G54D19*
X555Y994D03*
X455Y994D03*
X355Y994D03*
X555Y994D03*
X455Y994D03*
X355Y994D03*
G54D18*
X421Y1238D03*
X521Y1238D03*
G54D15*
X673Y1279D03*
X673Y1179D03*
G54D18*
X1126Y674D03*
X1126Y274D03*
X1224Y674D03*
X1224Y274D03*
X1323Y674D03*
X1323Y274D03*
X1421Y674D03*
X1421Y274D03*
X2209Y1159D03*
X1809Y1159D03*
X2209Y1258D03*
X1809Y1258D03*
X2209Y1376D03*
X1809Y1376D03*
X2209Y1474D03*
X1809Y1474D03*
G54D20*
X114Y1059D03*
X114Y659D03*
G54D18*
X752Y1079D03*
X752Y679D03*
G54D15*
X398Y691D03*
X498Y691D03*
G54D16*
X291Y455D03*
X291Y753D03*
G54D20*
X2189Y805D03*
X1789Y805D03*
G54D15*
X2309Y707D03*
X2209Y707D03*
X2878Y665D03*
X2878Y766D03*
G54D18*
X1598Y667D03*
X1598Y267D03*
G54D15*
X3035Y344D03*
X2935Y344D03*
G54D18*
X193Y455D03*
X193Y55D03*
G54D12*
X118Y529D03*
G54D11*
X79Y140D03*
X79Y240D03*
X79Y340D03*
X79Y140D03*
X79Y240D03*
X79Y340D03*
G54D21*
X709Y474D03*
G54D22*
X1500Y781D03*
G54D23*
X1200Y1080D03*
X1199Y1181D03*
X3486Y652D03*
G54D22*
X3187Y982D03*
G54D23*
X3486Y1282D03*
G54D21*
X686Y1490D03*
G54D22*
X421Y1238D03*
G54D21*
X291Y454D03*
G54D24*
X1890Y478D02*
X1845Y479D01*
G54D25*
D02*
X4336Y1139D02*
X4303Y1138D01*
D02*
X4276Y966D02*
X4277Y1013D01*
D02*
X4130Y1045D02*
X4017Y1045D01*
D02*
X4152Y1042D02*
X4130Y1045D01*
D02*
X4303Y333D02*
X4334Y333D01*
D02*
X4152Y233D02*
X4019Y234D01*
D02*
X4152Y432D02*
X4098Y430D01*
D02*
X4303Y233D02*
X4335Y234D01*
D02*
X4152Y133D02*
X3305Y136D01*
D02*
X2911Y1255D02*
X2870Y1396D01*
D02*
X3058Y1309D02*
X2978Y1400D01*
D02*
X3057Y1206D02*
X3058Y1309D01*
D02*
X2965Y1510D02*
X2965Y1436D01*
D02*
X3012Y951D02*
X3013Y900D01*
D02*
X2854Y951D02*
X3012Y951D01*
D02*
X2858Y825D02*
X2854Y951D01*
D02*
X2209Y464D02*
X2209Y686D01*
D02*
X2122Y328D02*
X2122Y392D01*
D02*
X2122Y392D02*
X1997Y392D01*
D02*
X2871Y785D02*
X2858Y825D01*
D02*
X3057Y1206D02*
X3061Y1162D01*
D02*
X3586Y1259D02*
X3586Y1207D01*
D02*
X3586Y1207D02*
X3057Y1206D01*
D02*
X2957Y141D02*
X2957Y221D01*
D02*
X2956Y38D02*
X1598Y41D01*
D02*
X1598Y41D02*
X1598Y244D01*
D02*
X2957Y91D02*
X2956Y38D01*
D02*
X2937Y667D02*
X2935Y570D01*
D02*
X2898Y666D02*
X2937Y667D01*
D02*
X4334Y903D02*
X4061Y903D01*
D02*
X4336Y1139D02*
X4334Y903D01*
D02*
X4152Y1438D02*
X3934Y1436D01*
D02*
X3730Y215D02*
X3206Y215D01*
D02*
X4335Y76D02*
X3757Y76D01*
D02*
X4335Y234D02*
X4335Y76D01*
D02*
X4334Y333D02*
X4334Y785D01*
D02*
X4334Y785D02*
X3684Y785D01*
D02*
X3684Y785D02*
X3686Y675D01*
D02*
X3475Y864D02*
X3305Y864D01*
D02*
X4058Y595D02*
X4058Y366D01*
D02*
X4019Y234D02*
X4019Y589D01*
D02*
X4019Y589D02*
X3834Y592D01*
D02*
X3834Y592D02*
X3801Y634D01*
D02*
X4098Y430D02*
X4098Y648D01*
D02*
X4098Y648D02*
X3910Y652D01*
D02*
X3634Y523D02*
X3634Y575D01*
D02*
X2780Y1310D02*
X2819Y1309D01*
D02*
X1383Y1376D02*
X1482Y1295D01*
D02*
X1483Y1465D02*
X1383Y1376D01*
D02*
X1598Y884D02*
X1516Y797D01*
D02*
X1598Y1264D02*
X1598Y884D01*
D02*
X1177Y981D02*
X1021Y982D01*
D02*
X857Y844D02*
X687Y844D01*
D02*
X3186Y1005D02*
X3185Y1100D01*
D02*
X3185Y1100D02*
X3876Y1100D01*
D02*
X3075Y983D02*
X3075Y825D01*
D02*
X3067Y1021D02*
X3075Y983D01*
D02*
X3075Y825D02*
X3573Y825D01*
D02*
X2661Y1422D02*
X2661Y728D01*
D02*
X2937Y824D02*
X3075Y825D01*
D02*
X2937Y667D02*
X2937Y824D01*
D02*
X2935Y570D02*
X2937Y667D01*
D02*
X2996Y785D02*
X3376Y785D01*
D02*
X2996Y622D02*
X2996Y785D01*
D02*
X2819Y1309D02*
X2823Y834D01*
D02*
X4373Y825D02*
X3600Y825D01*
D02*
X3154Y177D02*
X3153Y38D01*
D02*
X3153Y38D02*
X4378Y34D01*
D02*
X4378Y34D02*
X4373Y825D01*
D02*
X3154Y177D02*
X3573Y175D01*
D02*
X1402Y984D02*
X1484Y897D01*
D02*
X1483Y1064D02*
X1402Y984D01*
D02*
X1402Y1181D02*
X1484Y1097D01*
D02*
X1484Y1264D02*
X1402Y1181D01*
D02*
X1677Y634D02*
X1677Y543D01*
D02*
X1598Y644D02*
X1598Y543D01*
D02*
X674Y1389D02*
X845Y1388D01*
D02*
X674Y1357D02*
X674Y1389D01*
D02*
X673Y1300D02*
X674Y1357D01*
D02*
X422Y1356D02*
X674Y1357D01*
D02*
X421Y1261D02*
X422Y1356D01*
D02*
X729Y680D02*
X518Y690D01*
G54D24*
D02*
X313Y1378D02*
X369Y1463D01*
G54D25*
D02*
X292Y785D02*
X291Y779D01*
D02*
X456Y786D02*
X292Y785D01*
D02*
X455Y968D02*
X456Y786D01*
D02*
X456Y1081D02*
X455Y1020D01*
D02*
X729Y1079D02*
X456Y1081D01*
D02*
X456Y1081D02*
X455Y1020D01*
D02*
X184Y1080D02*
X456Y1081D01*
D02*
X139Y1067D02*
X184Y1080D01*
D02*
X3487Y1493D02*
X3487Y1305D01*
D02*
X4335Y1497D02*
X3487Y1493D01*
D02*
X4334Y1340D02*
X4335Y1497D01*
D02*
X4303Y1339D02*
X4334Y1340D01*
D02*
X2853Y274D02*
X3385Y273D01*
D02*
X2780Y211D02*
X2853Y211D01*
D02*
X3385Y273D02*
X3386Y329D01*
D02*
X1223Y881D02*
X1420Y880D01*
D02*
X1717Y1159D02*
X1786Y1159D01*
D02*
X1717Y1376D02*
X1717Y1159D01*
D02*
X1523Y1380D02*
X1717Y1376D01*
D02*
X3825Y1049D02*
X3323Y1049D01*
D02*
X3961Y1096D02*
X3961Y904D01*
D02*
X4102Y1097D02*
X3961Y1096D01*
D02*
X4155Y1126D02*
X4102Y1097D01*
D02*
X3323Y1049D02*
X3297Y1002D01*
D02*
X3121Y1159D02*
X3787Y1159D01*
D02*
X3126Y904D02*
X3121Y1159D01*
D02*
X3961Y904D02*
X3126Y904D01*
D02*
X3787Y1159D02*
X3787Y1259D01*
D02*
X4152Y1238D02*
X4099Y1237D01*
D02*
X4099Y1377D02*
X3896Y1377D01*
D02*
X4099Y1237D02*
X4099Y1377D01*
D02*
X2780Y511D02*
X2878Y510D01*
D02*
X3429Y411D02*
X3470Y369D01*
D02*
X2878Y412D02*
X3429Y411D01*
D02*
X2878Y510D02*
X2878Y412D01*
D02*
X2950Y470D02*
X3783Y471D01*
D02*
X948Y844D02*
X1109Y690D01*
D02*
X1182Y1466D02*
X948Y1278D01*
D02*
X948Y1278D02*
X948Y844D01*
D02*
X3783Y471D02*
X3786Y375D01*
D02*
X2365Y412D02*
X2365Y924D01*
D02*
X2365Y924D02*
X2212Y923D01*
D02*
X2403Y412D02*
X2365Y412D01*
D02*
X2051Y576D02*
X2048Y924D01*
D02*
X1893Y576D02*
X2051Y576D01*
D02*
X2048Y924D02*
X2166Y923D01*
D02*
X1890Y478D02*
X1893Y576D01*
D02*
X2327Y1002D02*
X1678Y1001D01*
D02*
X2326Y1211D02*
X2327Y1002D01*
D02*
X2403Y1211D02*
X2326Y1211D01*
D02*
X1678Y1001D02*
X1678Y845D01*
D02*
X902Y762D02*
X555Y765D01*
D02*
X555Y765D02*
X555Y968D01*
D02*
X1082Y589D02*
X902Y762D01*
D02*
X1422Y589D02*
X1082Y589D01*
D02*
X1678Y845D02*
X1422Y589D01*
D02*
X1736Y668D02*
X1736Y450D01*
D02*
X1900Y667D02*
X1736Y668D01*
D02*
X295Y384D02*
X293Y428D01*
D02*
X708Y380D02*
X295Y384D01*
D02*
X709Y201D02*
X708Y380D01*
D02*
X1736Y450D02*
X891Y450D01*
D02*
X889Y58D02*
X216Y55D01*
D02*
X891Y450D02*
X889Y58D01*
D02*
X1972Y416D02*
X1972Y467D01*
D02*
X2605Y1510D02*
X2602Y818D01*
D02*
X3094Y510D02*
X3052Y538D01*
D02*
X3587Y510D02*
X3094Y510D01*
D02*
X3587Y629D02*
X3587Y510D01*
D02*
X2965Y1510D02*
X2605Y1510D01*
D02*
X1768Y790D02*
X1617Y681D01*
D02*
X1789Y900D02*
X1789Y831D01*
D02*
X1677Y216D02*
X1677Y297D01*
D02*
X1677Y297D02*
X1608Y363D01*
D02*
X1870Y214D02*
X1677Y216D01*
D02*
X1872Y141D02*
X1870Y214D01*
D02*
X1997Y392D02*
X2306Y393D01*
D02*
X2306Y393D02*
X2309Y686D01*
D02*
X1501Y1552D02*
X947Y1553D01*
D02*
X949Y1391D02*
X895Y1389D01*
D02*
X947Y1553D02*
X949Y1391D01*
D02*
X1500Y1504D02*
X1501Y1552D01*
D02*
X4047Y1161D02*
X4047Y1307D01*
D02*
X4276Y966D02*
X4061Y966D01*
D02*
X2853Y211D02*
X2853Y274D01*
D02*
X1420Y880D02*
X1421Y697D01*
G54D24*
D02*
X354Y920D02*
X355Y963D01*
D02*
X48Y1156D02*
X48Y920D01*
D02*
X48Y920D02*
X354Y920D01*
D02*
X173Y1156D02*
X48Y1156D01*
G54D26*
X3159Y380D02*
X3214Y380D01*
X3214Y325D01*
X3159Y325D01*
X3159Y380D01*
D02*
G54D27*
X833Y1524D02*
X906Y1524D01*
X833Y1523D02*
X906Y1523D01*
X833Y1522D02*
X906Y1522D01*
X833Y1521D02*
X906Y1521D01*
X833Y1520D02*
X906Y1520D01*
X833Y1519D02*
X906Y1519D01*
X833Y1518D02*
X906Y1518D01*
X833Y1517D02*
X906Y1517D01*
X833Y1516D02*
X906Y1516D01*
X833Y1515D02*
X906Y1515D01*
X833Y1514D02*
X906Y1514D01*
X833Y1513D02*
X906Y1513D01*
X833Y1512D02*
X906Y1512D01*
X833Y1511D02*
X906Y1511D01*
X833Y1510D02*
X906Y1510D01*
X833Y1509D02*
X906Y1509D01*
X833Y1508D02*
X906Y1508D01*
X833Y1507D02*
X865Y1507D01*
X874Y1507D02*
X906Y1507D01*
X833Y1506D02*
X862Y1506D01*
X877Y1506D02*
X906Y1506D01*
X833Y1505D02*
X860Y1505D01*
X879Y1505D02*
X906Y1505D01*
X833Y1504D02*
X858Y1504D01*
X881Y1504D02*
X906Y1504D01*
X833Y1503D02*
X857Y1503D01*
X882Y1503D02*
X906Y1503D01*
X833Y1502D02*
X855Y1502D01*
X883Y1502D02*
X906Y1502D01*
X833Y1501D02*
X854Y1501D01*
X884Y1501D02*
X906Y1501D01*
X833Y1500D02*
X854Y1500D01*
X885Y1500D02*
X906Y1500D01*
X833Y1499D02*
X853Y1499D01*
X886Y1499D02*
X906Y1499D01*
X833Y1498D02*
X852Y1498D01*
X887Y1498D02*
X906Y1498D01*
X833Y1497D02*
X852Y1497D01*
X887Y1497D02*
X906Y1497D01*
X833Y1496D02*
X851Y1496D01*
X888Y1496D02*
X906Y1496D01*
X833Y1495D02*
X851Y1495D01*
X888Y1495D02*
X906Y1495D01*
X833Y1494D02*
X850Y1494D01*
X888Y1494D02*
X906Y1494D01*
X833Y1493D02*
X850Y1493D01*
X889Y1493D02*
X906Y1493D01*
X833Y1492D02*
X850Y1492D01*
X889Y1492D02*
X906Y1492D01*
X833Y1491D02*
X850Y1491D01*
X889Y1491D02*
X906Y1491D01*
X833Y1490D02*
X849Y1490D01*
X889Y1490D02*
X906Y1490D01*
X833Y1489D02*
X849Y1489D01*
X889Y1489D02*
X906Y1489D01*
X833Y1488D02*
X849Y1488D01*
X890Y1488D02*
X906Y1488D01*
X833Y1487D02*
X849Y1487D01*
X889Y1487D02*
X906Y1487D01*
X833Y1486D02*
X849Y1486D01*
X889Y1486D02*
X906Y1486D01*
X833Y1485D02*
X849Y1485D01*
X889Y1485D02*
X906Y1485D01*
X833Y1484D02*
X850Y1484D01*
X889Y1484D02*
X906Y1484D01*
X833Y1483D02*
X850Y1483D01*
X889Y1483D02*
X906Y1483D01*
X833Y1482D02*
X850Y1482D01*
X889Y1482D02*
X906Y1482D01*
X833Y1481D02*
X850Y1481D01*
X888Y1481D02*
X906Y1481D01*
X833Y1480D02*
X851Y1480D01*
X888Y1480D02*
X906Y1480D01*
X833Y1479D02*
X851Y1479D01*
X887Y1479D02*
X906Y1479D01*
X833Y1478D02*
X852Y1478D01*
X887Y1478D02*
X906Y1478D01*
X833Y1477D02*
X852Y1477D01*
X886Y1477D02*
X906Y1477D01*
X833Y1476D02*
X853Y1476D01*
X886Y1476D02*
X906Y1476D01*
X833Y1475D02*
X854Y1475D01*
X885Y1475D02*
X906Y1475D01*
X833Y1474D02*
X855Y1474D01*
X884Y1474D02*
X906Y1474D01*
X833Y1473D02*
X856Y1473D01*
X883Y1473D02*
X906Y1473D01*
X833Y1472D02*
X857Y1472D01*
X882Y1472D02*
X906Y1472D01*
X833Y1471D02*
X859Y1471D01*
X880Y1471D02*
X906Y1471D01*
X833Y1470D02*
X861Y1470D01*
X878Y1470D02*
X906Y1470D01*
X833Y1469D02*
X863Y1469D01*
X876Y1469D02*
X906Y1469D01*
X833Y1468D02*
X906Y1468D01*
X833Y1467D02*
X906Y1467D01*
X833Y1466D02*
X906Y1466D01*
X833Y1465D02*
X906Y1465D01*
X833Y1464D02*
X906Y1464D01*
X833Y1463D02*
X906Y1463D01*
X833Y1462D02*
X906Y1462D01*
X833Y1461D02*
X906Y1461D01*
X833Y1460D02*
X906Y1460D01*
X833Y1459D02*
X906Y1459D01*
X833Y1458D02*
X906Y1458D01*
X833Y1457D02*
X906Y1457D01*
X833Y1456D02*
X906Y1456D01*
X833Y1455D02*
X906Y1455D01*
X833Y1454D02*
X906Y1454D01*
X833Y1453D02*
X906Y1453D01*
X833Y1452D02*
X906Y1452D01*
X833Y1451D02*
X906Y1451D01*
X95Y1391D02*
X102Y1391D01*
X295Y1391D02*
X302Y1391D01*
X90Y1390D02*
X107Y1390D01*
X290Y1390D02*
X307Y1390D01*
X87Y1389D02*
X110Y1389D01*
X287Y1389D02*
X310Y1389D01*
X85Y1388D02*
X112Y1388D01*
X285Y1388D02*
X312Y1388D01*
X83Y1387D02*
X114Y1387D01*
X283Y1387D02*
X314Y1387D01*
X81Y1386D02*
X116Y1386D01*
X281Y1386D02*
X316Y1386D01*
X79Y1385D02*
X118Y1385D01*
X279Y1385D02*
X318Y1385D01*
X78Y1384D02*
X119Y1384D01*
X278Y1384D02*
X319Y1384D01*
X77Y1383D02*
X121Y1383D01*
X277Y1383D02*
X321Y1383D01*
X75Y1382D02*
X122Y1382D01*
X275Y1382D02*
X322Y1382D01*
X74Y1381D02*
X123Y1381D01*
X274Y1381D02*
X323Y1381D01*
X73Y1380D02*
X124Y1380D01*
X273Y1380D02*
X324Y1380D01*
X73Y1379D02*
X125Y1379D01*
X273Y1379D02*
X325Y1379D01*
X72Y1378D02*
X125Y1378D01*
X272Y1378D02*
X325Y1378D01*
X71Y1377D02*
X126Y1377D01*
X271Y1377D02*
X326Y1377D01*
X70Y1376D02*
X127Y1376D01*
X270Y1376D02*
X327Y1376D01*
X70Y1375D02*
X127Y1375D01*
X270Y1375D02*
X327Y1375D01*
X69Y1374D02*
X128Y1374D01*
X269Y1374D02*
X328Y1374D01*
X69Y1373D02*
X129Y1373D01*
X269Y1373D02*
X329Y1373D01*
X68Y1372D02*
X129Y1372D01*
X268Y1372D02*
X329Y1372D01*
X68Y1371D02*
X95Y1371D01*
X102Y1371D02*
X130Y1371D01*
X268Y1371D02*
X295Y1371D01*
X302Y1371D02*
X330Y1371D01*
X67Y1370D02*
X92Y1370D01*
X105Y1370D02*
X130Y1370D01*
X267Y1370D02*
X292Y1370D01*
X305Y1370D02*
X330Y1370D01*
X67Y1369D02*
X90Y1369D01*
X107Y1369D02*
X130Y1369D01*
X267Y1369D02*
X290Y1369D01*
X307Y1369D02*
X330Y1369D01*
X66Y1368D02*
X89Y1368D01*
X108Y1368D02*
X131Y1368D01*
X266Y1368D02*
X289Y1368D01*
X308Y1368D02*
X331Y1368D01*
X66Y1367D02*
X88Y1367D01*
X110Y1367D02*
X131Y1367D01*
X266Y1367D02*
X288Y1367D01*
X310Y1367D02*
X331Y1367D01*
X66Y1366D02*
X87Y1366D01*
X110Y1366D02*
X132Y1366D01*
X266Y1366D02*
X287Y1366D01*
X310Y1366D02*
X332Y1366D01*
X65Y1365D02*
X86Y1365D01*
X111Y1365D02*
X132Y1365D01*
X265Y1365D02*
X286Y1365D01*
X311Y1365D02*
X332Y1365D01*
X65Y1364D02*
X85Y1364D01*
X112Y1364D02*
X132Y1364D01*
X265Y1364D02*
X285Y1364D01*
X312Y1364D02*
X332Y1364D01*
X65Y1363D02*
X85Y1363D01*
X113Y1363D02*
X132Y1363D01*
X265Y1363D02*
X285Y1363D01*
X313Y1363D02*
X332Y1363D01*
X65Y1362D02*
X84Y1362D01*
X113Y1362D02*
X132Y1362D01*
X265Y1362D02*
X284Y1362D01*
X313Y1362D02*
X332Y1362D01*
X65Y1361D02*
X84Y1361D01*
X113Y1361D02*
X133Y1361D01*
X264Y1361D02*
X284Y1361D01*
X313Y1361D02*
X333Y1361D01*
X64Y1360D02*
X83Y1360D01*
X114Y1360D02*
X133Y1360D01*
X264Y1360D02*
X283Y1360D01*
X314Y1360D02*
X333Y1360D01*
X64Y1359D02*
X83Y1359D01*
X114Y1359D02*
X133Y1359D01*
X264Y1359D02*
X283Y1359D01*
X314Y1359D02*
X333Y1359D01*
X64Y1358D02*
X83Y1358D01*
X114Y1358D02*
X133Y1358D01*
X264Y1358D02*
X283Y1358D01*
X314Y1358D02*
X333Y1358D01*
X64Y1357D02*
X83Y1357D01*
X114Y1357D02*
X133Y1357D01*
X264Y1357D02*
X283Y1357D01*
X314Y1357D02*
X333Y1357D01*
X64Y1356D02*
X83Y1356D01*
X114Y1356D02*
X133Y1356D01*
X264Y1356D02*
X283Y1356D01*
X314Y1356D02*
X333Y1356D01*
X64Y1355D02*
X83Y1355D01*
X114Y1355D02*
X133Y1355D01*
X264Y1355D02*
X283Y1355D01*
X314Y1355D02*
X333Y1355D01*
X64Y1354D02*
X83Y1354D01*
X114Y1354D02*
X133Y1354D01*
X264Y1354D02*
X283Y1354D01*
X314Y1354D02*
X333Y1354D01*
X64Y1353D02*
X83Y1353D01*
X114Y1353D02*
X133Y1353D01*
X264Y1353D02*
X283Y1353D01*
X314Y1353D02*
X333Y1353D01*
X64Y1352D02*
X84Y1352D01*
X114Y1352D02*
X133Y1352D01*
X264Y1352D02*
X284Y1352D01*
X314Y1352D02*
X333Y1352D01*
X65Y1351D02*
X84Y1351D01*
X113Y1351D02*
X133Y1351D01*
X265Y1351D02*
X284Y1351D01*
X313Y1351D02*
X333Y1351D01*
X65Y1350D02*
X84Y1350D01*
X113Y1350D02*
X132Y1350D01*
X265Y1350D02*
X284Y1350D01*
X313Y1350D02*
X332Y1350D01*
X65Y1349D02*
X85Y1349D01*
X112Y1349D02*
X132Y1349D01*
X265Y1349D02*
X285Y1349D01*
X312Y1349D02*
X332Y1349D01*
X65Y1348D02*
X86Y1348D01*
X112Y1348D02*
X132Y1348D01*
X265Y1348D02*
X285Y1348D01*
X312Y1348D02*
X332Y1348D01*
X66Y1347D02*
X86Y1347D01*
X111Y1347D02*
X132Y1347D01*
X266Y1347D02*
X286Y1347D01*
X311Y1347D02*
X332Y1347D01*
X66Y1346D02*
X87Y1346D01*
X110Y1346D02*
X131Y1346D01*
X266Y1346D02*
X287Y1346D01*
X310Y1346D02*
X331Y1346D01*
X66Y1345D02*
X88Y1345D01*
X109Y1345D02*
X131Y1345D01*
X266Y1345D02*
X288Y1345D01*
X309Y1345D02*
X331Y1345D01*
X67Y1344D02*
X89Y1344D01*
X108Y1344D02*
X131Y1344D01*
X267Y1344D02*
X289Y1344D01*
X308Y1344D02*
X331Y1344D01*
X67Y1343D02*
X91Y1343D01*
X106Y1343D02*
X130Y1343D01*
X267Y1343D02*
X291Y1343D01*
X306Y1343D02*
X330Y1343D01*
X67Y1342D02*
X93Y1342D01*
X104Y1342D02*
X130Y1342D01*
X267Y1342D02*
X293Y1342D01*
X304Y1342D02*
X330Y1342D01*
X68Y1341D02*
X129Y1341D01*
X268Y1341D02*
X329Y1341D01*
X68Y1340D02*
X129Y1340D01*
X268Y1340D02*
X329Y1340D01*
X69Y1339D02*
X128Y1339D01*
X269Y1339D02*
X328Y1339D01*
X69Y1338D02*
X128Y1338D01*
X269Y1338D02*
X328Y1338D01*
X70Y1337D02*
X127Y1337D01*
X270Y1337D02*
X327Y1337D01*
X71Y1336D02*
X126Y1336D01*
X271Y1336D02*
X326Y1336D01*
X71Y1335D02*
X126Y1335D01*
X271Y1335D02*
X326Y1335D01*
X72Y1334D02*
X125Y1334D01*
X272Y1334D02*
X325Y1334D01*
X73Y1333D02*
X124Y1333D01*
X273Y1333D02*
X324Y1333D01*
X74Y1332D02*
X123Y1332D01*
X274Y1332D02*
X323Y1332D01*
X75Y1331D02*
X122Y1331D01*
X275Y1331D02*
X322Y1331D01*
X76Y1330D02*
X121Y1330D01*
X276Y1330D02*
X321Y1330D01*
X77Y1329D02*
X120Y1329D01*
X277Y1329D02*
X320Y1329D01*
X79Y1328D02*
X118Y1328D01*
X279Y1328D02*
X318Y1328D01*
X80Y1327D02*
X117Y1327D01*
X280Y1327D02*
X317Y1327D01*
X82Y1326D02*
X115Y1326D01*
X282Y1326D02*
X315Y1326D01*
X84Y1325D02*
X113Y1325D01*
X284Y1325D02*
X313Y1325D01*
X86Y1324D02*
X111Y1324D01*
X286Y1324D02*
X311Y1324D01*
X89Y1323D02*
X108Y1323D01*
X289Y1323D02*
X308Y1323D01*
X93Y1322D02*
X105Y1322D01*
X293Y1322D02*
X304Y1322D01*
X195Y1191D02*
X202Y1191D01*
X190Y1190D02*
X207Y1190D01*
X187Y1189D02*
X210Y1189D01*
X185Y1188D02*
X212Y1188D01*
X183Y1187D02*
X215Y1187D01*
X181Y1186D02*
X216Y1186D01*
X179Y1185D02*
X218Y1185D01*
X178Y1184D02*
X219Y1184D01*
X176Y1183D02*
X221Y1183D01*
X175Y1182D02*
X222Y1182D01*
X174Y1181D02*
X223Y1181D01*
X173Y1180D02*
X224Y1180D01*
X172Y1179D02*
X225Y1179D01*
X172Y1178D02*
X225Y1178D01*
X171Y1177D02*
X226Y1177D01*
X170Y1176D02*
X227Y1176D01*
X170Y1175D02*
X227Y1175D01*
X169Y1174D02*
X228Y1174D01*
X168Y1173D02*
X229Y1173D01*
X168Y1172D02*
X229Y1172D01*
X168Y1171D02*
X194Y1171D01*
X203Y1171D02*
X230Y1171D01*
X167Y1170D02*
X192Y1170D01*
X206Y1170D02*
X230Y1170D01*
X167Y1169D02*
X190Y1169D01*
X207Y1169D02*
X230Y1169D01*
X166Y1168D02*
X189Y1168D01*
X208Y1168D02*
X231Y1168D01*
X166Y1167D02*
X188Y1167D01*
X210Y1167D02*
X231Y1167D01*
X166Y1166D02*
X187Y1166D01*
X211Y1166D02*
X232Y1166D01*
X165Y1165D02*
X186Y1165D01*
X211Y1165D02*
X232Y1165D01*
X165Y1164D02*
X185Y1164D01*
X212Y1164D02*
X232Y1164D01*
X165Y1163D02*
X185Y1163D01*
X213Y1163D02*
X232Y1163D01*
X165Y1162D02*
X184Y1162D01*
X213Y1162D02*
X233Y1162D01*
X164Y1161D02*
X184Y1161D01*
X213Y1161D02*
X233Y1161D01*
X164Y1160D02*
X183Y1160D01*
X214Y1160D02*
X233Y1160D01*
X164Y1159D02*
X183Y1159D01*
X214Y1159D02*
X233Y1159D01*
X164Y1158D02*
X183Y1158D01*
X214Y1158D02*
X233Y1158D01*
X164Y1157D02*
X183Y1157D01*
X214Y1157D02*
X233Y1157D01*
X164Y1156D02*
X183Y1156D01*
X214Y1156D02*
X233Y1156D01*
X164Y1155D02*
X183Y1155D01*
X214Y1155D02*
X233Y1155D01*
X164Y1154D02*
X183Y1154D01*
X214Y1154D02*
X233Y1154D01*
X164Y1153D02*
X183Y1153D01*
X214Y1153D02*
X233Y1153D01*
X164Y1152D02*
X184Y1152D01*
X214Y1152D02*
X233Y1152D01*
X165Y1151D02*
X184Y1151D01*
X213Y1151D02*
X233Y1151D01*
X165Y1150D02*
X184Y1150D01*
X213Y1150D02*
X232Y1150D01*
X165Y1149D02*
X185Y1149D01*
X212Y1149D02*
X232Y1149D01*
X165Y1148D02*
X186Y1148D01*
X212Y1148D02*
X232Y1148D01*
X166Y1147D02*
X186Y1147D01*
X211Y1147D02*
X232Y1147D01*
X166Y1146D02*
X187Y1146D01*
X210Y1146D02*
X231Y1146D01*
X166Y1145D02*
X188Y1145D01*
X209Y1145D02*
X231Y1145D01*
X167Y1144D02*
X189Y1144D01*
X208Y1144D02*
X231Y1144D01*
X167Y1143D02*
X191Y1143D01*
X206Y1143D02*
X230Y1143D01*
X167Y1142D02*
X193Y1142D01*
X204Y1142D02*
X230Y1142D01*
X168Y1141D02*
X229Y1141D01*
X168Y1140D02*
X229Y1140D01*
X169Y1139D02*
X228Y1139D01*
X169Y1138D02*
X228Y1138D01*
X170Y1137D02*
X227Y1137D01*
X171Y1136D02*
X226Y1136D01*
X171Y1135D02*
X226Y1135D01*
X172Y1134D02*
X225Y1134D01*
X173Y1133D02*
X224Y1133D01*
X174Y1132D02*
X223Y1132D01*
X175Y1131D02*
X222Y1131D01*
X176Y1130D02*
X221Y1130D01*
X177Y1129D02*
X220Y1129D01*
X179Y1128D02*
X218Y1128D01*
X180Y1127D02*
X217Y1127D01*
X182Y1126D02*
X215Y1126D01*
X184Y1125D02*
X213Y1125D01*
X186Y1124D02*
X211Y1124D01*
X189Y1123D02*
X208Y1123D01*
X193Y1122D02*
X204Y1122D01*
X352Y1054D02*
X357Y1054D01*
X452Y1054D02*
X457Y1054D01*
X552Y1054D02*
X557Y1054D01*
X347Y1053D02*
X362Y1053D01*
X447Y1053D02*
X462Y1053D01*
X547Y1053D02*
X562Y1053D01*
X344Y1052D02*
X365Y1052D01*
X444Y1052D02*
X465Y1052D01*
X544Y1052D02*
X565Y1052D01*
X342Y1051D02*
X367Y1051D01*
X442Y1051D02*
X467Y1051D01*
X542Y1051D02*
X567Y1051D01*
X340Y1050D02*
X369Y1050D01*
X440Y1050D02*
X469Y1050D01*
X540Y1050D02*
X569Y1050D01*
X338Y1049D02*
X371Y1049D01*
X438Y1049D02*
X471Y1049D01*
X538Y1049D02*
X571Y1049D01*
X337Y1048D02*
X372Y1048D01*
X437Y1048D02*
X472Y1048D01*
X537Y1048D02*
X572Y1048D01*
X336Y1047D02*
X373Y1047D01*
X436Y1047D02*
X473Y1047D01*
X536Y1047D02*
X573Y1047D01*
X334Y1046D02*
X375Y1046D01*
X434Y1046D02*
X475Y1046D01*
X534Y1046D02*
X575Y1046D01*
X333Y1045D02*
X376Y1045D01*
X433Y1045D02*
X476Y1045D01*
X533Y1045D02*
X576Y1045D01*
X332Y1044D02*
X376Y1044D01*
X432Y1044D02*
X476Y1044D01*
X532Y1044D02*
X576Y1044D01*
X332Y1043D02*
X377Y1043D01*
X432Y1043D02*
X477Y1043D01*
X532Y1043D02*
X577Y1043D01*
X331Y1042D02*
X378Y1042D01*
X431Y1042D02*
X478Y1042D01*
X531Y1042D02*
X578Y1042D01*
X330Y1041D02*
X379Y1041D01*
X430Y1041D02*
X479Y1041D01*
X530Y1041D02*
X579Y1041D01*
X330Y1040D02*
X379Y1040D01*
X430Y1040D02*
X479Y1040D01*
X529Y1040D02*
X579Y1040D01*
X329Y1039D02*
X380Y1039D01*
X429Y1039D02*
X480Y1039D01*
X529Y1039D02*
X580Y1039D01*
X328Y1038D02*
X381Y1038D01*
X428Y1038D02*
X481Y1038D01*
X528Y1038D02*
X581Y1038D01*
X328Y1037D02*
X381Y1037D01*
X428Y1037D02*
X481Y1037D01*
X528Y1037D02*
X581Y1037D01*
X327Y1036D02*
X382Y1036D01*
X427Y1036D02*
X482Y1036D01*
X527Y1036D02*
X582Y1036D01*
X327Y1035D02*
X382Y1035D01*
X427Y1035D02*
X482Y1035D01*
X527Y1035D02*
X582Y1035D01*
X327Y1034D02*
X382Y1034D01*
X427Y1034D02*
X482Y1034D01*
X527Y1034D02*
X582Y1034D01*
X326Y1033D02*
X383Y1033D01*
X426Y1033D02*
X483Y1033D01*
X526Y1033D02*
X583Y1033D01*
X326Y1032D02*
X383Y1032D01*
X426Y1032D02*
X483Y1032D01*
X526Y1032D02*
X583Y1032D01*
X326Y1031D02*
X383Y1031D01*
X426Y1031D02*
X483Y1031D01*
X526Y1031D02*
X583Y1031D01*
X326Y1030D02*
X383Y1030D01*
X426Y1030D02*
X483Y1030D01*
X526Y1030D02*
X583Y1030D01*
X325Y1029D02*
X384Y1029D01*
X425Y1029D02*
X484Y1029D01*
X525Y1029D02*
X584Y1029D01*
X325Y1028D02*
X384Y1028D01*
X425Y1028D02*
X484Y1028D01*
X525Y1028D02*
X584Y1028D01*
X325Y1027D02*
X384Y1027D01*
X425Y1027D02*
X484Y1027D01*
X525Y1027D02*
X584Y1027D01*
X325Y1026D02*
X384Y1026D01*
X425Y1026D02*
X484Y1026D01*
X525Y1026D02*
X584Y1026D01*
X325Y1025D02*
X384Y1025D01*
X425Y1025D02*
X484Y1025D01*
X525Y1025D02*
X584Y1025D01*
X325Y1024D02*
X384Y1024D01*
X425Y1024D02*
X484Y1024D01*
X525Y1024D02*
X584Y1024D01*
X325Y1023D02*
X384Y1023D01*
X425Y1023D02*
X484Y1023D01*
X525Y1023D02*
X584Y1023D01*
X325Y1022D02*
X384Y1022D01*
X425Y1022D02*
X484Y1022D01*
X525Y1022D02*
X584Y1022D01*
X325Y1021D02*
X384Y1021D01*
X425Y1021D02*
X484Y1021D01*
X525Y1021D02*
X584Y1021D01*
X325Y1020D02*
X384Y1020D01*
X425Y1020D02*
X484Y1020D01*
X525Y1020D02*
X584Y1020D01*
X325Y1019D02*
X384Y1019D01*
X425Y1019D02*
X484Y1019D01*
X525Y1019D02*
X584Y1019D01*
X325Y1018D02*
X384Y1018D01*
X425Y1018D02*
X484Y1018D01*
X525Y1018D02*
X584Y1018D01*
X325Y1017D02*
X384Y1017D01*
X425Y1017D02*
X484Y1017D01*
X525Y1017D02*
X584Y1017D01*
X325Y1016D02*
X384Y1016D01*
X425Y1016D02*
X484Y1016D01*
X525Y1016D02*
X584Y1016D01*
X325Y1015D02*
X384Y1015D01*
X425Y1015D02*
X484Y1015D01*
X525Y1015D02*
X584Y1015D01*
X325Y1014D02*
X352Y1014D01*
X357Y1014D02*
X384Y1014D01*
X425Y1014D02*
X452Y1014D01*
X457Y1014D02*
X484Y1014D01*
X525Y1014D02*
X552Y1014D01*
X557Y1014D02*
X584Y1014D01*
X325Y1013D02*
X347Y1013D01*
X362Y1013D02*
X384Y1013D01*
X425Y1013D02*
X447Y1013D01*
X462Y1013D02*
X484Y1013D01*
X525Y1013D02*
X547Y1013D01*
X562Y1013D02*
X584Y1013D01*
X325Y1012D02*
X345Y1012D01*
X364Y1012D02*
X384Y1012D01*
X425Y1012D02*
X445Y1012D01*
X464Y1012D02*
X484Y1012D01*
X525Y1012D02*
X545Y1012D01*
X564Y1012D02*
X584Y1012D01*
X325Y1011D02*
X343Y1011D01*
X366Y1011D02*
X384Y1011D01*
X425Y1011D02*
X443Y1011D01*
X466Y1011D02*
X484Y1011D01*
X525Y1011D02*
X543Y1011D01*
X566Y1011D02*
X584Y1011D01*
X325Y1010D02*
X342Y1010D01*
X367Y1010D02*
X384Y1010D01*
X425Y1010D02*
X442Y1010D01*
X467Y1010D02*
X484Y1010D01*
X525Y1010D02*
X542Y1010D01*
X567Y1010D02*
X584Y1010D01*
X325Y1009D02*
X341Y1009D01*
X368Y1009D02*
X384Y1009D01*
X425Y1009D02*
X441Y1009D01*
X468Y1009D02*
X484Y1009D01*
X525Y1009D02*
X541Y1009D01*
X568Y1009D02*
X584Y1009D01*
X325Y1008D02*
X340Y1008D01*
X369Y1008D02*
X384Y1008D01*
X425Y1008D02*
X440Y1008D01*
X469Y1008D02*
X484Y1008D01*
X525Y1008D02*
X540Y1008D01*
X569Y1008D02*
X584Y1008D01*
X325Y1007D02*
X339Y1007D01*
X370Y1007D02*
X384Y1007D01*
X425Y1007D02*
X439Y1007D01*
X470Y1007D02*
X484Y1007D01*
X525Y1007D02*
X539Y1007D01*
X570Y1007D02*
X584Y1007D01*
X325Y1006D02*
X338Y1006D01*
X371Y1006D02*
X384Y1006D01*
X425Y1006D02*
X438Y1006D01*
X471Y1006D02*
X484Y1006D01*
X525Y1006D02*
X538Y1006D01*
X571Y1006D02*
X584Y1006D01*
X325Y1005D02*
X337Y1005D01*
X372Y1005D02*
X384Y1005D01*
X425Y1005D02*
X437Y1005D01*
X472Y1005D02*
X484Y1005D01*
X525Y1005D02*
X537Y1005D01*
X572Y1005D02*
X584Y1005D01*
X325Y1004D02*
X337Y1004D01*
X372Y1004D02*
X384Y1004D01*
X425Y1004D02*
X437Y1004D01*
X472Y1004D02*
X484Y1004D01*
X525Y1004D02*
X537Y1004D01*
X572Y1004D02*
X584Y1004D01*
X325Y1003D02*
X336Y1003D01*
X373Y1003D02*
X384Y1003D01*
X425Y1003D02*
X436Y1003D01*
X473Y1003D02*
X484Y1003D01*
X525Y1003D02*
X536Y1003D01*
X573Y1003D02*
X584Y1003D01*
X325Y1002D02*
X336Y1002D01*
X373Y1002D02*
X384Y1002D01*
X425Y1002D02*
X436Y1002D01*
X473Y1002D02*
X484Y1002D01*
X525Y1002D02*
X536Y1002D01*
X573Y1002D02*
X584Y1002D01*
X325Y1001D02*
X335Y1001D01*
X374Y1001D02*
X384Y1001D01*
X425Y1001D02*
X435Y1001D01*
X474Y1001D02*
X484Y1001D01*
X525Y1001D02*
X535Y1001D01*
X574Y1001D02*
X584Y1001D01*
X325Y1000D02*
X335Y1000D01*
X374Y1000D02*
X384Y1000D01*
X425Y1000D02*
X435Y1000D01*
X474Y1000D02*
X484Y1000D01*
X525Y1000D02*
X535Y1000D01*
X574Y1000D02*
X584Y1000D01*
X325Y999D02*
X335Y999D01*
X374Y999D02*
X384Y999D01*
X425Y999D02*
X435Y999D01*
X474Y999D02*
X484Y999D01*
X525Y999D02*
X535Y999D01*
X574Y999D02*
X584Y999D01*
X325Y998D02*
X334Y998D01*
X375Y998D02*
X384Y998D01*
X425Y998D02*
X434Y998D01*
X475Y998D02*
X484Y998D01*
X525Y998D02*
X534Y998D01*
X575Y998D02*
X584Y998D01*
X325Y997D02*
X334Y997D01*
X375Y997D02*
X384Y997D01*
X425Y997D02*
X434Y997D01*
X475Y997D02*
X484Y997D01*
X525Y997D02*
X534Y997D01*
X575Y997D02*
X584Y997D01*
X325Y996D02*
X334Y996D01*
X375Y996D02*
X384Y996D01*
X425Y996D02*
X434Y996D01*
X475Y996D02*
X484Y996D01*
X525Y996D02*
X534Y996D01*
X575Y996D02*
X584Y996D01*
X325Y995D02*
X334Y995D01*
X375Y995D02*
X384Y995D01*
X425Y995D02*
X434Y995D01*
X475Y995D02*
X484Y995D01*
X525Y995D02*
X534Y995D01*
X575Y995D02*
X584Y995D01*
X325Y994D02*
X334Y994D01*
X375Y994D02*
X384Y994D01*
X425Y994D02*
X434Y994D01*
X475Y994D02*
X484Y994D01*
X525Y994D02*
X534Y994D01*
X575Y994D02*
X584Y994D01*
X325Y993D02*
X334Y993D01*
X375Y993D02*
X384Y993D01*
X425Y993D02*
X434Y993D01*
X475Y993D02*
X484Y993D01*
X525Y993D02*
X534Y993D01*
X575Y993D02*
X584Y993D01*
X325Y992D02*
X334Y992D01*
X375Y992D02*
X384Y992D01*
X425Y992D02*
X434Y992D01*
X475Y992D02*
X484Y992D01*
X525Y992D02*
X534Y992D01*
X575Y992D02*
X584Y992D01*
X325Y991D02*
X334Y991D01*
X375Y991D02*
X384Y991D01*
X425Y991D02*
X434Y991D01*
X475Y991D02*
X484Y991D01*
X525Y991D02*
X534Y991D01*
X575Y991D02*
X584Y991D01*
X325Y990D02*
X334Y990D01*
X374Y990D02*
X384Y990D01*
X425Y990D02*
X434Y990D01*
X474Y990D02*
X484Y990D01*
X525Y990D02*
X534Y990D01*
X574Y990D02*
X584Y990D01*
X325Y989D02*
X335Y989D01*
X374Y989D02*
X384Y989D01*
X425Y989D02*
X435Y989D01*
X474Y989D02*
X484Y989D01*
X525Y989D02*
X535Y989D01*
X574Y989D02*
X584Y989D01*
X325Y988D02*
X335Y988D01*
X374Y988D02*
X384Y988D01*
X425Y988D02*
X435Y988D01*
X474Y988D02*
X484Y988D01*
X525Y988D02*
X535Y988D01*
X574Y988D02*
X584Y988D01*
X325Y987D02*
X335Y987D01*
X374Y987D02*
X384Y987D01*
X425Y987D02*
X435Y987D01*
X474Y987D02*
X484Y987D01*
X525Y987D02*
X535Y987D01*
X574Y987D02*
X584Y987D01*
X325Y986D02*
X336Y986D01*
X373Y986D02*
X384Y986D01*
X425Y986D02*
X436Y986D01*
X473Y986D02*
X484Y986D01*
X525Y986D02*
X536Y986D01*
X573Y986D02*
X584Y986D01*
X325Y985D02*
X336Y985D01*
X373Y985D02*
X384Y985D01*
X425Y985D02*
X436Y985D01*
X473Y985D02*
X484Y985D01*
X525Y985D02*
X536Y985D01*
X573Y985D02*
X584Y985D01*
X325Y984D02*
X337Y984D01*
X372Y984D02*
X384Y984D01*
X425Y984D02*
X437Y984D01*
X472Y984D02*
X484Y984D01*
X525Y984D02*
X537Y984D01*
X572Y984D02*
X584Y984D01*
X325Y983D02*
X337Y983D01*
X372Y983D02*
X384Y983D01*
X425Y983D02*
X437Y983D01*
X471Y983D02*
X484Y983D01*
X525Y983D02*
X537Y983D01*
X571Y983D02*
X584Y983D01*
X325Y982D02*
X338Y982D01*
X371Y982D02*
X384Y982D01*
X425Y982D02*
X438Y982D01*
X471Y982D02*
X484Y982D01*
X525Y982D02*
X538Y982D01*
X571Y982D02*
X584Y982D01*
X325Y981D02*
X339Y981D01*
X370Y981D02*
X384Y981D01*
X425Y981D02*
X439Y981D01*
X470Y981D02*
X484Y981D01*
X525Y981D02*
X539Y981D01*
X570Y981D02*
X584Y981D01*
X325Y980D02*
X340Y980D01*
X369Y980D02*
X384Y980D01*
X425Y980D02*
X440Y980D01*
X469Y980D02*
X484Y980D01*
X525Y980D02*
X540Y980D01*
X569Y980D02*
X584Y980D01*
X325Y979D02*
X341Y979D01*
X368Y979D02*
X384Y979D01*
X425Y979D02*
X441Y979D01*
X468Y979D02*
X484Y979D01*
X525Y979D02*
X541Y979D01*
X568Y979D02*
X584Y979D01*
X325Y978D02*
X342Y978D01*
X367Y978D02*
X384Y978D01*
X425Y978D02*
X442Y978D01*
X467Y978D02*
X484Y978D01*
X525Y978D02*
X542Y978D01*
X567Y978D02*
X584Y978D01*
X325Y977D02*
X344Y977D01*
X365Y977D02*
X384Y977D01*
X425Y977D02*
X444Y977D01*
X465Y977D02*
X484Y977D01*
X525Y977D02*
X544Y977D01*
X565Y977D02*
X584Y977D01*
X325Y976D02*
X346Y976D01*
X363Y976D02*
X384Y976D01*
X425Y976D02*
X446Y976D01*
X463Y976D02*
X484Y976D01*
X525Y976D02*
X546Y976D01*
X563Y976D02*
X584Y976D01*
X325Y975D02*
X349Y975D01*
X360Y975D02*
X384Y975D01*
X425Y975D02*
X449Y975D01*
X460Y975D02*
X484Y975D01*
X525Y975D02*
X549Y975D01*
X560Y975D02*
X584Y975D01*
X325Y974D02*
X384Y974D01*
X425Y974D02*
X484Y974D01*
X525Y974D02*
X584Y974D01*
X325Y973D02*
X384Y973D01*
X425Y973D02*
X484Y973D01*
X525Y973D02*
X584Y973D01*
X325Y972D02*
X384Y972D01*
X425Y972D02*
X484Y972D01*
X525Y972D02*
X584Y972D01*
X325Y971D02*
X384Y971D01*
X425Y971D02*
X484Y971D01*
X525Y971D02*
X584Y971D01*
X325Y970D02*
X384Y970D01*
X425Y970D02*
X484Y970D01*
X525Y970D02*
X584Y970D01*
X325Y969D02*
X384Y969D01*
X425Y969D02*
X484Y969D01*
X525Y969D02*
X584Y969D01*
X325Y968D02*
X384Y968D01*
X425Y968D02*
X484Y968D01*
X525Y968D02*
X584Y968D01*
X325Y967D02*
X384Y967D01*
X425Y967D02*
X484Y967D01*
X525Y967D02*
X584Y967D01*
X325Y966D02*
X384Y966D01*
X425Y966D02*
X484Y966D01*
X525Y966D02*
X584Y966D01*
X325Y965D02*
X384Y965D01*
X425Y965D02*
X484Y965D01*
X525Y965D02*
X584Y965D01*
X325Y964D02*
X384Y964D01*
X425Y964D02*
X484Y964D01*
X525Y964D02*
X584Y964D01*
X325Y963D02*
X384Y963D01*
X425Y963D02*
X484Y963D01*
X525Y963D02*
X584Y963D01*
X325Y962D02*
X384Y962D01*
X425Y962D02*
X484Y962D01*
X525Y962D02*
X584Y962D01*
X325Y961D02*
X384Y961D01*
X425Y961D02*
X484Y961D01*
X525Y961D02*
X584Y961D01*
X325Y960D02*
X384Y960D01*
X425Y960D02*
X484Y960D01*
X525Y960D02*
X584Y960D01*
X325Y959D02*
X383Y959D01*
X425Y959D02*
X483Y959D01*
X525Y959D02*
X583Y959D01*
X326Y958D02*
X383Y958D01*
X426Y958D02*
X483Y958D01*
X526Y958D02*
X583Y958D01*
X326Y957D02*
X383Y957D01*
X426Y957D02*
X483Y957D01*
X526Y957D02*
X583Y957D01*
X326Y956D02*
X383Y956D01*
X426Y956D02*
X483Y956D01*
X526Y956D02*
X583Y956D01*
X326Y955D02*
X383Y955D01*
X426Y955D02*
X483Y955D01*
X526Y955D02*
X583Y955D01*
X327Y954D02*
X382Y954D01*
X427Y954D02*
X482Y954D01*
X527Y954D02*
X582Y954D01*
X327Y953D02*
X382Y953D01*
X427Y953D02*
X482Y953D01*
X527Y953D02*
X582Y953D01*
X328Y952D02*
X381Y952D01*
X428Y952D02*
X481Y952D01*
X528Y952D02*
X581Y952D01*
X328Y951D02*
X381Y951D01*
X428Y951D02*
X481Y951D01*
X528Y951D02*
X581Y951D01*
X329Y950D02*
X380Y950D01*
X429Y950D02*
X480Y950D01*
X529Y950D02*
X580Y950D01*
X329Y949D02*
X380Y949D01*
X429Y949D02*
X480Y949D01*
X529Y949D02*
X580Y949D01*
X330Y948D02*
X379Y948D01*
X430Y948D02*
X479Y948D01*
X530Y948D02*
X579Y948D01*
X330Y947D02*
X379Y947D01*
X430Y947D02*
X479Y947D01*
X530Y947D02*
X579Y947D01*
X331Y946D02*
X378Y946D01*
X431Y946D02*
X478Y946D01*
X531Y946D02*
X578Y946D01*
X332Y945D02*
X377Y945D01*
X432Y945D02*
X477Y945D01*
X532Y945D02*
X577Y945D01*
X333Y944D02*
X376Y944D01*
X433Y944D02*
X476Y944D01*
X533Y944D02*
X576Y944D01*
X334Y943D02*
X375Y943D01*
X434Y943D02*
X475Y943D01*
X534Y943D02*
X575Y943D01*
X335Y942D02*
X374Y942D01*
X435Y942D02*
X474Y942D01*
X535Y942D02*
X574Y942D01*
X336Y941D02*
X373Y941D01*
X436Y941D02*
X473Y941D01*
X536Y941D02*
X573Y941D01*
X337Y940D02*
X372Y940D01*
X437Y940D02*
X472Y940D01*
X537Y940D02*
X572Y940D01*
X339Y939D02*
X370Y939D01*
X439Y939D02*
X470Y939D01*
X539Y939D02*
X570Y939D01*
X340Y938D02*
X369Y938D01*
X440Y938D02*
X469Y938D01*
X540Y938D02*
X569Y938D01*
X342Y937D02*
X367Y937D01*
X442Y937D02*
X467Y937D01*
X542Y937D02*
X567Y937D01*
X345Y936D02*
X364Y936D01*
X445Y936D02*
X464Y936D01*
X545Y936D02*
X564Y936D01*
X348Y935D02*
X361Y935D01*
X448Y935D02*
X461Y935D01*
X548Y935D02*
X561Y935D01*
X42Y177D02*
X114Y177D01*
X42Y176D02*
X115Y176D01*
X42Y175D02*
X115Y175D01*
X42Y174D02*
X115Y174D01*
X42Y173D02*
X115Y173D01*
X42Y172D02*
X115Y172D01*
X42Y171D02*
X115Y171D01*
X42Y170D02*
X115Y170D01*
X42Y169D02*
X115Y169D01*
X42Y168D02*
X115Y168D01*
X42Y167D02*
X115Y167D01*
X42Y166D02*
X115Y166D01*
X42Y165D02*
X115Y165D01*
X42Y164D02*
X115Y164D01*
X42Y163D02*
X115Y163D01*
X42Y162D02*
X115Y162D01*
X42Y161D02*
X115Y161D01*
X42Y160D02*
X76Y160D01*
X80Y160D02*
X115Y160D01*
X42Y159D02*
X71Y159D01*
X85Y159D02*
X115Y159D01*
X42Y158D02*
X69Y158D01*
X87Y158D02*
X115Y158D01*
X42Y157D02*
X67Y157D01*
X89Y157D02*
X115Y157D01*
X42Y156D02*
X66Y156D01*
X91Y156D02*
X115Y156D01*
X42Y155D02*
X64Y155D01*
X92Y155D02*
X115Y155D01*
X42Y154D02*
X63Y154D01*
X93Y154D02*
X115Y154D01*
X42Y153D02*
X62Y153D01*
X94Y153D02*
X115Y153D01*
X42Y152D02*
X62Y152D01*
X95Y152D02*
X115Y152D01*
X42Y151D02*
X61Y151D01*
X95Y151D02*
X115Y151D01*
X42Y150D02*
X60Y150D01*
X96Y150D02*
X115Y150D01*
X42Y149D02*
X60Y149D01*
X96Y149D02*
X115Y149D01*
X42Y148D02*
X59Y148D01*
X97Y148D02*
X115Y148D01*
X42Y147D02*
X59Y147D01*
X97Y147D02*
X115Y147D01*
X42Y146D02*
X59Y146D01*
X98Y146D02*
X115Y146D01*
X42Y145D02*
X58Y145D01*
X98Y145D02*
X115Y145D01*
X42Y144D02*
X58Y144D01*
X98Y144D02*
X115Y144D01*
X42Y143D02*
X58Y143D01*
X98Y143D02*
X115Y143D01*
X42Y142D02*
X58Y142D01*
X98Y142D02*
X115Y142D01*
X42Y141D02*
X58Y141D01*
X99Y141D02*
X115Y141D01*
X42Y140D02*
X58Y140D01*
X99Y140D02*
X115Y140D01*
X42Y139D02*
X58Y139D01*
X99Y139D02*
X115Y139D01*
X42Y138D02*
X58Y138D01*
X98Y138D02*
X115Y138D01*
X42Y137D02*
X58Y137D01*
X98Y137D02*
X115Y137D01*
X42Y136D02*
X58Y136D01*
X98Y136D02*
X115Y136D01*
X42Y135D02*
X58Y135D01*
X98Y135D02*
X115Y135D01*
X42Y134D02*
X59Y134D01*
X98Y134D02*
X115Y134D01*
X42Y133D02*
X59Y133D01*
X97Y133D02*
X115Y133D01*
X42Y132D02*
X59Y132D01*
X97Y132D02*
X115Y132D01*
X42Y131D02*
X60Y131D01*
X96Y131D02*
X115Y131D01*
X42Y130D02*
X60Y130D01*
X96Y130D02*
X115Y130D01*
X42Y129D02*
X61Y129D01*
X95Y129D02*
X115Y129D01*
X42Y128D02*
X62Y128D01*
X94Y128D02*
X115Y128D01*
X42Y127D02*
X63Y127D01*
X94Y127D02*
X115Y127D01*
X42Y126D02*
X64Y126D01*
X93Y126D02*
X115Y126D01*
X42Y125D02*
X65Y125D01*
X92Y125D02*
X115Y125D01*
X42Y124D02*
X66Y124D01*
X90Y124D02*
X115Y124D01*
X42Y123D02*
X67Y123D01*
X89Y123D02*
X115Y123D01*
X42Y122D02*
X69Y122D01*
X87Y122D02*
X115Y122D01*
X42Y121D02*
X72Y121D01*
X84Y121D02*
X115Y121D01*
X42Y120D02*
X115Y120D01*
X42Y119D02*
X115Y119D01*
X42Y118D02*
X115Y118D01*
X42Y117D02*
X115Y117D01*
X42Y116D02*
X115Y116D01*
X42Y115D02*
X115Y115D01*
X42Y114D02*
X115Y114D01*
X42Y113D02*
X115Y113D01*
X42Y112D02*
X115Y112D01*
X42Y111D02*
X115Y111D01*
X42Y110D02*
X115Y110D01*
X42Y109D02*
X115Y109D01*
X42Y108D02*
X115Y108D01*
X42Y107D02*
X115Y107D01*
X42Y106D02*
X115Y106D01*
X42Y105D02*
X115Y105D01*
X42Y104D02*
X115Y104D01*
D02*
G04 End of Copper1*
M02*