; NON-PLATED HOLES START AT T1
; THROUGH (PLATED) HOLES START AT T100
M48
INCH
T1C0.086614
T100C0.030000
T101C0.038000
T102C0.031496
T103C0.043307
T104C0.015748
T105C0.034000
T106C0.039370
T107C0.040000
T108C0.035000
T109C0.031555
T110C0.042000
%
T1
X009880Y000766
X030747Y000766
X030747Y014743
X010471Y014743
T100
X028778Y007656
X028642Y014152
X006731Y011790
X006731Y012792
X029351Y003443
X000991Y013562
X001991Y011562
X028778Y006654
X030628Y010412
X030353Y003443
X030134Y008798
X023087Y007066
X030628Y011414
X029351Y005491
X030353Y005491
X003975Y006908
X004977Y006908
X029644Y014152
X022085Y007066
X002991Y013562
X029132Y008798
T101
X013243Y001160
X019723Y004916
X018723Y001160
X020723Y001160
X019723Y001160
X028565Y001160
X018148Y003798
X018148Y004798
X018148Y005798
X017723Y001160
X014243Y001160
X011243Y001160
X012243Y001160
X029565Y001160
X019723Y003916
T102
X029171Y012343
T103
X023219Y003010
X021219Y003010
X022219Y003010
T104
X040471Y011475
X015983Y012774
X038896Y011003
X015983Y005294
X040038Y010451
X040583Y003530
X016770Y006475
X022085Y004506
X015983Y003719
X029369Y004703
X039206Y014354
X031920Y002147
X040471Y013207
X010077Y009821
X006731Y008443
X034880Y008640
X038825Y013770
X040583Y006083
X040471Y009664
X040471Y009034
X037437Y002147
X036337Y005884
X029565Y002341
X035865Y001750
X001179Y005294
X032918Y008639
X026613Y007144
X019132Y006672
X028227Y008207
X026022Y008050
X035865Y008247
X029959Y006081
X037437Y000763
X038384Y010491
X032912Y001357
X036337Y005097
X016770Y005294
X033896Y007853
X026613Y014349
X008699Y008443
T105
X027575Y013113
X024250Y009113
X027575Y007113
X024250Y005113
X024250Y007113
X027575Y009113
X024250Y014113
X027575Y008113
X027575Y002113
X027575Y012113
X027575Y011113
X024250Y010113
X024250Y001113
X024250Y008113
X027575Y014113
X024250Y012113
X024250Y002113
X024250Y004113
X024250Y006113
X027575Y001113
X027575Y006113
X024250Y013113
X027575Y003113
X027575Y004113
X024250Y003113
X024250Y011113
X027575Y005113
X027575Y010113
T106
X008699Y013877
X008699Y014877
X008699Y012877
T107
X041770Y002325
X003550Y009940
X000786Y001396
X001140Y010593
X041770Y003325
X042770Y011380
X021888Y008050
X041770Y010380
X041770Y014380
X041770Y005325
X042770Y005325
X042770Y012380
X042770Y014380
X041770Y011380
X042770Y002325
X041770Y013380
X017888Y008050
X041770Y001325
X000786Y003396
X041770Y012380
X042770Y004325
X041770Y004325
X001140Y006593
X005550Y009940
X004550Y009940
X000786Y002396
X042770Y010380
X042770Y013380
X042770Y003325
X042770Y001325
T108
X008896Y010790
X031865Y003522
X036865Y006522
X032865Y012821
X033865Y012821
X011998Y009806
X022085Y014743
X014998Y009806
X017888Y009231
X034865Y012821
X031865Y006522
X018085Y013758
X011998Y012806
X021888Y009231
X012243Y002735
X022085Y011593
X011998Y010806
X013227Y006735
X038865Y003522
X007518Y006790
X031865Y009821
X036865Y003522
X013227Y002735
X036865Y012821
X008896Y006790
X001928Y000546
X014998Y012806
X034865Y006522
X014998Y010806
X034865Y009821
X015983Y002672
X035865Y006522
X037865Y012821
X031865Y012821
X033865Y006522
X032865Y003522
X035865Y012821
X038865Y009821
X018085Y014743
X014211Y006735
X037865Y003522
X022085Y012577
X011998Y011806
X037865Y006522
X022085Y013758
X038865Y006522
X005211Y012380
X011998Y013806
X011258Y006735
X014211Y002735
X012243Y006735
X035865Y009821
X037865Y009821
X033865Y009821
X015983Y006672
X014998Y014806
X004211Y012380
X032865Y006522
X018085Y012577
X014998Y011806
X036865Y009821
X032865Y009821
X011998Y008806
X035865Y003522
X038865Y012821
X011258Y002735
X014998Y008806
X018085Y011593
X011998Y007806
X011998Y014806
X014998Y013806
X007518Y010790
X033865Y003522
X034865Y003522
X014998Y007806
X001928Y004546
T109
X029172Y010412
T110
X006849Y014900
X007085Y001743
X002912Y007526
X003869Y014900
X007085Y004743
X002912Y004546
T00
M30
