G04 MADE WITH FRITZING*
G04 WWW.FRITZING.ORG*
G04 DOUBLE SIDED*
G04 HOLES PLATED*
G04 CONTOUR ON CENTER OF CONTOUR VECTOR*
%ASAXBY*%
%FSLAX23Y23*%
%MOIN*%
%OFA0B0*%
%SFA1.0B1.0*%
%ADD10C,0.049370*%
%ADD11C,0.096614*%
%ADD12C,0.080889*%
%ADD13C,0.067000*%
%ADD14C,0.103195*%
%ADD15C,0.088000*%
%LNMASK1*%
G90*
G70*
G54D10*
X392Y569D03*
G54D11*
X504Y93D03*
X1137Y1114D03*
X1137Y93D03*
X503Y1114D03*
G54D12*
X137Y193D03*
X237Y193D03*
X137Y293D03*
X237Y293D03*
X137Y393D03*
X237Y393D03*
X137Y493D03*
X237Y493D03*
X137Y593D03*
X237Y593D03*
G54D13*
X137Y193D03*
X237Y193D03*
X137Y293D03*
X237Y293D03*
X137Y393D03*
X237Y393D03*
X137Y493D03*
X237Y493D03*
X137Y593D03*
X237Y593D03*
G54D14*
X978Y401D03*
X1047Y559D03*
X663Y401D03*
X594Y559D03*
X594Y716D03*
X594Y874D03*
X663Y1031D03*
X820Y1071D03*
X978Y1031D03*
X1047Y874D03*
X1047Y716D03*
X820Y362D03*
X978Y401D03*
X1047Y559D03*
X663Y401D03*
X594Y559D03*
X594Y716D03*
X594Y874D03*
X663Y1031D03*
X820Y1071D03*
X978Y1031D03*
X1047Y874D03*
X1047Y716D03*
X820Y362D03*
G54D15*
X984Y75D03*
X984Y175D03*
X984Y75D03*
X984Y175D03*
X815Y79D03*
X815Y179D03*
X815Y79D03*
X815Y179D03*
G04 End of Mask1*
M02*