G04 MADE WITH FRITZING*
G04 WWW.FRITZING.ORG*
G04 DOUBLE SIDED*
G04 HOLES PLATED*
G04 CONTOUR ON CENTER OF CONTOUR VECTOR*
%ASAXBY*%
%FSLAX23Y23*%
%MOIN*%
%OFA0B0*%
%SFA1.0B1.0*%
%ADD10C,0.049370*%
%ADD11C,0.080000*%
%ADD12C,0.092000*%
%ADD13C,0.088000*%
%ADD14C,0.085000*%
%ADD15C,0.084000*%
%ADD16C,0.070000*%
%ADD17C,0.090000*%
%ADD18C,0.081889*%
%ADD19C,0.081917*%
%ADD20C,0.096614*%
%ADD21R,0.092000X0.092000*%
%ADD22R,0.085000X0.085000*%
%ADD23C,0.030000*%
%ADD24R,0.001000X0.001000*%
%LNMASK0*%
G90*
G70*
G54D10*
X1686Y1277D03*
X2296Y470D03*
X1095Y982D03*
X977Y844D03*
X760Y844D03*
X3674Y825D03*
X2749Y1435D03*
X2749Y687D03*
X3182Y214D03*
X3083Y628D03*
X3477Y785D03*
X2965Y943D03*
X3379Y136D03*
X3674Y175D03*
X1764Y648D03*
X1764Y529D03*
X1686Y529D03*
X3969Y1100D03*
X3024Y470D03*
X2001Y667D03*
X2690Y785D03*
X1686Y372D03*
X4107Y1317D03*
G54D11*
X3022Y549D03*
X3123Y549D03*
X3083Y1081D03*
X3083Y1181D03*
G54D12*
X760Y475D03*
X760Y175D03*
G54D13*
X1512Y116D03*
X1412Y116D03*
X1312Y116D03*
X1212Y116D03*
X2396Y293D03*
X2296Y293D03*
X2060Y492D03*
X2060Y392D03*
X1902Y588D03*
X1902Y488D03*
X1902Y388D03*
G54D14*
X1876Y923D03*
X2276Y923D03*
X977Y1048D03*
X977Y648D03*
G54D15*
X4264Y1438D03*
X4364Y1438D03*
X4264Y1338D03*
X4364Y1338D03*
X4264Y1238D03*
X4364Y1238D03*
X4264Y1138D03*
X4364Y1138D03*
X4264Y1038D03*
X4364Y1038D03*
X4264Y533D03*
X4364Y533D03*
X4264Y433D03*
X4364Y433D03*
X4264Y333D03*
X4364Y333D03*
X4264Y233D03*
X4364Y233D03*
X4264Y133D03*
X4364Y133D03*
G54D13*
X1860Y116D03*
X1960Y116D03*
X2060Y116D03*
X2160Y116D03*
G54D14*
X2867Y113D03*
X2867Y213D03*
X2867Y313D03*
X2867Y413D03*
X2867Y513D03*
X2867Y613D03*
X2867Y713D03*
X2867Y813D03*
X2867Y913D03*
X2867Y1013D03*
X2867Y1113D03*
X2867Y1213D03*
X2867Y1313D03*
X2534Y1413D03*
X2534Y1313D03*
X2534Y1213D03*
X2534Y1113D03*
X2534Y1013D03*
X2534Y913D03*
X2534Y813D03*
X2534Y713D03*
X2534Y613D03*
X2534Y513D03*
X2534Y413D03*
X2534Y313D03*
X2534Y213D03*
X2534Y113D03*
X2867Y1413D03*
G54D15*
X957Y1497D03*
X957Y1397D03*
X957Y1297D03*
G54D14*
X1587Y781D03*
X1287Y781D03*
X1587Y881D03*
X1287Y881D03*
X1587Y981D03*
X1287Y981D03*
X1587Y1081D03*
X1287Y1081D03*
X1587Y1181D03*
X1287Y1181D03*
X1587Y1281D03*
X1287Y1281D03*
X1587Y1381D03*
X1287Y1381D03*
X1587Y1481D03*
X1287Y1481D03*
X3274Y352D03*
X3274Y652D03*
X3374Y352D03*
X3374Y652D03*
X3474Y352D03*
X3474Y652D03*
X3574Y352D03*
X3574Y652D03*
X3674Y352D03*
X3674Y652D03*
X3774Y352D03*
X3774Y652D03*
X3874Y352D03*
X3874Y652D03*
X3974Y352D03*
X3974Y652D03*
X3274Y982D03*
X3274Y1282D03*
X3374Y982D03*
X3374Y1282D03*
X3474Y982D03*
X3474Y1282D03*
X3574Y982D03*
X3574Y1282D03*
X3674Y982D03*
X3674Y1282D03*
X3774Y982D03*
X3774Y1282D03*
X3874Y982D03*
X3874Y1282D03*
X3974Y982D03*
X3974Y1282D03*
G54D12*
X721Y1514D03*
X423Y1514D03*
G54D16*
X646Y982D03*
X546Y982D03*
X446Y982D03*
G54D14*
X464Y1238D03*
X564Y1238D03*
G54D11*
X760Y1279D03*
X760Y1179D03*
G54D14*
X1213Y674D03*
X1213Y274D03*
X1312Y674D03*
X1312Y274D03*
X1410Y674D03*
X1410Y274D03*
X1508Y674D03*
X1508Y274D03*
X2296Y1159D03*
X1896Y1159D03*
X2296Y1258D03*
X1896Y1258D03*
X2296Y1376D03*
X1896Y1376D03*
X2296Y1474D03*
X1896Y1474D03*
G54D17*
X150Y1061D03*
X150Y661D03*
G54D14*
X839Y1048D03*
X839Y648D03*
G54D11*
X463Y687D03*
X564Y687D03*
G54D12*
X347Y448D03*
X347Y746D03*
G54D17*
X2276Y805D03*
X1876Y805D03*
G54D11*
X2396Y707D03*
X2296Y707D03*
X2965Y687D03*
X2965Y787D03*
G54D14*
X1686Y667D03*
X1686Y267D03*
G54D11*
X2965Y175D03*
X2965Y75D03*
G54D14*
X268Y457D03*
X268Y57D03*
G54D18*
X111Y172D03*
X111Y272D03*
G54D19*
X111Y372D03*
G54D10*
X4107Y982D03*
X4107Y1100D03*
X4008Y1435D03*
X4107Y903D03*
X3970Y1377D03*
X3379Y864D03*
X3575Y864D03*
X3279Y215D03*
X3831Y215D03*
X3831Y76D03*
X3772Y589D03*
X3772Y510D03*
X4146Y608D03*
X4146Y353D03*
G54D20*
X1075Y77D03*
X3083Y1474D03*
X1134Y1474D03*
X3083Y77D03*
G54D21*
X760Y475D03*
G54D22*
X1587Y781D03*
X3274Y982D03*
G54D21*
X722Y1514D03*
G54D22*
X464Y1238D03*
G54D21*
X347Y447D03*
G54D23*
G36*
X3246Y380D02*
X3301Y380D01*
X3301Y325D01*
X3246Y325D01*
X3246Y380D01*
G37*
D02*
G54D24*
X915Y1539D02*
X998Y1539D01*
X915Y1538D02*
X998Y1538D01*
X915Y1537D02*
X998Y1537D01*
X915Y1536D02*
X998Y1536D01*
X915Y1535D02*
X998Y1535D01*
X915Y1534D02*
X998Y1534D01*
X915Y1533D02*
X998Y1533D01*
X915Y1532D02*
X998Y1532D01*
X915Y1531D02*
X998Y1531D01*
X915Y1530D02*
X998Y1530D01*
X915Y1529D02*
X998Y1529D01*
X915Y1528D02*
X998Y1528D01*
X915Y1527D02*
X998Y1527D01*
X915Y1526D02*
X998Y1526D01*
X915Y1525D02*
X998Y1525D01*
X915Y1524D02*
X998Y1524D01*
X915Y1523D02*
X998Y1523D01*
X915Y1522D02*
X998Y1522D01*
X915Y1521D02*
X998Y1521D01*
X915Y1520D02*
X998Y1520D01*
X915Y1519D02*
X998Y1519D01*
X915Y1518D02*
X998Y1518D01*
X915Y1517D02*
X998Y1517D01*
X915Y1516D02*
X998Y1516D01*
X915Y1515D02*
X998Y1515D01*
X915Y1514D02*
X998Y1514D01*
X915Y1513D02*
X998Y1513D01*
X915Y1512D02*
X998Y1512D01*
X915Y1511D02*
X951Y1511D01*
X962Y1511D02*
X998Y1511D01*
X915Y1510D02*
X949Y1510D01*
X964Y1510D02*
X998Y1510D01*
X915Y1509D02*
X947Y1509D01*
X966Y1509D02*
X998Y1509D01*
X915Y1508D02*
X946Y1508D01*
X967Y1508D02*
X998Y1508D01*
X915Y1507D02*
X945Y1507D01*
X968Y1507D02*
X998Y1507D01*
X915Y1506D02*
X944Y1506D01*
X969Y1506D02*
X998Y1506D01*
X915Y1505D02*
X944Y1505D01*
X970Y1505D02*
X998Y1505D01*
X915Y1504D02*
X943Y1504D01*
X970Y1504D02*
X998Y1504D01*
X915Y1503D02*
X943Y1503D01*
X971Y1503D02*
X998Y1503D01*
X915Y1502D02*
X942Y1502D01*
X971Y1502D02*
X998Y1502D01*
X915Y1501D02*
X942Y1501D01*
X971Y1501D02*
X998Y1501D01*
X915Y1500D02*
X942Y1500D01*
X972Y1500D02*
X998Y1500D01*
X915Y1499D02*
X942Y1499D01*
X972Y1499D02*
X998Y1499D01*
X915Y1498D02*
X942Y1498D01*
X972Y1498D02*
X998Y1498D01*
X915Y1497D02*
X942Y1497D01*
X972Y1497D02*
X998Y1497D01*
X915Y1496D02*
X942Y1496D01*
X972Y1496D02*
X998Y1496D01*
X915Y1495D02*
X942Y1495D01*
X972Y1495D02*
X998Y1495D01*
X915Y1494D02*
X942Y1494D01*
X972Y1494D02*
X998Y1494D01*
X915Y1493D02*
X942Y1493D01*
X971Y1493D02*
X998Y1493D01*
X915Y1492D02*
X942Y1492D01*
X971Y1492D02*
X998Y1492D01*
X915Y1491D02*
X943Y1491D01*
X971Y1491D02*
X998Y1491D01*
X915Y1490D02*
X943Y1490D01*
X970Y1490D02*
X998Y1490D01*
X915Y1489D02*
X944Y1489D01*
X969Y1489D02*
X998Y1489D01*
X915Y1488D02*
X945Y1488D01*
X969Y1488D02*
X998Y1488D01*
X915Y1487D02*
X946Y1487D01*
X968Y1487D02*
X998Y1487D01*
X915Y1486D02*
X947Y1486D01*
X967Y1486D02*
X998Y1486D01*
X915Y1485D02*
X948Y1485D01*
X965Y1485D02*
X998Y1485D01*
X915Y1484D02*
X950Y1484D01*
X964Y1484D02*
X998Y1484D01*
X915Y1483D02*
X952Y1483D01*
X961Y1483D02*
X998Y1483D01*
X915Y1482D02*
X998Y1482D01*
X915Y1481D02*
X998Y1481D01*
X915Y1480D02*
X998Y1480D01*
X915Y1479D02*
X998Y1479D01*
X915Y1478D02*
X998Y1478D01*
X915Y1477D02*
X998Y1477D01*
X915Y1476D02*
X998Y1476D01*
X915Y1475D02*
X998Y1475D01*
X915Y1474D02*
X998Y1474D01*
X915Y1473D02*
X998Y1473D01*
X915Y1472D02*
X998Y1472D01*
X915Y1471D02*
X998Y1471D01*
X915Y1470D02*
X998Y1470D01*
X915Y1469D02*
X998Y1469D01*
X915Y1468D02*
X998Y1468D01*
X915Y1467D02*
X998Y1467D01*
X915Y1466D02*
X998Y1466D01*
X915Y1465D02*
X998Y1465D01*
X915Y1464D02*
X998Y1464D01*
X915Y1463D02*
X998Y1463D01*
X915Y1462D02*
X998Y1462D01*
X915Y1461D02*
X998Y1461D01*
X915Y1460D02*
X998Y1460D01*
X915Y1459D02*
X998Y1459D01*
X915Y1458D02*
X998Y1458D01*
X915Y1457D02*
X998Y1457D01*
X915Y1456D02*
X998Y1456D01*
X126Y1396D02*
X134Y1396D01*
X326Y1396D02*
X334Y1396D01*
X121Y1395D02*
X139Y1395D01*
X321Y1395D02*
X339Y1395D01*
X117Y1394D02*
X143Y1394D01*
X317Y1394D02*
X343Y1394D01*
X115Y1393D02*
X145Y1393D01*
X315Y1393D02*
X345Y1393D01*
X113Y1392D02*
X147Y1392D01*
X313Y1392D02*
X347Y1392D01*
X111Y1391D02*
X149Y1391D01*
X311Y1391D02*
X349Y1391D01*
X109Y1390D02*
X151Y1390D01*
X309Y1390D02*
X351Y1390D01*
X108Y1389D02*
X152Y1389D01*
X308Y1389D02*
X352Y1389D01*
X106Y1388D02*
X154Y1388D01*
X306Y1388D02*
X354Y1388D01*
X105Y1387D02*
X155Y1387D01*
X305Y1387D02*
X355Y1387D01*
X104Y1386D02*
X156Y1386D01*
X304Y1386D02*
X356Y1386D01*
X103Y1385D02*
X157Y1385D01*
X303Y1385D02*
X357Y1385D01*
X102Y1384D02*
X158Y1384D01*
X302Y1384D02*
X358Y1384D01*
X101Y1383D02*
X159Y1383D01*
X301Y1383D02*
X359Y1383D01*
X100Y1382D02*
X160Y1382D01*
X300Y1382D02*
X360Y1382D01*
X99Y1381D02*
X161Y1381D01*
X299Y1381D02*
X361Y1381D01*
X98Y1380D02*
X162Y1380D01*
X298Y1380D02*
X362Y1380D01*
X98Y1379D02*
X162Y1379D01*
X298Y1379D02*
X362Y1379D01*
X97Y1378D02*
X163Y1378D01*
X297Y1378D02*
X363Y1378D01*
X96Y1377D02*
X164Y1377D01*
X296Y1377D02*
X364Y1377D01*
X96Y1376D02*
X164Y1376D01*
X296Y1376D02*
X364Y1376D01*
X95Y1375D02*
X165Y1375D01*
X295Y1375D02*
X365Y1375D01*
X95Y1374D02*
X165Y1374D01*
X295Y1374D02*
X365Y1374D01*
X94Y1373D02*
X166Y1373D01*
X294Y1373D02*
X366Y1373D01*
X94Y1372D02*
X166Y1372D01*
X294Y1372D02*
X366Y1372D01*
X93Y1371D02*
X167Y1371D01*
X293Y1371D02*
X367Y1371D01*
X93Y1370D02*
X167Y1370D01*
X293Y1370D02*
X367Y1370D01*
X93Y1369D02*
X167Y1369D01*
X293Y1369D02*
X367Y1369D01*
X92Y1368D02*
X168Y1368D01*
X292Y1368D02*
X368Y1368D01*
X92Y1367D02*
X168Y1367D01*
X292Y1367D02*
X368Y1367D01*
X92Y1366D02*
X168Y1366D01*
X292Y1366D02*
X368Y1366D01*
X92Y1365D02*
X168Y1365D01*
X292Y1365D02*
X368Y1365D01*
X91Y1364D02*
X169Y1364D01*
X291Y1364D02*
X369Y1364D01*
X91Y1363D02*
X169Y1363D01*
X291Y1363D02*
X369Y1363D01*
X91Y1362D02*
X169Y1362D01*
X291Y1362D02*
X369Y1362D01*
X91Y1361D02*
X169Y1361D01*
X291Y1361D02*
X369Y1361D01*
X91Y1360D02*
X169Y1360D01*
X291Y1360D02*
X369Y1360D01*
X91Y1359D02*
X169Y1359D01*
X291Y1359D02*
X369Y1359D01*
X91Y1358D02*
X169Y1358D01*
X291Y1358D02*
X369Y1358D01*
X91Y1357D02*
X169Y1357D01*
X291Y1357D02*
X369Y1357D01*
X91Y1356D02*
X169Y1356D01*
X291Y1356D02*
X369Y1356D01*
X91Y1355D02*
X169Y1355D01*
X291Y1355D02*
X369Y1355D01*
X91Y1354D02*
X169Y1354D01*
X291Y1354D02*
X369Y1354D01*
X91Y1353D02*
X169Y1353D01*
X291Y1353D02*
X369Y1353D01*
X91Y1352D02*
X169Y1352D01*
X291Y1352D02*
X369Y1352D01*
X91Y1351D02*
X169Y1351D01*
X291Y1351D02*
X369Y1351D01*
X91Y1350D02*
X169Y1350D01*
X291Y1350D02*
X369Y1350D01*
X91Y1349D02*
X169Y1349D01*
X291Y1349D02*
X369Y1349D01*
X91Y1348D02*
X169Y1348D01*
X291Y1348D02*
X369Y1348D01*
X92Y1347D02*
X168Y1347D01*
X292Y1347D02*
X368Y1347D01*
X92Y1346D02*
X168Y1346D01*
X292Y1346D02*
X368Y1346D01*
X92Y1345D02*
X168Y1345D01*
X292Y1345D02*
X368Y1345D01*
X93Y1344D02*
X168Y1344D01*
X292Y1344D02*
X368Y1344D01*
X93Y1343D02*
X167Y1343D01*
X293Y1343D02*
X367Y1343D01*
X93Y1342D02*
X167Y1342D01*
X293Y1342D02*
X367Y1342D01*
X94Y1341D02*
X166Y1341D01*
X294Y1341D02*
X366Y1341D01*
X94Y1340D02*
X166Y1340D01*
X294Y1340D02*
X366Y1340D01*
X95Y1339D02*
X166Y1339D01*
X294Y1339D02*
X365Y1339D01*
X95Y1338D02*
X165Y1338D01*
X295Y1338D02*
X365Y1338D01*
X96Y1337D02*
X164Y1337D01*
X296Y1337D02*
X364Y1337D01*
X96Y1336D02*
X164Y1336D01*
X296Y1336D02*
X364Y1336D01*
X97Y1335D02*
X163Y1335D01*
X297Y1335D02*
X363Y1335D01*
X97Y1334D02*
X163Y1334D01*
X297Y1334D02*
X363Y1334D01*
X98Y1333D02*
X162Y1333D01*
X298Y1333D02*
X362Y1333D01*
X99Y1332D02*
X161Y1332D01*
X299Y1332D02*
X361Y1332D01*
X100Y1331D02*
X160Y1331D01*
X300Y1331D02*
X360Y1331D01*
X100Y1330D02*
X160Y1330D01*
X300Y1330D02*
X360Y1330D01*
X101Y1329D02*
X159Y1329D01*
X301Y1329D02*
X359Y1329D01*
X102Y1328D02*
X158Y1328D01*
X302Y1328D02*
X358Y1328D01*
X103Y1327D02*
X157Y1327D01*
X303Y1327D02*
X357Y1327D01*
X105Y1326D02*
X156Y1326D01*
X304Y1326D02*
X356Y1326D01*
X106Y1325D02*
X154Y1325D01*
X306Y1325D02*
X354Y1325D01*
X107Y1324D02*
X153Y1324D01*
X307Y1324D02*
X353Y1324D01*
X109Y1323D02*
X152Y1323D01*
X308Y1323D02*
X351Y1323D01*
X110Y1322D02*
X150Y1322D01*
X310Y1322D02*
X350Y1322D01*
X112Y1321D02*
X148Y1321D01*
X312Y1321D02*
X348Y1321D01*
X114Y1320D02*
X146Y1320D01*
X314Y1320D02*
X346Y1320D01*
X116Y1319D02*
X144Y1319D01*
X316Y1319D02*
X344Y1319D01*
X119Y1318D02*
X141Y1318D01*
X319Y1318D02*
X341Y1318D01*
X124Y1317D02*
X136Y1317D01*
X324Y1317D02*
X336Y1317D01*
X226Y1196D02*
X234Y1196D01*
X221Y1195D02*
X239Y1195D01*
X217Y1194D02*
X243Y1194D01*
X215Y1193D02*
X245Y1193D01*
X213Y1192D02*
X248Y1192D01*
X211Y1191D02*
X249Y1191D01*
X209Y1190D02*
X251Y1190D01*
X208Y1189D02*
X252Y1189D01*
X206Y1188D02*
X254Y1188D01*
X205Y1187D02*
X255Y1187D01*
X204Y1186D02*
X256Y1186D01*
X203Y1185D02*
X257Y1185D01*
X202Y1184D02*
X258Y1184D01*
X201Y1183D02*
X259Y1183D01*
X200Y1182D02*
X260Y1182D01*
X199Y1181D02*
X261Y1181D01*
X198Y1180D02*
X262Y1180D01*
X198Y1179D02*
X262Y1179D01*
X197Y1178D02*
X263Y1178D01*
X196Y1177D02*
X264Y1177D01*
X196Y1176D02*
X264Y1176D01*
X195Y1175D02*
X265Y1175D01*
X195Y1174D02*
X265Y1174D01*
X194Y1173D02*
X266Y1173D01*
X194Y1172D02*
X266Y1172D01*
X193Y1171D02*
X267Y1171D01*
X193Y1170D02*
X267Y1170D01*
X193Y1169D02*
X267Y1169D01*
X192Y1168D02*
X268Y1168D01*
X192Y1167D02*
X268Y1167D01*
X192Y1166D02*
X268Y1166D01*
X192Y1165D02*
X268Y1165D01*
X191Y1164D02*
X269Y1164D01*
X191Y1163D02*
X269Y1163D01*
X191Y1162D02*
X269Y1162D01*
X191Y1161D02*
X269Y1161D01*
X191Y1160D02*
X269Y1160D01*
X191Y1159D02*
X269Y1159D01*
X191Y1158D02*
X269Y1158D01*
X191Y1157D02*
X269Y1157D01*
X191Y1156D02*
X269Y1156D01*
X191Y1155D02*
X269Y1155D01*
X191Y1154D02*
X269Y1154D01*
X191Y1153D02*
X269Y1153D01*
X191Y1152D02*
X269Y1152D01*
X191Y1151D02*
X269Y1151D01*
X191Y1150D02*
X269Y1150D01*
X191Y1149D02*
X269Y1149D01*
X191Y1148D02*
X269Y1148D01*
X192Y1147D02*
X268Y1147D01*
X192Y1146D02*
X268Y1146D01*
X192Y1145D02*
X268Y1145D01*
X193Y1144D02*
X268Y1144D01*
X193Y1143D02*
X267Y1143D01*
X193Y1142D02*
X267Y1142D01*
X194Y1141D02*
X266Y1141D01*
X194Y1140D02*
X266Y1140D01*
X195Y1139D02*
X265Y1139D01*
X195Y1138D02*
X265Y1138D01*
X196Y1137D02*
X264Y1137D01*
X196Y1136D02*
X264Y1136D01*
X197Y1135D02*
X263Y1135D01*
X197Y1134D02*
X263Y1134D01*
X198Y1133D02*
X262Y1133D01*
X199Y1132D02*
X261Y1132D01*
X200Y1131D02*
X260Y1131D01*
X201Y1130D02*
X260Y1130D01*
X201Y1129D02*
X259Y1129D01*
X202Y1128D02*
X258Y1128D01*
X203Y1127D02*
X257Y1127D01*
X205Y1126D02*
X255Y1126D01*
X206Y1125D02*
X254Y1125D01*
X207Y1124D02*
X253Y1124D01*
X209Y1123D02*
X251Y1123D01*
X210Y1122D02*
X250Y1122D01*
X212Y1121D02*
X248Y1121D01*
X214Y1120D02*
X246Y1120D01*
X216Y1119D02*
X244Y1119D01*
X219Y1118D02*
X241Y1118D01*
X224Y1117D02*
X236Y1117D01*
X441Y1047D02*
X449Y1047D01*
X541Y1047D02*
X549Y1047D01*
X641Y1047D02*
X649Y1047D01*
X436Y1046D02*
X454Y1046D01*
X536Y1046D02*
X554Y1046D01*
X636Y1046D02*
X654Y1046D01*
X433Y1045D02*
X457Y1045D01*
X533Y1045D02*
X557Y1045D01*
X633Y1045D02*
X657Y1045D01*
X431Y1044D02*
X459Y1044D01*
X531Y1044D02*
X559Y1044D01*
X631Y1044D02*
X659Y1044D01*
X429Y1043D02*
X461Y1043D01*
X529Y1043D02*
X561Y1043D01*
X629Y1043D02*
X661Y1043D01*
X427Y1042D02*
X463Y1042D01*
X527Y1042D02*
X563Y1042D01*
X627Y1042D02*
X663Y1042D01*
X425Y1041D02*
X464Y1041D01*
X525Y1041D02*
X564Y1041D01*
X625Y1041D02*
X664Y1041D01*
X424Y1040D02*
X466Y1040D01*
X524Y1040D02*
X566Y1040D01*
X624Y1040D02*
X666Y1040D01*
X423Y1039D02*
X467Y1039D01*
X523Y1039D02*
X567Y1039D01*
X623Y1039D02*
X667Y1039D01*
X422Y1038D02*
X468Y1038D01*
X522Y1038D02*
X568Y1038D01*
X622Y1038D02*
X668Y1038D01*
X421Y1037D02*
X469Y1037D01*
X521Y1037D02*
X569Y1037D01*
X621Y1037D02*
X669Y1037D01*
X420Y1036D02*
X470Y1036D01*
X520Y1036D02*
X570Y1036D01*
X620Y1036D02*
X670Y1036D01*
X419Y1035D02*
X471Y1035D01*
X519Y1035D02*
X571Y1035D01*
X619Y1035D02*
X671Y1035D01*
X418Y1034D02*
X472Y1034D01*
X518Y1034D02*
X572Y1034D01*
X618Y1034D02*
X672Y1034D01*
X417Y1033D02*
X473Y1033D01*
X517Y1033D02*
X573Y1033D01*
X617Y1033D02*
X673Y1033D01*
X417Y1032D02*
X473Y1032D01*
X517Y1032D02*
X573Y1032D01*
X617Y1032D02*
X673Y1032D01*
X416Y1031D02*
X474Y1031D01*
X516Y1031D02*
X574Y1031D01*
X616Y1031D02*
X674Y1031D01*
X415Y1030D02*
X475Y1030D01*
X515Y1030D02*
X575Y1030D01*
X615Y1030D02*
X675Y1030D01*
X415Y1029D02*
X475Y1029D01*
X515Y1029D02*
X575Y1029D01*
X615Y1029D02*
X675Y1029D01*
X414Y1028D02*
X476Y1028D01*
X514Y1028D02*
X576Y1028D01*
X614Y1028D02*
X676Y1028D01*
X414Y1027D02*
X476Y1027D01*
X514Y1027D02*
X576Y1027D01*
X614Y1027D02*
X676Y1027D01*
X413Y1026D02*
X477Y1026D01*
X513Y1026D02*
X577Y1026D01*
X613Y1026D02*
X677Y1026D01*
X413Y1025D02*
X477Y1025D01*
X513Y1025D02*
X577Y1025D01*
X613Y1025D02*
X677Y1025D01*
X413Y1024D02*
X477Y1024D01*
X513Y1024D02*
X577Y1024D01*
X613Y1024D02*
X677Y1024D01*
X412Y1023D02*
X478Y1023D01*
X512Y1023D02*
X578Y1023D01*
X612Y1023D02*
X678Y1023D01*
X412Y1022D02*
X478Y1022D01*
X512Y1022D02*
X578Y1022D01*
X612Y1022D02*
X678Y1022D01*
X412Y1021D02*
X478Y1021D01*
X512Y1021D02*
X578Y1021D01*
X612Y1021D02*
X678Y1021D01*
X411Y1020D02*
X479Y1020D01*
X511Y1020D02*
X579Y1020D01*
X611Y1020D02*
X678Y1020D01*
X411Y1019D02*
X479Y1019D01*
X511Y1019D02*
X579Y1019D01*
X611Y1019D02*
X679Y1019D01*
X411Y1018D02*
X479Y1018D01*
X511Y1018D02*
X579Y1018D01*
X611Y1018D02*
X679Y1018D01*
X411Y1017D02*
X479Y1017D01*
X511Y1017D02*
X579Y1017D01*
X611Y1017D02*
X679Y1017D01*
X411Y1016D02*
X479Y1016D01*
X511Y1016D02*
X579Y1016D01*
X611Y1016D02*
X679Y1016D01*
X411Y1015D02*
X479Y1015D01*
X511Y1015D02*
X579Y1015D01*
X611Y1015D02*
X679Y1015D01*
X411Y1014D02*
X479Y1014D01*
X511Y1014D02*
X579Y1014D01*
X611Y1014D02*
X679Y1014D01*
X410Y1013D02*
X479Y1013D01*
X510Y1013D02*
X579Y1013D01*
X610Y1013D02*
X679Y1013D01*
X410Y1012D02*
X479Y1012D01*
X510Y1012D02*
X579Y1012D01*
X610Y1012D02*
X679Y1012D01*
X410Y1011D02*
X479Y1011D01*
X510Y1011D02*
X579Y1011D01*
X610Y1011D02*
X679Y1011D01*
X410Y1010D02*
X479Y1010D01*
X510Y1010D02*
X579Y1010D01*
X610Y1010D02*
X679Y1010D01*
X410Y1009D02*
X479Y1009D01*
X510Y1009D02*
X579Y1009D01*
X610Y1009D02*
X679Y1009D01*
X410Y1008D02*
X479Y1008D01*
X510Y1008D02*
X579Y1008D01*
X610Y1008D02*
X679Y1008D01*
X410Y1007D02*
X479Y1007D01*
X510Y1007D02*
X579Y1007D01*
X610Y1007D02*
X679Y1007D01*
X410Y1006D02*
X479Y1006D01*
X510Y1006D02*
X579Y1006D01*
X610Y1006D02*
X679Y1006D01*
X410Y1005D02*
X479Y1005D01*
X510Y1005D02*
X579Y1005D01*
X610Y1005D02*
X679Y1005D01*
X410Y1004D02*
X479Y1004D01*
X510Y1004D02*
X579Y1004D01*
X610Y1004D02*
X679Y1004D01*
X410Y1003D02*
X479Y1003D01*
X510Y1003D02*
X579Y1003D01*
X610Y1003D02*
X679Y1003D01*
X410Y1002D02*
X479Y1002D01*
X510Y1002D02*
X579Y1002D01*
X610Y1002D02*
X679Y1002D01*
X410Y1001D02*
X479Y1001D01*
X510Y1001D02*
X579Y1001D01*
X610Y1001D02*
X679Y1001D01*
X410Y1000D02*
X479Y1000D01*
X510Y1000D02*
X579Y1000D01*
X610Y1000D02*
X679Y1000D01*
X410Y999D02*
X479Y999D01*
X510Y999D02*
X579Y999D01*
X610Y999D02*
X679Y999D01*
X410Y998D02*
X479Y998D01*
X510Y998D02*
X579Y998D01*
X610Y998D02*
X679Y998D01*
X410Y997D02*
X441Y997D01*
X449Y997D02*
X479Y997D01*
X510Y997D02*
X541Y997D01*
X549Y997D02*
X579Y997D01*
X610Y997D02*
X641Y997D01*
X649Y997D02*
X679Y997D01*
X410Y996D02*
X438Y996D01*
X452Y996D02*
X479Y996D01*
X510Y996D02*
X538Y996D01*
X552Y996D02*
X579Y996D01*
X610Y996D02*
X638Y996D01*
X652Y996D02*
X679Y996D01*
X410Y995D02*
X436Y995D01*
X454Y995D02*
X479Y995D01*
X510Y995D02*
X536Y995D01*
X554Y995D02*
X579Y995D01*
X610Y995D02*
X636Y995D01*
X654Y995D02*
X679Y995D01*
X410Y994D02*
X435Y994D01*
X455Y994D02*
X479Y994D01*
X510Y994D02*
X535Y994D01*
X555Y994D02*
X579Y994D01*
X610Y994D02*
X635Y994D01*
X655Y994D02*
X679Y994D01*
X410Y993D02*
X434Y993D01*
X456Y993D02*
X479Y993D01*
X510Y993D02*
X534Y993D01*
X556Y993D02*
X579Y993D01*
X610Y993D02*
X634Y993D01*
X656Y993D02*
X679Y993D01*
X410Y992D02*
X433Y992D01*
X457Y992D02*
X479Y992D01*
X510Y992D02*
X533Y992D01*
X557Y992D02*
X579Y992D01*
X610Y992D02*
X633Y992D01*
X657Y992D02*
X679Y992D01*
X410Y991D02*
X432Y991D01*
X458Y991D02*
X479Y991D01*
X510Y991D02*
X532Y991D01*
X558Y991D02*
X579Y991D01*
X610Y991D02*
X632Y991D01*
X658Y991D02*
X679Y991D01*
X410Y990D02*
X432Y990D01*
X458Y990D02*
X479Y990D01*
X510Y990D02*
X531Y990D01*
X558Y990D02*
X579Y990D01*
X610Y990D02*
X631Y990D01*
X658Y990D02*
X679Y990D01*
X410Y989D02*
X431Y989D01*
X459Y989D02*
X479Y989D01*
X510Y989D02*
X531Y989D01*
X559Y989D02*
X579Y989D01*
X610Y989D02*
X631Y989D01*
X659Y989D02*
X679Y989D01*
X410Y988D02*
X430Y988D01*
X459Y988D02*
X479Y988D01*
X510Y988D02*
X530Y988D01*
X559Y988D02*
X579Y988D01*
X610Y988D02*
X630Y988D01*
X659Y988D02*
X679Y988D01*
X410Y987D02*
X430Y987D01*
X460Y987D02*
X479Y987D01*
X510Y987D02*
X530Y987D01*
X560Y987D02*
X579Y987D01*
X610Y987D02*
X630Y987D01*
X660Y987D02*
X679Y987D01*
X410Y986D02*
X430Y986D01*
X460Y986D02*
X479Y986D01*
X510Y986D02*
X530Y986D01*
X560Y986D02*
X579Y986D01*
X610Y986D02*
X630Y986D01*
X660Y986D02*
X679Y986D01*
X410Y985D02*
X430Y985D01*
X460Y985D02*
X479Y985D01*
X510Y985D02*
X530Y985D01*
X560Y985D02*
X579Y985D01*
X610Y985D02*
X630Y985D01*
X660Y985D02*
X679Y985D01*
X410Y984D02*
X430Y984D01*
X460Y984D02*
X479Y984D01*
X510Y984D02*
X530Y984D01*
X560Y984D02*
X579Y984D01*
X610Y984D02*
X630Y984D01*
X660Y984D02*
X679Y984D01*
X410Y983D02*
X430Y983D01*
X460Y983D02*
X479Y983D01*
X510Y983D02*
X529Y983D01*
X560Y983D02*
X579Y983D01*
X610Y983D02*
X629Y983D01*
X660Y983D02*
X679Y983D01*
X410Y982D02*
X429Y982D01*
X460Y982D02*
X479Y982D01*
X510Y982D02*
X529Y982D01*
X560Y982D02*
X579Y982D01*
X610Y982D02*
X629Y982D01*
X660Y982D02*
X679Y982D01*
X410Y981D02*
X430Y981D01*
X460Y981D02*
X479Y981D01*
X510Y981D02*
X530Y981D01*
X560Y981D02*
X579Y981D01*
X610Y981D02*
X630Y981D01*
X660Y981D02*
X679Y981D01*
X410Y980D02*
X430Y980D01*
X460Y980D02*
X479Y980D01*
X510Y980D02*
X530Y980D01*
X560Y980D02*
X579Y980D01*
X610Y980D02*
X630Y980D01*
X660Y980D02*
X679Y980D01*
X410Y979D02*
X430Y979D01*
X460Y979D02*
X479Y979D01*
X510Y979D02*
X530Y979D01*
X560Y979D02*
X579Y979D01*
X610Y979D02*
X630Y979D01*
X660Y979D02*
X679Y979D01*
X410Y978D02*
X430Y978D01*
X460Y978D02*
X479Y978D01*
X510Y978D02*
X530Y978D01*
X560Y978D02*
X579Y978D01*
X610Y978D02*
X630Y978D01*
X660Y978D02*
X679Y978D01*
X410Y977D02*
X430Y977D01*
X459Y977D02*
X479Y977D01*
X510Y977D02*
X530Y977D01*
X559Y977D02*
X579Y977D01*
X610Y977D02*
X630Y977D01*
X659Y977D02*
X679Y977D01*
X410Y976D02*
X431Y976D01*
X459Y976D02*
X479Y976D01*
X510Y976D02*
X531Y976D01*
X559Y976D02*
X579Y976D01*
X610Y976D02*
X631Y976D01*
X659Y976D02*
X679Y976D01*
X410Y975D02*
X431Y975D01*
X459Y975D02*
X479Y975D01*
X510Y975D02*
X531Y975D01*
X558Y975D02*
X579Y975D01*
X610Y975D02*
X631Y975D01*
X658Y975D02*
X679Y975D01*
X410Y974D02*
X432Y974D01*
X458Y974D02*
X479Y974D01*
X510Y974D02*
X532Y974D01*
X558Y974D02*
X579Y974D01*
X610Y974D02*
X632Y974D01*
X658Y974D02*
X679Y974D01*
X410Y973D02*
X433Y973D01*
X457Y973D02*
X479Y973D01*
X510Y973D02*
X533Y973D01*
X557Y973D02*
X579Y973D01*
X610Y973D02*
X633Y973D01*
X657Y973D02*
X679Y973D01*
X410Y972D02*
X434Y972D01*
X456Y972D02*
X479Y972D01*
X510Y972D02*
X534Y972D01*
X556Y972D02*
X579Y972D01*
X610Y972D02*
X634Y972D01*
X656Y972D02*
X679Y972D01*
X410Y971D02*
X435Y971D01*
X455Y971D02*
X479Y971D01*
X510Y971D02*
X535Y971D01*
X555Y971D02*
X579Y971D01*
X610Y971D02*
X635Y971D01*
X655Y971D02*
X679Y971D01*
X410Y970D02*
X436Y970D01*
X454Y970D02*
X479Y970D01*
X510Y970D02*
X536Y970D01*
X554Y970D02*
X579Y970D01*
X610Y970D02*
X636Y970D01*
X654Y970D02*
X679Y970D01*
X410Y969D02*
X438Y969D01*
X452Y969D02*
X479Y969D01*
X510Y969D02*
X538Y969D01*
X552Y969D02*
X579Y969D01*
X610Y969D02*
X638Y969D01*
X652Y969D02*
X679Y969D01*
X410Y968D02*
X440Y968D01*
X450Y968D02*
X479Y968D01*
X510Y968D02*
X540Y968D01*
X550Y968D02*
X579Y968D01*
X610Y968D02*
X640Y968D01*
X650Y968D02*
X679Y968D01*
X410Y967D02*
X479Y967D01*
X510Y967D02*
X579Y967D01*
X610Y967D02*
X679Y967D01*
X410Y966D02*
X479Y966D01*
X510Y966D02*
X579Y966D01*
X610Y966D02*
X679Y966D01*
X410Y965D02*
X479Y965D01*
X510Y965D02*
X579Y965D01*
X610Y965D02*
X679Y965D01*
X410Y964D02*
X479Y964D01*
X510Y964D02*
X579Y964D01*
X610Y964D02*
X679Y964D01*
X410Y963D02*
X479Y963D01*
X510Y963D02*
X579Y963D01*
X610Y963D02*
X679Y963D01*
X410Y962D02*
X479Y962D01*
X510Y962D02*
X579Y962D01*
X610Y962D02*
X679Y962D01*
X410Y961D02*
X479Y961D01*
X510Y961D02*
X579Y961D01*
X610Y961D02*
X679Y961D01*
X410Y960D02*
X479Y960D01*
X510Y960D02*
X579Y960D01*
X610Y960D02*
X679Y960D01*
X410Y959D02*
X479Y959D01*
X510Y959D02*
X579Y959D01*
X610Y959D02*
X679Y959D01*
X410Y958D02*
X479Y958D01*
X510Y958D02*
X579Y958D01*
X610Y958D02*
X679Y958D01*
X410Y957D02*
X479Y957D01*
X510Y957D02*
X579Y957D01*
X610Y957D02*
X679Y957D01*
X410Y956D02*
X479Y956D01*
X510Y956D02*
X579Y956D01*
X610Y956D02*
X679Y956D01*
X410Y955D02*
X479Y955D01*
X510Y955D02*
X579Y955D01*
X610Y955D02*
X679Y955D01*
X410Y954D02*
X479Y954D01*
X510Y954D02*
X579Y954D01*
X610Y954D02*
X679Y954D01*
X410Y953D02*
X479Y953D01*
X510Y953D02*
X579Y953D01*
X610Y953D02*
X679Y953D01*
X410Y952D02*
X479Y952D01*
X510Y952D02*
X579Y952D01*
X610Y952D02*
X679Y952D01*
X411Y951D02*
X479Y951D01*
X511Y951D02*
X579Y951D01*
X610Y951D02*
X679Y951D01*
X411Y950D02*
X479Y950D01*
X511Y950D02*
X579Y950D01*
X611Y950D02*
X679Y950D01*
X411Y949D02*
X479Y949D01*
X511Y949D02*
X579Y949D01*
X611Y949D02*
X679Y949D01*
X411Y948D02*
X479Y948D01*
X511Y948D02*
X579Y948D01*
X611Y948D02*
X679Y948D01*
X411Y947D02*
X479Y947D01*
X511Y947D02*
X579Y947D01*
X611Y947D02*
X679Y947D01*
X411Y946D02*
X479Y946D01*
X511Y946D02*
X579Y946D01*
X611Y946D02*
X679Y946D01*
X411Y945D02*
X479Y945D01*
X511Y945D02*
X579Y945D01*
X611Y945D02*
X679Y945D01*
X412Y944D02*
X478Y944D01*
X512Y944D02*
X578Y944D01*
X612Y944D02*
X678Y944D01*
X412Y943D02*
X478Y943D01*
X512Y943D02*
X578Y943D01*
X612Y943D02*
X678Y943D01*
X412Y942D02*
X478Y942D01*
X512Y942D02*
X578Y942D01*
X612Y942D02*
X678Y942D01*
X412Y941D02*
X477Y941D01*
X512Y941D02*
X577Y941D01*
X612Y941D02*
X677Y941D01*
X413Y940D02*
X477Y940D01*
X513Y940D02*
X577Y940D01*
X613Y940D02*
X677Y940D01*
X413Y939D02*
X477Y939D01*
X513Y939D02*
X577Y939D01*
X613Y939D02*
X677Y939D01*
X414Y938D02*
X476Y938D01*
X514Y938D02*
X576Y938D01*
X614Y938D02*
X676Y938D01*
X414Y937D02*
X476Y937D01*
X514Y937D02*
X576Y937D01*
X614Y937D02*
X676Y937D01*
X415Y936D02*
X475Y936D01*
X515Y936D02*
X575Y936D01*
X615Y936D02*
X675Y936D01*
X415Y935D02*
X475Y935D01*
X515Y935D02*
X575Y935D01*
X615Y935D02*
X675Y935D01*
X416Y934D02*
X474Y934D01*
X516Y934D02*
X574Y934D01*
X616Y934D02*
X674Y934D01*
X416Y933D02*
X473Y933D01*
X516Y933D02*
X573Y933D01*
X616Y933D02*
X673Y933D01*
X417Y932D02*
X473Y932D01*
X517Y932D02*
X573Y932D01*
X617Y932D02*
X673Y932D01*
X418Y931D02*
X472Y931D01*
X518Y931D02*
X572Y931D01*
X618Y931D02*
X672Y931D01*
X419Y930D02*
X471Y930D01*
X519Y930D02*
X571Y930D01*
X619Y930D02*
X671Y930D01*
X419Y929D02*
X470Y929D01*
X519Y929D02*
X570Y929D01*
X619Y929D02*
X670Y929D01*
X420Y928D02*
X469Y928D01*
X520Y928D02*
X569Y928D01*
X620Y928D02*
X669Y928D01*
X421Y927D02*
X468Y927D01*
X521Y927D02*
X568Y927D01*
X621Y927D02*
X668Y927D01*
X423Y926D02*
X467Y926D01*
X523Y926D02*
X567Y926D01*
X623Y926D02*
X667Y926D01*
X424Y925D02*
X466Y925D01*
X524Y925D02*
X566Y925D01*
X624Y925D02*
X666Y925D01*
X425Y924D02*
X465Y924D01*
X525Y924D02*
X565Y924D01*
X625Y924D02*
X665Y924D01*
X427Y923D02*
X463Y923D01*
X527Y923D02*
X563Y923D01*
X627Y923D02*
X663Y923D01*
X428Y922D02*
X462Y922D01*
X528Y922D02*
X562Y922D01*
X628Y922D02*
X662Y922D01*
X430Y921D02*
X460Y921D01*
X530Y921D02*
X560Y921D01*
X630Y921D02*
X660Y921D01*
X433Y920D02*
X457Y920D01*
X533Y920D02*
X557Y920D01*
X633Y920D02*
X657Y920D01*
X435Y919D02*
X455Y919D01*
X535Y919D02*
X555Y919D01*
X635Y919D02*
X655Y919D01*
X439Y918D02*
X450Y918D01*
X539Y918D02*
X550Y918D01*
X639Y918D02*
X650Y918D01*
D02*
G04 End of Mask0*
M02*