G04 MADE WITH FRITZING*
G04 WWW.FRITZING.ORG*
G04 DOUBLE SIDED*
G04 HOLES PLATED*
G04 CONTOUR ON CENTER OF CONTOUR VECTOR*
%ASAXBY*%
%FSLAX23Y23*%
%MOIN*%
%OFA0B0*%
%SFA1.0B1.0*%
%ADD10C,0.049370*%
%ADD11C,0.080925*%
%ADD12C,0.080866*%
%ADD13C,0.080000*%
%ADD14C,0.096614*%
%ADD15C,0.092000*%
%ADD16C,0.088000*%
%ADD17C,0.085000*%
%ADD18C,0.084000*%
%ADD19C,0.070000*%
%ADD20C,0.090000*%
%ADD21C,0.084667*%
%ADD22C,0.084695*%
%ADD23R,0.092000X0.092000*%
%ADD24R,0.085000X0.085000*%
%ADD25C,0.030000*%
%ADD26R,0.001000X0.001000*%
%LNMASK0*%
G90*
G70*
G54D10*
X2305Y449D03*
X3044Y234D03*
G54D11*
X3005Y1041D03*
G54D12*
X3005Y1234D03*
G54D13*
X3101Y880D03*
X3001Y880D03*
X3105Y1407D03*
X3005Y1407D03*
G54D10*
X4134Y966D03*
X4134Y1108D03*
X4008Y1435D03*
X4134Y903D03*
X3970Y1377D03*
X3379Y864D03*
X3575Y864D03*
X3279Y215D03*
X3831Y215D03*
X3831Y76D03*
X3772Y589D03*
X3772Y510D03*
X4146Y608D03*
X4146Y353D03*
G54D14*
X1075Y77D03*
X3162Y1474D03*
X1134Y1474D03*
X3162Y77D03*
G54D10*
X1686Y1277D03*
X1095Y982D03*
X957Y844D03*
X760Y844D03*
X3674Y825D03*
X2749Y1435D03*
X2749Y714D03*
X3083Y608D03*
X3477Y785D03*
X2910Y821D03*
X3379Y136D03*
X3674Y175D03*
X1764Y648D03*
X1764Y529D03*
X1686Y529D03*
X3969Y1100D03*
X3024Y470D03*
X2001Y667D03*
X2690Y805D03*
X1686Y372D03*
X4134Y1321D03*
G54D13*
X3022Y549D03*
X3123Y549D03*
X3150Y1039D03*
X3150Y1140D03*
G54D15*
X760Y475D03*
X760Y175D03*
G54D16*
X1512Y116D03*
X1412Y116D03*
X1312Y116D03*
X1212Y116D03*
X2409Y301D03*
X2309Y301D03*
X2209Y301D03*
X2944Y116D03*
X3044Y116D03*
X2060Y492D03*
X2060Y392D03*
X1902Y588D03*
X1902Y488D03*
X1902Y388D03*
G54D17*
X1876Y923D03*
X2276Y923D03*
X977Y1079D03*
X977Y679D03*
G54D18*
X4264Y1438D03*
X4364Y1438D03*
X4264Y1338D03*
X4364Y1338D03*
X4264Y1238D03*
X4364Y1238D03*
X4264Y1138D03*
X4364Y1138D03*
X4264Y1038D03*
X4364Y1038D03*
X4264Y533D03*
X4364Y533D03*
X4264Y433D03*
X4364Y433D03*
X4264Y333D03*
X4364Y333D03*
X4264Y233D03*
X4364Y233D03*
X4264Y133D03*
X4364Y133D03*
G54D16*
X1860Y116D03*
X1960Y116D03*
X2060Y116D03*
X2160Y116D03*
G54D17*
X2845Y111D03*
X2845Y211D03*
X2845Y311D03*
X2845Y411D03*
X2845Y511D03*
X2845Y611D03*
X2845Y711D03*
X2845Y811D03*
X2845Y911D03*
X2845Y1011D03*
X2845Y1111D03*
X2845Y1211D03*
X2845Y1311D03*
X2512Y1411D03*
X2512Y1311D03*
X2512Y1211D03*
X2512Y1111D03*
X2512Y1011D03*
X2512Y911D03*
X2512Y811D03*
X2512Y711D03*
X2512Y611D03*
X2512Y511D03*
X2512Y411D03*
X2512Y311D03*
X2512Y211D03*
X2512Y111D03*
X2845Y1411D03*
G54D18*
X957Y1497D03*
X957Y1397D03*
X957Y1297D03*
G54D17*
X1587Y781D03*
X1287Y781D03*
X1587Y881D03*
X1287Y881D03*
X1587Y981D03*
X1287Y981D03*
X1587Y1081D03*
X1287Y1081D03*
X1587Y1181D03*
X1287Y1181D03*
X1587Y1281D03*
X1287Y1281D03*
X1587Y1381D03*
X1287Y1381D03*
X1587Y1481D03*
X1287Y1481D03*
X3274Y352D03*
X3274Y652D03*
X3374Y352D03*
X3374Y652D03*
X3474Y352D03*
X3474Y652D03*
X3574Y352D03*
X3574Y652D03*
X3674Y352D03*
X3674Y652D03*
X3774Y352D03*
X3774Y652D03*
X3874Y352D03*
X3874Y652D03*
X3974Y352D03*
X3974Y652D03*
X3274Y982D03*
X3274Y1282D03*
X3374Y982D03*
X3374Y1282D03*
X3474Y982D03*
X3474Y1282D03*
X3574Y982D03*
X3574Y1282D03*
X3674Y982D03*
X3674Y1282D03*
X3774Y982D03*
X3774Y1282D03*
X3874Y982D03*
X3874Y1282D03*
X3974Y982D03*
X3974Y1282D03*
G54D15*
X724Y1494D03*
X426Y1494D03*
G54D19*
X644Y1002D03*
X544Y1002D03*
X444Y1002D03*
G54D17*
X464Y1238D03*
X564Y1238D03*
G54D13*
X760Y1279D03*
X760Y1179D03*
G54D17*
X1213Y674D03*
X1213Y274D03*
X1312Y674D03*
X1312Y274D03*
X1410Y674D03*
X1410Y274D03*
X1508Y674D03*
X1508Y274D03*
X2296Y1159D03*
X1896Y1159D03*
X2296Y1258D03*
X1896Y1258D03*
X2296Y1376D03*
X1896Y1376D03*
X2296Y1474D03*
X1896Y1474D03*
G54D20*
X150Y1061D03*
X150Y661D03*
G54D17*
X839Y1079D03*
X839Y679D03*
G54D13*
X463Y726D03*
X564Y726D03*
G54D15*
X347Y456D03*
X347Y754D03*
G54D20*
X2276Y805D03*
X1876Y805D03*
G54D13*
X2396Y707D03*
X2296Y707D03*
X2965Y665D03*
X2965Y766D03*
G54D17*
X1686Y667D03*
X1686Y267D03*
G54D13*
X3123Y344D03*
X3022Y344D03*
G54D17*
X268Y457D03*
X268Y57D03*
G54D21*
X111Y172D03*
X111Y272D03*
G54D22*
X111Y372D03*
G54D23*
X760Y475D03*
G54D24*
X1587Y781D03*
X3274Y982D03*
G54D23*
X725Y1494D03*
G54D24*
X464Y1238D03*
G54D23*
X347Y455D03*
G54D25*
G36*
X3246Y380D02*
X3301Y380D01*
X3301Y325D01*
X3246Y325D01*
X3246Y380D01*
G37*
D02*
G54D26*
X915Y1539D02*
X998Y1539D01*
X915Y1538D02*
X998Y1538D01*
X915Y1537D02*
X998Y1537D01*
X915Y1536D02*
X998Y1536D01*
X915Y1535D02*
X998Y1535D01*
X915Y1534D02*
X998Y1534D01*
X915Y1533D02*
X998Y1533D01*
X915Y1532D02*
X998Y1532D01*
X915Y1531D02*
X998Y1531D01*
X915Y1530D02*
X998Y1530D01*
X915Y1529D02*
X998Y1529D01*
X915Y1528D02*
X998Y1528D01*
X915Y1527D02*
X998Y1527D01*
X915Y1526D02*
X998Y1526D01*
X915Y1525D02*
X998Y1525D01*
X915Y1524D02*
X998Y1524D01*
X915Y1523D02*
X998Y1523D01*
X915Y1522D02*
X998Y1522D01*
X915Y1521D02*
X998Y1521D01*
X915Y1520D02*
X998Y1520D01*
X915Y1519D02*
X998Y1519D01*
X915Y1518D02*
X998Y1518D01*
X915Y1517D02*
X998Y1517D01*
X915Y1516D02*
X998Y1516D01*
X915Y1515D02*
X998Y1515D01*
X915Y1514D02*
X998Y1514D01*
X915Y1513D02*
X998Y1513D01*
X915Y1512D02*
X998Y1512D01*
X915Y1511D02*
X951Y1511D01*
X962Y1511D02*
X998Y1511D01*
X915Y1510D02*
X949Y1510D01*
X964Y1510D02*
X998Y1510D01*
X915Y1509D02*
X947Y1509D01*
X966Y1509D02*
X998Y1509D01*
X915Y1508D02*
X946Y1508D01*
X967Y1508D02*
X998Y1508D01*
X915Y1507D02*
X945Y1507D01*
X968Y1507D02*
X998Y1507D01*
X915Y1506D02*
X944Y1506D01*
X969Y1506D02*
X998Y1506D01*
X915Y1505D02*
X944Y1505D01*
X970Y1505D02*
X998Y1505D01*
X915Y1504D02*
X943Y1504D01*
X970Y1504D02*
X998Y1504D01*
X915Y1503D02*
X943Y1503D01*
X971Y1503D02*
X998Y1503D01*
X915Y1502D02*
X942Y1502D01*
X971Y1502D02*
X998Y1502D01*
X915Y1501D02*
X942Y1501D01*
X971Y1501D02*
X998Y1501D01*
X915Y1500D02*
X942Y1500D01*
X972Y1500D02*
X998Y1500D01*
X915Y1499D02*
X942Y1499D01*
X972Y1499D02*
X998Y1499D01*
X915Y1498D02*
X942Y1498D01*
X972Y1498D02*
X998Y1498D01*
X915Y1497D02*
X942Y1497D01*
X972Y1497D02*
X998Y1497D01*
X915Y1496D02*
X942Y1496D01*
X972Y1496D02*
X998Y1496D01*
X915Y1495D02*
X942Y1495D01*
X972Y1495D02*
X998Y1495D01*
X915Y1494D02*
X942Y1494D01*
X972Y1494D02*
X998Y1494D01*
X915Y1493D02*
X942Y1493D01*
X971Y1493D02*
X998Y1493D01*
X915Y1492D02*
X942Y1492D01*
X971Y1492D02*
X998Y1492D01*
X915Y1491D02*
X943Y1491D01*
X971Y1491D02*
X998Y1491D01*
X915Y1490D02*
X943Y1490D01*
X970Y1490D02*
X998Y1490D01*
X915Y1489D02*
X944Y1489D01*
X969Y1489D02*
X998Y1489D01*
X915Y1488D02*
X945Y1488D01*
X969Y1488D02*
X998Y1488D01*
X915Y1487D02*
X946Y1487D01*
X968Y1487D02*
X998Y1487D01*
X915Y1486D02*
X947Y1486D01*
X967Y1486D02*
X998Y1486D01*
X915Y1485D02*
X948Y1485D01*
X965Y1485D02*
X998Y1485D01*
X915Y1484D02*
X950Y1484D01*
X964Y1484D02*
X998Y1484D01*
X915Y1483D02*
X952Y1483D01*
X961Y1483D02*
X998Y1483D01*
X915Y1482D02*
X998Y1482D01*
X915Y1481D02*
X998Y1481D01*
X915Y1480D02*
X998Y1480D01*
X915Y1479D02*
X998Y1479D01*
X915Y1478D02*
X998Y1478D01*
X915Y1477D02*
X998Y1477D01*
X915Y1476D02*
X998Y1476D01*
X915Y1475D02*
X998Y1475D01*
X915Y1474D02*
X998Y1474D01*
X915Y1473D02*
X998Y1473D01*
X915Y1472D02*
X998Y1472D01*
X915Y1471D02*
X998Y1471D01*
X915Y1470D02*
X998Y1470D01*
X915Y1469D02*
X998Y1469D01*
X915Y1468D02*
X998Y1468D01*
X915Y1467D02*
X998Y1467D01*
X915Y1466D02*
X998Y1466D01*
X915Y1465D02*
X998Y1465D01*
X915Y1464D02*
X998Y1464D01*
X915Y1463D02*
X998Y1463D01*
X915Y1462D02*
X998Y1462D01*
X915Y1461D02*
X998Y1461D01*
X915Y1460D02*
X998Y1460D01*
X915Y1459D02*
X998Y1459D01*
X915Y1458D02*
X998Y1458D01*
X915Y1457D02*
X998Y1457D01*
X915Y1456D02*
X998Y1456D01*
X126Y1396D02*
X134Y1396D01*
X326Y1396D02*
X334Y1396D01*
X121Y1395D02*
X139Y1395D01*
X321Y1395D02*
X339Y1395D01*
X117Y1394D02*
X143Y1394D01*
X317Y1394D02*
X343Y1394D01*
X115Y1393D02*
X145Y1393D01*
X315Y1393D02*
X345Y1393D01*
X113Y1392D02*
X147Y1392D01*
X313Y1392D02*
X347Y1392D01*
X111Y1391D02*
X149Y1391D01*
X311Y1391D02*
X349Y1391D01*
X109Y1390D02*
X151Y1390D01*
X309Y1390D02*
X351Y1390D01*
X108Y1389D02*
X152Y1389D01*
X308Y1389D02*
X352Y1389D01*
X106Y1388D02*
X154Y1388D01*
X306Y1388D02*
X354Y1388D01*
X105Y1387D02*
X155Y1387D01*
X305Y1387D02*
X355Y1387D01*
X104Y1386D02*
X156Y1386D01*
X304Y1386D02*
X356Y1386D01*
X103Y1385D02*
X157Y1385D01*
X303Y1385D02*
X357Y1385D01*
X102Y1384D02*
X158Y1384D01*
X302Y1384D02*
X358Y1384D01*
X101Y1383D02*
X159Y1383D01*
X301Y1383D02*
X359Y1383D01*
X100Y1382D02*
X160Y1382D01*
X300Y1382D02*
X360Y1382D01*
X99Y1381D02*
X161Y1381D01*
X299Y1381D02*
X361Y1381D01*
X98Y1380D02*
X162Y1380D01*
X298Y1380D02*
X362Y1380D01*
X98Y1379D02*
X162Y1379D01*
X298Y1379D02*
X362Y1379D01*
X97Y1378D02*
X163Y1378D01*
X297Y1378D02*
X363Y1378D01*
X96Y1377D02*
X164Y1377D01*
X296Y1377D02*
X364Y1377D01*
X96Y1376D02*
X164Y1376D01*
X296Y1376D02*
X364Y1376D01*
X95Y1375D02*
X165Y1375D01*
X295Y1375D02*
X365Y1375D01*
X95Y1374D02*
X165Y1374D01*
X295Y1374D02*
X365Y1374D01*
X94Y1373D02*
X166Y1373D01*
X294Y1373D02*
X366Y1373D01*
X94Y1372D02*
X166Y1372D01*
X294Y1372D02*
X366Y1372D01*
X93Y1371D02*
X167Y1371D01*
X293Y1371D02*
X367Y1371D01*
X93Y1370D02*
X167Y1370D01*
X293Y1370D02*
X367Y1370D01*
X93Y1369D02*
X167Y1369D01*
X293Y1369D02*
X367Y1369D01*
X92Y1368D02*
X168Y1368D01*
X292Y1368D02*
X368Y1368D01*
X92Y1367D02*
X168Y1367D01*
X292Y1367D02*
X368Y1367D01*
X92Y1366D02*
X168Y1366D01*
X292Y1366D02*
X368Y1366D01*
X92Y1365D02*
X168Y1365D01*
X292Y1365D02*
X368Y1365D01*
X91Y1364D02*
X169Y1364D01*
X291Y1364D02*
X369Y1364D01*
X91Y1363D02*
X169Y1363D01*
X291Y1363D02*
X369Y1363D01*
X91Y1362D02*
X169Y1362D01*
X291Y1362D02*
X369Y1362D01*
X91Y1361D02*
X169Y1361D01*
X291Y1361D02*
X369Y1361D01*
X91Y1360D02*
X169Y1360D01*
X291Y1360D02*
X369Y1360D01*
X91Y1359D02*
X169Y1359D01*
X291Y1359D02*
X369Y1359D01*
X91Y1358D02*
X169Y1358D01*
X291Y1358D02*
X369Y1358D01*
X91Y1357D02*
X169Y1357D01*
X291Y1357D02*
X369Y1357D01*
X91Y1356D02*
X169Y1356D01*
X291Y1356D02*
X369Y1356D01*
X91Y1355D02*
X169Y1355D01*
X291Y1355D02*
X369Y1355D01*
X91Y1354D02*
X169Y1354D01*
X291Y1354D02*
X369Y1354D01*
X91Y1353D02*
X169Y1353D01*
X291Y1353D02*
X369Y1353D01*
X91Y1352D02*
X169Y1352D01*
X291Y1352D02*
X369Y1352D01*
X91Y1351D02*
X169Y1351D01*
X291Y1351D02*
X369Y1351D01*
X91Y1350D02*
X169Y1350D01*
X291Y1350D02*
X369Y1350D01*
X91Y1349D02*
X169Y1349D01*
X291Y1349D02*
X369Y1349D01*
X91Y1348D02*
X169Y1348D01*
X291Y1348D02*
X369Y1348D01*
X92Y1347D02*
X168Y1347D01*
X292Y1347D02*
X368Y1347D01*
X92Y1346D02*
X168Y1346D01*
X292Y1346D02*
X368Y1346D01*
X92Y1345D02*
X168Y1345D01*
X292Y1345D02*
X368Y1345D01*
X93Y1344D02*
X168Y1344D01*
X292Y1344D02*
X368Y1344D01*
X93Y1343D02*
X167Y1343D01*
X293Y1343D02*
X367Y1343D01*
X93Y1342D02*
X167Y1342D01*
X293Y1342D02*
X367Y1342D01*
X94Y1341D02*
X166Y1341D01*
X294Y1341D02*
X366Y1341D01*
X94Y1340D02*
X166Y1340D01*
X294Y1340D02*
X366Y1340D01*
X95Y1339D02*
X166Y1339D01*
X294Y1339D02*
X365Y1339D01*
X95Y1338D02*
X165Y1338D01*
X295Y1338D02*
X365Y1338D01*
X96Y1337D02*
X164Y1337D01*
X296Y1337D02*
X364Y1337D01*
X96Y1336D02*
X164Y1336D01*
X296Y1336D02*
X364Y1336D01*
X97Y1335D02*
X163Y1335D01*
X297Y1335D02*
X363Y1335D01*
X97Y1334D02*
X163Y1334D01*
X297Y1334D02*
X363Y1334D01*
X98Y1333D02*
X162Y1333D01*
X298Y1333D02*
X362Y1333D01*
X99Y1332D02*
X161Y1332D01*
X299Y1332D02*
X361Y1332D01*
X100Y1331D02*
X160Y1331D01*
X300Y1331D02*
X360Y1331D01*
X100Y1330D02*
X160Y1330D01*
X300Y1330D02*
X360Y1330D01*
X101Y1329D02*
X159Y1329D01*
X301Y1329D02*
X359Y1329D01*
X102Y1328D02*
X158Y1328D01*
X302Y1328D02*
X358Y1328D01*
X103Y1327D02*
X157Y1327D01*
X303Y1327D02*
X357Y1327D01*
X104Y1326D02*
X156Y1326D01*
X304Y1326D02*
X356Y1326D01*
X106Y1325D02*
X154Y1325D01*
X306Y1325D02*
X354Y1325D01*
X107Y1324D02*
X153Y1324D01*
X307Y1324D02*
X353Y1324D01*
X108Y1323D02*
X152Y1323D01*
X308Y1323D02*
X352Y1323D01*
X110Y1322D02*
X150Y1322D01*
X310Y1322D02*
X350Y1322D01*
X112Y1321D02*
X148Y1321D01*
X312Y1321D02*
X348Y1321D01*
X114Y1320D02*
X146Y1320D01*
X314Y1320D02*
X346Y1320D01*
X116Y1319D02*
X144Y1319D01*
X316Y1319D02*
X344Y1319D01*
X119Y1318D02*
X141Y1318D01*
X319Y1318D02*
X341Y1318D01*
X124Y1317D02*
X136Y1317D01*
X324Y1317D02*
X336Y1317D01*
X226Y1196D02*
X234Y1196D01*
X221Y1195D02*
X239Y1195D01*
X217Y1194D02*
X243Y1194D01*
X215Y1193D02*
X245Y1193D01*
X213Y1192D02*
X248Y1192D01*
X211Y1191D02*
X249Y1191D01*
X209Y1190D02*
X251Y1190D01*
X208Y1189D02*
X252Y1189D01*
X206Y1188D02*
X254Y1188D01*
X205Y1187D02*
X255Y1187D01*
X204Y1186D02*
X256Y1186D01*
X203Y1185D02*
X257Y1185D01*
X202Y1184D02*
X258Y1184D01*
X201Y1183D02*
X259Y1183D01*
X200Y1182D02*
X260Y1182D01*
X199Y1181D02*
X261Y1181D01*
X198Y1180D02*
X262Y1180D01*
X198Y1179D02*
X262Y1179D01*
X197Y1178D02*
X263Y1178D01*
X196Y1177D02*
X264Y1177D01*
X196Y1176D02*
X264Y1176D01*
X195Y1175D02*
X265Y1175D01*
X195Y1174D02*
X265Y1174D01*
X194Y1173D02*
X266Y1173D01*
X194Y1172D02*
X266Y1172D01*
X193Y1171D02*
X267Y1171D01*
X193Y1170D02*
X267Y1170D01*
X193Y1169D02*
X267Y1169D01*
X192Y1168D02*
X268Y1168D01*
X192Y1167D02*
X268Y1167D01*
X192Y1166D02*
X268Y1166D01*
X192Y1165D02*
X268Y1165D01*
X191Y1164D02*
X269Y1164D01*
X191Y1163D02*
X269Y1163D01*
X191Y1162D02*
X269Y1162D01*
X191Y1161D02*
X269Y1161D01*
X191Y1160D02*
X269Y1160D01*
X191Y1159D02*
X269Y1159D01*
X191Y1158D02*
X269Y1158D01*
X191Y1157D02*
X269Y1157D01*
X191Y1156D02*
X269Y1156D01*
X191Y1155D02*
X269Y1155D01*
X191Y1154D02*
X269Y1154D01*
X191Y1153D02*
X269Y1153D01*
X191Y1152D02*
X269Y1152D01*
X191Y1151D02*
X269Y1151D01*
X191Y1150D02*
X269Y1150D01*
X191Y1149D02*
X269Y1149D01*
X191Y1148D02*
X269Y1148D01*
X192Y1147D02*
X268Y1147D01*
X192Y1146D02*
X268Y1146D01*
X192Y1145D02*
X268Y1145D01*
X193Y1144D02*
X268Y1144D01*
X193Y1143D02*
X267Y1143D01*
X193Y1142D02*
X267Y1142D01*
X194Y1141D02*
X266Y1141D01*
X194Y1140D02*
X266Y1140D01*
X195Y1139D02*
X265Y1139D01*
X195Y1138D02*
X265Y1138D01*
X196Y1137D02*
X264Y1137D01*
X196Y1136D02*
X264Y1136D01*
X197Y1135D02*
X263Y1135D01*
X197Y1134D02*
X263Y1134D01*
X198Y1133D02*
X262Y1133D01*
X199Y1132D02*
X261Y1132D01*
X200Y1131D02*
X260Y1131D01*
X201Y1130D02*
X260Y1130D01*
X201Y1129D02*
X259Y1129D01*
X202Y1128D02*
X258Y1128D01*
X203Y1127D02*
X257Y1127D01*
X205Y1126D02*
X255Y1126D01*
X206Y1125D02*
X254Y1125D01*
X207Y1124D02*
X253Y1124D01*
X209Y1123D02*
X251Y1123D01*
X210Y1122D02*
X250Y1122D01*
X212Y1121D02*
X248Y1121D01*
X214Y1120D02*
X246Y1120D01*
X216Y1119D02*
X244Y1119D01*
X219Y1118D02*
X241Y1118D01*
X224Y1117D02*
X236Y1117D01*
X443Y1067D02*
X444Y1067D01*
X543Y1067D02*
X544Y1067D01*
X643Y1067D02*
X644Y1067D01*
X436Y1066D02*
X451Y1066D01*
X536Y1066D02*
X551Y1066D01*
X636Y1066D02*
X651Y1066D01*
X432Y1065D02*
X454Y1065D01*
X532Y1065D02*
X554Y1065D01*
X632Y1065D02*
X654Y1065D01*
X430Y1064D02*
X457Y1064D01*
X530Y1064D02*
X557Y1064D01*
X630Y1064D02*
X657Y1064D01*
X428Y1063D02*
X459Y1063D01*
X528Y1063D02*
X559Y1063D01*
X628Y1063D02*
X659Y1063D01*
X426Y1062D02*
X461Y1062D01*
X526Y1062D02*
X561Y1062D01*
X626Y1062D02*
X661Y1062D01*
X424Y1061D02*
X462Y1061D01*
X524Y1061D02*
X562Y1061D01*
X624Y1061D02*
X662Y1061D01*
X423Y1060D02*
X464Y1060D01*
X523Y1060D02*
X564Y1060D01*
X623Y1060D02*
X664Y1060D01*
X422Y1059D02*
X465Y1059D01*
X522Y1059D02*
X565Y1059D01*
X622Y1059D02*
X665Y1059D01*
X420Y1058D02*
X466Y1058D01*
X520Y1058D02*
X566Y1058D01*
X620Y1058D02*
X666Y1058D01*
X419Y1057D02*
X467Y1057D01*
X519Y1057D02*
X567Y1057D01*
X619Y1057D02*
X667Y1057D01*
X418Y1056D02*
X468Y1056D01*
X518Y1056D02*
X568Y1056D01*
X618Y1056D02*
X668Y1056D01*
X418Y1055D02*
X469Y1055D01*
X517Y1055D02*
X569Y1055D01*
X617Y1055D02*
X669Y1055D01*
X417Y1054D02*
X470Y1054D01*
X517Y1054D02*
X570Y1054D01*
X617Y1054D02*
X670Y1054D01*
X416Y1053D02*
X471Y1053D01*
X516Y1053D02*
X571Y1053D01*
X616Y1053D02*
X671Y1053D01*
X415Y1052D02*
X472Y1052D01*
X515Y1052D02*
X572Y1052D01*
X615Y1052D02*
X672Y1052D01*
X415Y1051D02*
X472Y1051D01*
X515Y1051D02*
X572Y1051D01*
X615Y1051D02*
X672Y1051D01*
X414Y1050D02*
X473Y1050D01*
X514Y1050D02*
X573Y1050D01*
X614Y1050D02*
X673Y1050D01*
X413Y1049D02*
X473Y1049D01*
X513Y1049D02*
X573Y1049D01*
X613Y1049D02*
X673Y1049D01*
X413Y1048D02*
X474Y1048D01*
X513Y1048D02*
X574Y1048D01*
X613Y1048D02*
X674Y1048D01*
X412Y1047D02*
X474Y1047D01*
X512Y1047D02*
X574Y1047D01*
X612Y1047D02*
X674Y1047D01*
X412Y1046D02*
X475Y1046D01*
X512Y1046D02*
X575Y1046D01*
X612Y1046D02*
X675Y1046D01*
X411Y1045D02*
X475Y1045D01*
X511Y1045D02*
X575Y1045D01*
X611Y1045D02*
X675Y1045D01*
X411Y1044D02*
X476Y1044D01*
X511Y1044D02*
X576Y1044D01*
X611Y1044D02*
X676Y1044D01*
X411Y1043D02*
X476Y1043D01*
X511Y1043D02*
X576Y1043D01*
X611Y1043D02*
X676Y1043D01*
X410Y1042D02*
X476Y1042D01*
X510Y1042D02*
X576Y1042D01*
X610Y1042D02*
X676Y1042D01*
X410Y1041D02*
X477Y1041D01*
X510Y1041D02*
X577Y1041D01*
X610Y1041D02*
X677Y1041D01*
X410Y1040D02*
X477Y1040D01*
X510Y1040D02*
X577Y1040D01*
X610Y1040D02*
X677Y1040D01*
X410Y1039D02*
X477Y1039D01*
X510Y1039D02*
X577Y1039D01*
X610Y1039D02*
X677Y1039D01*
X409Y1038D02*
X477Y1038D01*
X509Y1038D02*
X577Y1038D01*
X609Y1038D02*
X677Y1038D01*
X409Y1037D02*
X477Y1037D01*
X509Y1037D02*
X577Y1037D01*
X609Y1037D02*
X677Y1037D01*
X409Y1036D02*
X478Y1036D01*
X509Y1036D02*
X578Y1036D01*
X609Y1036D02*
X678Y1036D01*
X409Y1035D02*
X478Y1035D01*
X509Y1035D02*
X578Y1035D01*
X609Y1035D02*
X678Y1035D01*
X409Y1034D02*
X478Y1034D01*
X509Y1034D02*
X578Y1034D01*
X609Y1034D02*
X678Y1034D01*
X409Y1033D02*
X478Y1033D01*
X509Y1033D02*
X578Y1033D01*
X609Y1033D02*
X678Y1033D01*
X409Y1032D02*
X478Y1032D01*
X509Y1032D02*
X578Y1032D01*
X609Y1032D02*
X678Y1032D01*
X409Y1031D02*
X478Y1031D01*
X509Y1031D02*
X578Y1031D01*
X609Y1031D02*
X678Y1031D01*
X409Y1030D02*
X478Y1030D01*
X509Y1030D02*
X578Y1030D01*
X609Y1030D02*
X678Y1030D01*
X409Y1029D02*
X478Y1029D01*
X509Y1029D02*
X578Y1029D01*
X609Y1029D02*
X678Y1029D01*
X409Y1028D02*
X478Y1028D01*
X509Y1028D02*
X578Y1028D01*
X609Y1028D02*
X678Y1028D01*
X409Y1027D02*
X478Y1027D01*
X509Y1027D02*
X578Y1027D01*
X609Y1027D02*
X678Y1027D01*
X409Y1026D02*
X478Y1026D01*
X509Y1026D02*
X578Y1026D01*
X609Y1026D02*
X678Y1026D01*
X409Y1025D02*
X478Y1025D01*
X509Y1025D02*
X578Y1025D01*
X609Y1025D02*
X678Y1025D01*
X409Y1024D02*
X478Y1024D01*
X509Y1024D02*
X578Y1024D01*
X609Y1024D02*
X678Y1024D01*
X409Y1023D02*
X478Y1023D01*
X509Y1023D02*
X578Y1023D01*
X609Y1023D02*
X678Y1023D01*
X409Y1022D02*
X478Y1022D01*
X509Y1022D02*
X578Y1022D01*
X609Y1022D02*
X678Y1022D01*
X409Y1021D02*
X478Y1021D01*
X509Y1021D02*
X578Y1021D01*
X609Y1021D02*
X678Y1021D01*
X409Y1020D02*
X478Y1020D01*
X509Y1020D02*
X578Y1020D01*
X609Y1020D02*
X678Y1020D01*
X409Y1019D02*
X478Y1019D01*
X509Y1019D02*
X578Y1019D01*
X609Y1019D02*
X678Y1019D01*
X409Y1018D02*
X478Y1018D01*
X509Y1018D02*
X578Y1018D01*
X609Y1018D02*
X678Y1018D01*
X409Y1017D02*
X442Y1017D01*
X445Y1017D02*
X478Y1017D01*
X509Y1017D02*
X542Y1017D01*
X545Y1017D02*
X578Y1017D01*
X609Y1017D02*
X642Y1017D01*
X645Y1017D02*
X678Y1017D01*
X409Y1016D02*
X437Y1016D01*
X450Y1016D02*
X478Y1016D01*
X509Y1016D02*
X537Y1016D01*
X550Y1016D02*
X578Y1016D01*
X609Y1016D02*
X637Y1016D01*
X650Y1016D02*
X678Y1016D01*
X409Y1015D02*
X435Y1015D01*
X451Y1015D02*
X478Y1015D01*
X509Y1015D02*
X535Y1015D01*
X551Y1015D02*
X578Y1015D01*
X609Y1015D02*
X635Y1015D01*
X651Y1015D02*
X678Y1015D01*
X409Y1014D02*
X434Y1014D01*
X453Y1014D02*
X478Y1014D01*
X509Y1014D02*
X534Y1014D01*
X553Y1014D02*
X578Y1014D01*
X609Y1014D02*
X634Y1014D01*
X653Y1014D02*
X678Y1014D01*
X409Y1013D02*
X433Y1013D01*
X454Y1013D02*
X478Y1013D01*
X509Y1013D02*
X533Y1013D01*
X554Y1013D02*
X578Y1013D01*
X609Y1013D02*
X633Y1013D01*
X654Y1013D02*
X678Y1013D01*
X409Y1012D02*
X432Y1012D01*
X455Y1012D02*
X478Y1012D01*
X509Y1012D02*
X532Y1012D01*
X555Y1012D02*
X578Y1012D01*
X609Y1012D02*
X632Y1012D01*
X655Y1012D02*
X678Y1012D01*
X409Y1011D02*
X431Y1011D01*
X456Y1011D02*
X478Y1011D01*
X509Y1011D02*
X531Y1011D01*
X556Y1011D02*
X578Y1011D01*
X609Y1011D02*
X631Y1011D01*
X656Y1011D02*
X678Y1011D01*
X409Y1010D02*
X430Y1010D01*
X457Y1010D02*
X478Y1010D01*
X509Y1010D02*
X530Y1010D01*
X557Y1010D02*
X578Y1010D01*
X609Y1010D02*
X630Y1010D01*
X657Y1010D02*
X678Y1010D01*
X409Y1009D02*
X430Y1009D01*
X457Y1009D02*
X478Y1009D01*
X509Y1009D02*
X530Y1009D01*
X557Y1009D02*
X578Y1009D01*
X609Y1009D02*
X630Y1009D01*
X657Y1009D02*
X678Y1009D01*
X409Y1008D02*
X429Y1008D01*
X458Y1008D02*
X478Y1008D01*
X509Y1008D02*
X529Y1008D01*
X558Y1008D02*
X578Y1008D01*
X609Y1008D02*
X629Y1008D01*
X658Y1008D02*
X678Y1008D01*
X409Y1007D02*
X429Y1007D01*
X458Y1007D02*
X478Y1007D01*
X509Y1007D02*
X529Y1007D01*
X558Y1007D02*
X578Y1007D01*
X609Y1007D02*
X629Y1007D01*
X658Y1007D02*
X678Y1007D01*
X409Y1006D02*
X428Y1006D01*
X458Y1006D02*
X478Y1006D01*
X509Y1006D02*
X528Y1006D01*
X558Y1006D02*
X578Y1006D01*
X609Y1006D02*
X628Y1006D01*
X658Y1006D02*
X678Y1006D01*
X409Y1005D02*
X428Y1005D01*
X459Y1005D02*
X478Y1005D01*
X509Y1005D02*
X528Y1005D01*
X559Y1005D02*
X578Y1005D01*
X609Y1005D02*
X628Y1005D01*
X659Y1005D02*
X678Y1005D01*
X409Y1004D02*
X428Y1004D01*
X459Y1004D02*
X478Y1004D01*
X509Y1004D02*
X528Y1004D01*
X559Y1004D02*
X578Y1004D01*
X609Y1004D02*
X628Y1004D01*
X659Y1004D02*
X678Y1004D01*
X409Y1003D02*
X428Y1003D01*
X459Y1003D02*
X478Y1003D01*
X509Y1003D02*
X528Y1003D01*
X559Y1003D02*
X578Y1003D01*
X609Y1003D02*
X628Y1003D01*
X659Y1003D02*
X678Y1003D01*
X409Y1002D02*
X428Y1002D01*
X459Y1002D02*
X478Y1002D01*
X509Y1002D02*
X528Y1002D01*
X559Y1002D02*
X578Y1002D01*
X609Y1002D02*
X628Y1002D01*
X659Y1002D02*
X678Y1002D01*
X409Y1001D02*
X428Y1001D01*
X459Y1001D02*
X478Y1001D01*
X509Y1001D02*
X528Y1001D01*
X559Y1001D02*
X578Y1001D01*
X609Y1001D02*
X628Y1001D01*
X659Y1001D02*
X678Y1001D01*
X409Y1000D02*
X428Y1000D01*
X459Y1000D02*
X478Y1000D01*
X509Y1000D02*
X528Y1000D01*
X559Y1000D02*
X578Y1000D01*
X609Y1000D02*
X628Y1000D01*
X659Y1000D02*
X678Y1000D01*
X409Y999D02*
X428Y999D01*
X459Y999D02*
X478Y999D01*
X509Y999D02*
X528Y999D01*
X559Y999D02*
X578Y999D01*
X609Y999D02*
X628Y999D01*
X659Y999D02*
X678Y999D01*
X409Y998D02*
X428Y998D01*
X458Y998D02*
X478Y998D01*
X509Y998D02*
X528Y998D01*
X558Y998D02*
X578Y998D01*
X609Y998D02*
X628Y998D01*
X658Y998D02*
X678Y998D01*
X409Y997D02*
X429Y997D01*
X458Y997D02*
X478Y997D01*
X509Y997D02*
X529Y997D01*
X558Y997D02*
X578Y997D01*
X609Y997D02*
X629Y997D01*
X658Y997D02*
X678Y997D01*
X409Y996D02*
X429Y996D01*
X458Y996D02*
X478Y996D01*
X509Y996D02*
X529Y996D01*
X558Y996D02*
X578Y996D01*
X609Y996D02*
X629Y996D01*
X658Y996D02*
X678Y996D01*
X409Y995D02*
X430Y995D01*
X457Y995D02*
X478Y995D01*
X509Y995D02*
X530Y995D01*
X557Y995D02*
X578Y995D01*
X609Y995D02*
X630Y995D01*
X657Y995D02*
X678Y995D01*
X409Y994D02*
X430Y994D01*
X457Y994D02*
X478Y994D01*
X509Y994D02*
X530Y994D01*
X557Y994D02*
X578Y994D01*
X609Y994D02*
X630Y994D01*
X657Y994D02*
X678Y994D01*
X409Y993D02*
X431Y993D01*
X456Y993D02*
X478Y993D01*
X509Y993D02*
X531Y993D01*
X556Y993D02*
X578Y993D01*
X609Y993D02*
X631Y993D01*
X656Y993D02*
X678Y993D01*
X409Y992D02*
X432Y992D01*
X455Y992D02*
X478Y992D01*
X509Y992D02*
X532Y992D01*
X555Y992D02*
X578Y992D01*
X609Y992D02*
X632Y992D01*
X655Y992D02*
X678Y992D01*
X409Y991D02*
X433Y991D01*
X454Y991D02*
X478Y991D01*
X509Y991D02*
X533Y991D01*
X554Y991D02*
X578Y991D01*
X609Y991D02*
X633Y991D01*
X654Y991D02*
X678Y991D01*
X409Y990D02*
X434Y990D01*
X453Y990D02*
X478Y990D01*
X509Y990D02*
X534Y990D01*
X553Y990D02*
X578Y990D01*
X609Y990D02*
X634Y990D01*
X653Y990D02*
X678Y990D01*
X409Y989D02*
X436Y989D01*
X451Y989D02*
X478Y989D01*
X509Y989D02*
X536Y989D01*
X551Y989D02*
X578Y989D01*
X609Y989D02*
X635Y989D01*
X651Y989D02*
X678Y989D01*
X409Y988D02*
X438Y988D01*
X449Y988D02*
X478Y988D01*
X509Y988D02*
X538Y988D01*
X549Y988D02*
X578Y988D01*
X609Y988D02*
X638Y988D01*
X649Y988D02*
X678Y988D01*
X409Y987D02*
X478Y987D01*
X509Y987D02*
X578Y987D01*
X609Y987D02*
X678Y987D01*
X409Y986D02*
X478Y986D01*
X509Y986D02*
X578Y986D01*
X609Y986D02*
X678Y986D01*
X409Y985D02*
X478Y985D01*
X509Y985D02*
X578Y985D01*
X609Y985D02*
X678Y985D01*
X409Y984D02*
X478Y984D01*
X509Y984D02*
X578Y984D01*
X609Y984D02*
X678Y984D01*
X409Y983D02*
X478Y983D01*
X509Y983D02*
X578Y983D01*
X609Y983D02*
X678Y983D01*
X409Y982D02*
X478Y982D01*
X509Y982D02*
X578Y982D01*
X609Y982D02*
X678Y982D01*
X409Y981D02*
X478Y981D01*
X509Y981D02*
X578Y981D01*
X609Y981D02*
X678Y981D01*
X409Y980D02*
X478Y980D01*
X509Y980D02*
X578Y980D01*
X609Y980D02*
X678Y980D01*
X409Y979D02*
X478Y979D01*
X509Y979D02*
X578Y979D01*
X609Y979D02*
X678Y979D01*
X409Y978D02*
X478Y978D01*
X509Y978D02*
X578Y978D01*
X609Y978D02*
X678Y978D01*
X409Y977D02*
X478Y977D01*
X509Y977D02*
X578Y977D01*
X609Y977D02*
X678Y977D01*
X409Y976D02*
X478Y976D01*
X509Y976D02*
X578Y976D01*
X609Y976D02*
X678Y976D01*
X409Y975D02*
X478Y975D01*
X509Y975D02*
X578Y975D01*
X609Y975D02*
X678Y975D01*
X409Y974D02*
X478Y974D01*
X509Y974D02*
X578Y974D01*
X609Y974D02*
X678Y974D01*
X409Y973D02*
X478Y973D01*
X509Y973D02*
X578Y973D01*
X609Y973D02*
X678Y973D01*
X409Y972D02*
X478Y972D01*
X509Y972D02*
X578Y972D01*
X609Y972D02*
X678Y972D01*
X409Y971D02*
X478Y971D01*
X509Y971D02*
X578Y971D01*
X609Y971D02*
X678Y971D01*
X409Y970D02*
X478Y970D01*
X509Y970D02*
X578Y970D01*
X609Y970D02*
X678Y970D01*
X409Y969D02*
X478Y969D01*
X509Y969D02*
X578Y969D01*
X609Y969D02*
X678Y969D01*
X409Y968D02*
X478Y968D01*
X509Y968D02*
X578Y968D01*
X609Y968D02*
X678Y968D01*
X409Y967D02*
X477Y967D01*
X509Y967D02*
X577Y967D01*
X609Y967D02*
X677Y967D01*
X409Y966D02*
X477Y966D01*
X509Y966D02*
X577Y966D01*
X609Y966D02*
X677Y966D01*
X410Y965D02*
X477Y965D01*
X510Y965D02*
X577Y965D01*
X610Y965D02*
X677Y965D01*
X410Y964D02*
X477Y964D01*
X510Y964D02*
X577Y964D01*
X610Y964D02*
X677Y964D01*
X410Y963D02*
X477Y963D01*
X510Y963D02*
X577Y963D01*
X610Y963D02*
X677Y963D01*
X410Y962D02*
X476Y962D01*
X510Y962D02*
X576Y962D01*
X610Y962D02*
X676Y962D01*
X411Y961D02*
X476Y961D01*
X511Y961D02*
X576Y961D01*
X611Y961D02*
X676Y961D01*
X411Y960D02*
X476Y960D01*
X511Y960D02*
X576Y960D01*
X611Y960D02*
X676Y960D01*
X412Y959D02*
X475Y959D01*
X512Y959D02*
X575Y959D01*
X612Y959D02*
X675Y959D01*
X412Y958D02*
X475Y958D01*
X512Y958D02*
X575Y958D01*
X612Y958D02*
X675Y958D01*
X412Y957D02*
X474Y957D01*
X512Y957D02*
X574Y957D01*
X612Y957D02*
X674Y957D01*
X413Y956D02*
X474Y956D01*
X513Y956D02*
X574Y956D01*
X613Y956D02*
X674Y956D01*
X413Y955D02*
X473Y955D01*
X513Y955D02*
X573Y955D01*
X613Y955D02*
X673Y955D01*
X414Y954D02*
X473Y954D01*
X514Y954D02*
X573Y954D01*
X614Y954D02*
X673Y954D01*
X415Y953D02*
X472Y953D01*
X515Y953D02*
X572Y953D01*
X615Y953D02*
X672Y953D01*
X415Y952D02*
X471Y952D01*
X515Y952D02*
X571Y952D01*
X615Y952D02*
X671Y952D01*
X416Y951D02*
X471Y951D01*
X516Y951D02*
X571Y951D01*
X616Y951D02*
X671Y951D01*
X417Y950D02*
X470Y950D01*
X517Y950D02*
X570Y950D01*
X617Y950D02*
X670Y950D01*
X418Y949D02*
X469Y949D01*
X518Y949D02*
X569Y949D01*
X618Y949D02*
X669Y949D01*
X419Y948D02*
X468Y948D01*
X519Y948D02*
X568Y948D01*
X619Y948D02*
X668Y948D01*
X420Y947D02*
X467Y947D01*
X520Y947D02*
X567Y947D01*
X619Y947D02*
X667Y947D01*
X421Y946D02*
X466Y946D01*
X521Y946D02*
X566Y946D01*
X621Y946D02*
X666Y946D01*
X422Y945D02*
X465Y945D01*
X522Y945D02*
X565Y945D01*
X622Y945D02*
X665Y945D01*
X423Y944D02*
X464Y944D01*
X523Y944D02*
X564Y944D01*
X623Y944D02*
X664Y944D01*
X425Y943D02*
X462Y943D01*
X525Y943D02*
X562Y943D01*
X625Y943D02*
X662Y943D01*
X426Y942D02*
X461Y942D01*
X526Y942D02*
X561Y942D01*
X626Y942D02*
X661Y942D01*
X428Y941D02*
X459Y941D01*
X528Y941D02*
X559Y941D01*
X628Y941D02*
X659Y941D01*
X430Y940D02*
X457Y940D01*
X530Y940D02*
X557Y940D01*
X630Y940D02*
X657Y940D01*
X433Y939D02*
X454Y939D01*
X533Y939D02*
X554Y939D01*
X633Y939D02*
X654Y939D01*
X436Y938D02*
X450Y938D01*
X536Y938D02*
X550Y938D01*
X636Y938D02*
X650Y938D01*
D02*
G04 End of Mask0*
M02*