G75*
%MOIN*%
%OFA0B0*%
%FSLAX24Y24*%
%IPPOS*%
%LPD*%
%AMOC8*
5,1,8,0,0,1.08239X$1,22.5*
%
%ADD10C,0.0070*%
%ADD11C,0.0100*%
%ADD12C,0.0050*%
%ADD13C,0.0040*%
D10*
X001820Y000896D02*
X001875Y000841D01*
X001930Y000841D01*
X001985Y000896D01*
X001985Y001172D01*
X001930Y001172D02*
X002040Y001172D01*
X002188Y001061D02*
X002298Y001172D01*
X002298Y000841D01*
X002188Y000841D02*
X002408Y000841D01*
D11*
X004919Y001387D02*
X004919Y002387D01*
X005919Y002387D01*
X006017Y002407D02*
X007017Y002407D01*
X007017Y001407D01*
X006017Y001407D01*
X006017Y003407D01*
X007017Y003407D01*
X007017Y002407D01*
X005919Y003387D02*
X005919Y001387D01*
X004919Y001387D01*
X004919Y002387D02*
X004919Y003387D01*
X005919Y003387D01*
X006785Y007533D02*
X006782Y007642D01*
X006775Y007750D01*
X006764Y007857D01*
X006749Y007965D01*
X006730Y008071D01*
X006708Y008177D01*
X006682Y008282D01*
X006652Y008387D01*
X006618Y008489D01*
X006580Y008591D01*
X006539Y008691D01*
X006494Y008790D01*
X006446Y008887D01*
X006394Y008982D01*
X006339Y009075D01*
X006281Y009167D01*
X006219Y009256D01*
X006154Y009342D01*
X006086Y009427D01*
X006015Y009508D01*
X005941Y009588D01*
X005865Y009664D01*
X005785Y009738D01*
X005703Y009809D01*
X005619Y009876D01*
X005532Y009941D01*
X005443Y010002D01*
X005351Y010061D01*
X005258Y010116D01*
X005163Y010167D01*
X005065Y010215D01*
X004967Y010259D01*
X004866Y010300D01*
X004765Y010338D01*
X004662Y010371D01*
X004557Y010401D01*
X004452Y010427D01*
X004346Y010449D01*
X004239Y010467D01*
X004132Y010482D01*
X004024Y010492D01*
X003916Y010499D01*
X003808Y010502D01*
X003700Y010501D01*
X003591Y010496D01*
X003483Y010487D01*
X003376Y010474D01*
X003269Y010457D01*
X003162Y010437D01*
X003057Y010412D01*
X002952Y010384D01*
X002849Y010352D01*
X002747Y010317D01*
X002646Y010277D01*
X002546Y010234D01*
X002448Y010188D01*
X002352Y010138D01*
X002258Y010084D01*
X002166Y010027D01*
X002076Y009967D01*
X001988Y009904D01*
X001902Y009838D01*
X001819Y009768D01*
X001739Y009696D01*
X001661Y009620D01*
X001586Y009542D01*
X001513Y009462D01*
X001444Y009378D01*
X001378Y009293D01*
X001315Y009204D01*
X001255Y009114D01*
X001198Y009022D01*
X001145Y008927D01*
X001096Y008831D01*
X001049Y008733D01*
X001007Y008634D01*
X000968Y008533D01*
X000932Y008430D01*
X000901Y008327D01*
X000873Y008222D01*
X000849Y008116D01*
X000828Y008010D01*
X000812Y007903D01*
X000799Y007795D01*
X000791Y007687D01*
X000786Y007579D01*
X000785Y007471D01*
X000291Y007533D02*
X000293Y007651D01*
X000299Y007769D01*
X000309Y007886D01*
X000323Y008004D01*
X000341Y008120D01*
X000363Y008236D01*
X000388Y008352D01*
X000418Y008466D01*
X000451Y008579D01*
X000488Y008691D01*
X000529Y008802D01*
X000574Y008911D01*
X000623Y009019D01*
X000675Y009124D01*
X000730Y009229D01*
X000789Y009331D01*
X000851Y009431D01*
X000917Y009529D01*
X000986Y009625D01*
X001059Y009718D01*
X001134Y009809D01*
X001212Y009897D01*
X001294Y009983D01*
X001378Y010065D01*
X001465Y010145D01*
X001554Y010222D01*
X001646Y010296D01*
X001741Y010367D01*
X001838Y010434D01*
X001937Y010498D01*
X002038Y010559D01*
X002141Y010616D01*
X002246Y010670D01*
X002353Y010720D01*
X002462Y010767D01*
X002572Y010810D01*
X002683Y010849D01*
X002795Y010884D01*
X002909Y010915D01*
X003024Y010943D01*
X003140Y010967D01*
X003256Y010987D01*
X003373Y011003D01*
X003490Y011015D01*
X003608Y011023D01*
X003726Y011027D01*
X003844Y011027D01*
X003962Y011023D01*
X004080Y011015D01*
X004197Y011003D01*
X004314Y010987D01*
X004430Y010967D01*
X004546Y010943D01*
X004661Y010915D01*
X004775Y010884D01*
X004887Y010849D01*
X004998Y010810D01*
X005108Y010767D01*
X005217Y010720D01*
X005324Y010670D01*
X005429Y010616D01*
X005532Y010559D01*
X005633Y010498D01*
X005732Y010434D01*
X005829Y010367D01*
X005924Y010296D01*
X006016Y010222D01*
X006105Y010145D01*
X006192Y010065D01*
X006276Y009983D01*
X006358Y009897D01*
X006436Y009809D01*
X006511Y009718D01*
X006584Y009625D01*
X006653Y009529D01*
X006719Y009431D01*
X006781Y009331D01*
X006840Y009229D01*
X006895Y009124D01*
X006947Y009019D01*
X006996Y008911D01*
X007041Y008802D01*
X007082Y008691D01*
X007119Y008579D01*
X007152Y008466D01*
X007182Y008352D01*
X007207Y008236D01*
X007229Y008120D01*
X007247Y008004D01*
X007261Y007886D01*
X007271Y007769D01*
X007277Y007651D01*
X007279Y007533D01*
X007277Y007415D01*
X007271Y007297D01*
X007261Y007180D01*
X007247Y007062D01*
X007229Y006946D01*
X007207Y006830D01*
X007182Y006714D01*
X007152Y006600D01*
X007119Y006487D01*
X007082Y006375D01*
X007041Y006264D01*
X006996Y006155D01*
X006947Y006047D01*
X006895Y005942D01*
X006840Y005837D01*
X006781Y005735D01*
X006719Y005635D01*
X006653Y005537D01*
X006584Y005441D01*
X006511Y005348D01*
X006436Y005257D01*
X006358Y005169D01*
X006276Y005083D01*
X006192Y005001D01*
X006105Y004921D01*
X006016Y004844D01*
X005924Y004770D01*
X005829Y004699D01*
X005732Y004632D01*
X005633Y004568D01*
X005532Y004507D01*
X005429Y004450D01*
X005324Y004396D01*
X005217Y004346D01*
X005108Y004299D01*
X004998Y004256D01*
X004887Y004217D01*
X004775Y004182D01*
X004661Y004151D01*
X004546Y004123D01*
X004430Y004099D01*
X004314Y004079D01*
X004197Y004063D01*
X004080Y004051D01*
X003962Y004043D01*
X003844Y004039D01*
X003726Y004039D01*
X003608Y004043D01*
X003490Y004051D01*
X003373Y004063D01*
X003256Y004079D01*
X003140Y004099D01*
X003024Y004123D01*
X002909Y004151D01*
X002795Y004182D01*
X002683Y004217D01*
X002572Y004256D01*
X002462Y004299D01*
X002353Y004346D01*
X002246Y004396D01*
X002141Y004450D01*
X002038Y004507D01*
X001937Y004568D01*
X001838Y004632D01*
X001741Y004699D01*
X001646Y004770D01*
X001554Y004844D01*
X001465Y004921D01*
X001378Y005001D01*
X001294Y005083D01*
X001212Y005169D01*
X001134Y005257D01*
X001059Y005348D01*
X000986Y005441D01*
X000917Y005537D01*
X000851Y005635D01*
X000789Y005735D01*
X000730Y005837D01*
X000675Y005942D01*
X000623Y006047D01*
X000574Y006155D01*
X000529Y006264D01*
X000488Y006375D01*
X000451Y006487D01*
X000418Y006600D01*
X000388Y006714D01*
X000363Y006830D01*
X000341Y006946D01*
X000323Y007062D01*
X000309Y007180D01*
X000299Y007297D01*
X000293Y007415D01*
X000291Y007533D01*
D12*
X004196Y001194D02*
X004346Y001194D01*
X004271Y001194D02*
X004271Y000819D01*
X004196Y000744D01*
X004121Y000744D01*
X004045Y000819D01*
X004506Y000894D02*
X004731Y000894D01*
X004806Y000969D01*
X004806Y001119D01*
X004731Y001194D01*
X004506Y001194D01*
X004506Y000744D01*
X004966Y000744D02*
X005267Y000744D01*
X005116Y000744D02*
X005116Y001194D01*
X004966Y001044D01*
X005981Y003743D02*
X006056Y003743D01*
X006131Y003818D01*
X006131Y004193D01*
X006056Y004193D02*
X006206Y004193D01*
X006366Y004193D02*
X006592Y004193D01*
X006667Y004118D01*
X006667Y003968D01*
X006592Y003893D01*
X006366Y003893D01*
X006366Y003743D02*
X006366Y004193D01*
X005981Y003743D02*
X005906Y003818D01*
X006827Y003743D02*
X007127Y004043D01*
X007127Y004118D01*
X007052Y004193D01*
X006902Y004193D01*
X006827Y004118D01*
X006827Y003743D02*
X007127Y003743D01*
D13*
X003754Y008160D02*
X003447Y008160D01*
X003294Y008160D02*
X003294Y008620D01*
X003447Y008467D02*
X003600Y008620D01*
X003600Y008160D01*
X003294Y008160D02*
X002987Y008620D01*
X002987Y008160D01*
M02*
