G75*
%MOIN*%
%OFA0B0*%
%FSLAX24Y24*%
%IPPOS*%
%LPD*%
%AMOC8*
5,1,8,0,0,1.08239X$1,22.5*
%
%ADD10C,0.0010*%
D10*
X000887Y000754D02*
X001287Y000754D01*
X000887Y000754D02*
X000487Y001154D01*
X000487Y000354D01*
X000887Y000754D01*
X000556Y001915D02*
X000558Y001954D01*
X000564Y001992D01*
X000573Y002030D01*
X000587Y002066D01*
X000603Y002102D01*
X000624Y002135D01*
X000647Y002166D01*
X000674Y002194D01*
X000703Y002220D01*
X000734Y002243D01*
X000768Y002262D01*
X000804Y002278D01*
X000840Y002290D01*
X000878Y002299D01*
X000917Y002304D01*
X000956Y002305D01*
X000994Y002302D01*
X001033Y002295D01*
X001070Y002285D01*
X001106Y002270D01*
X001141Y002253D01*
X001174Y002232D01*
X001204Y002207D01*
X001232Y002180D01*
X001257Y002150D01*
X001279Y002118D01*
X001297Y002084D01*
X001312Y002048D01*
X001324Y002011D01*
X001332Y001973D01*
X001336Y001934D01*
X001336Y001896D01*
X001332Y001857D01*
X001324Y001819D01*
X001312Y001782D01*
X001297Y001746D01*
X001279Y001712D01*
X001257Y001680D01*
X001232Y001650D01*
X001204Y001623D01*
X001174Y001598D01*
X001141Y001577D01*
X001106Y001560D01*
X001070Y001545D01*
X001033Y001535D01*
X000994Y001528D01*
X000956Y001525D01*
X000917Y001526D01*
X000878Y001531D01*
X000840Y001540D01*
X000804Y001552D01*
X000768Y001568D01*
X000734Y001587D01*
X000703Y001610D01*
X000674Y001636D01*
X000647Y001664D01*
X000624Y001695D01*
X000603Y001728D01*
X000587Y001764D01*
X000573Y001800D01*
X000564Y001838D01*
X000558Y001876D01*
X000556Y001915D01*
X000546Y001515D02*
X001346Y002315D01*
X001344Y002702D02*
X001346Y002741D01*
X001352Y002779D01*
X001361Y002817D01*
X001375Y002853D01*
X001391Y002889D01*
X001412Y002922D01*
X001435Y002953D01*
X001462Y002981D01*
X001491Y003007D01*
X001522Y003030D01*
X001556Y003049D01*
X001592Y003065D01*
X001628Y003077D01*
X001666Y003086D01*
X001705Y003091D01*
X001744Y003092D01*
X001782Y003089D01*
X001821Y003082D01*
X001858Y003072D01*
X001894Y003057D01*
X001929Y003040D01*
X001962Y003019D01*
X001992Y002994D01*
X002020Y002967D01*
X002045Y002937D01*
X002067Y002905D01*
X002085Y002871D01*
X002100Y002835D01*
X002112Y002798D01*
X002120Y002760D01*
X002124Y002721D01*
X002124Y002683D01*
X002120Y002644D01*
X002112Y002606D01*
X002100Y002569D01*
X002085Y002533D01*
X002067Y002499D01*
X002045Y002467D01*
X002020Y002437D01*
X001992Y002410D01*
X001962Y002385D01*
X001929Y002364D01*
X001894Y002347D01*
X001858Y002332D01*
X001821Y002322D01*
X001782Y002315D01*
X001744Y002312D01*
X001705Y002313D01*
X001666Y002318D01*
X001628Y002327D01*
X001592Y002339D01*
X001556Y002355D01*
X001522Y002374D01*
X001491Y002397D01*
X001462Y002423D01*
X001435Y002451D01*
X001412Y002482D01*
X001391Y002515D01*
X001375Y002551D01*
X001361Y002587D01*
X001352Y002625D01*
X001346Y002663D01*
X001344Y002702D01*
X001334Y002302D02*
X002134Y003102D01*
X002131Y002702D02*
X002133Y002741D01*
X002139Y002779D01*
X002148Y002817D01*
X002162Y002853D01*
X002178Y002889D01*
X002199Y002922D01*
X002222Y002953D01*
X002249Y002981D01*
X002278Y003007D01*
X002309Y003030D01*
X002343Y003049D01*
X002379Y003065D01*
X002415Y003077D01*
X002453Y003086D01*
X002492Y003091D01*
X002531Y003092D01*
X002569Y003089D01*
X002608Y003082D01*
X002645Y003072D01*
X002681Y003057D01*
X002716Y003040D01*
X002749Y003019D01*
X002779Y002994D01*
X002807Y002967D01*
X002832Y002937D01*
X002854Y002905D01*
X002872Y002871D01*
X002887Y002835D01*
X002899Y002798D01*
X002907Y002760D01*
X002911Y002721D01*
X002911Y002683D01*
X002907Y002644D01*
X002899Y002606D01*
X002887Y002569D01*
X002872Y002533D01*
X002854Y002499D01*
X002832Y002467D01*
X002807Y002437D01*
X002779Y002410D01*
X002749Y002385D01*
X002716Y002364D01*
X002681Y002347D01*
X002645Y002332D01*
X002608Y002322D01*
X002569Y002315D01*
X002531Y002312D01*
X002492Y002313D01*
X002453Y002318D01*
X002415Y002327D01*
X002379Y002339D01*
X002343Y002355D01*
X002309Y002374D01*
X002278Y002397D01*
X002249Y002423D01*
X002222Y002451D01*
X002199Y002482D01*
X002178Y002515D01*
X002162Y002551D01*
X002148Y002587D01*
X002139Y002625D01*
X002133Y002663D01*
X002131Y002702D01*
X002121Y002302D02*
X002921Y003102D01*
X002919Y002702D02*
X002921Y002741D01*
X002927Y002779D01*
X002936Y002817D01*
X002950Y002853D01*
X002966Y002889D01*
X002987Y002922D01*
X003010Y002953D01*
X003037Y002981D01*
X003066Y003007D01*
X003097Y003030D01*
X003131Y003049D01*
X003167Y003065D01*
X003203Y003077D01*
X003241Y003086D01*
X003280Y003091D01*
X003319Y003092D01*
X003357Y003089D01*
X003396Y003082D01*
X003433Y003072D01*
X003469Y003057D01*
X003504Y003040D01*
X003537Y003019D01*
X003567Y002994D01*
X003595Y002967D01*
X003620Y002937D01*
X003642Y002905D01*
X003660Y002871D01*
X003675Y002835D01*
X003687Y002798D01*
X003695Y002760D01*
X003699Y002721D01*
X003699Y002683D01*
X003695Y002644D01*
X003687Y002606D01*
X003675Y002569D01*
X003660Y002533D01*
X003642Y002499D01*
X003620Y002467D01*
X003595Y002437D01*
X003567Y002410D01*
X003537Y002385D01*
X003504Y002364D01*
X003469Y002347D01*
X003433Y002332D01*
X003396Y002322D01*
X003357Y002315D01*
X003319Y002312D01*
X003280Y002313D01*
X003241Y002318D01*
X003203Y002327D01*
X003167Y002339D01*
X003131Y002355D01*
X003097Y002374D01*
X003066Y002397D01*
X003037Y002423D01*
X003010Y002451D01*
X002987Y002482D01*
X002966Y002515D01*
X002950Y002551D01*
X002936Y002587D01*
X002927Y002625D01*
X002921Y002663D01*
X002919Y002702D01*
X002909Y002302D02*
X003709Y003102D01*
X003231Y003642D02*
X003233Y003681D01*
X003239Y003719D01*
X003248Y003757D01*
X003262Y003793D01*
X003278Y003829D01*
X003299Y003862D01*
X003322Y003893D01*
X003349Y003921D01*
X003378Y003947D01*
X003409Y003970D01*
X003443Y003989D01*
X003479Y004005D01*
X003515Y004017D01*
X003553Y004026D01*
X003592Y004031D01*
X003631Y004032D01*
X003669Y004029D01*
X003708Y004022D01*
X003745Y004012D01*
X003781Y003997D01*
X003816Y003980D01*
X003849Y003959D01*
X003879Y003934D01*
X003907Y003907D01*
X003932Y003877D01*
X003954Y003845D01*
X003972Y003811D01*
X003987Y003775D01*
X003999Y003738D01*
X004007Y003700D01*
X004011Y003661D01*
X004011Y003623D01*
X004007Y003584D01*
X003999Y003546D01*
X003987Y003509D01*
X003972Y003473D01*
X003954Y003439D01*
X003932Y003407D01*
X003907Y003377D01*
X003879Y003350D01*
X003849Y003325D01*
X003816Y003304D01*
X003781Y003287D01*
X003745Y003272D01*
X003708Y003262D01*
X003669Y003255D01*
X003631Y003252D01*
X003592Y003253D01*
X003553Y003258D01*
X003515Y003267D01*
X003479Y003279D01*
X003443Y003295D01*
X003409Y003314D01*
X003378Y003337D01*
X003349Y003363D01*
X003322Y003391D01*
X003299Y003422D01*
X003278Y003455D01*
X003262Y003491D01*
X003248Y003527D01*
X003239Y003565D01*
X003233Y003603D01*
X003231Y003642D01*
X003221Y003242D02*
X004021Y004042D01*
X003395Y005096D02*
X003397Y005135D01*
X003403Y005173D01*
X003412Y005211D01*
X003426Y005247D01*
X003442Y005283D01*
X003463Y005316D01*
X003486Y005347D01*
X003513Y005375D01*
X003542Y005401D01*
X003573Y005424D01*
X003607Y005443D01*
X003643Y005459D01*
X003679Y005471D01*
X003717Y005480D01*
X003756Y005485D01*
X003795Y005486D01*
X003833Y005483D01*
X003872Y005476D01*
X003909Y005466D01*
X003945Y005451D01*
X003980Y005434D01*
X004013Y005413D01*
X004043Y005388D01*
X004071Y005361D01*
X004096Y005331D01*
X004118Y005299D01*
X004136Y005265D01*
X004151Y005229D01*
X004163Y005192D01*
X004171Y005154D01*
X004175Y005115D01*
X004175Y005077D01*
X004171Y005038D01*
X004163Y005000D01*
X004151Y004963D01*
X004136Y004927D01*
X004118Y004893D01*
X004096Y004861D01*
X004071Y004831D01*
X004043Y004804D01*
X004013Y004779D01*
X003980Y004758D01*
X003945Y004741D01*
X003909Y004726D01*
X003872Y004716D01*
X003833Y004709D01*
X003795Y004706D01*
X003756Y004707D01*
X003717Y004712D01*
X003679Y004721D01*
X003643Y004733D01*
X003607Y004749D01*
X003573Y004768D01*
X003542Y004791D01*
X003513Y004817D01*
X003486Y004845D01*
X003463Y004876D01*
X003442Y004909D01*
X003426Y004945D01*
X003412Y004981D01*
X003403Y005019D01*
X003397Y005057D01*
X003395Y005096D01*
X003385Y004696D02*
X004185Y005496D01*
X004528Y005375D02*
X004530Y005414D01*
X004536Y005452D01*
X004545Y005490D01*
X004559Y005526D01*
X004575Y005562D01*
X004596Y005595D01*
X004619Y005626D01*
X004646Y005654D01*
X004675Y005680D01*
X004706Y005703D01*
X004740Y005722D01*
X004776Y005738D01*
X004812Y005750D01*
X004850Y005759D01*
X004889Y005764D01*
X004928Y005765D01*
X004966Y005762D01*
X005005Y005755D01*
X005042Y005745D01*
X005078Y005730D01*
X005113Y005713D01*
X005146Y005692D01*
X005176Y005667D01*
X005204Y005640D01*
X005229Y005610D01*
X005251Y005578D01*
X005269Y005544D01*
X005284Y005508D01*
X005296Y005471D01*
X005304Y005433D01*
X005308Y005394D01*
X005308Y005356D01*
X005304Y005317D01*
X005296Y005279D01*
X005284Y005242D01*
X005269Y005206D01*
X005251Y005172D01*
X005229Y005140D01*
X005204Y005110D01*
X005176Y005083D01*
X005146Y005058D01*
X005113Y005037D01*
X005078Y005020D01*
X005042Y005005D01*
X005005Y004995D01*
X004966Y004988D01*
X004928Y004985D01*
X004889Y004986D01*
X004850Y004991D01*
X004812Y005000D01*
X004776Y005012D01*
X004740Y005028D01*
X004706Y005047D01*
X004675Y005070D01*
X004646Y005096D01*
X004619Y005124D01*
X004596Y005155D01*
X004575Y005188D01*
X004559Y005224D01*
X004545Y005260D01*
X004536Y005298D01*
X004530Y005336D01*
X004528Y005375D01*
X004518Y004975D02*
X005318Y005775D01*
X005401Y006149D02*
X005403Y006188D01*
X005409Y006226D01*
X005418Y006264D01*
X005432Y006300D01*
X005448Y006336D01*
X005469Y006369D01*
X005492Y006400D01*
X005519Y006428D01*
X005548Y006454D01*
X005579Y006477D01*
X005613Y006496D01*
X005649Y006512D01*
X005685Y006524D01*
X005723Y006533D01*
X005762Y006538D01*
X005801Y006539D01*
X005839Y006536D01*
X005878Y006529D01*
X005915Y006519D01*
X005951Y006504D01*
X005986Y006487D01*
X006019Y006466D01*
X006049Y006441D01*
X006077Y006414D01*
X006102Y006384D01*
X006124Y006352D01*
X006142Y006318D01*
X006157Y006282D01*
X006169Y006245D01*
X006177Y006207D01*
X006181Y006168D01*
X006181Y006130D01*
X006177Y006091D01*
X006169Y006053D01*
X006157Y006016D01*
X006142Y005980D01*
X006124Y005946D01*
X006102Y005914D01*
X006077Y005884D01*
X006049Y005857D01*
X006019Y005832D01*
X005986Y005811D01*
X005951Y005794D01*
X005915Y005779D01*
X005878Y005769D01*
X005839Y005762D01*
X005801Y005759D01*
X005762Y005760D01*
X005723Y005765D01*
X005685Y005774D01*
X005649Y005786D01*
X005613Y005802D01*
X005579Y005821D01*
X005548Y005844D01*
X005519Y005870D01*
X005492Y005898D01*
X005469Y005929D01*
X005448Y005962D01*
X005432Y005998D01*
X005418Y006034D01*
X005409Y006072D01*
X005403Y006110D01*
X005401Y006149D01*
X005391Y005749D02*
X006191Y006549D01*
X005814Y007239D02*
X005816Y007278D01*
X005822Y007316D01*
X005831Y007354D01*
X005845Y007390D01*
X005861Y007426D01*
X005882Y007459D01*
X005905Y007490D01*
X005932Y007518D01*
X005961Y007544D01*
X005992Y007567D01*
X006026Y007586D01*
X006062Y007602D01*
X006098Y007614D01*
X006136Y007623D01*
X006175Y007628D01*
X006214Y007629D01*
X006252Y007626D01*
X006291Y007619D01*
X006328Y007609D01*
X006364Y007594D01*
X006399Y007577D01*
X006432Y007556D01*
X006462Y007531D01*
X006490Y007504D01*
X006515Y007474D01*
X006537Y007442D01*
X006555Y007408D01*
X006570Y007372D01*
X006582Y007335D01*
X006590Y007297D01*
X006594Y007258D01*
X006594Y007220D01*
X006590Y007181D01*
X006582Y007143D01*
X006570Y007106D01*
X006555Y007070D01*
X006537Y007036D01*
X006515Y007004D01*
X006490Y006974D01*
X006462Y006947D01*
X006432Y006922D01*
X006399Y006901D01*
X006364Y006884D01*
X006328Y006869D01*
X006291Y006859D01*
X006252Y006852D01*
X006214Y006849D01*
X006175Y006850D01*
X006136Y006855D01*
X006098Y006864D01*
X006062Y006876D01*
X006026Y006892D01*
X005992Y006911D01*
X005961Y006934D01*
X005932Y006960D01*
X005905Y006988D01*
X005882Y007019D01*
X005861Y007052D01*
X005845Y007088D01*
X005831Y007124D01*
X005822Y007162D01*
X005816Y007200D01*
X005814Y007239D01*
X005804Y006839D02*
X006604Y007639D01*
X005674Y008397D02*
X005676Y008436D01*
X005682Y008474D01*
X005691Y008512D01*
X005705Y008548D01*
X005721Y008584D01*
X005742Y008617D01*
X005765Y008648D01*
X005792Y008676D01*
X005821Y008702D01*
X005852Y008725D01*
X005886Y008744D01*
X005922Y008760D01*
X005958Y008772D01*
X005996Y008781D01*
X006035Y008786D01*
X006074Y008787D01*
X006112Y008784D01*
X006151Y008777D01*
X006188Y008767D01*
X006224Y008752D01*
X006259Y008735D01*
X006292Y008714D01*
X006322Y008689D01*
X006350Y008662D01*
X006375Y008632D01*
X006397Y008600D01*
X006415Y008566D01*
X006430Y008530D01*
X006442Y008493D01*
X006450Y008455D01*
X006454Y008416D01*
X006454Y008378D01*
X006450Y008339D01*
X006442Y008301D01*
X006430Y008264D01*
X006415Y008228D01*
X006397Y008194D01*
X006375Y008162D01*
X006350Y008132D01*
X006322Y008105D01*
X006292Y008080D01*
X006259Y008059D01*
X006224Y008042D01*
X006188Y008027D01*
X006151Y008017D01*
X006112Y008010D01*
X006074Y008007D01*
X006035Y008008D01*
X005996Y008013D01*
X005958Y008022D01*
X005922Y008034D01*
X005886Y008050D01*
X005852Y008069D01*
X005821Y008092D01*
X005792Y008118D01*
X005765Y008146D01*
X005742Y008177D01*
X005721Y008210D01*
X005705Y008246D01*
X005691Y008282D01*
X005682Y008320D01*
X005676Y008358D01*
X005674Y008397D01*
X005664Y007997D02*
X006464Y008797D01*
X006793Y010202D02*
X007193Y010202D01*
X006793Y010202D02*
X006393Y010602D01*
X006393Y009802D01*
X006793Y010202D01*
X005011Y009357D02*
X005013Y009396D01*
X005019Y009434D01*
X005028Y009472D01*
X005042Y009508D01*
X005058Y009544D01*
X005079Y009577D01*
X005102Y009608D01*
X005129Y009636D01*
X005158Y009662D01*
X005189Y009685D01*
X005223Y009704D01*
X005259Y009720D01*
X005295Y009732D01*
X005333Y009741D01*
X005372Y009746D01*
X005411Y009747D01*
X005449Y009744D01*
X005488Y009737D01*
X005525Y009727D01*
X005561Y009712D01*
X005596Y009695D01*
X005629Y009674D01*
X005659Y009649D01*
X005687Y009622D01*
X005712Y009592D01*
X005734Y009560D01*
X005752Y009526D01*
X005767Y009490D01*
X005779Y009453D01*
X005787Y009415D01*
X005791Y009376D01*
X005791Y009338D01*
X005787Y009299D01*
X005779Y009261D01*
X005767Y009224D01*
X005752Y009188D01*
X005734Y009154D01*
X005712Y009122D01*
X005687Y009092D01*
X005659Y009065D01*
X005629Y009040D01*
X005596Y009019D01*
X005561Y009002D01*
X005525Y008987D01*
X005488Y008977D01*
X005449Y008970D01*
X005411Y008967D01*
X005372Y008968D01*
X005333Y008973D01*
X005295Y008982D01*
X005259Y008994D01*
X005223Y009010D01*
X005189Y009029D01*
X005158Y009052D01*
X005129Y009078D01*
X005102Y009106D01*
X005079Y009137D01*
X005058Y009170D01*
X005042Y009206D01*
X005028Y009242D01*
X005019Y009280D01*
X005013Y009318D01*
X005011Y009357D01*
X005001Y008957D02*
X005801Y009757D01*
X003978Y009899D02*
X003980Y009938D01*
X003986Y009976D01*
X003995Y010014D01*
X004009Y010050D01*
X004025Y010086D01*
X004046Y010119D01*
X004069Y010150D01*
X004096Y010178D01*
X004125Y010204D01*
X004156Y010227D01*
X004190Y010246D01*
X004226Y010262D01*
X004262Y010274D01*
X004300Y010283D01*
X004339Y010288D01*
X004378Y010289D01*
X004416Y010286D01*
X004455Y010279D01*
X004492Y010269D01*
X004528Y010254D01*
X004563Y010237D01*
X004596Y010216D01*
X004626Y010191D01*
X004654Y010164D01*
X004679Y010134D01*
X004701Y010102D01*
X004719Y010068D01*
X004734Y010032D01*
X004746Y009995D01*
X004754Y009957D01*
X004758Y009918D01*
X004758Y009880D01*
X004754Y009841D01*
X004746Y009803D01*
X004734Y009766D01*
X004719Y009730D01*
X004701Y009696D01*
X004679Y009664D01*
X004654Y009634D01*
X004626Y009607D01*
X004596Y009582D01*
X004563Y009561D01*
X004528Y009544D01*
X004492Y009529D01*
X004455Y009519D01*
X004416Y009512D01*
X004378Y009509D01*
X004339Y009510D01*
X004300Y009515D01*
X004262Y009524D01*
X004226Y009536D01*
X004190Y009552D01*
X004156Y009571D01*
X004125Y009594D01*
X004096Y009620D01*
X004069Y009648D01*
X004046Y009679D01*
X004025Y009712D01*
X004009Y009748D01*
X003995Y009784D01*
X003986Y009822D01*
X003980Y009860D01*
X003978Y009899D01*
X003968Y009499D02*
X004768Y010299D01*
X002812Y009899D02*
X002814Y009938D01*
X002820Y009976D01*
X002829Y010014D01*
X002843Y010050D01*
X002859Y010086D01*
X002880Y010119D01*
X002903Y010150D01*
X002930Y010178D01*
X002959Y010204D01*
X002990Y010227D01*
X003024Y010246D01*
X003060Y010262D01*
X003096Y010274D01*
X003134Y010283D01*
X003173Y010288D01*
X003212Y010289D01*
X003250Y010286D01*
X003289Y010279D01*
X003326Y010269D01*
X003362Y010254D01*
X003397Y010237D01*
X003430Y010216D01*
X003460Y010191D01*
X003488Y010164D01*
X003513Y010134D01*
X003535Y010102D01*
X003553Y010068D01*
X003568Y010032D01*
X003580Y009995D01*
X003588Y009957D01*
X003592Y009918D01*
X003592Y009880D01*
X003588Y009841D01*
X003580Y009803D01*
X003568Y009766D01*
X003553Y009730D01*
X003535Y009696D01*
X003513Y009664D01*
X003488Y009634D01*
X003460Y009607D01*
X003430Y009582D01*
X003397Y009561D01*
X003362Y009544D01*
X003326Y009529D01*
X003289Y009519D01*
X003250Y009512D01*
X003212Y009509D01*
X003173Y009510D01*
X003134Y009515D01*
X003096Y009524D01*
X003060Y009536D01*
X003024Y009552D01*
X002990Y009571D01*
X002959Y009594D01*
X002930Y009620D01*
X002903Y009648D01*
X002880Y009679D01*
X002859Y009712D01*
X002843Y009748D01*
X002829Y009784D01*
X002820Y009822D01*
X002814Y009860D01*
X002812Y009899D01*
X002802Y009499D02*
X003602Y010299D01*
X002669Y008856D02*
X002671Y008895D01*
X002677Y008933D01*
X002686Y008971D01*
X002700Y009007D01*
X002716Y009043D01*
X002737Y009076D01*
X002760Y009107D01*
X002787Y009135D01*
X002816Y009161D01*
X002847Y009184D01*
X002881Y009203D01*
X002917Y009219D01*
X002953Y009231D01*
X002991Y009240D01*
X003030Y009245D01*
X003069Y009246D01*
X003107Y009243D01*
X003146Y009236D01*
X003183Y009226D01*
X003219Y009211D01*
X003254Y009194D01*
X003287Y009173D01*
X003317Y009148D01*
X003345Y009121D01*
X003370Y009091D01*
X003392Y009059D01*
X003410Y009025D01*
X003425Y008989D01*
X003437Y008952D01*
X003445Y008914D01*
X003449Y008875D01*
X003449Y008837D01*
X003445Y008798D01*
X003437Y008760D01*
X003425Y008723D01*
X003410Y008687D01*
X003392Y008653D01*
X003370Y008621D01*
X003345Y008591D01*
X003317Y008564D01*
X003287Y008539D01*
X003254Y008518D01*
X003219Y008501D01*
X003183Y008486D01*
X003146Y008476D01*
X003107Y008469D01*
X003069Y008466D01*
X003030Y008467D01*
X002991Y008472D01*
X002953Y008481D01*
X002917Y008493D01*
X002881Y008509D01*
X002847Y008528D01*
X002816Y008551D01*
X002787Y008577D01*
X002760Y008605D01*
X002737Y008636D01*
X002716Y008669D01*
X002700Y008705D01*
X002686Y008741D01*
X002677Y008779D01*
X002671Y008817D01*
X002669Y008856D01*
X002659Y008456D02*
X003459Y009256D01*
X001779Y009357D02*
X001781Y009396D01*
X001787Y009434D01*
X001796Y009472D01*
X001810Y009508D01*
X001826Y009544D01*
X001847Y009577D01*
X001870Y009608D01*
X001897Y009636D01*
X001926Y009662D01*
X001957Y009685D01*
X001991Y009704D01*
X002027Y009720D01*
X002063Y009732D01*
X002101Y009741D01*
X002140Y009746D01*
X002179Y009747D01*
X002217Y009744D01*
X002256Y009737D01*
X002293Y009727D01*
X002329Y009712D01*
X002364Y009695D01*
X002397Y009674D01*
X002427Y009649D01*
X002455Y009622D01*
X002480Y009592D01*
X002502Y009560D01*
X002520Y009526D01*
X002535Y009490D01*
X002547Y009453D01*
X002555Y009415D01*
X002559Y009376D01*
X002559Y009338D01*
X002555Y009299D01*
X002547Y009261D01*
X002535Y009224D01*
X002520Y009188D01*
X002502Y009154D01*
X002480Y009122D01*
X002455Y009092D01*
X002427Y009065D01*
X002397Y009040D01*
X002364Y009019D01*
X002329Y009002D01*
X002293Y008987D01*
X002256Y008977D01*
X002217Y008970D01*
X002179Y008967D01*
X002140Y008968D01*
X002101Y008973D01*
X002063Y008982D01*
X002027Y008994D01*
X001991Y009010D01*
X001957Y009029D01*
X001926Y009052D01*
X001897Y009078D01*
X001870Y009106D01*
X001847Y009137D01*
X001826Y009170D01*
X001810Y009206D01*
X001796Y009242D01*
X001787Y009280D01*
X001781Y009318D01*
X001779Y009357D01*
X001769Y008957D02*
X002569Y009757D01*
X001116Y008397D02*
X001118Y008436D01*
X001124Y008474D01*
X001133Y008512D01*
X001147Y008548D01*
X001163Y008584D01*
X001184Y008617D01*
X001207Y008648D01*
X001234Y008676D01*
X001263Y008702D01*
X001294Y008725D01*
X001328Y008744D01*
X001364Y008760D01*
X001400Y008772D01*
X001438Y008781D01*
X001477Y008786D01*
X001516Y008787D01*
X001554Y008784D01*
X001593Y008777D01*
X001630Y008767D01*
X001666Y008752D01*
X001701Y008735D01*
X001734Y008714D01*
X001764Y008689D01*
X001792Y008662D01*
X001817Y008632D01*
X001839Y008600D01*
X001857Y008566D01*
X001872Y008530D01*
X001884Y008493D01*
X001892Y008455D01*
X001896Y008416D01*
X001896Y008378D01*
X001892Y008339D01*
X001884Y008301D01*
X001872Y008264D01*
X001857Y008228D01*
X001839Y008194D01*
X001817Y008162D01*
X001792Y008132D01*
X001764Y008105D01*
X001734Y008080D01*
X001701Y008059D01*
X001666Y008042D01*
X001630Y008027D01*
X001593Y008017D01*
X001554Y008010D01*
X001516Y008007D01*
X001477Y008008D01*
X001438Y008013D01*
X001400Y008022D01*
X001364Y008034D01*
X001328Y008050D01*
X001294Y008069D01*
X001263Y008092D01*
X001234Y008118D01*
X001207Y008146D01*
X001184Y008177D01*
X001163Y008210D01*
X001147Y008246D01*
X001133Y008282D01*
X001124Y008320D01*
X001118Y008358D01*
X001116Y008397D01*
X001106Y007997D02*
X001906Y008797D01*
X000976Y007239D02*
X000978Y007278D01*
X000984Y007316D01*
X000993Y007354D01*
X001007Y007390D01*
X001023Y007426D01*
X001044Y007459D01*
X001067Y007490D01*
X001094Y007518D01*
X001123Y007544D01*
X001154Y007567D01*
X001188Y007586D01*
X001224Y007602D01*
X001260Y007614D01*
X001298Y007623D01*
X001337Y007628D01*
X001376Y007629D01*
X001414Y007626D01*
X001453Y007619D01*
X001490Y007609D01*
X001526Y007594D01*
X001561Y007577D01*
X001594Y007556D01*
X001624Y007531D01*
X001652Y007504D01*
X001677Y007474D01*
X001699Y007442D01*
X001717Y007408D01*
X001732Y007372D01*
X001744Y007335D01*
X001752Y007297D01*
X001756Y007258D01*
X001756Y007220D01*
X001752Y007181D01*
X001744Y007143D01*
X001732Y007106D01*
X001717Y007070D01*
X001699Y007036D01*
X001677Y007004D01*
X001652Y006974D01*
X001624Y006947D01*
X001594Y006922D01*
X001561Y006901D01*
X001526Y006884D01*
X001490Y006869D01*
X001453Y006859D01*
X001414Y006852D01*
X001376Y006849D01*
X001337Y006850D01*
X001298Y006855D01*
X001260Y006864D01*
X001224Y006876D01*
X001188Y006892D01*
X001154Y006911D01*
X001123Y006934D01*
X001094Y006960D01*
X001067Y006988D01*
X001044Y007019D01*
X001023Y007052D01*
X001007Y007088D01*
X000993Y007124D01*
X000984Y007162D01*
X000978Y007200D01*
X000976Y007239D01*
X000966Y006839D02*
X001766Y007639D01*
X001389Y006149D02*
X001391Y006188D01*
X001397Y006226D01*
X001406Y006264D01*
X001420Y006300D01*
X001436Y006336D01*
X001457Y006369D01*
X001480Y006400D01*
X001507Y006428D01*
X001536Y006454D01*
X001567Y006477D01*
X001601Y006496D01*
X001637Y006512D01*
X001673Y006524D01*
X001711Y006533D01*
X001750Y006538D01*
X001789Y006539D01*
X001827Y006536D01*
X001866Y006529D01*
X001903Y006519D01*
X001939Y006504D01*
X001974Y006487D01*
X002007Y006466D01*
X002037Y006441D01*
X002065Y006414D01*
X002090Y006384D01*
X002112Y006352D01*
X002130Y006318D01*
X002145Y006282D01*
X002157Y006245D01*
X002165Y006207D01*
X002169Y006168D01*
X002169Y006130D01*
X002165Y006091D01*
X002157Y006053D01*
X002145Y006016D01*
X002130Y005980D01*
X002112Y005946D01*
X002090Y005914D01*
X002065Y005884D01*
X002037Y005857D01*
X002007Y005832D01*
X001974Y005811D01*
X001939Y005794D01*
X001903Y005779D01*
X001866Y005769D01*
X001827Y005762D01*
X001789Y005759D01*
X001750Y005760D01*
X001711Y005765D01*
X001673Y005774D01*
X001637Y005786D01*
X001601Y005802D01*
X001567Y005821D01*
X001536Y005844D01*
X001507Y005870D01*
X001480Y005898D01*
X001457Y005929D01*
X001436Y005962D01*
X001420Y005998D01*
X001406Y006034D01*
X001397Y006072D01*
X001391Y006110D01*
X001389Y006149D01*
X001379Y005749D02*
X002179Y006549D01*
X002263Y005375D02*
X002265Y005414D01*
X002271Y005452D01*
X002280Y005490D01*
X002294Y005526D01*
X002310Y005562D01*
X002331Y005595D01*
X002354Y005626D01*
X002381Y005654D01*
X002410Y005680D01*
X002441Y005703D01*
X002475Y005722D01*
X002511Y005738D01*
X002547Y005750D01*
X002585Y005759D01*
X002624Y005764D01*
X002663Y005765D01*
X002701Y005762D01*
X002740Y005755D01*
X002777Y005745D01*
X002813Y005730D01*
X002848Y005713D01*
X002881Y005692D01*
X002911Y005667D01*
X002939Y005640D01*
X002964Y005610D01*
X002986Y005578D01*
X003004Y005544D01*
X003019Y005508D01*
X003031Y005471D01*
X003039Y005433D01*
X003043Y005394D01*
X003043Y005356D01*
X003039Y005317D01*
X003031Y005279D01*
X003019Y005242D01*
X003004Y005206D01*
X002986Y005172D01*
X002964Y005140D01*
X002939Y005110D01*
X002911Y005083D01*
X002881Y005058D01*
X002848Y005037D01*
X002813Y005020D01*
X002777Y005005D01*
X002740Y004995D01*
X002701Y004988D01*
X002663Y004985D01*
X002624Y004986D01*
X002585Y004991D01*
X002547Y005000D01*
X002511Y005012D01*
X002475Y005028D01*
X002441Y005047D01*
X002410Y005070D01*
X002381Y005096D01*
X002354Y005124D01*
X002331Y005155D01*
X002310Y005188D01*
X002294Y005224D01*
X002280Y005260D01*
X002271Y005298D01*
X002265Y005336D01*
X002263Y005375D01*
X002253Y004975D02*
X003053Y005775D01*
X002393Y003917D02*
X002395Y003956D01*
X002401Y003994D01*
X002410Y004032D01*
X002424Y004068D01*
X002440Y004104D01*
X002461Y004137D01*
X002484Y004168D01*
X002511Y004196D01*
X002540Y004222D01*
X002571Y004245D01*
X002605Y004264D01*
X002641Y004280D01*
X002677Y004292D01*
X002715Y004301D01*
X002754Y004306D01*
X002793Y004307D01*
X002831Y004304D01*
X002870Y004297D01*
X002907Y004287D01*
X002943Y004272D01*
X002978Y004255D01*
X003011Y004234D01*
X003041Y004209D01*
X003069Y004182D01*
X003094Y004152D01*
X003116Y004120D01*
X003134Y004086D01*
X003149Y004050D01*
X003161Y004013D01*
X003169Y003975D01*
X003173Y003936D01*
X003173Y003898D01*
X003169Y003859D01*
X003161Y003821D01*
X003149Y003784D01*
X003134Y003748D01*
X003116Y003714D01*
X003094Y003682D01*
X003069Y003652D01*
X003041Y003625D01*
X003011Y003600D01*
X002978Y003579D01*
X002943Y003562D01*
X002907Y003547D01*
X002870Y003537D01*
X002831Y003530D01*
X002793Y003527D01*
X002754Y003528D01*
X002715Y003533D01*
X002677Y003542D01*
X002641Y003554D01*
X002605Y003570D01*
X002571Y003589D01*
X002540Y003612D01*
X002511Y003638D01*
X002484Y003666D01*
X002461Y003697D01*
X002440Y003730D01*
X002424Y003766D01*
X002410Y003802D01*
X002401Y003840D01*
X002395Y003878D01*
X002393Y003917D01*
X002383Y003517D02*
X003183Y004317D01*
X003706Y002702D02*
X003708Y002741D01*
X003714Y002779D01*
X003723Y002817D01*
X003737Y002853D01*
X003753Y002889D01*
X003774Y002922D01*
X003797Y002953D01*
X003824Y002981D01*
X003853Y003007D01*
X003884Y003030D01*
X003918Y003049D01*
X003954Y003065D01*
X003990Y003077D01*
X004028Y003086D01*
X004067Y003091D01*
X004106Y003092D01*
X004144Y003089D01*
X004183Y003082D01*
X004220Y003072D01*
X004256Y003057D01*
X004291Y003040D01*
X004324Y003019D01*
X004354Y002994D01*
X004382Y002967D01*
X004407Y002937D01*
X004429Y002905D01*
X004447Y002871D01*
X004462Y002835D01*
X004474Y002798D01*
X004482Y002760D01*
X004486Y002721D01*
X004486Y002683D01*
X004482Y002644D01*
X004474Y002606D01*
X004462Y002569D01*
X004447Y002533D01*
X004429Y002499D01*
X004407Y002467D01*
X004382Y002437D01*
X004354Y002410D01*
X004324Y002385D01*
X004291Y002364D01*
X004256Y002347D01*
X004220Y002332D01*
X004183Y002322D01*
X004144Y002315D01*
X004106Y002312D01*
X004067Y002313D01*
X004028Y002318D01*
X003990Y002327D01*
X003954Y002339D01*
X003918Y002355D01*
X003884Y002374D01*
X003853Y002397D01*
X003824Y002423D01*
X003797Y002451D01*
X003774Y002482D01*
X003753Y002515D01*
X003737Y002551D01*
X003723Y002587D01*
X003714Y002625D01*
X003708Y002663D01*
X003706Y002702D01*
X003696Y002302D02*
X004496Y003102D01*
X003706Y001915D02*
X003708Y001954D01*
X003714Y001992D01*
X003723Y002030D01*
X003737Y002066D01*
X003753Y002102D01*
X003774Y002135D01*
X003797Y002166D01*
X003824Y002194D01*
X003853Y002220D01*
X003884Y002243D01*
X003918Y002262D01*
X003954Y002278D01*
X003990Y002290D01*
X004028Y002299D01*
X004067Y002304D01*
X004106Y002305D01*
X004144Y002302D01*
X004183Y002295D01*
X004220Y002285D01*
X004256Y002270D01*
X004291Y002253D01*
X004324Y002232D01*
X004354Y002207D01*
X004382Y002180D01*
X004407Y002150D01*
X004429Y002118D01*
X004447Y002084D01*
X004462Y002048D01*
X004474Y002011D01*
X004482Y001973D01*
X004486Y001934D01*
X004486Y001896D01*
X004482Y001857D01*
X004474Y001819D01*
X004462Y001782D01*
X004447Y001746D01*
X004429Y001712D01*
X004407Y001680D01*
X004382Y001650D01*
X004354Y001623D01*
X004324Y001598D01*
X004291Y001577D01*
X004256Y001560D01*
X004220Y001545D01*
X004183Y001535D01*
X004144Y001528D01*
X004106Y001525D01*
X004067Y001526D01*
X004028Y001531D01*
X003990Y001540D01*
X003954Y001552D01*
X003918Y001568D01*
X003884Y001587D01*
X003853Y001610D01*
X003824Y001636D01*
X003797Y001664D01*
X003774Y001695D01*
X003753Y001728D01*
X003737Y001764D01*
X003723Y001800D01*
X003714Y001838D01*
X003708Y001876D01*
X003706Y001915D01*
X003696Y001515D02*
X004496Y002315D01*
X005029Y001887D02*
X005031Y001926D01*
X005037Y001964D01*
X005046Y002002D01*
X005060Y002038D01*
X005076Y002074D01*
X005097Y002107D01*
X005120Y002138D01*
X005147Y002166D01*
X005176Y002192D01*
X005207Y002215D01*
X005241Y002234D01*
X005277Y002250D01*
X005313Y002262D01*
X005351Y002271D01*
X005390Y002276D01*
X005429Y002277D01*
X005467Y002274D01*
X005506Y002267D01*
X005543Y002257D01*
X005579Y002242D01*
X005614Y002225D01*
X005647Y002204D01*
X005677Y002179D01*
X005705Y002152D01*
X005730Y002122D01*
X005752Y002090D01*
X005770Y002056D01*
X005785Y002020D01*
X005797Y001983D01*
X005805Y001945D01*
X005809Y001906D01*
X005809Y001868D01*
X005805Y001829D01*
X005797Y001791D01*
X005785Y001754D01*
X005770Y001718D01*
X005752Y001684D01*
X005730Y001652D01*
X005705Y001622D01*
X005677Y001595D01*
X005647Y001570D01*
X005614Y001549D01*
X005579Y001532D01*
X005543Y001517D01*
X005506Y001507D01*
X005467Y001500D01*
X005429Y001497D01*
X005390Y001498D01*
X005351Y001503D01*
X005313Y001512D01*
X005277Y001524D01*
X005241Y001540D01*
X005207Y001559D01*
X005176Y001582D01*
X005147Y001608D01*
X005120Y001636D01*
X005097Y001667D01*
X005076Y001700D01*
X005060Y001736D01*
X005046Y001772D01*
X005037Y001810D01*
X005031Y001848D01*
X005029Y001887D01*
X005019Y001487D02*
X005819Y002287D01*
X005029Y002887D02*
X005031Y002926D01*
X005037Y002964D01*
X005046Y003002D01*
X005060Y003038D01*
X005076Y003074D01*
X005097Y003107D01*
X005120Y003138D01*
X005147Y003166D01*
X005176Y003192D01*
X005207Y003215D01*
X005241Y003234D01*
X005277Y003250D01*
X005313Y003262D01*
X005351Y003271D01*
X005390Y003276D01*
X005429Y003277D01*
X005467Y003274D01*
X005506Y003267D01*
X005543Y003257D01*
X005579Y003242D01*
X005614Y003225D01*
X005647Y003204D01*
X005677Y003179D01*
X005705Y003152D01*
X005730Y003122D01*
X005752Y003090D01*
X005770Y003056D01*
X005785Y003020D01*
X005797Y002983D01*
X005805Y002945D01*
X005809Y002906D01*
X005809Y002868D01*
X005805Y002829D01*
X005797Y002791D01*
X005785Y002754D01*
X005770Y002718D01*
X005752Y002684D01*
X005730Y002652D01*
X005705Y002622D01*
X005677Y002595D01*
X005647Y002570D01*
X005614Y002549D01*
X005579Y002532D01*
X005543Y002517D01*
X005506Y002507D01*
X005467Y002500D01*
X005429Y002497D01*
X005390Y002498D01*
X005351Y002503D01*
X005313Y002512D01*
X005277Y002524D01*
X005241Y002540D01*
X005207Y002559D01*
X005176Y002582D01*
X005147Y002608D01*
X005120Y002636D01*
X005097Y002667D01*
X005076Y002700D01*
X005060Y002736D01*
X005046Y002772D01*
X005037Y002810D01*
X005031Y002848D01*
X005029Y002887D01*
X005019Y002487D02*
X005819Y003287D01*
X006127Y002907D02*
X006129Y002946D01*
X006135Y002984D01*
X006144Y003022D01*
X006158Y003058D01*
X006174Y003094D01*
X006195Y003127D01*
X006218Y003158D01*
X006245Y003186D01*
X006274Y003212D01*
X006305Y003235D01*
X006339Y003254D01*
X006375Y003270D01*
X006411Y003282D01*
X006449Y003291D01*
X006488Y003296D01*
X006527Y003297D01*
X006565Y003294D01*
X006604Y003287D01*
X006641Y003277D01*
X006677Y003262D01*
X006712Y003245D01*
X006745Y003224D01*
X006775Y003199D01*
X006803Y003172D01*
X006828Y003142D01*
X006850Y003110D01*
X006868Y003076D01*
X006883Y003040D01*
X006895Y003003D01*
X006903Y002965D01*
X006907Y002926D01*
X006907Y002888D01*
X006903Y002849D01*
X006895Y002811D01*
X006883Y002774D01*
X006868Y002738D01*
X006850Y002704D01*
X006828Y002672D01*
X006803Y002642D01*
X006775Y002615D01*
X006745Y002590D01*
X006712Y002569D01*
X006677Y002552D01*
X006641Y002537D01*
X006604Y002527D01*
X006565Y002520D01*
X006527Y002517D01*
X006488Y002518D01*
X006449Y002523D01*
X006411Y002532D01*
X006375Y002544D01*
X006339Y002560D01*
X006305Y002579D01*
X006274Y002602D01*
X006245Y002628D01*
X006218Y002656D01*
X006195Y002687D01*
X006174Y002720D01*
X006158Y002756D01*
X006144Y002792D01*
X006135Y002830D01*
X006129Y002868D01*
X006127Y002907D01*
X006117Y002507D02*
X006917Y003307D01*
X006127Y001907D02*
X006129Y001946D01*
X006135Y001984D01*
X006144Y002022D01*
X006158Y002058D01*
X006174Y002094D01*
X006195Y002127D01*
X006218Y002158D01*
X006245Y002186D01*
X006274Y002212D01*
X006305Y002235D01*
X006339Y002254D01*
X006375Y002270D01*
X006411Y002282D01*
X006449Y002291D01*
X006488Y002296D01*
X006527Y002297D01*
X006565Y002294D01*
X006604Y002287D01*
X006641Y002277D01*
X006677Y002262D01*
X006712Y002245D01*
X006745Y002224D01*
X006775Y002199D01*
X006803Y002172D01*
X006828Y002142D01*
X006850Y002110D01*
X006868Y002076D01*
X006883Y002040D01*
X006895Y002003D01*
X006903Y001965D01*
X006907Y001926D01*
X006907Y001888D01*
X006903Y001849D01*
X006895Y001811D01*
X006883Y001774D01*
X006868Y001738D01*
X006850Y001704D01*
X006828Y001672D01*
X006803Y001642D01*
X006775Y001615D01*
X006745Y001590D01*
X006712Y001569D01*
X006677Y001552D01*
X006641Y001537D01*
X006604Y001527D01*
X006565Y001520D01*
X006527Y001517D01*
X006488Y001518D01*
X006449Y001523D01*
X006411Y001532D01*
X006375Y001544D01*
X006339Y001560D01*
X006305Y001579D01*
X006274Y001602D01*
X006245Y001628D01*
X006218Y001656D01*
X006195Y001687D01*
X006174Y001720D01*
X006158Y001756D01*
X006144Y001792D01*
X006135Y001830D01*
X006129Y001868D01*
X006127Y001907D01*
X006117Y001507D02*
X006917Y002307D01*
X006793Y000754D02*
X007193Y000754D01*
X006793Y000754D02*
X006393Y001154D01*
X006393Y000354D01*
X006793Y000754D01*
X002919Y001915D02*
X002921Y001954D01*
X002927Y001992D01*
X002936Y002030D01*
X002950Y002066D01*
X002966Y002102D01*
X002987Y002135D01*
X003010Y002166D01*
X003037Y002194D01*
X003066Y002220D01*
X003097Y002243D01*
X003131Y002262D01*
X003167Y002278D01*
X003203Y002290D01*
X003241Y002299D01*
X003280Y002304D01*
X003319Y002305D01*
X003357Y002302D01*
X003396Y002295D01*
X003433Y002285D01*
X003469Y002270D01*
X003504Y002253D01*
X003537Y002232D01*
X003567Y002207D01*
X003595Y002180D01*
X003620Y002150D01*
X003642Y002118D01*
X003660Y002084D01*
X003675Y002048D01*
X003687Y002011D01*
X003695Y001973D01*
X003699Y001934D01*
X003699Y001896D01*
X003695Y001857D01*
X003687Y001819D01*
X003675Y001782D01*
X003660Y001746D01*
X003642Y001712D01*
X003620Y001680D01*
X003595Y001650D01*
X003567Y001623D01*
X003537Y001598D01*
X003504Y001577D01*
X003469Y001560D01*
X003433Y001545D01*
X003396Y001535D01*
X003357Y001528D01*
X003319Y001525D01*
X003280Y001526D01*
X003241Y001531D01*
X003203Y001540D01*
X003167Y001552D01*
X003131Y001568D01*
X003097Y001587D01*
X003066Y001610D01*
X003037Y001636D01*
X003010Y001664D01*
X002987Y001695D01*
X002966Y001728D01*
X002950Y001764D01*
X002936Y001800D01*
X002927Y001838D01*
X002921Y001876D01*
X002919Y001915D01*
X002909Y001515D02*
X003709Y002315D01*
X002131Y001915D02*
X002133Y001954D01*
X002139Y001992D01*
X002148Y002030D01*
X002162Y002066D01*
X002178Y002102D01*
X002199Y002135D01*
X002222Y002166D01*
X002249Y002194D01*
X002278Y002220D01*
X002309Y002243D01*
X002343Y002262D01*
X002379Y002278D01*
X002415Y002290D01*
X002453Y002299D01*
X002492Y002304D01*
X002531Y002305D01*
X002569Y002302D01*
X002608Y002295D01*
X002645Y002285D01*
X002681Y002270D01*
X002716Y002253D01*
X002749Y002232D01*
X002779Y002207D01*
X002807Y002180D01*
X002832Y002150D01*
X002854Y002118D01*
X002872Y002084D01*
X002887Y002048D01*
X002899Y002011D01*
X002907Y001973D01*
X002911Y001934D01*
X002911Y001896D01*
X002907Y001857D01*
X002899Y001819D01*
X002887Y001782D01*
X002872Y001746D01*
X002854Y001712D01*
X002832Y001680D01*
X002807Y001650D01*
X002779Y001623D01*
X002749Y001598D01*
X002716Y001577D01*
X002681Y001560D01*
X002645Y001545D01*
X002608Y001535D01*
X002569Y001528D01*
X002531Y001525D01*
X002492Y001526D01*
X002453Y001531D01*
X002415Y001540D01*
X002379Y001552D01*
X002343Y001568D01*
X002309Y001587D01*
X002278Y001610D01*
X002249Y001636D01*
X002222Y001664D01*
X002199Y001695D01*
X002178Y001728D01*
X002162Y001764D01*
X002148Y001800D01*
X002139Y001838D01*
X002133Y001876D01*
X002131Y001915D01*
X002121Y001515D02*
X002921Y002315D01*
X001344Y001915D02*
X001346Y001954D01*
X001352Y001992D01*
X001361Y002030D01*
X001375Y002066D01*
X001391Y002102D01*
X001412Y002135D01*
X001435Y002166D01*
X001462Y002194D01*
X001491Y002220D01*
X001522Y002243D01*
X001556Y002262D01*
X001592Y002278D01*
X001628Y002290D01*
X001666Y002299D01*
X001705Y002304D01*
X001744Y002305D01*
X001782Y002302D01*
X001821Y002295D01*
X001858Y002285D01*
X001894Y002270D01*
X001929Y002253D01*
X001962Y002232D01*
X001992Y002207D01*
X002020Y002180D01*
X002045Y002150D01*
X002067Y002118D01*
X002085Y002084D01*
X002100Y002048D01*
X002112Y002011D01*
X002120Y001973D01*
X002124Y001934D01*
X002124Y001896D01*
X002120Y001857D01*
X002112Y001819D01*
X002100Y001782D01*
X002085Y001746D01*
X002067Y001712D01*
X002045Y001680D01*
X002020Y001650D01*
X001992Y001623D01*
X001962Y001598D01*
X001929Y001577D01*
X001894Y001560D01*
X001858Y001545D01*
X001821Y001535D01*
X001782Y001528D01*
X001744Y001525D01*
X001705Y001526D01*
X001666Y001531D01*
X001628Y001540D01*
X001592Y001552D01*
X001556Y001568D01*
X001522Y001587D01*
X001491Y001610D01*
X001462Y001636D01*
X001435Y001664D01*
X001412Y001695D01*
X001391Y001728D01*
X001375Y001764D01*
X001361Y001800D01*
X001352Y001838D01*
X001346Y001876D01*
X001344Y001915D01*
X001334Y001515D02*
X002134Y002315D01*
X000556Y002702D02*
X000558Y002741D01*
X000564Y002779D01*
X000573Y002817D01*
X000587Y002853D01*
X000603Y002889D01*
X000624Y002922D01*
X000647Y002953D01*
X000674Y002981D01*
X000703Y003007D01*
X000734Y003030D01*
X000768Y003049D01*
X000804Y003065D01*
X000840Y003077D01*
X000878Y003086D01*
X000917Y003091D01*
X000956Y003092D01*
X000994Y003089D01*
X001033Y003082D01*
X001070Y003072D01*
X001106Y003057D01*
X001141Y003040D01*
X001174Y003019D01*
X001204Y002994D01*
X001232Y002967D01*
X001257Y002937D01*
X001279Y002905D01*
X001297Y002871D01*
X001312Y002835D01*
X001324Y002798D01*
X001332Y002760D01*
X001336Y002721D01*
X001336Y002683D01*
X001332Y002644D01*
X001324Y002606D01*
X001312Y002569D01*
X001297Y002533D01*
X001279Y002499D01*
X001257Y002467D01*
X001232Y002437D01*
X001204Y002410D01*
X001174Y002385D01*
X001141Y002364D01*
X001106Y002347D01*
X001070Y002332D01*
X001033Y002322D01*
X000994Y002315D01*
X000956Y002312D01*
X000917Y002313D01*
X000878Y002318D01*
X000840Y002327D01*
X000804Y002339D01*
X000768Y002355D01*
X000734Y002374D01*
X000703Y002397D01*
X000674Y002423D01*
X000647Y002451D01*
X000624Y002482D01*
X000603Y002515D01*
X000587Y002551D01*
X000573Y002587D01*
X000564Y002625D01*
X000558Y002663D01*
X000556Y002702D01*
X000546Y002302D02*
X001346Y003102D01*
X001091Y010202D02*
X000691Y010202D01*
X000291Y010602D01*
X000291Y009802D01*
X000691Y010202D01*
M02*
