; NON-PLATED HOLES START AT T1
; THROUGH (PLATED) HOLES START AT T100
M48
INCH
T1C0.086614
T100C0.041333
T101C0.038000
T102C0.042000
T103C0.031555
T104C0.035000
T105C0.015748
T106C0.040000
T107C0.043307
T108C0.034000
T109C0.041361
T110C0.030000
T111C0.039370
T112C0.031496
%
T1
X031620Y014743
X031620Y000766
X010754Y000766
X011344Y014743
T100
X001108Y001719
X001108Y002719
T101
X014116Y001160
X019021Y003884
X019021Y005884
X030439Y001160
X012116Y001160
X020596Y003916
X015116Y001160
X019596Y001160
X013116Y001160
X018596Y001160
X021596Y001160
X029439Y001160
X020596Y004916
X019021Y004884
X020596Y001160
T102
X004258Y014940
X003470Y007538
X007604Y001750
X003470Y004558
X007604Y004750
X007238Y014940
T103
X030045Y010412
T104
X036738Y009821
X018959Y011593
X039738Y003522
X009770Y010790
X012132Y006735
X012872Y013806
X018959Y013758
X014100Y006735
X033738Y009821
X032738Y003522
X039738Y009821
X035738Y009821
X015872Y014806
X012872Y012806
X022959Y011593
X015872Y009806
X037738Y006522
X022959Y012577
X013116Y002735
X005636Y012380
X038738Y003522
X015872Y012806
X022959Y013758
X038738Y009821
X012872Y007806
X039738Y006522
X034738Y006522
X034738Y009821
X016856Y002672
X033738Y012821
X037738Y012821
X035738Y003522
X032738Y012821
X018959Y014743
X034738Y012821
X039738Y012821
X013116Y006735
X012872Y009806
X008392Y006790
X037738Y003522
X015872Y007806
X015872Y013806
X033738Y003522
X018959Y012577
X016856Y006672
X018762Y009231
X015872Y008806
X015084Y006735
X034738Y003522
X002683Y004569
X008392Y010790
X032738Y009821
X032738Y006522
X012872Y011806
X015084Y002735
X012872Y010806
X014100Y002735
X035738Y012821
X012872Y008806
X036738Y012821
X015872Y010806
X038738Y012821
X036738Y003522
X012872Y014806
X002683Y000569
X012132Y002735
X033738Y006522
X015872Y011806
X022762Y009231
X038738Y006522
X035738Y006522
X036738Y006522
X004636Y012380
X037738Y009821
X009770Y006790
X022959Y014743
T105
X030439Y002341
X030833Y006081
X033785Y001357
X009573Y008443
X039770Y011003
X023046Y004488
X041344Y009664
X041344Y009034
X041344Y013207
X036738Y001750
X038311Y002147
X039698Y013770
X041344Y011475
X039258Y010491
X017644Y006475
X016856Y005294
X016856Y012774
X038311Y000763
X034770Y007853
X007604Y008443
X010951Y009821
X016856Y003719
X037718Y005095
X017644Y005294
X035754Y008640
X020006Y006672
X030242Y004703
X027486Y014349
X041456Y006083
X036738Y008247
X041456Y003530
X040911Y010451
X027486Y007144
X029100Y008207
X033791Y008639
X040079Y014354
X026896Y008050
X037718Y005885
X032794Y002147
T106
X042644Y012380
X043644Y004325
X022762Y008050
X005439Y010018
X043644Y003325
X043644Y011380
X043644Y002325
X042644Y011380
X042644Y013380
X043644Y013380
X042644Y004325
X042644Y014380
X042644Y010380
X043644Y012380
X006439Y010018
X001502Y010609
X043644Y005325
X018762Y008050
X042644Y002325
X004439Y010018
X042644Y003325
X042644Y005325
X043644Y014380
X043644Y010380
X043644Y001325
X042644Y001325
X001502Y006609
T107
X024092Y003010
X022092Y003010
X023092Y003010
T108
X025124Y005113
X028449Y002113
X025124Y014113
X028449Y003113
X025124Y009113
X025124Y001113
X028449Y011113
X025124Y013113
X025124Y011113
X025124Y006113
X028449Y001113
X025124Y012113
X025124Y004113
X028449Y006113
X028449Y009113
X028449Y013113
X025124Y008113
X025124Y010113
X025124Y003113
X028449Y004113
X025124Y007113
X028449Y014113
X028449Y012113
X028449Y007113
X028449Y010113
X025124Y002113
X028449Y008113
X028449Y005113
T109
X001108Y003719
T110
X007604Y011790
X003305Y013562
X031502Y010394
X007604Y012792
X005636Y007262
X031047Y014073
X002305Y011562
X029651Y006654
X031502Y011396
X023960Y007066
X031226Y003443
X030224Y003443
X031226Y005491
X031008Y008798
X004634Y007262
X001305Y013562
X030224Y005491
X029651Y007656
X022958Y007066
X030006Y008798
X030045Y014073
T111
X009573Y014971
X009573Y012971
X009573Y013971
T112
X030045Y012343
T00
M30
