; NON-PLATED HOLES START AT T1
; THROUGH (PLATED) HOLES START AT T100
M48
INCH
T1C0.057000
T2C0.086614
T100C0.044584
T101C0.038000
T102C0.043111
T103C0.015748
%
T1
X009720Y007800
X010720Y005800
X010720Y009800
X009720Y008800
X009720Y009800
X009720Y005800
X010720Y007800
X009720Y006800
X010720Y008800
X010720Y006800
T2
X000719Y011085
X006704Y011091
X006714Y000737
X000720Y000737
T100
X002137Y009871
X005976Y006721
X005287Y003572
X005287Y009871
X005976Y008296
X001448Y006721
X001448Y005146
X002137Y003572
X001448Y008296
X005976Y005146
X003712Y010265
X003712Y003178
T101
X005326Y000642
X005326Y001642
X003751Y000619
X003751Y001619
T102
X009720Y007800
X010720Y005800
X010720Y009800
X009720Y008800
X009720Y009800
X009720Y005800
X010720Y007800
X009720Y006800
X010720Y008800
X010720Y006800
T103
X007597Y004251
X009517Y003771
X008077Y003531
X008317Y007371
T00
M30
