G04 MADE WITH FRITZING*
G04 WWW.FRITZING.ORG*
G04 DOUBLE SIDED*
G04 HOLES PLATED*
G04 CONTOUR ON CENTER OF CONTOUR VECTOR*
%ASAXBY*%
%FSLAX23Y23*%
%MOIN*%
%OFA0B0*%
%SFA1.0B1.0*%
%ADD10C,0.039370*%
%ADD11C,0.070889*%
%ADD12C,0.057000*%
%ADD13C,0.093195*%
%ADD14C,0.078000*%
%ADD15C,0.024000*%
%LNCOPPER0*%
G90*
G70*
G54D10*
X832Y737D03*
X760Y425D03*
X808Y353D03*
X952Y377D03*
G54D11*
X972Y580D03*
X1072Y580D03*
X972Y680D03*
X1072Y680D03*
X972Y780D03*
X1072Y780D03*
X972Y880D03*
X1072Y880D03*
X972Y980D03*
X1072Y980D03*
G54D12*
X972Y580D03*
X1072Y580D03*
X972Y680D03*
X1072Y680D03*
X972Y780D03*
X1072Y780D03*
X972Y880D03*
X1072Y880D03*
X972Y980D03*
X1072Y980D03*
G54D13*
X529Y357D03*
X598Y515D03*
X214Y357D03*
X145Y515D03*
X145Y672D03*
X145Y830D03*
X214Y987D03*
X371Y1027D03*
X529Y987D03*
X598Y830D03*
X598Y672D03*
X371Y318D03*
G54D14*
X533Y64D03*
X533Y164D03*
X533Y64D03*
X533Y164D03*
X375Y62D03*
X375Y162D03*
X375Y62D03*
X375Y162D03*
G54D15*
X533Y94D02*
X533Y134D01*
D02*
X373Y284D02*
X376Y209D01*
D02*
X376Y209D02*
X376Y192D01*
D02*
X1103Y891D02*
X1144Y905D01*
D02*
X1144Y905D02*
X1120Y1049D01*
D02*
X1120Y1049D02*
X904Y1049D01*
D02*
X904Y1049D02*
X625Y849D01*
D02*
X1100Y763D02*
X1144Y737D01*
D02*
X1144Y737D02*
X1120Y521D01*
D02*
X1120Y521D02*
X904Y521D01*
D02*
X904Y521D02*
X904Y833D01*
D02*
X904Y833D02*
X664Y761D01*
D02*
X664Y761D02*
X544Y761D01*
D02*
X544Y761D02*
X544Y773D01*
D02*
X544Y773D02*
X448Y977D01*
D02*
X448Y977D02*
X399Y1008D01*
D02*
X817Y725D02*
X664Y593D01*
D02*
X664Y593D02*
X520Y593D01*
D02*
X520Y593D02*
X234Y961D01*
D02*
X741Y425D02*
X544Y425D01*
D02*
X544Y425D02*
X177Y507D01*
D02*
X791Y343D02*
X688Y281D01*
D02*
X688Y281D02*
X448Y281D01*
D02*
X448Y281D02*
X448Y401D01*
D02*
X448Y401D02*
X280Y425D01*
D02*
X280Y425D02*
X88Y425D01*
D02*
X88Y425D02*
X64Y713D01*
D02*
X64Y713D02*
X126Y802D01*
D02*
X936Y388D02*
X808Y473D01*
D02*
X808Y473D02*
X630Y508D01*
D02*
X375Y132D02*
X375Y92D01*
G04 End of Copper0*
M02*