G04 MADE WITH FRITZING*
G04 WWW.FRITZING.ORG*
G04 DOUBLE SIDED*
G04 HOLES PLATED*
G04 CONTOUR ON CENTER OF CONTOUR VECTOR*
%ASAXBY*%
%FSLAX23Y23*%
%MOIN*%
%OFA0B0*%
%SFA1.0B1.0*%
%ADD10R,4.527570X1.594490X4.511570X1.578490*%
%ADD11C,0.008000*%
%ADD12R,0.001000X0.001000*%
%LNSILK0*%
G90*
G70*
G54D11*
X4Y1590D02*
X4524Y1590D01*
X4524Y4D01*
X4Y4D01*
X4Y1590D01*
D02*
G54D12*
X3028Y848D02*
X3036Y848D01*
X3082Y848D02*
X3128Y848D01*
X3154Y848D02*
X3175Y848D01*
X3246Y848D02*
X3250Y848D01*
X3295Y848D02*
X3344Y848D01*
X3410Y848D02*
X3413Y848D01*
X3460Y848D02*
X3467Y848D01*
X3514Y848D02*
X3518Y848D01*
X3554Y848D02*
X3556Y848D01*
X3658Y848D02*
X3662Y848D01*
X3698Y848D02*
X3701Y848D01*
X3730Y848D02*
X3751Y848D01*
X3802Y848D02*
X3845Y848D01*
X3874Y848D02*
X3878Y848D01*
X3914Y848D02*
X3917Y848D01*
X4018Y848D02*
X4039Y848D01*
X4090Y848D02*
X4094Y848D01*
X4124Y848D02*
X4136Y848D01*
X4162Y848D02*
X4205Y848D01*
X4234Y848D02*
X4238Y848D01*
X4268Y848D02*
X4280Y848D01*
X4314Y848D02*
X4352Y848D01*
X4398Y848D02*
X4402Y848D01*
X4450Y848D02*
X4454Y848D01*
X4490Y848D02*
X4493Y848D01*
X3026Y847D02*
X3037Y847D01*
X3081Y847D02*
X3128Y847D01*
X3153Y847D02*
X3177Y847D01*
X3245Y847D02*
X3251Y847D01*
X3295Y847D02*
X3344Y847D01*
X3409Y847D02*
X3415Y847D01*
X3458Y847D02*
X3470Y847D01*
X3513Y847D02*
X3519Y847D01*
X3553Y847D02*
X3556Y847D01*
X3657Y847D02*
X3662Y847D01*
X3697Y847D02*
X3703Y847D01*
X3729Y847D02*
X3753Y847D01*
X3801Y847D02*
X3847Y847D01*
X3873Y847D02*
X3879Y847D01*
X3913Y847D02*
X3919Y847D01*
X4017Y847D02*
X4041Y847D01*
X4089Y847D02*
X4095Y847D01*
X4123Y847D02*
X4136Y847D01*
X4161Y847D02*
X4207Y847D01*
X4233Y847D02*
X4239Y847D01*
X4267Y847D02*
X4280Y847D01*
X4312Y847D02*
X4352Y847D01*
X4397Y847D02*
X4403Y847D01*
X4449Y847D02*
X4455Y847D01*
X4488Y847D02*
X4495Y847D01*
X3025Y846D02*
X3038Y846D01*
X3080Y846D02*
X3128Y846D01*
X3152Y846D02*
X3179Y846D01*
X3244Y846D02*
X3252Y846D01*
X3295Y846D02*
X3344Y846D01*
X3408Y846D02*
X3416Y846D01*
X3457Y846D02*
X3471Y846D01*
X3512Y846D02*
X3520Y846D01*
X3552Y846D02*
X3558Y846D01*
X3656Y846D02*
X3660Y846D01*
X3696Y846D02*
X3703Y846D01*
X3728Y846D02*
X3755Y846D01*
X3800Y846D02*
X3847Y846D01*
X3872Y846D02*
X3880Y846D01*
X3912Y846D02*
X3919Y846D01*
X4016Y846D02*
X4043Y846D01*
X4088Y846D02*
X4096Y846D01*
X4123Y846D02*
X4136Y846D01*
X4160Y846D02*
X4207Y846D01*
X4232Y846D02*
X4240Y846D01*
X4267Y846D02*
X4280Y846D01*
X4310Y846D02*
X4352Y846D01*
X4396Y846D02*
X4404Y846D01*
X4448Y846D02*
X4456Y846D01*
X4488Y846D02*
X4495Y846D01*
X3025Y845D02*
X3039Y845D01*
X3080Y845D02*
X3128Y845D01*
X3152Y845D02*
X3180Y845D01*
X3244Y845D02*
X3252Y845D01*
X3295Y845D02*
X3344Y845D01*
X3407Y845D02*
X3416Y845D01*
X3455Y845D02*
X3472Y845D01*
X3512Y845D02*
X3520Y845D01*
X3551Y845D02*
X3559Y845D01*
X3656Y845D02*
X3658Y845D01*
X3695Y845D02*
X3704Y845D01*
X3728Y845D02*
X3756Y845D01*
X3800Y845D02*
X3848Y845D01*
X3872Y845D02*
X3880Y845D01*
X3911Y845D02*
X3920Y845D01*
X4016Y845D02*
X4044Y845D01*
X4088Y845D02*
X4096Y845D01*
X4122Y845D02*
X4136Y845D01*
X4160Y845D02*
X4208Y845D01*
X4232Y845D02*
X4240Y845D01*
X4266Y845D02*
X4280Y845D01*
X4309Y845D02*
X4352Y845D01*
X4395Y845D02*
X4404Y845D01*
X4448Y845D02*
X4456Y845D01*
X4487Y845D02*
X4496Y845D01*
X3025Y844D02*
X3039Y844D01*
X3080Y844D02*
X3128Y844D01*
X3152Y844D02*
X3181Y844D01*
X3243Y844D02*
X3253Y844D01*
X3295Y844D02*
X3344Y844D01*
X3407Y844D02*
X3416Y844D01*
X3454Y844D02*
X3473Y844D01*
X3511Y844D02*
X3520Y844D01*
X3551Y844D02*
X3560Y844D01*
X3655Y844D02*
X3657Y844D01*
X3695Y844D02*
X3704Y844D01*
X3727Y844D02*
X3757Y844D01*
X3799Y844D02*
X3848Y844D01*
X3871Y844D02*
X3880Y844D01*
X3911Y844D02*
X3920Y844D01*
X4015Y844D02*
X4045Y844D01*
X4087Y844D02*
X4096Y844D01*
X4122Y844D02*
X4136Y844D01*
X4159Y844D02*
X4208Y844D01*
X4231Y844D02*
X4240Y844D01*
X4266Y844D02*
X4280Y844D01*
X4308Y844D02*
X4352Y844D01*
X4395Y844D02*
X4404Y844D01*
X4447Y844D02*
X4456Y844D01*
X4487Y844D02*
X4496Y844D01*
X3025Y843D02*
X3039Y843D01*
X3080Y843D02*
X3128Y843D01*
X3152Y843D02*
X3182Y843D01*
X3243Y843D02*
X3253Y843D01*
X3295Y843D02*
X3344Y843D01*
X3407Y843D02*
X3416Y843D01*
X3454Y843D02*
X3474Y843D01*
X3511Y843D02*
X3521Y843D01*
X3551Y843D02*
X3560Y843D01*
X3655Y843D02*
X3656Y843D01*
X3695Y843D02*
X3704Y843D01*
X3727Y843D02*
X3758Y843D01*
X3799Y843D02*
X3848Y843D01*
X3871Y843D02*
X3880Y843D01*
X3911Y843D02*
X3920Y843D01*
X4015Y843D02*
X4046Y843D01*
X4087Y843D02*
X4096Y843D01*
X4121Y843D02*
X4136Y843D01*
X4159Y843D02*
X4208Y843D01*
X4231Y843D02*
X4240Y843D01*
X4265Y843D02*
X4280Y843D01*
X4307Y843D02*
X4352Y843D01*
X4395Y843D02*
X4405Y843D01*
X4447Y843D02*
X4456Y843D01*
X4487Y843D02*
X4496Y843D01*
X3025Y842D02*
X3039Y842D01*
X3080Y842D02*
X3128Y842D01*
X3152Y842D02*
X3183Y842D01*
X3243Y842D02*
X3253Y842D01*
X3295Y842D02*
X3344Y842D01*
X3407Y842D02*
X3416Y842D01*
X3453Y842D02*
X3475Y842D01*
X3511Y842D02*
X3521Y842D01*
X3551Y842D02*
X3560Y842D01*
X3655Y842D02*
X3655Y842D01*
X3695Y842D02*
X3704Y842D01*
X3728Y842D02*
X3759Y842D01*
X3800Y842D02*
X3848Y842D01*
X3871Y842D02*
X3880Y842D01*
X3911Y842D02*
X3920Y842D01*
X4016Y842D02*
X4047Y842D01*
X4087Y842D02*
X4096Y842D01*
X4121Y842D02*
X4136Y842D01*
X4160Y842D02*
X4208Y842D01*
X4231Y842D02*
X4240Y842D01*
X4265Y842D02*
X4280Y842D01*
X4306Y842D02*
X4352Y842D01*
X4395Y842D02*
X4405Y842D01*
X4447Y842D02*
X4456Y842D01*
X4487Y842D02*
X4496Y842D01*
X3025Y841D02*
X3039Y841D01*
X3080Y841D02*
X3128Y841D01*
X3152Y841D02*
X3184Y841D01*
X3242Y841D02*
X3253Y841D01*
X3295Y841D02*
X3344Y841D01*
X3407Y841D02*
X3416Y841D01*
X3452Y841D02*
X3475Y841D01*
X3511Y841D02*
X3521Y841D01*
X3551Y841D02*
X3560Y841D01*
X3695Y841D02*
X3704Y841D01*
X3728Y841D02*
X3760Y841D01*
X3800Y841D02*
X3847Y841D01*
X3871Y841D02*
X3880Y841D01*
X3911Y841D02*
X3920Y841D01*
X4016Y841D02*
X4048Y841D01*
X4087Y841D02*
X4096Y841D01*
X4120Y841D02*
X4136Y841D01*
X4160Y841D02*
X4207Y841D01*
X4231Y841D02*
X4240Y841D01*
X4264Y841D02*
X4280Y841D01*
X4305Y841D02*
X4352Y841D01*
X4394Y841D02*
X4405Y841D01*
X4447Y841D02*
X4456Y841D01*
X4487Y841D02*
X4496Y841D01*
X3025Y840D02*
X3039Y840D01*
X3081Y840D02*
X3128Y840D01*
X3153Y840D02*
X3185Y840D01*
X3242Y840D02*
X3254Y840D01*
X3295Y840D02*
X3344Y840D01*
X3407Y840D02*
X3416Y840D01*
X3452Y840D02*
X3476Y840D01*
X3511Y840D02*
X3521Y840D01*
X3551Y840D02*
X3560Y840D01*
X3695Y840D02*
X3704Y840D01*
X3729Y840D02*
X3761Y840D01*
X3801Y840D02*
X3847Y840D01*
X3871Y840D02*
X3880Y840D01*
X3911Y840D02*
X3920Y840D01*
X4017Y840D02*
X4049Y840D01*
X4087Y840D02*
X4096Y840D01*
X4120Y840D02*
X4136Y840D01*
X4161Y840D02*
X4207Y840D01*
X4231Y840D02*
X4240Y840D01*
X4264Y840D02*
X4280Y840D01*
X4305Y840D02*
X4352Y840D01*
X4394Y840D02*
X4406Y840D01*
X4447Y840D02*
X4456Y840D01*
X4487Y840D02*
X4496Y840D01*
X3025Y839D02*
X3039Y839D01*
X3083Y839D02*
X3128Y839D01*
X3154Y839D02*
X3185Y839D01*
X3242Y839D02*
X3254Y839D01*
X3295Y839D02*
X3344Y839D01*
X3407Y839D02*
X3416Y839D01*
X3451Y839D02*
X3476Y839D01*
X3511Y839D02*
X3521Y839D01*
X3551Y839D02*
X3560Y839D01*
X3695Y839D02*
X3704Y839D01*
X3730Y839D02*
X3761Y839D01*
X3802Y839D02*
X3845Y839D01*
X3871Y839D02*
X3880Y839D01*
X3911Y839D02*
X3920Y839D01*
X4018Y839D02*
X4049Y839D01*
X4087Y839D02*
X4096Y839D01*
X4120Y839D02*
X4136Y839D01*
X4162Y839D02*
X4205Y839D01*
X4231Y839D02*
X4240Y839D01*
X4264Y839D02*
X4280Y839D01*
X4304Y839D02*
X4352Y839D01*
X4394Y839D02*
X4406Y839D01*
X4447Y839D02*
X4456Y839D01*
X4487Y839D02*
X4496Y839D01*
X3025Y838D02*
X3039Y838D01*
X3119Y838D02*
X3128Y838D01*
X3174Y838D02*
X3186Y838D01*
X3241Y838D02*
X3254Y838D01*
X3295Y838D02*
X3305Y838D01*
X3315Y838D02*
X3324Y838D01*
X3335Y838D02*
X3344Y838D01*
X3407Y838D02*
X3416Y838D01*
X3451Y838D02*
X3462Y838D01*
X3466Y838D02*
X3477Y838D01*
X3511Y838D02*
X3521Y838D01*
X3551Y838D02*
X3560Y838D01*
X3695Y838D02*
X3704Y838D01*
X3750Y838D02*
X3762Y838D01*
X3819Y838D02*
X3828Y838D01*
X3871Y838D02*
X3880Y838D01*
X3911Y838D02*
X3920Y838D01*
X4038Y838D02*
X4050Y838D01*
X4087Y838D02*
X4096Y838D01*
X4119Y838D02*
X4136Y838D01*
X4179Y838D02*
X4188Y838D01*
X4231Y838D02*
X4240Y838D01*
X4263Y838D02*
X4280Y838D01*
X4304Y838D02*
X4315Y838D01*
X4343Y838D02*
X4352Y838D01*
X4393Y838D02*
X4406Y838D01*
X4447Y838D02*
X4456Y838D01*
X4487Y838D02*
X4496Y838D01*
X3025Y837D02*
X3039Y837D01*
X3119Y837D02*
X3128Y837D01*
X3175Y837D02*
X3187Y837D01*
X3241Y837D02*
X3255Y837D01*
X3295Y837D02*
X3305Y837D01*
X3315Y837D02*
X3324Y837D01*
X3335Y837D02*
X3344Y837D01*
X3407Y837D02*
X3416Y837D01*
X3450Y837D02*
X3461Y837D01*
X3467Y837D02*
X3477Y837D01*
X3511Y837D02*
X3521Y837D01*
X3551Y837D02*
X3560Y837D01*
X3695Y837D02*
X3704Y837D01*
X3751Y837D02*
X3763Y837D01*
X3819Y837D02*
X3828Y837D01*
X3871Y837D02*
X3880Y837D01*
X3911Y837D02*
X3920Y837D01*
X4039Y837D02*
X4051Y837D01*
X4087Y837D02*
X4096Y837D01*
X4119Y837D02*
X4136Y837D01*
X4179Y837D02*
X4188Y837D01*
X4231Y837D02*
X4240Y837D01*
X4263Y837D02*
X4280Y837D01*
X4304Y837D02*
X4314Y837D01*
X4343Y837D02*
X4352Y837D01*
X4393Y837D02*
X4406Y837D01*
X4447Y837D02*
X4456Y837D01*
X4487Y837D02*
X4496Y837D01*
X3025Y836D02*
X3038Y836D01*
X3119Y836D02*
X3128Y836D01*
X3176Y836D02*
X3188Y836D01*
X3241Y836D02*
X3255Y836D01*
X3295Y836D02*
X3305Y836D01*
X3315Y836D02*
X3324Y836D01*
X3335Y836D02*
X3344Y836D01*
X3407Y836D02*
X3416Y836D01*
X3450Y836D02*
X3460Y836D01*
X3467Y836D02*
X3478Y836D01*
X3511Y836D02*
X3521Y836D01*
X3551Y836D02*
X3560Y836D01*
X3695Y836D02*
X3704Y836D01*
X3752Y836D02*
X3764Y836D01*
X3819Y836D02*
X3828Y836D01*
X3871Y836D02*
X3880Y836D01*
X3911Y836D02*
X3920Y836D01*
X4040Y836D02*
X4052Y836D01*
X4087Y836D02*
X4096Y836D01*
X4118Y836D02*
X4136Y836D01*
X4179Y836D02*
X4188Y836D01*
X4231Y836D02*
X4240Y836D01*
X4262Y836D02*
X4280Y836D01*
X4304Y836D02*
X4313Y836D01*
X4343Y836D02*
X4352Y836D01*
X4393Y836D02*
X4407Y836D01*
X4447Y836D02*
X4456Y836D01*
X4487Y836D02*
X4496Y836D01*
X3025Y835D02*
X3038Y835D01*
X3119Y835D02*
X3128Y835D01*
X3177Y835D02*
X3188Y835D01*
X3241Y835D02*
X3255Y835D01*
X3295Y835D02*
X3304Y835D01*
X3315Y835D02*
X3324Y835D01*
X3335Y835D02*
X3344Y835D01*
X3407Y835D02*
X3416Y835D01*
X3449Y835D02*
X3460Y835D01*
X3468Y835D02*
X3478Y835D01*
X3511Y835D02*
X3521Y835D01*
X3551Y835D02*
X3560Y835D01*
X3696Y835D02*
X3704Y835D01*
X3753Y835D02*
X3764Y835D01*
X3819Y835D02*
X3828Y835D01*
X3871Y835D02*
X3880Y835D01*
X3911Y835D02*
X3920Y835D01*
X4041Y835D02*
X4052Y835D01*
X4087Y835D02*
X4096Y835D01*
X4118Y835D02*
X4136Y835D01*
X4179Y835D02*
X4188Y835D01*
X4231Y835D02*
X4240Y835D01*
X4262Y835D02*
X4280Y835D01*
X4303Y835D02*
X4313Y835D01*
X4343Y835D02*
X4352Y835D01*
X4392Y835D02*
X4407Y835D01*
X4447Y835D02*
X4456Y835D01*
X4487Y835D02*
X4496Y835D01*
X3025Y834D02*
X3038Y834D01*
X3119Y834D02*
X3128Y834D01*
X3177Y834D02*
X3189Y834D01*
X3240Y834D02*
X3255Y834D01*
X3296Y834D02*
X3304Y834D01*
X3315Y834D02*
X3324Y834D01*
X3335Y834D02*
X3344Y834D01*
X3407Y834D02*
X3416Y834D01*
X3449Y834D02*
X3459Y834D01*
X3468Y834D02*
X3479Y834D01*
X3511Y834D02*
X3521Y834D01*
X3551Y834D02*
X3560Y834D01*
X3696Y834D02*
X3704Y834D01*
X3753Y834D02*
X3765Y834D01*
X3819Y834D02*
X3828Y834D01*
X3871Y834D02*
X3880Y834D01*
X3911Y834D02*
X3920Y834D01*
X4041Y834D02*
X4053Y834D01*
X4087Y834D02*
X4096Y834D01*
X4117Y834D02*
X4136Y834D01*
X4179Y834D02*
X4188Y834D01*
X4231Y834D02*
X4240Y834D01*
X4261Y834D02*
X4280Y834D01*
X4303Y834D02*
X4313Y834D01*
X4343Y834D02*
X4352Y834D01*
X4392Y834D02*
X4407Y834D01*
X4447Y834D02*
X4456Y834D01*
X4487Y834D02*
X4496Y834D01*
X3026Y833D02*
X3038Y833D01*
X3119Y833D02*
X3128Y833D01*
X3178Y833D02*
X3190Y833D01*
X3240Y833D02*
X3256Y833D01*
X3296Y833D02*
X3304Y833D01*
X3315Y833D02*
X3324Y833D01*
X3336Y833D02*
X3344Y833D01*
X3407Y833D02*
X3416Y833D01*
X3448Y833D02*
X3459Y833D01*
X3469Y833D02*
X3479Y833D01*
X3511Y833D02*
X3521Y833D01*
X3551Y833D02*
X3560Y833D01*
X3696Y833D02*
X3704Y833D01*
X3754Y833D02*
X3766Y833D01*
X3819Y833D02*
X3828Y833D01*
X3871Y833D02*
X3880Y833D01*
X3911Y833D02*
X3920Y833D01*
X4042Y833D02*
X4054Y833D01*
X4087Y833D02*
X4096Y833D01*
X4117Y833D02*
X4136Y833D01*
X4179Y833D02*
X4188Y833D01*
X4231Y833D02*
X4240Y833D01*
X4261Y833D02*
X4280Y833D01*
X4303Y833D02*
X4312Y833D01*
X4343Y833D02*
X4352Y833D01*
X4392Y833D02*
X4408Y833D01*
X4447Y833D02*
X4456Y833D01*
X4487Y833D02*
X4496Y833D01*
X3026Y832D02*
X3038Y832D01*
X3119Y832D02*
X3128Y832D01*
X3179Y832D02*
X3191Y832D01*
X3240Y832D02*
X3256Y832D01*
X3297Y832D02*
X3303Y832D01*
X3315Y832D02*
X3324Y832D01*
X3336Y832D02*
X3343Y832D01*
X3407Y832D02*
X3416Y832D01*
X3448Y832D02*
X3458Y832D01*
X3469Y832D02*
X3480Y832D01*
X3511Y832D02*
X3521Y832D01*
X3551Y832D02*
X3560Y832D01*
X3697Y832D02*
X3704Y832D01*
X3755Y832D02*
X3767Y832D01*
X3819Y832D02*
X3828Y832D01*
X3871Y832D02*
X3880Y832D01*
X3911Y832D02*
X3920Y832D01*
X4043Y832D02*
X4055Y832D01*
X4087Y832D02*
X4096Y832D01*
X4117Y832D02*
X4136Y832D01*
X4179Y832D02*
X4188Y832D01*
X4231Y832D02*
X4240Y832D01*
X4261Y832D02*
X4280Y832D01*
X4303Y832D02*
X4312Y832D01*
X4343Y832D02*
X4352Y832D01*
X4392Y832D02*
X4408Y832D01*
X4447Y832D02*
X4456Y832D01*
X4487Y832D02*
X4496Y832D01*
X3026Y831D02*
X3038Y831D01*
X3119Y831D02*
X3128Y831D01*
X3180Y831D02*
X3192Y831D01*
X3239Y831D02*
X3256Y831D01*
X3298Y831D02*
X3302Y831D01*
X3315Y831D02*
X3324Y831D01*
X3337Y831D02*
X3342Y831D01*
X3407Y831D02*
X3416Y831D01*
X3447Y831D02*
X3458Y831D01*
X3470Y831D02*
X3480Y831D01*
X3511Y831D02*
X3521Y831D01*
X3551Y831D02*
X3560Y831D01*
X3697Y831D02*
X3704Y831D01*
X3756Y831D02*
X3768Y831D01*
X3819Y831D02*
X3828Y831D01*
X3871Y831D02*
X3880Y831D01*
X3911Y831D02*
X3920Y831D01*
X4044Y831D02*
X4055Y831D01*
X4087Y831D02*
X4096Y831D01*
X4116Y831D02*
X4136Y831D01*
X4179Y831D02*
X4188Y831D01*
X4231Y831D02*
X4240Y831D01*
X4260Y831D02*
X4280Y831D01*
X4303Y831D02*
X4312Y831D01*
X4343Y831D02*
X4352Y831D01*
X4391Y831D02*
X4408Y831D01*
X4447Y831D02*
X4456Y831D01*
X4487Y831D02*
X4496Y831D01*
X3026Y830D02*
X3038Y830D01*
X3119Y830D02*
X3128Y830D01*
X3181Y830D02*
X3192Y830D01*
X3239Y830D02*
X3257Y830D01*
X3315Y830D02*
X3324Y830D01*
X3407Y830D02*
X3416Y830D01*
X3447Y830D02*
X3457Y830D01*
X3470Y830D02*
X3481Y830D01*
X3511Y830D02*
X3521Y830D01*
X3551Y830D02*
X3560Y830D01*
X3697Y830D02*
X3704Y830D01*
X3756Y830D02*
X3768Y830D01*
X3819Y830D02*
X3828Y830D01*
X3871Y830D02*
X3880Y830D01*
X3911Y830D02*
X3920Y830D01*
X4044Y830D02*
X4056Y830D01*
X4087Y830D02*
X4096Y830D01*
X4116Y830D02*
X4136Y830D01*
X4179Y830D02*
X4188Y830D01*
X4231Y830D02*
X4240Y830D01*
X4260Y830D02*
X4280Y830D01*
X4303Y830D02*
X4312Y830D01*
X4343Y830D02*
X4352Y830D01*
X4391Y830D02*
X4408Y830D01*
X4447Y830D02*
X4456Y830D01*
X4487Y830D02*
X4496Y830D01*
X3026Y829D02*
X3038Y829D01*
X3119Y829D02*
X3128Y829D01*
X3181Y829D02*
X3193Y829D01*
X3239Y829D02*
X3257Y829D01*
X3315Y829D02*
X3324Y829D01*
X3407Y829D02*
X3416Y829D01*
X3446Y829D02*
X3457Y829D01*
X3471Y829D02*
X3481Y829D01*
X3511Y829D02*
X3521Y829D01*
X3551Y829D02*
X3560Y829D01*
X3698Y829D02*
X3704Y829D01*
X3757Y829D02*
X3769Y829D01*
X3819Y829D02*
X3828Y829D01*
X3871Y829D02*
X3880Y829D01*
X3911Y829D02*
X3920Y829D01*
X4045Y829D02*
X4057Y829D01*
X4087Y829D02*
X4096Y829D01*
X4115Y829D02*
X4125Y829D01*
X4127Y829D02*
X4136Y829D01*
X4179Y829D02*
X4188Y829D01*
X4231Y829D02*
X4240Y829D01*
X4259Y829D02*
X4269Y829D01*
X4271Y829D02*
X4280Y829D01*
X4303Y829D02*
X4312Y829D01*
X4343Y829D02*
X4352Y829D01*
X4391Y829D02*
X4409Y829D01*
X4447Y829D02*
X4456Y829D01*
X4487Y829D02*
X4496Y829D01*
X3026Y828D02*
X3038Y828D01*
X3119Y828D02*
X3128Y828D01*
X3182Y828D02*
X3194Y828D01*
X3239Y828D02*
X3257Y828D01*
X3315Y828D02*
X3324Y828D01*
X3407Y828D02*
X3416Y828D01*
X3446Y828D02*
X3456Y828D01*
X3471Y828D02*
X3482Y828D01*
X3511Y828D02*
X3521Y828D01*
X3551Y828D02*
X3560Y828D01*
X3698Y828D02*
X3704Y828D01*
X3758Y828D02*
X3770Y828D01*
X3819Y828D02*
X3828Y828D01*
X3871Y828D02*
X3880Y828D01*
X3911Y828D02*
X3920Y828D01*
X4046Y828D02*
X4058Y828D01*
X4087Y828D02*
X4096Y828D01*
X4115Y828D02*
X4125Y828D01*
X4127Y828D02*
X4136Y828D01*
X4179Y828D02*
X4188Y828D01*
X4231Y828D02*
X4240Y828D01*
X4259Y828D02*
X4269Y828D01*
X4271Y828D02*
X4280Y828D01*
X4303Y828D02*
X4312Y828D01*
X4343Y828D02*
X4352Y828D01*
X4390Y828D02*
X4409Y828D01*
X4447Y828D02*
X4456Y828D01*
X4487Y828D02*
X4496Y828D01*
X3026Y827D02*
X3038Y827D01*
X3119Y827D02*
X3128Y827D01*
X3183Y827D02*
X3195Y827D01*
X3238Y827D02*
X3258Y827D01*
X3315Y827D02*
X3324Y827D01*
X3407Y827D02*
X3416Y827D01*
X3445Y827D02*
X3456Y827D01*
X3472Y827D02*
X3482Y827D01*
X3511Y827D02*
X3521Y827D01*
X3551Y827D02*
X3560Y827D01*
X3698Y827D02*
X3704Y827D01*
X3759Y827D02*
X3771Y827D01*
X3819Y827D02*
X3828Y827D01*
X3871Y827D02*
X3880Y827D01*
X3911Y827D02*
X3920Y827D01*
X4047Y827D02*
X4059Y827D01*
X4087Y827D02*
X4096Y827D01*
X4114Y827D02*
X4124Y827D01*
X4127Y827D02*
X4136Y827D01*
X4179Y827D02*
X4188Y827D01*
X4231Y827D02*
X4240Y827D01*
X4258Y827D02*
X4268Y827D01*
X4271Y827D02*
X4280Y827D01*
X4303Y827D02*
X4313Y827D01*
X4343Y827D02*
X4352Y827D01*
X4390Y827D02*
X4409Y827D01*
X4447Y827D02*
X4456Y827D01*
X4487Y827D02*
X4496Y827D01*
X3026Y826D02*
X3038Y826D01*
X3119Y826D02*
X3128Y826D01*
X3184Y826D02*
X3195Y826D01*
X3238Y826D02*
X3258Y826D01*
X3315Y826D02*
X3324Y826D01*
X3407Y826D02*
X3416Y826D01*
X3445Y826D02*
X3455Y826D01*
X3472Y826D02*
X3483Y826D01*
X3511Y826D02*
X3521Y826D01*
X3550Y826D02*
X3560Y826D01*
X3698Y826D02*
X3704Y826D01*
X3760Y826D02*
X3771Y826D01*
X3819Y826D02*
X3828Y826D01*
X3871Y826D02*
X3880Y826D01*
X3911Y826D02*
X3920Y826D01*
X4048Y826D02*
X4059Y826D01*
X4087Y826D02*
X4096Y826D01*
X4114Y826D02*
X4124Y826D01*
X4127Y826D02*
X4136Y826D01*
X4179Y826D02*
X4188Y826D01*
X4231Y826D02*
X4240Y826D01*
X4258Y826D02*
X4268Y826D01*
X4271Y826D02*
X4280Y826D01*
X4304Y826D02*
X4313Y826D01*
X4343Y826D02*
X4352Y826D01*
X4390Y826D02*
X4410Y826D01*
X4447Y826D02*
X4456Y826D01*
X4487Y826D02*
X4496Y826D01*
X3026Y825D02*
X3038Y825D01*
X3119Y825D02*
X3128Y825D01*
X3184Y825D02*
X3196Y825D01*
X3238Y825D02*
X3258Y825D01*
X3315Y825D02*
X3324Y825D01*
X3407Y825D02*
X3416Y825D01*
X3444Y825D02*
X3455Y825D01*
X3473Y825D02*
X3483Y825D01*
X3512Y825D02*
X3521Y825D01*
X3550Y825D02*
X3560Y825D01*
X3698Y825D02*
X3704Y825D01*
X3760Y825D02*
X3772Y825D01*
X3819Y825D02*
X3828Y825D01*
X3871Y825D02*
X3880Y825D01*
X3911Y825D02*
X3920Y825D01*
X4048Y825D02*
X4060Y825D01*
X4087Y825D02*
X4096Y825D01*
X4113Y825D02*
X4124Y825D01*
X4127Y825D02*
X4136Y825D01*
X4179Y825D02*
X4188Y825D01*
X4231Y825D02*
X4240Y825D01*
X4257Y825D02*
X4268Y825D01*
X4271Y825D02*
X4280Y825D01*
X4304Y825D02*
X4314Y825D01*
X4343Y825D02*
X4352Y825D01*
X4390Y825D02*
X4410Y825D01*
X4447Y825D02*
X4456Y825D01*
X4487Y825D02*
X4496Y825D01*
X3026Y824D02*
X3038Y824D01*
X3119Y824D02*
X3128Y824D01*
X3185Y824D02*
X3197Y824D01*
X3237Y824D02*
X3247Y824D01*
X3249Y824D02*
X3258Y824D01*
X3315Y824D02*
X3324Y824D01*
X3407Y824D02*
X3416Y824D01*
X3444Y824D02*
X3454Y824D01*
X3473Y824D02*
X3484Y824D01*
X3512Y824D02*
X3522Y824D01*
X3550Y824D02*
X3560Y824D01*
X3698Y824D02*
X3704Y824D01*
X3761Y824D02*
X3773Y824D01*
X3819Y824D02*
X3828Y824D01*
X3871Y824D02*
X3880Y824D01*
X3911Y824D02*
X3920Y824D01*
X4049Y824D02*
X4061Y824D01*
X4087Y824D02*
X4096Y824D01*
X4113Y824D02*
X4123Y824D01*
X4127Y824D02*
X4136Y824D01*
X4179Y824D02*
X4188Y824D01*
X4231Y824D02*
X4240Y824D01*
X4257Y824D02*
X4267Y824D01*
X4271Y824D02*
X4280Y824D01*
X4304Y824D02*
X4315Y824D01*
X4343Y824D02*
X4352Y824D01*
X4389Y824D02*
X4399Y824D01*
X4401Y824D02*
X4410Y824D01*
X4447Y824D02*
X4456Y824D01*
X4487Y824D02*
X4496Y824D01*
X3026Y823D02*
X3038Y823D01*
X3119Y823D02*
X3128Y823D01*
X3186Y823D02*
X3197Y823D01*
X3237Y823D02*
X3247Y823D01*
X3249Y823D02*
X3259Y823D01*
X3315Y823D02*
X3324Y823D01*
X3407Y823D02*
X3416Y823D01*
X3443Y823D02*
X3454Y823D01*
X3474Y823D02*
X3484Y823D01*
X3512Y823D02*
X3522Y823D01*
X3549Y823D02*
X3559Y823D01*
X3698Y823D02*
X3704Y823D01*
X3762Y823D02*
X3773Y823D01*
X3819Y823D02*
X3828Y823D01*
X3871Y823D02*
X3880Y823D01*
X3911Y823D02*
X3920Y823D01*
X4050Y823D02*
X4061Y823D01*
X4087Y823D02*
X4096Y823D01*
X4113Y823D02*
X4123Y823D01*
X4127Y823D02*
X4136Y823D01*
X4179Y823D02*
X4188Y823D01*
X4231Y823D02*
X4240Y823D01*
X4257Y823D02*
X4267Y823D01*
X4271Y823D02*
X4280Y823D01*
X4304Y823D02*
X4352Y823D01*
X4389Y823D02*
X4399Y823D01*
X4401Y823D02*
X4411Y823D01*
X4447Y823D02*
X4456Y823D01*
X4472Y823D02*
X4472Y823D01*
X4487Y823D02*
X4496Y823D01*
X3026Y822D02*
X3038Y822D01*
X3119Y822D02*
X3128Y822D01*
X3187Y822D02*
X3198Y822D01*
X3237Y822D02*
X3246Y822D01*
X3249Y822D02*
X3259Y822D01*
X3315Y822D02*
X3324Y822D01*
X3407Y822D02*
X3416Y822D01*
X3443Y822D02*
X3453Y822D01*
X3474Y822D02*
X3485Y822D01*
X3513Y822D02*
X3523Y822D01*
X3549Y822D02*
X3559Y822D01*
X3698Y822D02*
X3704Y822D01*
X3763Y822D02*
X3774Y822D01*
X3819Y822D02*
X3828Y822D01*
X3871Y822D02*
X3880Y822D01*
X3911Y822D02*
X3920Y822D01*
X4051Y822D02*
X4062Y822D01*
X4087Y822D02*
X4096Y822D01*
X4112Y822D02*
X4122Y822D01*
X4127Y822D02*
X4136Y822D01*
X4179Y822D02*
X4188Y822D01*
X4231Y822D02*
X4240Y822D01*
X4256Y822D02*
X4266Y822D01*
X4271Y822D02*
X4280Y822D01*
X4305Y822D02*
X4352Y822D01*
X4389Y822D02*
X4398Y822D01*
X4401Y822D02*
X4411Y822D01*
X4447Y822D02*
X4456Y822D01*
X4469Y822D02*
X4474Y822D01*
X4487Y822D02*
X4496Y822D01*
X3026Y821D02*
X3037Y821D01*
X3119Y821D02*
X3128Y821D01*
X3188Y821D02*
X3198Y821D01*
X3237Y821D02*
X3246Y821D01*
X3250Y821D02*
X3259Y821D01*
X3315Y821D02*
X3324Y821D01*
X3407Y821D02*
X3416Y821D01*
X3442Y821D02*
X3453Y821D01*
X3475Y821D02*
X3485Y821D01*
X3513Y821D02*
X3523Y821D01*
X3549Y821D02*
X3558Y821D01*
X3698Y821D02*
X3704Y821D01*
X3763Y821D02*
X3774Y821D01*
X3819Y821D02*
X3828Y821D01*
X3871Y821D02*
X3880Y821D01*
X3911Y821D02*
X3920Y821D01*
X4051Y821D02*
X4062Y821D01*
X4087Y821D02*
X4096Y821D01*
X4112Y821D02*
X4122Y821D01*
X4127Y821D02*
X4136Y821D01*
X4179Y821D02*
X4188Y821D01*
X4231Y821D02*
X4240Y821D01*
X4256Y821D02*
X4266Y821D01*
X4271Y821D02*
X4280Y821D01*
X4305Y821D02*
X4352Y821D01*
X4388Y821D02*
X4398Y821D01*
X4402Y821D02*
X4411Y821D01*
X4447Y821D02*
X4456Y821D01*
X4468Y821D02*
X4475Y821D01*
X4487Y821D02*
X4496Y821D01*
X3026Y820D02*
X3037Y820D01*
X3119Y820D02*
X3128Y820D01*
X3188Y820D02*
X3199Y820D01*
X3236Y820D02*
X3246Y820D01*
X3250Y820D02*
X3260Y820D01*
X3315Y820D02*
X3324Y820D01*
X3407Y820D02*
X3416Y820D01*
X3442Y820D02*
X3452Y820D01*
X3475Y820D02*
X3486Y820D01*
X3514Y820D02*
X3523Y820D01*
X3548Y820D02*
X3558Y820D01*
X3697Y820D02*
X3704Y820D01*
X3764Y820D02*
X3775Y820D01*
X3819Y820D02*
X3828Y820D01*
X3871Y820D02*
X3880Y820D01*
X3911Y820D02*
X3920Y820D01*
X4052Y820D02*
X4063Y820D01*
X4087Y820D02*
X4096Y820D01*
X4111Y820D02*
X4121Y820D01*
X4127Y820D02*
X4136Y820D01*
X4179Y820D02*
X4188Y820D01*
X4231Y820D02*
X4240Y820D01*
X4255Y820D02*
X4265Y820D01*
X4271Y820D02*
X4280Y820D01*
X4306Y820D02*
X4352Y820D01*
X4388Y820D02*
X4398Y820D01*
X4402Y820D02*
X4411Y820D01*
X4447Y820D02*
X4456Y820D01*
X4468Y820D02*
X4476Y820D01*
X4487Y820D02*
X4496Y820D01*
X3026Y819D02*
X3037Y819D01*
X3119Y819D02*
X3128Y819D01*
X3189Y819D02*
X3199Y819D01*
X3236Y819D02*
X3246Y819D01*
X3250Y819D02*
X3260Y819D01*
X3315Y819D02*
X3324Y819D01*
X3407Y819D02*
X3416Y819D01*
X3442Y819D02*
X3452Y819D01*
X3476Y819D02*
X3486Y819D01*
X3514Y819D02*
X3524Y819D01*
X3548Y819D02*
X3558Y819D01*
X3697Y819D02*
X3704Y819D01*
X3765Y819D02*
X3775Y819D01*
X3819Y819D02*
X3828Y819D01*
X3871Y819D02*
X3880Y819D01*
X3911Y819D02*
X3920Y819D01*
X4053Y819D02*
X4063Y819D01*
X4087Y819D02*
X4096Y819D01*
X4111Y819D02*
X4121Y819D01*
X4127Y819D02*
X4136Y819D01*
X4179Y819D02*
X4188Y819D01*
X4231Y819D02*
X4240Y819D01*
X4255Y819D02*
X4265Y819D01*
X4271Y819D02*
X4280Y819D01*
X4307Y819D02*
X4352Y819D01*
X4388Y819D02*
X4397Y819D01*
X4402Y819D02*
X4412Y819D01*
X4447Y819D02*
X4456Y819D01*
X4467Y819D02*
X4476Y819D01*
X4487Y819D02*
X4496Y819D01*
X3027Y818D02*
X3037Y818D01*
X3119Y818D02*
X3128Y818D01*
X3190Y818D02*
X3200Y818D01*
X3236Y818D02*
X3245Y818D01*
X3251Y818D02*
X3260Y818D01*
X3315Y818D02*
X3324Y818D01*
X3407Y818D02*
X3416Y818D01*
X3441Y818D02*
X3451Y818D01*
X3477Y818D02*
X3487Y818D01*
X3514Y818D02*
X3524Y818D01*
X3547Y818D02*
X3557Y818D01*
X3697Y818D02*
X3704Y818D01*
X3766Y818D02*
X3775Y818D01*
X3819Y818D02*
X3828Y818D01*
X3871Y818D02*
X3880Y818D01*
X3911Y818D02*
X3920Y818D01*
X4054Y818D02*
X4063Y818D01*
X4087Y818D02*
X4096Y818D01*
X4110Y818D02*
X4121Y818D01*
X4127Y818D02*
X4136Y818D01*
X4179Y818D02*
X4188Y818D01*
X4231Y818D02*
X4240Y818D01*
X4254Y818D02*
X4264Y818D01*
X4271Y818D02*
X4280Y818D01*
X4307Y818D02*
X4352Y818D01*
X4388Y818D02*
X4397Y818D01*
X4402Y818D02*
X4412Y818D01*
X4447Y818D02*
X4456Y818D01*
X4467Y818D02*
X4476Y818D01*
X4487Y818D02*
X4496Y818D01*
X3027Y817D02*
X3037Y817D01*
X3119Y817D02*
X3128Y817D01*
X3190Y817D02*
X3200Y817D01*
X3235Y817D02*
X3245Y817D01*
X3251Y817D02*
X3260Y817D01*
X3315Y817D02*
X3324Y817D01*
X3407Y817D02*
X3416Y817D01*
X3441Y817D02*
X3451Y817D01*
X3477Y817D02*
X3487Y817D01*
X3515Y817D02*
X3525Y817D01*
X3547Y817D02*
X3557Y817D01*
X3696Y817D02*
X3704Y817D01*
X3766Y817D02*
X3776Y817D01*
X3819Y817D02*
X3828Y817D01*
X3871Y817D02*
X3880Y817D01*
X3911Y817D02*
X3920Y817D01*
X4054Y817D02*
X4064Y817D01*
X4087Y817D02*
X4096Y817D01*
X4110Y817D02*
X4120Y817D01*
X4127Y817D02*
X4136Y817D01*
X4179Y817D02*
X4188Y817D01*
X4231Y817D02*
X4240Y817D01*
X4254Y817D02*
X4264Y817D01*
X4271Y817D02*
X4280Y817D01*
X4308Y817D02*
X4352Y817D01*
X4387Y817D02*
X4397Y817D01*
X4403Y817D02*
X4412Y817D01*
X4447Y817D02*
X4456Y817D01*
X4467Y817D02*
X4476Y817D01*
X4487Y817D02*
X4496Y817D01*
X3027Y816D02*
X3037Y816D01*
X3119Y816D02*
X3128Y816D01*
X3191Y816D02*
X3200Y816D01*
X3235Y816D02*
X3245Y816D01*
X3251Y816D02*
X3261Y816D01*
X3315Y816D02*
X3324Y816D01*
X3407Y816D02*
X3416Y816D01*
X3440Y816D02*
X3450Y816D01*
X3478Y816D02*
X3487Y816D01*
X3515Y816D02*
X3525Y816D01*
X3547Y816D02*
X3557Y816D01*
X3696Y816D02*
X3704Y816D01*
X3767Y816D02*
X3776Y816D01*
X3819Y816D02*
X3828Y816D01*
X3871Y816D02*
X3880Y816D01*
X3911Y816D02*
X3920Y816D01*
X4055Y816D02*
X4064Y816D01*
X4087Y816D02*
X4096Y816D01*
X4110Y816D02*
X4120Y816D01*
X4127Y816D02*
X4136Y816D01*
X4179Y816D02*
X4188Y816D01*
X4231Y816D02*
X4240Y816D01*
X4254Y816D02*
X4264Y816D01*
X4271Y816D02*
X4280Y816D01*
X4310Y816D02*
X4352Y816D01*
X4387Y816D02*
X4396Y816D01*
X4403Y816D02*
X4413Y816D01*
X4447Y816D02*
X4456Y816D01*
X4467Y816D02*
X4476Y816D01*
X4487Y816D02*
X4496Y816D01*
X3027Y815D02*
X3037Y815D01*
X3119Y815D02*
X3128Y815D01*
X3191Y815D02*
X3200Y815D01*
X3235Y815D02*
X3244Y815D01*
X3251Y815D02*
X3261Y815D01*
X3315Y815D02*
X3324Y815D01*
X3407Y815D02*
X3416Y815D01*
X3440Y815D02*
X3450Y815D01*
X3478Y815D02*
X3488Y815D01*
X3516Y815D02*
X3525Y815D01*
X3546Y815D02*
X3556Y815D01*
X3696Y815D02*
X3704Y815D01*
X3767Y815D02*
X3776Y815D01*
X3819Y815D02*
X3828Y815D01*
X3871Y815D02*
X3881Y815D01*
X3911Y815D02*
X3920Y815D01*
X4055Y815D02*
X4064Y815D01*
X4087Y815D02*
X4096Y815D01*
X4109Y815D02*
X4119Y815D01*
X4127Y815D02*
X4136Y815D01*
X4179Y815D02*
X4188Y815D01*
X4231Y815D02*
X4240Y815D01*
X4253Y815D02*
X4263Y815D01*
X4271Y815D02*
X4280Y815D01*
X4311Y815D02*
X4352Y815D01*
X4387Y815D02*
X4396Y815D01*
X4403Y815D02*
X4413Y815D01*
X4447Y815D02*
X4456Y815D01*
X4467Y815D02*
X4476Y815D01*
X4487Y815D02*
X4496Y815D01*
X3027Y814D02*
X3037Y814D01*
X3102Y814D02*
X3128Y814D01*
X3191Y814D02*
X3200Y814D01*
X3234Y814D02*
X3244Y814D01*
X3252Y814D02*
X3261Y814D01*
X3315Y814D02*
X3324Y814D01*
X3407Y814D02*
X3416Y814D01*
X3440Y814D02*
X3449Y814D01*
X3478Y814D02*
X3488Y814D01*
X3516Y814D02*
X3526Y814D01*
X3546Y814D02*
X3556Y814D01*
X3695Y814D02*
X3704Y814D01*
X3767Y814D02*
X3776Y814D01*
X3819Y814D02*
X3828Y814D01*
X3871Y814D02*
X3920Y814D01*
X4055Y814D02*
X4064Y814D01*
X4087Y814D02*
X4096Y814D01*
X4109Y814D02*
X4119Y814D01*
X4127Y814D02*
X4136Y814D01*
X4179Y814D02*
X4188Y814D01*
X4231Y814D02*
X4240Y814D01*
X4253Y814D02*
X4263Y814D01*
X4271Y814D02*
X4280Y814D01*
X4313Y814D02*
X4352Y814D01*
X4386Y814D02*
X4396Y814D01*
X4404Y814D02*
X4413Y814D01*
X4447Y814D02*
X4456Y814D01*
X4467Y814D02*
X4476Y814D01*
X4487Y814D02*
X4496Y814D01*
X3027Y813D02*
X3037Y813D01*
X3101Y813D02*
X3128Y813D01*
X3191Y813D02*
X3200Y813D01*
X3234Y813D02*
X3244Y813D01*
X3252Y813D02*
X3262Y813D01*
X3315Y813D02*
X3324Y813D01*
X3407Y813D02*
X3416Y813D01*
X3440Y813D02*
X3449Y813D01*
X3479Y813D02*
X3488Y813D01*
X3516Y813D02*
X3526Y813D01*
X3545Y813D02*
X3555Y813D01*
X3695Y813D02*
X3704Y813D01*
X3767Y813D02*
X3776Y813D01*
X3819Y813D02*
X3828Y813D01*
X3871Y813D02*
X3920Y813D01*
X4055Y813D02*
X4064Y813D01*
X4087Y813D02*
X4096Y813D01*
X4108Y813D02*
X4118Y813D01*
X4127Y813D02*
X4136Y813D01*
X4179Y813D02*
X4188Y813D01*
X4231Y813D02*
X4240Y813D01*
X4252Y813D02*
X4262Y813D01*
X4271Y813D02*
X4280Y813D01*
X4324Y813D02*
X4335Y813D01*
X4343Y813D02*
X4352Y813D01*
X4386Y813D02*
X4396Y813D01*
X4404Y813D02*
X4413Y813D01*
X4447Y813D02*
X4456Y813D01*
X4467Y813D02*
X4476Y813D01*
X4487Y813D02*
X4496Y813D01*
X3027Y812D02*
X3037Y812D01*
X3100Y812D02*
X3128Y812D01*
X3191Y812D02*
X3200Y812D01*
X3234Y812D02*
X3243Y812D01*
X3252Y812D02*
X3262Y812D01*
X3315Y812D02*
X3324Y812D01*
X3407Y812D02*
X3416Y812D01*
X3440Y812D02*
X3449Y812D01*
X3479Y812D02*
X3488Y812D01*
X3517Y812D02*
X3527Y812D01*
X3545Y812D02*
X3555Y812D01*
X3694Y812D02*
X3704Y812D01*
X3767Y812D02*
X3776Y812D01*
X3819Y812D02*
X3828Y812D01*
X3871Y812D02*
X3920Y812D01*
X4055Y812D02*
X4064Y812D01*
X4087Y812D02*
X4096Y812D01*
X4108Y812D02*
X4118Y812D01*
X4127Y812D02*
X4136Y812D01*
X4179Y812D02*
X4188Y812D01*
X4231Y812D02*
X4240Y812D01*
X4252Y812D02*
X4262Y812D01*
X4271Y812D02*
X4280Y812D01*
X4324Y812D02*
X4335Y812D01*
X4343Y812D02*
X4352Y812D01*
X4386Y812D02*
X4395Y812D01*
X4404Y812D02*
X4414Y812D01*
X4447Y812D02*
X4456Y812D01*
X4467Y812D02*
X4476Y812D01*
X4487Y812D02*
X4496Y812D01*
X3027Y811D02*
X3037Y811D01*
X3100Y811D02*
X3128Y811D01*
X3191Y811D02*
X3200Y811D01*
X3234Y811D02*
X3243Y811D01*
X3253Y811D02*
X3262Y811D01*
X3315Y811D02*
X3324Y811D01*
X3407Y811D02*
X3416Y811D01*
X3440Y811D02*
X3449Y811D01*
X3479Y811D02*
X3488Y811D01*
X3517Y811D02*
X3527Y811D01*
X3545Y811D02*
X3555Y811D01*
X3694Y811D02*
X3704Y811D01*
X3767Y811D02*
X3776Y811D01*
X3819Y811D02*
X3828Y811D01*
X3871Y811D02*
X3920Y811D01*
X4055Y811D02*
X4064Y811D01*
X4087Y811D02*
X4096Y811D01*
X4107Y811D02*
X4117Y811D01*
X4127Y811D02*
X4136Y811D01*
X4179Y811D02*
X4188Y811D01*
X4231Y811D02*
X4240Y811D01*
X4251Y811D02*
X4261Y811D01*
X4271Y811D02*
X4280Y811D01*
X4323Y811D02*
X4334Y811D01*
X4343Y811D02*
X4352Y811D01*
X4385Y811D02*
X4395Y811D01*
X4405Y811D02*
X4414Y811D01*
X4447Y811D02*
X4456Y811D01*
X4467Y811D02*
X4476Y811D01*
X4487Y811D02*
X4496Y811D01*
X3027Y810D02*
X3037Y810D01*
X3099Y810D02*
X3128Y810D01*
X3191Y810D02*
X3200Y810D01*
X3233Y810D02*
X3243Y810D01*
X3253Y810D02*
X3262Y810D01*
X3315Y810D02*
X3324Y810D01*
X3407Y810D02*
X3416Y810D01*
X3439Y810D02*
X3449Y810D01*
X3480Y810D02*
X3488Y810D01*
X3517Y810D02*
X3527Y810D01*
X3544Y810D02*
X3554Y810D01*
X3693Y810D02*
X3704Y810D01*
X3767Y810D02*
X3776Y810D01*
X3819Y810D02*
X3828Y810D01*
X3871Y810D02*
X3920Y810D01*
X4055Y810D02*
X4064Y810D01*
X4087Y810D02*
X4096Y810D01*
X4107Y810D02*
X4117Y810D01*
X4127Y810D02*
X4136Y810D01*
X4179Y810D02*
X4188Y810D01*
X4231Y810D02*
X4240Y810D01*
X4251Y810D02*
X4261Y810D01*
X4271Y810D02*
X4280Y810D01*
X4323Y810D02*
X4333Y810D01*
X4343Y810D02*
X4352Y810D01*
X4385Y810D02*
X4395Y810D01*
X4405Y810D02*
X4414Y810D01*
X4447Y810D02*
X4456Y810D01*
X4467Y810D02*
X4476Y810D01*
X4487Y810D02*
X4496Y810D01*
X3027Y809D02*
X3037Y809D01*
X3099Y809D02*
X3128Y809D01*
X3191Y809D02*
X3200Y809D01*
X3233Y809D02*
X3243Y809D01*
X3253Y809D02*
X3263Y809D01*
X3315Y809D02*
X3324Y809D01*
X3407Y809D02*
X3416Y809D01*
X3439Y809D02*
X3449Y809D01*
X3483Y809D02*
X3488Y809D01*
X3518Y809D02*
X3528Y809D01*
X3544Y809D02*
X3554Y809D01*
X3692Y809D02*
X3704Y809D01*
X3767Y809D02*
X3776Y809D01*
X3819Y809D02*
X3828Y809D01*
X3871Y809D02*
X3920Y809D01*
X4055Y809D02*
X4064Y809D01*
X4087Y809D02*
X4096Y809D01*
X4106Y809D02*
X4117Y809D01*
X4127Y809D02*
X4136Y809D01*
X4179Y809D02*
X4188Y809D01*
X4231Y809D02*
X4240Y809D01*
X4250Y809D02*
X4261Y809D01*
X4271Y809D02*
X4280Y809D01*
X4322Y809D02*
X4333Y809D01*
X4343Y809D02*
X4352Y809D01*
X4385Y809D02*
X4394Y809D01*
X4405Y809D02*
X4415Y809D01*
X4447Y809D02*
X4456Y809D01*
X4467Y809D02*
X4476Y809D01*
X4487Y809D02*
X4496Y809D01*
X3027Y808D02*
X3037Y808D01*
X3100Y808D02*
X3128Y808D01*
X3191Y808D02*
X3200Y808D01*
X3233Y808D02*
X3242Y808D01*
X3254Y808D02*
X3263Y808D01*
X3315Y808D02*
X3324Y808D01*
X3407Y808D02*
X3416Y808D01*
X3440Y808D02*
X3449Y808D01*
X3486Y808D02*
X3488Y808D01*
X3518Y808D02*
X3528Y808D01*
X3543Y808D02*
X3553Y808D01*
X3655Y808D02*
X3655Y808D01*
X3691Y808D02*
X3704Y808D01*
X3767Y808D02*
X3776Y808D01*
X3819Y808D02*
X3828Y808D01*
X3871Y808D02*
X3920Y808D01*
X4055Y808D02*
X4064Y808D01*
X4087Y808D02*
X4096Y808D01*
X4106Y808D02*
X4116Y808D01*
X4127Y808D02*
X4136Y808D01*
X4179Y808D02*
X4188Y808D01*
X4231Y808D02*
X4240Y808D01*
X4250Y808D02*
X4260Y808D01*
X4271Y808D02*
X4280Y808D01*
X4321Y808D02*
X4332Y808D01*
X4343Y808D02*
X4352Y808D01*
X4385Y808D02*
X4394Y808D01*
X4405Y808D02*
X4415Y808D01*
X4447Y808D02*
X4456Y808D01*
X4467Y808D02*
X4476Y808D01*
X4487Y808D02*
X4496Y808D01*
X3027Y807D02*
X3037Y807D01*
X3100Y807D02*
X3128Y807D01*
X3191Y807D02*
X3200Y807D01*
X3232Y807D02*
X3242Y807D01*
X3254Y807D02*
X3263Y807D01*
X3315Y807D02*
X3324Y807D01*
X3407Y807D02*
X3416Y807D01*
X3440Y807D02*
X3449Y807D01*
X3488Y807D02*
X3488Y807D01*
X3519Y807D02*
X3529Y807D01*
X3543Y807D02*
X3553Y807D01*
X3655Y807D02*
X3656Y807D01*
X3690Y807D02*
X3704Y807D01*
X3767Y807D02*
X3776Y807D01*
X3819Y807D02*
X3828Y807D01*
X3871Y807D02*
X3920Y807D01*
X4055Y807D02*
X4064Y807D01*
X4087Y807D02*
X4096Y807D01*
X4106Y807D02*
X4116Y807D01*
X4127Y807D02*
X4136Y807D01*
X4179Y807D02*
X4188Y807D01*
X4231Y807D02*
X4240Y807D01*
X4250Y807D02*
X4260Y807D01*
X4271Y807D02*
X4280Y807D01*
X4321Y807D02*
X4332Y807D01*
X4343Y807D02*
X4352Y807D01*
X4384Y807D02*
X4394Y807D01*
X4406Y807D02*
X4415Y807D01*
X4447Y807D02*
X4456Y807D01*
X4467Y807D02*
X4476Y807D01*
X4487Y807D02*
X4496Y807D01*
X3027Y806D02*
X3037Y806D01*
X3101Y806D02*
X3128Y806D01*
X3152Y806D02*
X3172Y806D01*
X3191Y806D02*
X3200Y806D01*
X3232Y806D02*
X3242Y806D01*
X3254Y806D02*
X3264Y806D01*
X3315Y806D02*
X3324Y806D01*
X3407Y806D02*
X3416Y806D01*
X3440Y806D02*
X3449Y806D01*
X3519Y806D02*
X3529Y806D01*
X3543Y806D02*
X3553Y806D01*
X3655Y806D02*
X3657Y806D01*
X3689Y806D02*
X3704Y806D01*
X3728Y806D02*
X3748Y806D01*
X3767Y806D02*
X3776Y806D01*
X3819Y806D02*
X3828Y806D01*
X3871Y806D02*
X3920Y806D01*
X4016Y806D02*
X4035Y806D01*
X4055Y806D02*
X4064Y806D01*
X4087Y806D02*
X4096Y806D01*
X4105Y806D02*
X4115Y806D01*
X4127Y806D02*
X4136Y806D01*
X4179Y806D02*
X4188Y806D01*
X4231Y806D02*
X4240Y806D01*
X4249Y806D02*
X4259Y806D01*
X4271Y806D02*
X4280Y806D01*
X4320Y806D02*
X4331Y806D01*
X4343Y806D02*
X4352Y806D01*
X4384Y806D02*
X4394Y806D01*
X4406Y806D02*
X4416Y806D01*
X4447Y806D02*
X4456Y806D01*
X4467Y806D02*
X4476Y806D01*
X4487Y806D02*
X4496Y806D01*
X3027Y805D02*
X3036Y805D01*
X3103Y805D02*
X3128Y805D01*
X3151Y805D02*
X3174Y805D01*
X3191Y805D02*
X3200Y805D01*
X3232Y805D02*
X3241Y805D01*
X3254Y805D02*
X3264Y805D01*
X3315Y805D02*
X3324Y805D01*
X3407Y805D02*
X3416Y805D01*
X3440Y805D02*
X3450Y805D01*
X3519Y805D02*
X3529Y805D01*
X3542Y805D02*
X3552Y805D01*
X3655Y805D02*
X3658Y805D01*
X3688Y805D02*
X3704Y805D01*
X3727Y805D02*
X3750Y805D01*
X3767Y805D02*
X3776Y805D01*
X3819Y805D02*
X3828Y805D01*
X3871Y805D02*
X3920Y805D01*
X4015Y805D02*
X4037Y805D01*
X4055Y805D02*
X4064Y805D01*
X4087Y805D02*
X4096Y805D01*
X4105Y805D02*
X4115Y805D01*
X4127Y805D02*
X4136Y805D01*
X4179Y805D02*
X4188Y805D01*
X4231Y805D02*
X4240Y805D01*
X4249Y805D02*
X4259Y805D01*
X4271Y805D02*
X4280Y805D01*
X4320Y805D02*
X4330Y805D01*
X4343Y805D02*
X4352Y805D01*
X4384Y805D02*
X4393Y805D01*
X4406Y805D02*
X4416Y805D01*
X4447Y805D02*
X4456Y805D01*
X4467Y805D02*
X4476Y805D01*
X4487Y805D02*
X4496Y805D01*
X3028Y804D02*
X3036Y804D01*
X3119Y804D02*
X3128Y804D01*
X3151Y804D02*
X3174Y804D01*
X3191Y804D02*
X3200Y804D01*
X3232Y804D02*
X3241Y804D01*
X3255Y804D02*
X3264Y804D01*
X3315Y804D02*
X3324Y804D01*
X3407Y804D02*
X3416Y804D01*
X3440Y804D02*
X3450Y804D01*
X3520Y804D02*
X3530Y804D01*
X3542Y804D02*
X3552Y804D01*
X3655Y804D02*
X3660Y804D01*
X3695Y804D02*
X3704Y804D01*
X3727Y804D02*
X3750Y804D01*
X3767Y804D02*
X3776Y804D01*
X3819Y804D02*
X3828Y804D01*
X3871Y804D02*
X3880Y804D01*
X3911Y804D02*
X3920Y804D01*
X4015Y804D02*
X4038Y804D01*
X4055Y804D02*
X4064Y804D01*
X4087Y804D02*
X4096Y804D01*
X4104Y804D02*
X4114Y804D01*
X4127Y804D02*
X4136Y804D01*
X4179Y804D02*
X4188Y804D01*
X4231Y804D02*
X4240Y804D01*
X4248Y804D02*
X4258Y804D01*
X4271Y804D02*
X4280Y804D01*
X4319Y804D02*
X4330Y804D01*
X4343Y804D02*
X4352Y804D01*
X4383Y804D02*
X4393Y804D01*
X4407Y804D02*
X4416Y804D01*
X4447Y804D02*
X4456Y804D01*
X4467Y804D02*
X4476Y804D01*
X4487Y804D02*
X4496Y804D01*
X3028Y803D02*
X3036Y803D01*
X3119Y803D02*
X3128Y803D01*
X3151Y803D02*
X3175Y803D01*
X3191Y803D02*
X3200Y803D01*
X3231Y803D02*
X3241Y803D01*
X3255Y803D02*
X3265Y803D01*
X3315Y803D02*
X3324Y803D01*
X3407Y803D02*
X3416Y803D01*
X3440Y803D02*
X3450Y803D01*
X3520Y803D02*
X3530Y803D01*
X3541Y803D02*
X3551Y803D01*
X3655Y803D02*
X3662Y803D01*
X3695Y803D02*
X3704Y803D01*
X3727Y803D02*
X3751Y803D01*
X3767Y803D02*
X3776Y803D01*
X3819Y803D02*
X3828Y803D01*
X3871Y803D02*
X3880Y803D01*
X3911Y803D02*
X3920Y803D01*
X4015Y803D02*
X4039Y803D01*
X4055Y803D02*
X4064Y803D01*
X4087Y803D02*
X4096Y803D01*
X4104Y803D02*
X4114Y803D01*
X4127Y803D02*
X4136Y803D01*
X4179Y803D02*
X4188Y803D01*
X4231Y803D02*
X4240Y803D01*
X4248Y803D02*
X4258Y803D01*
X4271Y803D02*
X4280Y803D01*
X4318Y803D02*
X4329Y803D01*
X4343Y803D02*
X4352Y803D01*
X4383Y803D02*
X4393Y803D01*
X4407Y803D02*
X4416Y803D01*
X4447Y803D02*
X4456Y803D01*
X4467Y803D02*
X4476Y803D01*
X4487Y803D02*
X4496Y803D01*
X3029Y802D02*
X3035Y802D01*
X3119Y802D02*
X3128Y802D01*
X3151Y802D02*
X3175Y802D01*
X3191Y802D02*
X3200Y802D01*
X3231Y802D02*
X3240Y802D01*
X3255Y802D02*
X3265Y802D01*
X3315Y802D02*
X3324Y802D01*
X3407Y802D02*
X3416Y802D01*
X3441Y802D02*
X3451Y802D01*
X3521Y802D02*
X3530Y802D01*
X3541Y802D02*
X3551Y802D01*
X3655Y802D02*
X3664Y802D01*
X3695Y802D02*
X3704Y802D01*
X3727Y802D02*
X3751Y802D01*
X3767Y802D02*
X3776Y802D01*
X3819Y802D02*
X3828Y802D01*
X3871Y802D02*
X3880Y802D01*
X3911Y802D02*
X3920Y802D01*
X4015Y802D02*
X4039Y802D01*
X4055Y802D02*
X4064Y802D01*
X4087Y802D02*
X4096Y802D01*
X4103Y802D02*
X4113Y802D01*
X4127Y802D02*
X4136Y802D01*
X4179Y802D02*
X4188Y802D01*
X4231Y802D02*
X4240Y802D01*
X4247Y802D02*
X4257Y802D01*
X4271Y802D02*
X4280Y802D01*
X4318Y802D02*
X4329Y802D01*
X4343Y802D02*
X4352Y802D01*
X4383Y802D02*
X4392Y802D01*
X4407Y802D02*
X4417Y802D01*
X4447Y802D02*
X4456Y802D01*
X4467Y802D02*
X4476Y802D01*
X4487Y802D02*
X4496Y802D01*
X3030Y801D02*
X3034Y801D01*
X3119Y801D02*
X3128Y801D01*
X3151Y801D02*
X3175Y801D01*
X3191Y801D02*
X3200Y801D01*
X3231Y801D02*
X3240Y801D01*
X3256Y801D02*
X3265Y801D01*
X3315Y801D02*
X3324Y801D01*
X3407Y801D02*
X3416Y801D01*
X3441Y801D02*
X3451Y801D01*
X3521Y801D02*
X3531Y801D01*
X3541Y801D02*
X3551Y801D01*
X3655Y801D02*
X3664Y801D01*
X3695Y801D02*
X3704Y801D01*
X3727Y801D02*
X3751Y801D01*
X3767Y801D02*
X3776Y801D01*
X3819Y801D02*
X3828Y801D01*
X3871Y801D02*
X3880Y801D01*
X3911Y801D02*
X3920Y801D01*
X4015Y801D02*
X4039Y801D01*
X4055Y801D02*
X4064Y801D01*
X4087Y801D02*
X4096Y801D01*
X4103Y801D02*
X4113Y801D01*
X4127Y801D02*
X4136Y801D01*
X4179Y801D02*
X4188Y801D01*
X4231Y801D02*
X4240Y801D01*
X4247Y801D02*
X4257Y801D01*
X4271Y801D02*
X4280Y801D01*
X4317Y801D02*
X4328Y801D01*
X4343Y801D02*
X4352Y801D01*
X4383Y801D02*
X4392Y801D01*
X4407Y801D02*
X4417Y801D01*
X4447Y801D02*
X4456Y801D01*
X4467Y801D02*
X4476Y801D01*
X4487Y801D02*
X4496Y801D01*
X3119Y800D02*
X3128Y800D01*
X3151Y800D02*
X3175Y800D01*
X3191Y800D02*
X3200Y800D01*
X3230Y800D02*
X3240Y800D01*
X3256Y800D02*
X3265Y800D01*
X3315Y800D02*
X3324Y800D01*
X3407Y800D02*
X3416Y800D01*
X3442Y800D02*
X3452Y800D01*
X3521Y800D02*
X3531Y800D01*
X3540Y800D02*
X3550Y800D01*
X3655Y800D02*
X3664Y800D01*
X3695Y800D02*
X3704Y800D01*
X3727Y800D02*
X3751Y800D01*
X3767Y800D02*
X3776Y800D01*
X3819Y800D02*
X3828Y800D01*
X3871Y800D02*
X3880Y800D01*
X3911Y800D02*
X3920Y800D01*
X4015Y800D02*
X4039Y800D01*
X4055Y800D02*
X4064Y800D01*
X4087Y800D02*
X4096Y800D01*
X4103Y800D02*
X4113Y800D01*
X4127Y800D02*
X4136Y800D01*
X4179Y800D02*
X4188Y800D01*
X4231Y800D02*
X4240Y800D01*
X4246Y800D02*
X4257Y800D01*
X4271Y800D02*
X4280Y800D01*
X4317Y800D02*
X4328Y800D01*
X4343Y800D02*
X4352Y800D01*
X4382Y800D02*
X4392Y800D01*
X4408Y800D02*
X4417Y800D01*
X4447Y800D02*
X4456Y800D01*
X4467Y800D02*
X4476Y800D01*
X4487Y800D02*
X4496Y800D01*
X3119Y799D02*
X3128Y799D01*
X3151Y799D02*
X3175Y799D01*
X3191Y799D02*
X3200Y799D01*
X3230Y799D02*
X3240Y799D01*
X3256Y799D02*
X3266Y799D01*
X3315Y799D02*
X3324Y799D01*
X3407Y799D02*
X3416Y799D01*
X3442Y799D02*
X3452Y799D01*
X3522Y799D02*
X3532Y799D01*
X3540Y799D02*
X3550Y799D01*
X3655Y799D02*
X3664Y799D01*
X3695Y799D02*
X3704Y799D01*
X3727Y799D02*
X3751Y799D01*
X3767Y799D02*
X3776Y799D01*
X3819Y799D02*
X3828Y799D01*
X3871Y799D02*
X3880Y799D01*
X3911Y799D02*
X3920Y799D01*
X4015Y799D02*
X4039Y799D01*
X4055Y799D02*
X4064Y799D01*
X4087Y799D02*
X4096Y799D01*
X4102Y799D02*
X4112Y799D01*
X4127Y799D02*
X4136Y799D01*
X4179Y799D02*
X4188Y799D01*
X4231Y799D02*
X4240Y799D01*
X4246Y799D02*
X4256Y799D01*
X4271Y799D02*
X4280Y799D01*
X4316Y799D02*
X4327Y799D01*
X4343Y799D02*
X4352Y799D01*
X4382Y799D02*
X4391Y799D01*
X4408Y799D02*
X4418Y799D01*
X4447Y799D02*
X4456Y799D01*
X4467Y799D02*
X4476Y799D01*
X4487Y799D02*
X4496Y799D01*
X3119Y798D02*
X3128Y798D01*
X3151Y798D02*
X3174Y798D01*
X3191Y798D02*
X3200Y798D01*
X3230Y798D02*
X3239Y798D01*
X3256Y798D02*
X3266Y798D01*
X3315Y798D02*
X3324Y798D01*
X3407Y798D02*
X3416Y798D01*
X3443Y798D02*
X3453Y798D01*
X3522Y798D02*
X3532Y798D01*
X3540Y798D02*
X3550Y798D01*
X3655Y798D02*
X3664Y798D01*
X3695Y798D02*
X3704Y798D01*
X3727Y798D02*
X3750Y798D01*
X3767Y798D02*
X3776Y798D01*
X3819Y798D02*
X3828Y798D01*
X3871Y798D02*
X3880Y798D01*
X3911Y798D02*
X3920Y798D01*
X4015Y798D02*
X4038Y798D01*
X4055Y798D02*
X4064Y798D01*
X4087Y798D02*
X4096Y798D01*
X4102Y798D02*
X4112Y798D01*
X4127Y798D02*
X4136Y798D01*
X4179Y798D02*
X4188Y798D01*
X4231Y798D02*
X4240Y798D01*
X4246Y798D02*
X4256Y798D01*
X4271Y798D02*
X4280Y798D01*
X4316Y798D02*
X4326Y798D01*
X4343Y798D02*
X4352Y798D01*
X4382Y798D02*
X4391Y798D01*
X4408Y798D02*
X4418Y798D01*
X4447Y798D02*
X4456Y798D01*
X4467Y798D02*
X4476Y798D01*
X4487Y798D02*
X4496Y798D01*
X3119Y797D02*
X3128Y797D01*
X3151Y797D02*
X3173Y797D01*
X3191Y797D02*
X3200Y797D01*
X3230Y797D02*
X3266Y797D01*
X3315Y797D02*
X3324Y797D01*
X3407Y797D02*
X3416Y797D01*
X3443Y797D02*
X3453Y797D01*
X3523Y797D02*
X3532Y797D01*
X3539Y797D02*
X3549Y797D01*
X3655Y797D02*
X3664Y797D01*
X3695Y797D02*
X3704Y797D01*
X3727Y797D02*
X3749Y797D01*
X3767Y797D02*
X3776Y797D01*
X3819Y797D02*
X3828Y797D01*
X3871Y797D02*
X3880Y797D01*
X3911Y797D02*
X3920Y797D01*
X4015Y797D02*
X4037Y797D01*
X4055Y797D02*
X4064Y797D01*
X4087Y797D02*
X4096Y797D01*
X4101Y797D02*
X4111Y797D01*
X4127Y797D02*
X4136Y797D01*
X4179Y797D02*
X4188Y797D01*
X4231Y797D02*
X4240Y797D01*
X4245Y797D02*
X4255Y797D01*
X4271Y797D02*
X4280Y797D01*
X4315Y797D02*
X4326Y797D01*
X4343Y797D02*
X4352Y797D01*
X4381Y797D02*
X4418Y797D01*
X4447Y797D02*
X4456Y797D01*
X4467Y797D02*
X4476Y797D01*
X4487Y797D02*
X4496Y797D01*
X3119Y796D02*
X3128Y796D01*
X3151Y796D02*
X3161Y796D01*
X3191Y796D02*
X3200Y796D01*
X3229Y796D02*
X3267Y796D01*
X3315Y796D02*
X3324Y796D01*
X3407Y796D02*
X3416Y796D01*
X3444Y796D02*
X3453Y796D01*
X3523Y796D02*
X3533Y796D01*
X3539Y796D02*
X3549Y796D01*
X3655Y796D02*
X3664Y796D01*
X3695Y796D02*
X3704Y796D01*
X3727Y796D02*
X3737Y796D01*
X3767Y796D02*
X3776Y796D01*
X3819Y796D02*
X3828Y796D01*
X3871Y796D02*
X3880Y796D01*
X3911Y796D02*
X3920Y796D01*
X4015Y796D02*
X4025Y796D01*
X4055Y796D02*
X4064Y796D01*
X4087Y796D02*
X4096Y796D01*
X4101Y796D02*
X4111Y796D01*
X4127Y796D02*
X4136Y796D01*
X4179Y796D02*
X4188Y796D01*
X4231Y796D02*
X4240Y796D01*
X4245Y796D02*
X4255Y796D01*
X4271Y796D02*
X4280Y796D01*
X4314Y796D02*
X4325Y796D01*
X4343Y796D02*
X4352Y796D01*
X4381Y796D02*
X4418Y796D01*
X4447Y796D02*
X4456Y796D01*
X4467Y796D02*
X4476Y796D01*
X4487Y796D02*
X4496Y796D01*
X3119Y795D02*
X3128Y795D01*
X3151Y795D02*
X3161Y795D01*
X3191Y795D02*
X3200Y795D01*
X3229Y795D02*
X3267Y795D01*
X3315Y795D02*
X3324Y795D01*
X3407Y795D02*
X3416Y795D01*
X3444Y795D02*
X3453Y795D01*
X3523Y795D02*
X3533Y795D01*
X3538Y795D02*
X3548Y795D01*
X3655Y795D02*
X3664Y795D01*
X3695Y795D02*
X3704Y795D01*
X3727Y795D02*
X3736Y795D01*
X3767Y795D02*
X3776Y795D01*
X3819Y795D02*
X3828Y795D01*
X3871Y795D02*
X3880Y795D01*
X3911Y795D02*
X3920Y795D01*
X4015Y795D02*
X4024Y795D01*
X4055Y795D02*
X4064Y795D01*
X4087Y795D02*
X4096Y795D01*
X4100Y795D02*
X4110Y795D01*
X4127Y795D02*
X4136Y795D01*
X4179Y795D02*
X4188Y795D01*
X4231Y795D02*
X4240Y795D01*
X4244Y795D02*
X4254Y795D01*
X4271Y795D02*
X4280Y795D01*
X4314Y795D02*
X4325Y795D01*
X4343Y795D02*
X4352Y795D01*
X4381Y795D02*
X4419Y795D01*
X4447Y795D02*
X4456Y795D01*
X4467Y795D02*
X4476Y795D01*
X4487Y795D02*
X4496Y795D01*
X3119Y794D02*
X3128Y794D01*
X3151Y794D02*
X3161Y794D01*
X3191Y794D02*
X3200Y794D01*
X3229Y794D02*
X3267Y794D01*
X3315Y794D02*
X3324Y794D01*
X3407Y794D02*
X3416Y794D01*
X3445Y794D02*
X3453Y794D01*
X3524Y794D02*
X3534Y794D01*
X3538Y794D02*
X3548Y794D01*
X3655Y794D02*
X3664Y794D01*
X3695Y794D02*
X3704Y794D01*
X3727Y794D02*
X3736Y794D01*
X3767Y794D02*
X3776Y794D01*
X3819Y794D02*
X3828Y794D01*
X3871Y794D02*
X3880Y794D01*
X3911Y794D02*
X3920Y794D01*
X4015Y794D02*
X4024Y794D01*
X4055Y794D02*
X4064Y794D01*
X4087Y794D02*
X4096Y794D01*
X4100Y794D02*
X4110Y794D01*
X4127Y794D02*
X4136Y794D01*
X4179Y794D02*
X4188Y794D01*
X4231Y794D02*
X4240Y794D01*
X4244Y794D02*
X4254Y794D01*
X4271Y794D02*
X4280Y794D01*
X4313Y794D02*
X4324Y794D01*
X4343Y794D02*
X4352Y794D01*
X4381Y794D02*
X4419Y794D01*
X4447Y794D02*
X4456Y794D01*
X4467Y794D02*
X4476Y794D01*
X4487Y794D02*
X4496Y794D01*
X3119Y793D02*
X3128Y793D01*
X3151Y793D02*
X3161Y793D01*
X3191Y793D02*
X3200Y793D01*
X3228Y793D02*
X3267Y793D01*
X3315Y793D02*
X3324Y793D01*
X3407Y793D02*
X3416Y793D01*
X3445Y793D02*
X3452Y793D01*
X3524Y793D02*
X3534Y793D01*
X3538Y793D02*
X3548Y793D01*
X3655Y793D02*
X3664Y793D01*
X3695Y793D02*
X3704Y793D01*
X3727Y793D02*
X3736Y793D01*
X3767Y793D02*
X3776Y793D01*
X3819Y793D02*
X3828Y793D01*
X3871Y793D02*
X3880Y793D01*
X3911Y793D02*
X3920Y793D01*
X4015Y793D02*
X4024Y793D01*
X4055Y793D02*
X4064Y793D01*
X4087Y793D02*
X4096Y793D01*
X4099Y793D02*
X4110Y793D01*
X4127Y793D02*
X4136Y793D01*
X4179Y793D02*
X4188Y793D01*
X4231Y793D02*
X4240Y793D01*
X4243Y793D02*
X4254Y793D01*
X4271Y793D02*
X4280Y793D01*
X4313Y793D02*
X4323Y793D01*
X4343Y793D02*
X4352Y793D01*
X4380Y793D02*
X4419Y793D01*
X4447Y793D02*
X4456Y793D01*
X4467Y793D02*
X4476Y793D01*
X4487Y793D02*
X4496Y793D01*
X3119Y792D02*
X3128Y792D01*
X3151Y792D02*
X3161Y792D01*
X3191Y792D02*
X3200Y792D01*
X3228Y792D02*
X3268Y792D01*
X3315Y792D02*
X3324Y792D01*
X3407Y792D02*
X3416Y792D01*
X3446Y792D02*
X3452Y792D01*
X3525Y792D02*
X3534Y792D01*
X3537Y792D02*
X3547Y792D01*
X3655Y792D02*
X3664Y792D01*
X3695Y792D02*
X3704Y792D01*
X3727Y792D02*
X3736Y792D01*
X3767Y792D02*
X3776Y792D01*
X3819Y792D02*
X3828Y792D01*
X3871Y792D02*
X3880Y792D01*
X3911Y792D02*
X3920Y792D01*
X4015Y792D02*
X4024Y792D01*
X4055Y792D02*
X4064Y792D01*
X4087Y792D02*
X4096Y792D01*
X4099Y792D02*
X4109Y792D01*
X4127Y792D02*
X4136Y792D01*
X4179Y792D02*
X4188Y792D01*
X4231Y792D02*
X4240Y792D01*
X4243Y792D02*
X4253Y792D01*
X4271Y792D02*
X4280Y792D01*
X4312Y792D02*
X4323Y792D01*
X4343Y792D02*
X4352Y792D01*
X4380Y792D02*
X4420Y792D01*
X4447Y792D02*
X4456Y792D01*
X4467Y792D02*
X4476Y792D01*
X4487Y792D02*
X4496Y792D01*
X3119Y791D02*
X3128Y791D01*
X3151Y791D02*
X3161Y791D01*
X3191Y791D02*
X3200Y791D01*
X3228Y791D02*
X3268Y791D01*
X3315Y791D02*
X3324Y791D01*
X3407Y791D02*
X3416Y791D01*
X3446Y791D02*
X3452Y791D01*
X3525Y791D02*
X3535Y791D01*
X3537Y791D02*
X3547Y791D01*
X3655Y791D02*
X3664Y791D01*
X3695Y791D02*
X3704Y791D01*
X3727Y791D02*
X3736Y791D01*
X3767Y791D02*
X3776Y791D01*
X3819Y791D02*
X3828Y791D01*
X3871Y791D02*
X3880Y791D01*
X3911Y791D02*
X3920Y791D01*
X4015Y791D02*
X4024Y791D01*
X4055Y791D02*
X4064Y791D01*
X4087Y791D02*
X4096Y791D01*
X4099Y791D02*
X4109Y791D01*
X4127Y791D02*
X4136Y791D01*
X4179Y791D02*
X4188Y791D01*
X4231Y791D02*
X4240Y791D01*
X4243Y791D02*
X4253Y791D01*
X4271Y791D02*
X4280Y791D01*
X4311Y791D02*
X4322Y791D01*
X4343Y791D02*
X4352Y791D01*
X4380Y791D02*
X4420Y791D01*
X4447Y791D02*
X4456Y791D01*
X4467Y791D02*
X4476Y791D01*
X4487Y791D02*
X4496Y791D01*
X3119Y790D02*
X3128Y790D01*
X3151Y790D02*
X3161Y790D01*
X3191Y790D02*
X3200Y790D01*
X3227Y790D02*
X3268Y790D01*
X3315Y790D02*
X3324Y790D01*
X3407Y790D02*
X3416Y790D01*
X3447Y790D02*
X3451Y790D01*
X3525Y790D02*
X3546Y790D01*
X3655Y790D02*
X3664Y790D01*
X3695Y790D02*
X3704Y790D01*
X3727Y790D02*
X3736Y790D01*
X3767Y790D02*
X3776Y790D01*
X3819Y790D02*
X3828Y790D01*
X3871Y790D02*
X3880Y790D01*
X3911Y790D02*
X3920Y790D01*
X4015Y790D02*
X4024Y790D01*
X4055Y790D02*
X4064Y790D01*
X4087Y790D02*
X4096Y790D01*
X4098Y790D02*
X4108Y790D01*
X4127Y790D02*
X4136Y790D01*
X4179Y790D02*
X4188Y790D01*
X4231Y790D02*
X4240Y790D01*
X4242Y790D02*
X4252Y790D01*
X4271Y790D02*
X4280Y790D01*
X4311Y790D02*
X4322Y790D01*
X4343Y790D02*
X4352Y790D01*
X4379Y790D02*
X4420Y790D01*
X4447Y790D02*
X4456Y790D01*
X4467Y790D02*
X4476Y790D01*
X4487Y790D02*
X4496Y790D01*
X3119Y789D02*
X3128Y789D01*
X3151Y789D02*
X3161Y789D01*
X3191Y789D02*
X3200Y789D01*
X3227Y789D02*
X3269Y789D01*
X3315Y789D02*
X3324Y789D01*
X3407Y789D02*
X3416Y789D01*
X3447Y789D02*
X3451Y789D01*
X3526Y789D02*
X3546Y789D01*
X3655Y789D02*
X3664Y789D01*
X3695Y789D02*
X3704Y789D01*
X3727Y789D02*
X3736Y789D01*
X3767Y789D02*
X3776Y789D01*
X3819Y789D02*
X3828Y789D01*
X3871Y789D02*
X3880Y789D01*
X3911Y789D02*
X3920Y789D01*
X4015Y789D02*
X4024Y789D01*
X4055Y789D02*
X4064Y789D01*
X4087Y789D02*
X4108Y789D01*
X4127Y789D02*
X4136Y789D01*
X4179Y789D02*
X4188Y789D01*
X4231Y789D02*
X4252Y789D01*
X4271Y789D02*
X4280Y789D01*
X4310Y789D02*
X4321Y789D01*
X4343Y789D02*
X4352Y789D01*
X4379Y789D02*
X4421Y789D01*
X4447Y789D02*
X4456Y789D01*
X4467Y789D02*
X4476Y789D01*
X4487Y789D02*
X4496Y789D01*
X3119Y788D02*
X3128Y788D01*
X3151Y788D02*
X3161Y788D01*
X3191Y788D02*
X3200Y788D01*
X3227Y788D02*
X3269Y788D01*
X3315Y788D02*
X3324Y788D01*
X3407Y788D02*
X3416Y788D01*
X3448Y788D02*
X3451Y788D01*
X3526Y788D02*
X3546Y788D01*
X3655Y788D02*
X3664Y788D01*
X3695Y788D02*
X3704Y788D01*
X3727Y788D02*
X3736Y788D01*
X3767Y788D02*
X3776Y788D01*
X3819Y788D02*
X3828Y788D01*
X3871Y788D02*
X3880Y788D01*
X3911Y788D02*
X3920Y788D01*
X4015Y788D02*
X4024Y788D01*
X4055Y788D02*
X4064Y788D01*
X4087Y788D02*
X4107Y788D01*
X4127Y788D02*
X4136Y788D01*
X4179Y788D02*
X4188Y788D01*
X4231Y788D02*
X4251Y788D01*
X4271Y788D02*
X4280Y788D01*
X4310Y788D02*
X4320Y788D01*
X4343Y788D02*
X4352Y788D01*
X4379Y788D02*
X4421Y788D01*
X4447Y788D02*
X4456Y788D01*
X4467Y788D02*
X4476Y788D01*
X4487Y788D02*
X4496Y788D01*
X3119Y787D02*
X3128Y787D01*
X3151Y787D02*
X3161Y787D01*
X3191Y787D02*
X3200Y787D01*
X3227Y787D02*
X3236Y787D01*
X3260Y787D02*
X3269Y787D01*
X3315Y787D02*
X3324Y787D01*
X3407Y787D02*
X3416Y787D01*
X3448Y787D02*
X3451Y787D01*
X3526Y787D02*
X3545Y787D01*
X3655Y787D02*
X3664Y787D01*
X3695Y787D02*
X3704Y787D01*
X3727Y787D02*
X3736Y787D01*
X3767Y787D02*
X3776Y787D01*
X3819Y787D02*
X3828Y787D01*
X3871Y787D02*
X3880Y787D01*
X3911Y787D02*
X3920Y787D01*
X4015Y787D02*
X4024Y787D01*
X4055Y787D02*
X4064Y787D01*
X4087Y787D02*
X4107Y787D01*
X4127Y787D02*
X4136Y787D01*
X4179Y787D02*
X4188Y787D01*
X4231Y787D02*
X4251Y787D01*
X4271Y787D02*
X4280Y787D01*
X4309Y787D02*
X4320Y787D01*
X4343Y787D02*
X4352Y787D01*
X4378Y787D02*
X4388Y787D01*
X4412Y787D02*
X4421Y787D01*
X4447Y787D02*
X4456Y787D01*
X4467Y787D02*
X4476Y787D01*
X4487Y787D02*
X4496Y787D01*
X3119Y786D02*
X3128Y786D01*
X3151Y786D02*
X3161Y786D01*
X3191Y786D02*
X3200Y786D01*
X3226Y786D02*
X3236Y786D01*
X3260Y786D02*
X3270Y786D01*
X3315Y786D02*
X3324Y786D01*
X3407Y786D02*
X3416Y786D01*
X3449Y786D02*
X3451Y786D01*
X3527Y786D02*
X3545Y786D01*
X3655Y786D02*
X3664Y786D01*
X3695Y786D02*
X3704Y786D01*
X3727Y786D02*
X3736Y786D01*
X3767Y786D02*
X3776Y786D01*
X3819Y786D02*
X3828Y786D01*
X3871Y786D02*
X3880Y786D01*
X3911Y786D02*
X3920Y786D01*
X4015Y786D02*
X4024Y786D01*
X4055Y786D02*
X4064Y786D01*
X4087Y786D02*
X4106Y786D01*
X4127Y786D02*
X4136Y786D01*
X4179Y786D02*
X4188Y786D01*
X4231Y786D02*
X4250Y786D01*
X4271Y786D02*
X4280Y786D01*
X4309Y786D02*
X4319Y786D01*
X4343Y786D02*
X4352Y786D01*
X4378Y786D02*
X4388Y786D01*
X4412Y786D02*
X4421Y786D01*
X4447Y786D02*
X4456Y786D01*
X4467Y786D02*
X4476Y786D01*
X4487Y786D02*
X4496Y786D01*
X3119Y785D02*
X3128Y785D01*
X3152Y785D02*
X3161Y785D01*
X3191Y785D02*
X3200Y785D01*
X3226Y785D02*
X3235Y785D01*
X3260Y785D02*
X3270Y785D01*
X3315Y785D02*
X3324Y785D01*
X3407Y785D02*
X3416Y785D01*
X3449Y785D02*
X3451Y785D01*
X3527Y785D02*
X3544Y785D01*
X3655Y785D02*
X3664Y785D01*
X3695Y785D02*
X3704Y785D01*
X3727Y785D02*
X3737Y785D01*
X3767Y785D02*
X3776Y785D01*
X3819Y785D02*
X3828Y785D01*
X3871Y785D02*
X3880Y785D01*
X3911Y785D02*
X3920Y785D01*
X4015Y785D02*
X4025Y785D01*
X4055Y785D02*
X4064Y785D01*
X4087Y785D02*
X4106Y785D01*
X4127Y785D02*
X4136Y785D01*
X4179Y785D02*
X4188Y785D01*
X4231Y785D02*
X4250Y785D01*
X4271Y785D02*
X4280Y785D01*
X4308Y785D02*
X4319Y785D01*
X4343Y785D02*
X4352Y785D01*
X4378Y785D02*
X4387Y785D01*
X4412Y785D02*
X4422Y785D01*
X4447Y785D02*
X4457Y785D01*
X4467Y785D02*
X4477Y785D01*
X4487Y785D02*
X4496Y785D01*
X3027Y784D02*
X3037Y784D01*
X3119Y784D02*
X3128Y784D01*
X3152Y784D02*
X3161Y784D01*
X3191Y784D02*
X3200Y784D01*
X3226Y784D02*
X3235Y784D01*
X3261Y784D02*
X3270Y784D01*
X3315Y784D02*
X3324Y784D01*
X3407Y784D02*
X3416Y784D01*
X3450Y784D02*
X3451Y784D01*
X3528Y784D02*
X3544Y784D01*
X3655Y784D02*
X3664Y784D01*
X3695Y784D02*
X3704Y784D01*
X3728Y784D02*
X3737Y784D01*
X3767Y784D02*
X3776Y784D01*
X3819Y784D02*
X3828Y784D01*
X3871Y784D02*
X3880Y784D01*
X3911Y784D02*
X3920Y784D01*
X4016Y784D02*
X4025Y784D01*
X4055Y784D02*
X4064Y784D01*
X4087Y784D02*
X4106Y784D01*
X4127Y784D02*
X4136Y784D01*
X4179Y784D02*
X4188Y784D01*
X4231Y784D02*
X4250Y784D01*
X4271Y784D02*
X4280Y784D01*
X4307Y784D02*
X4318Y784D01*
X4343Y784D02*
X4352Y784D01*
X4378Y784D02*
X4387Y784D01*
X4412Y784D02*
X4422Y784D01*
X4447Y784D02*
X4457Y784D01*
X4466Y784D02*
X4477Y784D01*
X4486Y784D02*
X4496Y784D01*
X3026Y783D02*
X3038Y783D01*
X3119Y783D02*
X3128Y783D01*
X3152Y783D02*
X3162Y783D01*
X3190Y783D02*
X3200Y783D01*
X3225Y783D02*
X3235Y783D01*
X3261Y783D02*
X3270Y783D01*
X3315Y783D02*
X3324Y783D01*
X3407Y783D02*
X3416Y783D01*
X3450Y783D02*
X3451Y783D01*
X3528Y783D02*
X3544Y783D01*
X3655Y783D02*
X3664Y783D01*
X3695Y783D02*
X3704Y783D01*
X3728Y783D02*
X3737Y783D01*
X3766Y783D02*
X3776Y783D01*
X3819Y783D02*
X3828Y783D01*
X3871Y783D02*
X3880Y783D01*
X3911Y783D02*
X3920Y783D01*
X4016Y783D02*
X4025Y783D01*
X4054Y783D02*
X4064Y783D01*
X4087Y783D02*
X4105Y783D01*
X4127Y783D02*
X4136Y783D01*
X4179Y783D02*
X4188Y783D01*
X4231Y783D02*
X4249Y783D01*
X4271Y783D02*
X4280Y783D01*
X4307Y783D02*
X4318Y783D01*
X4343Y783D02*
X4352Y783D01*
X4377Y783D02*
X4387Y783D01*
X4413Y783D02*
X4422Y783D01*
X4447Y783D02*
X4458Y783D01*
X4466Y783D02*
X4478Y783D01*
X4486Y783D02*
X4496Y783D01*
X3025Y782D02*
X3038Y782D01*
X3119Y782D02*
X3128Y782D01*
X3152Y782D02*
X3162Y782D01*
X3189Y782D02*
X3200Y782D01*
X3225Y782D02*
X3235Y782D01*
X3261Y782D02*
X3271Y782D01*
X3315Y782D02*
X3324Y782D01*
X3407Y782D02*
X3416Y782D01*
X3451Y782D02*
X3451Y782D01*
X3528Y782D02*
X3543Y782D01*
X3655Y782D02*
X3664Y782D01*
X3695Y782D02*
X3704Y782D01*
X3728Y782D02*
X3738Y782D01*
X3765Y782D02*
X3776Y782D01*
X3819Y782D02*
X3828Y782D01*
X3871Y782D02*
X3880Y782D01*
X3911Y782D02*
X3920Y782D01*
X4016Y782D02*
X4026Y782D01*
X4053Y782D02*
X4064Y782D01*
X4087Y782D02*
X4105Y782D01*
X4127Y782D02*
X4136Y782D01*
X4179Y782D02*
X4188Y782D01*
X4231Y782D02*
X4249Y782D01*
X4271Y782D02*
X4280Y782D01*
X4306Y782D02*
X4317Y782D01*
X4343Y782D02*
X4352Y782D01*
X4377Y782D02*
X4386Y782D01*
X4413Y782D02*
X4423Y782D01*
X4448Y782D02*
X4459Y782D01*
X4465Y782D02*
X4478Y782D01*
X4485Y782D02*
X4496Y782D01*
X3025Y781D02*
X3039Y781D01*
X3119Y781D02*
X3128Y781D01*
X3152Y781D02*
X3164Y781D01*
X3187Y781D02*
X3199Y781D01*
X3225Y781D02*
X3234Y781D01*
X3261Y781D02*
X3271Y781D01*
X3315Y781D02*
X3324Y781D01*
X3407Y781D02*
X3416Y781D01*
X3451Y781D02*
X3451Y781D01*
X3529Y781D02*
X3543Y781D01*
X3655Y781D02*
X3664Y781D01*
X3695Y781D02*
X3704Y781D01*
X3728Y781D02*
X3740Y781D01*
X3763Y781D02*
X3775Y781D01*
X3819Y781D02*
X3829Y781D01*
X3871Y781D02*
X3880Y781D01*
X3911Y781D02*
X3920Y781D01*
X4016Y781D02*
X4028Y781D01*
X4051Y781D02*
X4063Y781D01*
X4087Y781D02*
X4104Y781D01*
X4127Y781D02*
X4136Y781D01*
X4179Y781D02*
X4188Y781D01*
X4231Y781D02*
X4248Y781D01*
X4271Y781D02*
X4280Y781D01*
X4306Y781D02*
X4316Y781D01*
X4343Y781D02*
X4352Y781D01*
X4377Y781D02*
X4386Y781D01*
X4413Y781D02*
X4423Y781D01*
X4448Y781D02*
X4459Y781D01*
X4464Y781D02*
X4479Y781D01*
X4484Y781D02*
X4495Y781D01*
X3025Y780D02*
X3039Y780D01*
X3082Y780D02*
X3128Y780D01*
X3153Y780D02*
X3199Y780D01*
X3225Y780D02*
X3234Y780D01*
X3262Y780D02*
X3271Y780D01*
X3315Y780D02*
X3324Y780D01*
X3370Y780D02*
X3416Y780D01*
X3452Y780D02*
X3452Y780D01*
X3529Y780D02*
X3543Y780D01*
X3655Y780D02*
X3664Y780D01*
X3695Y780D02*
X3704Y780D01*
X3729Y780D02*
X3775Y780D01*
X3802Y780D02*
X3846Y780D01*
X3871Y780D02*
X3880Y780D01*
X3911Y780D02*
X3920Y780D01*
X4017Y780D02*
X4063Y780D01*
X4087Y780D02*
X4104Y780D01*
X4127Y780D02*
X4136Y780D01*
X4162Y780D02*
X4206Y780D01*
X4231Y780D02*
X4248Y780D01*
X4271Y780D02*
X4280Y780D01*
X4305Y780D02*
X4316Y780D01*
X4343Y780D02*
X4352Y780D01*
X4376Y780D02*
X4386Y780D01*
X4414Y780D02*
X4423Y780D01*
X4449Y780D02*
X4494Y780D01*
X3025Y779D02*
X3039Y779D01*
X3081Y779D02*
X3128Y779D01*
X3153Y779D02*
X3199Y779D01*
X3224Y779D02*
X3234Y779D01*
X3262Y779D02*
X3272Y779D01*
X3315Y779D02*
X3324Y779D01*
X3369Y779D02*
X3416Y779D01*
X3452Y779D02*
X3452Y779D01*
X3530Y779D02*
X3542Y779D01*
X3655Y779D02*
X3664Y779D01*
X3695Y779D02*
X3704Y779D01*
X3729Y779D02*
X3775Y779D01*
X3801Y779D02*
X3847Y779D01*
X3871Y779D02*
X3880Y779D01*
X3911Y779D02*
X3920Y779D01*
X4017Y779D02*
X4063Y779D01*
X4087Y779D02*
X4103Y779D01*
X4127Y779D02*
X4136Y779D01*
X4161Y779D02*
X4207Y779D01*
X4231Y779D02*
X4247Y779D01*
X4271Y779D02*
X4280Y779D01*
X4304Y779D02*
X4315Y779D01*
X4343Y779D02*
X4352Y779D01*
X4376Y779D02*
X4386Y779D01*
X4414Y779D02*
X4423Y779D01*
X4450Y779D02*
X4494Y779D01*
X3025Y778D02*
X3039Y778D01*
X3080Y778D02*
X3128Y778D01*
X3154Y778D02*
X3198Y778D01*
X3224Y778D02*
X3233Y778D01*
X3262Y778D02*
X3272Y778D01*
X3315Y778D02*
X3324Y778D01*
X3368Y778D02*
X3416Y778D01*
X3530Y778D02*
X3542Y778D01*
X3655Y778D02*
X3664Y778D01*
X3695Y778D02*
X3704Y778D01*
X3730Y778D02*
X3774Y778D01*
X3800Y778D02*
X3848Y778D01*
X3871Y778D02*
X3880Y778D01*
X3911Y778D02*
X3920Y778D01*
X4018Y778D02*
X4062Y778D01*
X4087Y778D02*
X4103Y778D01*
X4127Y778D02*
X4136Y778D01*
X4160Y778D02*
X4207Y778D01*
X4231Y778D02*
X4247Y778D01*
X4271Y778D02*
X4280Y778D01*
X4304Y778D02*
X4315Y778D01*
X4343Y778D02*
X4352Y778D01*
X4376Y778D02*
X4385Y778D01*
X4414Y778D02*
X4424Y778D01*
X4450Y778D02*
X4493Y778D01*
X3025Y777D02*
X3039Y777D01*
X3080Y777D02*
X3128Y777D01*
X3154Y777D02*
X3197Y777D01*
X3224Y777D02*
X3233Y777D01*
X3263Y777D02*
X3272Y777D01*
X3315Y777D02*
X3324Y777D01*
X3368Y777D02*
X3416Y777D01*
X3453Y777D02*
X3453Y777D01*
X3530Y777D02*
X3541Y777D01*
X3655Y777D02*
X3664Y777D01*
X3695Y777D02*
X3704Y777D01*
X3730Y777D02*
X3773Y777D01*
X3800Y777D02*
X3848Y777D01*
X3871Y777D02*
X3880Y777D01*
X3911Y777D02*
X3920Y777D01*
X4018Y777D02*
X4061Y777D01*
X4087Y777D02*
X4103Y777D01*
X4127Y777D02*
X4136Y777D01*
X4160Y777D02*
X4208Y777D01*
X4231Y777D02*
X4247Y777D01*
X4271Y777D02*
X4280Y777D01*
X4304Y777D02*
X4314Y777D01*
X4343Y777D02*
X4352Y777D01*
X4376Y777D02*
X4385Y777D01*
X4414Y777D02*
X4424Y777D01*
X4451Y777D02*
X4493Y777D01*
X3025Y776D02*
X3039Y776D01*
X3080Y776D02*
X3128Y776D01*
X3155Y776D02*
X3197Y776D01*
X3223Y776D02*
X3233Y776D01*
X3263Y776D02*
X3272Y776D01*
X3315Y776D02*
X3324Y776D01*
X3367Y776D02*
X3416Y776D01*
X3531Y776D02*
X3541Y776D01*
X3655Y776D02*
X3664Y776D01*
X3695Y776D02*
X3704Y776D01*
X3731Y776D02*
X3773Y776D01*
X3799Y776D02*
X3848Y776D01*
X3871Y776D02*
X3880Y776D01*
X3911Y776D02*
X3920Y776D01*
X4019Y776D02*
X4060Y776D01*
X4087Y776D02*
X4102Y776D01*
X4127Y776D02*
X4136Y776D01*
X4159Y776D02*
X4208Y776D01*
X4231Y776D02*
X4246Y776D01*
X4271Y776D02*
X4280Y776D01*
X4303Y776D02*
X4313Y776D01*
X4343Y776D02*
X4352Y776D01*
X4375Y776D02*
X4385Y776D01*
X4415Y776D02*
X4424Y776D01*
X4451Y776D02*
X4492Y776D01*
X3025Y775D02*
X3039Y775D01*
X3080Y775D02*
X3128Y775D01*
X3156Y775D02*
X3196Y775D01*
X3223Y775D02*
X3233Y775D01*
X3263Y775D02*
X3272Y775D01*
X3315Y775D02*
X3324Y775D01*
X3368Y775D02*
X3416Y775D01*
X3531Y775D02*
X3541Y775D01*
X3656Y775D02*
X3664Y775D01*
X3695Y775D02*
X3704Y775D01*
X3732Y775D02*
X3772Y775D01*
X3800Y775D02*
X3848Y775D01*
X3871Y775D02*
X3880Y775D01*
X3911Y775D02*
X3920Y775D01*
X4020Y775D02*
X4060Y775D01*
X4087Y775D02*
X4102Y775D01*
X4127Y775D02*
X4136Y775D01*
X4159Y775D02*
X4208Y775D01*
X4231Y775D02*
X4246Y775D01*
X4271Y775D02*
X4280Y775D01*
X4303Y775D02*
X4313Y775D01*
X4343Y775D02*
X4352Y775D01*
X4375Y775D02*
X4384Y775D01*
X4415Y775D02*
X4424Y775D01*
X4452Y775D02*
X4492Y775D01*
X3025Y774D02*
X3039Y774D01*
X3080Y774D02*
X3128Y774D01*
X3157Y774D02*
X3195Y774D01*
X3224Y774D02*
X3232Y774D01*
X3264Y774D02*
X3272Y774D01*
X3316Y774D02*
X3324Y774D01*
X3368Y774D02*
X3416Y774D01*
X3532Y774D02*
X3540Y774D01*
X3656Y774D02*
X3664Y774D01*
X3695Y774D02*
X3704Y774D01*
X3733Y774D02*
X3770Y774D01*
X3800Y774D02*
X3848Y774D01*
X3872Y774D02*
X3880Y774D01*
X3911Y774D02*
X3920Y774D01*
X4021Y774D02*
X4058Y774D01*
X4087Y774D02*
X4101Y774D01*
X4127Y774D02*
X4136Y774D01*
X4160Y774D02*
X4208Y774D01*
X4231Y774D02*
X4245Y774D01*
X4271Y774D02*
X4280Y774D01*
X4304Y774D02*
X4312Y774D01*
X4343Y774D02*
X4352Y774D01*
X4376Y774D02*
X4384Y774D01*
X4415Y774D02*
X4424Y774D01*
X4452Y774D02*
X4491Y774D01*
X3026Y773D02*
X3038Y773D01*
X3080Y773D02*
X3128Y773D01*
X3159Y773D02*
X3193Y773D01*
X3224Y773D02*
X3232Y773D01*
X3264Y773D02*
X3272Y773D01*
X3316Y773D02*
X3324Y773D01*
X3368Y773D02*
X3416Y773D01*
X3532Y773D02*
X3540Y773D01*
X3656Y773D02*
X3664Y773D01*
X3696Y773D02*
X3703Y773D01*
X3735Y773D02*
X3769Y773D01*
X3800Y773D02*
X3847Y773D01*
X3872Y773D02*
X3880Y773D01*
X3912Y773D02*
X3919Y773D01*
X4022Y773D02*
X4057Y773D01*
X4087Y773D02*
X4101Y773D01*
X4128Y773D02*
X4135Y773D01*
X4160Y773D02*
X4207Y773D01*
X4231Y773D02*
X4245Y773D01*
X4272Y773D02*
X4279Y773D01*
X4304Y773D02*
X4312Y773D01*
X4344Y773D02*
X4351Y773D01*
X4376Y773D02*
X4384Y773D01*
X4416Y773D02*
X4423Y773D01*
X4453Y773D02*
X4470Y773D01*
X4473Y773D02*
X4490Y773D01*
X3027Y772D02*
X3037Y772D01*
X3081Y772D02*
X3128Y772D01*
X3160Y772D02*
X3191Y772D01*
X3225Y772D02*
X3231Y772D01*
X3265Y772D02*
X3271Y772D01*
X3317Y772D02*
X3323Y772D01*
X3369Y772D02*
X3416Y772D01*
X3533Y772D02*
X3539Y772D01*
X3657Y772D02*
X3663Y772D01*
X3697Y772D02*
X3703Y772D01*
X3736Y772D02*
X3767Y772D01*
X3801Y772D02*
X3846Y772D01*
X3873Y772D02*
X3879Y772D01*
X3913Y772D02*
X3918Y772D01*
X4024Y772D02*
X4055Y772D01*
X4087Y772D02*
X4100Y772D01*
X4129Y772D02*
X4134Y772D01*
X4161Y772D02*
X4206Y772D01*
X4231Y772D02*
X4244Y772D01*
X4273Y772D02*
X4278Y772D01*
X4305Y772D02*
X4311Y772D01*
X4345Y772D02*
X4350Y772D01*
X4377Y772D02*
X4383Y772D01*
X4417Y772D02*
X4423Y772D01*
X4454Y772D02*
X4470Y772D01*
X4474Y772D02*
X4490Y772D01*
X3028Y771D02*
X3036Y771D01*
X3083Y771D02*
X3128Y771D01*
X3163Y771D02*
X3188Y771D01*
X3227Y771D02*
X3229Y771D01*
X3267Y771D02*
X3269Y771D01*
X3319Y771D02*
X3321Y771D01*
X3371Y771D02*
X3416Y771D01*
X3534Y771D02*
X3537Y771D01*
X3659Y771D02*
X3661Y771D01*
X3698Y771D02*
X3701Y771D01*
X3739Y771D02*
X3764Y771D01*
X3803Y771D02*
X3845Y771D01*
X3875Y771D02*
X3877Y771D01*
X3914Y771D02*
X3917Y771D01*
X4027Y771D02*
X4052Y771D01*
X4087Y771D02*
X4100Y771D01*
X4130Y771D02*
X4133Y771D01*
X4163Y771D02*
X4205Y771D01*
X4231Y771D02*
X4244Y771D01*
X4274Y771D02*
X4277Y771D01*
X4307Y771D02*
X4309Y771D01*
X4346Y771D02*
X4349Y771D01*
X4379Y771D02*
X4381Y771D01*
X4418Y771D02*
X4421Y771D01*
X4455Y771D02*
X4468Y771D01*
X4476Y771D02*
X4488Y771D01*
D02*
G04 End of Silk0*
M02*