; NON-PLATED HOLES START AT T1
; THROUGH (PLATED) HOLES START AT T100
M48
INCH
T1C0.086614
T100C0.030000
T101C0.040000
T102C0.044139
T103C0.015748
T104C0.039370
T105C0.038000
T106C0.044111
T107C0.035000
T108C0.034000
T109C0.042000
%
T1
X030833Y014743
X010754Y000766
X030833Y000766
X011344Y014743
T100
X031226Y005491
X029651Y000749
X029651Y007870
X029651Y006869
X002305Y011562
X023960Y007065
X007604Y012792
X029651Y001750
X001305Y013562
X005636Y006869
X030224Y005491
X004634Y006869
X030833Y010806
X030833Y011807
X022958Y007065
X007604Y011790
X003305Y013562
T101
X001502Y006609
X043644Y005325
X018762Y008050
X001502Y010609
X042644Y005325
X042644Y002325
X042644Y013380
X006455Y009821
X043644Y001325
X042644Y001325
X043644Y013380
X043644Y014380
X043644Y011380
X042644Y014380
X004455Y009821
X043644Y010380
X042644Y012380
X005455Y009821
X043644Y012380
X042644Y004325
X043644Y002325
X043644Y004325
X042644Y011380
X042644Y010380
X043644Y003325
X022762Y008050
X042644Y003325
T102
X001108Y003719
T103
X036738Y001750
X031817Y002144
X029651Y009428
X041456Y003530
X032794Y002147
X038311Y002147
X037718Y005885
X030242Y004703
X009769Y008443
X041456Y006083
X041071Y011000
X039698Y013770
X034770Y007853
X016856Y005294
X040079Y014354
X041069Y013168
X027486Y006869
X030833Y006278
X041069Y009821
X038311Y000763
X033785Y001357
X010951Y009821
X022959Y004703
X016856Y003719
X033791Y008639
X020006Y006672
X037718Y005095
X035754Y008640
X017644Y006475
X039691Y011003
X041069Y009034
X017644Y005294
X026896Y007853
X007604Y008443
X036738Y008247
X027486Y014349
X016856Y012774
T104
X009573Y014971
X009573Y012971
X009573Y013971
T105
X019021Y003884
X022958Y002932
X020596Y003916
X012116Y001160
X020596Y004916
X019596Y001160
X019021Y004884
X018596Y001160
X021596Y001160
X015116Y001160
X013116Y001160
X020596Y001160
X019021Y005884
X023958Y002932
X014116Y001160
T106
X001108Y001719
X001108Y002719
T107
X039738Y009821
X035738Y009821
X033738Y009821
X022762Y009231
X032738Y006522
X012872Y012806
X033738Y012821
X033738Y003522
X015872Y009806
X036738Y009821
X036738Y012821
X015084Y006735
X018959Y014743
X034738Y009821
X015872Y008806
X035738Y006522
X038738Y006522
X032738Y012821
X033738Y006522
X005636Y012380
X016856Y002672
X012132Y002735
X012872Y009806
X034738Y012821
X039738Y012821
X015084Y002735
X037738Y009821
X022959Y014743
X015872Y010806
X032738Y003522
X038738Y003522
X012132Y006735
X014100Y002735
X022959Y012577
X039738Y003522
X016856Y006672
X009770Y010475
X008392Y010475
X036738Y003522
X032738Y009821
X037738Y003522
X035738Y012821
X002683Y004569
X004636Y012380
X018959Y011593
X015872Y013806
X039738Y006522
X018762Y009231
X018959Y012577
X038738Y012821
X002683Y000569
X018959Y013758
X008392Y006475
X015872Y014806
X012872Y013806
X012872Y007806
X037738Y012821
X036738Y006522
X012872Y008806
X014100Y006735
X022959Y013758
X034738Y006522
X013116Y002735
X015872Y007806
X034738Y003522
X009770Y006475
X012872Y014806
X013116Y006735
X012872Y010806
X038738Y009821
X035738Y003522
X037738Y006522
X022959Y011593
X012872Y011806
X015872Y011806
X015872Y012806
T108
X025342Y006129
X025342Y014129
X028667Y013129
X025342Y003129
X025342Y008129
X028667Y014129
X028667Y010129
X028667Y011129
X028667Y008129
X025342Y005129
X028667Y005129
X025342Y007129
X028667Y003129
X028667Y007129
X028667Y009129
X028667Y006129
X028667Y004129
X028667Y002129
X025342Y013129
X025342Y012129
X025342Y011129
X028667Y012129
X025342Y009129
X025342Y001129
X025342Y002129
X028667Y001129
X025342Y010129
X025342Y004129
T109
X007604Y001750
X003470Y004479
X004230Y015136
X007604Y004750
X003470Y007459
X007210Y015136
T00
M30
