G04 MADE WITH FRITZING*
G04 WWW.FRITZING.ORG*
G04 DOUBLE SIDED*
G04 HOLES PLATED*
G04 CONTOUR ON CENTER OF CONTOUR VECTOR*
%ASAXBY*%
%FSLAX23Y23*%
%MOIN*%
%OFA0B0*%
%SFA1.0B1.0*%
%ADD10C,0.039370*%
%ADD11C,0.073667*%
%ADD12C,0.093195*%
%ADD13C,0.078000*%
%ADD14C,0.024000*%
%LNCOPPER0*%
G90*
G70*
G54D10*
X348Y376D03*
X180Y736D03*
X876Y1144D03*
X180Y1288D03*
X588Y784D03*
G54D11*
X718Y146D03*
X718Y246D03*
X618Y146D03*
X618Y246D03*
X518Y146D03*
X518Y246D03*
X418Y146D03*
X418Y246D03*
X318Y146D03*
X318Y246D03*
X718Y146D03*
X718Y246D03*
X618Y146D03*
X618Y246D03*
X518Y146D03*
X518Y246D03*
X418Y146D03*
X418Y246D03*
X318Y146D03*
X318Y246D03*
G54D12*
X649Y631D03*
X718Y789D03*
X334Y631D03*
X265Y789D03*
X265Y946D03*
X265Y1104D03*
X334Y1261D03*
X492Y1301D03*
X649Y1261D03*
X718Y1104D03*
X718Y946D03*
X492Y592D03*
G54D13*
X944Y861D03*
X944Y761D03*
X944Y861D03*
X944Y761D03*
X960Y1275D03*
X860Y1275D03*
X960Y1275D03*
X860Y1275D03*
G54D14*
X890Y1275D02*
X930Y1275D01*
D02*
X745Y162D02*
X780Y184D01*
D02*
X780Y184D02*
X780Y304D01*
D02*
X780Y304D02*
X372Y472D01*
D02*
X372Y472D02*
X342Y599D01*
D02*
X314Y277D02*
X252Y688D01*
D02*
X252Y688D02*
X420Y712D01*
D02*
X420Y712D02*
X420Y544D01*
D02*
X420Y544D02*
X444Y520D01*
D02*
X444Y520D02*
X564Y520D01*
D02*
X564Y520D02*
X564Y664D01*
D02*
X564Y664D02*
X692Y768D01*
D02*
X296Y933D02*
X468Y856D01*
D02*
X468Y856D02*
X780Y856D01*
D02*
X780Y856D02*
X804Y352D01*
D02*
X804Y352D02*
X828Y352D01*
D02*
X828Y352D02*
X828Y112D01*
D02*
X828Y112D02*
X780Y88D01*
D02*
X780Y88D02*
X612Y88D01*
D02*
X612Y88D02*
X615Y115D01*
D02*
X403Y274D02*
X357Y359D01*
D02*
X182Y755D02*
X204Y1024D01*
D02*
X204Y1024D02*
X685Y1099D01*
D02*
X344Y1229D02*
X348Y1216D01*
D02*
X348Y1216D02*
X756Y1180D01*
D02*
X756Y1180D02*
X792Y1144D01*
D02*
X792Y1144D02*
X876Y400D01*
D02*
X876Y400D02*
X876Y40D01*
D02*
X876Y40D02*
X564Y40D01*
D02*
X564Y40D02*
X531Y117D01*
D02*
X295Y168D02*
X252Y208D01*
D02*
X252Y208D02*
X204Y688D01*
D02*
X204Y688D02*
X132Y688D01*
D02*
X132Y688D02*
X132Y1048D01*
D02*
X132Y1048D02*
X276Y1384D01*
D02*
X276Y1384D02*
X540Y1384D01*
D02*
X540Y1384D02*
X708Y1336D01*
D02*
X708Y1336D02*
X863Y1158D01*
D02*
X407Y117D02*
X396Y88D01*
D02*
X396Y88D02*
X252Y88D01*
D02*
X252Y88D02*
X156Y208D01*
D02*
X156Y208D02*
X84Y640D01*
D02*
X84Y640D02*
X84Y1120D01*
D02*
X84Y1120D02*
X171Y1271D01*
D02*
X496Y625D02*
X516Y784D01*
D02*
X516Y784D02*
X569Y784D01*
G04 End of Copper0*
M02*