; NON-PLATED HOLES START AT T1
; THROUGH (PLATED) HOLES START AT T100
M48
INCH
T1C0.086614
T100C0.044584
T101C0.040333
T102C0.038000
T103C0.015748
%
T1
X009520Y000737
X000701Y013841
X009481Y013847
X000662Y000737
T100
X003343Y006312
X006492Y006312
X002654Y011036
X004918Y013005
X004918Y005918
X006492Y012611
X007181Y011036
X003343Y012611
X007181Y009461
X002654Y007887
X007181Y007886
X002654Y009461
T101
X005181Y001461
X007181Y002462
X006182Y001461
X003181Y002462
X003181Y001461
X005181Y002462
X007181Y001461
X004181Y001461
X004181Y002462
X006182Y002462
T102
X009441Y008611
X008599Y012745
X009599Y012745
X009441Y007611
T103
X001799Y012878
X005879Y007838
X001799Y007358
X008760Y011438
X003479Y003758
T00
M30
