G04 MADE WITH FRITZING*
G04 WWW.FRITZING.ORG*
G04 DOUBLE SIDED*
G04 HOLES PLATED*
G04 CONTOUR ON CENTER OF CONTOUR VECTOR*
%ASAXBY*%
%FSLAX23Y23*%
%MOIN*%
%OFA0B0*%
%SFA1.0B1.0*%
%ADD10C,0.039370*%
%ADD11C,0.070889*%
%ADD12C,0.057000*%
%ADD13C,0.093195*%
%ADD14C,0.078000*%
%ADD15C,0.024000*%
%LNCOPPER0*%
G90*
G70*
G54D10*
X392Y569D03*
G54D11*
X137Y193D03*
X237Y193D03*
X137Y293D03*
X237Y293D03*
X137Y393D03*
X237Y393D03*
X137Y493D03*
X237Y493D03*
X137Y593D03*
X237Y593D03*
G54D12*
X137Y193D03*
X237Y193D03*
X137Y293D03*
X237Y293D03*
X137Y393D03*
X237Y393D03*
X137Y493D03*
X237Y493D03*
X137Y593D03*
X237Y593D03*
G54D13*
X978Y401D03*
X1047Y559D03*
X663Y401D03*
X594Y559D03*
X594Y716D03*
X594Y874D03*
X663Y1031D03*
X820Y1071D03*
X978Y1031D03*
X1047Y874D03*
X1047Y716D03*
X820Y362D03*
G54D14*
X984Y75D03*
X984Y175D03*
X984Y75D03*
X984Y175D03*
X815Y79D03*
X815Y179D03*
X815Y79D03*
X815Y179D03*
G54D15*
X656Y629D02*
X1014Y565D01*
D02*
X248Y617D02*
X656Y629D01*
D02*
X251Y623D02*
X248Y617D01*
D02*
X984Y105D02*
X984Y144D01*
D02*
X160Y617D02*
X296Y761D01*
D02*
X296Y137D02*
X296Y353D01*
D02*
X128Y137D02*
X296Y137D01*
D02*
X132Y161D02*
X128Y137D01*
D02*
X680Y785D02*
X1014Y722D01*
D02*
X536Y785D02*
X680Y785D01*
D02*
X536Y761D02*
X536Y785D01*
D02*
X296Y761D02*
X536Y761D01*
D02*
X320Y377D02*
X630Y399D01*
D02*
X296Y353D02*
X320Y377D01*
D02*
X80Y545D02*
X80Y641D01*
D02*
X113Y515D02*
X80Y545D01*
D02*
X464Y809D02*
X515Y949D01*
D02*
X260Y807D02*
X464Y809D01*
D02*
X80Y641D02*
X260Y807D01*
D02*
X878Y937D02*
X954Y1008D01*
D02*
X515Y949D02*
X878Y937D01*
D02*
X32Y681D02*
X244Y851D01*
D02*
X417Y859D02*
X425Y1012D01*
D02*
X244Y851D02*
X417Y859D01*
D02*
X32Y473D02*
X32Y681D01*
D02*
X111Y413D02*
X32Y473D01*
D02*
X344Y89D02*
X728Y329D01*
D02*
X80Y89D02*
X344Y89D01*
D02*
X80Y257D02*
X80Y89D01*
D02*
X110Y276D02*
X80Y257D01*
D02*
X425Y1012D02*
X630Y1029D01*
D02*
X1134Y464D02*
X1136Y617D01*
D02*
X752Y473D02*
X1134Y464D01*
D02*
X728Y329D02*
X752Y473D01*
D02*
X1136Y617D02*
X627Y710D01*
D02*
X267Y508D02*
X375Y561D01*
D02*
X815Y148D02*
X815Y109D01*
G04 End of Copper0*
M02*