G04 MADE WITH FRITZING*
G04 WWW.FRITZING.ORG*
G04 DOUBLE SIDED*
G04 HOLES PLATED*
G04 CONTOUR ON CENTER OF CONTOUR VECTOR*
%ASAXBY*%
%FSLAX23Y23*%
%MOIN*%
%OFA0B0*%
%SFA1.0B1.0*%
%ADD10C,0.010000*%
%ADD11C,0.012500*%
%ADD12R,0.001000X0.001000*%
%LNSILK0*%
G90*
G70*
G54D10*
X934Y25D02*
X934Y225D01*
D02*
X934Y225D02*
X1034Y225D01*
D02*
X1034Y225D02*
X1034Y25D01*
D02*
X1034Y25D02*
X934Y25D01*
D02*
X765Y29D02*
X765Y229D01*
D02*
X765Y229D02*
X865Y229D01*
D02*
X865Y229D02*
X865Y29D01*
D02*
X865Y29D02*
X765Y29D01*
G54D11*
X20Y311D02*
X20Y476D01*
X75Y476D01*
X75Y311D01*
X20Y311D01*
D02*
G54D12*
X0Y1181D02*
X1219Y1181D01*
X0Y1180D02*
X1219Y1180D01*
X0Y1179D02*
X1219Y1179D01*
X0Y1178D02*
X1219Y1178D01*
X0Y1177D02*
X1219Y1177D01*
X0Y1176D02*
X1219Y1176D01*
X0Y1175D02*
X1219Y1175D01*
X0Y1174D02*
X1219Y1174D01*
X0Y1173D02*
X7Y1173D01*
X1212Y1173D02*
X1219Y1173D01*
X0Y1172D02*
X7Y1172D01*
X1212Y1172D02*
X1219Y1172D01*
X0Y1171D02*
X7Y1171D01*
X1212Y1171D02*
X1219Y1171D01*
X0Y1170D02*
X7Y1170D01*
X1212Y1170D02*
X1219Y1170D01*
X0Y1169D02*
X7Y1169D01*
X1212Y1169D02*
X1219Y1169D01*
X0Y1168D02*
X7Y1168D01*
X1212Y1168D02*
X1219Y1168D01*
X0Y1167D02*
X7Y1167D01*
X1212Y1167D02*
X1219Y1167D01*
X0Y1166D02*
X7Y1166D01*
X1212Y1166D02*
X1219Y1166D01*
X0Y1165D02*
X7Y1165D01*
X1212Y1165D02*
X1219Y1165D01*
X0Y1164D02*
X7Y1164D01*
X1212Y1164D02*
X1219Y1164D01*
X0Y1163D02*
X7Y1163D01*
X1212Y1163D02*
X1219Y1163D01*
X0Y1162D02*
X7Y1162D01*
X1212Y1162D02*
X1219Y1162D01*
X0Y1161D02*
X7Y1161D01*
X1212Y1161D02*
X1219Y1161D01*
X0Y1160D02*
X7Y1160D01*
X1212Y1160D02*
X1219Y1160D01*
X0Y1159D02*
X7Y1159D01*
X1212Y1159D02*
X1219Y1159D01*
X0Y1158D02*
X7Y1158D01*
X1212Y1158D02*
X1219Y1158D01*
X0Y1157D02*
X7Y1157D01*
X1212Y1157D02*
X1219Y1157D01*
X0Y1156D02*
X7Y1156D01*
X1212Y1156D02*
X1219Y1156D01*
X0Y1155D02*
X7Y1155D01*
X1212Y1155D02*
X1219Y1155D01*
X0Y1154D02*
X7Y1154D01*
X1212Y1154D02*
X1219Y1154D01*
X0Y1153D02*
X7Y1153D01*
X1212Y1153D02*
X1219Y1153D01*
X0Y1152D02*
X7Y1152D01*
X1212Y1152D02*
X1219Y1152D01*
X0Y1151D02*
X7Y1151D01*
X1212Y1151D02*
X1219Y1151D01*
X0Y1150D02*
X7Y1150D01*
X1212Y1150D02*
X1219Y1150D01*
X0Y1149D02*
X7Y1149D01*
X1212Y1149D02*
X1219Y1149D01*
X0Y1148D02*
X7Y1148D01*
X1212Y1148D02*
X1219Y1148D01*
X0Y1147D02*
X7Y1147D01*
X1212Y1147D02*
X1219Y1147D01*
X0Y1146D02*
X7Y1146D01*
X1212Y1146D02*
X1219Y1146D01*
X0Y1145D02*
X7Y1145D01*
X1212Y1145D02*
X1219Y1145D01*
X0Y1144D02*
X7Y1144D01*
X1212Y1144D02*
X1219Y1144D01*
X0Y1143D02*
X7Y1143D01*
X1212Y1143D02*
X1219Y1143D01*
X0Y1142D02*
X7Y1142D01*
X1212Y1142D02*
X1219Y1142D01*
X0Y1141D02*
X7Y1141D01*
X1212Y1141D02*
X1219Y1141D01*
X0Y1140D02*
X7Y1140D01*
X1212Y1140D02*
X1219Y1140D01*
X0Y1139D02*
X7Y1139D01*
X1212Y1139D02*
X1219Y1139D01*
X0Y1138D02*
X7Y1138D01*
X1212Y1138D02*
X1219Y1138D01*
X0Y1137D02*
X7Y1137D01*
X1212Y1137D02*
X1219Y1137D01*
X0Y1136D02*
X7Y1136D01*
X1212Y1136D02*
X1219Y1136D01*
X0Y1135D02*
X7Y1135D01*
X1212Y1135D02*
X1219Y1135D01*
X0Y1134D02*
X7Y1134D01*
X1212Y1134D02*
X1219Y1134D01*
X0Y1133D02*
X7Y1133D01*
X1212Y1133D02*
X1219Y1133D01*
X0Y1132D02*
X7Y1132D01*
X1212Y1132D02*
X1219Y1132D01*
X0Y1131D02*
X7Y1131D01*
X1212Y1131D02*
X1219Y1131D01*
X0Y1130D02*
X7Y1130D01*
X1212Y1130D02*
X1219Y1130D01*
X0Y1129D02*
X7Y1129D01*
X1212Y1129D02*
X1219Y1129D01*
X0Y1128D02*
X7Y1128D01*
X1212Y1128D02*
X1219Y1128D01*
X0Y1127D02*
X7Y1127D01*
X1212Y1127D02*
X1219Y1127D01*
X0Y1126D02*
X7Y1126D01*
X1212Y1126D02*
X1219Y1126D01*
X0Y1125D02*
X7Y1125D01*
X1212Y1125D02*
X1219Y1125D01*
X0Y1124D02*
X7Y1124D01*
X1212Y1124D02*
X1219Y1124D01*
X0Y1123D02*
X7Y1123D01*
X1212Y1123D02*
X1219Y1123D01*
X0Y1122D02*
X7Y1122D01*
X1212Y1122D02*
X1219Y1122D01*
X0Y1121D02*
X7Y1121D01*
X1212Y1121D02*
X1219Y1121D01*
X0Y1120D02*
X7Y1120D01*
X1212Y1120D02*
X1219Y1120D01*
X0Y1119D02*
X7Y1119D01*
X1212Y1119D02*
X1219Y1119D01*
X0Y1118D02*
X7Y1118D01*
X1212Y1118D02*
X1219Y1118D01*
X0Y1117D02*
X7Y1117D01*
X1212Y1117D02*
X1219Y1117D01*
X0Y1116D02*
X7Y1116D01*
X1212Y1116D02*
X1219Y1116D01*
X0Y1115D02*
X7Y1115D01*
X1212Y1115D02*
X1219Y1115D01*
X0Y1114D02*
X7Y1114D01*
X1212Y1114D02*
X1219Y1114D01*
X0Y1113D02*
X7Y1113D01*
X1212Y1113D02*
X1219Y1113D01*
X0Y1112D02*
X7Y1112D01*
X1212Y1112D02*
X1219Y1112D01*
X0Y1111D02*
X7Y1111D01*
X1212Y1111D02*
X1219Y1111D01*
X0Y1110D02*
X7Y1110D01*
X1212Y1110D02*
X1219Y1110D01*
X0Y1109D02*
X7Y1109D01*
X1212Y1109D02*
X1219Y1109D01*
X0Y1108D02*
X7Y1108D01*
X1212Y1108D02*
X1219Y1108D01*
X0Y1107D02*
X7Y1107D01*
X1212Y1107D02*
X1219Y1107D01*
X0Y1106D02*
X7Y1106D01*
X1212Y1106D02*
X1219Y1106D01*
X0Y1105D02*
X7Y1105D01*
X1212Y1105D02*
X1219Y1105D01*
X0Y1104D02*
X7Y1104D01*
X1212Y1104D02*
X1219Y1104D01*
X0Y1103D02*
X7Y1103D01*
X1212Y1103D02*
X1219Y1103D01*
X0Y1102D02*
X7Y1102D01*
X1212Y1102D02*
X1219Y1102D01*
X0Y1101D02*
X7Y1101D01*
X1212Y1101D02*
X1219Y1101D01*
X0Y1100D02*
X7Y1100D01*
X1212Y1100D02*
X1219Y1100D01*
X0Y1099D02*
X7Y1099D01*
X1212Y1099D02*
X1219Y1099D01*
X0Y1098D02*
X7Y1098D01*
X1212Y1098D02*
X1219Y1098D01*
X0Y1097D02*
X7Y1097D01*
X1212Y1097D02*
X1219Y1097D01*
X0Y1096D02*
X7Y1096D01*
X1212Y1096D02*
X1219Y1096D01*
X0Y1095D02*
X7Y1095D01*
X1212Y1095D02*
X1219Y1095D01*
X0Y1094D02*
X7Y1094D01*
X1212Y1094D02*
X1219Y1094D01*
X0Y1093D02*
X7Y1093D01*
X1212Y1093D02*
X1219Y1093D01*
X0Y1092D02*
X7Y1092D01*
X1212Y1092D02*
X1219Y1092D01*
X0Y1091D02*
X7Y1091D01*
X1212Y1091D02*
X1219Y1091D01*
X0Y1090D02*
X7Y1090D01*
X1212Y1090D02*
X1219Y1090D01*
X0Y1089D02*
X7Y1089D01*
X1212Y1089D02*
X1219Y1089D01*
X0Y1088D02*
X7Y1088D01*
X1212Y1088D02*
X1219Y1088D01*
X0Y1087D02*
X7Y1087D01*
X1212Y1087D02*
X1219Y1087D01*
X0Y1086D02*
X7Y1086D01*
X1212Y1086D02*
X1219Y1086D01*
X0Y1085D02*
X7Y1085D01*
X1212Y1085D02*
X1219Y1085D01*
X0Y1084D02*
X7Y1084D01*
X1212Y1084D02*
X1219Y1084D01*
X0Y1083D02*
X7Y1083D01*
X1212Y1083D02*
X1219Y1083D01*
X0Y1082D02*
X7Y1082D01*
X1212Y1082D02*
X1219Y1082D01*
X0Y1081D02*
X7Y1081D01*
X1212Y1081D02*
X1219Y1081D01*
X0Y1080D02*
X7Y1080D01*
X1212Y1080D02*
X1219Y1080D01*
X0Y1079D02*
X7Y1079D01*
X1212Y1079D02*
X1219Y1079D01*
X0Y1078D02*
X7Y1078D01*
X1212Y1078D02*
X1219Y1078D01*
X0Y1077D02*
X7Y1077D01*
X1212Y1077D02*
X1219Y1077D01*
X0Y1076D02*
X7Y1076D01*
X1212Y1076D02*
X1219Y1076D01*
X0Y1075D02*
X7Y1075D01*
X1212Y1075D02*
X1219Y1075D01*
X0Y1074D02*
X7Y1074D01*
X1212Y1074D02*
X1219Y1074D01*
X0Y1073D02*
X7Y1073D01*
X1212Y1073D02*
X1219Y1073D01*
X0Y1072D02*
X7Y1072D01*
X1212Y1072D02*
X1219Y1072D01*
X0Y1071D02*
X7Y1071D01*
X1212Y1071D02*
X1219Y1071D01*
X0Y1070D02*
X7Y1070D01*
X1212Y1070D02*
X1219Y1070D01*
X0Y1069D02*
X7Y1069D01*
X1212Y1069D02*
X1219Y1069D01*
X0Y1068D02*
X7Y1068D01*
X1212Y1068D02*
X1219Y1068D01*
X0Y1067D02*
X7Y1067D01*
X1212Y1067D02*
X1219Y1067D01*
X0Y1066D02*
X7Y1066D01*
X1212Y1066D02*
X1219Y1066D01*
X0Y1065D02*
X7Y1065D01*
X1212Y1065D02*
X1219Y1065D01*
X0Y1064D02*
X7Y1064D01*
X1212Y1064D02*
X1219Y1064D01*
X0Y1063D02*
X7Y1063D01*
X1212Y1063D02*
X1219Y1063D01*
X0Y1062D02*
X7Y1062D01*
X1212Y1062D02*
X1219Y1062D01*
X0Y1061D02*
X7Y1061D01*
X1212Y1061D02*
X1219Y1061D01*
X0Y1060D02*
X7Y1060D01*
X1212Y1060D02*
X1219Y1060D01*
X0Y1059D02*
X7Y1059D01*
X1212Y1059D02*
X1219Y1059D01*
X0Y1058D02*
X7Y1058D01*
X1212Y1058D02*
X1219Y1058D01*
X0Y1057D02*
X7Y1057D01*
X1212Y1057D02*
X1219Y1057D01*
X0Y1056D02*
X7Y1056D01*
X1212Y1056D02*
X1219Y1056D01*
X0Y1055D02*
X7Y1055D01*
X1212Y1055D02*
X1219Y1055D01*
X0Y1054D02*
X7Y1054D01*
X1212Y1054D02*
X1219Y1054D01*
X0Y1053D02*
X7Y1053D01*
X1212Y1053D02*
X1219Y1053D01*
X0Y1052D02*
X7Y1052D01*
X1212Y1052D02*
X1219Y1052D01*
X0Y1051D02*
X7Y1051D01*
X1212Y1051D02*
X1219Y1051D01*
X0Y1050D02*
X7Y1050D01*
X1212Y1050D02*
X1219Y1050D01*
X0Y1049D02*
X7Y1049D01*
X1212Y1049D02*
X1219Y1049D01*
X0Y1048D02*
X7Y1048D01*
X1212Y1048D02*
X1219Y1048D01*
X0Y1047D02*
X7Y1047D01*
X1212Y1047D02*
X1219Y1047D01*
X0Y1046D02*
X7Y1046D01*
X1212Y1046D02*
X1219Y1046D01*
X0Y1045D02*
X7Y1045D01*
X1212Y1045D02*
X1219Y1045D01*
X0Y1044D02*
X7Y1044D01*
X1212Y1044D02*
X1219Y1044D01*
X0Y1043D02*
X7Y1043D01*
X1212Y1043D02*
X1219Y1043D01*
X0Y1042D02*
X7Y1042D01*
X1212Y1042D02*
X1219Y1042D01*
X0Y1041D02*
X7Y1041D01*
X1212Y1041D02*
X1219Y1041D01*
X0Y1040D02*
X7Y1040D01*
X1212Y1040D02*
X1219Y1040D01*
X0Y1039D02*
X7Y1039D01*
X1212Y1039D02*
X1219Y1039D01*
X0Y1038D02*
X7Y1038D01*
X1212Y1038D02*
X1219Y1038D01*
X0Y1037D02*
X7Y1037D01*
X1212Y1037D02*
X1219Y1037D01*
X0Y1036D02*
X7Y1036D01*
X1212Y1036D02*
X1219Y1036D01*
X0Y1035D02*
X7Y1035D01*
X1212Y1035D02*
X1219Y1035D01*
X0Y1034D02*
X7Y1034D01*
X1212Y1034D02*
X1219Y1034D01*
X0Y1033D02*
X7Y1033D01*
X1212Y1033D02*
X1219Y1033D01*
X0Y1032D02*
X7Y1032D01*
X1212Y1032D02*
X1219Y1032D01*
X0Y1031D02*
X7Y1031D01*
X1212Y1031D02*
X1219Y1031D01*
X0Y1030D02*
X7Y1030D01*
X1212Y1030D02*
X1219Y1030D01*
X0Y1029D02*
X7Y1029D01*
X1212Y1029D02*
X1219Y1029D01*
X0Y1028D02*
X7Y1028D01*
X1212Y1028D02*
X1219Y1028D01*
X0Y1027D02*
X7Y1027D01*
X1212Y1027D02*
X1219Y1027D01*
X0Y1026D02*
X7Y1026D01*
X1212Y1026D02*
X1219Y1026D01*
X0Y1025D02*
X7Y1025D01*
X1212Y1025D02*
X1219Y1025D01*
X0Y1024D02*
X7Y1024D01*
X1212Y1024D02*
X1219Y1024D01*
X0Y1023D02*
X7Y1023D01*
X1212Y1023D02*
X1219Y1023D01*
X0Y1022D02*
X7Y1022D01*
X1212Y1022D02*
X1219Y1022D01*
X0Y1021D02*
X7Y1021D01*
X1212Y1021D02*
X1219Y1021D01*
X0Y1020D02*
X7Y1020D01*
X1212Y1020D02*
X1219Y1020D01*
X0Y1019D02*
X7Y1019D01*
X1212Y1019D02*
X1219Y1019D01*
X0Y1018D02*
X7Y1018D01*
X1212Y1018D02*
X1219Y1018D01*
X0Y1017D02*
X7Y1017D01*
X1212Y1017D02*
X1219Y1017D01*
X0Y1016D02*
X7Y1016D01*
X1212Y1016D02*
X1219Y1016D01*
X0Y1015D02*
X7Y1015D01*
X1212Y1015D02*
X1219Y1015D01*
X0Y1014D02*
X7Y1014D01*
X1212Y1014D02*
X1219Y1014D01*
X0Y1013D02*
X7Y1013D01*
X1212Y1013D02*
X1219Y1013D01*
X0Y1012D02*
X7Y1012D01*
X1212Y1012D02*
X1219Y1012D01*
X0Y1011D02*
X7Y1011D01*
X1212Y1011D02*
X1219Y1011D01*
X0Y1010D02*
X7Y1010D01*
X1212Y1010D02*
X1219Y1010D01*
X0Y1009D02*
X7Y1009D01*
X1212Y1009D02*
X1219Y1009D01*
X0Y1008D02*
X7Y1008D01*
X1212Y1008D02*
X1219Y1008D01*
X0Y1007D02*
X7Y1007D01*
X1212Y1007D02*
X1219Y1007D01*
X0Y1006D02*
X7Y1006D01*
X1212Y1006D02*
X1219Y1006D01*
X0Y1005D02*
X7Y1005D01*
X1212Y1005D02*
X1219Y1005D01*
X0Y1004D02*
X7Y1004D01*
X1212Y1004D02*
X1219Y1004D01*
X0Y1003D02*
X7Y1003D01*
X1212Y1003D02*
X1219Y1003D01*
X0Y1002D02*
X7Y1002D01*
X1212Y1002D02*
X1219Y1002D01*
X0Y1001D02*
X7Y1001D01*
X1212Y1001D02*
X1219Y1001D01*
X0Y1000D02*
X7Y1000D01*
X1212Y1000D02*
X1219Y1000D01*
X0Y999D02*
X7Y999D01*
X1212Y999D02*
X1219Y999D01*
X0Y998D02*
X7Y998D01*
X1212Y998D02*
X1219Y998D01*
X0Y997D02*
X7Y997D01*
X1212Y997D02*
X1219Y997D01*
X0Y996D02*
X7Y996D01*
X1212Y996D02*
X1219Y996D01*
X0Y995D02*
X7Y995D01*
X1212Y995D02*
X1219Y995D01*
X0Y994D02*
X7Y994D01*
X1212Y994D02*
X1219Y994D01*
X0Y993D02*
X7Y993D01*
X1212Y993D02*
X1219Y993D01*
X0Y992D02*
X7Y992D01*
X1212Y992D02*
X1219Y992D01*
X0Y991D02*
X7Y991D01*
X1212Y991D02*
X1219Y991D01*
X0Y990D02*
X7Y990D01*
X1212Y990D02*
X1219Y990D01*
X0Y989D02*
X7Y989D01*
X1212Y989D02*
X1219Y989D01*
X0Y988D02*
X7Y988D01*
X1212Y988D02*
X1219Y988D01*
X0Y987D02*
X7Y987D01*
X1212Y987D02*
X1219Y987D01*
X0Y986D02*
X7Y986D01*
X1212Y986D02*
X1219Y986D01*
X0Y985D02*
X7Y985D01*
X1212Y985D02*
X1219Y985D01*
X0Y984D02*
X7Y984D01*
X1212Y984D02*
X1219Y984D01*
X0Y983D02*
X7Y983D01*
X1212Y983D02*
X1219Y983D01*
X0Y982D02*
X7Y982D01*
X1212Y982D02*
X1219Y982D01*
X0Y981D02*
X7Y981D01*
X1212Y981D02*
X1219Y981D01*
X0Y980D02*
X7Y980D01*
X1212Y980D02*
X1219Y980D01*
X0Y979D02*
X7Y979D01*
X1212Y979D02*
X1219Y979D01*
X0Y978D02*
X7Y978D01*
X1212Y978D02*
X1219Y978D01*
X0Y977D02*
X7Y977D01*
X1212Y977D02*
X1219Y977D01*
X0Y976D02*
X7Y976D01*
X1212Y976D02*
X1219Y976D01*
X0Y975D02*
X7Y975D01*
X1212Y975D02*
X1219Y975D01*
X0Y974D02*
X7Y974D01*
X1212Y974D02*
X1219Y974D01*
X0Y973D02*
X7Y973D01*
X1212Y973D02*
X1219Y973D01*
X0Y972D02*
X7Y972D01*
X1212Y972D02*
X1219Y972D01*
X0Y971D02*
X7Y971D01*
X1212Y971D02*
X1219Y971D01*
X0Y970D02*
X7Y970D01*
X1212Y970D02*
X1219Y970D01*
X0Y969D02*
X7Y969D01*
X1212Y969D02*
X1219Y969D01*
X0Y968D02*
X7Y968D01*
X1212Y968D02*
X1219Y968D01*
X0Y967D02*
X7Y967D01*
X1212Y967D02*
X1219Y967D01*
X0Y966D02*
X7Y966D01*
X1212Y966D02*
X1219Y966D01*
X0Y965D02*
X7Y965D01*
X1212Y965D02*
X1219Y965D01*
X0Y964D02*
X7Y964D01*
X1212Y964D02*
X1219Y964D01*
X0Y963D02*
X7Y963D01*
X1212Y963D02*
X1219Y963D01*
X0Y962D02*
X7Y962D01*
X1212Y962D02*
X1219Y962D01*
X0Y961D02*
X7Y961D01*
X1212Y961D02*
X1219Y961D01*
X0Y960D02*
X7Y960D01*
X1212Y960D02*
X1219Y960D01*
X0Y959D02*
X7Y959D01*
X1212Y959D02*
X1219Y959D01*
X0Y958D02*
X7Y958D01*
X1212Y958D02*
X1219Y958D01*
X0Y957D02*
X7Y957D01*
X1212Y957D02*
X1219Y957D01*
X0Y956D02*
X7Y956D01*
X1212Y956D02*
X1219Y956D01*
X0Y955D02*
X7Y955D01*
X1212Y955D02*
X1219Y955D01*
X0Y954D02*
X7Y954D01*
X1212Y954D02*
X1219Y954D01*
X0Y953D02*
X7Y953D01*
X1212Y953D02*
X1219Y953D01*
X0Y952D02*
X7Y952D01*
X1212Y952D02*
X1219Y952D01*
X0Y951D02*
X7Y951D01*
X1212Y951D02*
X1219Y951D01*
X0Y950D02*
X7Y950D01*
X1212Y950D02*
X1219Y950D01*
X0Y949D02*
X7Y949D01*
X1212Y949D02*
X1219Y949D01*
X0Y948D02*
X7Y948D01*
X1212Y948D02*
X1219Y948D01*
X0Y947D02*
X7Y947D01*
X1212Y947D02*
X1219Y947D01*
X0Y946D02*
X7Y946D01*
X1212Y946D02*
X1219Y946D01*
X0Y945D02*
X7Y945D01*
X1212Y945D02*
X1219Y945D01*
X0Y944D02*
X7Y944D01*
X1212Y944D02*
X1219Y944D01*
X0Y943D02*
X7Y943D01*
X1212Y943D02*
X1219Y943D01*
X0Y942D02*
X7Y942D01*
X1212Y942D02*
X1219Y942D01*
X0Y941D02*
X7Y941D01*
X1212Y941D02*
X1219Y941D01*
X0Y940D02*
X7Y940D01*
X1212Y940D02*
X1219Y940D01*
X0Y939D02*
X7Y939D01*
X1212Y939D02*
X1219Y939D01*
X0Y938D02*
X7Y938D01*
X1212Y938D02*
X1219Y938D01*
X0Y937D02*
X7Y937D01*
X1212Y937D02*
X1219Y937D01*
X0Y936D02*
X7Y936D01*
X1212Y936D02*
X1219Y936D01*
X0Y935D02*
X7Y935D01*
X1212Y935D02*
X1219Y935D01*
X0Y934D02*
X7Y934D01*
X1212Y934D02*
X1219Y934D01*
X0Y933D02*
X7Y933D01*
X1212Y933D02*
X1219Y933D01*
X0Y932D02*
X7Y932D01*
X1212Y932D02*
X1219Y932D01*
X0Y931D02*
X7Y931D01*
X1212Y931D02*
X1219Y931D01*
X0Y930D02*
X7Y930D01*
X1212Y930D02*
X1219Y930D01*
X0Y929D02*
X7Y929D01*
X1212Y929D02*
X1219Y929D01*
X0Y928D02*
X7Y928D01*
X1212Y928D02*
X1219Y928D01*
X0Y927D02*
X7Y927D01*
X1212Y927D02*
X1219Y927D01*
X0Y926D02*
X7Y926D01*
X1212Y926D02*
X1219Y926D01*
X0Y925D02*
X7Y925D01*
X1212Y925D02*
X1219Y925D01*
X0Y924D02*
X7Y924D01*
X1212Y924D02*
X1219Y924D01*
X0Y923D02*
X7Y923D01*
X1212Y923D02*
X1219Y923D01*
X0Y922D02*
X7Y922D01*
X1212Y922D02*
X1219Y922D01*
X0Y921D02*
X7Y921D01*
X1212Y921D02*
X1219Y921D01*
X0Y920D02*
X7Y920D01*
X1212Y920D02*
X1219Y920D01*
X0Y919D02*
X7Y919D01*
X1212Y919D02*
X1219Y919D01*
X0Y918D02*
X7Y918D01*
X1212Y918D02*
X1219Y918D01*
X0Y917D02*
X7Y917D01*
X1212Y917D02*
X1219Y917D01*
X0Y916D02*
X7Y916D01*
X1212Y916D02*
X1219Y916D01*
X0Y915D02*
X7Y915D01*
X1212Y915D02*
X1219Y915D01*
X0Y914D02*
X7Y914D01*
X1212Y914D02*
X1219Y914D01*
X0Y913D02*
X7Y913D01*
X1212Y913D02*
X1219Y913D01*
X0Y912D02*
X7Y912D01*
X1212Y912D02*
X1219Y912D01*
X0Y911D02*
X7Y911D01*
X1212Y911D02*
X1219Y911D01*
X0Y910D02*
X7Y910D01*
X1212Y910D02*
X1219Y910D01*
X0Y909D02*
X7Y909D01*
X1212Y909D02*
X1219Y909D01*
X0Y908D02*
X7Y908D01*
X1212Y908D02*
X1219Y908D01*
X0Y907D02*
X7Y907D01*
X1212Y907D02*
X1219Y907D01*
X0Y906D02*
X7Y906D01*
X1212Y906D02*
X1219Y906D01*
X0Y905D02*
X7Y905D01*
X1212Y905D02*
X1219Y905D01*
X0Y904D02*
X7Y904D01*
X1212Y904D02*
X1219Y904D01*
X0Y903D02*
X7Y903D01*
X1212Y903D02*
X1219Y903D01*
X0Y902D02*
X7Y902D01*
X1212Y902D02*
X1219Y902D01*
X0Y901D02*
X7Y901D01*
X1212Y901D02*
X1219Y901D01*
X0Y900D02*
X7Y900D01*
X1212Y900D02*
X1219Y900D01*
X0Y899D02*
X7Y899D01*
X1212Y899D02*
X1219Y899D01*
X0Y898D02*
X7Y898D01*
X1212Y898D02*
X1219Y898D01*
X0Y897D02*
X7Y897D01*
X1212Y897D02*
X1219Y897D01*
X0Y896D02*
X7Y896D01*
X1212Y896D02*
X1219Y896D01*
X0Y895D02*
X7Y895D01*
X1212Y895D02*
X1219Y895D01*
X0Y894D02*
X7Y894D01*
X1212Y894D02*
X1219Y894D01*
X0Y893D02*
X7Y893D01*
X1212Y893D02*
X1219Y893D01*
X0Y892D02*
X7Y892D01*
X1212Y892D02*
X1219Y892D01*
X0Y891D02*
X7Y891D01*
X1212Y891D02*
X1219Y891D01*
X0Y890D02*
X7Y890D01*
X1212Y890D02*
X1219Y890D01*
X0Y889D02*
X7Y889D01*
X1212Y889D02*
X1219Y889D01*
X0Y888D02*
X7Y888D01*
X1212Y888D02*
X1219Y888D01*
X0Y887D02*
X7Y887D01*
X1212Y887D02*
X1219Y887D01*
X0Y886D02*
X7Y886D01*
X1212Y886D02*
X1219Y886D01*
X0Y885D02*
X7Y885D01*
X1212Y885D02*
X1219Y885D01*
X0Y884D02*
X7Y884D01*
X1212Y884D02*
X1219Y884D01*
X0Y883D02*
X7Y883D01*
X1212Y883D02*
X1219Y883D01*
X0Y882D02*
X7Y882D01*
X1212Y882D02*
X1219Y882D01*
X0Y881D02*
X7Y881D01*
X1212Y881D02*
X1219Y881D01*
X0Y880D02*
X7Y880D01*
X1212Y880D02*
X1219Y880D01*
X0Y879D02*
X7Y879D01*
X1212Y879D02*
X1219Y879D01*
X0Y878D02*
X7Y878D01*
X1212Y878D02*
X1219Y878D01*
X0Y877D02*
X7Y877D01*
X1212Y877D02*
X1219Y877D01*
X0Y876D02*
X7Y876D01*
X44Y876D02*
X61Y876D01*
X88Y876D02*
X113Y876D01*
X136Y876D02*
X137Y876D01*
X1212Y876D02*
X1219Y876D01*
X0Y875D02*
X7Y875D01*
X44Y875D02*
X63Y875D01*
X85Y875D02*
X113Y875D01*
X134Y875D02*
X138Y875D01*
X1212Y875D02*
X1219Y875D01*
X0Y874D02*
X7Y874D01*
X44Y874D02*
X63Y874D01*
X84Y874D02*
X113Y874D01*
X134Y874D02*
X139Y874D01*
X1212Y874D02*
X1219Y874D01*
X0Y873D02*
X7Y873D01*
X44Y873D02*
X63Y873D01*
X83Y873D02*
X113Y873D01*
X133Y873D02*
X139Y873D01*
X1212Y873D02*
X1219Y873D01*
X0Y872D02*
X7Y872D01*
X44Y872D02*
X63Y872D01*
X82Y872D02*
X113Y872D01*
X133Y872D02*
X139Y872D01*
X1212Y872D02*
X1219Y872D01*
X0Y871D02*
X7Y871D01*
X44Y871D02*
X63Y871D01*
X81Y871D02*
X113Y871D01*
X133Y871D02*
X139Y871D01*
X1212Y871D02*
X1219Y871D01*
X0Y870D02*
X7Y870D01*
X44Y870D02*
X62Y870D01*
X81Y870D02*
X113Y870D01*
X133Y870D02*
X139Y870D01*
X1212Y870D02*
X1219Y870D01*
X0Y869D02*
X7Y869D01*
X44Y869D02*
X50Y869D01*
X80Y869D02*
X88Y869D01*
X107Y869D02*
X113Y869D01*
X133Y869D02*
X139Y869D01*
X1212Y869D02*
X1219Y869D01*
X0Y868D02*
X7Y868D01*
X44Y868D02*
X50Y868D01*
X80Y868D02*
X87Y868D01*
X107Y868D02*
X113Y868D01*
X133Y868D02*
X139Y868D01*
X1212Y868D02*
X1219Y868D01*
X0Y867D02*
X7Y867D01*
X44Y867D02*
X50Y867D01*
X80Y867D02*
X86Y867D01*
X107Y867D02*
X113Y867D01*
X133Y867D02*
X139Y867D01*
X1212Y867D02*
X1219Y867D01*
X0Y866D02*
X7Y866D01*
X44Y866D02*
X50Y866D01*
X80Y866D02*
X86Y866D01*
X107Y866D02*
X113Y866D01*
X133Y866D02*
X139Y866D01*
X1212Y866D02*
X1219Y866D01*
X0Y865D02*
X7Y865D01*
X44Y865D02*
X50Y865D01*
X80Y865D02*
X86Y865D01*
X107Y865D02*
X113Y865D01*
X133Y865D02*
X139Y865D01*
X1212Y865D02*
X1219Y865D01*
X0Y864D02*
X7Y864D01*
X44Y864D02*
X50Y864D01*
X80Y864D02*
X86Y864D01*
X107Y864D02*
X113Y864D01*
X133Y864D02*
X139Y864D01*
X1212Y864D02*
X1219Y864D01*
X0Y863D02*
X7Y863D01*
X44Y863D02*
X50Y863D01*
X80Y863D02*
X86Y863D01*
X107Y863D02*
X113Y863D01*
X133Y863D02*
X139Y863D01*
X1212Y863D02*
X1219Y863D01*
X0Y862D02*
X7Y862D01*
X44Y862D02*
X50Y862D01*
X80Y862D02*
X86Y862D01*
X107Y862D02*
X113Y862D01*
X133Y862D02*
X139Y862D01*
X1212Y862D02*
X1219Y862D01*
X0Y861D02*
X7Y861D01*
X44Y861D02*
X50Y861D01*
X80Y861D02*
X86Y861D01*
X107Y861D02*
X113Y861D01*
X133Y861D02*
X139Y861D01*
X1212Y861D02*
X1219Y861D01*
X0Y860D02*
X7Y860D01*
X44Y860D02*
X50Y860D01*
X80Y860D02*
X86Y860D01*
X107Y860D02*
X113Y860D01*
X133Y860D02*
X139Y860D01*
X1212Y860D02*
X1219Y860D01*
X0Y859D02*
X7Y859D01*
X44Y859D02*
X50Y859D01*
X80Y859D02*
X86Y859D01*
X107Y859D02*
X113Y859D01*
X133Y859D02*
X139Y859D01*
X1212Y859D02*
X1219Y859D01*
X0Y858D02*
X7Y858D01*
X44Y858D02*
X50Y858D01*
X80Y858D02*
X86Y858D01*
X107Y858D02*
X113Y858D01*
X133Y858D02*
X139Y858D01*
X1212Y858D02*
X1219Y858D01*
X0Y857D02*
X7Y857D01*
X44Y857D02*
X50Y857D01*
X80Y857D02*
X86Y857D01*
X107Y857D02*
X113Y857D01*
X133Y857D02*
X139Y857D01*
X1212Y857D02*
X1219Y857D01*
X0Y856D02*
X7Y856D01*
X44Y856D02*
X50Y856D01*
X80Y856D02*
X86Y856D01*
X107Y856D02*
X113Y856D01*
X133Y856D02*
X139Y856D01*
X1212Y856D02*
X1219Y856D01*
X0Y855D02*
X7Y855D01*
X44Y855D02*
X50Y855D01*
X80Y855D02*
X86Y855D01*
X107Y855D02*
X113Y855D01*
X133Y855D02*
X139Y855D01*
X1212Y855D02*
X1219Y855D01*
X0Y854D02*
X7Y854D01*
X44Y854D02*
X50Y854D01*
X80Y854D02*
X86Y854D01*
X107Y854D02*
X113Y854D01*
X133Y854D02*
X139Y854D01*
X1212Y854D02*
X1219Y854D01*
X0Y853D02*
X7Y853D01*
X44Y853D02*
X50Y853D01*
X80Y853D02*
X86Y853D01*
X107Y853D02*
X113Y853D01*
X133Y853D02*
X139Y853D01*
X1212Y853D02*
X1219Y853D01*
X0Y852D02*
X7Y852D01*
X44Y852D02*
X50Y852D01*
X80Y852D02*
X86Y852D01*
X107Y852D02*
X113Y852D01*
X133Y852D02*
X139Y852D01*
X1212Y852D02*
X1219Y852D01*
X0Y851D02*
X7Y851D01*
X44Y851D02*
X50Y851D01*
X80Y851D02*
X87Y851D01*
X107Y851D02*
X113Y851D01*
X133Y851D02*
X139Y851D01*
X1212Y851D02*
X1219Y851D01*
X0Y850D02*
X7Y850D01*
X44Y850D02*
X50Y850D01*
X80Y850D02*
X88Y850D01*
X107Y850D02*
X113Y850D01*
X133Y850D02*
X139Y850D01*
X1212Y850D02*
X1219Y850D01*
X0Y849D02*
X7Y849D01*
X44Y849D02*
X50Y849D01*
X81Y849D02*
X113Y849D01*
X133Y849D02*
X139Y849D01*
X1212Y849D02*
X1219Y849D01*
X0Y848D02*
X7Y848D01*
X44Y848D02*
X50Y848D01*
X81Y848D02*
X113Y848D01*
X133Y848D02*
X139Y848D01*
X1212Y848D02*
X1219Y848D01*
X0Y847D02*
X7Y847D01*
X44Y847D02*
X50Y847D01*
X82Y847D02*
X113Y847D01*
X133Y847D02*
X139Y847D01*
X1212Y847D02*
X1219Y847D01*
X0Y846D02*
X7Y846D01*
X31Y846D02*
X35Y846D01*
X44Y846D02*
X50Y846D01*
X83Y846D02*
X113Y846D01*
X133Y846D02*
X139Y846D01*
X155Y846D02*
X159Y846D01*
X1212Y846D02*
X1219Y846D01*
X0Y845D02*
X7Y845D01*
X30Y845D02*
X35Y845D01*
X44Y845D02*
X50Y845D01*
X84Y845D02*
X113Y845D01*
X133Y845D02*
X139Y845D01*
X154Y845D02*
X159Y845D01*
X1212Y845D02*
X1219Y845D01*
X0Y844D02*
X7Y844D01*
X30Y844D02*
X36Y844D01*
X44Y844D02*
X50Y844D01*
X85Y844D02*
X113Y844D01*
X133Y844D02*
X139Y844D01*
X154Y844D02*
X160Y844D01*
X1212Y844D02*
X1219Y844D01*
X0Y843D02*
X7Y843D01*
X30Y843D02*
X36Y843D01*
X44Y843D02*
X50Y843D01*
X88Y843D02*
X113Y843D01*
X133Y843D02*
X139Y843D01*
X154Y843D02*
X160Y843D01*
X1212Y843D02*
X1219Y843D01*
X0Y842D02*
X7Y842D01*
X30Y842D02*
X36Y842D01*
X44Y842D02*
X50Y842D01*
X107Y842D02*
X113Y842D01*
X133Y842D02*
X139Y842D01*
X154Y842D02*
X160Y842D01*
X1212Y842D02*
X1219Y842D01*
X0Y841D02*
X7Y841D01*
X30Y841D02*
X36Y841D01*
X44Y841D02*
X50Y841D01*
X107Y841D02*
X113Y841D01*
X133Y841D02*
X139Y841D01*
X154Y841D02*
X160Y841D01*
X1212Y841D02*
X1219Y841D01*
X0Y840D02*
X7Y840D01*
X30Y840D02*
X36Y840D01*
X44Y840D02*
X50Y840D01*
X107Y840D02*
X113Y840D01*
X133Y840D02*
X139Y840D01*
X154Y840D02*
X160Y840D01*
X1212Y840D02*
X1219Y840D01*
X0Y839D02*
X7Y839D01*
X30Y839D02*
X36Y839D01*
X44Y839D02*
X50Y839D01*
X107Y839D02*
X113Y839D01*
X133Y839D02*
X139Y839D01*
X154Y839D02*
X160Y839D01*
X1212Y839D02*
X1219Y839D01*
X0Y838D02*
X7Y838D01*
X30Y838D02*
X36Y838D01*
X44Y838D02*
X50Y838D01*
X107Y838D02*
X113Y838D01*
X133Y838D02*
X139Y838D01*
X154Y838D02*
X160Y838D01*
X1212Y838D02*
X1219Y838D01*
X0Y837D02*
X7Y837D01*
X30Y837D02*
X36Y837D01*
X44Y837D02*
X50Y837D01*
X107Y837D02*
X113Y837D01*
X133Y837D02*
X139Y837D01*
X154Y837D02*
X160Y837D01*
X1212Y837D02*
X1219Y837D01*
X0Y836D02*
X7Y836D01*
X30Y836D02*
X36Y836D01*
X44Y836D02*
X50Y836D01*
X107Y836D02*
X113Y836D01*
X133Y836D02*
X139Y836D01*
X154Y836D02*
X160Y836D01*
X1212Y836D02*
X1219Y836D01*
X0Y835D02*
X7Y835D01*
X30Y835D02*
X36Y835D01*
X44Y835D02*
X50Y835D01*
X107Y835D02*
X113Y835D01*
X133Y835D02*
X139Y835D01*
X154Y835D02*
X160Y835D01*
X1212Y835D02*
X1219Y835D01*
X0Y834D02*
X7Y834D01*
X30Y834D02*
X36Y834D01*
X44Y834D02*
X50Y834D01*
X107Y834D02*
X113Y834D01*
X133Y834D02*
X139Y834D01*
X154Y834D02*
X160Y834D01*
X1212Y834D02*
X1219Y834D01*
X0Y833D02*
X7Y833D01*
X30Y833D02*
X36Y833D01*
X44Y833D02*
X50Y833D01*
X107Y833D02*
X113Y833D01*
X133Y833D02*
X139Y833D01*
X154Y833D02*
X160Y833D01*
X1212Y833D02*
X1219Y833D01*
X0Y832D02*
X7Y832D01*
X30Y832D02*
X36Y832D01*
X44Y832D02*
X50Y832D01*
X107Y832D02*
X113Y832D01*
X133Y832D02*
X139Y832D01*
X154Y832D02*
X160Y832D01*
X1212Y832D02*
X1219Y832D01*
X0Y831D02*
X7Y831D01*
X30Y831D02*
X36Y831D01*
X44Y831D02*
X50Y831D01*
X107Y831D02*
X113Y831D01*
X133Y831D02*
X140Y831D01*
X153Y831D02*
X160Y831D01*
X1212Y831D02*
X1219Y831D01*
X0Y830D02*
X7Y830D01*
X30Y830D02*
X36Y830D01*
X44Y830D02*
X50Y830D01*
X107Y830D02*
X113Y830D01*
X134Y830D02*
X141Y830D01*
X153Y830D02*
X160Y830D01*
X1212Y830D02*
X1219Y830D01*
X0Y829D02*
X7Y829D01*
X30Y829D02*
X61Y829D01*
X107Y829D02*
X113Y829D01*
X134Y829D02*
X159Y829D01*
X1212Y829D02*
X1219Y829D01*
X0Y828D02*
X7Y828D01*
X30Y828D02*
X62Y828D01*
X107Y828D02*
X113Y828D01*
X134Y828D02*
X159Y828D01*
X1212Y828D02*
X1219Y828D01*
X0Y827D02*
X7Y827D01*
X30Y827D02*
X63Y827D01*
X107Y827D02*
X113Y827D01*
X135Y827D02*
X158Y827D01*
X1212Y827D02*
X1219Y827D01*
X0Y826D02*
X7Y826D01*
X30Y826D02*
X63Y826D01*
X107Y826D02*
X113Y826D01*
X136Y826D02*
X158Y826D01*
X1212Y826D02*
X1219Y826D01*
X0Y825D02*
X7Y825D01*
X30Y825D02*
X63Y825D01*
X107Y825D02*
X113Y825D01*
X137Y825D02*
X157Y825D01*
X1212Y825D02*
X1219Y825D01*
X0Y824D02*
X7Y824D01*
X30Y824D02*
X63Y824D01*
X108Y824D02*
X113Y824D01*
X138Y824D02*
X155Y824D01*
X1212Y824D02*
X1219Y824D01*
X0Y823D02*
X7Y823D01*
X31Y823D02*
X62Y823D01*
X109Y823D02*
X112Y823D01*
X140Y823D02*
X154Y823D01*
X1212Y823D02*
X1219Y823D01*
X0Y822D02*
X7Y822D01*
X1212Y822D02*
X1219Y822D01*
X0Y821D02*
X7Y821D01*
X1212Y821D02*
X1219Y821D01*
X0Y820D02*
X7Y820D01*
X1212Y820D02*
X1219Y820D01*
X0Y819D02*
X7Y819D01*
X1212Y819D02*
X1219Y819D01*
X0Y818D02*
X7Y818D01*
X1212Y818D02*
X1219Y818D01*
X0Y817D02*
X7Y817D01*
X1212Y817D02*
X1219Y817D01*
X0Y816D02*
X7Y816D01*
X1212Y816D02*
X1219Y816D01*
X0Y815D02*
X7Y815D01*
X1212Y815D02*
X1219Y815D01*
X0Y814D02*
X7Y814D01*
X1212Y814D02*
X1219Y814D01*
X0Y813D02*
X7Y813D01*
X1212Y813D02*
X1219Y813D01*
X0Y812D02*
X7Y812D01*
X1212Y812D02*
X1219Y812D01*
X0Y811D02*
X7Y811D01*
X1212Y811D02*
X1219Y811D01*
X0Y810D02*
X7Y810D01*
X1212Y810D02*
X1219Y810D01*
X0Y809D02*
X7Y809D01*
X1212Y809D02*
X1219Y809D01*
X0Y808D02*
X7Y808D01*
X1212Y808D02*
X1219Y808D01*
X0Y807D02*
X7Y807D01*
X1212Y807D02*
X1219Y807D01*
X0Y806D02*
X7Y806D01*
X1212Y806D02*
X1219Y806D01*
X0Y805D02*
X7Y805D01*
X1212Y805D02*
X1219Y805D01*
X0Y804D02*
X7Y804D01*
X1212Y804D02*
X1219Y804D01*
X0Y803D02*
X7Y803D01*
X1212Y803D02*
X1219Y803D01*
X0Y802D02*
X7Y802D01*
X1212Y802D02*
X1219Y802D01*
X0Y801D02*
X7Y801D01*
X1212Y801D02*
X1219Y801D01*
X0Y800D02*
X7Y800D01*
X1212Y800D02*
X1219Y800D01*
X0Y799D02*
X7Y799D01*
X1212Y799D02*
X1219Y799D01*
X0Y798D02*
X7Y798D01*
X1212Y798D02*
X1219Y798D01*
X0Y797D02*
X7Y797D01*
X1212Y797D02*
X1219Y797D01*
X0Y796D02*
X7Y796D01*
X1212Y796D02*
X1219Y796D01*
X0Y795D02*
X7Y795D01*
X1212Y795D02*
X1219Y795D01*
X0Y794D02*
X7Y794D01*
X1212Y794D02*
X1219Y794D01*
X0Y793D02*
X7Y793D01*
X14Y793D02*
X371Y793D01*
X1212Y793D02*
X1219Y793D01*
X0Y792D02*
X7Y792D01*
X14Y792D02*
X371Y792D01*
X1212Y792D02*
X1219Y792D01*
X0Y791D02*
X7Y791D01*
X14Y791D02*
X371Y791D01*
X1212Y791D02*
X1219Y791D01*
X0Y790D02*
X7Y790D01*
X14Y790D02*
X371Y790D01*
X1212Y790D02*
X1219Y790D01*
X0Y789D02*
X7Y789D01*
X14Y789D02*
X371Y789D01*
X1212Y789D02*
X1219Y789D01*
X0Y788D02*
X7Y788D01*
X14Y788D02*
X371Y788D01*
X1212Y788D02*
X1219Y788D01*
X0Y787D02*
X7Y787D01*
X14Y787D02*
X371Y787D01*
X1212Y787D02*
X1219Y787D01*
X0Y786D02*
X7Y786D01*
X14Y786D02*
X371Y786D01*
X1212Y786D02*
X1219Y786D01*
X0Y785D02*
X7Y785D01*
X14Y785D02*
X371Y785D01*
X1212Y785D02*
X1219Y785D01*
X0Y784D02*
X7Y784D01*
X14Y784D02*
X371Y784D01*
X1212Y784D02*
X1219Y784D01*
X0Y783D02*
X7Y783D01*
X14Y783D02*
X371Y783D01*
X1212Y783D02*
X1219Y783D01*
X0Y782D02*
X7Y782D01*
X14Y782D02*
X371Y782D01*
X1212Y782D02*
X1219Y782D01*
X0Y781D02*
X7Y781D01*
X14Y781D02*
X25Y781D01*
X359Y781D02*
X371Y781D01*
X1212Y781D02*
X1219Y781D01*
X0Y780D02*
X7Y780D01*
X14Y780D02*
X25Y780D01*
X360Y780D02*
X371Y780D01*
X1212Y780D02*
X1219Y780D01*
X0Y779D02*
X7Y779D01*
X14Y779D02*
X25Y779D01*
X360Y779D02*
X371Y779D01*
X1212Y779D02*
X1219Y779D01*
X0Y778D02*
X7Y778D01*
X14Y778D02*
X25Y778D01*
X360Y778D02*
X371Y778D01*
X1212Y778D02*
X1219Y778D01*
X0Y777D02*
X7Y777D01*
X14Y777D02*
X25Y777D01*
X360Y777D02*
X371Y777D01*
X1212Y777D02*
X1219Y777D01*
X0Y776D02*
X7Y776D01*
X14Y776D02*
X25Y776D01*
X360Y776D02*
X371Y776D01*
X1212Y776D02*
X1219Y776D01*
X0Y775D02*
X7Y775D01*
X14Y775D02*
X25Y775D01*
X360Y775D02*
X371Y775D01*
X1212Y775D02*
X1219Y775D01*
X0Y774D02*
X7Y774D01*
X14Y774D02*
X25Y774D01*
X360Y774D02*
X371Y774D01*
X1212Y774D02*
X1219Y774D01*
X0Y773D02*
X7Y773D01*
X14Y773D02*
X25Y773D01*
X360Y773D02*
X371Y773D01*
X1212Y773D02*
X1219Y773D01*
X0Y772D02*
X7Y772D01*
X14Y772D02*
X25Y772D01*
X360Y772D02*
X371Y772D01*
X1212Y772D02*
X1219Y772D01*
X0Y771D02*
X7Y771D01*
X14Y771D02*
X25Y771D01*
X360Y771D02*
X371Y771D01*
X1212Y771D02*
X1219Y771D01*
X0Y770D02*
X7Y770D01*
X14Y770D02*
X25Y770D01*
X360Y770D02*
X371Y770D01*
X1212Y770D02*
X1219Y770D01*
X0Y769D02*
X7Y769D01*
X14Y769D02*
X25Y769D01*
X360Y769D02*
X371Y769D01*
X1212Y769D02*
X1219Y769D01*
X0Y768D02*
X7Y768D01*
X14Y768D02*
X25Y768D01*
X360Y768D02*
X371Y768D01*
X1212Y768D02*
X1219Y768D01*
X0Y767D02*
X7Y767D01*
X14Y767D02*
X25Y767D01*
X360Y767D02*
X371Y767D01*
X1212Y767D02*
X1219Y767D01*
X0Y766D02*
X7Y766D01*
X14Y766D02*
X25Y766D01*
X360Y766D02*
X371Y766D01*
X1212Y766D02*
X1219Y766D01*
X0Y765D02*
X7Y765D01*
X14Y765D02*
X25Y765D01*
X360Y765D02*
X371Y765D01*
X1212Y765D02*
X1219Y765D01*
X0Y764D02*
X7Y764D01*
X14Y764D02*
X25Y764D01*
X360Y764D02*
X371Y764D01*
X1212Y764D02*
X1219Y764D01*
X0Y763D02*
X7Y763D01*
X14Y763D02*
X25Y763D01*
X360Y763D02*
X371Y763D01*
X1212Y763D02*
X1219Y763D01*
X0Y762D02*
X7Y762D01*
X14Y762D02*
X25Y762D01*
X360Y762D02*
X371Y762D01*
X1212Y762D02*
X1219Y762D01*
X0Y761D02*
X7Y761D01*
X14Y761D02*
X25Y761D01*
X360Y761D02*
X371Y761D01*
X1212Y761D02*
X1219Y761D01*
X0Y760D02*
X7Y760D01*
X14Y760D02*
X25Y760D01*
X360Y760D02*
X371Y760D01*
X1212Y760D02*
X1219Y760D01*
X0Y759D02*
X7Y759D01*
X14Y759D02*
X25Y759D01*
X360Y759D02*
X371Y759D01*
X1212Y759D02*
X1219Y759D01*
X0Y758D02*
X7Y758D01*
X14Y758D02*
X25Y758D01*
X360Y758D02*
X371Y758D01*
X1212Y758D02*
X1219Y758D01*
X0Y757D02*
X7Y757D01*
X14Y757D02*
X25Y757D01*
X57Y757D02*
X328Y757D01*
X360Y757D02*
X371Y757D01*
X1212Y757D02*
X1219Y757D01*
X0Y756D02*
X7Y756D01*
X14Y756D02*
X25Y756D01*
X57Y756D02*
X328Y756D01*
X360Y756D02*
X371Y756D01*
X1212Y756D02*
X1219Y756D01*
X0Y755D02*
X7Y755D01*
X14Y755D02*
X25Y755D01*
X57Y755D02*
X328Y755D01*
X360Y755D02*
X371Y755D01*
X1212Y755D02*
X1219Y755D01*
X0Y754D02*
X7Y754D01*
X14Y754D02*
X25Y754D01*
X57Y754D02*
X328Y754D01*
X360Y754D02*
X371Y754D01*
X1212Y754D02*
X1219Y754D01*
X0Y753D02*
X7Y753D01*
X14Y753D02*
X25Y753D01*
X57Y753D02*
X328Y753D01*
X360Y753D02*
X371Y753D01*
X1212Y753D02*
X1219Y753D01*
X0Y752D02*
X7Y752D01*
X14Y752D02*
X25Y752D01*
X57Y752D02*
X328Y752D01*
X360Y752D02*
X371Y752D01*
X1212Y752D02*
X1219Y752D01*
X0Y751D02*
X7Y751D01*
X14Y751D02*
X25Y751D01*
X57Y751D02*
X328Y751D01*
X360Y751D02*
X371Y751D01*
X1212Y751D02*
X1219Y751D01*
X0Y750D02*
X7Y750D01*
X14Y750D02*
X25Y750D01*
X57Y750D02*
X328Y750D01*
X360Y750D02*
X371Y750D01*
X1212Y750D02*
X1219Y750D01*
X0Y749D02*
X7Y749D01*
X14Y749D02*
X25Y749D01*
X57Y749D02*
X328Y749D01*
X360Y749D02*
X371Y749D01*
X1212Y749D02*
X1219Y749D01*
X0Y748D02*
X7Y748D01*
X14Y748D02*
X25Y748D01*
X57Y748D02*
X328Y748D01*
X360Y748D02*
X371Y748D01*
X1212Y748D02*
X1219Y748D01*
X0Y747D02*
X7Y747D01*
X14Y747D02*
X25Y747D01*
X57Y747D02*
X328Y747D01*
X360Y747D02*
X371Y747D01*
X1212Y747D02*
X1219Y747D01*
X0Y746D02*
X7Y746D01*
X14Y746D02*
X25Y746D01*
X57Y746D02*
X328Y746D01*
X360Y746D02*
X371Y746D01*
X1212Y746D02*
X1219Y746D01*
X0Y745D02*
X7Y745D01*
X14Y745D02*
X25Y745D01*
X57Y745D02*
X328Y745D01*
X360Y745D02*
X371Y745D01*
X1212Y745D02*
X1219Y745D01*
X0Y744D02*
X7Y744D01*
X14Y744D02*
X25Y744D01*
X57Y744D02*
X68Y744D01*
X316Y744D02*
X328Y744D01*
X360Y744D02*
X371Y744D01*
X1212Y744D02*
X1219Y744D01*
X0Y743D02*
X7Y743D01*
X14Y743D02*
X25Y743D01*
X57Y743D02*
X68Y743D01*
X316Y743D02*
X328Y743D01*
X360Y743D02*
X371Y743D01*
X1212Y743D02*
X1219Y743D01*
X0Y742D02*
X7Y742D01*
X14Y742D02*
X25Y742D01*
X57Y742D02*
X68Y742D01*
X316Y742D02*
X328Y742D01*
X360Y742D02*
X371Y742D01*
X1212Y742D02*
X1219Y742D01*
X0Y741D02*
X7Y741D01*
X14Y741D02*
X25Y741D01*
X57Y741D02*
X68Y741D01*
X316Y741D02*
X328Y741D01*
X360Y741D02*
X371Y741D01*
X1212Y741D02*
X1219Y741D01*
X0Y740D02*
X7Y740D01*
X14Y740D02*
X25Y740D01*
X57Y740D02*
X68Y740D01*
X316Y740D02*
X328Y740D01*
X360Y740D02*
X371Y740D01*
X1212Y740D02*
X1219Y740D01*
X0Y739D02*
X7Y739D01*
X14Y739D02*
X25Y739D01*
X57Y739D02*
X68Y739D01*
X316Y739D02*
X328Y739D01*
X360Y739D02*
X371Y739D01*
X1212Y739D02*
X1219Y739D01*
X0Y738D02*
X7Y738D01*
X14Y738D02*
X25Y738D01*
X57Y738D02*
X68Y738D01*
X316Y738D02*
X328Y738D01*
X360Y738D02*
X371Y738D01*
X1212Y738D02*
X1219Y738D01*
X0Y737D02*
X7Y737D01*
X14Y737D02*
X25Y737D01*
X57Y737D02*
X68Y737D01*
X316Y737D02*
X328Y737D01*
X360Y737D02*
X371Y737D01*
X1212Y737D02*
X1219Y737D01*
X0Y736D02*
X7Y736D01*
X14Y736D02*
X25Y736D01*
X57Y736D02*
X68Y736D01*
X316Y736D02*
X328Y736D01*
X360Y736D02*
X371Y736D01*
X1212Y736D02*
X1219Y736D01*
X0Y735D02*
X7Y735D01*
X14Y735D02*
X25Y735D01*
X57Y735D02*
X68Y735D01*
X316Y735D02*
X328Y735D01*
X360Y735D02*
X371Y735D01*
X1212Y735D02*
X1219Y735D01*
X0Y734D02*
X7Y734D01*
X14Y734D02*
X25Y734D01*
X57Y734D02*
X68Y734D01*
X316Y734D02*
X328Y734D01*
X360Y734D02*
X371Y734D01*
X1212Y734D02*
X1219Y734D01*
X0Y733D02*
X7Y733D01*
X14Y733D02*
X25Y733D01*
X57Y733D02*
X68Y733D01*
X316Y733D02*
X328Y733D01*
X360Y733D02*
X371Y733D01*
X1212Y733D02*
X1219Y733D01*
X0Y732D02*
X7Y732D01*
X14Y732D02*
X25Y732D01*
X57Y732D02*
X68Y732D01*
X316Y732D02*
X328Y732D01*
X360Y732D02*
X371Y732D01*
X1212Y732D02*
X1219Y732D01*
X0Y731D02*
X7Y731D01*
X14Y731D02*
X25Y731D01*
X57Y731D02*
X68Y731D01*
X316Y731D02*
X328Y731D01*
X360Y731D02*
X371Y731D01*
X1212Y731D02*
X1219Y731D01*
X0Y730D02*
X7Y730D01*
X14Y730D02*
X25Y730D01*
X57Y730D02*
X68Y730D01*
X316Y730D02*
X328Y730D01*
X360Y730D02*
X371Y730D01*
X1212Y730D02*
X1219Y730D01*
X0Y729D02*
X7Y729D01*
X14Y729D02*
X25Y729D01*
X57Y729D02*
X68Y729D01*
X316Y729D02*
X328Y729D01*
X360Y729D02*
X371Y729D01*
X1212Y729D02*
X1219Y729D01*
X0Y728D02*
X7Y728D01*
X14Y728D02*
X25Y728D01*
X57Y728D02*
X68Y728D01*
X316Y728D02*
X328Y728D01*
X360Y728D02*
X371Y728D01*
X1212Y728D02*
X1219Y728D01*
X0Y727D02*
X7Y727D01*
X14Y727D02*
X25Y727D01*
X57Y727D02*
X68Y727D01*
X316Y727D02*
X328Y727D01*
X360Y727D02*
X371Y727D01*
X1212Y727D02*
X1219Y727D01*
X0Y726D02*
X7Y726D01*
X14Y726D02*
X25Y726D01*
X57Y726D02*
X68Y726D01*
X316Y726D02*
X328Y726D01*
X360Y726D02*
X371Y726D01*
X1212Y726D02*
X1219Y726D01*
X0Y725D02*
X7Y725D01*
X14Y725D02*
X25Y725D01*
X57Y725D02*
X68Y725D01*
X316Y725D02*
X328Y725D01*
X360Y725D02*
X371Y725D01*
X1212Y725D02*
X1219Y725D01*
X0Y724D02*
X7Y724D01*
X14Y724D02*
X25Y724D01*
X57Y724D02*
X68Y724D01*
X316Y724D02*
X328Y724D01*
X360Y724D02*
X371Y724D01*
X1212Y724D02*
X1219Y724D01*
X0Y723D02*
X7Y723D01*
X14Y723D02*
X25Y723D01*
X57Y723D02*
X68Y723D01*
X316Y723D02*
X328Y723D01*
X360Y723D02*
X371Y723D01*
X1212Y723D02*
X1219Y723D01*
X0Y722D02*
X7Y722D01*
X14Y722D02*
X25Y722D01*
X57Y722D02*
X68Y722D01*
X316Y722D02*
X328Y722D01*
X360Y722D02*
X371Y722D01*
X1212Y722D02*
X1219Y722D01*
X0Y721D02*
X7Y721D01*
X14Y721D02*
X25Y721D01*
X57Y721D02*
X68Y721D01*
X316Y721D02*
X328Y721D01*
X360Y721D02*
X371Y721D01*
X1212Y721D02*
X1219Y721D01*
X0Y720D02*
X7Y720D01*
X14Y720D02*
X25Y720D01*
X57Y720D02*
X68Y720D01*
X316Y720D02*
X328Y720D01*
X360Y720D02*
X371Y720D01*
X1212Y720D02*
X1219Y720D01*
X0Y719D02*
X7Y719D01*
X14Y719D02*
X25Y719D01*
X57Y719D02*
X68Y719D01*
X316Y719D02*
X328Y719D01*
X360Y719D02*
X371Y719D01*
X1212Y719D02*
X1219Y719D01*
X0Y718D02*
X7Y718D01*
X14Y718D02*
X25Y718D01*
X57Y718D02*
X68Y718D01*
X316Y718D02*
X328Y718D01*
X360Y718D02*
X371Y718D01*
X1212Y718D02*
X1219Y718D01*
X0Y717D02*
X7Y717D01*
X14Y717D02*
X25Y717D01*
X57Y717D02*
X68Y717D01*
X316Y717D02*
X328Y717D01*
X360Y717D02*
X371Y717D01*
X1212Y717D02*
X1219Y717D01*
X0Y716D02*
X7Y716D01*
X14Y716D02*
X25Y716D01*
X57Y716D02*
X68Y716D01*
X316Y716D02*
X328Y716D01*
X360Y716D02*
X371Y716D01*
X1212Y716D02*
X1219Y716D01*
X0Y715D02*
X7Y715D01*
X14Y715D02*
X25Y715D01*
X57Y715D02*
X68Y715D01*
X316Y715D02*
X328Y715D01*
X360Y715D02*
X371Y715D01*
X1212Y715D02*
X1219Y715D01*
X0Y714D02*
X7Y714D01*
X14Y714D02*
X25Y714D01*
X57Y714D02*
X68Y714D01*
X316Y714D02*
X328Y714D01*
X360Y714D02*
X371Y714D01*
X1212Y714D02*
X1219Y714D01*
X0Y713D02*
X7Y713D01*
X14Y713D02*
X25Y713D01*
X57Y713D02*
X68Y713D01*
X316Y713D02*
X328Y713D01*
X360Y713D02*
X371Y713D01*
X1212Y713D02*
X1219Y713D01*
X0Y712D02*
X7Y712D01*
X14Y712D02*
X25Y712D01*
X57Y712D02*
X68Y712D01*
X316Y712D02*
X328Y712D01*
X360Y712D02*
X371Y712D01*
X1212Y712D02*
X1219Y712D01*
X0Y711D02*
X7Y711D01*
X14Y711D02*
X25Y711D01*
X57Y711D02*
X68Y711D01*
X316Y711D02*
X328Y711D01*
X360Y711D02*
X371Y711D01*
X1212Y711D02*
X1219Y711D01*
X0Y710D02*
X7Y710D01*
X14Y710D02*
X25Y710D01*
X57Y710D02*
X68Y710D01*
X316Y710D02*
X328Y710D01*
X360Y710D02*
X371Y710D01*
X1212Y710D02*
X1219Y710D01*
X0Y709D02*
X7Y709D01*
X14Y709D02*
X25Y709D01*
X57Y709D02*
X68Y709D01*
X316Y709D02*
X328Y709D01*
X360Y709D02*
X371Y709D01*
X1212Y709D02*
X1219Y709D01*
X0Y708D02*
X7Y708D01*
X14Y708D02*
X25Y708D01*
X57Y708D02*
X68Y708D01*
X316Y708D02*
X328Y708D01*
X360Y708D02*
X371Y708D01*
X1212Y708D02*
X1219Y708D01*
X0Y707D02*
X7Y707D01*
X14Y707D02*
X25Y707D01*
X57Y707D02*
X68Y707D01*
X316Y707D02*
X328Y707D01*
X360Y707D02*
X371Y707D01*
X1212Y707D02*
X1219Y707D01*
X0Y706D02*
X7Y706D01*
X14Y706D02*
X25Y706D01*
X57Y706D02*
X68Y706D01*
X316Y706D02*
X328Y706D01*
X360Y706D02*
X371Y706D01*
X1212Y706D02*
X1219Y706D01*
X0Y705D02*
X7Y705D01*
X14Y705D02*
X25Y705D01*
X57Y705D02*
X68Y705D01*
X316Y705D02*
X328Y705D01*
X360Y705D02*
X371Y705D01*
X1212Y705D02*
X1219Y705D01*
X0Y704D02*
X7Y704D01*
X14Y704D02*
X25Y704D01*
X57Y704D02*
X68Y704D01*
X316Y704D02*
X328Y704D01*
X360Y704D02*
X371Y704D01*
X1212Y704D02*
X1219Y704D01*
X0Y703D02*
X7Y703D01*
X14Y703D02*
X25Y703D01*
X57Y703D02*
X68Y703D01*
X316Y703D02*
X328Y703D01*
X360Y703D02*
X371Y703D01*
X1212Y703D02*
X1219Y703D01*
X0Y702D02*
X7Y702D01*
X14Y702D02*
X25Y702D01*
X57Y702D02*
X68Y702D01*
X316Y702D02*
X328Y702D01*
X360Y702D02*
X371Y702D01*
X1212Y702D02*
X1219Y702D01*
X0Y701D02*
X7Y701D01*
X14Y701D02*
X25Y701D01*
X57Y701D02*
X68Y701D01*
X316Y701D02*
X328Y701D01*
X360Y701D02*
X371Y701D01*
X1212Y701D02*
X1219Y701D01*
X0Y700D02*
X7Y700D01*
X14Y700D02*
X25Y700D01*
X57Y700D02*
X68Y700D01*
X316Y700D02*
X328Y700D01*
X360Y700D02*
X371Y700D01*
X1212Y700D02*
X1219Y700D01*
X0Y699D02*
X7Y699D01*
X14Y699D02*
X25Y699D01*
X57Y699D02*
X68Y699D01*
X316Y699D02*
X328Y699D01*
X360Y699D02*
X371Y699D01*
X1212Y699D02*
X1219Y699D01*
X0Y698D02*
X7Y698D01*
X14Y698D02*
X25Y698D01*
X57Y698D02*
X68Y698D01*
X316Y698D02*
X328Y698D01*
X360Y698D02*
X371Y698D01*
X1212Y698D02*
X1219Y698D01*
X0Y697D02*
X7Y697D01*
X14Y697D02*
X25Y697D01*
X57Y697D02*
X68Y697D01*
X316Y697D02*
X328Y697D01*
X360Y697D02*
X371Y697D01*
X1212Y697D02*
X1219Y697D01*
X0Y696D02*
X7Y696D01*
X14Y696D02*
X25Y696D01*
X57Y696D02*
X68Y696D01*
X316Y696D02*
X328Y696D01*
X360Y696D02*
X371Y696D01*
X1212Y696D02*
X1219Y696D01*
X0Y695D02*
X7Y695D01*
X14Y695D02*
X25Y695D01*
X57Y695D02*
X68Y695D01*
X316Y695D02*
X328Y695D01*
X360Y695D02*
X371Y695D01*
X1212Y695D02*
X1219Y695D01*
X0Y694D02*
X7Y694D01*
X14Y694D02*
X25Y694D01*
X57Y694D02*
X68Y694D01*
X316Y694D02*
X328Y694D01*
X360Y694D02*
X371Y694D01*
X1212Y694D02*
X1219Y694D01*
X0Y693D02*
X7Y693D01*
X14Y693D02*
X25Y693D01*
X57Y693D02*
X68Y693D01*
X316Y693D02*
X328Y693D01*
X360Y693D02*
X371Y693D01*
X1212Y693D02*
X1219Y693D01*
X0Y692D02*
X7Y692D01*
X14Y692D02*
X25Y692D01*
X57Y692D02*
X68Y692D01*
X316Y692D02*
X328Y692D01*
X360Y692D02*
X371Y692D01*
X1212Y692D02*
X1219Y692D01*
X0Y691D02*
X7Y691D01*
X14Y691D02*
X25Y691D01*
X57Y691D02*
X68Y691D01*
X316Y691D02*
X328Y691D01*
X360Y691D02*
X371Y691D01*
X1212Y691D02*
X1219Y691D01*
X0Y690D02*
X7Y690D01*
X14Y690D02*
X25Y690D01*
X57Y690D02*
X68Y690D01*
X316Y690D02*
X328Y690D01*
X360Y690D02*
X371Y690D01*
X1212Y690D02*
X1219Y690D01*
X0Y689D02*
X7Y689D01*
X14Y689D02*
X25Y689D01*
X57Y689D02*
X68Y689D01*
X316Y689D02*
X328Y689D01*
X360Y689D02*
X371Y689D01*
X1212Y689D02*
X1219Y689D01*
X0Y688D02*
X7Y688D01*
X14Y688D02*
X25Y688D01*
X57Y688D02*
X68Y688D01*
X316Y688D02*
X328Y688D01*
X360Y688D02*
X371Y688D01*
X1212Y688D02*
X1219Y688D01*
X0Y687D02*
X7Y687D01*
X14Y687D02*
X25Y687D01*
X57Y687D02*
X68Y687D01*
X316Y687D02*
X328Y687D01*
X360Y687D02*
X371Y687D01*
X1212Y687D02*
X1219Y687D01*
X0Y686D02*
X7Y686D01*
X14Y686D02*
X25Y686D01*
X57Y686D02*
X68Y686D01*
X316Y686D02*
X328Y686D01*
X360Y686D02*
X371Y686D01*
X1212Y686D02*
X1219Y686D01*
X0Y685D02*
X7Y685D01*
X14Y685D02*
X25Y685D01*
X57Y685D02*
X68Y685D01*
X316Y685D02*
X328Y685D01*
X360Y685D02*
X371Y685D01*
X1212Y685D02*
X1219Y685D01*
X0Y684D02*
X7Y684D01*
X14Y684D02*
X25Y684D01*
X57Y684D02*
X68Y684D01*
X316Y684D02*
X328Y684D01*
X360Y684D02*
X371Y684D01*
X1212Y684D02*
X1219Y684D01*
X0Y683D02*
X7Y683D01*
X14Y683D02*
X25Y683D01*
X57Y683D02*
X68Y683D01*
X316Y683D02*
X328Y683D01*
X360Y683D02*
X371Y683D01*
X1212Y683D02*
X1219Y683D01*
X0Y682D02*
X7Y682D01*
X14Y682D02*
X25Y682D01*
X57Y682D02*
X68Y682D01*
X316Y682D02*
X328Y682D01*
X360Y682D02*
X371Y682D01*
X1212Y682D02*
X1219Y682D01*
X0Y681D02*
X7Y681D01*
X14Y681D02*
X25Y681D01*
X57Y681D02*
X68Y681D01*
X316Y681D02*
X328Y681D01*
X360Y681D02*
X371Y681D01*
X1212Y681D02*
X1219Y681D01*
X0Y680D02*
X7Y680D01*
X14Y680D02*
X25Y680D01*
X57Y680D02*
X68Y680D01*
X316Y680D02*
X328Y680D01*
X360Y680D02*
X371Y680D01*
X1212Y680D02*
X1219Y680D01*
X0Y679D02*
X7Y679D01*
X14Y679D02*
X25Y679D01*
X57Y679D02*
X68Y679D01*
X316Y679D02*
X328Y679D01*
X360Y679D02*
X371Y679D01*
X1212Y679D02*
X1219Y679D01*
X0Y678D02*
X7Y678D01*
X14Y678D02*
X25Y678D01*
X57Y678D02*
X68Y678D01*
X316Y678D02*
X328Y678D01*
X360Y678D02*
X371Y678D01*
X1212Y678D02*
X1219Y678D01*
X0Y677D02*
X7Y677D01*
X14Y677D02*
X25Y677D01*
X57Y677D02*
X68Y677D01*
X316Y677D02*
X328Y677D01*
X360Y677D02*
X371Y677D01*
X1212Y677D02*
X1219Y677D01*
X0Y676D02*
X7Y676D01*
X14Y676D02*
X25Y676D01*
X57Y676D02*
X68Y676D01*
X316Y676D02*
X328Y676D01*
X360Y676D02*
X371Y676D01*
X1212Y676D02*
X1219Y676D01*
X0Y675D02*
X7Y675D01*
X14Y675D02*
X25Y675D01*
X57Y675D02*
X68Y675D01*
X316Y675D02*
X328Y675D01*
X360Y675D02*
X371Y675D01*
X1212Y675D02*
X1219Y675D01*
X0Y674D02*
X7Y674D01*
X14Y674D02*
X25Y674D01*
X57Y674D02*
X68Y674D01*
X316Y674D02*
X328Y674D01*
X360Y674D02*
X371Y674D01*
X1212Y674D02*
X1219Y674D01*
X0Y673D02*
X7Y673D01*
X14Y673D02*
X25Y673D01*
X57Y673D02*
X68Y673D01*
X316Y673D02*
X328Y673D01*
X360Y673D02*
X371Y673D01*
X1212Y673D02*
X1219Y673D01*
X0Y672D02*
X7Y672D01*
X14Y672D02*
X25Y672D01*
X57Y672D02*
X68Y672D01*
X316Y672D02*
X328Y672D01*
X360Y672D02*
X371Y672D01*
X1212Y672D02*
X1219Y672D01*
X0Y671D02*
X7Y671D01*
X14Y671D02*
X25Y671D01*
X57Y671D02*
X68Y671D01*
X316Y671D02*
X328Y671D01*
X360Y671D02*
X371Y671D01*
X1212Y671D02*
X1219Y671D01*
X0Y670D02*
X7Y670D01*
X14Y670D02*
X25Y670D01*
X57Y670D02*
X68Y670D01*
X316Y670D02*
X328Y670D01*
X360Y670D02*
X371Y670D01*
X1212Y670D02*
X1219Y670D01*
X0Y669D02*
X7Y669D01*
X14Y669D02*
X25Y669D01*
X57Y669D02*
X68Y669D01*
X316Y669D02*
X328Y669D01*
X360Y669D02*
X371Y669D01*
X1212Y669D02*
X1219Y669D01*
X0Y668D02*
X7Y668D01*
X14Y668D02*
X25Y668D01*
X57Y668D02*
X68Y668D01*
X316Y668D02*
X328Y668D01*
X360Y668D02*
X371Y668D01*
X1212Y668D02*
X1219Y668D01*
X0Y667D02*
X7Y667D01*
X14Y667D02*
X25Y667D01*
X57Y667D02*
X68Y667D01*
X316Y667D02*
X328Y667D01*
X360Y667D02*
X371Y667D01*
X1212Y667D02*
X1219Y667D01*
X0Y666D02*
X7Y666D01*
X14Y666D02*
X25Y666D01*
X57Y666D02*
X68Y666D01*
X316Y666D02*
X328Y666D01*
X360Y666D02*
X371Y666D01*
X1212Y666D02*
X1219Y666D01*
X0Y665D02*
X7Y665D01*
X14Y665D02*
X25Y665D01*
X57Y665D02*
X68Y665D01*
X316Y665D02*
X328Y665D01*
X360Y665D02*
X371Y665D01*
X1212Y665D02*
X1219Y665D01*
X0Y664D02*
X7Y664D01*
X14Y664D02*
X25Y664D01*
X57Y664D02*
X68Y664D01*
X316Y664D02*
X328Y664D01*
X360Y664D02*
X371Y664D01*
X1212Y664D02*
X1219Y664D01*
X0Y663D02*
X7Y663D01*
X14Y663D02*
X25Y663D01*
X57Y663D02*
X68Y663D01*
X316Y663D02*
X328Y663D01*
X360Y663D02*
X371Y663D01*
X1212Y663D02*
X1219Y663D01*
X0Y662D02*
X7Y662D01*
X14Y662D02*
X25Y662D01*
X57Y662D02*
X68Y662D01*
X316Y662D02*
X328Y662D01*
X360Y662D02*
X371Y662D01*
X1212Y662D02*
X1219Y662D01*
X0Y661D02*
X7Y661D01*
X14Y661D02*
X25Y661D01*
X57Y661D02*
X68Y661D01*
X316Y661D02*
X328Y661D01*
X360Y661D02*
X371Y661D01*
X1212Y661D02*
X1219Y661D01*
X0Y660D02*
X7Y660D01*
X14Y660D02*
X25Y660D01*
X57Y660D02*
X68Y660D01*
X316Y660D02*
X328Y660D01*
X360Y660D02*
X371Y660D01*
X1212Y660D02*
X1219Y660D01*
X0Y659D02*
X7Y659D01*
X14Y659D02*
X25Y659D01*
X57Y659D02*
X68Y659D01*
X316Y659D02*
X328Y659D01*
X360Y659D02*
X371Y659D01*
X1212Y659D02*
X1219Y659D01*
X0Y658D02*
X7Y658D01*
X14Y658D02*
X25Y658D01*
X57Y658D02*
X68Y658D01*
X316Y658D02*
X328Y658D01*
X360Y658D02*
X371Y658D01*
X1212Y658D02*
X1219Y658D01*
X0Y657D02*
X7Y657D01*
X14Y657D02*
X25Y657D01*
X57Y657D02*
X68Y657D01*
X316Y657D02*
X328Y657D01*
X360Y657D02*
X371Y657D01*
X1212Y657D02*
X1219Y657D01*
X0Y656D02*
X7Y656D01*
X14Y656D02*
X25Y656D01*
X57Y656D02*
X68Y656D01*
X316Y656D02*
X328Y656D01*
X360Y656D02*
X371Y656D01*
X1212Y656D02*
X1219Y656D01*
X0Y655D02*
X7Y655D01*
X14Y655D02*
X25Y655D01*
X57Y655D02*
X68Y655D01*
X316Y655D02*
X328Y655D01*
X360Y655D02*
X371Y655D01*
X1212Y655D02*
X1219Y655D01*
X0Y654D02*
X7Y654D01*
X14Y654D02*
X25Y654D01*
X57Y654D02*
X68Y654D01*
X316Y654D02*
X328Y654D01*
X360Y654D02*
X371Y654D01*
X1212Y654D02*
X1219Y654D01*
X0Y653D02*
X7Y653D01*
X14Y653D02*
X25Y653D01*
X57Y653D02*
X68Y653D01*
X316Y653D02*
X328Y653D01*
X360Y653D02*
X371Y653D01*
X1212Y653D02*
X1219Y653D01*
X0Y652D02*
X7Y652D01*
X14Y652D02*
X25Y652D01*
X57Y652D02*
X68Y652D01*
X316Y652D02*
X328Y652D01*
X360Y652D02*
X371Y652D01*
X1212Y652D02*
X1219Y652D01*
X0Y651D02*
X7Y651D01*
X14Y651D02*
X25Y651D01*
X57Y651D02*
X68Y651D01*
X316Y651D02*
X328Y651D01*
X360Y651D02*
X371Y651D01*
X1212Y651D02*
X1219Y651D01*
X0Y650D02*
X7Y650D01*
X14Y650D02*
X25Y650D01*
X57Y650D02*
X68Y650D01*
X316Y650D02*
X328Y650D01*
X360Y650D02*
X371Y650D01*
X1212Y650D02*
X1219Y650D01*
X0Y649D02*
X7Y649D01*
X14Y649D02*
X25Y649D01*
X57Y649D02*
X68Y649D01*
X316Y649D02*
X328Y649D01*
X360Y649D02*
X371Y649D01*
X1212Y649D02*
X1219Y649D01*
X0Y648D02*
X7Y648D01*
X14Y648D02*
X25Y648D01*
X57Y648D02*
X68Y648D01*
X316Y648D02*
X328Y648D01*
X360Y648D02*
X371Y648D01*
X1212Y648D02*
X1219Y648D01*
X0Y647D02*
X7Y647D01*
X14Y647D02*
X25Y647D01*
X57Y647D02*
X68Y647D01*
X316Y647D02*
X328Y647D01*
X360Y647D02*
X371Y647D01*
X1212Y647D02*
X1219Y647D01*
X0Y646D02*
X7Y646D01*
X14Y646D02*
X25Y646D01*
X57Y646D02*
X68Y646D01*
X316Y646D02*
X328Y646D01*
X360Y646D02*
X371Y646D01*
X1212Y646D02*
X1219Y646D01*
X0Y645D02*
X7Y645D01*
X14Y645D02*
X25Y645D01*
X57Y645D02*
X68Y645D01*
X316Y645D02*
X328Y645D01*
X360Y645D02*
X371Y645D01*
X1212Y645D02*
X1219Y645D01*
X0Y644D02*
X7Y644D01*
X14Y644D02*
X25Y644D01*
X57Y644D02*
X68Y644D01*
X316Y644D02*
X328Y644D01*
X360Y644D02*
X371Y644D01*
X1212Y644D02*
X1219Y644D01*
X0Y643D02*
X7Y643D01*
X14Y643D02*
X25Y643D01*
X57Y643D02*
X68Y643D01*
X316Y643D02*
X328Y643D01*
X360Y643D02*
X371Y643D01*
X1212Y643D02*
X1219Y643D01*
X0Y642D02*
X7Y642D01*
X14Y642D02*
X25Y642D01*
X57Y642D02*
X68Y642D01*
X316Y642D02*
X328Y642D01*
X360Y642D02*
X371Y642D01*
X1212Y642D02*
X1219Y642D01*
X0Y641D02*
X7Y641D01*
X14Y641D02*
X25Y641D01*
X57Y641D02*
X68Y641D01*
X316Y641D02*
X328Y641D01*
X360Y641D02*
X371Y641D01*
X1212Y641D02*
X1219Y641D01*
X0Y640D02*
X7Y640D01*
X14Y640D02*
X25Y640D01*
X57Y640D02*
X68Y640D01*
X316Y640D02*
X328Y640D01*
X360Y640D02*
X371Y640D01*
X1212Y640D02*
X1219Y640D01*
X0Y639D02*
X7Y639D01*
X14Y639D02*
X25Y639D01*
X57Y639D02*
X68Y639D01*
X316Y639D02*
X328Y639D01*
X360Y639D02*
X371Y639D01*
X1212Y639D02*
X1219Y639D01*
X0Y638D02*
X7Y638D01*
X14Y638D02*
X25Y638D01*
X57Y638D02*
X68Y638D01*
X316Y638D02*
X328Y638D01*
X360Y638D02*
X371Y638D01*
X1212Y638D02*
X1219Y638D01*
X0Y637D02*
X7Y637D01*
X14Y637D02*
X25Y637D01*
X57Y637D02*
X68Y637D01*
X316Y637D02*
X328Y637D01*
X360Y637D02*
X371Y637D01*
X1212Y637D02*
X1219Y637D01*
X0Y636D02*
X7Y636D01*
X14Y636D02*
X25Y636D01*
X57Y636D02*
X68Y636D01*
X316Y636D02*
X328Y636D01*
X360Y636D02*
X371Y636D01*
X1212Y636D02*
X1219Y636D01*
X0Y635D02*
X7Y635D01*
X14Y635D02*
X25Y635D01*
X57Y635D02*
X68Y635D01*
X316Y635D02*
X328Y635D01*
X360Y635D02*
X371Y635D01*
X1212Y635D02*
X1219Y635D01*
X0Y634D02*
X7Y634D01*
X14Y634D02*
X25Y634D01*
X57Y634D02*
X68Y634D01*
X316Y634D02*
X328Y634D01*
X360Y634D02*
X371Y634D01*
X1212Y634D02*
X1219Y634D01*
X0Y633D02*
X7Y633D01*
X14Y633D02*
X25Y633D01*
X57Y633D02*
X68Y633D01*
X316Y633D02*
X328Y633D01*
X360Y633D02*
X371Y633D01*
X1212Y633D02*
X1219Y633D01*
X0Y632D02*
X7Y632D01*
X14Y632D02*
X25Y632D01*
X57Y632D02*
X68Y632D01*
X316Y632D02*
X328Y632D01*
X360Y632D02*
X371Y632D01*
X1212Y632D02*
X1219Y632D01*
X0Y631D02*
X7Y631D01*
X14Y631D02*
X25Y631D01*
X57Y631D02*
X68Y631D01*
X316Y631D02*
X328Y631D01*
X360Y631D02*
X371Y631D01*
X1212Y631D02*
X1219Y631D01*
X0Y630D02*
X7Y630D01*
X14Y630D02*
X25Y630D01*
X57Y630D02*
X68Y630D01*
X316Y630D02*
X328Y630D01*
X360Y630D02*
X371Y630D01*
X1212Y630D02*
X1219Y630D01*
X0Y629D02*
X7Y629D01*
X14Y629D02*
X25Y629D01*
X57Y629D02*
X68Y629D01*
X316Y629D02*
X328Y629D01*
X360Y629D02*
X371Y629D01*
X1212Y629D02*
X1219Y629D01*
X0Y628D02*
X7Y628D01*
X14Y628D02*
X25Y628D01*
X57Y628D02*
X68Y628D01*
X316Y628D02*
X328Y628D01*
X360Y628D02*
X371Y628D01*
X1212Y628D02*
X1219Y628D01*
X0Y627D02*
X7Y627D01*
X14Y627D02*
X25Y627D01*
X57Y627D02*
X68Y627D01*
X316Y627D02*
X328Y627D01*
X360Y627D02*
X371Y627D01*
X1212Y627D02*
X1219Y627D01*
X0Y626D02*
X7Y626D01*
X14Y626D02*
X25Y626D01*
X57Y626D02*
X68Y626D01*
X316Y626D02*
X328Y626D01*
X360Y626D02*
X371Y626D01*
X1212Y626D02*
X1219Y626D01*
X0Y625D02*
X7Y625D01*
X14Y625D02*
X25Y625D01*
X57Y625D02*
X68Y625D01*
X316Y625D02*
X328Y625D01*
X360Y625D02*
X371Y625D01*
X1212Y625D02*
X1219Y625D01*
X0Y624D02*
X7Y624D01*
X14Y624D02*
X25Y624D01*
X57Y624D02*
X68Y624D01*
X316Y624D02*
X328Y624D01*
X360Y624D02*
X371Y624D01*
X1212Y624D02*
X1219Y624D01*
X0Y623D02*
X7Y623D01*
X14Y623D02*
X25Y623D01*
X57Y623D02*
X68Y623D01*
X316Y623D02*
X328Y623D01*
X360Y623D02*
X371Y623D01*
X1212Y623D02*
X1219Y623D01*
X0Y622D02*
X7Y622D01*
X14Y622D02*
X25Y622D01*
X57Y622D02*
X68Y622D01*
X316Y622D02*
X328Y622D01*
X360Y622D02*
X371Y622D01*
X1212Y622D02*
X1219Y622D01*
X0Y621D02*
X7Y621D01*
X14Y621D02*
X25Y621D01*
X57Y621D02*
X68Y621D01*
X316Y621D02*
X328Y621D01*
X360Y621D02*
X371Y621D01*
X1212Y621D02*
X1219Y621D01*
X0Y620D02*
X7Y620D01*
X14Y620D02*
X25Y620D01*
X57Y620D02*
X68Y620D01*
X316Y620D02*
X328Y620D01*
X360Y620D02*
X371Y620D01*
X1212Y620D02*
X1219Y620D01*
X0Y619D02*
X7Y619D01*
X14Y619D02*
X25Y619D01*
X57Y619D02*
X68Y619D01*
X316Y619D02*
X328Y619D01*
X360Y619D02*
X371Y619D01*
X1212Y619D02*
X1219Y619D01*
X0Y618D02*
X7Y618D01*
X14Y618D02*
X25Y618D01*
X57Y618D02*
X68Y618D01*
X316Y618D02*
X328Y618D01*
X360Y618D02*
X371Y618D01*
X1212Y618D02*
X1219Y618D01*
X0Y617D02*
X7Y617D01*
X14Y617D02*
X25Y617D01*
X57Y617D02*
X68Y617D01*
X316Y617D02*
X328Y617D01*
X360Y617D02*
X371Y617D01*
X1212Y617D02*
X1219Y617D01*
X0Y616D02*
X7Y616D01*
X14Y616D02*
X25Y616D01*
X57Y616D02*
X68Y616D01*
X316Y616D02*
X328Y616D01*
X360Y616D02*
X371Y616D01*
X1212Y616D02*
X1219Y616D01*
X0Y615D02*
X7Y615D01*
X14Y615D02*
X25Y615D01*
X57Y615D02*
X68Y615D01*
X316Y615D02*
X328Y615D01*
X360Y615D02*
X371Y615D01*
X1212Y615D02*
X1219Y615D01*
X0Y614D02*
X7Y614D01*
X14Y614D02*
X25Y614D01*
X57Y614D02*
X68Y614D01*
X316Y614D02*
X328Y614D01*
X360Y614D02*
X371Y614D01*
X1212Y614D02*
X1219Y614D01*
X0Y613D02*
X7Y613D01*
X14Y613D02*
X25Y613D01*
X57Y613D02*
X68Y613D01*
X316Y613D02*
X328Y613D01*
X360Y613D02*
X371Y613D01*
X1212Y613D02*
X1219Y613D01*
X0Y612D02*
X7Y612D01*
X14Y612D02*
X25Y612D01*
X57Y612D02*
X68Y612D01*
X316Y612D02*
X328Y612D01*
X360Y612D02*
X371Y612D01*
X1212Y612D02*
X1219Y612D01*
X0Y611D02*
X7Y611D01*
X14Y611D02*
X25Y611D01*
X57Y611D02*
X68Y611D01*
X316Y611D02*
X328Y611D01*
X360Y611D02*
X371Y611D01*
X1212Y611D02*
X1219Y611D01*
X0Y610D02*
X7Y610D01*
X14Y610D02*
X25Y610D01*
X57Y610D02*
X68Y610D01*
X316Y610D02*
X328Y610D01*
X360Y610D02*
X371Y610D01*
X1212Y610D02*
X1219Y610D01*
X0Y609D02*
X7Y609D01*
X14Y609D02*
X25Y609D01*
X57Y609D02*
X68Y609D01*
X316Y609D02*
X328Y609D01*
X360Y609D02*
X371Y609D01*
X1212Y609D02*
X1219Y609D01*
X0Y608D02*
X7Y608D01*
X14Y608D02*
X25Y608D01*
X57Y608D02*
X68Y608D01*
X316Y608D02*
X328Y608D01*
X360Y608D02*
X371Y608D01*
X1212Y608D02*
X1219Y608D01*
X0Y607D02*
X7Y607D01*
X14Y607D02*
X25Y607D01*
X57Y607D02*
X68Y607D01*
X316Y607D02*
X328Y607D01*
X360Y607D02*
X371Y607D01*
X1212Y607D02*
X1219Y607D01*
X0Y606D02*
X7Y606D01*
X14Y606D02*
X25Y606D01*
X57Y606D02*
X68Y606D01*
X316Y606D02*
X328Y606D01*
X360Y606D02*
X371Y606D01*
X1212Y606D02*
X1219Y606D01*
X0Y605D02*
X7Y605D01*
X14Y605D02*
X25Y605D01*
X57Y605D02*
X68Y605D01*
X316Y605D02*
X328Y605D01*
X360Y605D02*
X371Y605D01*
X1212Y605D02*
X1219Y605D01*
X0Y604D02*
X7Y604D01*
X14Y604D02*
X25Y604D01*
X57Y604D02*
X68Y604D01*
X316Y604D02*
X328Y604D01*
X360Y604D02*
X371Y604D01*
X1212Y604D02*
X1219Y604D01*
X0Y603D02*
X7Y603D01*
X14Y603D02*
X25Y603D01*
X57Y603D02*
X68Y603D01*
X316Y603D02*
X328Y603D01*
X360Y603D02*
X371Y603D01*
X1212Y603D02*
X1219Y603D01*
X0Y602D02*
X7Y602D01*
X14Y602D02*
X25Y602D01*
X57Y602D02*
X68Y602D01*
X316Y602D02*
X328Y602D01*
X360Y602D02*
X371Y602D01*
X1212Y602D02*
X1219Y602D01*
X0Y601D02*
X7Y601D01*
X14Y601D02*
X25Y601D01*
X57Y601D02*
X68Y601D01*
X316Y601D02*
X328Y601D01*
X360Y601D02*
X371Y601D01*
X1212Y601D02*
X1219Y601D01*
X0Y600D02*
X7Y600D01*
X14Y600D02*
X25Y600D01*
X57Y600D02*
X68Y600D01*
X316Y600D02*
X328Y600D01*
X360Y600D02*
X371Y600D01*
X1212Y600D02*
X1219Y600D01*
X0Y599D02*
X7Y599D01*
X14Y599D02*
X25Y599D01*
X57Y599D02*
X68Y599D01*
X316Y599D02*
X328Y599D01*
X360Y599D02*
X371Y599D01*
X1212Y599D02*
X1219Y599D01*
X0Y598D02*
X7Y598D01*
X14Y598D02*
X25Y598D01*
X57Y598D02*
X68Y598D01*
X316Y598D02*
X328Y598D01*
X360Y598D02*
X371Y598D01*
X1212Y598D02*
X1219Y598D01*
X0Y597D02*
X7Y597D01*
X14Y597D02*
X25Y597D01*
X57Y597D02*
X68Y597D01*
X316Y597D02*
X328Y597D01*
X360Y597D02*
X371Y597D01*
X1212Y597D02*
X1219Y597D01*
X0Y596D02*
X7Y596D01*
X14Y596D02*
X25Y596D01*
X57Y596D02*
X68Y596D01*
X316Y596D02*
X328Y596D01*
X360Y596D02*
X371Y596D01*
X1212Y596D02*
X1219Y596D01*
X0Y595D02*
X7Y595D01*
X14Y595D02*
X25Y595D01*
X57Y595D02*
X68Y595D01*
X316Y595D02*
X328Y595D01*
X360Y595D02*
X371Y595D01*
X1212Y595D02*
X1219Y595D01*
X0Y594D02*
X7Y594D01*
X14Y594D02*
X25Y594D01*
X57Y594D02*
X68Y594D01*
X316Y594D02*
X328Y594D01*
X360Y594D02*
X371Y594D01*
X1212Y594D02*
X1219Y594D01*
X0Y593D02*
X7Y593D01*
X14Y593D02*
X25Y593D01*
X57Y593D02*
X68Y593D01*
X316Y593D02*
X328Y593D01*
X360Y593D02*
X371Y593D01*
X1212Y593D02*
X1219Y593D01*
X0Y592D02*
X7Y592D01*
X14Y592D02*
X25Y592D01*
X57Y592D02*
X68Y592D01*
X316Y592D02*
X328Y592D01*
X360Y592D02*
X371Y592D01*
X1212Y592D02*
X1219Y592D01*
X0Y591D02*
X7Y591D01*
X14Y591D02*
X25Y591D01*
X57Y591D02*
X68Y591D01*
X316Y591D02*
X328Y591D01*
X360Y591D02*
X371Y591D01*
X1212Y591D02*
X1219Y591D01*
X0Y590D02*
X7Y590D01*
X14Y590D02*
X25Y590D01*
X57Y590D02*
X68Y590D01*
X316Y590D02*
X328Y590D01*
X360Y590D02*
X371Y590D01*
X1212Y590D02*
X1219Y590D01*
X0Y589D02*
X7Y589D01*
X14Y589D02*
X25Y589D01*
X57Y589D02*
X68Y589D01*
X316Y589D02*
X328Y589D01*
X360Y589D02*
X371Y589D01*
X1212Y589D02*
X1219Y589D01*
X0Y588D02*
X7Y588D01*
X14Y588D02*
X25Y588D01*
X57Y588D02*
X68Y588D01*
X316Y588D02*
X328Y588D01*
X360Y588D02*
X371Y588D01*
X1212Y588D02*
X1219Y588D01*
X0Y587D02*
X7Y587D01*
X14Y587D02*
X25Y587D01*
X57Y587D02*
X68Y587D01*
X316Y587D02*
X328Y587D01*
X360Y587D02*
X371Y587D01*
X1212Y587D02*
X1219Y587D01*
X0Y586D02*
X7Y586D01*
X14Y586D02*
X25Y586D01*
X57Y586D02*
X68Y586D01*
X316Y586D02*
X328Y586D01*
X360Y586D02*
X371Y586D01*
X1212Y586D02*
X1219Y586D01*
X0Y585D02*
X7Y585D01*
X14Y585D02*
X25Y585D01*
X57Y585D02*
X68Y585D01*
X316Y585D02*
X328Y585D01*
X360Y585D02*
X371Y585D01*
X1212Y585D02*
X1219Y585D01*
X0Y584D02*
X7Y584D01*
X14Y584D02*
X25Y584D01*
X57Y584D02*
X68Y584D01*
X316Y584D02*
X328Y584D01*
X360Y584D02*
X371Y584D01*
X1212Y584D02*
X1219Y584D01*
X0Y583D02*
X7Y583D01*
X14Y583D02*
X25Y583D01*
X57Y583D02*
X68Y583D01*
X316Y583D02*
X328Y583D01*
X360Y583D02*
X370Y583D01*
X1212Y583D02*
X1219Y583D01*
X0Y582D02*
X7Y582D01*
X14Y582D02*
X25Y582D01*
X57Y582D02*
X68Y582D01*
X316Y582D02*
X328Y582D01*
X360Y582D02*
X370Y582D01*
X1212Y582D02*
X1219Y582D01*
X0Y581D02*
X7Y581D01*
X14Y581D02*
X25Y581D01*
X57Y581D02*
X68Y581D01*
X316Y581D02*
X328Y581D01*
X360Y581D02*
X369Y581D01*
X1212Y581D02*
X1219Y581D01*
X0Y580D02*
X7Y580D01*
X14Y580D02*
X25Y580D01*
X57Y580D02*
X68Y580D01*
X316Y580D02*
X328Y580D01*
X360Y580D02*
X369Y580D01*
X1212Y580D02*
X1219Y580D01*
X0Y579D02*
X7Y579D01*
X14Y579D02*
X25Y579D01*
X57Y579D02*
X68Y579D01*
X316Y579D02*
X328Y579D01*
X360Y579D02*
X368Y579D01*
X1212Y579D02*
X1219Y579D01*
X0Y578D02*
X7Y578D01*
X14Y578D02*
X25Y578D01*
X57Y578D02*
X68Y578D01*
X316Y578D02*
X328Y578D01*
X360Y578D02*
X368Y578D01*
X1212Y578D02*
X1219Y578D01*
X0Y577D02*
X7Y577D01*
X14Y577D02*
X25Y577D01*
X57Y577D02*
X68Y577D01*
X316Y577D02*
X328Y577D01*
X360Y577D02*
X368Y577D01*
X1212Y577D02*
X1219Y577D01*
X0Y576D02*
X7Y576D01*
X14Y576D02*
X25Y576D01*
X57Y576D02*
X68Y576D01*
X316Y576D02*
X328Y576D01*
X360Y576D02*
X367Y576D01*
X1212Y576D02*
X1219Y576D01*
X0Y575D02*
X7Y575D01*
X14Y575D02*
X25Y575D01*
X57Y575D02*
X68Y575D01*
X316Y575D02*
X328Y575D01*
X360Y575D02*
X367Y575D01*
X1212Y575D02*
X1219Y575D01*
X0Y574D02*
X7Y574D01*
X14Y574D02*
X25Y574D01*
X57Y574D02*
X68Y574D01*
X316Y574D02*
X328Y574D01*
X360Y574D02*
X367Y574D01*
X1212Y574D02*
X1219Y574D01*
X0Y573D02*
X7Y573D01*
X14Y573D02*
X25Y573D01*
X57Y573D02*
X68Y573D01*
X316Y573D02*
X328Y573D01*
X360Y573D02*
X367Y573D01*
X1212Y573D02*
X1219Y573D01*
X0Y572D02*
X7Y572D01*
X14Y572D02*
X25Y572D01*
X57Y572D02*
X68Y572D01*
X316Y572D02*
X328Y572D01*
X360Y572D02*
X366Y572D01*
X1212Y572D02*
X1219Y572D01*
X0Y571D02*
X7Y571D01*
X14Y571D02*
X25Y571D01*
X57Y571D02*
X68Y571D01*
X316Y571D02*
X328Y571D01*
X360Y571D02*
X366Y571D01*
X1212Y571D02*
X1219Y571D01*
X0Y570D02*
X7Y570D01*
X14Y570D02*
X25Y570D01*
X57Y570D02*
X68Y570D01*
X316Y570D02*
X328Y570D01*
X360Y570D02*
X366Y570D01*
X1212Y570D02*
X1219Y570D01*
X0Y569D02*
X7Y569D01*
X14Y569D02*
X25Y569D01*
X57Y569D02*
X68Y569D01*
X316Y569D02*
X328Y569D01*
X360Y569D02*
X366Y569D01*
X1212Y569D02*
X1219Y569D01*
X0Y568D02*
X7Y568D01*
X14Y568D02*
X25Y568D01*
X57Y568D02*
X68Y568D01*
X316Y568D02*
X328Y568D01*
X360Y568D02*
X366Y568D01*
X1212Y568D02*
X1219Y568D01*
X0Y567D02*
X7Y567D01*
X14Y567D02*
X25Y567D01*
X57Y567D02*
X68Y567D01*
X316Y567D02*
X328Y567D01*
X360Y567D02*
X366Y567D01*
X1212Y567D02*
X1219Y567D01*
X0Y566D02*
X7Y566D01*
X14Y566D02*
X25Y566D01*
X57Y566D02*
X68Y566D01*
X316Y566D02*
X328Y566D01*
X360Y566D02*
X367Y566D01*
X1212Y566D02*
X1219Y566D01*
X0Y565D02*
X7Y565D01*
X14Y565D02*
X25Y565D01*
X57Y565D02*
X68Y565D01*
X316Y565D02*
X328Y565D01*
X360Y565D02*
X367Y565D01*
X1212Y565D02*
X1219Y565D01*
X0Y564D02*
X7Y564D01*
X14Y564D02*
X25Y564D01*
X57Y564D02*
X68Y564D01*
X316Y564D02*
X328Y564D01*
X360Y564D02*
X367Y564D01*
X1212Y564D02*
X1219Y564D01*
X0Y563D02*
X7Y563D01*
X14Y563D02*
X25Y563D01*
X57Y563D02*
X68Y563D01*
X316Y563D02*
X328Y563D01*
X360Y563D02*
X367Y563D01*
X1212Y563D02*
X1219Y563D01*
X0Y562D02*
X7Y562D01*
X14Y562D02*
X25Y562D01*
X57Y562D02*
X68Y562D01*
X316Y562D02*
X328Y562D01*
X360Y562D02*
X368Y562D01*
X1212Y562D02*
X1219Y562D01*
X0Y561D02*
X7Y561D01*
X14Y561D02*
X25Y561D01*
X57Y561D02*
X68Y561D01*
X316Y561D02*
X328Y561D01*
X360Y561D02*
X368Y561D01*
X1212Y561D02*
X1219Y561D01*
X0Y560D02*
X7Y560D01*
X14Y560D02*
X25Y560D01*
X57Y560D02*
X68Y560D01*
X316Y560D02*
X328Y560D01*
X360Y560D02*
X368Y560D01*
X1212Y560D02*
X1219Y560D01*
X0Y559D02*
X7Y559D01*
X14Y559D02*
X25Y559D01*
X57Y559D02*
X68Y559D01*
X316Y559D02*
X328Y559D01*
X360Y559D02*
X369Y559D01*
X1212Y559D02*
X1219Y559D01*
X0Y558D02*
X7Y558D01*
X14Y558D02*
X25Y558D01*
X57Y558D02*
X68Y558D01*
X316Y558D02*
X328Y558D01*
X360Y558D02*
X369Y558D01*
X1212Y558D02*
X1219Y558D01*
X0Y557D02*
X7Y557D01*
X14Y557D02*
X25Y557D01*
X57Y557D02*
X68Y557D01*
X316Y557D02*
X328Y557D01*
X360Y557D02*
X370Y557D01*
X1212Y557D02*
X1219Y557D01*
X0Y556D02*
X7Y556D01*
X14Y556D02*
X25Y556D01*
X57Y556D02*
X68Y556D01*
X316Y556D02*
X328Y556D01*
X360Y556D02*
X371Y556D01*
X1212Y556D02*
X1219Y556D01*
X0Y555D02*
X7Y555D01*
X14Y555D02*
X25Y555D01*
X57Y555D02*
X68Y555D01*
X316Y555D02*
X328Y555D01*
X360Y555D02*
X371Y555D01*
X1212Y555D02*
X1219Y555D01*
X0Y554D02*
X7Y554D01*
X14Y554D02*
X25Y554D01*
X57Y554D02*
X68Y554D01*
X316Y554D02*
X328Y554D01*
X360Y554D02*
X371Y554D01*
X1212Y554D02*
X1219Y554D01*
X0Y553D02*
X7Y553D01*
X14Y553D02*
X25Y553D01*
X57Y553D02*
X68Y553D01*
X316Y553D02*
X328Y553D01*
X360Y553D02*
X371Y553D01*
X1212Y553D02*
X1219Y553D01*
X0Y552D02*
X7Y552D01*
X14Y552D02*
X25Y552D01*
X57Y552D02*
X68Y552D01*
X316Y552D02*
X328Y552D01*
X360Y552D02*
X371Y552D01*
X1212Y552D02*
X1219Y552D01*
X0Y551D02*
X7Y551D01*
X14Y551D02*
X25Y551D01*
X57Y551D02*
X68Y551D01*
X316Y551D02*
X328Y551D01*
X360Y551D02*
X371Y551D01*
X1212Y551D02*
X1219Y551D01*
X0Y550D02*
X7Y550D01*
X14Y550D02*
X25Y550D01*
X57Y550D02*
X68Y550D01*
X316Y550D02*
X328Y550D01*
X360Y550D02*
X371Y550D01*
X1212Y550D02*
X1219Y550D01*
X0Y549D02*
X7Y549D01*
X14Y549D02*
X25Y549D01*
X57Y549D02*
X68Y549D01*
X316Y549D02*
X328Y549D01*
X360Y549D02*
X371Y549D01*
X1212Y549D02*
X1219Y549D01*
X0Y548D02*
X7Y548D01*
X14Y548D02*
X25Y548D01*
X57Y548D02*
X68Y548D01*
X316Y548D02*
X328Y548D01*
X360Y548D02*
X371Y548D01*
X1212Y548D02*
X1219Y548D01*
X0Y547D02*
X7Y547D01*
X14Y547D02*
X25Y547D01*
X57Y547D02*
X68Y547D01*
X316Y547D02*
X328Y547D01*
X360Y547D02*
X371Y547D01*
X1212Y547D02*
X1219Y547D01*
X0Y546D02*
X7Y546D01*
X14Y546D02*
X25Y546D01*
X57Y546D02*
X68Y546D01*
X316Y546D02*
X328Y546D01*
X360Y546D02*
X371Y546D01*
X1212Y546D02*
X1219Y546D01*
X0Y545D02*
X7Y545D01*
X14Y545D02*
X25Y545D01*
X57Y545D02*
X68Y545D01*
X316Y545D02*
X328Y545D01*
X360Y545D02*
X371Y545D01*
X1212Y545D02*
X1219Y545D01*
X0Y544D02*
X7Y544D01*
X14Y544D02*
X25Y544D01*
X57Y544D02*
X68Y544D01*
X316Y544D02*
X328Y544D01*
X360Y544D02*
X371Y544D01*
X1212Y544D02*
X1219Y544D01*
X0Y543D02*
X7Y543D01*
X14Y543D02*
X25Y543D01*
X57Y543D02*
X68Y543D01*
X316Y543D02*
X328Y543D01*
X360Y543D02*
X371Y543D01*
X1212Y543D02*
X1219Y543D01*
X0Y542D02*
X7Y542D01*
X14Y542D02*
X25Y542D01*
X57Y542D02*
X68Y542D01*
X316Y542D02*
X328Y542D01*
X360Y542D02*
X371Y542D01*
X1212Y542D02*
X1219Y542D01*
X0Y541D02*
X7Y541D01*
X14Y541D02*
X25Y541D01*
X57Y541D02*
X68Y541D01*
X316Y541D02*
X328Y541D01*
X360Y541D02*
X371Y541D01*
X1212Y541D02*
X1219Y541D01*
X0Y540D02*
X7Y540D01*
X14Y540D02*
X25Y540D01*
X57Y540D02*
X68Y540D01*
X316Y540D02*
X328Y540D01*
X360Y540D02*
X371Y540D01*
X1212Y540D02*
X1219Y540D01*
X0Y539D02*
X7Y539D01*
X14Y539D02*
X25Y539D01*
X57Y539D02*
X68Y539D01*
X316Y539D02*
X328Y539D01*
X360Y539D02*
X371Y539D01*
X1212Y539D02*
X1219Y539D01*
X0Y538D02*
X7Y538D01*
X14Y538D02*
X25Y538D01*
X57Y538D02*
X68Y538D01*
X316Y538D02*
X328Y538D01*
X360Y538D02*
X371Y538D01*
X1212Y538D02*
X1219Y538D01*
X0Y537D02*
X7Y537D01*
X14Y537D02*
X25Y537D01*
X57Y537D02*
X68Y537D01*
X316Y537D02*
X328Y537D01*
X360Y537D02*
X371Y537D01*
X1212Y537D02*
X1219Y537D01*
X0Y536D02*
X7Y536D01*
X14Y536D02*
X25Y536D01*
X57Y536D02*
X68Y536D01*
X316Y536D02*
X328Y536D01*
X360Y536D02*
X371Y536D01*
X1212Y536D02*
X1219Y536D01*
X0Y535D02*
X7Y535D01*
X14Y535D02*
X25Y535D01*
X57Y535D02*
X68Y535D01*
X316Y535D02*
X328Y535D01*
X360Y535D02*
X371Y535D01*
X1212Y535D02*
X1219Y535D01*
X0Y534D02*
X7Y534D01*
X14Y534D02*
X25Y534D01*
X57Y534D02*
X68Y534D01*
X316Y534D02*
X328Y534D01*
X360Y534D02*
X371Y534D01*
X1212Y534D02*
X1219Y534D01*
X0Y533D02*
X7Y533D01*
X14Y533D02*
X25Y533D01*
X57Y533D02*
X68Y533D01*
X316Y533D02*
X328Y533D01*
X360Y533D02*
X371Y533D01*
X1212Y533D02*
X1219Y533D01*
X0Y532D02*
X7Y532D01*
X14Y532D02*
X25Y532D01*
X57Y532D02*
X68Y532D01*
X316Y532D02*
X328Y532D01*
X360Y532D02*
X371Y532D01*
X1212Y532D02*
X1219Y532D01*
X0Y531D02*
X7Y531D01*
X14Y531D02*
X25Y531D01*
X57Y531D02*
X68Y531D01*
X316Y531D02*
X328Y531D01*
X360Y531D02*
X371Y531D01*
X1212Y531D02*
X1219Y531D01*
X0Y530D02*
X7Y530D01*
X14Y530D02*
X25Y530D01*
X57Y530D02*
X68Y530D01*
X316Y530D02*
X328Y530D01*
X360Y530D02*
X371Y530D01*
X1212Y530D02*
X1219Y530D01*
X0Y529D02*
X7Y529D01*
X14Y529D02*
X25Y529D01*
X57Y529D02*
X68Y529D01*
X316Y529D02*
X328Y529D01*
X360Y529D02*
X371Y529D01*
X1212Y529D02*
X1219Y529D01*
X0Y528D02*
X7Y528D01*
X14Y528D02*
X25Y528D01*
X57Y528D02*
X68Y528D01*
X316Y528D02*
X328Y528D01*
X360Y528D02*
X371Y528D01*
X1212Y528D02*
X1219Y528D01*
X0Y527D02*
X7Y527D01*
X14Y527D02*
X25Y527D01*
X57Y527D02*
X68Y527D01*
X316Y527D02*
X328Y527D01*
X360Y527D02*
X371Y527D01*
X1212Y527D02*
X1219Y527D01*
X0Y526D02*
X7Y526D01*
X14Y526D02*
X25Y526D01*
X57Y526D02*
X68Y526D01*
X316Y526D02*
X328Y526D01*
X360Y526D02*
X371Y526D01*
X1212Y526D02*
X1219Y526D01*
X0Y525D02*
X7Y525D01*
X14Y525D02*
X25Y525D01*
X57Y525D02*
X68Y525D01*
X316Y525D02*
X328Y525D01*
X360Y525D02*
X371Y525D01*
X1212Y525D02*
X1219Y525D01*
X0Y524D02*
X7Y524D01*
X14Y524D02*
X25Y524D01*
X57Y524D02*
X68Y524D01*
X316Y524D02*
X328Y524D01*
X360Y524D02*
X371Y524D01*
X1212Y524D02*
X1219Y524D01*
X0Y523D02*
X7Y523D01*
X14Y523D02*
X25Y523D01*
X57Y523D02*
X68Y523D01*
X316Y523D02*
X328Y523D01*
X360Y523D02*
X371Y523D01*
X1212Y523D02*
X1219Y523D01*
X0Y522D02*
X7Y522D01*
X14Y522D02*
X25Y522D01*
X57Y522D02*
X68Y522D01*
X316Y522D02*
X328Y522D01*
X360Y522D02*
X371Y522D01*
X1212Y522D02*
X1219Y522D01*
X0Y521D02*
X7Y521D01*
X14Y521D02*
X25Y521D01*
X57Y521D02*
X68Y521D01*
X316Y521D02*
X328Y521D01*
X360Y521D02*
X371Y521D01*
X1212Y521D02*
X1219Y521D01*
X0Y520D02*
X7Y520D01*
X14Y520D02*
X25Y520D01*
X57Y520D02*
X68Y520D01*
X316Y520D02*
X328Y520D01*
X360Y520D02*
X371Y520D01*
X1212Y520D02*
X1219Y520D01*
X0Y519D02*
X7Y519D01*
X14Y519D02*
X25Y519D01*
X57Y519D02*
X68Y519D01*
X316Y519D02*
X328Y519D01*
X360Y519D02*
X371Y519D01*
X1212Y519D02*
X1219Y519D01*
X0Y518D02*
X7Y518D01*
X14Y518D02*
X25Y518D01*
X57Y518D02*
X68Y518D01*
X316Y518D02*
X328Y518D01*
X360Y518D02*
X371Y518D01*
X1212Y518D02*
X1219Y518D01*
X0Y517D02*
X7Y517D01*
X14Y517D02*
X25Y517D01*
X57Y517D02*
X68Y517D01*
X316Y517D02*
X328Y517D01*
X360Y517D02*
X371Y517D01*
X1212Y517D02*
X1219Y517D01*
X0Y516D02*
X7Y516D01*
X14Y516D02*
X25Y516D01*
X57Y516D02*
X68Y516D01*
X316Y516D02*
X328Y516D01*
X360Y516D02*
X371Y516D01*
X1212Y516D02*
X1219Y516D01*
X0Y515D02*
X7Y515D01*
X14Y515D02*
X25Y515D01*
X57Y515D02*
X68Y515D01*
X316Y515D02*
X328Y515D01*
X360Y515D02*
X371Y515D01*
X1212Y515D02*
X1219Y515D01*
X0Y514D02*
X7Y514D01*
X14Y514D02*
X25Y514D01*
X57Y514D02*
X68Y514D01*
X316Y514D02*
X328Y514D01*
X360Y514D02*
X371Y514D01*
X1212Y514D02*
X1219Y514D01*
X0Y513D02*
X7Y513D01*
X14Y513D02*
X25Y513D01*
X57Y513D02*
X68Y513D01*
X316Y513D02*
X328Y513D01*
X360Y513D02*
X371Y513D01*
X1212Y513D02*
X1219Y513D01*
X0Y512D02*
X7Y512D01*
X14Y512D02*
X25Y512D01*
X57Y512D02*
X68Y512D01*
X316Y512D02*
X328Y512D01*
X360Y512D02*
X371Y512D01*
X1212Y512D02*
X1219Y512D01*
X0Y511D02*
X7Y511D01*
X14Y511D02*
X25Y511D01*
X57Y511D02*
X68Y511D01*
X316Y511D02*
X328Y511D01*
X360Y511D02*
X371Y511D01*
X1212Y511D02*
X1219Y511D01*
X0Y510D02*
X7Y510D01*
X14Y510D02*
X25Y510D01*
X57Y510D02*
X68Y510D01*
X316Y510D02*
X328Y510D01*
X360Y510D02*
X371Y510D01*
X1212Y510D02*
X1219Y510D01*
X0Y509D02*
X7Y509D01*
X14Y509D02*
X25Y509D01*
X57Y509D02*
X68Y509D01*
X316Y509D02*
X328Y509D01*
X360Y509D02*
X371Y509D01*
X1212Y509D02*
X1219Y509D01*
X0Y508D02*
X7Y508D01*
X14Y508D02*
X25Y508D01*
X57Y508D02*
X68Y508D01*
X316Y508D02*
X328Y508D01*
X360Y508D02*
X371Y508D01*
X1212Y508D02*
X1219Y508D01*
X0Y507D02*
X7Y507D01*
X14Y507D02*
X25Y507D01*
X57Y507D02*
X68Y507D01*
X316Y507D02*
X328Y507D01*
X360Y507D02*
X371Y507D01*
X1212Y507D02*
X1219Y507D01*
X0Y506D02*
X7Y506D01*
X14Y506D02*
X25Y506D01*
X57Y506D02*
X68Y506D01*
X316Y506D02*
X328Y506D01*
X360Y506D02*
X371Y506D01*
X1212Y506D02*
X1219Y506D01*
X0Y505D02*
X7Y505D01*
X14Y505D02*
X25Y505D01*
X57Y505D02*
X68Y505D01*
X316Y505D02*
X328Y505D01*
X360Y505D02*
X371Y505D01*
X1212Y505D02*
X1219Y505D01*
X0Y504D02*
X7Y504D01*
X14Y504D02*
X25Y504D01*
X57Y504D02*
X68Y504D01*
X316Y504D02*
X328Y504D01*
X360Y504D02*
X371Y504D01*
X1212Y504D02*
X1219Y504D01*
X0Y503D02*
X7Y503D01*
X14Y503D02*
X25Y503D01*
X57Y503D02*
X68Y503D01*
X316Y503D02*
X328Y503D01*
X360Y503D02*
X371Y503D01*
X1212Y503D02*
X1219Y503D01*
X0Y502D02*
X7Y502D01*
X14Y502D02*
X25Y502D01*
X57Y502D02*
X68Y502D01*
X316Y502D02*
X328Y502D01*
X360Y502D02*
X371Y502D01*
X1212Y502D02*
X1219Y502D01*
X0Y501D02*
X7Y501D01*
X14Y501D02*
X25Y501D01*
X57Y501D02*
X68Y501D01*
X316Y501D02*
X328Y501D01*
X360Y501D02*
X371Y501D01*
X1212Y501D02*
X1219Y501D01*
X0Y500D02*
X7Y500D01*
X14Y500D02*
X25Y500D01*
X57Y500D02*
X68Y500D01*
X316Y500D02*
X328Y500D01*
X360Y500D02*
X371Y500D01*
X1212Y500D02*
X1219Y500D01*
X0Y499D02*
X7Y499D01*
X14Y499D02*
X25Y499D01*
X57Y499D02*
X68Y499D01*
X316Y499D02*
X328Y499D01*
X360Y499D02*
X371Y499D01*
X1212Y499D02*
X1219Y499D01*
X0Y498D02*
X7Y498D01*
X14Y498D02*
X25Y498D01*
X57Y498D02*
X68Y498D01*
X316Y498D02*
X328Y498D01*
X360Y498D02*
X371Y498D01*
X1212Y498D02*
X1219Y498D01*
X0Y497D02*
X7Y497D01*
X14Y497D02*
X25Y497D01*
X57Y497D02*
X68Y497D01*
X316Y497D02*
X328Y497D01*
X360Y497D02*
X371Y497D01*
X1212Y497D02*
X1219Y497D01*
X0Y496D02*
X7Y496D01*
X14Y496D02*
X25Y496D01*
X57Y496D02*
X68Y496D01*
X316Y496D02*
X328Y496D01*
X360Y496D02*
X371Y496D01*
X1212Y496D02*
X1219Y496D01*
X0Y495D02*
X7Y495D01*
X14Y495D02*
X25Y495D01*
X57Y495D02*
X68Y495D01*
X316Y495D02*
X328Y495D01*
X360Y495D02*
X371Y495D01*
X1212Y495D02*
X1219Y495D01*
X0Y494D02*
X7Y494D01*
X14Y494D02*
X25Y494D01*
X57Y494D02*
X68Y494D01*
X316Y494D02*
X328Y494D01*
X360Y494D02*
X371Y494D01*
X1212Y494D02*
X1219Y494D01*
X0Y493D02*
X7Y493D01*
X14Y493D02*
X25Y493D01*
X57Y493D02*
X68Y493D01*
X316Y493D02*
X328Y493D01*
X360Y493D02*
X371Y493D01*
X1212Y493D02*
X1219Y493D01*
X0Y492D02*
X7Y492D01*
X14Y492D02*
X25Y492D01*
X57Y492D02*
X68Y492D01*
X316Y492D02*
X328Y492D01*
X360Y492D02*
X371Y492D01*
X1212Y492D02*
X1219Y492D01*
X0Y491D02*
X7Y491D01*
X14Y491D02*
X25Y491D01*
X57Y491D02*
X68Y491D01*
X316Y491D02*
X328Y491D01*
X360Y491D02*
X371Y491D01*
X1212Y491D02*
X1219Y491D01*
X0Y490D02*
X7Y490D01*
X14Y490D02*
X25Y490D01*
X57Y490D02*
X68Y490D01*
X316Y490D02*
X328Y490D01*
X360Y490D02*
X371Y490D01*
X1212Y490D02*
X1219Y490D01*
X0Y489D02*
X7Y489D01*
X14Y489D02*
X25Y489D01*
X57Y489D02*
X68Y489D01*
X316Y489D02*
X328Y489D01*
X360Y489D02*
X371Y489D01*
X1212Y489D02*
X1219Y489D01*
X0Y488D02*
X7Y488D01*
X14Y488D02*
X25Y488D01*
X57Y488D02*
X68Y488D01*
X316Y488D02*
X328Y488D01*
X360Y488D02*
X371Y488D01*
X1212Y488D02*
X1219Y488D01*
X0Y487D02*
X7Y487D01*
X14Y487D02*
X25Y487D01*
X57Y487D02*
X68Y487D01*
X316Y487D02*
X328Y487D01*
X360Y487D02*
X371Y487D01*
X1212Y487D02*
X1219Y487D01*
X0Y486D02*
X7Y486D01*
X14Y486D02*
X25Y486D01*
X57Y486D02*
X68Y486D01*
X316Y486D02*
X328Y486D01*
X360Y486D02*
X371Y486D01*
X1212Y486D02*
X1219Y486D01*
X0Y485D02*
X7Y485D01*
X14Y485D02*
X25Y485D01*
X57Y485D02*
X68Y485D01*
X316Y485D02*
X328Y485D01*
X360Y485D02*
X371Y485D01*
X1212Y485D02*
X1219Y485D01*
X0Y484D02*
X7Y484D01*
X14Y484D02*
X25Y484D01*
X57Y484D02*
X68Y484D01*
X316Y484D02*
X328Y484D01*
X360Y484D02*
X371Y484D01*
X1212Y484D02*
X1219Y484D01*
X0Y483D02*
X7Y483D01*
X14Y483D02*
X25Y483D01*
X57Y483D02*
X68Y483D01*
X316Y483D02*
X328Y483D01*
X360Y483D02*
X371Y483D01*
X1212Y483D02*
X1219Y483D01*
X0Y482D02*
X7Y482D01*
X14Y482D02*
X25Y482D01*
X57Y482D02*
X68Y482D01*
X316Y482D02*
X328Y482D01*
X360Y482D02*
X371Y482D01*
X1212Y482D02*
X1219Y482D01*
X0Y481D02*
X7Y481D01*
X14Y481D02*
X25Y481D01*
X57Y481D02*
X68Y481D01*
X316Y481D02*
X328Y481D01*
X360Y481D02*
X371Y481D01*
X1212Y481D02*
X1219Y481D01*
X0Y480D02*
X7Y480D01*
X14Y480D02*
X25Y480D01*
X57Y480D02*
X68Y480D01*
X316Y480D02*
X328Y480D01*
X360Y480D02*
X371Y480D01*
X1212Y480D02*
X1219Y480D01*
X0Y479D02*
X7Y479D01*
X14Y479D02*
X25Y479D01*
X57Y479D02*
X68Y479D01*
X316Y479D02*
X328Y479D01*
X360Y479D02*
X371Y479D01*
X1212Y479D02*
X1219Y479D01*
X0Y478D02*
X7Y478D01*
X14Y478D02*
X25Y478D01*
X57Y478D02*
X68Y478D01*
X316Y478D02*
X328Y478D01*
X360Y478D02*
X371Y478D01*
X1212Y478D02*
X1219Y478D01*
X0Y477D02*
X7Y477D01*
X14Y477D02*
X25Y477D01*
X57Y477D02*
X68Y477D01*
X316Y477D02*
X328Y477D01*
X360Y477D02*
X371Y477D01*
X1212Y477D02*
X1219Y477D01*
X0Y476D02*
X7Y476D01*
X14Y476D02*
X25Y476D01*
X316Y476D02*
X328Y476D01*
X360Y476D02*
X371Y476D01*
X1212Y476D02*
X1219Y476D01*
X0Y475D02*
X7Y475D01*
X14Y475D02*
X25Y475D01*
X316Y475D02*
X328Y475D01*
X360Y475D02*
X371Y475D01*
X1212Y475D02*
X1219Y475D01*
X0Y474D02*
X7Y474D01*
X14Y474D02*
X25Y474D01*
X316Y474D02*
X328Y474D01*
X360Y474D02*
X371Y474D01*
X1212Y474D02*
X1219Y474D01*
X0Y473D02*
X7Y473D01*
X14Y473D02*
X25Y473D01*
X316Y473D02*
X328Y473D01*
X360Y473D02*
X371Y473D01*
X1212Y473D02*
X1219Y473D01*
X0Y472D02*
X7Y472D01*
X14Y472D02*
X25Y472D01*
X316Y472D02*
X328Y472D01*
X360Y472D02*
X371Y472D01*
X1212Y472D02*
X1219Y472D01*
X0Y471D02*
X7Y471D01*
X14Y471D02*
X25Y471D01*
X316Y471D02*
X328Y471D01*
X360Y471D02*
X371Y471D01*
X1212Y471D02*
X1219Y471D01*
X0Y470D02*
X7Y470D01*
X14Y470D02*
X25Y470D01*
X316Y470D02*
X328Y470D01*
X360Y470D02*
X371Y470D01*
X1212Y470D02*
X1219Y470D01*
X0Y469D02*
X7Y469D01*
X14Y469D02*
X25Y469D01*
X316Y469D02*
X328Y469D01*
X360Y469D02*
X371Y469D01*
X1212Y469D02*
X1219Y469D01*
X0Y468D02*
X7Y468D01*
X14Y468D02*
X25Y468D01*
X316Y468D02*
X328Y468D01*
X360Y468D02*
X371Y468D01*
X1212Y468D02*
X1219Y468D01*
X0Y467D02*
X7Y467D01*
X14Y467D02*
X25Y467D01*
X316Y467D02*
X328Y467D01*
X360Y467D02*
X371Y467D01*
X1212Y467D02*
X1219Y467D01*
X0Y466D02*
X7Y466D01*
X14Y466D02*
X25Y466D01*
X316Y466D02*
X328Y466D01*
X360Y466D02*
X371Y466D01*
X1212Y466D02*
X1219Y466D01*
X0Y465D02*
X7Y465D01*
X14Y465D02*
X25Y465D01*
X316Y465D02*
X328Y465D01*
X360Y465D02*
X371Y465D01*
X1212Y465D02*
X1219Y465D01*
X0Y464D02*
X7Y464D01*
X14Y464D02*
X25Y464D01*
X316Y464D02*
X328Y464D01*
X360Y464D02*
X371Y464D01*
X1212Y464D02*
X1219Y464D01*
X0Y463D02*
X7Y463D01*
X14Y463D02*
X25Y463D01*
X316Y463D02*
X328Y463D01*
X360Y463D02*
X371Y463D01*
X1212Y463D02*
X1219Y463D01*
X0Y462D02*
X7Y462D01*
X14Y462D02*
X25Y462D01*
X316Y462D02*
X328Y462D01*
X360Y462D02*
X371Y462D01*
X1212Y462D02*
X1219Y462D01*
X0Y461D02*
X7Y461D01*
X14Y461D02*
X25Y461D01*
X316Y461D02*
X328Y461D01*
X360Y461D02*
X371Y461D01*
X1212Y461D02*
X1219Y461D01*
X0Y460D02*
X7Y460D01*
X14Y460D02*
X25Y460D01*
X316Y460D02*
X328Y460D01*
X360Y460D02*
X371Y460D01*
X1212Y460D02*
X1219Y460D01*
X0Y459D02*
X7Y459D01*
X14Y459D02*
X25Y459D01*
X316Y459D02*
X328Y459D01*
X360Y459D02*
X371Y459D01*
X1212Y459D02*
X1219Y459D01*
X0Y458D02*
X7Y458D01*
X14Y458D02*
X25Y458D01*
X316Y458D02*
X328Y458D01*
X360Y458D02*
X371Y458D01*
X1212Y458D02*
X1219Y458D01*
X0Y457D02*
X7Y457D01*
X14Y457D02*
X25Y457D01*
X316Y457D02*
X328Y457D01*
X360Y457D02*
X371Y457D01*
X1212Y457D02*
X1219Y457D01*
X0Y456D02*
X7Y456D01*
X14Y456D02*
X25Y456D01*
X316Y456D02*
X328Y456D01*
X360Y456D02*
X371Y456D01*
X1212Y456D02*
X1219Y456D01*
X0Y455D02*
X7Y455D01*
X14Y455D02*
X25Y455D01*
X316Y455D02*
X328Y455D01*
X360Y455D02*
X371Y455D01*
X1212Y455D02*
X1219Y455D01*
X0Y454D02*
X7Y454D01*
X14Y454D02*
X25Y454D01*
X316Y454D02*
X328Y454D01*
X360Y454D02*
X371Y454D01*
X1212Y454D02*
X1219Y454D01*
X0Y453D02*
X7Y453D01*
X14Y453D02*
X25Y453D01*
X316Y453D02*
X328Y453D01*
X360Y453D02*
X371Y453D01*
X1212Y453D02*
X1219Y453D01*
X0Y452D02*
X7Y452D01*
X14Y452D02*
X25Y452D01*
X316Y452D02*
X328Y452D01*
X360Y452D02*
X371Y452D01*
X1212Y452D02*
X1219Y452D01*
X0Y451D02*
X7Y451D01*
X14Y451D02*
X25Y451D01*
X316Y451D02*
X328Y451D01*
X360Y451D02*
X371Y451D01*
X1212Y451D02*
X1219Y451D01*
X0Y450D02*
X7Y450D01*
X14Y450D02*
X25Y450D01*
X316Y450D02*
X328Y450D01*
X360Y450D02*
X371Y450D01*
X1212Y450D02*
X1219Y450D01*
X0Y449D02*
X7Y449D01*
X14Y449D02*
X25Y449D01*
X316Y449D02*
X328Y449D01*
X360Y449D02*
X371Y449D01*
X1212Y449D02*
X1219Y449D01*
X0Y448D02*
X7Y448D01*
X14Y448D02*
X25Y448D01*
X316Y448D02*
X328Y448D01*
X360Y448D02*
X371Y448D01*
X1212Y448D02*
X1219Y448D01*
X0Y447D02*
X7Y447D01*
X14Y447D02*
X25Y447D01*
X316Y447D02*
X328Y447D01*
X360Y447D02*
X371Y447D01*
X1212Y447D02*
X1219Y447D01*
X0Y446D02*
X7Y446D01*
X14Y446D02*
X25Y446D01*
X316Y446D02*
X328Y446D01*
X360Y446D02*
X371Y446D01*
X1212Y446D02*
X1219Y446D01*
X0Y445D02*
X7Y445D01*
X14Y445D02*
X25Y445D01*
X316Y445D02*
X328Y445D01*
X360Y445D02*
X371Y445D01*
X1212Y445D02*
X1219Y445D01*
X0Y444D02*
X7Y444D01*
X14Y444D02*
X25Y444D01*
X316Y444D02*
X328Y444D01*
X360Y444D02*
X371Y444D01*
X1212Y444D02*
X1219Y444D01*
X0Y443D02*
X7Y443D01*
X14Y443D02*
X25Y443D01*
X316Y443D02*
X328Y443D01*
X360Y443D02*
X371Y443D01*
X1212Y443D02*
X1219Y443D01*
X0Y442D02*
X7Y442D01*
X14Y442D02*
X25Y442D01*
X316Y442D02*
X328Y442D01*
X360Y442D02*
X371Y442D01*
X1212Y442D02*
X1219Y442D01*
X0Y441D02*
X7Y441D01*
X14Y441D02*
X25Y441D01*
X316Y441D02*
X328Y441D01*
X360Y441D02*
X371Y441D01*
X1212Y441D02*
X1219Y441D01*
X0Y440D02*
X7Y440D01*
X14Y440D02*
X25Y440D01*
X316Y440D02*
X328Y440D01*
X360Y440D02*
X371Y440D01*
X1212Y440D02*
X1219Y440D01*
X0Y439D02*
X7Y439D01*
X14Y439D02*
X25Y439D01*
X316Y439D02*
X328Y439D01*
X360Y439D02*
X371Y439D01*
X1212Y439D02*
X1219Y439D01*
X0Y438D02*
X7Y438D01*
X14Y438D02*
X25Y438D01*
X316Y438D02*
X328Y438D01*
X360Y438D02*
X371Y438D01*
X1212Y438D02*
X1219Y438D01*
X0Y437D02*
X7Y437D01*
X14Y437D02*
X25Y437D01*
X316Y437D02*
X328Y437D01*
X360Y437D02*
X371Y437D01*
X1212Y437D02*
X1219Y437D01*
X0Y436D02*
X7Y436D01*
X14Y436D02*
X25Y436D01*
X316Y436D02*
X328Y436D01*
X360Y436D02*
X371Y436D01*
X1212Y436D02*
X1219Y436D01*
X0Y435D02*
X7Y435D01*
X14Y435D02*
X25Y435D01*
X316Y435D02*
X328Y435D01*
X360Y435D02*
X371Y435D01*
X1212Y435D02*
X1219Y435D01*
X0Y434D02*
X7Y434D01*
X14Y434D02*
X25Y434D01*
X316Y434D02*
X328Y434D01*
X360Y434D02*
X371Y434D01*
X1212Y434D02*
X1219Y434D01*
X0Y433D02*
X7Y433D01*
X14Y433D02*
X25Y433D01*
X316Y433D02*
X328Y433D01*
X360Y433D02*
X371Y433D01*
X1212Y433D02*
X1219Y433D01*
X0Y432D02*
X7Y432D01*
X14Y432D02*
X25Y432D01*
X316Y432D02*
X328Y432D01*
X360Y432D02*
X371Y432D01*
X1212Y432D02*
X1219Y432D01*
X0Y431D02*
X7Y431D01*
X14Y431D02*
X25Y431D01*
X316Y431D02*
X328Y431D01*
X360Y431D02*
X371Y431D01*
X1212Y431D02*
X1219Y431D01*
X0Y430D02*
X7Y430D01*
X14Y430D02*
X25Y430D01*
X316Y430D02*
X328Y430D01*
X360Y430D02*
X371Y430D01*
X1212Y430D02*
X1219Y430D01*
X0Y429D02*
X7Y429D01*
X14Y429D02*
X25Y429D01*
X316Y429D02*
X328Y429D01*
X360Y429D02*
X371Y429D01*
X1212Y429D02*
X1219Y429D01*
X0Y428D02*
X7Y428D01*
X14Y428D02*
X25Y428D01*
X316Y428D02*
X328Y428D01*
X360Y428D02*
X371Y428D01*
X1212Y428D02*
X1219Y428D01*
X0Y427D02*
X7Y427D01*
X14Y427D02*
X25Y427D01*
X316Y427D02*
X328Y427D01*
X360Y427D02*
X371Y427D01*
X1212Y427D02*
X1219Y427D01*
X0Y426D02*
X7Y426D01*
X14Y426D02*
X25Y426D01*
X316Y426D02*
X328Y426D01*
X360Y426D02*
X371Y426D01*
X1212Y426D02*
X1219Y426D01*
X0Y425D02*
X7Y425D01*
X14Y425D02*
X25Y425D01*
X316Y425D02*
X328Y425D01*
X360Y425D02*
X371Y425D01*
X1212Y425D02*
X1219Y425D01*
X0Y424D02*
X7Y424D01*
X14Y424D02*
X25Y424D01*
X316Y424D02*
X328Y424D01*
X360Y424D02*
X371Y424D01*
X1212Y424D02*
X1219Y424D01*
X0Y423D02*
X7Y423D01*
X14Y423D02*
X25Y423D01*
X316Y423D02*
X328Y423D01*
X360Y423D02*
X371Y423D01*
X1212Y423D02*
X1219Y423D01*
X0Y422D02*
X7Y422D01*
X14Y422D02*
X25Y422D01*
X316Y422D02*
X328Y422D01*
X360Y422D02*
X371Y422D01*
X1212Y422D02*
X1219Y422D01*
X0Y421D02*
X7Y421D01*
X14Y421D02*
X25Y421D01*
X316Y421D02*
X328Y421D01*
X360Y421D02*
X371Y421D01*
X1212Y421D02*
X1219Y421D01*
X0Y420D02*
X7Y420D01*
X14Y420D02*
X25Y420D01*
X316Y420D02*
X328Y420D01*
X360Y420D02*
X371Y420D01*
X1212Y420D02*
X1219Y420D01*
X0Y419D02*
X7Y419D01*
X14Y419D02*
X25Y419D01*
X316Y419D02*
X328Y419D01*
X360Y419D02*
X371Y419D01*
X1212Y419D02*
X1219Y419D01*
X0Y418D02*
X7Y418D01*
X14Y418D02*
X25Y418D01*
X316Y418D02*
X328Y418D01*
X360Y418D02*
X371Y418D01*
X1212Y418D02*
X1219Y418D01*
X0Y417D02*
X7Y417D01*
X14Y417D02*
X25Y417D01*
X316Y417D02*
X328Y417D01*
X360Y417D02*
X371Y417D01*
X1212Y417D02*
X1219Y417D01*
X0Y416D02*
X7Y416D01*
X14Y416D02*
X25Y416D01*
X316Y416D02*
X328Y416D01*
X360Y416D02*
X371Y416D01*
X1212Y416D02*
X1219Y416D01*
X0Y415D02*
X7Y415D01*
X14Y415D02*
X25Y415D01*
X316Y415D02*
X328Y415D01*
X360Y415D02*
X371Y415D01*
X1212Y415D02*
X1219Y415D01*
X0Y414D02*
X7Y414D01*
X14Y414D02*
X25Y414D01*
X316Y414D02*
X328Y414D01*
X360Y414D02*
X371Y414D01*
X1212Y414D02*
X1219Y414D01*
X0Y413D02*
X7Y413D01*
X14Y413D02*
X25Y413D01*
X316Y413D02*
X328Y413D01*
X360Y413D02*
X371Y413D01*
X1212Y413D02*
X1219Y413D01*
X0Y412D02*
X7Y412D01*
X14Y412D02*
X25Y412D01*
X316Y412D02*
X328Y412D01*
X360Y412D02*
X371Y412D01*
X1212Y412D02*
X1219Y412D01*
X0Y411D02*
X7Y411D01*
X14Y411D02*
X25Y411D01*
X316Y411D02*
X328Y411D01*
X360Y411D02*
X371Y411D01*
X1212Y411D02*
X1219Y411D01*
X0Y410D02*
X7Y410D01*
X14Y410D02*
X25Y410D01*
X316Y410D02*
X328Y410D01*
X360Y410D02*
X371Y410D01*
X1212Y410D02*
X1219Y410D01*
X0Y409D02*
X7Y409D01*
X14Y409D02*
X25Y409D01*
X316Y409D02*
X328Y409D01*
X360Y409D02*
X371Y409D01*
X1212Y409D02*
X1219Y409D01*
X0Y408D02*
X7Y408D01*
X14Y408D02*
X25Y408D01*
X316Y408D02*
X328Y408D01*
X360Y408D02*
X371Y408D01*
X1212Y408D02*
X1219Y408D01*
X0Y407D02*
X7Y407D01*
X14Y407D02*
X25Y407D01*
X316Y407D02*
X328Y407D01*
X360Y407D02*
X371Y407D01*
X1212Y407D02*
X1219Y407D01*
X0Y406D02*
X7Y406D01*
X14Y406D02*
X25Y406D01*
X316Y406D02*
X328Y406D01*
X360Y406D02*
X371Y406D01*
X1212Y406D02*
X1219Y406D01*
X0Y405D02*
X7Y405D01*
X14Y405D02*
X25Y405D01*
X316Y405D02*
X328Y405D01*
X360Y405D02*
X371Y405D01*
X1212Y405D02*
X1219Y405D01*
X0Y404D02*
X7Y404D01*
X14Y404D02*
X25Y404D01*
X316Y404D02*
X328Y404D01*
X360Y404D02*
X371Y404D01*
X1212Y404D02*
X1219Y404D01*
X0Y403D02*
X7Y403D01*
X14Y403D02*
X25Y403D01*
X316Y403D02*
X328Y403D01*
X360Y403D02*
X371Y403D01*
X1212Y403D02*
X1219Y403D01*
X0Y402D02*
X7Y402D01*
X14Y402D02*
X25Y402D01*
X316Y402D02*
X328Y402D01*
X360Y402D02*
X371Y402D01*
X1212Y402D02*
X1219Y402D01*
X0Y401D02*
X7Y401D01*
X14Y401D02*
X25Y401D01*
X316Y401D02*
X328Y401D01*
X360Y401D02*
X371Y401D01*
X1212Y401D02*
X1219Y401D01*
X0Y400D02*
X7Y400D01*
X14Y400D02*
X25Y400D01*
X316Y400D02*
X328Y400D01*
X360Y400D02*
X371Y400D01*
X1212Y400D02*
X1219Y400D01*
X0Y399D02*
X7Y399D01*
X14Y399D02*
X25Y399D01*
X316Y399D02*
X328Y399D01*
X360Y399D02*
X371Y399D01*
X1212Y399D02*
X1219Y399D01*
X0Y398D02*
X7Y398D01*
X14Y398D02*
X25Y398D01*
X316Y398D02*
X328Y398D01*
X360Y398D02*
X371Y398D01*
X1212Y398D02*
X1219Y398D01*
X0Y397D02*
X7Y397D01*
X14Y397D02*
X25Y397D01*
X316Y397D02*
X328Y397D01*
X360Y397D02*
X371Y397D01*
X1212Y397D02*
X1219Y397D01*
X0Y396D02*
X7Y396D01*
X14Y396D02*
X25Y396D01*
X316Y396D02*
X328Y396D01*
X360Y396D02*
X371Y396D01*
X1212Y396D02*
X1219Y396D01*
X0Y395D02*
X7Y395D01*
X14Y395D02*
X25Y395D01*
X316Y395D02*
X328Y395D01*
X360Y395D02*
X371Y395D01*
X1212Y395D02*
X1219Y395D01*
X0Y394D02*
X7Y394D01*
X14Y394D02*
X25Y394D01*
X316Y394D02*
X328Y394D01*
X360Y394D02*
X371Y394D01*
X1212Y394D02*
X1219Y394D01*
X0Y393D02*
X7Y393D01*
X14Y393D02*
X25Y393D01*
X316Y393D02*
X328Y393D01*
X360Y393D02*
X371Y393D01*
X1212Y393D02*
X1219Y393D01*
X0Y392D02*
X7Y392D01*
X14Y392D02*
X25Y392D01*
X316Y392D02*
X328Y392D01*
X360Y392D02*
X371Y392D01*
X1212Y392D02*
X1219Y392D01*
X0Y391D02*
X7Y391D01*
X14Y391D02*
X25Y391D01*
X316Y391D02*
X328Y391D01*
X360Y391D02*
X371Y391D01*
X1212Y391D02*
X1219Y391D01*
X0Y390D02*
X7Y390D01*
X14Y390D02*
X25Y390D01*
X316Y390D02*
X328Y390D01*
X360Y390D02*
X371Y390D01*
X1212Y390D02*
X1219Y390D01*
X0Y389D02*
X7Y389D01*
X14Y389D02*
X25Y389D01*
X316Y389D02*
X328Y389D01*
X360Y389D02*
X371Y389D01*
X1212Y389D02*
X1219Y389D01*
X0Y388D02*
X7Y388D01*
X14Y388D02*
X25Y388D01*
X316Y388D02*
X328Y388D01*
X360Y388D02*
X371Y388D01*
X1212Y388D02*
X1219Y388D01*
X0Y387D02*
X7Y387D01*
X14Y387D02*
X25Y387D01*
X316Y387D02*
X328Y387D01*
X360Y387D02*
X371Y387D01*
X1212Y387D02*
X1219Y387D01*
X0Y386D02*
X7Y386D01*
X14Y386D02*
X25Y386D01*
X316Y386D02*
X328Y386D01*
X360Y386D02*
X371Y386D01*
X1212Y386D02*
X1219Y386D01*
X0Y385D02*
X7Y385D01*
X14Y385D02*
X25Y385D01*
X316Y385D02*
X328Y385D01*
X360Y385D02*
X371Y385D01*
X1212Y385D02*
X1219Y385D01*
X0Y384D02*
X7Y384D01*
X14Y384D02*
X25Y384D01*
X316Y384D02*
X328Y384D01*
X360Y384D02*
X371Y384D01*
X1212Y384D02*
X1219Y384D01*
X0Y383D02*
X7Y383D01*
X14Y383D02*
X25Y383D01*
X316Y383D02*
X328Y383D01*
X360Y383D02*
X371Y383D01*
X1212Y383D02*
X1219Y383D01*
X0Y382D02*
X7Y382D01*
X14Y382D02*
X25Y382D01*
X316Y382D02*
X328Y382D01*
X360Y382D02*
X371Y382D01*
X1212Y382D02*
X1219Y382D01*
X0Y381D02*
X7Y381D01*
X14Y381D02*
X25Y381D01*
X316Y381D02*
X328Y381D01*
X360Y381D02*
X371Y381D01*
X1212Y381D02*
X1219Y381D01*
X0Y380D02*
X7Y380D01*
X14Y380D02*
X25Y380D01*
X316Y380D02*
X328Y380D01*
X360Y380D02*
X371Y380D01*
X1212Y380D02*
X1219Y380D01*
X0Y379D02*
X7Y379D01*
X14Y379D02*
X25Y379D01*
X316Y379D02*
X328Y379D01*
X360Y379D02*
X371Y379D01*
X1212Y379D02*
X1219Y379D01*
X0Y378D02*
X7Y378D01*
X14Y378D02*
X25Y378D01*
X316Y378D02*
X328Y378D01*
X360Y378D02*
X371Y378D01*
X1212Y378D02*
X1219Y378D01*
X0Y377D02*
X7Y377D01*
X14Y377D02*
X25Y377D01*
X316Y377D02*
X328Y377D01*
X360Y377D02*
X371Y377D01*
X1212Y377D02*
X1219Y377D01*
X0Y376D02*
X7Y376D01*
X14Y376D02*
X25Y376D01*
X316Y376D02*
X328Y376D01*
X360Y376D02*
X371Y376D01*
X1212Y376D02*
X1219Y376D01*
X0Y375D02*
X7Y375D01*
X14Y375D02*
X25Y375D01*
X316Y375D02*
X328Y375D01*
X360Y375D02*
X371Y375D01*
X1212Y375D02*
X1219Y375D01*
X0Y374D02*
X7Y374D01*
X14Y374D02*
X25Y374D01*
X316Y374D02*
X328Y374D01*
X360Y374D02*
X371Y374D01*
X1212Y374D02*
X1219Y374D01*
X0Y373D02*
X7Y373D01*
X14Y373D02*
X25Y373D01*
X316Y373D02*
X328Y373D01*
X360Y373D02*
X371Y373D01*
X1212Y373D02*
X1219Y373D01*
X0Y372D02*
X7Y372D01*
X14Y372D02*
X25Y372D01*
X316Y372D02*
X328Y372D01*
X360Y372D02*
X371Y372D01*
X1212Y372D02*
X1219Y372D01*
X0Y371D02*
X7Y371D01*
X14Y371D02*
X25Y371D01*
X316Y371D02*
X328Y371D01*
X360Y371D02*
X371Y371D01*
X1212Y371D02*
X1219Y371D01*
X0Y370D02*
X7Y370D01*
X14Y370D02*
X25Y370D01*
X316Y370D02*
X328Y370D01*
X360Y370D02*
X371Y370D01*
X1212Y370D02*
X1219Y370D01*
X0Y369D02*
X7Y369D01*
X14Y369D02*
X25Y369D01*
X316Y369D02*
X328Y369D01*
X360Y369D02*
X371Y369D01*
X1212Y369D02*
X1219Y369D01*
X0Y368D02*
X7Y368D01*
X14Y368D02*
X25Y368D01*
X316Y368D02*
X328Y368D01*
X360Y368D02*
X371Y368D01*
X1212Y368D02*
X1219Y368D01*
X0Y367D02*
X7Y367D01*
X14Y367D02*
X25Y367D01*
X316Y367D02*
X328Y367D01*
X360Y367D02*
X371Y367D01*
X1212Y367D02*
X1219Y367D01*
X0Y366D02*
X7Y366D01*
X14Y366D02*
X25Y366D01*
X316Y366D02*
X328Y366D01*
X360Y366D02*
X371Y366D01*
X1212Y366D02*
X1219Y366D01*
X0Y365D02*
X7Y365D01*
X14Y365D02*
X25Y365D01*
X316Y365D02*
X328Y365D01*
X360Y365D02*
X371Y365D01*
X1212Y365D02*
X1219Y365D01*
X0Y364D02*
X7Y364D01*
X14Y364D02*
X25Y364D01*
X316Y364D02*
X328Y364D01*
X360Y364D02*
X371Y364D01*
X1212Y364D02*
X1219Y364D01*
X0Y363D02*
X7Y363D01*
X14Y363D02*
X25Y363D01*
X316Y363D02*
X328Y363D01*
X360Y363D02*
X371Y363D01*
X1212Y363D02*
X1219Y363D01*
X0Y362D02*
X7Y362D01*
X14Y362D02*
X25Y362D01*
X316Y362D02*
X328Y362D01*
X360Y362D02*
X371Y362D01*
X1212Y362D02*
X1219Y362D01*
X0Y361D02*
X7Y361D01*
X14Y361D02*
X25Y361D01*
X316Y361D02*
X328Y361D01*
X360Y361D02*
X371Y361D01*
X1212Y361D02*
X1219Y361D01*
X0Y360D02*
X7Y360D01*
X14Y360D02*
X25Y360D01*
X316Y360D02*
X328Y360D01*
X360Y360D02*
X371Y360D01*
X1212Y360D02*
X1219Y360D01*
X0Y359D02*
X7Y359D01*
X14Y359D02*
X25Y359D01*
X316Y359D02*
X328Y359D01*
X360Y359D02*
X371Y359D01*
X1212Y359D02*
X1219Y359D01*
X0Y358D02*
X7Y358D01*
X14Y358D02*
X25Y358D01*
X316Y358D02*
X328Y358D01*
X360Y358D02*
X371Y358D01*
X1212Y358D02*
X1219Y358D01*
X0Y357D02*
X7Y357D01*
X14Y357D02*
X25Y357D01*
X316Y357D02*
X328Y357D01*
X360Y357D02*
X371Y357D01*
X1212Y357D02*
X1219Y357D01*
X0Y356D02*
X7Y356D01*
X14Y356D02*
X25Y356D01*
X316Y356D02*
X328Y356D01*
X360Y356D02*
X371Y356D01*
X1212Y356D02*
X1219Y356D01*
X0Y355D02*
X7Y355D01*
X14Y355D02*
X25Y355D01*
X316Y355D02*
X328Y355D01*
X360Y355D02*
X371Y355D01*
X1212Y355D02*
X1219Y355D01*
X0Y354D02*
X7Y354D01*
X14Y354D02*
X25Y354D01*
X316Y354D02*
X328Y354D01*
X360Y354D02*
X371Y354D01*
X1212Y354D02*
X1219Y354D01*
X0Y353D02*
X7Y353D01*
X14Y353D02*
X25Y353D01*
X316Y353D02*
X328Y353D01*
X360Y353D02*
X371Y353D01*
X1212Y353D02*
X1219Y353D01*
X0Y352D02*
X7Y352D01*
X14Y352D02*
X25Y352D01*
X316Y352D02*
X328Y352D01*
X360Y352D02*
X371Y352D01*
X1212Y352D02*
X1219Y352D01*
X0Y351D02*
X7Y351D01*
X14Y351D02*
X25Y351D01*
X316Y351D02*
X328Y351D01*
X360Y351D02*
X371Y351D01*
X1212Y351D02*
X1219Y351D01*
X0Y350D02*
X7Y350D01*
X14Y350D02*
X25Y350D01*
X316Y350D02*
X328Y350D01*
X360Y350D02*
X371Y350D01*
X1212Y350D02*
X1219Y350D01*
X0Y349D02*
X7Y349D01*
X14Y349D02*
X25Y349D01*
X316Y349D02*
X328Y349D01*
X360Y349D02*
X371Y349D01*
X1212Y349D02*
X1219Y349D01*
X0Y348D02*
X7Y348D01*
X14Y348D02*
X25Y348D01*
X316Y348D02*
X328Y348D01*
X360Y348D02*
X371Y348D01*
X1212Y348D02*
X1219Y348D01*
X0Y347D02*
X7Y347D01*
X14Y347D02*
X25Y347D01*
X316Y347D02*
X328Y347D01*
X360Y347D02*
X371Y347D01*
X1212Y347D02*
X1219Y347D01*
X0Y346D02*
X7Y346D01*
X14Y346D02*
X25Y346D01*
X316Y346D02*
X328Y346D01*
X360Y346D02*
X371Y346D01*
X1212Y346D02*
X1219Y346D01*
X0Y345D02*
X7Y345D01*
X14Y345D02*
X25Y345D01*
X316Y345D02*
X328Y345D01*
X360Y345D02*
X371Y345D01*
X1212Y345D02*
X1219Y345D01*
X0Y344D02*
X7Y344D01*
X14Y344D02*
X25Y344D01*
X316Y344D02*
X328Y344D01*
X360Y344D02*
X371Y344D01*
X1212Y344D02*
X1219Y344D01*
X0Y343D02*
X7Y343D01*
X14Y343D02*
X25Y343D01*
X316Y343D02*
X328Y343D01*
X360Y343D02*
X371Y343D01*
X1212Y343D02*
X1219Y343D01*
X0Y342D02*
X7Y342D01*
X14Y342D02*
X25Y342D01*
X316Y342D02*
X328Y342D01*
X360Y342D02*
X371Y342D01*
X1212Y342D02*
X1219Y342D01*
X0Y341D02*
X7Y341D01*
X14Y341D02*
X25Y341D01*
X316Y341D02*
X328Y341D01*
X360Y341D02*
X371Y341D01*
X1212Y341D02*
X1219Y341D01*
X0Y340D02*
X7Y340D01*
X14Y340D02*
X25Y340D01*
X316Y340D02*
X328Y340D01*
X360Y340D02*
X371Y340D01*
X1212Y340D02*
X1219Y340D01*
X0Y339D02*
X7Y339D01*
X14Y339D02*
X25Y339D01*
X316Y339D02*
X328Y339D01*
X360Y339D02*
X371Y339D01*
X1212Y339D02*
X1219Y339D01*
X0Y338D02*
X7Y338D01*
X14Y338D02*
X25Y338D01*
X316Y338D02*
X328Y338D01*
X360Y338D02*
X371Y338D01*
X1212Y338D02*
X1219Y338D01*
X0Y337D02*
X7Y337D01*
X14Y337D02*
X25Y337D01*
X316Y337D02*
X328Y337D01*
X360Y337D02*
X371Y337D01*
X1212Y337D02*
X1219Y337D01*
X0Y336D02*
X7Y336D01*
X14Y336D02*
X25Y336D01*
X316Y336D02*
X328Y336D01*
X360Y336D02*
X371Y336D01*
X1212Y336D02*
X1219Y336D01*
X0Y335D02*
X7Y335D01*
X14Y335D02*
X25Y335D01*
X316Y335D02*
X328Y335D01*
X360Y335D02*
X371Y335D01*
X1212Y335D02*
X1219Y335D01*
X0Y334D02*
X7Y334D01*
X14Y334D02*
X25Y334D01*
X316Y334D02*
X328Y334D01*
X360Y334D02*
X371Y334D01*
X1212Y334D02*
X1219Y334D01*
X0Y333D02*
X7Y333D01*
X14Y333D02*
X25Y333D01*
X316Y333D02*
X328Y333D01*
X360Y333D02*
X371Y333D01*
X1212Y333D02*
X1219Y333D01*
X0Y332D02*
X7Y332D01*
X14Y332D02*
X25Y332D01*
X316Y332D02*
X328Y332D01*
X360Y332D02*
X371Y332D01*
X1212Y332D02*
X1219Y332D01*
X0Y331D02*
X7Y331D01*
X14Y331D02*
X25Y331D01*
X316Y331D02*
X328Y331D01*
X360Y331D02*
X371Y331D01*
X1212Y331D02*
X1219Y331D01*
X0Y330D02*
X7Y330D01*
X14Y330D02*
X25Y330D01*
X316Y330D02*
X328Y330D01*
X360Y330D02*
X371Y330D01*
X1212Y330D02*
X1219Y330D01*
X0Y329D02*
X7Y329D01*
X14Y329D02*
X25Y329D01*
X316Y329D02*
X328Y329D01*
X360Y329D02*
X371Y329D01*
X1212Y329D02*
X1219Y329D01*
X0Y328D02*
X7Y328D01*
X14Y328D02*
X25Y328D01*
X316Y328D02*
X328Y328D01*
X360Y328D02*
X371Y328D01*
X677Y328D02*
X684Y328D01*
X707Y328D02*
X710Y328D01*
X1212Y328D02*
X1219Y328D01*
X0Y327D02*
X7Y327D01*
X14Y327D02*
X25Y327D01*
X316Y327D02*
X328Y327D01*
X360Y327D02*
X371Y327D01*
X676Y327D02*
X685Y327D01*
X706Y327D02*
X711Y327D01*
X1212Y327D02*
X1219Y327D01*
X0Y326D02*
X7Y326D01*
X14Y326D02*
X25Y326D01*
X316Y326D02*
X328Y326D01*
X360Y326D02*
X371Y326D01*
X676Y326D02*
X685Y326D01*
X705Y326D02*
X711Y326D01*
X1212Y326D02*
X1219Y326D01*
X0Y325D02*
X7Y325D01*
X14Y325D02*
X25Y325D01*
X316Y325D02*
X328Y325D01*
X360Y325D02*
X371Y325D01*
X676Y325D02*
X685Y325D01*
X705Y325D02*
X711Y325D01*
X1212Y325D02*
X1219Y325D01*
X0Y324D02*
X7Y324D01*
X14Y324D02*
X25Y324D01*
X316Y324D02*
X328Y324D01*
X360Y324D02*
X371Y324D01*
X676Y324D02*
X685Y324D01*
X705Y324D02*
X711Y324D01*
X876Y324D02*
X879Y324D01*
X1212Y324D02*
X1219Y324D01*
X0Y323D02*
X7Y323D01*
X14Y323D02*
X25Y323D01*
X316Y323D02*
X328Y323D01*
X360Y323D02*
X371Y323D01*
X677Y323D02*
X685Y323D01*
X705Y323D02*
X711Y323D01*
X875Y323D02*
X880Y323D01*
X1212Y323D02*
X1219Y323D01*
X0Y322D02*
X7Y322D01*
X14Y322D02*
X25Y322D01*
X316Y322D02*
X328Y322D01*
X360Y322D02*
X371Y322D01*
X679Y322D02*
X685Y322D01*
X705Y322D02*
X711Y322D01*
X875Y322D02*
X880Y322D01*
X1212Y322D02*
X1219Y322D01*
X0Y321D02*
X7Y321D01*
X14Y321D02*
X25Y321D01*
X316Y321D02*
X328Y321D01*
X360Y321D02*
X371Y321D01*
X679Y321D02*
X685Y321D01*
X705Y321D02*
X711Y321D01*
X875Y321D02*
X881Y321D01*
X1212Y321D02*
X1219Y321D01*
X0Y320D02*
X7Y320D01*
X14Y320D02*
X25Y320D01*
X316Y320D02*
X328Y320D01*
X360Y320D02*
X371Y320D01*
X679Y320D02*
X685Y320D01*
X705Y320D02*
X711Y320D01*
X875Y320D02*
X881Y320D01*
X1212Y320D02*
X1219Y320D01*
X0Y319D02*
X7Y319D01*
X14Y319D02*
X25Y319D01*
X316Y319D02*
X328Y319D01*
X360Y319D02*
X371Y319D01*
X679Y319D02*
X685Y319D01*
X705Y319D02*
X711Y319D01*
X848Y319D02*
X848Y319D01*
X875Y319D02*
X881Y319D01*
X1212Y319D02*
X1219Y319D01*
X0Y318D02*
X7Y318D01*
X14Y318D02*
X25Y318D01*
X316Y318D02*
X328Y318D01*
X360Y318D02*
X371Y318D01*
X679Y318D02*
X685Y318D01*
X705Y318D02*
X711Y318D01*
X846Y318D02*
X848Y318D01*
X875Y318D02*
X881Y318D01*
X1212Y318D02*
X1219Y318D01*
X0Y317D02*
X7Y317D01*
X14Y317D02*
X25Y317D01*
X316Y317D02*
X328Y317D01*
X360Y317D02*
X371Y317D01*
X679Y317D02*
X685Y317D01*
X705Y317D02*
X711Y317D01*
X844Y317D02*
X848Y317D01*
X875Y317D02*
X881Y317D01*
X1212Y317D02*
X1219Y317D01*
X0Y316D02*
X7Y316D01*
X14Y316D02*
X25Y316D01*
X316Y316D02*
X328Y316D01*
X360Y316D02*
X371Y316D01*
X679Y316D02*
X685Y316D01*
X705Y316D02*
X711Y316D01*
X842Y316D02*
X848Y316D01*
X875Y316D02*
X881Y316D01*
X1212Y316D02*
X1219Y316D01*
X0Y315D02*
X7Y315D01*
X14Y315D02*
X25Y315D01*
X316Y315D02*
X328Y315D01*
X360Y315D02*
X371Y315D01*
X679Y315D02*
X685Y315D01*
X705Y315D02*
X711Y315D01*
X842Y315D02*
X848Y315D01*
X875Y315D02*
X881Y315D01*
X1212Y315D02*
X1219Y315D01*
X0Y314D02*
X7Y314D01*
X14Y314D02*
X25Y314D01*
X316Y314D02*
X328Y314D01*
X360Y314D02*
X371Y314D01*
X679Y314D02*
X685Y314D01*
X705Y314D02*
X711Y314D01*
X842Y314D02*
X848Y314D01*
X875Y314D02*
X881Y314D01*
X1212Y314D02*
X1219Y314D01*
X0Y313D02*
X7Y313D01*
X14Y313D02*
X25Y313D01*
X316Y313D02*
X328Y313D01*
X360Y313D02*
X371Y313D01*
X679Y313D02*
X685Y313D01*
X705Y313D02*
X711Y313D01*
X842Y313D02*
X848Y313D01*
X875Y313D02*
X881Y313D01*
X1212Y313D02*
X1219Y313D01*
X0Y312D02*
X7Y312D01*
X14Y312D02*
X25Y312D01*
X316Y312D02*
X328Y312D01*
X360Y312D02*
X371Y312D01*
X679Y312D02*
X685Y312D01*
X705Y312D02*
X711Y312D01*
X842Y312D02*
X848Y312D01*
X875Y312D02*
X881Y312D01*
X1212Y312D02*
X1219Y312D01*
X0Y311D02*
X7Y311D01*
X14Y311D02*
X25Y311D01*
X57Y311D02*
X68Y311D01*
X316Y311D02*
X328Y311D01*
X360Y311D02*
X371Y311D01*
X679Y311D02*
X685Y311D01*
X705Y311D02*
X711Y311D01*
X842Y311D02*
X848Y311D01*
X875Y311D02*
X881Y311D01*
X1212Y311D02*
X1219Y311D01*
X0Y310D02*
X7Y310D01*
X14Y310D02*
X25Y310D01*
X57Y310D02*
X68Y310D01*
X316Y310D02*
X328Y310D01*
X360Y310D02*
X371Y310D01*
X679Y310D02*
X685Y310D01*
X705Y310D02*
X711Y310D01*
X842Y310D02*
X848Y310D01*
X875Y310D02*
X881Y310D01*
X1212Y310D02*
X1219Y310D01*
X0Y309D02*
X7Y309D01*
X14Y309D02*
X25Y309D01*
X57Y309D02*
X68Y309D01*
X316Y309D02*
X328Y309D01*
X360Y309D02*
X371Y309D01*
X679Y309D02*
X685Y309D01*
X705Y309D02*
X711Y309D01*
X842Y309D02*
X848Y309D01*
X875Y309D02*
X881Y309D01*
X1212Y309D02*
X1219Y309D01*
X0Y308D02*
X7Y308D01*
X14Y308D02*
X25Y308D01*
X57Y308D02*
X68Y308D01*
X316Y308D02*
X328Y308D01*
X360Y308D02*
X371Y308D01*
X679Y308D02*
X685Y308D01*
X705Y308D02*
X711Y308D01*
X842Y308D02*
X848Y308D01*
X875Y308D02*
X881Y308D01*
X1212Y308D02*
X1219Y308D01*
X0Y307D02*
X7Y307D01*
X14Y307D02*
X25Y307D01*
X57Y307D02*
X68Y307D01*
X316Y307D02*
X328Y307D01*
X360Y307D02*
X371Y307D01*
X679Y307D02*
X685Y307D01*
X705Y307D02*
X711Y307D01*
X842Y307D02*
X848Y307D01*
X875Y307D02*
X881Y307D01*
X1212Y307D02*
X1219Y307D01*
X0Y306D02*
X7Y306D01*
X14Y306D02*
X25Y306D01*
X57Y306D02*
X68Y306D01*
X316Y306D02*
X328Y306D01*
X360Y306D02*
X371Y306D01*
X679Y306D02*
X685Y306D01*
X705Y306D02*
X711Y306D01*
X842Y306D02*
X848Y306D01*
X875Y306D02*
X881Y306D01*
X1212Y306D02*
X1219Y306D01*
X0Y305D02*
X7Y305D01*
X14Y305D02*
X25Y305D01*
X57Y305D02*
X68Y305D01*
X316Y305D02*
X328Y305D01*
X360Y305D02*
X371Y305D01*
X679Y305D02*
X685Y305D01*
X705Y305D02*
X711Y305D01*
X842Y305D02*
X848Y305D01*
X875Y305D02*
X881Y305D01*
X1212Y305D02*
X1219Y305D01*
X0Y304D02*
X7Y304D01*
X14Y304D02*
X25Y304D01*
X57Y304D02*
X68Y304D01*
X316Y304D02*
X328Y304D01*
X360Y304D02*
X371Y304D01*
X679Y304D02*
X685Y304D01*
X705Y304D02*
X711Y304D01*
X842Y304D02*
X848Y304D01*
X875Y304D02*
X881Y304D01*
X1212Y304D02*
X1219Y304D01*
X0Y303D02*
X7Y303D01*
X14Y303D02*
X25Y303D01*
X57Y303D02*
X68Y303D01*
X316Y303D02*
X328Y303D01*
X360Y303D02*
X371Y303D01*
X679Y303D02*
X685Y303D01*
X705Y303D02*
X711Y303D01*
X842Y303D02*
X848Y303D01*
X875Y303D02*
X881Y303D01*
X1212Y303D02*
X1219Y303D01*
X0Y302D02*
X7Y302D01*
X14Y302D02*
X25Y302D01*
X57Y302D02*
X68Y302D01*
X316Y302D02*
X328Y302D01*
X360Y302D02*
X371Y302D01*
X679Y302D02*
X685Y302D01*
X705Y302D02*
X711Y302D01*
X842Y302D02*
X848Y302D01*
X875Y302D02*
X881Y302D01*
X1212Y302D02*
X1219Y302D01*
X0Y301D02*
X7Y301D01*
X14Y301D02*
X25Y301D01*
X57Y301D02*
X68Y301D01*
X316Y301D02*
X328Y301D01*
X360Y301D02*
X371Y301D01*
X679Y301D02*
X685Y301D01*
X705Y301D02*
X711Y301D01*
X826Y301D02*
X848Y301D01*
X875Y301D02*
X881Y301D01*
X1212Y301D02*
X1219Y301D01*
X0Y300D02*
X7Y300D01*
X14Y300D02*
X25Y300D01*
X57Y300D02*
X68Y300D01*
X316Y300D02*
X328Y300D01*
X360Y300D02*
X371Y300D01*
X679Y300D02*
X685Y300D01*
X705Y300D02*
X711Y300D01*
X824Y300D02*
X848Y300D01*
X875Y300D02*
X881Y300D01*
X1212Y300D02*
X1219Y300D01*
X0Y299D02*
X7Y299D01*
X14Y299D02*
X25Y299D01*
X57Y299D02*
X68Y299D01*
X316Y299D02*
X328Y299D01*
X360Y299D02*
X371Y299D01*
X654Y299D02*
X685Y299D01*
X705Y299D02*
X711Y299D01*
X728Y299D02*
X730Y299D01*
X823Y299D02*
X848Y299D01*
X875Y299D02*
X881Y299D01*
X1212Y299D02*
X1219Y299D01*
X0Y298D02*
X7Y298D01*
X14Y298D02*
X25Y298D01*
X57Y298D02*
X68Y298D01*
X316Y298D02*
X328Y298D01*
X360Y298D02*
X371Y298D01*
X653Y298D02*
X685Y298D01*
X705Y298D02*
X711Y298D01*
X727Y298D02*
X731Y298D01*
X822Y298D02*
X848Y298D01*
X875Y298D02*
X881Y298D01*
X1212Y298D02*
X1219Y298D01*
X0Y297D02*
X7Y297D01*
X14Y297D02*
X25Y297D01*
X57Y297D02*
X68Y297D01*
X316Y297D02*
X328Y297D01*
X360Y297D02*
X371Y297D01*
X652Y297D02*
X685Y297D01*
X705Y297D02*
X711Y297D01*
X726Y297D02*
X732Y297D01*
X822Y297D02*
X848Y297D01*
X875Y297D02*
X881Y297D01*
X1212Y297D02*
X1219Y297D01*
X0Y296D02*
X7Y296D01*
X14Y296D02*
X25Y296D01*
X57Y296D02*
X68Y296D01*
X316Y296D02*
X328Y296D01*
X360Y296D02*
X371Y296D01*
X652Y296D02*
X685Y296D01*
X705Y296D02*
X711Y296D01*
X726Y296D02*
X732Y296D01*
X821Y296D02*
X848Y296D01*
X875Y296D02*
X881Y296D01*
X1212Y296D02*
X1219Y296D01*
X0Y295D02*
X7Y295D01*
X14Y295D02*
X25Y295D01*
X57Y295D02*
X68Y295D01*
X316Y295D02*
X328Y295D01*
X360Y295D02*
X371Y295D01*
X652Y295D02*
X685Y295D01*
X705Y295D02*
X711Y295D01*
X726Y295D02*
X732Y295D01*
X821Y295D02*
X848Y295D01*
X875Y295D02*
X881Y295D01*
X897Y295D02*
X899Y295D01*
X1212Y295D02*
X1219Y295D01*
X0Y294D02*
X7Y294D01*
X14Y294D02*
X25Y294D01*
X57Y294D02*
X68Y294D01*
X316Y294D02*
X328Y294D01*
X360Y294D02*
X371Y294D01*
X652Y294D02*
X685Y294D01*
X705Y294D02*
X711Y294D01*
X726Y294D02*
X732Y294D01*
X821Y294D02*
X827Y294D01*
X875Y294D02*
X881Y294D01*
X896Y294D02*
X900Y294D01*
X1212Y294D02*
X1219Y294D01*
X0Y293D02*
X7Y293D01*
X14Y293D02*
X25Y293D01*
X57Y293D02*
X68Y293D01*
X316Y293D02*
X328Y293D01*
X360Y293D02*
X371Y293D01*
X652Y293D02*
X685Y293D01*
X705Y293D02*
X711Y293D01*
X726Y293D02*
X732Y293D01*
X821Y293D02*
X827Y293D01*
X875Y293D02*
X881Y293D01*
X895Y293D02*
X901Y293D01*
X1212Y293D02*
X1219Y293D01*
X0Y292D02*
X7Y292D01*
X14Y292D02*
X25Y292D01*
X57Y292D02*
X68Y292D01*
X316Y292D02*
X328Y292D01*
X360Y292D02*
X371Y292D01*
X652Y292D02*
X658Y292D01*
X679Y292D02*
X685Y292D01*
X705Y292D02*
X711Y292D01*
X726Y292D02*
X732Y292D01*
X821Y292D02*
X827Y292D01*
X875Y292D02*
X881Y292D01*
X895Y292D02*
X901Y292D01*
X1212Y292D02*
X1219Y292D01*
X0Y291D02*
X7Y291D01*
X14Y291D02*
X25Y291D01*
X57Y291D02*
X68Y291D01*
X316Y291D02*
X328Y291D01*
X360Y291D02*
X371Y291D01*
X652Y291D02*
X658Y291D01*
X679Y291D02*
X685Y291D01*
X705Y291D02*
X711Y291D01*
X726Y291D02*
X732Y291D01*
X821Y291D02*
X827Y291D01*
X875Y291D02*
X881Y291D01*
X895Y291D02*
X901Y291D01*
X1212Y291D02*
X1219Y291D01*
X0Y290D02*
X7Y290D01*
X14Y290D02*
X25Y290D01*
X57Y290D02*
X68Y290D01*
X316Y290D02*
X328Y290D01*
X360Y290D02*
X371Y290D01*
X652Y290D02*
X658Y290D01*
X679Y290D02*
X685Y290D01*
X705Y290D02*
X711Y290D01*
X726Y290D02*
X732Y290D01*
X821Y290D02*
X827Y290D01*
X875Y290D02*
X881Y290D01*
X895Y290D02*
X901Y290D01*
X1212Y290D02*
X1219Y290D01*
X0Y289D02*
X7Y289D01*
X14Y289D02*
X25Y289D01*
X57Y289D02*
X68Y289D01*
X316Y289D02*
X328Y289D01*
X360Y289D02*
X371Y289D01*
X652Y289D02*
X658Y289D01*
X679Y289D02*
X685Y289D01*
X705Y289D02*
X711Y289D01*
X726Y289D02*
X732Y289D01*
X821Y289D02*
X827Y289D01*
X875Y289D02*
X881Y289D01*
X895Y289D02*
X901Y289D01*
X1212Y289D02*
X1219Y289D01*
X0Y288D02*
X7Y288D01*
X14Y288D02*
X25Y288D01*
X57Y288D02*
X68Y288D01*
X316Y288D02*
X328Y288D01*
X360Y288D02*
X371Y288D01*
X652Y288D02*
X658Y288D01*
X679Y288D02*
X685Y288D01*
X705Y288D02*
X711Y288D01*
X726Y288D02*
X732Y288D01*
X821Y288D02*
X827Y288D01*
X875Y288D02*
X881Y288D01*
X895Y288D02*
X901Y288D01*
X1212Y288D02*
X1219Y288D01*
X0Y287D02*
X7Y287D01*
X14Y287D02*
X25Y287D01*
X57Y287D02*
X68Y287D01*
X316Y287D02*
X328Y287D01*
X360Y287D02*
X371Y287D01*
X652Y287D02*
X658Y287D01*
X679Y287D02*
X685Y287D01*
X705Y287D02*
X711Y287D01*
X726Y287D02*
X732Y287D01*
X821Y287D02*
X827Y287D01*
X875Y287D02*
X881Y287D01*
X895Y287D02*
X901Y287D01*
X1212Y287D02*
X1219Y287D01*
X0Y286D02*
X7Y286D01*
X14Y286D02*
X25Y286D01*
X57Y286D02*
X68Y286D01*
X316Y286D02*
X328Y286D01*
X360Y286D02*
X371Y286D01*
X652Y286D02*
X658Y286D01*
X679Y286D02*
X685Y286D01*
X705Y286D02*
X711Y286D01*
X726Y286D02*
X732Y286D01*
X821Y286D02*
X827Y286D01*
X875Y286D02*
X881Y286D01*
X895Y286D02*
X901Y286D01*
X1212Y286D02*
X1219Y286D01*
X0Y285D02*
X7Y285D01*
X14Y285D02*
X25Y285D01*
X57Y285D02*
X68Y285D01*
X316Y285D02*
X328Y285D01*
X360Y285D02*
X371Y285D01*
X652Y285D02*
X658Y285D01*
X679Y285D02*
X685Y285D01*
X705Y285D02*
X711Y285D01*
X726Y285D02*
X732Y285D01*
X821Y285D02*
X827Y285D01*
X875Y285D02*
X881Y285D01*
X895Y285D02*
X901Y285D01*
X1212Y285D02*
X1219Y285D01*
X0Y284D02*
X7Y284D01*
X14Y284D02*
X25Y284D01*
X57Y284D02*
X68Y284D01*
X316Y284D02*
X328Y284D01*
X360Y284D02*
X371Y284D01*
X652Y284D02*
X658Y284D01*
X679Y284D02*
X685Y284D01*
X705Y284D02*
X712Y284D01*
X726Y284D02*
X732Y284D01*
X821Y284D02*
X827Y284D01*
X875Y284D02*
X881Y284D01*
X895Y284D02*
X901Y284D01*
X1212Y284D02*
X1219Y284D01*
X0Y283D02*
X7Y283D01*
X14Y283D02*
X25Y283D01*
X57Y283D02*
X68Y283D01*
X316Y283D02*
X328Y283D01*
X360Y283D02*
X371Y283D01*
X652Y283D02*
X658Y283D01*
X679Y283D02*
X685Y283D01*
X706Y283D02*
X712Y283D01*
X725Y283D02*
X732Y283D01*
X821Y283D02*
X827Y283D01*
X875Y283D02*
X881Y283D01*
X895Y283D02*
X901Y283D01*
X1212Y283D02*
X1219Y283D01*
X0Y282D02*
X7Y282D01*
X14Y282D02*
X25Y282D01*
X57Y282D02*
X68Y282D01*
X316Y282D02*
X328Y282D01*
X360Y282D02*
X371Y282D01*
X652Y282D02*
X658Y282D01*
X679Y282D02*
X685Y282D01*
X706Y282D02*
X714Y282D01*
X724Y282D02*
X731Y282D01*
X821Y282D02*
X827Y282D01*
X875Y282D02*
X881Y282D01*
X895Y282D02*
X901Y282D01*
X1212Y282D02*
X1219Y282D01*
X0Y281D02*
X7Y281D01*
X14Y281D02*
X25Y281D01*
X57Y281D02*
X68Y281D01*
X316Y281D02*
X328Y281D01*
X360Y281D02*
X371Y281D01*
X652Y281D02*
X685Y281D01*
X706Y281D02*
X731Y281D01*
X821Y281D02*
X827Y281D01*
X875Y281D02*
X881Y281D01*
X895Y281D02*
X901Y281D01*
X1212Y281D02*
X1219Y281D01*
X0Y280D02*
X7Y280D01*
X14Y280D02*
X25Y280D01*
X57Y280D02*
X68Y280D01*
X316Y280D02*
X328Y280D01*
X360Y280D02*
X371Y280D01*
X652Y280D02*
X685Y280D01*
X707Y280D02*
X731Y280D01*
X821Y280D02*
X827Y280D01*
X850Y280D02*
X853Y280D01*
X875Y280D02*
X881Y280D01*
X895Y280D02*
X901Y280D01*
X1212Y280D02*
X1219Y280D01*
X0Y279D02*
X7Y279D01*
X14Y279D02*
X25Y279D01*
X57Y279D02*
X68Y279D01*
X316Y279D02*
X328Y279D01*
X360Y279D02*
X371Y279D01*
X652Y279D02*
X685Y279D01*
X707Y279D02*
X730Y279D01*
X821Y279D02*
X827Y279D01*
X847Y279D02*
X854Y279D01*
X875Y279D02*
X881Y279D01*
X894Y279D02*
X901Y279D01*
X1212Y279D02*
X1219Y279D01*
X0Y278D02*
X7Y278D01*
X14Y278D02*
X25Y278D01*
X57Y278D02*
X68Y278D01*
X316Y278D02*
X328Y278D01*
X360Y278D02*
X371Y278D01*
X652Y278D02*
X685Y278D01*
X708Y278D02*
X729Y278D01*
X821Y278D02*
X827Y278D01*
X845Y278D02*
X854Y278D01*
X875Y278D02*
X883Y278D01*
X893Y278D02*
X901Y278D01*
X1212Y278D02*
X1219Y278D01*
X0Y277D02*
X7Y277D01*
X14Y277D02*
X25Y277D01*
X57Y277D02*
X68Y277D01*
X316Y277D02*
X328Y277D01*
X360Y277D02*
X371Y277D01*
X652Y277D02*
X685Y277D01*
X709Y277D02*
X728Y277D01*
X821Y277D02*
X855Y277D01*
X875Y277D02*
X900Y277D01*
X1212Y277D02*
X1219Y277D01*
X0Y276D02*
X7Y276D01*
X14Y276D02*
X25Y276D01*
X57Y276D02*
X68Y276D01*
X316Y276D02*
X328Y276D01*
X360Y276D02*
X371Y276D01*
X653Y276D02*
X685Y276D01*
X711Y276D02*
X726Y276D01*
X821Y276D02*
X854Y276D01*
X876Y276D02*
X900Y276D01*
X1212Y276D02*
X1219Y276D01*
X0Y275D02*
X7Y275D01*
X14Y275D02*
X25Y275D01*
X57Y275D02*
X68Y275D01*
X316Y275D02*
X328Y275D01*
X360Y275D02*
X371Y275D01*
X654Y275D02*
X683Y275D01*
X713Y275D02*
X724Y275D01*
X822Y275D02*
X854Y275D01*
X877Y275D02*
X899Y275D01*
X1212Y275D02*
X1219Y275D01*
X0Y274D02*
X7Y274D01*
X14Y274D02*
X25Y274D01*
X57Y274D02*
X68Y274D01*
X316Y274D02*
X328Y274D01*
X360Y274D02*
X371Y274D01*
X822Y274D02*
X853Y274D01*
X878Y274D02*
X898Y274D01*
X1212Y274D02*
X1219Y274D01*
X0Y273D02*
X7Y273D01*
X14Y273D02*
X25Y273D01*
X57Y273D02*
X68Y273D01*
X316Y273D02*
X328Y273D01*
X360Y273D02*
X371Y273D01*
X823Y273D02*
X851Y273D01*
X879Y273D02*
X897Y273D01*
X1212Y273D02*
X1219Y273D01*
X0Y272D02*
X7Y272D01*
X14Y272D02*
X25Y272D01*
X57Y272D02*
X68Y272D01*
X316Y272D02*
X328Y272D01*
X360Y272D02*
X371Y272D01*
X824Y272D02*
X848Y272D01*
X880Y272D02*
X896Y272D01*
X1212Y272D02*
X1219Y272D01*
X0Y271D02*
X7Y271D01*
X14Y271D02*
X25Y271D01*
X57Y271D02*
X68Y271D01*
X316Y271D02*
X328Y271D01*
X360Y271D02*
X371Y271D01*
X826Y271D02*
X845Y271D01*
X883Y271D02*
X893Y271D01*
X1212Y271D02*
X1219Y271D01*
X0Y270D02*
X7Y270D01*
X14Y270D02*
X25Y270D01*
X57Y270D02*
X68Y270D01*
X316Y270D02*
X328Y270D01*
X360Y270D02*
X371Y270D01*
X1212Y270D02*
X1219Y270D01*
X0Y269D02*
X7Y269D01*
X14Y269D02*
X25Y269D01*
X57Y269D02*
X68Y269D01*
X316Y269D02*
X328Y269D01*
X360Y269D02*
X371Y269D01*
X1212Y269D02*
X1219Y269D01*
X0Y268D02*
X7Y268D01*
X14Y268D02*
X25Y268D01*
X57Y268D02*
X68Y268D01*
X316Y268D02*
X328Y268D01*
X360Y268D02*
X371Y268D01*
X1212Y268D02*
X1219Y268D01*
X0Y267D02*
X7Y267D01*
X14Y267D02*
X25Y267D01*
X57Y267D02*
X68Y267D01*
X316Y267D02*
X328Y267D01*
X360Y267D02*
X371Y267D01*
X1212Y267D02*
X1219Y267D01*
X0Y266D02*
X7Y266D01*
X14Y266D02*
X25Y266D01*
X57Y266D02*
X68Y266D01*
X316Y266D02*
X328Y266D01*
X360Y266D02*
X371Y266D01*
X1212Y266D02*
X1219Y266D01*
X0Y265D02*
X7Y265D01*
X14Y265D02*
X25Y265D01*
X57Y265D02*
X68Y265D01*
X316Y265D02*
X328Y265D01*
X360Y265D02*
X371Y265D01*
X1212Y265D02*
X1219Y265D01*
X0Y264D02*
X7Y264D01*
X14Y264D02*
X25Y264D01*
X57Y264D02*
X68Y264D01*
X316Y264D02*
X328Y264D01*
X360Y264D02*
X371Y264D01*
X1212Y264D02*
X1219Y264D01*
X0Y263D02*
X7Y263D01*
X14Y263D02*
X25Y263D01*
X57Y263D02*
X68Y263D01*
X316Y263D02*
X328Y263D01*
X360Y263D02*
X371Y263D01*
X1212Y263D02*
X1219Y263D01*
X0Y262D02*
X7Y262D01*
X14Y262D02*
X25Y262D01*
X57Y262D02*
X68Y262D01*
X316Y262D02*
X328Y262D01*
X360Y262D02*
X371Y262D01*
X1212Y262D02*
X1219Y262D01*
X0Y261D02*
X7Y261D01*
X14Y261D02*
X25Y261D01*
X57Y261D02*
X68Y261D01*
X316Y261D02*
X328Y261D01*
X360Y261D02*
X371Y261D01*
X1212Y261D02*
X1219Y261D01*
X0Y260D02*
X7Y260D01*
X14Y260D02*
X25Y260D01*
X57Y260D02*
X68Y260D01*
X316Y260D02*
X328Y260D01*
X360Y260D02*
X371Y260D01*
X1212Y260D02*
X1219Y260D01*
X0Y259D02*
X7Y259D01*
X14Y259D02*
X25Y259D01*
X57Y259D02*
X68Y259D01*
X316Y259D02*
X328Y259D01*
X360Y259D02*
X371Y259D01*
X1212Y259D02*
X1219Y259D01*
X0Y258D02*
X7Y258D01*
X14Y258D02*
X25Y258D01*
X57Y258D02*
X68Y258D01*
X316Y258D02*
X328Y258D01*
X360Y258D02*
X371Y258D01*
X1212Y258D02*
X1219Y258D01*
X0Y257D02*
X7Y257D01*
X14Y257D02*
X25Y257D01*
X57Y257D02*
X68Y257D01*
X316Y257D02*
X328Y257D01*
X360Y257D02*
X371Y257D01*
X1212Y257D02*
X1219Y257D01*
X0Y256D02*
X7Y256D01*
X14Y256D02*
X25Y256D01*
X57Y256D02*
X68Y256D01*
X316Y256D02*
X328Y256D01*
X360Y256D02*
X371Y256D01*
X1212Y256D02*
X1219Y256D01*
X0Y255D02*
X7Y255D01*
X14Y255D02*
X25Y255D01*
X57Y255D02*
X68Y255D01*
X316Y255D02*
X328Y255D01*
X360Y255D02*
X371Y255D01*
X1212Y255D02*
X1219Y255D01*
X0Y254D02*
X7Y254D01*
X14Y254D02*
X25Y254D01*
X57Y254D02*
X68Y254D01*
X316Y254D02*
X328Y254D01*
X360Y254D02*
X371Y254D01*
X1212Y254D02*
X1219Y254D01*
X0Y253D02*
X7Y253D01*
X14Y253D02*
X25Y253D01*
X57Y253D02*
X68Y253D01*
X316Y253D02*
X328Y253D01*
X360Y253D02*
X371Y253D01*
X1212Y253D02*
X1219Y253D01*
X0Y252D02*
X7Y252D01*
X14Y252D02*
X25Y252D01*
X57Y252D02*
X68Y252D01*
X316Y252D02*
X328Y252D01*
X360Y252D02*
X371Y252D01*
X1212Y252D02*
X1219Y252D01*
X0Y251D02*
X7Y251D01*
X14Y251D02*
X25Y251D01*
X57Y251D02*
X68Y251D01*
X316Y251D02*
X328Y251D01*
X360Y251D02*
X371Y251D01*
X1212Y251D02*
X1219Y251D01*
X0Y250D02*
X7Y250D01*
X14Y250D02*
X25Y250D01*
X57Y250D02*
X68Y250D01*
X316Y250D02*
X328Y250D01*
X360Y250D02*
X371Y250D01*
X1212Y250D02*
X1219Y250D01*
X0Y249D02*
X7Y249D01*
X14Y249D02*
X25Y249D01*
X57Y249D02*
X68Y249D01*
X316Y249D02*
X328Y249D01*
X360Y249D02*
X371Y249D01*
X1212Y249D02*
X1219Y249D01*
X0Y248D02*
X7Y248D01*
X14Y248D02*
X25Y248D01*
X57Y248D02*
X68Y248D01*
X316Y248D02*
X328Y248D01*
X360Y248D02*
X371Y248D01*
X1212Y248D02*
X1219Y248D01*
X0Y247D02*
X7Y247D01*
X14Y247D02*
X25Y247D01*
X57Y247D02*
X68Y247D01*
X316Y247D02*
X328Y247D01*
X360Y247D02*
X371Y247D01*
X1212Y247D02*
X1219Y247D01*
X0Y246D02*
X7Y246D01*
X14Y246D02*
X25Y246D01*
X57Y246D02*
X68Y246D01*
X316Y246D02*
X328Y246D01*
X360Y246D02*
X371Y246D01*
X1212Y246D02*
X1219Y246D01*
X0Y245D02*
X7Y245D01*
X14Y245D02*
X25Y245D01*
X57Y245D02*
X68Y245D01*
X316Y245D02*
X328Y245D01*
X360Y245D02*
X371Y245D01*
X1212Y245D02*
X1219Y245D01*
X0Y244D02*
X7Y244D01*
X14Y244D02*
X25Y244D01*
X57Y244D02*
X68Y244D01*
X316Y244D02*
X328Y244D01*
X360Y244D02*
X371Y244D01*
X1212Y244D02*
X1219Y244D01*
X0Y243D02*
X7Y243D01*
X14Y243D02*
X25Y243D01*
X57Y243D02*
X68Y243D01*
X316Y243D02*
X328Y243D01*
X360Y243D02*
X371Y243D01*
X1212Y243D02*
X1219Y243D01*
X0Y242D02*
X7Y242D01*
X14Y242D02*
X25Y242D01*
X57Y242D02*
X68Y242D01*
X316Y242D02*
X328Y242D01*
X360Y242D02*
X371Y242D01*
X1212Y242D02*
X1219Y242D01*
X0Y241D02*
X7Y241D01*
X14Y241D02*
X25Y241D01*
X57Y241D02*
X68Y241D01*
X316Y241D02*
X328Y241D01*
X360Y241D02*
X371Y241D01*
X1212Y241D02*
X1219Y241D01*
X0Y240D02*
X7Y240D01*
X14Y240D02*
X25Y240D01*
X57Y240D02*
X68Y240D01*
X316Y240D02*
X328Y240D01*
X360Y240D02*
X371Y240D01*
X1212Y240D02*
X1219Y240D01*
X0Y239D02*
X7Y239D01*
X14Y239D02*
X25Y239D01*
X57Y239D02*
X68Y239D01*
X316Y239D02*
X328Y239D01*
X360Y239D02*
X371Y239D01*
X1212Y239D02*
X1219Y239D01*
X0Y238D02*
X7Y238D01*
X14Y238D02*
X25Y238D01*
X57Y238D02*
X68Y238D01*
X316Y238D02*
X328Y238D01*
X360Y238D02*
X371Y238D01*
X1212Y238D02*
X1219Y238D01*
X0Y237D02*
X7Y237D01*
X14Y237D02*
X25Y237D01*
X57Y237D02*
X68Y237D01*
X316Y237D02*
X328Y237D01*
X360Y237D02*
X371Y237D01*
X1212Y237D02*
X1219Y237D01*
X0Y236D02*
X7Y236D01*
X14Y236D02*
X25Y236D01*
X57Y236D02*
X68Y236D01*
X316Y236D02*
X328Y236D01*
X360Y236D02*
X371Y236D01*
X1212Y236D02*
X1219Y236D01*
X0Y235D02*
X7Y235D01*
X14Y235D02*
X25Y235D01*
X57Y235D02*
X68Y235D01*
X316Y235D02*
X328Y235D01*
X360Y235D02*
X371Y235D01*
X1212Y235D02*
X1219Y235D01*
X0Y234D02*
X7Y234D01*
X14Y234D02*
X25Y234D01*
X57Y234D02*
X68Y234D01*
X316Y234D02*
X328Y234D01*
X360Y234D02*
X371Y234D01*
X1212Y234D02*
X1219Y234D01*
X0Y233D02*
X7Y233D01*
X14Y233D02*
X25Y233D01*
X57Y233D02*
X68Y233D01*
X316Y233D02*
X328Y233D01*
X360Y233D02*
X371Y233D01*
X1212Y233D02*
X1219Y233D01*
X0Y232D02*
X7Y232D01*
X14Y232D02*
X25Y232D01*
X57Y232D02*
X68Y232D01*
X316Y232D02*
X328Y232D01*
X360Y232D02*
X371Y232D01*
X1212Y232D02*
X1219Y232D01*
X0Y231D02*
X7Y231D01*
X14Y231D02*
X25Y231D01*
X57Y231D02*
X68Y231D01*
X316Y231D02*
X328Y231D01*
X360Y231D02*
X371Y231D01*
X1212Y231D02*
X1219Y231D01*
X0Y230D02*
X7Y230D01*
X14Y230D02*
X25Y230D01*
X57Y230D02*
X68Y230D01*
X316Y230D02*
X328Y230D01*
X360Y230D02*
X371Y230D01*
X1212Y230D02*
X1219Y230D01*
X0Y229D02*
X7Y229D01*
X14Y229D02*
X25Y229D01*
X57Y229D02*
X68Y229D01*
X316Y229D02*
X328Y229D01*
X360Y229D02*
X371Y229D01*
X1212Y229D02*
X1219Y229D01*
X0Y228D02*
X7Y228D01*
X14Y228D02*
X25Y228D01*
X57Y228D02*
X68Y228D01*
X316Y228D02*
X328Y228D01*
X360Y228D02*
X371Y228D01*
X1212Y228D02*
X1219Y228D01*
X0Y227D02*
X7Y227D01*
X14Y227D02*
X25Y227D01*
X57Y227D02*
X68Y227D01*
X316Y227D02*
X328Y227D01*
X360Y227D02*
X371Y227D01*
X1212Y227D02*
X1219Y227D01*
X0Y226D02*
X7Y226D01*
X14Y226D02*
X25Y226D01*
X57Y226D02*
X68Y226D01*
X316Y226D02*
X328Y226D01*
X360Y226D02*
X371Y226D01*
X1212Y226D02*
X1219Y226D01*
X0Y225D02*
X7Y225D01*
X14Y225D02*
X25Y225D01*
X57Y225D02*
X68Y225D01*
X316Y225D02*
X328Y225D01*
X360Y225D02*
X371Y225D01*
X1212Y225D02*
X1219Y225D01*
X0Y224D02*
X7Y224D01*
X14Y224D02*
X25Y224D01*
X57Y224D02*
X68Y224D01*
X316Y224D02*
X328Y224D01*
X360Y224D02*
X371Y224D01*
X1212Y224D02*
X1219Y224D01*
X0Y223D02*
X7Y223D01*
X14Y223D02*
X25Y223D01*
X57Y223D02*
X68Y223D01*
X316Y223D02*
X328Y223D01*
X360Y223D02*
X371Y223D01*
X1212Y223D02*
X1219Y223D01*
X0Y222D02*
X7Y222D01*
X14Y222D02*
X25Y222D01*
X57Y222D02*
X68Y222D01*
X316Y222D02*
X328Y222D01*
X360Y222D02*
X371Y222D01*
X1212Y222D02*
X1219Y222D01*
X0Y221D02*
X7Y221D01*
X14Y221D02*
X25Y221D01*
X57Y221D02*
X68Y221D01*
X98Y221D02*
X98Y221D01*
X316Y221D02*
X328Y221D01*
X360Y221D02*
X371Y221D01*
X1212Y221D02*
X1219Y221D01*
X0Y220D02*
X7Y220D01*
X14Y220D02*
X25Y220D01*
X57Y220D02*
X68Y220D01*
X96Y220D02*
X99Y220D01*
X316Y220D02*
X328Y220D01*
X360Y220D02*
X371Y220D01*
X1212Y220D02*
X1219Y220D01*
X0Y219D02*
X7Y219D01*
X14Y219D02*
X25Y219D01*
X57Y219D02*
X68Y219D01*
X96Y219D02*
X99Y219D01*
X316Y219D02*
X328Y219D01*
X360Y219D02*
X371Y219D01*
X1212Y219D02*
X1219Y219D01*
X0Y218D02*
X7Y218D01*
X14Y218D02*
X25Y218D01*
X57Y218D02*
X68Y218D01*
X96Y218D02*
X99Y218D01*
X316Y218D02*
X328Y218D01*
X360Y218D02*
X371Y218D01*
X1212Y218D02*
X1219Y218D01*
X0Y217D02*
X7Y217D01*
X14Y217D02*
X25Y217D01*
X57Y217D02*
X68Y217D01*
X96Y217D02*
X99Y217D01*
X316Y217D02*
X328Y217D01*
X360Y217D02*
X371Y217D01*
X1212Y217D02*
X1219Y217D01*
X0Y216D02*
X7Y216D01*
X14Y216D02*
X25Y216D01*
X57Y216D02*
X68Y216D01*
X96Y216D02*
X99Y216D01*
X316Y216D02*
X328Y216D01*
X360Y216D02*
X371Y216D01*
X1212Y216D02*
X1219Y216D01*
X0Y215D02*
X7Y215D01*
X14Y215D02*
X25Y215D01*
X57Y215D02*
X68Y215D01*
X96Y215D02*
X99Y215D01*
X316Y215D02*
X328Y215D01*
X360Y215D02*
X371Y215D01*
X1212Y215D02*
X1219Y215D01*
X0Y214D02*
X7Y214D01*
X14Y214D02*
X25Y214D01*
X57Y214D02*
X68Y214D01*
X96Y214D02*
X99Y214D01*
X316Y214D02*
X328Y214D01*
X360Y214D02*
X371Y214D01*
X1212Y214D02*
X1219Y214D01*
X0Y213D02*
X7Y213D01*
X14Y213D02*
X25Y213D01*
X57Y213D02*
X68Y213D01*
X96Y213D02*
X99Y213D01*
X316Y213D02*
X328Y213D01*
X360Y213D02*
X371Y213D01*
X1212Y213D02*
X1219Y213D01*
X0Y212D02*
X7Y212D01*
X14Y212D02*
X25Y212D01*
X57Y212D02*
X68Y212D01*
X96Y212D02*
X99Y212D01*
X316Y212D02*
X328Y212D01*
X360Y212D02*
X371Y212D01*
X1212Y212D02*
X1219Y212D01*
X0Y211D02*
X7Y211D01*
X14Y211D02*
X25Y211D01*
X57Y211D02*
X68Y211D01*
X96Y211D02*
X99Y211D01*
X316Y211D02*
X328Y211D01*
X360Y211D02*
X371Y211D01*
X1212Y211D02*
X1219Y211D01*
X0Y210D02*
X7Y210D01*
X14Y210D02*
X25Y210D01*
X57Y210D02*
X68Y210D01*
X96Y210D02*
X99Y210D01*
X316Y210D02*
X328Y210D01*
X360Y210D02*
X371Y210D01*
X1212Y210D02*
X1219Y210D01*
X0Y209D02*
X7Y209D01*
X14Y209D02*
X25Y209D01*
X57Y209D02*
X68Y209D01*
X96Y209D02*
X99Y209D01*
X316Y209D02*
X328Y209D01*
X360Y209D02*
X371Y209D01*
X1212Y209D02*
X1219Y209D01*
X0Y208D02*
X7Y208D01*
X14Y208D02*
X25Y208D01*
X57Y208D02*
X68Y208D01*
X96Y208D02*
X99Y208D01*
X316Y208D02*
X328Y208D01*
X360Y208D02*
X371Y208D01*
X1212Y208D02*
X1219Y208D01*
X0Y207D02*
X7Y207D01*
X14Y207D02*
X25Y207D01*
X57Y207D02*
X68Y207D01*
X96Y207D02*
X98Y207D01*
X316Y207D02*
X328Y207D01*
X360Y207D02*
X371Y207D01*
X1212Y207D02*
X1219Y207D01*
X0Y206D02*
X7Y206D01*
X14Y206D02*
X25Y206D01*
X57Y206D02*
X68Y206D01*
X96Y206D02*
X98Y206D01*
X316Y206D02*
X328Y206D01*
X360Y206D02*
X371Y206D01*
X1212Y206D02*
X1219Y206D01*
X0Y205D02*
X7Y205D01*
X14Y205D02*
X25Y205D01*
X57Y205D02*
X68Y205D01*
X96Y205D02*
X98Y205D01*
X316Y205D02*
X328Y205D01*
X360Y205D02*
X371Y205D01*
X1212Y205D02*
X1219Y205D01*
X0Y204D02*
X7Y204D01*
X14Y204D02*
X25Y204D01*
X57Y204D02*
X68Y204D01*
X96Y204D02*
X97Y204D01*
X316Y204D02*
X328Y204D01*
X360Y204D02*
X371Y204D01*
X1212Y204D02*
X1219Y204D01*
X0Y203D02*
X7Y203D01*
X14Y203D02*
X25Y203D01*
X57Y203D02*
X68Y203D01*
X96Y203D02*
X97Y203D01*
X316Y203D02*
X328Y203D01*
X360Y203D02*
X371Y203D01*
X1212Y203D02*
X1219Y203D01*
X0Y202D02*
X7Y202D01*
X14Y202D02*
X25Y202D01*
X57Y202D02*
X68Y202D01*
X96Y202D02*
X97Y202D01*
X316Y202D02*
X328Y202D01*
X360Y202D02*
X371Y202D01*
X1212Y202D02*
X1219Y202D01*
X0Y201D02*
X7Y201D01*
X14Y201D02*
X25Y201D01*
X57Y201D02*
X68Y201D01*
X96Y201D02*
X97Y201D01*
X316Y201D02*
X328Y201D01*
X360Y201D02*
X371Y201D01*
X1212Y201D02*
X1219Y201D01*
X0Y200D02*
X7Y200D01*
X14Y200D02*
X25Y200D01*
X57Y200D02*
X68Y200D01*
X96Y200D02*
X96Y200D01*
X316Y200D02*
X328Y200D01*
X360Y200D02*
X371Y200D01*
X1212Y200D02*
X1219Y200D01*
X0Y199D02*
X7Y199D01*
X14Y199D02*
X25Y199D01*
X57Y199D02*
X68Y199D01*
X96Y199D02*
X96Y199D01*
X316Y199D02*
X328Y199D01*
X360Y199D02*
X371Y199D01*
X1212Y199D02*
X1219Y199D01*
X0Y198D02*
X7Y198D01*
X14Y198D02*
X25Y198D01*
X57Y198D02*
X68Y198D01*
X96Y198D02*
X96Y198D01*
X316Y198D02*
X328Y198D01*
X360Y198D02*
X371Y198D01*
X1212Y198D02*
X1219Y198D01*
X0Y197D02*
X7Y197D01*
X14Y197D02*
X25Y197D01*
X57Y197D02*
X68Y197D01*
X96Y197D02*
X96Y197D01*
X316Y197D02*
X328Y197D01*
X360Y197D02*
X371Y197D01*
X1212Y197D02*
X1219Y197D01*
X0Y196D02*
X7Y196D01*
X14Y196D02*
X25Y196D01*
X57Y196D02*
X68Y196D01*
X96Y196D02*
X96Y196D01*
X316Y196D02*
X328Y196D01*
X360Y196D02*
X371Y196D01*
X1212Y196D02*
X1219Y196D01*
X0Y195D02*
X7Y195D01*
X14Y195D02*
X25Y195D01*
X57Y195D02*
X68Y195D01*
X96Y195D02*
X96Y195D01*
X316Y195D02*
X328Y195D01*
X360Y195D02*
X371Y195D01*
X1212Y195D02*
X1219Y195D01*
X0Y194D02*
X7Y194D01*
X14Y194D02*
X25Y194D01*
X57Y194D02*
X68Y194D01*
X96Y194D02*
X96Y194D01*
X316Y194D02*
X328Y194D01*
X360Y194D02*
X371Y194D01*
X1212Y194D02*
X1219Y194D01*
X0Y193D02*
X7Y193D01*
X14Y193D02*
X25Y193D01*
X57Y193D02*
X68Y193D01*
X96Y193D02*
X96Y193D01*
X316Y193D02*
X328Y193D01*
X360Y193D02*
X371Y193D01*
X1212Y193D02*
X1219Y193D01*
X0Y192D02*
X7Y192D01*
X14Y192D02*
X25Y192D01*
X57Y192D02*
X68Y192D01*
X96Y192D02*
X96Y192D01*
X316Y192D02*
X328Y192D01*
X360Y192D02*
X371Y192D01*
X1212Y192D02*
X1219Y192D01*
X0Y191D02*
X7Y191D01*
X14Y191D02*
X25Y191D01*
X57Y191D02*
X68Y191D01*
X96Y191D02*
X96Y191D01*
X316Y191D02*
X328Y191D01*
X360Y191D02*
X371Y191D01*
X1212Y191D02*
X1219Y191D01*
X0Y190D02*
X7Y190D01*
X14Y190D02*
X25Y190D01*
X57Y190D02*
X68Y190D01*
X96Y190D02*
X96Y190D01*
X316Y190D02*
X328Y190D01*
X360Y190D02*
X371Y190D01*
X1212Y190D02*
X1219Y190D01*
X0Y189D02*
X7Y189D01*
X14Y189D02*
X25Y189D01*
X57Y189D02*
X68Y189D01*
X96Y189D02*
X96Y189D01*
X316Y189D02*
X328Y189D01*
X360Y189D02*
X371Y189D01*
X1212Y189D02*
X1219Y189D01*
X0Y188D02*
X7Y188D01*
X14Y188D02*
X25Y188D01*
X57Y188D02*
X68Y188D01*
X96Y188D02*
X96Y188D01*
X316Y188D02*
X328Y188D01*
X360Y188D02*
X371Y188D01*
X1212Y188D02*
X1219Y188D01*
X0Y187D02*
X7Y187D01*
X14Y187D02*
X25Y187D01*
X57Y187D02*
X68Y187D01*
X96Y187D02*
X97Y187D01*
X316Y187D02*
X328Y187D01*
X360Y187D02*
X371Y187D01*
X1212Y187D02*
X1219Y187D01*
X0Y186D02*
X7Y186D01*
X14Y186D02*
X25Y186D01*
X57Y186D02*
X68Y186D01*
X96Y186D02*
X97Y186D01*
X316Y186D02*
X328Y186D01*
X360Y186D02*
X371Y186D01*
X1212Y186D02*
X1219Y186D01*
X0Y185D02*
X7Y185D01*
X14Y185D02*
X25Y185D01*
X57Y185D02*
X68Y185D01*
X96Y185D02*
X97Y185D01*
X316Y185D02*
X328Y185D01*
X360Y185D02*
X371Y185D01*
X1212Y185D02*
X1219Y185D01*
X0Y184D02*
X7Y184D01*
X14Y184D02*
X25Y184D01*
X57Y184D02*
X68Y184D01*
X96Y184D02*
X97Y184D01*
X316Y184D02*
X328Y184D01*
X360Y184D02*
X371Y184D01*
X1212Y184D02*
X1219Y184D01*
X0Y183D02*
X7Y183D01*
X14Y183D02*
X25Y183D01*
X57Y183D02*
X68Y183D01*
X96Y183D02*
X98Y183D01*
X316Y183D02*
X328Y183D01*
X360Y183D02*
X371Y183D01*
X1212Y183D02*
X1219Y183D01*
X0Y182D02*
X7Y182D01*
X14Y182D02*
X25Y182D01*
X57Y182D02*
X68Y182D01*
X96Y182D02*
X98Y182D01*
X316Y182D02*
X328Y182D01*
X360Y182D02*
X371Y182D01*
X1212Y182D02*
X1219Y182D01*
X0Y181D02*
X7Y181D01*
X14Y181D02*
X25Y181D01*
X57Y181D02*
X68Y181D01*
X96Y181D02*
X98Y181D01*
X316Y181D02*
X328Y181D01*
X360Y181D02*
X371Y181D01*
X1212Y181D02*
X1219Y181D01*
X0Y180D02*
X7Y180D01*
X14Y180D02*
X25Y180D01*
X57Y180D02*
X68Y180D01*
X96Y180D02*
X99Y180D01*
X316Y180D02*
X328Y180D01*
X360Y180D02*
X371Y180D01*
X1212Y180D02*
X1219Y180D01*
X0Y179D02*
X7Y179D01*
X14Y179D02*
X25Y179D01*
X57Y179D02*
X68Y179D01*
X96Y179D02*
X99Y179D01*
X316Y179D02*
X328Y179D01*
X360Y179D02*
X371Y179D01*
X1212Y179D02*
X1219Y179D01*
X0Y178D02*
X7Y178D01*
X14Y178D02*
X25Y178D01*
X57Y178D02*
X68Y178D01*
X96Y178D02*
X99Y178D01*
X316Y178D02*
X328Y178D01*
X360Y178D02*
X371Y178D01*
X1212Y178D02*
X1219Y178D01*
X0Y177D02*
X7Y177D01*
X14Y177D02*
X25Y177D01*
X57Y177D02*
X68Y177D01*
X96Y177D02*
X99Y177D01*
X316Y177D02*
X328Y177D01*
X360Y177D02*
X371Y177D01*
X1212Y177D02*
X1219Y177D01*
X0Y176D02*
X7Y176D01*
X14Y176D02*
X25Y176D01*
X57Y176D02*
X68Y176D01*
X96Y176D02*
X99Y176D01*
X316Y176D02*
X328Y176D01*
X360Y176D02*
X371Y176D01*
X1212Y176D02*
X1219Y176D01*
X0Y175D02*
X7Y175D01*
X14Y175D02*
X25Y175D01*
X57Y175D02*
X68Y175D01*
X96Y175D02*
X99Y175D01*
X316Y175D02*
X328Y175D01*
X360Y175D02*
X371Y175D01*
X1212Y175D02*
X1219Y175D01*
X0Y174D02*
X7Y174D01*
X14Y174D02*
X25Y174D01*
X57Y174D02*
X68Y174D01*
X96Y174D02*
X99Y174D01*
X316Y174D02*
X328Y174D01*
X360Y174D02*
X371Y174D01*
X1212Y174D02*
X1219Y174D01*
X0Y173D02*
X7Y173D01*
X14Y173D02*
X25Y173D01*
X57Y173D02*
X68Y173D01*
X96Y173D02*
X99Y173D01*
X316Y173D02*
X328Y173D01*
X360Y173D02*
X371Y173D01*
X1212Y173D02*
X1219Y173D01*
X0Y172D02*
X7Y172D01*
X14Y172D02*
X25Y172D01*
X57Y172D02*
X68Y172D01*
X96Y172D02*
X99Y172D01*
X316Y172D02*
X328Y172D01*
X360Y172D02*
X371Y172D01*
X1212Y172D02*
X1219Y172D01*
X0Y171D02*
X7Y171D01*
X14Y171D02*
X25Y171D01*
X57Y171D02*
X68Y171D01*
X96Y171D02*
X99Y171D01*
X316Y171D02*
X328Y171D01*
X360Y171D02*
X371Y171D01*
X1212Y171D02*
X1219Y171D01*
X0Y170D02*
X7Y170D01*
X14Y170D02*
X25Y170D01*
X57Y170D02*
X68Y170D01*
X96Y170D02*
X99Y170D01*
X316Y170D02*
X328Y170D01*
X360Y170D02*
X371Y170D01*
X1212Y170D02*
X1219Y170D01*
X0Y169D02*
X7Y169D01*
X14Y169D02*
X25Y169D01*
X57Y169D02*
X68Y169D01*
X96Y169D02*
X99Y169D01*
X316Y169D02*
X328Y169D01*
X360Y169D02*
X371Y169D01*
X1212Y169D02*
X1219Y169D01*
X0Y168D02*
X7Y168D01*
X14Y168D02*
X25Y168D01*
X57Y168D02*
X68Y168D01*
X96Y168D02*
X99Y168D01*
X316Y168D02*
X328Y168D01*
X360Y168D02*
X371Y168D01*
X1212Y168D02*
X1219Y168D01*
X0Y167D02*
X7Y167D01*
X14Y167D02*
X25Y167D01*
X57Y167D02*
X68Y167D01*
X98Y167D02*
X98Y167D01*
X316Y167D02*
X328Y167D01*
X360Y167D02*
X371Y167D01*
X1212Y167D02*
X1219Y167D01*
X0Y166D02*
X7Y166D01*
X14Y166D02*
X25Y166D01*
X57Y166D02*
X68Y166D01*
X316Y166D02*
X328Y166D01*
X360Y166D02*
X371Y166D01*
X1212Y166D02*
X1219Y166D01*
X0Y165D02*
X7Y165D01*
X14Y165D02*
X25Y165D01*
X57Y165D02*
X68Y165D01*
X316Y165D02*
X328Y165D01*
X360Y165D02*
X371Y165D01*
X1212Y165D02*
X1219Y165D01*
X0Y164D02*
X7Y164D01*
X14Y164D02*
X25Y164D01*
X57Y164D02*
X68Y164D01*
X316Y164D02*
X328Y164D01*
X360Y164D02*
X371Y164D01*
X1212Y164D02*
X1219Y164D01*
X0Y163D02*
X7Y163D01*
X14Y163D02*
X25Y163D01*
X57Y163D02*
X68Y163D01*
X316Y163D02*
X328Y163D01*
X360Y163D02*
X371Y163D01*
X1212Y163D02*
X1219Y163D01*
X0Y162D02*
X7Y162D01*
X14Y162D02*
X25Y162D01*
X57Y162D02*
X68Y162D01*
X316Y162D02*
X328Y162D01*
X360Y162D02*
X371Y162D01*
X1212Y162D02*
X1219Y162D01*
X0Y161D02*
X7Y161D01*
X14Y161D02*
X25Y161D01*
X57Y161D02*
X68Y161D01*
X316Y161D02*
X328Y161D01*
X360Y161D02*
X371Y161D01*
X1212Y161D02*
X1219Y161D01*
X0Y160D02*
X7Y160D01*
X14Y160D02*
X25Y160D01*
X57Y160D02*
X68Y160D01*
X316Y160D02*
X328Y160D01*
X360Y160D02*
X371Y160D01*
X1212Y160D02*
X1219Y160D01*
X0Y159D02*
X7Y159D01*
X14Y159D02*
X25Y159D01*
X57Y159D02*
X68Y159D01*
X316Y159D02*
X328Y159D01*
X360Y159D02*
X371Y159D01*
X1212Y159D02*
X1219Y159D01*
X0Y158D02*
X7Y158D01*
X14Y158D02*
X25Y158D01*
X57Y158D02*
X68Y158D01*
X316Y158D02*
X328Y158D01*
X360Y158D02*
X371Y158D01*
X1212Y158D02*
X1219Y158D01*
X0Y157D02*
X7Y157D01*
X14Y157D02*
X25Y157D01*
X57Y157D02*
X68Y157D01*
X316Y157D02*
X328Y157D01*
X360Y157D02*
X371Y157D01*
X1212Y157D02*
X1219Y157D01*
X0Y156D02*
X7Y156D01*
X14Y156D02*
X25Y156D01*
X57Y156D02*
X68Y156D01*
X316Y156D02*
X328Y156D01*
X360Y156D02*
X371Y156D01*
X1212Y156D02*
X1219Y156D01*
X0Y155D02*
X7Y155D01*
X14Y155D02*
X25Y155D01*
X57Y155D02*
X68Y155D01*
X316Y155D02*
X328Y155D01*
X360Y155D02*
X371Y155D01*
X1212Y155D02*
X1219Y155D01*
X0Y154D02*
X7Y154D01*
X14Y154D02*
X25Y154D01*
X57Y154D02*
X68Y154D01*
X316Y154D02*
X328Y154D01*
X360Y154D02*
X371Y154D01*
X1212Y154D02*
X1219Y154D01*
X0Y153D02*
X7Y153D01*
X14Y153D02*
X25Y153D01*
X57Y153D02*
X68Y153D01*
X316Y153D02*
X328Y153D01*
X360Y153D02*
X371Y153D01*
X1212Y153D02*
X1219Y153D01*
X0Y152D02*
X7Y152D01*
X14Y152D02*
X25Y152D01*
X57Y152D02*
X68Y152D01*
X316Y152D02*
X328Y152D01*
X360Y152D02*
X371Y152D01*
X1212Y152D02*
X1219Y152D01*
X0Y151D02*
X7Y151D01*
X14Y151D02*
X25Y151D01*
X57Y151D02*
X68Y151D01*
X316Y151D02*
X328Y151D01*
X360Y151D02*
X371Y151D01*
X1212Y151D02*
X1219Y151D01*
X0Y150D02*
X7Y150D01*
X14Y150D02*
X25Y150D01*
X57Y150D02*
X68Y150D01*
X316Y150D02*
X328Y150D01*
X360Y150D02*
X371Y150D01*
X1212Y150D02*
X1219Y150D01*
X0Y149D02*
X7Y149D01*
X14Y149D02*
X25Y149D01*
X57Y149D02*
X68Y149D01*
X316Y149D02*
X328Y149D01*
X360Y149D02*
X371Y149D01*
X1212Y149D02*
X1219Y149D01*
X0Y148D02*
X7Y148D01*
X14Y148D02*
X25Y148D01*
X57Y148D02*
X68Y148D01*
X316Y148D02*
X328Y148D01*
X360Y148D02*
X371Y148D01*
X1212Y148D02*
X1219Y148D01*
X0Y147D02*
X7Y147D01*
X14Y147D02*
X25Y147D01*
X57Y147D02*
X68Y147D01*
X316Y147D02*
X328Y147D01*
X360Y147D02*
X371Y147D01*
X1212Y147D02*
X1219Y147D01*
X0Y146D02*
X7Y146D01*
X14Y146D02*
X25Y146D01*
X57Y146D02*
X68Y146D01*
X316Y146D02*
X328Y146D01*
X360Y146D02*
X371Y146D01*
X1212Y146D02*
X1219Y146D01*
X0Y145D02*
X7Y145D01*
X14Y145D02*
X25Y145D01*
X57Y145D02*
X68Y145D01*
X316Y145D02*
X328Y145D01*
X360Y145D02*
X371Y145D01*
X1212Y145D02*
X1219Y145D01*
X0Y144D02*
X7Y144D01*
X14Y144D02*
X25Y144D01*
X57Y144D02*
X68Y144D01*
X316Y144D02*
X328Y144D01*
X360Y144D02*
X371Y144D01*
X1212Y144D02*
X1219Y144D01*
X0Y143D02*
X7Y143D01*
X14Y143D02*
X25Y143D01*
X57Y143D02*
X68Y143D01*
X316Y143D02*
X328Y143D01*
X360Y143D02*
X371Y143D01*
X1212Y143D02*
X1219Y143D01*
X0Y142D02*
X7Y142D01*
X14Y142D02*
X25Y142D01*
X57Y142D02*
X68Y142D01*
X316Y142D02*
X328Y142D01*
X360Y142D02*
X371Y142D01*
X1212Y142D02*
X1219Y142D01*
X0Y141D02*
X7Y141D01*
X14Y141D02*
X25Y141D01*
X57Y141D02*
X68Y141D01*
X316Y141D02*
X328Y141D01*
X360Y141D02*
X371Y141D01*
X1212Y141D02*
X1219Y141D01*
X0Y140D02*
X7Y140D01*
X14Y140D02*
X25Y140D01*
X57Y140D02*
X68Y140D01*
X316Y140D02*
X328Y140D01*
X360Y140D02*
X371Y140D01*
X1212Y140D02*
X1219Y140D01*
X0Y139D02*
X7Y139D01*
X14Y139D02*
X25Y139D01*
X57Y139D02*
X68Y139D01*
X316Y139D02*
X328Y139D01*
X360Y139D02*
X371Y139D01*
X1212Y139D02*
X1219Y139D01*
X0Y138D02*
X7Y138D01*
X14Y138D02*
X25Y138D01*
X57Y138D02*
X68Y138D01*
X316Y138D02*
X328Y138D01*
X360Y138D02*
X371Y138D01*
X1212Y138D02*
X1219Y138D01*
X0Y137D02*
X7Y137D01*
X14Y137D02*
X25Y137D01*
X57Y137D02*
X68Y137D01*
X316Y137D02*
X328Y137D01*
X360Y137D02*
X371Y137D01*
X1212Y137D02*
X1219Y137D01*
X0Y136D02*
X7Y136D01*
X14Y136D02*
X25Y136D01*
X57Y136D02*
X68Y136D01*
X316Y136D02*
X328Y136D01*
X360Y136D02*
X371Y136D01*
X1212Y136D02*
X1219Y136D01*
X0Y135D02*
X7Y135D01*
X14Y135D02*
X25Y135D01*
X57Y135D02*
X68Y135D01*
X316Y135D02*
X328Y135D01*
X360Y135D02*
X371Y135D01*
X1212Y135D02*
X1219Y135D01*
X0Y134D02*
X7Y134D01*
X14Y134D02*
X25Y134D01*
X57Y134D02*
X68Y134D01*
X316Y134D02*
X328Y134D01*
X360Y134D02*
X371Y134D01*
X1212Y134D02*
X1219Y134D01*
X0Y133D02*
X7Y133D01*
X14Y133D02*
X25Y133D01*
X57Y133D02*
X68Y133D01*
X316Y133D02*
X328Y133D01*
X360Y133D02*
X371Y133D01*
X1212Y133D02*
X1219Y133D01*
X0Y132D02*
X7Y132D01*
X14Y132D02*
X25Y132D01*
X57Y132D02*
X68Y132D01*
X316Y132D02*
X328Y132D01*
X360Y132D02*
X371Y132D01*
X1212Y132D02*
X1219Y132D01*
X0Y131D02*
X7Y131D01*
X14Y131D02*
X25Y131D01*
X57Y131D02*
X68Y131D01*
X316Y131D02*
X328Y131D01*
X360Y131D02*
X371Y131D01*
X1212Y131D02*
X1219Y131D01*
X0Y130D02*
X7Y130D01*
X14Y130D02*
X25Y130D01*
X57Y130D02*
X68Y130D01*
X316Y130D02*
X328Y130D01*
X360Y130D02*
X371Y130D01*
X1212Y130D02*
X1219Y130D01*
X0Y129D02*
X7Y129D01*
X14Y129D02*
X25Y129D01*
X57Y129D02*
X68Y129D01*
X316Y129D02*
X328Y129D01*
X360Y129D02*
X371Y129D01*
X1212Y129D02*
X1219Y129D01*
X0Y128D02*
X7Y128D01*
X14Y128D02*
X25Y128D01*
X57Y128D02*
X68Y128D01*
X316Y128D02*
X328Y128D01*
X360Y128D02*
X371Y128D01*
X1212Y128D02*
X1219Y128D01*
X0Y127D02*
X7Y127D01*
X14Y127D02*
X25Y127D01*
X57Y127D02*
X68Y127D01*
X316Y127D02*
X328Y127D01*
X360Y127D02*
X371Y127D01*
X1212Y127D02*
X1219Y127D01*
X0Y126D02*
X7Y126D01*
X14Y126D02*
X25Y126D01*
X57Y126D02*
X68Y126D01*
X316Y126D02*
X328Y126D01*
X360Y126D02*
X371Y126D01*
X1212Y126D02*
X1219Y126D01*
X0Y125D02*
X7Y125D01*
X14Y125D02*
X25Y125D01*
X57Y125D02*
X68Y125D01*
X316Y125D02*
X328Y125D01*
X360Y125D02*
X371Y125D01*
X1212Y125D02*
X1219Y125D01*
X0Y124D02*
X7Y124D01*
X14Y124D02*
X25Y124D01*
X57Y124D02*
X68Y124D01*
X316Y124D02*
X328Y124D01*
X360Y124D02*
X371Y124D01*
X1212Y124D02*
X1219Y124D01*
X0Y123D02*
X7Y123D01*
X14Y123D02*
X25Y123D01*
X57Y123D02*
X68Y123D01*
X316Y123D02*
X328Y123D01*
X360Y123D02*
X371Y123D01*
X1212Y123D02*
X1219Y123D01*
X0Y122D02*
X7Y122D01*
X14Y122D02*
X25Y122D01*
X57Y122D02*
X68Y122D01*
X316Y122D02*
X328Y122D01*
X360Y122D02*
X371Y122D01*
X1212Y122D02*
X1219Y122D01*
X0Y121D02*
X7Y121D01*
X14Y121D02*
X25Y121D01*
X57Y121D02*
X68Y121D01*
X316Y121D02*
X328Y121D01*
X360Y121D02*
X371Y121D01*
X1212Y121D02*
X1219Y121D01*
X0Y120D02*
X7Y120D01*
X14Y120D02*
X25Y120D01*
X57Y120D02*
X68Y120D01*
X316Y120D02*
X328Y120D01*
X360Y120D02*
X371Y120D01*
X1212Y120D02*
X1219Y120D01*
X0Y119D02*
X7Y119D01*
X14Y119D02*
X25Y119D01*
X57Y119D02*
X68Y119D01*
X316Y119D02*
X328Y119D01*
X360Y119D02*
X371Y119D01*
X1212Y119D02*
X1219Y119D01*
X0Y118D02*
X7Y118D01*
X14Y118D02*
X25Y118D01*
X57Y118D02*
X68Y118D01*
X316Y118D02*
X328Y118D01*
X360Y118D02*
X371Y118D01*
X1212Y118D02*
X1219Y118D01*
X0Y117D02*
X7Y117D01*
X14Y117D02*
X25Y117D01*
X57Y117D02*
X68Y117D01*
X316Y117D02*
X328Y117D01*
X360Y117D02*
X371Y117D01*
X1212Y117D02*
X1219Y117D01*
X0Y116D02*
X7Y116D01*
X14Y116D02*
X25Y116D01*
X57Y116D02*
X68Y116D01*
X316Y116D02*
X328Y116D01*
X360Y116D02*
X371Y116D01*
X1212Y116D02*
X1219Y116D01*
X0Y115D02*
X7Y115D01*
X14Y115D02*
X25Y115D01*
X57Y115D02*
X68Y115D01*
X316Y115D02*
X328Y115D01*
X360Y115D02*
X371Y115D01*
X1212Y115D02*
X1219Y115D01*
X0Y114D02*
X7Y114D01*
X14Y114D02*
X25Y114D01*
X57Y114D02*
X68Y114D01*
X316Y114D02*
X328Y114D01*
X360Y114D02*
X371Y114D01*
X1212Y114D02*
X1219Y114D01*
X0Y113D02*
X7Y113D01*
X14Y113D02*
X25Y113D01*
X57Y113D02*
X68Y113D01*
X316Y113D02*
X328Y113D01*
X360Y113D02*
X371Y113D01*
X1212Y113D02*
X1219Y113D01*
X0Y112D02*
X7Y112D01*
X14Y112D02*
X25Y112D01*
X57Y112D02*
X68Y112D01*
X316Y112D02*
X328Y112D01*
X360Y112D02*
X371Y112D01*
X1212Y112D02*
X1219Y112D01*
X0Y111D02*
X7Y111D01*
X14Y111D02*
X25Y111D01*
X57Y111D02*
X68Y111D01*
X316Y111D02*
X328Y111D01*
X360Y111D02*
X371Y111D01*
X1212Y111D02*
X1219Y111D01*
X0Y110D02*
X7Y110D01*
X14Y110D02*
X25Y110D01*
X57Y110D02*
X68Y110D01*
X316Y110D02*
X328Y110D01*
X360Y110D02*
X371Y110D01*
X1212Y110D02*
X1219Y110D01*
X0Y109D02*
X7Y109D01*
X14Y109D02*
X25Y109D01*
X57Y109D02*
X68Y109D01*
X316Y109D02*
X328Y109D01*
X360Y109D02*
X371Y109D01*
X1212Y109D02*
X1219Y109D01*
X0Y108D02*
X7Y108D01*
X14Y108D02*
X25Y108D01*
X57Y108D02*
X68Y108D01*
X316Y108D02*
X328Y108D01*
X360Y108D02*
X371Y108D01*
X1212Y108D02*
X1219Y108D01*
X0Y107D02*
X7Y107D01*
X14Y107D02*
X25Y107D01*
X57Y107D02*
X68Y107D01*
X316Y107D02*
X328Y107D01*
X360Y107D02*
X371Y107D01*
X1212Y107D02*
X1219Y107D01*
X0Y106D02*
X7Y106D01*
X14Y106D02*
X25Y106D01*
X57Y106D02*
X68Y106D01*
X316Y106D02*
X328Y106D01*
X360Y106D02*
X371Y106D01*
X1212Y106D02*
X1219Y106D01*
X0Y105D02*
X7Y105D01*
X14Y105D02*
X25Y105D01*
X57Y105D02*
X68Y105D01*
X316Y105D02*
X328Y105D01*
X360Y105D02*
X371Y105D01*
X1212Y105D02*
X1219Y105D01*
X0Y104D02*
X7Y104D01*
X14Y104D02*
X25Y104D01*
X57Y104D02*
X68Y104D01*
X316Y104D02*
X328Y104D01*
X360Y104D02*
X371Y104D01*
X1212Y104D02*
X1219Y104D01*
X0Y103D02*
X7Y103D01*
X14Y103D02*
X25Y103D01*
X57Y103D02*
X68Y103D01*
X316Y103D02*
X328Y103D01*
X360Y103D02*
X371Y103D01*
X1212Y103D02*
X1219Y103D01*
X0Y102D02*
X7Y102D01*
X14Y102D02*
X25Y102D01*
X57Y102D02*
X68Y102D01*
X316Y102D02*
X328Y102D01*
X360Y102D02*
X371Y102D01*
X1212Y102D02*
X1219Y102D01*
X0Y101D02*
X7Y101D01*
X14Y101D02*
X25Y101D01*
X57Y101D02*
X68Y101D01*
X316Y101D02*
X328Y101D01*
X360Y101D02*
X371Y101D01*
X1212Y101D02*
X1219Y101D01*
X0Y100D02*
X7Y100D01*
X14Y100D02*
X25Y100D01*
X57Y100D02*
X68Y100D01*
X316Y100D02*
X328Y100D01*
X360Y100D02*
X371Y100D01*
X1212Y100D02*
X1219Y100D01*
X0Y99D02*
X7Y99D01*
X14Y99D02*
X25Y99D01*
X57Y99D02*
X68Y99D01*
X316Y99D02*
X328Y99D01*
X360Y99D02*
X371Y99D01*
X1212Y99D02*
X1219Y99D01*
X0Y98D02*
X7Y98D01*
X14Y98D02*
X25Y98D01*
X57Y98D02*
X68Y98D01*
X316Y98D02*
X328Y98D01*
X360Y98D02*
X371Y98D01*
X1212Y98D02*
X1219Y98D01*
X0Y97D02*
X7Y97D01*
X14Y97D02*
X25Y97D01*
X57Y97D02*
X68Y97D01*
X316Y97D02*
X328Y97D01*
X360Y97D02*
X371Y97D01*
X1212Y97D02*
X1219Y97D01*
X0Y96D02*
X7Y96D01*
X14Y96D02*
X25Y96D01*
X57Y96D02*
X68Y96D01*
X316Y96D02*
X328Y96D01*
X360Y96D02*
X371Y96D01*
X1212Y96D02*
X1219Y96D01*
X0Y95D02*
X7Y95D01*
X14Y95D02*
X25Y95D01*
X57Y95D02*
X68Y95D01*
X316Y95D02*
X328Y95D01*
X360Y95D02*
X371Y95D01*
X1212Y95D02*
X1219Y95D01*
X0Y94D02*
X7Y94D01*
X14Y94D02*
X25Y94D01*
X57Y94D02*
X68Y94D01*
X316Y94D02*
X328Y94D01*
X360Y94D02*
X371Y94D01*
X1212Y94D02*
X1219Y94D01*
X0Y93D02*
X7Y93D01*
X14Y93D02*
X25Y93D01*
X57Y93D02*
X68Y93D01*
X316Y93D02*
X328Y93D01*
X360Y93D02*
X371Y93D01*
X1212Y93D02*
X1219Y93D01*
X0Y92D02*
X7Y92D01*
X14Y92D02*
X25Y92D01*
X57Y92D02*
X68Y92D01*
X316Y92D02*
X328Y92D01*
X360Y92D02*
X371Y92D01*
X1212Y92D02*
X1219Y92D01*
X0Y91D02*
X7Y91D01*
X14Y91D02*
X25Y91D01*
X57Y91D02*
X68Y91D01*
X316Y91D02*
X328Y91D01*
X360Y91D02*
X371Y91D01*
X1212Y91D02*
X1219Y91D01*
X0Y90D02*
X7Y90D01*
X14Y90D02*
X25Y90D01*
X57Y90D02*
X68Y90D01*
X316Y90D02*
X328Y90D01*
X360Y90D02*
X371Y90D01*
X1212Y90D02*
X1219Y90D01*
X0Y89D02*
X7Y89D01*
X14Y89D02*
X25Y89D01*
X57Y89D02*
X68Y89D01*
X316Y89D02*
X328Y89D01*
X360Y89D02*
X371Y89D01*
X1212Y89D02*
X1219Y89D01*
X0Y88D02*
X7Y88D01*
X14Y88D02*
X25Y88D01*
X57Y88D02*
X68Y88D01*
X316Y88D02*
X328Y88D01*
X360Y88D02*
X371Y88D01*
X1212Y88D02*
X1219Y88D01*
X0Y87D02*
X7Y87D01*
X14Y87D02*
X25Y87D01*
X57Y87D02*
X68Y87D01*
X316Y87D02*
X328Y87D01*
X360Y87D02*
X371Y87D01*
X1212Y87D02*
X1219Y87D01*
X0Y86D02*
X7Y86D01*
X14Y86D02*
X25Y86D01*
X57Y86D02*
X68Y86D01*
X316Y86D02*
X328Y86D01*
X360Y86D02*
X371Y86D01*
X1212Y86D02*
X1219Y86D01*
X0Y85D02*
X7Y85D01*
X14Y85D02*
X25Y85D01*
X57Y85D02*
X68Y85D01*
X316Y85D02*
X328Y85D01*
X360Y85D02*
X371Y85D01*
X1212Y85D02*
X1219Y85D01*
X0Y84D02*
X7Y84D01*
X14Y84D02*
X25Y84D01*
X57Y84D02*
X68Y84D01*
X316Y84D02*
X328Y84D01*
X360Y84D02*
X371Y84D01*
X1212Y84D02*
X1219Y84D01*
X0Y83D02*
X7Y83D01*
X14Y83D02*
X25Y83D01*
X57Y83D02*
X68Y83D01*
X316Y83D02*
X328Y83D01*
X360Y83D02*
X371Y83D01*
X1212Y83D02*
X1219Y83D01*
X0Y82D02*
X7Y82D01*
X14Y82D02*
X25Y82D01*
X57Y82D02*
X68Y82D01*
X316Y82D02*
X328Y82D01*
X360Y82D02*
X371Y82D01*
X1212Y82D02*
X1219Y82D01*
X0Y81D02*
X7Y81D01*
X14Y81D02*
X25Y81D01*
X57Y81D02*
X68Y81D01*
X316Y81D02*
X328Y81D01*
X360Y81D02*
X371Y81D01*
X1212Y81D02*
X1219Y81D01*
X0Y80D02*
X7Y80D01*
X14Y80D02*
X25Y80D01*
X57Y80D02*
X68Y80D01*
X316Y80D02*
X328Y80D01*
X360Y80D02*
X371Y80D01*
X1212Y80D02*
X1219Y80D01*
X0Y79D02*
X7Y79D01*
X14Y79D02*
X25Y79D01*
X57Y79D02*
X68Y79D01*
X316Y79D02*
X328Y79D01*
X360Y79D02*
X371Y79D01*
X1212Y79D02*
X1219Y79D01*
X0Y78D02*
X7Y78D01*
X14Y78D02*
X25Y78D01*
X57Y78D02*
X68Y78D01*
X316Y78D02*
X328Y78D01*
X360Y78D02*
X371Y78D01*
X1212Y78D02*
X1219Y78D01*
X0Y77D02*
X7Y77D01*
X14Y77D02*
X25Y77D01*
X57Y77D02*
X68Y77D01*
X316Y77D02*
X328Y77D01*
X360Y77D02*
X371Y77D01*
X1212Y77D02*
X1219Y77D01*
X0Y76D02*
X7Y76D01*
X14Y76D02*
X25Y76D01*
X57Y76D02*
X68Y76D01*
X316Y76D02*
X328Y76D01*
X360Y76D02*
X371Y76D01*
X1212Y76D02*
X1219Y76D01*
X0Y75D02*
X7Y75D01*
X14Y75D02*
X25Y75D01*
X57Y75D02*
X68Y75D01*
X316Y75D02*
X328Y75D01*
X360Y75D02*
X371Y75D01*
X1212Y75D02*
X1219Y75D01*
X0Y74D02*
X7Y74D01*
X14Y74D02*
X25Y74D01*
X57Y74D02*
X68Y74D01*
X316Y74D02*
X328Y74D01*
X360Y74D02*
X371Y74D01*
X1212Y74D02*
X1219Y74D01*
X0Y73D02*
X7Y73D01*
X14Y73D02*
X25Y73D01*
X57Y73D02*
X68Y73D01*
X316Y73D02*
X328Y73D01*
X360Y73D02*
X371Y73D01*
X1212Y73D02*
X1219Y73D01*
X0Y72D02*
X7Y72D01*
X14Y72D02*
X25Y72D01*
X57Y72D02*
X68Y72D01*
X316Y72D02*
X328Y72D01*
X360Y72D02*
X371Y72D01*
X1212Y72D02*
X1219Y72D01*
X0Y71D02*
X7Y71D01*
X14Y71D02*
X25Y71D01*
X57Y71D02*
X68Y71D01*
X316Y71D02*
X328Y71D01*
X360Y71D02*
X371Y71D01*
X1212Y71D02*
X1219Y71D01*
X0Y70D02*
X7Y70D01*
X14Y70D02*
X25Y70D01*
X57Y70D02*
X68Y70D01*
X316Y70D02*
X328Y70D01*
X360Y70D02*
X371Y70D01*
X1212Y70D02*
X1219Y70D01*
X0Y69D02*
X7Y69D01*
X14Y69D02*
X25Y69D01*
X57Y69D02*
X68Y69D01*
X316Y69D02*
X328Y69D01*
X360Y69D02*
X371Y69D01*
X1212Y69D02*
X1219Y69D01*
X0Y68D02*
X7Y68D01*
X14Y68D02*
X25Y68D01*
X57Y68D02*
X68Y68D01*
X316Y68D02*
X328Y68D01*
X360Y68D02*
X371Y68D01*
X1212Y68D02*
X1219Y68D01*
X0Y67D02*
X7Y67D01*
X14Y67D02*
X25Y67D01*
X57Y67D02*
X68Y67D01*
X316Y67D02*
X328Y67D01*
X360Y67D02*
X371Y67D01*
X1212Y67D02*
X1219Y67D01*
X0Y66D02*
X7Y66D01*
X14Y66D02*
X25Y66D01*
X57Y66D02*
X68Y66D01*
X316Y66D02*
X328Y66D01*
X360Y66D02*
X371Y66D01*
X1212Y66D02*
X1219Y66D01*
X0Y65D02*
X7Y65D01*
X14Y65D02*
X25Y65D01*
X57Y65D02*
X68Y65D01*
X316Y65D02*
X328Y65D01*
X360Y65D02*
X371Y65D01*
X765Y65D02*
X766Y65D01*
X1212Y65D02*
X1219Y65D01*
X0Y64D02*
X7Y64D01*
X14Y64D02*
X25Y64D01*
X57Y64D02*
X68Y64D01*
X316Y64D02*
X328Y64D01*
X360Y64D02*
X371Y64D01*
X764Y64D02*
X767Y64D01*
X1212Y64D02*
X1219Y64D01*
X0Y63D02*
X7Y63D01*
X14Y63D02*
X25Y63D01*
X57Y63D02*
X68Y63D01*
X316Y63D02*
X328Y63D01*
X360Y63D02*
X371Y63D01*
X763Y63D02*
X768Y63D01*
X1212Y63D02*
X1219Y63D01*
X0Y62D02*
X7Y62D01*
X14Y62D02*
X25Y62D01*
X57Y62D02*
X68Y62D01*
X316Y62D02*
X328Y62D01*
X360Y62D02*
X371Y62D01*
X763Y62D02*
X769Y62D01*
X1212Y62D02*
X1219Y62D01*
X0Y61D02*
X7Y61D01*
X14Y61D02*
X25Y61D01*
X57Y61D02*
X68Y61D01*
X316Y61D02*
X328Y61D01*
X360Y61D02*
X371Y61D01*
X764Y61D02*
X770Y61D01*
X934Y61D02*
X935Y61D01*
X1212Y61D02*
X1219Y61D01*
X0Y60D02*
X7Y60D01*
X14Y60D02*
X25Y60D01*
X57Y60D02*
X68Y60D01*
X316Y60D02*
X328Y60D01*
X360Y60D02*
X371Y60D01*
X765Y60D02*
X771Y60D01*
X933Y60D02*
X936Y60D01*
X1212Y60D02*
X1219Y60D01*
X0Y59D02*
X7Y59D01*
X14Y59D02*
X25Y59D01*
X57Y59D02*
X68Y59D01*
X316Y59D02*
X328Y59D01*
X360Y59D02*
X371Y59D01*
X766Y59D02*
X772Y59D01*
X932Y59D02*
X937Y59D01*
X1212Y59D02*
X1219Y59D01*
X0Y58D02*
X7Y58D01*
X14Y58D02*
X25Y58D01*
X57Y58D02*
X68Y58D01*
X316Y58D02*
X328Y58D01*
X360Y58D02*
X371Y58D01*
X767Y58D02*
X773Y58D01*
X932Y58D02*
X938Y58D01*
X1212Y58D02*
X1219Y58D01*
X0Y57D02*
X7Y57D01*
X14Y57D02*
X25Y57D01*
X57Y57D02*
X68Y57D01*
X316Y57D02*
X328Y57D01*
X360Y57D02*
X371Y57D01*
X768Y57D02*
X774Y57D01*
X933Y57D02*
X939Y57D01*
X1212Y57D02*
X1219Y57D01*
X0Y56D02*
X7Y56D01*
X14Y56D02*
X25Y56D01*
X57Y56D02*
X68Y56D01*
X316Y56D02*
X328Y56D01*
X360Y56D02*
X371Y56D01*
X769Y56D02*
X775Y56D01*
X934Y56D02*
X940Y56D01*
X1212Y56D02*
X1219Y56D01*
X0Y55D02*
X7Y55D01*
X14Y55D02*
X25Y55D01*
X57Y55D02*
X68Y55D01*
X316Y55D02*
X328Y55D01*
X360Y55D02*
X371Y55D01*
X770Y55D02*
X776Y55D01*
X935Y55D02*
X941Y55D01*
X1212Y55D02*
X1219Y55D01*
X0Y54D02*
X7Y54D01*
X14Y54D02*
X25Y54D01*
X57Y54D02*
X68Y54D01*
X316Y54D02*
X328Y54D01*
X360Y54D02*
X371Y54D01*
X771Y54D02*
X777Y54D01*
X936Y54D02*
X942Y54D01*
X1212Y54D02*
X1219Y54D01*
X0Y53D02*
X7Y53D01*
X14Y53D02*
X25Y53D01*
X57Y53D02*
X68Y53D01*
X316Y53D02*
X328Y53D01*
X360Y53D02*
X371Y53D01*
X772Y53D02*
X778Y53D01*
X937Y53D02*
X943Y53D01*
X1212Y53D02*
X1219Y53D01*
X0Y52D02*
X7Y52D01*
X14Y52D02*
X25Y52D01*
X57Y52D02*
X68Y52D01*
X316Y52D02*
X328Y52D01*
X360Y52D02*
X371Y52D01*
X773Y52D02*
X779Y52D01*
X938Y52D02*
X944Y52D01*
X1212Y52D02*
X1219Y52D01*
X0Y51D02*
X7Y51D01*
X14Y51D02*
X25Y51D01*
X57Y51D02*
X68Y51D01*
X316Y51D02*
X328Y51D01*
X360Y51D02*
X371Y51D01*
X774Y51D02*
X779Y51D01*
X939Y51D02*
X945Y51D01*
X1212Y51D02*
X1219Y51D01*
X0Y50D02*
X7Y50D01*
X14Y50D02*
X25Y50D01*
X57Y50D02*
X69Y50D01*
X316Y50D02*
X328Y50D01*
X360Y50D02*
X371Y50D01*
X775Y50D02*
X780Y50D01*
X940Y50D02*
X946Y50D01*
X1212Y50D02*
X1219Y50D01*
X0Y49D02*
X7Y49D01*
X14Y49D02*
X25Y49D01*
X57Y49D02*
X328Y49D01*
X360Y49D02*
X371Y49D01*
X776Y49D02*
X781Y49D01*
X941Y49D02*
X947Y49D01*
X1212Y49D02*
X1219Y49D01*
X0Y48D02*
X7Y48D01*
X14Y48D02*
X25Y48D01*
X57Y48D02*
X328Y48D01*
X360Y48D02*
X371Y48D01*
X777Y48D02*
X782Y48D01*
X942Y48D02*
X948Y48D01*
X1212Y48D02*
X1219Y48D01*
X0Y47D02*
X7Y47D01*
X14Y47D02*
X25Y47D01*
X57Y47D02*
X328Y47D01*
X360Y47D02*
X371Y47D01*
X778Y47D02*
X783Y47D01*
X943Y47D02*
X949Y47D01*
X1212Y47D02*
X1219Y47D01*
X0Y46D02*
X7Y46D01*
X14Y46D02*
X25Y46D01*
X57Y46D02*
X328Y46D01*
X360Y46D02*
X371Y46D01*
X779Y46D02*
X784Y46D01*
X944Y46D02*
X950Y46D01*
X1212Y46D02*
X1219Y46D01*
X0Y45D02*
X7Y45D01*
X14Y45D02*
X25Y45D01*
X57Y45D02*
X328Y45D01*
X360Y45D02*
X371Y45D01*
X780Y45D02*
X785Y45D01*
X945Y45D02*
X950Y45D01*
X1212Y45D02*
X1219Y45D01*
X0Y44D02*
X7Y44D01*
X14Y44D02*
X25Y44D01*
X57Y44D02*
X328Y44D01*
X360Y44D02*
X371Y44D01*
X781Y44D02*
X787Y44D01*
X946Y44D02*
X951Y44D01*
X1212Y44D02*
X1219Y44D01*
X0Y43D02*
X7Y43D01*
X14Y43D02*
X25Y43D01*
X57Y43D02*
X328Y43D01*
X360Y43D02*
X371Y43D01*
X782Y43D02*
X788Y43D01*
X947Y43D02*
X952Y43D01*
X1212Y43D02*
X1219Y43D01*
X0Y42D02*
X7Y42D01*
X14Y42D02*
X25Y42D01*
X57Y42D02*
X328Y42D01*
X360Y42D02*
X371Y42D01*
X783Y42D02*
X789Y42D01*
X948Y42D02*
X954Y42D01*
X1212Y42D02*
X1219Y42D01*
X0Y41D02*
X7Y41D01*
X14Y41D02*
X25Y41D01*
X57Y41D02*
X328Y41D01*
X360Y41D02*
X371Y41D01*
X784Y41D02*
X790Y41D01*
X949Y41D02*
X955Y41D01*
X1212Y41D02*
X1219Y41D01*
X0Y40D02*
X7Y40D01*
X14Y40D02*
X25Y40D01*
X57Y40D02*
X328Y40D01*
X360Y40D02*
X371Y40D01*
X785Y40D02*
X791Y40D01*
X950Y40D02*
X956Y40D01*
X1212Y40D02*
X1219Y40D01*
X0Y39D02*
X7Y39D01*
X14Y39D02*
X25Y39D01*
X57Y39D02*
X328Y39D01*
X360Y39D02*
X371Y39D01*
X786Y39D02*
X792Y39D01*
X951Y39D02*
X957Y39D01*
X1212Y39D02*
X1219Y39D01*
X0Y38D02*
X7Y38D01*
X14Y38D02*
X25Y38D01*
X57Y38D02*
X328Y38D01*
X360Y38D02*
X371Y38D01*
X787Y38D02*
X793Y38D01*
X952Y38D02*
X958Y38D01*
X1212Y38D02*
X1219Y38D01*
X0Y37D02*
X7Y37D01*
X14Y37D02*
X25Y37D01*
X360Y37D02*
X371Y37D01*
X788Y37D02*
X794Y37D01*
X953Y37D02*
X959Y37D01*
X1212Y37D02*
X1219Y37D01*
X0Y36D02*
X7Y36D01*
X14Y36D02*
X25Y36D01*
X360Y36D02*
X371Y36D01*
X789Y36D02*
X795Y36D01*
X954Y36D02*
X960Y36D01*
X1212Y36D02*
X1219Y36D01*
X0Y35D02*
X7Y35D01*
X14Y35D02*
X25Y35D01*
X360Y35D02*
X371Y35D01*
X790Y35D02*
X796Y35D01*
X955Y35D02*
X961Y35D01*
X1212Y35D02*
X1219Y35D01*
X0Y34D02*
X7Y34D01*
X14Y34D02*
X25Y34D01*
X360Y34D02*
X371Y34D01*
X791Y34D02*
X797Y34D01*
X956Y34D02*
X962Y34D01*
X1212Y34D02*
X1219Y34D01*
X0Y33D02*
X7Y33D01*
X14Y33D02*
X25Y33D01*
X360Y33D02*
X371Y33D01*
X792Y33D02*
X798Y33D01*
X957Y33D02*
X963Y33D01*
X1212Y33D02*
X1219Y33D01*
X0Y32D02*
X7Y32D01*
X14Y32D02*
X25Y32D01*
X360Y32D02*
X371Y32D01*
X793Y32D02*
X799Y32D01*
X958Y32D02*
X964Y32D01*
X1212Y32D02*
X1219Y32D01*
X0Y31D02*
X7Y31D01*
X14Y31D02*
X25Y31D01*
X360Y31D02*
X371Y31D01*
X794Y31D02*
X800Y31D01*
X959Y31D02*
X965Y31D01*
X1212Y31D02*
X1219Y31D01*
X0Y30D02*
X7Y30D01*
X14Y30D02*
X25Y30D01*
X360Y30D02*
X371Y30D01*
X795Y30D02*
X799Y30D01*
X960Y30D02*
X966Y30D01*
X1212Y30D02*
X1219Y30D01*
X0Y29D02*
X7Y29D01*
X14Y29D02*
X25Y29D01*
X360Y29D02*
X371Y29D01*
X796Y29D02*
X798Y29D01*
X961Y29D02*
X967Y29D01*
X1212Y29D02*
X1219Y29D01*
X0Y28D02*
X7Y28D01*
X14Y28D02*
X25Y28D01*
X360Y28D02*
X371Y28D01*
X797Y28D02*
X797Y28D01*
X962Y28D02*
X968Y28D01*
X1212Y28D02*
X1219Y28D01*
X0Y27D02*
X7Y27D01*
X14Y27D02*
X25Y27D01*
X360Y27D02*
X371Y27D01*
X963Y27D02*
X969Y27D01*
X1212Y27D02*
X1219Y27D01*
X0Y26D02*
X7Y26D01*
X14Y26D02*
X25Y26D01*
X360Y26D02*
X371Y26D01*
X964Y26D02*
X968Y26D01*
X1212Y26D02*
X1219Y26D01*
X0Y25D02*
X7Y25D01*
X14Y25D02*
X25Y25D01*
X360Y25D02*
X371Y25D01*
X965Y25D02*
X967Y25D01*
X1212Y25D02*
X1219Y25D01*
X0Y24D02*
X7Y24D01*
X14Y24D02*
X25Y24D01*
X360Y24D02*
X371Y24D01*
X966Y24D02*
X966Y24D01*
X1212Y24D02*
X1219Y24D01*
X0Y23D02*
X7Y23D01*
X14Y23D02*
X25Y23D01*
X360Y23D02*
X371Y23D01*
X1212Y23D02*
X1219Y23D01*
X0Y22D02*
X7Y22D01*
X14Y22D02*
X25Y22D01*
X360Y22D02*
X371Y22D01*
X1212Y22D02*
X1219Y22D01*
X0Y21D02*
X7Y21D01*
X14Y21D02*
X25Y21D01*
X360Y21D02*
X371Y21D01*
X1212Y21D02*
X1219Y21D01*
X0Y20D02*
X7Y20D01*
X14Y20D02*
X25Y20D01*
X360Y20D02*
X371Y20D01*
X1212Y20D02*
X1219Y20D01*
X0Y19D02*
X7Y19D01*
X14Y19D02*
X25Y19D01*
X360Y19D02*
X371Y19D01*
X1212Y19D02*
X1219Y19D01*
X0Y18D02*
X7Y18D01*
X14Y18D02*
X25Y18D01*
X360Y18D02*
X371Y18D01*
X1212Y18D02*
X1219Y18D01*
X0Y17D02*
X7Y17D01*
X14Y17D02*
X25Y17D01*
X360Y17D02*
X371Y17D01*
X1212Y17D02*
X1219Y17D01*
X0Y16D02*
X7Y16D01*
X14Y16D02*
X25Y16D01*
X360Y16D02*
X371Y16D01*
X1212Y16D02*
X1219Y16D01*
X0Y15D02*
X7Y15D01*
X14Y15D02*
X25Y15D01*
X360Y15D02*
X371Y15D01*
X1212Y15D02*
X1219Y15D01*
X0Y14D02*
X7Y14D01*
X14Y14D02*
X25Y14D01*
X360Y14D02*
X371Y14D01*
X1212Y14D02*
X1219Y14D01*
X0Y13D02*
X7Y13D01*
X14Y13D02*
X25Y13D01*
X360Y13D02*
X371Y13D01*
X1212Y13D02*
X1219Y13D01*
X0Y12D02*
X7Y12D01*
X14Y12D02*
X25Y12D01*
X360Y12D02*
X371Y12D01*
X1212Y12D02*
X1219Y12D01*
X0Y11D02*
X7Y11D01*
X14Y11D02*
X25Y11D01*
X360Y11D02*
X371Y11D01*
X1212Y11D02*
X1219Y11D01*
X0Y10D02*
X7Y10D01*
X14Y10D02*
X25Y10D01*
X360Y10D02*
X371Y10D01*
X1212Y10D02*
X1219Y10D01*
X0Y9D02*
X7Y9D01*
X14Y9D02*
X25Y9D01*
X360Y9D02*
X371Y9D01*
X1212Y9D02*
X1219Y9D01*
X0Y8D02*
X1219Y8D01*
X0Y7D02*
X1219Y7D01*
X0Y6D02*
X1219Y6D01*
X0Y5D02*
X1219Y5D01*
X0Y4D02*
X1219Y4D01*
X0Y3D02*
X1219Y3D01*
X0Y2D02*
X1219Y2D01*
X0Y1D02*
X1219Y1D01*
X14Y0D02*
X371Y0D01*
X14Y-1D02*
X371Y-1D01*
D02*
G04 End of Silk0*
M02*