G04 MADE WITH FRITZING*
G04 WWW.FRITZING.ORG*
G04 DOUBLE SIDED*
G04 HOLES PLATED*
G04 CONTOUR ON CENTER OF CONTOUR VECTOR*
%ASAXBY*%
%FSLAX23Y23*%
%MOIN*%
%OFA0B0*%
%SFA1.0B1.0*%
%ADD10C,0.039370*%
%ADD11C,0.070889*%
%ADD12C,0.057000*%
%ADD13C,0.093195*%
%ADD14C,0.078000*%
%ADD15C,0.024000*%
%LNCOPPER1*%
G90*
G70*
G54D10*
X392Y569D03*
G54D11*
X137Y193D03*
X237Y193D03*
X137Y293D03*
X237Y293D03*
X137Y393D03*
X237Y393D03*
X137Y493D03*
X237Y493D03*
X137Y593D03*
X237Y593D03*
G54D12*
X137Y193D03*
X237Y193D03*
X137Y293D03*
X237Y293D03*
X137Y393D03*
X237Y393D03*
X137Y493D03*
X237Y493D03*
X137Y593D03*
X237Y593D03*
G54D13*
X978Y401D03*
X1047Y559D03*
X663Y401D03*
X594Y559D03*
X594Y716D03*
X594Y874D03*
X663Y1031D03*
X820Y1071D03*
X978Y1031D03*
X1047Y874D03*
X1047Y716D03*
X820Y362D03*
X978Y401D03*
X1047Y559D03*
X663Y401D03*
X594Y559D03*
X594Y716D03*
X594Y874D03*
X663Y1031D03*
X820Y1071D03*
X978Y1031D03*
X1047Y874D03*
X1047Y716D03*
X820Y362D03*
G54D14*
X984Y75D03*
X984Y175D03*
X984Y75D03*
X984Y175D03*
X815Y79D03*
X815Y179D03*
X815Y79D03*
X815Y179D03*
G54D15*
X979Y368D02*
X983Y205D01*
D02*
X819Y329D02*
X815Y209D01*
D02*
X260Y217D02*
X571Y535D01*
D02*
X260Y317D02*
X421Y484D01*
D02*
X421Y484D02*
X547Y800D01*
D02*
X547Y800D02*
X576Y846D01*
D02*
X266Y409D02*
X296Y425D01*
D02*
X296Y425D02*
X296Y641D01*
D02*
X296Y641D02*
X272Y665D01*
D02*
X272Y665D02*
X80Y665D01*
D02*
X80Y665D02*
X80Y137D01*
D02*
X80Y137D02*
X440Y137D01*
D02*
X440Y137D02*
X728Y327D01*
D02*
X728Y327D02*
X752Y436D01*
D02*
X752Y436D02*
X743Y882D01*
D02*
X743Y882D02*
X818Y882D01*
D02*
X818Y882D02*
X820Y1037D01*
D02*
X399Y587D02*
X536Y953D01*
D02*
X536Y953D02*
X728Y953D01*
D02*
X728Y953D02*
X752Y1145D01*
D02*
X752Y1145D02*
X896Y1145D01*
D02*
X896Y1145D02*
X896Y1001D01*
D02*
X896Y1001D02*
X1021Y895D01*
G04 End of Copper1*
M02*