G04 MADE WITH FRITZING*
G04 WWW.FRITZING.ORG*
G04 DOUBLE SIDED*
G04 HOLES PLATED*
G04 CONTOUR ON CENTER OF CONTOUR VECTOR*
%ASAXBY*%
%FSLAX23Y23*%
%MOIN*%
%OFA0B0*%
%SFA1.0B1.0*%
%ADD10R,1.220470X1.181100X1.204470X1.165100*%
%ADD11C,0.008000*%
%ADD12R,0.001000X0.001000*%
%LNSILK1*%
G90*
G70*
G54D11*
X4Y1177D02*
X1216Y1177D01*
X1216Y4D01*
X4Y4D01*
X4Y1177D01*
D02*
G54D12*
X441Y1181D02*
X492Y1181D01*
X1147Y1181D02*
X1198Y1181D01*
X441Y1180D02*
X491Y1180D01*
X1148Y1180D02*
X1198Y1180D01*
X440Y1179D02*
X490Y1179D01*
X1149Y1179D02*
X1199Y1179D01*
X440Y1178D02*
X490Y1178D01*
X1150Y1178D02*
X1199Y1178D01*
X439Y1177D02*
X489Y1177D01*
X1150Y1177D02*
X1200Y1177D01*
X439Y1176D02*
X488Y1176D01*
X1151Y1176D02*
X1200Y1176D01*
X438Y1175D02*
X487Y1175D01*
X1152Y1175D02*
X1201Y1175D01*
X438Y1174D02*
X487Y1174D01*
X1153Y1174D02*
X1201Y1174D01*
X437Y1173D02*
X486Y1173D01*
X1153Y1173D02*
X1202Y1173D01*
X437Y1172D02*
X485Y1172D01*
X1154Y1172D02*
X1202Y1172D01*
X436Y1171D02*
X485Y1171D01*
X1155Y1171D02*
X1203Y1171D01*
X436Y1170D02*
X484Y1170D01*
X1155Y1170D02*
X1203Y1170D01*
X435Y1169D02*
X483Y1169D01*
X1156Y1169D02*
X1204Y1169D01*
X435Y1168D02*
X483Y1168D01*
X1157Y1168D02*
X1204Y1168D01*
X434Y1167D02*
X482Y1167D01*
X1157Y1167D02*
X1205Y1167D01*
X434Y1166D02*
X481Y1166D01*
X1158Y1166D02*
X1205Y1166D01*
X433Y1165D02*
X481Y1165D01*
X1158Y1165D02*
X1206Y1165D01*
X433Y1164D02*
X480Y1164D01*
X1159Y1164D02*
X1206Y1164D01*
X433Y1163D02*
X479Y1163D01*
X1160Y1163D02*
X1207Y1163D01*
X432Y1162D02*
X479Y1162D01*
X1160Y1162D02*
X1207Y1162D01*
X432Y1161D02*
X478Y1161D01*
X1161Y1161D02*
X1208Y1161D01*
X431Y1160D02*
X478Y1160D01*
X1162Y1160D02*
X1208Y1160D01*
X431Y1159D02*
X477Y1159D01*
X1162Y1159D02*
X1208Y1159D01*
X430Y1158D02*
X476Y1158D01*
X1163Y1158D02*
X1209Y1158D01*
X430Y1157D02*
X476Y1157D01*
X1163Y1157D02*
X1209Y1157D01*
X430Y1156D02*
X475Y1156D01*
X1164Y1156D02*
X1210Y1156D01*
X429Y1155D02*
X475Y1155D01*
X1165Y1155D02*
X1210Y1155D01*
X429Y1154D02*
X474Y1154D01*
X1165Y1154D02*
X1211Y1154D01*
X428Y1153D02*
X473Y1153D01*
X1166Y1153D02*
X1211Y1153D01*
X428Y1152D02*
X472Y1152D01*
X1167Y1152D02*
X1211Y1152D01*
X428Y1151D02*
X471Y1151D01*
X1168Y1151D02*
X1212Y1151D01*
X427Y1150D02*
X470Y1150D01*
X1169Y1150D02*
X1212Y1150D01*
X427Y1149D02*
X469Y1149D01*
X1171Y1149D02*
X1212Y1149D01*
X426Y1148D02*
X468Y1148D01*
X1172Y1148D02*
X1213Y1148D01*
X426Y1147D02*
X467Y1147D01*
X1172Y1147D02*
X1213Y1147D01*
X426Y1146D02*
X466Y1146D01*
X1173Y1146D02*
X1214Y1146D01*
X425Y1145D02*
X465Y1145D01*
X1174Y1145D02*
X1214Y1145D01*
X425Y1144D02*
X464Y1144D01*
X1175Y1144D02*
X1214Y1144D01*
X425Y1143D02*
X464Y1143D01*
X1176Y1143D02*
X1215Y1143D01*
X424Y1142D02*
X463Y1142D01*
X1176Y1142D02*
X1215Y1142D01*
X424Y1141D02*
X462Y1141D01*
X1177Y1141D02*
X1215Y1141D01*
X424Y1140D02*
X462Y1140D01*
X1178Y1140D02*
X1216Y1140D01*
X423Y1139D02*
X461Y1139D01*
X1178Y1139D02*
X1216Y1139D01*
X423Y1138D02*
X460Y1138D01*
X1179Y1138D02*
X1216Y1138D01*
X423Y1137D02*
X460Y1137D01*
X1179Y1137D02*
X1217Y1137D01*
X422Y1136D02*
X459Y1136D01*
X1180Y1136D02*
X1217Y1136D01*
X422Y1135D02*
X459Y1135D01*
X1180Y1135D02*
X1217Y1135D01*
X422Y1134D02*
X458Y1134D01*
X1181Y1134D02*
X1218Y1134D01*
X421Y1133D02*
X458Y1133D01*
X1181Y1133D02*
X1218Y1133D01*
X421Y1132D02*
X458Y1132D01*
X1182Y1132D02*
X1218Y1132D01*
X421Y1131D02*
X457Y1131D01*
X1182Y1131D02*
X1219Y1131D01*
X420Y1130D02*
X457Y1130D01*
X1182Y1130D02*
X1219Y1130D01*
X420Y1129D02*
X456Y1129D01*
X1183Y1129D02*
X1219Y1129D01*
X420Y1128D02*
X456Y1128D01*
X1183Y1128D02*
X1219Y1128D01*
X419Y1127D02*
X456Y1127D01*
X1183Y1127D02*
X1220Y1127D01*
X419Y1126D02*
X456Y1126D01*
X1184Y1126D02*
X1220Y1126D01*
X419Y1125D02*
X455Y1125D01*
X1184Y1125D02*
X1220Y1125D01*
X419Y1124D02*
X455Y1124D01*
X418Y1123D02*
X455Y1123D01*
X418Y1122D02*
X455Y1122D01*
X418Y1121D02*
X455Y1121D01*
X418Y1120D02*
X454Y1120D01*
X417Y1119D02*
X454Y1119D01*
X417Y1118D02*
X454Y1118D01*
X417Y1117D02*
X454Y1117D01*
X417Y1116D02*
X454Y1116D01*
X416Y1115D02*
X454Y1115D01*
X416Y1114D02*
X454Y1114D01*
X416Y1113D02*
X454Y1113D01*
X416Y1112D02*
X454Y1112D01*
X415Y1111D02*
X454Y1111D01*
X415Y1110D02*
X454Y1110D01*
X415Y1109D02*
X454Y1109D01*
X415Y1108D02*
X454Y1108D01*
X414Y1107D02*
X454Y1107D01*
X414Y1106D02*
X454Y1106D01*
X414Y1105D02*
X453Y1105D01*
X414Y1104D02*
X453Y1104D01*
X414Y1103D02*
X453Y1103D01*
X413Y1102D02*
X452Y1102D01*
X413Y1101D02*
X452Y1101D01*
X413Y1100D02*
X452Y1100D01*
X413Y1099D02*
X451Y1099D01*
X413Y1098D02*
X451Y1098D01*
X413Y1097D02*
X451Y1097D01*
X412Y1096D02*
X451Y1096D01*
X412Y1095D02*
X450Y1095D01*
X412Y1094D02*
X450Y1094D01*
X412Y1093D02*
X450Y1093D01*
X412Y1092D02*
X450Y1092D01*
X411Y1091D02*
X449Y1091D01*
X411Y1090D02*
X449Y1090D01*
X411Y1089D02*
X449Y1089D01*
X411Y1088D02*
X449Y1088D01*
X411Y1087D02*
X448Y1087D01*
X411Y1086D02*
X448Y1086D01*
X411Y1085D02*
X448Y1085D01*
X410Y1084D02*
X448Y1084D01*
X410Y1083D02*
X447Y1083D01*
X410Y1082D02*
X447Y1082D01*
X410Y1081D02*
X447Y1081D01*
X410Y1080D02*
X447Y1080D01*
X410Y1079D02*
X447Y1079D01*
X410Y1078D02*
X446Y1078D01*
X410Y1077D02*
X446Y1077D01*
X409Y1076D02*
X446Y1076D01*
X409Y1075D02*
X446Y1075D01*
X409Y1074D02*
X446Y1074D01*
X409Y1073D02*
X445Y1073D01*
X409Y1072D02*
X445Y1072D01*
X409Y1071D02*
X445Y1071D01*
X409Y1070D02*
X445Y1070D01*
X409Y1069D02*
X445Y1069D01*
X409Y1068D02*
X445Y1068D01*
X408Y1067D02*
X444Y1067D01*
X408Y1066D02*
X444Y1066D01*
X408Y1065D02*
X444Y1065D01*
X408Y1064D02*
X444Y1064D01*
X408Y1063D02*
X444Y1063D01*
X408Y1062D02*
X444Y1062D01*
X408Y1061D02*
X444Y1061D01*
X408Y1060D02*
X443Y1060D01*
X408Y1059D02*
X443Y1059D01*
X408Y1058D02*
X443Y1058D01*
X408Y1057D02*
X443Y1057D01*
X408Y1056D02*
X443Y1056D01*
X408Y1055D02*
X443Y1055D01*
X407Y1054D02*
X443Y1054D01*
X407Y1053D02*
X442Y1053D01*
X407Y1052D02*
X442Y1052D01*
X407Y1051D02*
X442Y1051D01*
X407Y1050D02*
X442Y1050D01*
X407Y1049D02*
X442Y1049D01*
X407Y1048D02*
X442Y1048D01*
X407Y1047D02*
X442Y1047D01*
X407Y1046D02*
X442Y1046D01*
X407Y1045D02*
X442Y1045D01*
X407Y1044D02*
X442Y1044D01*
X407Y1043D02*
X441Y1043D01*
X407Y1042D02*
X441Y1042D01*
X407Y1041D02*
X441Y1041D01*
X407Y1040D02*
X441Y1040D01*
X407Y1039D02*
X441Y1039D01*
X407Y1038D02*
X441Y1038D01*
X407Y1037D02*
X441Y1037D01*
X407Y1036D02*
X441Y1036D01*
X407Y1035D02*
X441Y1035D01*
X407Y1034D02*
X441Y1034D01*
X407Y1033D02*
X441Y1033D01*
X407Y1032D02*
X441Y1032D01*
X407Y1031D02*
X441Y1031D01*
X407Y1030D02*
X441Y1030D01*
X407Y1029D02*
X440Y1029D01*
X407Y1028D02*
X440Y1028D01*
X407Y1027D02*
X440Y1027D01*
X407Y1026D02*
X440Y1026D01*
X407Y1025D02*
X440Y1025D01*
X407Y1024D02*
X440Y1024D01*
X407Y1023D02*
X440Y1023D01*
X407Y1022D02*
X440Y1022D01*
X407Y1021D02*
X440Y1021D01*
X407Y1020D02*
X440Y1020D01*
X407Y1019D02*
X440Y1019D01*
X407Y1018D02*
X440Y1018D01*
X407Y1017D02*
X440Y1017D01*
X407Y1016D02*
X440Y1016D01*
X407Y1015D02*
X440Y1015D01*
X407Y1014D02*
X440Y1014D01*
X407Y1013D02*
X440Y1013D01*
X407Y1012D02*
X440Y1012D01*
X407Y1011D02*
X440Y1011D01*
X407Y1010D02*
X440Y1010D01*
X407Y1009D02*
X440Y1009D01*
X407Y1008D02*
X440Y1008D01*
X407Y1007D02*
X440Y1007D01*
X407Y1006D02*
X440Y1006D01*
X407Y1005D02*
X440Y1005D01*
X407Y1004D02*
X440Y1004D01*
X407Y1003D02*
X440Y1003D01*
X407Y1002D02*
X440Y1002D01*
X407Y1001D02*
X440Y1001D01*
X407Y1000D02*
X440Y1000D01*
X407Y999D02*
X440Y999D01*
X407Y998D02*
X440Y998D01*
X407Y997D02*
X440Y997D01*
X407Y996D02*
X440Y996D01*
X407Y995D02*
X440Y995D01*
X407Y994D02*
X440Y994D01*
X407Y993D02*
X440Y993D01*
X407Y992D02*
X440Y992D01*
X407Y991D02*
X440Y991D01*
X407Y990D02*
X440Y990D01*
X407Y989D02*
X440Y989D01*
X407Y988D02*
X440Y988D01*
X407Y987D02*
X440Y987D01*
X407Y986D02*
X440Y986D01*
X407Y985D02*
X440Y985D01*
X407Y984D02*
X440Y984D01*
X407Y983D02*
X440Y983D01*
X407Y982D02*
X440Y982D01*
X407Y981D02*
X440Y981D01*
X407Y980D02*
X440Y980D01*
X407Y979D02*
X440Y979D01*
X407Y978D02*
X440Y978D01*
X407Y977D02*
X440Y977D01*
X407Y976D02*
X440Y976D01*
X407Y975D02*
X440Y975D01*
X407Y974D02*
X440Y974D01*
X407Y973D02*
X440Y973D01*
X407Y972D02*
X440Y972D01*
X407Y971D02*
X440Y971D01*
X407Y970D02*
X440Y970D01*
X407Y969D02*
X440Y969D01*
X407Y968D02*
X440Y968D01*
X407Y967D02*
X440Y967D01*
X407Y966D02*
X440Y966D01*
X407Y965D02*
X440Y965D01*
X407Y964D02*
X440Y964D01*
X407Y963D02*
X440Y963D01*
X407Y962D02*
X440Y962D01*
X407Y961D02*
X440Y961D01*
X407Y960D02*
X440Y960D01*
X407Y959D02*
X440Y959D01*
X407Y958D02*
X440Y958D01*
X407Y957D02*
X440Y957D01*
X407Y956D02*
X440Y956D01*
X407Y955D02*
X440Y955D01*
X407Y954D02*
X440Y954D01*
X407Y953D02*
X440Y953D01*
X407Y952D02*
X440Y952D01*
X407Y951D02*
X440Y951D01*
X407Y950D02*
X440Y950D01*
X407Y949D02*
X440Y949D01*
X407Y948D02*
X440Y948D01*
X407Y947D02*
X440Y947D01*
X407Y946D02*
X440Y946D01*
X407Y945D02*
X440Y945D01*
X407Y944D02*
X440Y944D01*
X407Y943D02*
X440Y943D01*
X407Y942D02*
X440Y942D01*
X407Y941D02*
X440Y941D01*
X407Y940D02*
X440Y940D01*
X407Y939D02*
X440Y939D01*
X407Y938D02*
X440Y938D01*
X407Y937D02*
X440Y937D01*
X407Y936D02*
X440Y936D01*
X407Y935D02*
X440Y935D01*
X407Y934D02*
X440Y934D01*
X407Y933D02*
X440Y933D01*
X407Y932D02*
X440Y932D01*
X407Y931D02*
X440Y931D01*
X407Y930D02*
X440Y930D01*
X407Y929D02*
X440Y929D01*
X407Y928D02*
X440Y928D01*
X407Y927D02*
X440Y927D01*
X407Y926D02*
X440Y926D01*
X407Y925D02*
X440Y925D01*
X407Y924D02*
X440Y924D01*
X407Y923D02*
X440Y923D01*
X407Y922D02*
X440Y922D01*
X407Y921D02*
X440Y921D01*
X407Y920D02*
X440Y920D01*
X407Y919D02*
X440Y919D01*
X407Y918D02*
X440Y918D01*
X407Y917D02*
X440Y917D01*
X407Y916D02*
X440Y916D01*
X407Y915D02*
X440Y915D01*
X407Y914D02*
X440Y914D01*
X407Y913D02*
X440Y913D01*
X407Y912D02*
X440Y912D01*
X407Y911D02*
X440Y911D01*
X407Y910D02*
X440Y910D01*
X407Y909D02*
X440Y909D01*
X407Y908D02*
X440Y908D01*
X407Y907D02*
X440Y907D01*
X407Y906D02*
X440Y906D01*
X407Y905D02*
X440Y905D01*
X407Y904D02*
X440Y904D01*
X407Y903D02*
X440Y903D01*
X407Y902D02*
X440Y902D01*
X407Y901D02*
X440Y901D01*
X407Y900D02*
X440Y900D01*
X407Y899D02*
X440Y899D01*
X407Y898D02*
X440Y898D01*
X407Y897D02*
X440Y897D01*
X407Y896D02*
X440Y896D01*
X407Y895D02*
X440Y895D01*
X407Y894D02*
X440Y894D01*
X407Y893D02*
X440Y893D01*
X407Y892D02*
X440Y892D01*
X407Y891D02*
X440Y891D01*
X407Y890D02*
X440Y890D01*
X407Y889D02*
X440Y889D01*
X407Y888D02*
X440Y888D01*
X407Y887D02*
X440Y887D01*
X407Y886D02*
X440Y886D01*
X407Y885D02*
X440Y885D01*
X407Y884D02*
X440Y884D01*
X407Y883D02*
X440Y883D01*
X407Y882D02*
X440Y882D01*
X407Y881D02*
X440Y881D01*
X407Y880D02*
X440Y880D01*
X407Y879D02*
X440Y879D01*
X407Y878D02*
X440Y878D01*
X407Y877D02*
X440Y877D01*
X407Y876D02*
X440Y876D01*
X407Y875D02*
X440Y875D01*
X407Y874D02*
X440Y874D01*
X407Y873D02*
X440Y873D01*
X407Y872D02*
X440Y872D01*
X407Y871D02*
X440Y871D01*
X407Y870D02*
X440Y870D01*
X407Y869D02*
X440Y869D01*
X407Y868D02*
X440Y868D01*
X407Y867D02*
X440Y867D01*
X407Y866D02*
X440Y866D01*
X407Y865D02*
X440Y865D01*
X407Y864D02*
X440Y864D01*
X407Y863D02*
X440Y863D01*
X407Y862D02*
X440Y862D01*
X407Y861D02*
X440Y861D01*
X407Y860D02*
X440Y860D01*
X407Y859D02*
X440Y859D01*
X407Y858D02*
X440Y858D01*
X407Y857D02*
X440Y857D01*
X407Y856D02*
X440Y856D01*
X407Y855D02*
X440Y855D01*
X407Y854D02*
X440Y854D01*
X407Y853D02*
X440Y853D01*
X407Y852D02*
X440Y852D01*
X407Y851D02*
X440Y851D01*
X407Y850D02*
X440Y850D01*
X407Y849D02*
X440Y849D01*
X407Y848D02*
X440Y848D01*
X407Y847D02*
X440Y847D01*
X407Y846D02*
X440Y846D01*
X407Y845D02*
X440Y845D01*
X407Y844D02*
X440Y844D01*
X407Y843D02*
X440Y843D01*
X407Y842D02*
X440Y842D01*
X407Y841D02*
X440Y841D01*
X407Y840D02*
X440Y840D01*
X407Y839D02*
X440Y839D01*
X407Y838D02*
X440Y838D01*
X407Y837D02*
X440Y837D01*
X407Y836D02*
X440Y836D01*
X407Y835D02*
X440Y835D01*
X407Y834D02*
X440Y834D01*
X407Y833D02*
X440Y833D01*
X407Y832D02*
X440Y832D01*
X407Y831D02*
X440Y831D01*
X407Y830D02*
X440Y830D01*
X407Y829D02*
X440Y829D01*
X407Y828D02*
X440Y828D01*
X407Y827D02*
X440Y827D01*
X407Y826D02*
X440Y826D01*
X407Y825D02*
X440Y825D01*
X407Y824D02*
X440Y824D01*
X407Y823D02*
X440Y823D01*
X407Y822D02*
X440Y822D01*
X407Y821D02*
X440Y821D01*
X407Y820D02*
X440Y820D01*
X407Y819D02*
X440Y819D01*
X407Y818D02*
X440Y818D01*
X407Y817D02*
X440Y817D01*
X407Y816D02*
X440Y816D01*
X407Y815D02*
X440Y815D01*
X407Y814D02*
X440Y814D01*
X407Y813D02*
X440Y813D01*
X407Y812D02*
X440Y812D01*
X407Y811D02*
X440Y811D01*
X407Y810D02*
X440Y810D01*
X407Y809D02*
X440Y809D01*
X407Y808D02*
X440Y808D01*
X407Y807D02*
X440Y807D01*
X407Y806D02*
X440Y806D01*
X407Y805D02*
X440Y805D01*
X407Y804D02*
X440Y804D01*
X407Y803D02*
X440Y803D01*
X407Y802D02*
X440Y802D01*
X407Y801D02*
X440Y801D01*
X407Y800D02*
X440Y800D01*
X407Y799D02*
X440Y799D01*
X407Y798D02*
X440Y798D01*
X407Y797D02*
X440Y797D01*
X407Y796D02*
X440Y796D01*
X407Y795D02*
X440Y795D01*
X699Y795D02*
X730Y795D01*
X747Y795D02*
X756Y795D01*
X776Y795D02*
X780Y795D01*
X849Y795D02*
X867Y795D01*
X899Y795D02*
X927Y795D01*
X947Y795D02*
X972Y795D01*
X407Y794D02*
X440Y794D01*
X698Y794D02*
X731Y794D01*
X747Y794D02*
X757Y794D01*
X776Y794D02*
X781Y794D01*
X848Y794D02*
X867Y794D01*
X898Y794D02*
X929Y794D01*
X947Y794D02*
X974Y794D01*
X407Y793D02*
X440Y793D01*
X698Y793D02*
X731Y793D01*
X747Y793D02*
X757Y793D01*
X775Y793D02*
X781Y793D01*
X848Y793D02*
X867Y793D01*
X898Y793D02*
X930Y793D01*
X947Y793D02*
X975Y793D01*
X407Y792D02*
X440Y792D01*
X698Y792D02*
X731Y792D01*
X747Y792D02*
X757Y792D01*
X775Y792D02*
X781Y792D01*
X848Y792D02*
X867Y792D01*
X897Y792D02*
X930Y792D01*
X947Y792D02*
X976Y792D01*
X407Y791D02*
X440Y791D01*
X698Y791D02*
X731Y791D01*
X747Y791D02*
X758Y791D01*
X775Y791D02*
X781Y791D01*
X848Y791D02*
X867Y791D01*
X898Y791D02*
X931Y791D01*
X947Y791D02*
X977Y791D01*
X407Y790D02*
X440Y790D01*
X698Y790D02*
X730Y790D01*
X747Y790D02*
X758Y790D01*
X775Y790D02*
X781Y790D01*
X848Y790D02*
X867Y790D01*
X898Y790D02*
X931Y790D01*
X947Y790D02*
X978Y790D01*
X407Y789D02*
X440Y789D01*
X700Y789D02*
X728Y789D01*
X747Y789D02*
X759Y789D01*
X775Y789D02*
X781Y789D01*
X850Y789D02*
X867Y789D01*
X900Y789D02*
X931Y789D01*
X947Y789D02*
X979Y789D01*
X407Y788D02*
X440Y788D01*
X711Y788D02*
X717Y788D01*
X747Y788D02*
X759Y788D01*
X775Y788D02*
X781Y788D01*
X861Y788D02*
X867Y788D01*
X925Y788D02*
X931Y788D01*
X947Y788D02*
X953Y788D01*
X971Y788D02*
X979Y788D01*
X407Y787D02*
X440Y787D01*
X711Y787D02*
X717Y787D01*
X747Y787D02*
X760Y787D01*
X775Y787D02*
X781Y787D01*
X861Y787D02*
X867Y787D01*
X925Y787D02*
X931Y787D01*
X947Y787D02*
X953Y787D01*
X973Y787D02*
X980Y787D01*
X407Y786D02*
X440Y786D01*
X711Y786D02*
X717Y786D01*
X747Y786D02*
X760Y786D01*
X775Y786D02*
X781Y786D01*
X861Y786D02*
X867Y786D01*
X925Y786D02*
X931Y786D01*
X947Y786D02*
X953Y786D01*
X973Y786D02*
X980Y786D01*
X407Y785D02*
X440Y785D01*
X711Y785D02*
X717Y785D01*
X747Y785D02*
X760Y785D01*
X775Y785D02*
X781Y785D01*
X861Y785D02*
X867Y785D01*
X925Y785D02*
X931Y785D01*
X947Y785D02*
X953Y785D01*
X974Y785D02*
X981Y785D01*
X407Y784D02*
X440Y784D01*
X711Y784D02*
X717Y784D01*
X747Y784D02*
X761Y784D01*
X775Y784D02*
X781Y784D01*
X861Y784D02*
X867Y784D01*
X925Y784D02*
X931Y784D01*
X947Y784D02*
X953Y784D01*
X975Y784D02*
X981Y784D01*
X407Y783D02*
X440Y783D01*
X711Y783D02*
X717Y783D01*
X747Y783D02*
X761Y783D01*
X775Y783D02*
X781Y783D01*
X861Y783D02*
X867Y783D01*
X925Y783D02*
X931Y783D01*
X947Y783D02*
X953Y783D01*
X975Y783D02*
X981Y783D01*
X407Y782D02*
X440Y782D01*
X711Y782D02*
X717Y782D01*
X747Y782D02*
X762Y782D01*
X775Y782D02*
X781Y782D01*
X861Y782D02*
X867Y782D01*
X925Y782D02*
X931Y782D01*
X947Y782D02*
X953Y782D01*
X975Y782D02*
X981Y782D01*
X407Y781D02*
X440Y781D01*
X711Y781D02*
X717Y781D01*
X747Y781D02*
X754Y781D01*
X756Y781D02*
X762Y781D01*
X775Y781D02*
X781Y781D01*
X861Y781D02*
X867Y781D01*
X925Y781D02*
X931Y781D01*
X947Y781D02*
X953Y781D01*
X975Y781D02*
X981Y781D01*
X407Y780D02*
X440Y780D01*
X711Y780D02*
X717Y780D01*
X747Y780D02*
X754Y780D01*
X756Y780D02*
X763Y780D01*
X775Y780D02*
X781Y780D01*
X861Y780D02*
X867Y780D01*
X925Y780D02*
X931Y780D01*
X947Y780D02*
X953Y780D01*
X975Y780D02*
X981Y780D01*
X407Y779D02*
X440Y779D01*
X711Y779D02*
X717Y779D01*
X747Y779D02*
X754Y779D01*
X756Y779D02*
X763Y779D01*
X775Y779D02*
X781Y779D01*
X861Y779D02*
X867Y779D01*
X925Y779D02*
X931Y779D01*
X947Y779D02*
X953Y779D01*
X975Y779D02*
X981Y779D01*
X407Y778D02*
X440Y778D01*
X711Y778D02*
X717Y778D01*
X747Y778D02*
X754Y778D01*
X757Y778D02*
X764Y778D01*
X775Y778D02*
X781Y778D01*
X861Y778D02*
X867Y778D01*
X925Y778D02*
X931Y778D01*
X947Y778D02*
X953Y778D01*
X975Y778D02*
X981Y778D01*
X407Y777D02*
X440Y777D01*
X711Y777D02*
X717Y777D01*
X747Y777D02*
X754Y777D01*
X757Y777D02*
X764Y777D01*
X775Y777D02*
X781Y777D01*
X861Y777D02*
X867Y777D01*
X925Y777D02*
X931Y777D01*
X947Y777D02*
X953Y777D01*
X975Y777D02*
X981Y777D01*
X407Y776D02*
X440Y776D01*
X711Y776D02*
X717Y776D01*
X747Y776D02*
X754Y776D01*
X758Y776D02*
X764Y776D01*
X775Y776D02*
X781Y776D01*
X861Y776D02*
X867Y776D01*
X925Y776D02*
X931Y776D01*
X947Y776D02*
X953Y776D01*
X974Y776D02*
X981Y776D01*
X407Y775D02*
X440Y775D01*
X711Y775D02*
X717Y775D01*
X747Y775D02*
X754Y775D01*
X758Y775D02*
X765Y775D01*
X775Y775D02*
X781Y775D01*
X861Y775D02*
X867Y775D01*
X925Y775D02*
X931Y775D01*
X947Y775D02*
X953Y775D01*
X973Y775D02*
X980Y775D01*
X407Y774D02*
X440Y774D01*
X711Y774D02*
X717Y774D01*
X747Y774D02*
X754Y774D01*
X759Y774D02*
X765Y774D01*
X775Y774D02*
X781Y774D01*
X861Y774D02*
X867Y774D01*
X925Y774D02*
X931Y774D01*
X947Y774D02*
X953Y774D01*
X972Y774D02*
X980Y774D01*
X407Y773D02*
X440Y773D01*
X711Y773D02*
X717Y773D01*
X747Y773D02*
X754Y773D01*
X759Y773D02*
X766Y773D01*
X775Y773D02*
X781Y773D01*
X861Y773D02*
X867Y773D01*
X925Y773D02*
X931Y773D01*
X947Y773D02*
X953Y773D01*
X971Y773D02*
X979Y773D01*
X407Y772D02*
X440Y772D01*
X711Y772D02*
X717Y772D01*
X747Y772D02*
X754Y772D01*
X759Y772D02*
X766Y772D01*
X775Y772D02*
X781Y772D01*
X800Y772D02*
X829Y772D01*
X861Y772D02*
X867Y772D01*
X903Y772D02*
X931Y772D01*
X947Y772D02*
X979Y772D01*
X407Y771D02*
X440Y771D01*
X711Y771D02*
X717Y771D01*
X747Y771D02*
X754Y771D01*
X760Y771D02*
X767Y771D01*
X775Y771D02*
X781Y771D01*
X798Y771D02*
X830Y771D01*
X861Y771D02*
X867Y771D01*
X900Y771D02*
X931Y771D01*
X947Y771D02*
X978Y771D01*
X407Y770D02*
X440Y770D01*
X711Y770D02*
X717Y770D01*
X747Y770D02*
X754Y770D01*
X760Y770D02*
X767Y770D01*
X775Y770D02*
X781Y770D01*
X798Y770D02*
X831Y770D01*
X861Y770D02*
X867Y770D01*
X899Y770D02*
X931Y770D01*
X947Y770D02*
X977Y770D01*
X407Y769D02*
X440Y769D01*
X711Y769D02*
X717Y769D01*
X747Y769D02*
X754Y769D01*
X761Y769D02*
X767Y769D01*
X775Y769D02*
X781Y769D01*
X798Y769D02*
X831Y769D01*
X861Y769D02*
X867Y769D01*
X899Y769D02*
X930Y769D01*
X947Y769D02*
X976Y769D01*
X407Y768D02*
X440Y768D01*
X711Y768D02*
X717Y768D01*
X747Y768D02*
X754Y768D01*
X761Y768D02*
X768Y768D01*
X775Y768D02*
X781Y768D01*
X797Y768D02*
X831Y768D01*
X861Y768D02*
X867Y768D01*
X898Y768D02*
X929Y768D01*
X947Y768D02*
X977Y768D01*
X407Y767D02*
X440Y767D01*
X711Y767D02*
X717Y767D01*
X747Y767D02*
X754Y767D01*
X762Y767D02*
X768Y767D01*
X775Y767D02*
X781Y767D01*
X797Y767D02*
X831Y767D01*
X861Y767D02*
X867Y767D01*
X898Y767D02*
X928Y767D01*
X947Y767D02*
X978Y767D01*
X407Y766D02*
X440Y766D01*
X711Y766D02*
X717Y766D01*
X747Y766D02*
X754Y766D01*
X762Y766D02*
X769Y766D01*
X775Y766D02*
X781Y766D01*
X797Y766D02*
X831Y766D01*
X861Y766D02*
X867Y766D01*
X877Y766D02*
X879Y766D01*
X897Y766D02*
X927Y766D01*
X947Y766D02*
X979Y766D01*
X407Y765D02*
X440Y765D01*
X711Y765D02*
X717Y765D01*
X747Y765D02*
X754Y765D01*
X763Y765D02*
X769Y765D01*
X775Y765D02*
X781Y765D01*
X798Y765D02*
X831Y765D01*
X861Y765D02*
X867Y765D01*
X876Y765D02*
X880Y765D01*
X897Y765D02*
X904Y765D01*
X947Y765D02*
X954Y765D01*
X970Y765D02*
X979Y765D01*
X407Y764D02*
X440Y764D01*
X711Y764D02*
X717Y764D01*
X747Y764D02*
X754Y764D01*
X763Y764D02*
X770Y764D01*
X775Y764D02*
X781Y764D01*
X798Y764D02*
X830Y764D01*
X861Y764D02*
X867Y764D01*
X875Y764D02*
X881Y764D01*
X897Y764D02*
X903Y764D01*
X947Y764D02*
X953Y764D01*
X972Y764D02*
X980Y764D01*
X407Y763D02*
X440Y763D01*
X711Y763D02*
X717Y763D01*
X747Y763D02*
X754Y763D01*
X763Y763D02*
X770Y763D01*
X775Y763D02*
X781Y763D01*
X799Y763D02*
X829Y763D01*
X861Y763D02*
X867Y763D01*
X875Y763D02*
X881Y763D01*
X897Y763D02*
X903Y763D01*
X947Y763D02*
X953Y763D01*
X973Y763D02*
X980Y763D01*
X407Y762D02*
X440Y762D01*
X711Y762D02*
X717Y762D01*
X747Y762D02*
X754Y762D01*
X764Y762D02*
X771Y762D01*
X775Y762D02*
X781Y762D01*
X861Y762D02*
X867Y762D01*
X875Y762D02*
X881Y762D01*
X897Y762D02*
X903Y762D01*
X947Y762D02*
X953Y762D01*
X974Y762D02*
X980Y762D01*
X407Y761D02*
X440Y761D01*
X711Y761D02*
X717Y761D01*
X747Y761D02*
X754Y761D01*
X764Y761D02*
X771Y761D01*
X775Y761D02*
X781Y761D01*
X861Y761D02*
X867Y761D01*
X875Y761D02*
X881Y761D01*
X897Y761D02*
X903Y761D01*
X947Y761D02*
X953Y761D01*
X974Y761D02*
X981Y761D01*
X407Y760D02*
X440Y760D01*
X711Y760D02*
X717Y760D01*
X747Y760D02*
X754Y760D01*
X765Y760D02*
X771Y760D01*
X775Y760D02*
X781Y760D01*
X861Y760D02*
X867Y760D01*
X875Y760D02*
X881Y760D01*
X897Y760D02*
X903Y760D01*
X947Y760D02*
X953Y760D01*
X975Y760D02*
X981Y760D01*
X407Y759D02*
X440Y759D01*
X711Y759D02*
X717Y759D01*
X747Y759D02*
X754Y759D01*
X765Y759D02*
X772Y759D01*
X775Y759D02*
X781Y759D01*
X861Y759D02*
X867Y759D01*
X875Y759D02*
X881Y759D01*
X897Y759D02*
X903Y759D01*
X947Y759D02*
X953Y759D01*
X975Y759D02*
X981Y759D01*
X407Y758D02*
X440Y758D01*
X711Y758D02*
X717Y758D01*
X747Y758D02*
X754Y758D01*
X766Y758D02*
X772Y758D01*
X775Y758D02*
X781Y758D01*
X861Y758D02*
X867Y758D01*
X875Y758D02*
X881Y758D01*
X897Y758D02*
X903Y758D01*
X947Y758D02*
X953Y758D01*
X975Y758D02*
X981Y758D01*
X407Y757D02*
X440Y757D01*
X711Y757D02*
X717Y757D01*
X747Y757D02*
X754Y757D01*
X766Y757D02*
X773Y757D01*
X775Y757D02*
X781Y757D01*
X861Y757D02*
X867Y757D01*
X875Y757D02*
X881Y757D01*
X897Y757D02*
X903Y757D01*
X947Y757D02*
X953Y757D01*
X975Y757D02*
X981Y757D01*
X407Y756D02*
X440Y756D01*
X711Y756D02*
X717Y756D01*
X747Y756D02*
X754Y756D01*
X766Y756D02*
X773Y756D01*
X775Y756D02*
X781Y756D01*
X861Y756D02*
X867Y756D01*
X875Y756D02*
X881Y756D01*
X897Y756D02*
X903Y756D01*
X947Y756D02*
X953Y756D01*
X975Y756D02*
X981Y756D01*
X407Y755D02*
X440Y755D01*
X711Y755D02*
X717Y755D01*
X747Y755D02*
X754Y755D01*
X767Y755D02*
X781Y755D01*
X861Y755D02*
X867Y755D01*
X875Y755D02*
X881Y755D01*
X897Y755D02*
X903Y755D01*
X947Y755D02*
X953Y755D01*
X975Y755D02*
X981Y755D01*
X407Y754D02*
X440Y754D01*
X711Y754D02*
X717Y754D01*
X747Y754D02*
X754Y754D01*
X767Y754D02*
X781Y754D01*
X861Y754D02*
X867Y754D01*
X875Y754D02*
X881Y754D01*
X897Y754D02*
X903Y754D01*
X947Y754D02*
X953Y754D01*
X975Y754D02*
X981Y754D01*
X407Y753D02*
X440Y753D01*
X711Y753D02*
X717Y753D01*
X747Y753D02*
X754Y753D01*
X768Y753D02*
X781Y753D01*
X861Y753D02*
X867Y753D01*
X875Y753D02*
X881Y753D01*
X897Y753D02*
X903Y753D01*
X947Y753D02*
X953Y753D01*
X974Y753D02*
X981Y753D01*
X407Y752D02*
X440Y752D01*
X711Y752D02*
X717Y752D01*
X747Y752D02*
X754Y752D01*
X768Y752D02*
X781Y752D01*
X861Y752D02*
X867Y752D01*
X875Y752D02*
X881Y752D01*
X897Y752D02*
X903Y752D01*
X947Y752D02*
X953Y752D01*
X974Y752D02*
X980Y752D01*
X407Y751D02*
X440Y751D01*
X711Y751D02*
X717Y751D01*
X747Y751D02*
X754Y751D01*
X769Y751D02*
X781Y751D01*
X861Y751D02*
X867Y751D01*
X875Y751D02*
X881Y751D01*
X897Y751D02*
X903Y751D01*
X947Y751D02*
X953Y751D01*
X973Y751D02*
X980Y751D01*
X407Y750D02*
X440Y750D01*
X711Y750D02*
X717Y750D01*
X747Y750D02*
X754Y750D01*
X769Y750D02*
X781Y750D01*
X861Y750D02*
X867Y750D01*
X875Y750D02*
X881Y750D01*
X897Y750D02*
X903Y750D01*
X947Y750D02*
X953Y750D01*
X972Y750D02*
X980Y750D01*
X407Y749D02*
X440Y749D01*
X711Y749D02*
X717Y749D01*
X747Y749D02*
X754Y749D01*
X770Y749D02*
X781Y749D01*
X861Y749D02*
X867Y749D01*
X875Y749D02*
X881Y749D01*
X897Y749D02*
X904Y749D01*
X947Y749D02*
X954Y749D01*
X970Y749D02*
X979Y749D01*
X407Y748D02*
X440Y748D01*
X699Y748D02*
X730Y748D01*
X747Y748D02*
X754Y748D01*
X770Y748D02*
X781Y748D01*
X849Y748D02*
X881Y748D01*
X897Y748D02*
X929Y748D01*
X947Y748D02*
X979Y748D01*
X407Y747D02*
X440Y747D01*
X698Y747D02*
X730Y747D01*
X747Y747D02*
X754Y747D01*
X770Y747D02*
X781Y747D01*
X848Y747D02*
X881Y747D01*
X897Y747D02*
X930Y747D01*
X947Y747D02*
X978Y747D01*
X407Y746D02*
X440Y746D01*
X698Y746D02*
X731Y746D01*
X747Y746D02*
X754Y746D01*
X771Y746D02*
X781Y746D01*
X848Y746D02*
X881Y746D01*
X897Y746D02*
X931Y746D01*
X947Y746D02*
X977Y746D01*
X407Y745D02*
X440Y745D01*
X698Y745D02*
X731Y745D01*
X748Y745D02*
X753Y745D01*
X771Y745D02*
X781Y745D01*
X847Y745D02*
X881Y745D01*
X897Y745D02*
X931Y745D01*
X947Y745D02*
X976Y745D01*
X407Y744D02*
X440Y744D01*
X698Y744D02*
X731Y744D01*
X748Y744D02*
X753Y744D01*
X772Y744D02*
X781Y744D01*
X848Y744D02*
X881Y744D01*
X897Y744D02*
X931Y744D01*
X947Y744D02*
X975Y744D01*
X407Y743D02*
X440Y743D01*
X698Y743D02*
X730Y743D01*
X748Y743D02*
X753Y743D01*
X772Y743D02*
X781Y743D01*
X848Y743D02*
X880Y743D01*
X897Y743D02*
X930Y743D01*
X947Y743D02*
X973Y743D01*
X407Y742D02*
X440Y742D01*
X700Y742D02*
X729Y742D01*
X750Y742D02*
X751Y742D01*
X773Y742D02*
X781Y742D01*
X850Y742D02*
X879Y742D01*
X898Y742D02*
X929Y742D01*
X948Y742D02*
X970Y742D01*
X407Y741D02*
X440Y741D01*
X407Y740D02*
X440Y740D01*
X407Y739D02*
X440Y739D01*
X407Y738D02*
X440Y738D01*
X407Y737D02*
X440Y737D01*
X407Y736D02*
X440Y736D01*
X407Y735D02*
X440Y735D01*
X407Y734D02*
X440Y734D01*
X407Y733D02*
X440Y733D01*
X407Y732D02*
X440Y732D01*
X407Y731D02*
X440Y731D01*
X407Y730D02*
X440Y730D01*
X407Y729D02*
X440Y729D01*
X407Y728D02*
X440Y728D01*
X407Y727D02*
X440Y727D01*
X407Y726D02*
X440Y726D01*
X407Y725D02*
X440Y725D01*
X407Y724D02*
X440Y724D01*
X407Y723D02*
X440Y723D01*
X407Y722D02*
X440Y722D01*
X407Y721D02*
X440Y721D01*
X407Y720D02*
X440Y720D01*
X407Y719D02*
X440Y719D01*
X407Y718D02*
X440Y718D01*
X407Y717D02*
X440Y717D01*
X407Y716D02*
X440Y716D01*
X407Y715D02*
X440Y715D01*
X407Y714D02*
X440Y714D01*
X407Y713D02*
X440Y713D01*
X407Y712D02*
X440Y712D01*
X407Y711D02*
X440Y711D01*
X407Y710D02*
X440Y710D01*
X407Y709D02*
X440Y709D01*
X407Y708D02*
X440Y708D01*
X407Y707D02*
X440Y707D01*
X407Y706D02*
X440Y706D01*
X407Y705D02*
X440Y705D01*
X407Y704D02*
X440Y704D01*
X407Y703D02*
X440Y703D01*
X407Y702D02*
X440Y702D01*
X407Y701D02*
X440Y701D01*
X407Y700D02*
X440Y700D01*
X407Y699D02*
X440Y699D01*
X407Y698D02*
X440Y698D01*
X407Y697D02*
X440Y697D01*
X407Y696D02*
X440Y696D01*
X407Y695D02*
X440Y695D01*
X407Y694D02*
X440Y694D01*
X407Y693D02*
X440Y693D01*
X407Y692D02*
X440Y692D01*
X407Y691D02*
X440Y691D01*
X407Y690D02*
X440Y690D01*
X407Y689D02*
X440Y689D01*
X407Y688D02*
X440Y688D01*
X407Y687D02*
X440Y687D01*
X407Y686D02*
X440Y686D01*
X407Y685D02*
X440Y685D01*
X407Y684D02*
X440Y684D01*
X407Y683D02*
X440Y683D01*
X407Y682D02*
X440Y682D01*
X407Y681D02*
X440Y681D01*
X407Y680D02*
X440Y680D01*
X407Y679D02*
X440Y679D01*
X407Y678D02*
X440Y678D01*
X407Y677D02*
X440Y677D01*
X407Y676D02*
X440Y676D01*
X407Y675D02*
X440Y675D01*
X407Y674D02*
X440Y674D01*
X407Y673D02*
X440Y673D01*
X407Y672D02*
X440Y672D01*
X407Y671D02*
X440Y671D01*
X407Y670D02*
X440Y670D01*
X407Y669D02*
X440Y669D01*
X407Y668D02*
X440Y668D01*
X407Y667D02*
X440Y667D01*
X407Y666D02*
X440Y666D01*
X407Y665D02*
X440Y665D01*
X407Y664D02*
X440Y664D01*
X407Y663D02*
X440Y663D01*
X407Y662D02*
X440Y662D01*
X407Y661D02*
X440Y661D01*
X407Y660D02*
X440Y660D01*
X407Y659D02*
X440Y659D01*
X407Y658D02*
X440Y658D01*
X407Y657D02*
X440Y657D01*
X407Y656D02*
X440Y656D01*
X407Y655D02*
X440Y655D01*
X407Y654D02*
X440Y654D01*
X407Y653D02*
X440Y653D01*
X407Y652D02*
X440Y652D01*
X407Y651D02*
X440Y651D01*
X407Y650D02*
X440Y650D01*
X407Y649D02*
X440Y649D01*
X407Y648D02*
X440Y648D01*
X407Y647D02*
X440Y647D01*
X407Y646D02*
X440Y646D01*
X407Y645D02*
X440Y645D01*
X407Y644D02*
X440Y644D01*
X407Y643D02*
X440Y643D01*
X407Y642D02*
X440Y642D01*
X407Y641D02*
X440Y641D01*
X407Y640D02*
X440Y640D01*
X407Y639D02*
X440Y639D01*
X407Y638D02*
X440Y638D01*
X407Y637D02*
X440Y637D01*
X407Y636D02*
X440Y636D01*
X407Y635D02*
X440Y635D01*
X407Y634D02*
X440Y634D01*
X407Y633D02*
X440Y633D01*
X407Y632D02*
X440Y632D01*
X407Y631D02*
X440Y631D01*
X407Y630D02*
X440Y630D01*
X407Y629D02*
X440Y629D01*
X407Y628D02*
X440Y628D01*
X407Y627D02*
X440Y627D01*
X407Y626D02*
X440Y626D01*
X407Y625D02*
X440Y625D01*
X407Y624D02*
X440Y624D01*
X407Y623D02*
X440Y623D01*
X407Y622D02*
X440Y622D01*
X407Y621D02*
X440Y621D01*
X407Y620D02*
X440Y620D01*
X407Y619D02*
X440Y619D01*
X407Y618D02*
X440Y618D01*
X407Y617D02*
X440Y617D01*
X407Y616D02*
X440Y616D01*
X407Y615D02*
X440Y615D01*
X407Y614D02*
X440Y614D01*
X407Y613D02*
X440Y613D01*
X407Y612D02*
X440Y612D01*
X407Y611D02*
X440Y611D01*
X407Y610D02*
X440Y610D01*
X407Y609D02*
X440Y609D01*
X407Y608D02*
X440Y608D01*
X407Y607D02*
X440Y607D01*
X407Y606D02*
X440Y606D01*
X407Y605D02*
X440Y605D01*
X407Y604D02*
X440Y604D01*
X407Y603D02*
X440Y603D01*
X407Y602D02*
X440Y602D01*
X407Y601D02*
X440Y601D01*
X407Y600D02*
X440Y600D01*
X407Y599D02*
X440Y599D01*
X407Y598D02*
X440Y598D01*
X407Y597D02*
X440Y597D01*
X407Y596D02*
X440Y596D01*
X407Y595D02*
X440Y595D01*
X407Y594D02*
X440Y594D01*
X407Y593D02*
X440Y593D01*
X407Y592D02*
X440Y592D01*
X407Y591D02*
X440Y591D01*
X407Y590D02*
X440Y590D01*
X407Y589D02*
X440Y589D01*
X408Y588D02*
X440Y588D01*
X409Y587D02*
X440Y587D01*
X410Y586D02*
X440Y586D01*
X411Y585D02*
X440Y585D01*
X412Y584D02*
X440Y584D01*
X412Y583D02*
X440Y583D01*
X413Y582D02*
X440Y582D01*
X413Y581D02*
X440Y581D01*
X414Y580D02*
X440Y580D01*
X414Y579D02*
X440Y579D01*
X415Y578D02*
X440Y578D01*
X415Y577D02*
X440Y577D01*
X415Y576D02*
X440Y576D01*
X416Y575D02*
X440Y575D01*
X416Y574D02*
X440Y574D01*
X416Y573D02*
X440Y573D01*
X416Y572D02*
X440Y572D01*
X416Y571D02*
X440Y571D01*
X417Y570D02*
X440Y570D01*
X417Y569D02*
X440Y569D01*
X416Y568D02*
X440Y568D01*
X416Y567D02*
X440Y567D01*
X416Y566D02*
X440Y566D01*
X416Y565D02*
X440Y565D01*
X416Y564D02*
X440Y564D01*
X415Y563D02*
X440Y563D01*
X415Y562D02*
X440Y562D01*
X415Y561D02*
X440Y561D01*
X414Y560D02*
X440Y560D01*
X414Y559D02*
X440Y559D01*
X413Y558D02*
X440Y558D01*
X413Y557D02*
X440Y557D01*
X412Y556D02*
X440Y556D01*
X412Y555D02*
X440Y555D01*
X411Y554D02*
X440Y554D01*
X410Y553D02*
X440Y553D01*
X409Y552D02*
X440Y552D01*
X408Y551D02*
X440Y551D01*
X407Y550D02*
X440Y550D01*
X407Y549D02*
X440Y549D01*
X407Y548D02*
X440Y548D01*
X407Y547D02*
X440Y547D01*
X407Y546D02*
X440Y546D01*
X407Y545D02*
X440Y545D01*
X407Y544D02*
X440Y544D01*
X407Y543D02*
X440Y543D01*
X407Y542D02*
X440Y542D01*
X407Y541D02*
X440Y541D01*
X407Y540D02*
X440Y540D01*
X407Y539D02*
X440Y539D01*
X407Y538D02*
X440Y538D01*
X407Y537D02*
X440Y537D01*
X407Y536D02*
X440Y536D01*
X407Y535D02*
X440Y535D01*
X407Y534D02*
X440Y534D01*
X407Y533D02*
X440Y533D01*
X407Y532D02*
X440Y532D01*
X407Y531D02*
X440Y531D01*
X407Y530D02*
X440Y530D01*
X407Y529D02*
X440Y529D01*
X407Y528D02*
X440Y528D01*
X407Y527D02*
X440Y527D01*
X407Y526D02*
X440Y526D01*
X407Y525D02*
X440Y525D01*
X407Y524D02*
X440Y524D01*
X407Y523D02*
X440Y523D01*
X407Y522D02*
X440Y522D01*
X407Y521D02*
X440Y521D01*
X407Y520D02*
X440Y520D01*
X407Y519D02*
X440Y519D01*
X407Y518D02*
X440Y518D01*
X407Y517D02*
X440Y517D01*
X407Y516D02*
X440Y516D01*
X407Y515D02*
X440Y515D01*
X407Y514D02*
X440Y514D01*
X407Y513D02*
X440Y513D01*
X407Y512D02*
X440Y512D01*
X407Y511D02*
X440Y511D01*
X407Y510D02*
X440Y510D01*
X407Y509D02*
X440Y509D01*
X407Y508D02*
X440Y508D01*
X407Y507D02*
X440Y507D01*
X407Y506D02*
X440Y506D01*
X407Y505D02*
X440Y505D01*
X407Y504D02*
X440Y504D01*
X407Y503D02*
X440Y503D01*
X407Y502D02*
X440Y502D01*
X407Y501D02*
X440Y501D01*
X407Y500D02*
X440Y500D01*
X407Y499D02*
X440Y499D01*
X407Y498D02*
X440Y498D01*
X407Y497D02*
X440Y497D01*
X407Y496D02*
X440Y496D01*
X407Y495D02*
X440Y495D01*
X407Y494D02*
X440Y494D01*
X407Y493D02*
X440Y493D01*
X407Y492D02*
X440Y492D01*
X407Y491D02*
X440Y491D01*
X407Y490D02*
X440Y490D01*
X407Y489D02*
X440Y489D01*
X407Y488D02*
X440Y488D01*
X407Y487D02*
X440Y487D01*
X407Y486D02*
X440Y486D01*
X407Y485D02*
X440Y485D01*
X407Y484D02*
X440Y484D01*
X407Y483D02*
X440Y483D01*
X407Y482D02*
X440Y482D01*
X407Y481D02*
X440Y481D01*
X407Y480D02*
X440Y480D01*
X407Y479D02*
X440Y479D01*
X407Y478D02*
X440Y478D01*
X407Y477D02*
X440Y477D01*
X407Y476D02*
X440Y476D01*
X407Y475D02*
X440Y475D01*
X407Y474D02*
X440Y474D01*
X407Y473D02*
X440Y473D01*
X407Y472D02*
X440Y472D01*
X407Y471D02*
X440Y471D01*
X407Y470D02*
X440Y470D01*
X407Y469D02*
X440Y469D01*
X407Y468D02*
X440Y468D01*
X407Y467D02*
X440Y467D01*
X407Y466D02*
X440Y466D01*
X407Y465D02*
X440Y465D01*
X407Y464D02*
X440Y464D01*
X407Y463D02*
X440Y463D01*
X407Y462D02*
X440Y462D01*
X407Y461D02*
X440Y461D01*
X407Y460D02*
X440Y460D01*
X407Y459D02*
X440Y459D01*
X407Y458D02*
X440Y458D01*
X407Y457D02*
X440Y457D01*
X407Y456D02*
X440Y456D01*
X407Y455D02*
X440Y455D01*
X407Y454D02*
X440Y454D01*
X407Y453D02*
X440Y453D01*
X407Y452D02*
X440Y452D01*
X407Y451D02*
X440Y451D01*
X407Y450D02*
X440Y450D01*
X407Y449D02*
X440Y449D01*
X407Y448D02*
X440Y448D01*
X407Y447D02*
X440Y447D01*
X407Y446D02*
X440Y446D01*
X407Y445D02*
X440Y445D01*
X407Y444D02*
X440Y444D01*
X407Y443D02*
X440Y443D01*
X407Y442D02*
X440Y442D01*
X407Y441D02*
X440Y441D01*
X407Y440D02*
X440Y440D01*
X407Y439D02*
X440Y439D01*
X407Y438D02*
X440Y438D01*
X407Y437D02*
X440Y437D01*
X407Y436D02*
X440Y436D01*
X407Y435D02*
X440Y435D01*
X407Y434D02*
X440Y434D01*
X407Y433D02*
X440Y433D01*
X407Y432D02*
X440Y432D01*
X407Y431D02*
X440Y431D01*
X407Y430D02*
X440Y430D01*
X407Y429D02*
X440Y429D01*
X407Y428D02*
X440Y428D01*
X407Y427D02*
X440Y427D01*
X407Y426D02*
X440Y426D01*
X407Y425D02*
X440Y425D01*
X407Y424D02*
X440Y424D01*
X407Y423D02*
X440Y423D01*
X407Y422D02*
X440Y422D01*
X407Y421D02*
X440Y421D01*
X407Y420D02*
X440Y420D01*
X407Y419D02*
X440Y419D01*
X407Y418D02*
X440Y418D01*
X407Y417D02*
X440Y417D01*
X407Y416D02*
X440Y416D01*
X407Y415D02*
X440Y415D01*
X407Y414D02*
X440Y414D01*
X407Y413D02*
X440Y413D01*
X407Y412D02*
X440Y412D01*
X407Y411D02*
X440Y411D01*
X407Y410D02*
X440Y410D01*
X407Y409D02*
X440Y409D01*
X407Y408D02*
X440Y408D01*
X407Y407D02*
X440Y407D01*
X407Y406D02*
X440Y406D01*
X407Y405D02*
X440Y405D01*
X407Y404D02*
X441Y404D01*
X407Y403D02*
X441Y403D01*
X407Y402D02*
X441Y402D01*
X407Y401D02*
X441Y401D01*
X407Y400D02*
X441Y400D01*
X407Y399D02*
X441Y399D01*
X407Y398D02*
X441Y398D01*
X407Y397D02*
X441Y397D01*
X407Y396D02*
X441Y396D01*
X407Y395D02*
X441Y395D01*
X407Y394D02*
X441Y394D01*
X407Y393D02*
X441Y393D01*
X407Y392D02*
X441Y392D01*
X407Y391D02*
X441Y391D01*
X407Y390D02*
X442Y390D01*
X407Y389D02*
X442Y389D01*
X407Y388D02*
X442Y388D01*
X407Y387D02*
X442Y387D01*
X407Y386D02*
X442Y386D01*
X407Y385D02*
X442Y385D01*
X407Y384D02*
X442Y384D01*
X407Y383D02*
X442Y383D01*
X407Y382D02*
X442Y382D01*
X407Y381D02*
X442Y381D01*
X407Y380D02*
X443Y380D01*
X408Y379D02*
X443Y379D01*
X408Y378D02*
X443Y378D01*
X408Y377D02*
X443Y377D01*
X408Y376D02*
X443Y376D01*
X408Y375D02*
X443Y375D01*
X408Y374D02*
X443Y374D01*
X408Y373D02*
X443Y373D01*
X408Y372D02*
X444Y372D01*
X408Y371D02*
X444Y371D01*
X408Y370D02*
X444Y370D01*
X408Y369D02*
X444Y369D01*
X408Y368D02*
X444Y368D01*
X408Y367D02*
X444Y367D01*
X409Y366D02*
X445Y366D01*
X409Y365D02*
X445Y365D01*
X409Y364D02*
X445Y364D01*
X409Y363D02*
X445Y363D01*
X409Y362D02*
X445Y362D01*
X409Y361D02*
X445Y361D01*
X409Y360D02*
X446Y360D01*
X409Y359D02*
X446Y359D01*
X409Y358D02*
X446Y358D01*
X409Y357D02*
X446Y357D01*
X410Y356D02*
X446Y356D01*
X410Y355D02*
X447Y355D01*
X410Y354D02*
X447Y354D01*
X410Y353D02*
X447Y353D01*
X410Y352D02*
X447Y352D01*
X410Y351D02*
X447Y351D01*
X410Y350D02*
X448Y350D01*
X410Y349D02*
X448Y349D01*
X411Y348D02*
X448Y348D01*
X411Y347D02*
X448Y347D01*
X411Y346D02*
X449Y346D01*
X411Y345D02*
X449Y345D01*
X411Y344D02*
X449Y344D01*
X411Y343D02*
X449Y343D01*
X412Y342D02*
X450Y342D01*
X412Y341D02*
X450Y341D01*
X412Y340D02*
X450Y340D01*
X412Y339D02*
X450Y339D01*
X412Y338D02*
X451Y338D01*
X412Y337D02*
X451Y337D01*
X413Y336D02*
X451Y336D01*
X413Y335D02*
X451Y335D01*
X413Y334D02*
X452Y334D01*
X413Y333D02*
X452Y333D01*
X413Y332D02*
X452Y332D01*
X414Y331D02*
X453Y331D01*
X414Y330D02*
X453Y330D01*
X414Y329D02*
X453Y329D01*
X414Y328D02*
X453Y328D01*
X414Y327D02*
X454Y327D01*
X415Y326D02*
X454Y326D01*
X415Y325D02*
X454Y325D01*
X415Y324D02*
X455Y324D01*
X415Y323D02*
X455Y323D01*
X415Y322D02*
X455Y322D01*
X416Y321D02*
X456Y321D01*
X416Y320D02*
X456Y320D01*
X416Y319D02*
X456Y319D01*
X416Y318D02*
X457Y318D01*
X417Y317D02*
X457Y317D01*
X417Y316D02*
X457Y316D01*
X417Y315D02*
X458Y315D01*
X417Y314D02*
X458Y314D01*
X418Y313D02*
X459Y313D01*
X418Y312D02*
X459Y312D01*
X418Y311D02*
X459Y311D01*
X418Y310D02*
X460Y310D01*
X419Y309D02*
X460Y309D01*
X1179Y309D02*
X1220Y309D01*
X419Y308D02*
X460Y308D01*
X1179Y308D02*
X1220Y308D01*
X419Y307D02*
X461Y307D01*
X1178Y307D02*
X1220Y307D01*
X420Y306D02*
X461Y306D01*
X1178Y306D02*
X1220Y306D01*
X420Y305D02*
X462Y305D01*
X1177Y305D02*
X1219Y305D01*
X420Y304D02*
X462Y304D01*
X1177Y304D02*
X1219Y304D01*
X420Y303D02*
X463Y303D01*
X1177Y303D02*
X1219Y303D01*
X421Y302D02*
X463Y302D01*
X1176Y302D02*
X1218Y302D01*
X421Y301D02*
X463Y301D01*
X1176Y301D02*
X1218Y301D01*
X421Y300D02*
X464Y300D01*
X1175Y300D02*
X1218Y300D01*
X422Y299D02*
X464Y299D01*
X1175Y299D02*
X1217Y299D01*
X422Y298D02*
X465Y298D01*
X1174Y298D02*
X1217Y298D01*
X422Y297D02*
X465Y297D01*
X1174Y297D02*
X1217Y297D01*
X423Y296D02*
X466Y296D01*
X1174Y296D02*
X1217Y296D01*
X423Y295D02*
X466Y295D01*
X1173Y295D02*
X1216Y295D01*
X423Y294D02*
X467Y294D01*
X1173Y294D02*
X1216Y294D01*
X424Y293D02*
X467Y293D01*
X1172Y293D02*
X1215Y293D01*
X424Y292D02*
X468Y292D01*
X1172Y292D02*
X1215Y292D01*
X424Y291D02*
X468Y291D01*
X1171Y291D02*
X1215Y291D01*
X425Y290D02*
X469Y290D01*
X1171Y290D02*
X1214Y290D01*
X425Y289D02*
X469Y289D01*
X1170Y289D02*
X1214Y289D01*
X425Y288D02*
X470Y288D01*
X1170Y288D02*
X1214Y288D01*
X426Y287D02*
X470Y287D01*
X1169Y287D02*
X1213Y287D01*
X426Y286D02*
X471Y286D01*
X1169Y286D02*
X1213Y286D01*
X427Y285D02*
X471Y285D01*
X1168Y285D02*
X1213Y285D01*
X427Y284D02*
X472Y284D01*
X1168Y284D02*
X1212Y284D01*
X427Y283D02*
X472Y283D01*
X1167Y283D02*
X1212Y283D01*
X428Y282D02*
X473Y282D01*
X1167Y282D02*
X1211Y282D01*
X428Y281D02*
X473Y281D01*
X1166Y281D02*
X1211Y281D01*
X428Y280D02*
X474Y280D01*
X1165Y280D02*
X1211Y280D01*
X429Y279D02*
X474Y279D01*
X1165Y279D02*
X1210Y279D01*
X429Y278D02*
X475Y278D01*
X1164Y278D02*
X1210Y278D01*
X430Y277D02*
X476Y277D01*
X1164Y277D02*
X1209Y277D01*
X430Y276D02*
X476Y276D01*
X1163Y276D02*
X1209Y276D01*
X431Y275D02*
X477Y275D01*
X1163Y275D02*
X1209Y275D01*
X431Y274D02*
X477Y274D01*
X1162Y274D02*
X1208Y274D01*
X431Y273D02*
X478Y273D01*
X1161Y273D02*
X1208Y273D01*
X432Y272D02*
X478Y272D01*
X1161Y272D02*
X1207Y272D01*
X432Y271D02*
X479Y271D01*
X1160Y271D02*
X1207Y271D01*
X433Y270D02*
X480Y270D01*
X1159Y270D02*
X1206Y270D01*
X433Y269D02*
X480Y269D01*
X1159Y269D02*
X1206Y269D01*
X434Y268D02*
X481Y268D01*
X1158Y268D02*
X1206Y268D01*
X434Y267D02*
X482Y267D01*
X1157Y267D02*
X1205Y267D01*
X435Y266D02*
X482Y266D01*
X1157Y266D02*
X1205Y266D01*
X435Y265D02*
X483Y265D01*
X1156Y265D02*
X1204Y265D01*
X436Y264D02*
X484Y264D01*
X1156Y264D02*
X1204Y264D01*
X436Y263D02*
X484Y263D01*
X1155Y263D02*
X1203Y263D01*
X436Y262D02*
X485Y262D01*
X1154Y262D02*
X1203Y262D01*
X437Y261D02*
X486Y261D01*
X1154Y261D02*
X1202Y261D01*
X437Y260D02*
X486Y260D01*
X1153Y260D02*
X1202Y260D01*
X438Y259D02*
X487Y259D01*
X1152Y259D02*
X1201Y259D01*
X438Y258D02*
X488Y258D01*
X1151Y258D02*
X1201Y258D01*
X439Y257D02*
X488Y257D01*
X1151Y257D02*
X1200Y257D01*
X440Y256D02*
X489Y256D01*
X1150Y256D02*
X1200Y256D01*
X440Y255D02*
X490Y255D01*
X1149Y255D02*
X1199Y255D01*
X441Y254D02*
X491Y254D01*
X1149Y254D02*
X1199Y254D01*
X441Y253D02*
X491Y253D01*
X1148Y253D02*
X1198Y253D01*
X442Y252D02*
X492Y252D01*
X1147Y252D02*
X1198Y252D01*
X442Y251D02*
X493Y251D01*
X1146Y251D02*
X1197Y251D01*
X443Y250D02*
X494Y250D01*
X1146Y250D02*
X1196Y250D01*
X443Y249D02*
X494Y249D01*
X1145Y249D02*
X1196Y249D01*
X444Y248D02*
X495Y248D01*
X1144Y248D02*
X1195Y248D01*
X444Y247D02*
X496Y247D01*
X1143Y247D02*
X1195Y247D01*
X445Y246D02*
X497Y246D01*
X1142Y246D02*
X1194Y246D01*
X446Y245D02*
X498Y245D01*
X1142Y245D02*
X1194Y245D01*
X446Y244D02*
X499Y244D01*
X1141Y244D02*
X1193Y244D01*
X447Y243D02*
X499Y243D01*
X1140Y243D02*
X1192Y243D01*
X447Y242D02*
X500Y242D01*
X1139Y242D02*
X1192Y242D01*
X448Y241D02*
X501Y241D01*
X1138Y241D02*
X1191Y241D01*
X449Y240D02*
X502Y240D01*
X1137Y240D02*
X1191Y240D01*
X449Y239D02*
X503Y239D01*
X1136Y239D02*
X1190Y239D01*
X450Y238D02*
X504Y238D01*
X1136Y238D02*
X1189Y238D01*
X451Y237D02*
X504Y237D01*
X1135Y237D02*
X1189Y237D01*
X451Y236D02*
X505Y236D01*
X1134Y236D02*
X1188Y236D01*
X452Y235D02*
X506Y235D01*
X1133Y235D02*
X1187Y235D01*
X452Y234D02*
X507Y234D01*
X1132Y234D02*
X1187Y234D01*
X453Y233D02*
X508Y233D01*
X1131Y233D02*
X1186Y233D01*
X454Y232D02*
X509Y232D01*
X1130Y232D02*
X1185Y232D01*
X454Y231D02*
X510Y231D01*
X1129Y231D02*
X1185Y231D01*
X455Y230D02*
X511Y230D01*
X1128Y230D02*
X1184Y230D01*
X456Y229D02*
X512Y229D01*
X1127Y229D02*
X1183Y229D01*
X456Y228D02*
X513Y228D01*
X1126Y228D02*
X1183Y228D01*
X457Y227D02*
X514Y227D01*
X1125Y227D02*
X1182Y227D01*
X458Y226D02*
X515Y226D01*
X1124Y226D02*
X1181Y226D01*
X459Y225D02*
X516Y225D01*
X1123Y225D02*
X1181Y225D01*
X459Y224D02*
X517Y224D01*
X1122Y224D02*
X1180Y224D01*
X460Y223D02*
X518Y223D01*
X1121Y223D02*
X1179Y223D01*
X461Y222D02*
X519Y222D01*
X1120Y222D02*
X1178Y222D01*
X462Y221D02*
X520Y221D01*
X1119Y221D02*
X1178Y221D01*
X462Y220D02*
X521Y220D01*
X1118Y220D02*
X1177Y220D01*
X463Y219D02*
X523Y219D01*
X1117Y219D02*
X1176Y219D01*
X464Y218D02*
X524Y218D01*
X1116Y218D02*
X1175Y218D01*
X465Y217D02*
X525Y217D01*
X1115Y217D02*
X1175Y217D01*
X465Y216D02*
X526Y216D01*
X1113Y216D02*
X1174Y216D01*
X466Y215D02*
X527Y215D01*
X1112Y215D02*
X1173Y215D01*
X467Y214D02*
X528Y214D01*
X1111Y214D02*
X1172Y214D01*
X468Y213D02*
X529Y213D01*
X1110Y213D02*
X1171Y213D01*
X469Y212D02*
X531Y212D01*
X1109Y212D02*
X1171Y212D01*
X470Y211D02*
X532Y211D01*
X1107Y211D02*
X1170Y211D01*
X470Y210D02*
X533Y210D01*
X1106Y210D02*
X1169Y210D01*
X471Y209D02*
X534Y209D01*
X1105Y209D02*
X1168Y209D01*
X472Y208D02*
X535Y208D01*
X1104Y208D02*
X1167Y208D01*
X473Y207D02*
X537Y207D01*
X1103Y207D02*
X1166Y207D01*
X474Y206D02*
X538Y206D01*
X1101Y206D02*
X1165Y206D01*
X475Y205D02*
X539Y205D01*
X1100Y205D02*
X1165Y205D01*
X476Y204D02*
X541Y204D01*
X1099Y204D02*
X1164Y204D01*
X476Y203D02*
X542Y203D01*
X1097Y203D02*
X1163Y203D01*
X477Y202D02*
X543Y202D01*
X1096Y202D02*
X1162Y202D01*
X478Y201D02*
X545Y201D01*
X1094Y201D02*
X1161Y201D01*
X479Y200D02*
X546Y200D01*
X1093Y200D02*
X1160Y200D01*
X480Y199D02*
X548Y199D01*
X1092Y199D02*
X1159Y199D01*
X481Y198D02*
X549Y198D01*
X1090Y198D02*
X1158Y198D01*
X482Y197D02*
X550Y197D01*
X1089Y197D02*
X1157Y197D01*
X483Y196D02*
X552Y196D01*
X1087Y196D02*
X1156Y196D01*
X484Y195D02*
X553Y195D01*
X1086Y195D02*
X1155Y195D01*
X485Y194D02*
X555Y194D01*
X1084Y194D02*
X1154Y194D01*
X486Y193D02*
X556Y193D01*
X1083Y193D02*
X1153Y193D01*
X487Y192D02*
X558Y192D01*
X1081Y192D02*
X1152Y192D01*
X488Y191D02*
X559Y191D01*
X1080Y191D02*
X1151Y191D01*
X489Y190D02*
X561Y190D01*
X1078Y190D02*
X1150Y190D01*
X490Y189D02*
X563Y189D01*
X1077Y189D02*
X1149Y189D01*
X491Y188D02*
X564Y188D01*
X1075Y188D02*
X1148Y188D01*
X492Y187D02*
X566Y187D01*
X1073Y187D02*
X1147Y187D01*
X493Y186D02*
X568Y186D01*
X1072Y186D02*
X1146Y186D01*
X495Y185D02*
X569Y185D01*
X1070Y185D02*
X1145Y185D01*
X496Y184D02*
X571Y184D01*
X1068Y184D02*
X1144Y184D01*
X497Y183D02*
X573Y183D01*
X1066Y183D02*
X1142Y183D01*
X498Y182D02*
X575Y182D01*
X1065Y182D02*
X1141Y182D01*
X499Y181D02*
X576Y181D01*
X1063Y181D02*
X1140Y181D01*
X500Y180D02*
X578Y180D01*
X1061Y180D02*
X1139Y180D01*
X501Y179D02*
X580Y179D01*
X1059Y179D02*
X1138Y179D01*
X502Y178D02*
X582Y178D01*
X1057Y178D02*
X1137Y178D01*
X504Y177D02*
X584Y177D01*
X1055Y177D02*
X1136Y177D01*
X505Y176D02*
X586Y176D01*
X1053Y176D02*
X1134Y176D01*
X506Y175D02*
X588Y175D01*
X1051Y175D02*
X1133Y175D01*
X507Y174D02*
X590Y174D01*
X1049Y174D02*
X1132Y174D01*
X509Y173D02*
X592Y173D01*
X1047Y173D02*
X1131Y173D01*
X510Y172D02*
X594Y172D01*
X1045Y172D02*
X1129Y172D01*
X511Y171D02*
X596Y171D01*
X1043Y171D02*
X1128Y171D01*
X512Y170D02*
X599Y170D01*
X1041Y170D02*
X1127Y170D01*
X514Y169D02*
X601Y169D01*
X1038Y169D02*
X1126Y169D01*
X515Y168D02*
X603Y168D01*
X1036Y168D02*
X1124Y168D01*
X516Y167D02*
X605Y167D01*
X1034Y167D02*
X1123Y167D01*
X518Y166D02*
X608Y166D01*
X1032Y166D02*
X1121Y166D01*
X519Y165D02*
X610Y165D01*
X1029Y165D02*
X1120Y165D01*
X521Y164D02*
X613Y164D01*
X1026Y164D02*
X1119Y164D01*
X522Y163D02*
X615Y163D01*
X1026Y163D02*
X1117Y163D01*
X523Y162D02*
X618Y162D01*
X1025Y162D02*
X1116Y162D01*
X525Y161D02*
X620Y161D01*
X1025Y161D02*
X1114Y161D01*
X526Y160D02*
X623Y160D01*
X1025Y160D02*
X1113Y160D01*
X528Y159D02*
X626Y159D01*
X1024Y159D02*
X1112Y159D01*
X529Y158D02*
X629Y158D01*
X1024Y158D02*
X1110Y158D01*
X531Y157D02*
X632Y157D01*
X1023Y157D02*
X1109Y157D01*
X532Y156D02*
X635Y156D01*
X1023Y156D02*
X1107Y156D01*
X534Y155D02*
X637Y155D01*
X1023Y155D02*
X1105Y155D01*
X535Y154D02*
X641Y154D01*
X1022Y154D02*
X1104Y154D01*
X537Y153D02*
X644Y153D01*
X1021Y153D02*
X1102Y153D01*
X539Y152D02*
X647Y152D01*
X1021Y152D02*
X1101Y152D01*
X540Y151D02*
X651Y151D01*
X1020Y151D02*
X1099Y151D01*
X542Y150D02*
X654Y150D01*
X1019Y150D02*
X1097Y150D01*
X543Y149D02*
X658Y149D01*
X1019Y149D02*
X1096Y149D01*
X545Y148D02*
X661Y148D01*
X1018Y148D02*
X1094Y148D01*
X547Y147D02*
X665Y147D01*
X1017Y147D02*
X1092Y147D01*
X549Y146D02*
X669Y146D01*
X1016Y146D02*
X1090Y146D01*
X551Y145D02*
X673Y145D01*
X1015Y145D02*
X1089Y145D01*
X552Y144D02*
X678Y144D01*
X1015Y144D02*
X1087Y144D01*
X554Y143D02*
X682Y143D01*
X1013Y143D02*
X1085Y143D01*
X556Y142D02*
X687Y142D01*
X952Y142D02*
X954Y142D01*
X1012Y142D02*
X1083Y142D01*
X558Y141D02*
X692Y141D01*
X947Y141D02*
X955Y141D01*
X1011Y141D02*
X1081Y141D01*
X560Y140D02*
X697Y140D01*
X942Y140D02*
X956Y140D01*
X1010Y140D02*
X1079Y140D01*
X562Y139D02*
X702Y139D01*
X937Y139D02*
X957Y139D01*
X1008Y139D02*
X1077Y139D01*
X564Y138D02*
X708Y138D01*
X931Y138D02*
X959Y138D01*
X1007Y138D02*
X1075Y138D01*
X566Y137D02*
X715Y137D01*
X924Y137D02*
X961Y137D01*
X1005Y137D02*
X1073Y137D01*
X568Y136D02*
X721Y136D01*
X918Y136D02*
X962Y136D01*
X1004Y136D02*
X1071Y136D01*
X570Y135D02*
X729Y135D01*
X910Y135D02*
X964Y135D01*
X1001Y135D02*
X1069Y135D01*
X572Y134D02*
X737Y134D01*
X902Y134D02*
X967Y134D01*
X999Y134D02*
X1067Y134D01*
X574Y133D02*
X746Y133D01*
X893Y133D02*
X970Y133D01*
X996Y133D02*
X1065Y133D01*
X576Y132D02*
X757Y132D01*
X882Y132D02*
X974Y132D01*
X992Y132D02*
X1063Y132D01*
X578Y131D02*
X771Y131D01*
X869Y131D02*
X1061Y131D01*
X581Y130D02*
X790Y130D01*
X849Y130D02*
X1058Y130D01*
X583Y129D02*
X1056Y129D01*
X585Y128D02*
X1054Y128D01*
X588Y127D02*
X1052Y127D01*
X590Y126D02*
X1049Y126D01*
X593Y125D02*
X1047Y125D01*
X595Y124D02*
X1044Y124D01*
X598Y123D02*
X1042Y123D01*
X600Y122D02*
X804Y122D01*
X823Y122D02*
X1039Y122D01*
X603Y121D02*
X800Y121D01*
X827Y121D02*
X1036Y121D01*
X605Y120D02*
X797Y120D01*
X830Y120D02*
X1034Y120D01*
X608Y119D02*
X795Y119D01*
X832Y119D02*
X981Y119D01*
X985Y119D02*
X1031Y119D01*
X611Y118D02*
X793Y118D01*
X835Y118D02*
X973Y118D01*
X993Y118D02*
X1028Y118D01*
X614Y117D02*
X791Y117D01*
X836Y117D02*
X969Y117D01*
X997Y117D02*
X1025Y117D01*
X617Y116D02*
X790Y116D01*
X838Y116D02*
X966Y116D01*
X999Y116D02*
X1022Y116D01*
X620Y115D02*
X788Y115D01*
X839Y115D02*
X964Y115D01*
X1002Y115D02*
X1019Y115D01*
X623Y114D02*
X787Y114D01*
X841Y114D02*
X962Y114D01*
X1004Y114D02*
X1016Y114D01*
X626Y113D02*
X785Y113D01*
X842Y113D02*
X960Y113D01*
X1006Y113D02*
X1013Y113D01*
X630Y112D02*
X784Y112D01*
X843Y112D02*
X959Y112D01*
X1007Y112D02*
X1009Y112D01*
X633Y111D02*
X783Y111D01*
X844Y111D02*
X957Y111D01*
X636Y110D02*
X782Y110D01*
X845Y110D02*
X956Y110D01*
X640Y109D02*
X781Y109D01*
X846Y109D02*
X954Y109D01*
X644Y108D02*
X780Y108D01*
X847Y108D02*
X953Y108D01*
X648Y107D02*
X779Y107D01*
X848Y107D02*
X952Y107D01*
X651Y106D02*
X779Y106D01*
X849Y106D02*
X951Y106D01*
X655Y105D02*
X778Y105D01*
X850Y105D02*
X950Y105D01*
X659Y104D02*
X777Y104D01*
X850Y104D02*
X949Y104D01*
X664Y103D02*
X776Y103D01*
X851Y103D02*
X949Y103D01*
X668Y102D02*
X776Y102D01*
X852Y102D02*
X948Y102D01*
X673Y101D02*
X775Y101D01*
X852Y101D02*
X947Y101D01*
X678Y100D02*
X775Y100D01*
X853Y100D02*
X946Y100D01*
X683Y99D02*
X774Y99D01*
X853Y99D02*
X946Y99D01*
X688Y98D02*
X774Y98D01*
X854Y98D02*
X945Y98D01*
X694Y97D02*
X773Y97D01*
X854Y97D02*
X944Y97D01*
X700Y96D02*
X773Y96D01*
X855Y96D02*
X939Y96D01*
X706Y95D02*
X772Y95D01*
X855Y95D02*
X933Y95D01*
X713Y94D02*
X772Y94D01*
X855Y94D02*
X926Y94D01*
X721Y93D02*
X772Y93D01*
X856Y93D02*
X919Y93D01*
X729Y92D02*
X771Y92D01*
X856Y92D02*
X910Y92D01*
X738Y91D02*
X771Y91D01*
X856Y91D02*
X902Y91D01*
X749Y90D02*
X771Y90D01*
X857Y90D02*
X891Y90D01*
X761Y89D02*
X770Y89D01*
X857Y89D02*
X879Y89D01*
X857Y88D02*
X863Y88D01*
D02*
G04 End of Silk1*
M02*