; NON-PLATED HOLES START AT T1
; THROUGH (PLATED) HOLES START AT T100
M48
INCH
T1C0.057000
T2C0.086614
T100C0.044584
T101C0.038000
T102C0.043111
T103C0.015748
%
T1
X002373Y004934
X001373Y003934
X001373Y004934
X001373Y005934
X001373Y001934
X001373Y002934
X002373Y002934
X002373Y001934
X002373Y003934
X002373Y005934
T2
X011373Y000925
X011373Y011139
X005038Y000929
X005034Y011136
T100
X009779Y010312
X008204Y010706
X010468Y008737
X005940Y007163
X006629Y004013
X010468Y007163
X005940Y008737
X010468Y005588
X009778Y004013
X008204Y003619
X006629Y010312
X005940Y005588
T101
X009838Y001745
X008145Y000785
X009838Y000745
X008145Y001785
T102
X002373Y004934
X001373Y003934
X001373Y004934
X001373Y005934
X001373Y001934
X001373Y002934
X002373Y002934
X002373Y001934
X002373Y003934
X002373Y005934
T103
X003920Y005691
T00
M30
